<?xml version="1.0" encoding="utf-8" standalone="no"?>
<!DOCTYPE svg PUBLIC "-//W3C//DTD SVG 1.1//EN"
  "http://www.w3.org/Graphics/SVG/1.1/DTD/svg11.dtd">
<!-- Created with matplotlib (https://matplotlib.org/) -->
<svg height="354.955391pt" version="1.1" viewBox="0 0 2090.975833 354.955391" width="2090.975833pt" xmlns="http://www.w3.org/2000/svg" xmlns:xlink="http://www.w3.org/1999/xlink">
 <metadata>
  <rdf:RDF xmlns:cc="http://creativecommons.org/ns#" xmlns:dc="http://purl.org/dc/elements/1.1/" xmlns:rdf="http://www.w3.org/1999/02/22-rdf-syntax-ns#">
   <cc:Work>
    <dc:type rdf:resource="http://purl.org/dc/dcmitype/StillImage"/>
    <dc:date>2021-08-26T04:52:55.317630</dc:date>
    <dc:format>image/svg+xml</dc:format>
    <dc:creator>
     <cc:Agent>
      <dc:title>Matplotlib v3.3.4, https://matplotlib.org/</dc:title>
     </cc:Agent>
    </dc:creator>
   </cc:Work>
  </rdf:RDF>
 </metadata>
 <defs>
  <style type="text/css">*{stroke-linecap:butt;stroke-linejoin:round;}</style>
 </defs>
 <g id="figure_1">
  <g id="patch_1">
   <path d="M 0 354.955391 
L 2090.975833 354.955391 
L 2090.975833 0 
L 0 0 
z
" style="fill:#ffffff;"/>
  </g>
  <g id="axes_1">
   <g id="patch_2">
    <path d="M 72.722109 299.704062 
L 398.24662 299.704062 
L 398.24662 26.084062 
L 72.722109 26.084062 
z
" style="fill:#ffffff;"/>
   </g>
   <g id="matplotlib.axis_1">
    <g id="xtick_1">
     <g id="line2d_1">
      <path clip-path="url(#p6adcfbdbb4)" d="M 79.930694 299.704062 
L 79.930694 26.084062 
" style="fill:none;stroke:#cccccc;stroke-linecap:round;stroke-width:1.5;"/>
     </g>
     <g id="text_1">
      <!-- 0 -->
      <g style="fill:#262626;" transform="translate(75.342921 324.014453)scale(0.165 -0.165)">
       <defs>
        <path d="M 4.15625 35.296875 
Q 4.15625 48 6.765625 55.734375 
Q 9.375 63.484375 14.515625 67.671875 
Q 19.671875 71.875 27.484375 71.875 
Q 33.25 71.875 37.59375 69.546875 
Q 41.9375 67.234375 44.765625 62.859375 
Q 47.609375 58.5 49.21875 52.21875 
Q 50.828125 45.953125 50.828125 35.296875 
Q 50.828125 22.703125 48.234375 14.96875 
Q 45.65625 7.234375 40.5 3 
Q 35.359375 -1.21875 27.484375 -1.21875 
Q 17.140625 -1.21875 11.234375 6.203125 
Q 4.15625 15.140625 4.15625 35.296875 
z
M 13.1875 35.296875 
Q 13.1875 17.671875 17.3125 11.828125 
Q 21.4375 6 27.484375 6 
Q 33.546875 6 37.671875 11.859375 
Q 41.796875 17.71875 41.796875 35.296875 
Q 41.796875 52.984375 37.671875 58.78125 
Q 33.546875 64.59375 27.390625 64.59375 
Q 21.34375 64.59375 17.71875 59.46875 
Q 13.1875 52.9375 13.1875 35.296875 
z
" id="ArialMT-48"/>
       </defs>
       <use xlink:href="#ArialMT-48"/>
      </g>
     </g>
    </g>
    <g id="xtick_2">
     <g id="line2d_2">
      <path clip-path="url(#p6adcfbdbb4)" d="M 155.810533 299.704062 
L 155.810533 26.084062 
" style="fill:none;stroke:#cccccc;stroke-linecap:round;stroke-width:1.5;"/>
     </g>
     <g id="text_2">
      <!-- 10 -->
      <g style="fill:#262626;" transform="translate(146.634987 324.014453)scale(0.165 -0.165)">
       <defs>
        <path d="M 37.25 0 
L 28.46875 0 
L 28.46875 56 
Q 25.296875 52.984375 20.140625 49.953125 
Q 14.984375 46.921875 10.890625 45.40625 
L 10.890625 53.90625 
Q 18.265625 57.375 23.78125 62.296875 
Q 29.296875 67.234375 31.59375 71.875 
L 37.25 71.875 
z
" id="ArialMT-49"/>
       </defs>
       <use xlink:href="#ArialMT-49"/>
       <use x="55.615234" xlink:href="#ArialMT-48"/>
      </g>
     </g>
    </g>
    <g id="xtick_3">
     <g id="line2d_3">
      <path clip-path="url(#p6adcfbdbb4)" d="M 231.690373 299.704062 
L 231.690373 26.084062 
" style="fill:none;stroke:#cccccc;stroke-linecap:round;stroke-width:1.5;"/>
     </g>
     <g id="text_3">
      <!-- 20 -->
      <g style="fill:#262626;" transform="translate(222.514826 324.014453)scale(0.165 -0.165)">
       <defs>
        <path d="M 50.34375 8.453125 
L 50.34375 0 
L 3.03125 0 
Q 2.9375 3.171875 4.046875 6.109375 
Q 5.859375 10.9375 9.828125 15.625 
Q 13.8125 20.3125 21.34375 26.46875 
Q 33.015625 36.03125 37.109375 41.625 
Q 41.21875 47.21875 41.21875 52.203125 
Q 41.21875 57.421875 37.46875 61 
Q 33.734375 64.59375 27.734375 64.59375 
Q 21.390625 64.59375 17.578125 60.78125 
Q 13.765625 56.984375 13.71875 50.25 
L 4.6875 51.171875 
Q 5.609375 61.28125 11.65625 66.578125 
Q 17.71875 71.875 27.9375 71.875 
Q 38.234375 71.875 44.234375 66.15625 
Q 50.25 60.453125 50.25 52 
Q 50.25 47.703125 48.484375 43.546875 
Q 46.734375 39.40625 42.65625 34.8125 
Q 38.578125 30.21875 29.109375 22.21875 
Q 21.1875 15.578125 18.9375 13.203125 
Q 16.703125 10.84375 15.234375 8.453125 
z
" id="ArialMT-50"/>
       </defs>
       <use xlink:href="#ArialMT-50"/>
       <use x="55.615234" xlink:href="#ArialMT-48"/>
      </g>
     </g>
    </g>
    <g id="xtick_4">
     <g id="line2d_4">
      <path clip-path="url(#p6adcfbdbb4)" d="M 307.570212 299.704062 
L 307.570212 26.084062 
" style="fill:none;stroke:#cccccc;stroke-linecap:round;stroke-width:1.5;"/>
     </g>
     <g id="text_4">
      <!-- 30 -->
      <g style="fill:#262626;" transform="translate(298.394665 324.014453)scale(0.165 -0.165)">
       <defs>
        <path d="M 4.203125 18.890625 
L 12.984375 20.0625 
Q 14.5 12.59375 18.140625 9.296875 
Q 21.78125 6 27 6 
Q 33.203125 6 37.46875 10.296875 
Q 41.75 14.59375 41.75 20.953125 
Q 41.75 27 37.796875 30.921875 
Q 33.84375 34.859375 27.734375 34.859375 
Q 25.25 34.859375 21.53125 33.890625 
L 22.515625 41.609375 
Q 23.390625 41.5 23.921875 41.5 
Q 29.546875 41.5 34.03125 44.421875 
Q 38.53125 47.359375 38.53125 53.46875 
Q 38.53125 58.296875 35.25 61.46875 
Q 31.984375 64.65625 26.8125 64.65625 
Q 21.6875 64.65625 18.265625 61.421875 
Q 14.84375 58.203125 13.875 51.765625 
L 5.078125 53.328125 
Q 6.6875 62.15625 12.390625 67.015625 
Q 18.109375 71.875 26.609375 71.875 
Q 32.46875 71.875 37.390625 69.359375 
Q 42.328125 66.84375 44.9375 62.5 
Q 47.5625 58.15625 47.5625 53.265625 
Q 47.5625 48.640625 45.0625 44.828125 
Q 42.578125 41.015625 37.703125 38.765625 
Q 44.046875 37.3125 47.5625 32.6875 
Q 51.078125 28.078125 51.078125 21.140625 
Q 51.078125 11.765625 44.234375 5.25 
Q 37.40625 -1.265625 26.953125 -1.265625 
Q 17.53125 -1.265625 11.296875 4.34375 
Q 5.078125 9.96875 4.203125 18.890625 
z
" id="ArialMT-51"/>
       </defs>
       <use xlink:href="#ArialMT-51"/>
       <use x="55.615234" xlink:href="#ArialMT-48"/>
      </g>
     </g>
    </g>
    <g id="xtick_5">
     <g id="line2d_5">
      <path clip-path="url(#p6adcfbdbb4)" d="M 383.450051 299.704062 
L 383.450051 26.084062 
" style="fill:none;stroke:#cccccc;stroke-linecap:round;stroke-width:1.5;"/>
     </g>
     <g id="text_5">
      <!-- 40 -->
      <g style="fill:#262626;" transform="translate(374.274504 324.014453)scale(0.165 -0.165)">
       <defs>
        <path d="M 32.328125 0 
L 32.328125 17.140625 
L 1.265625 17.140625 
L 1.265625 25.203125 
L 33.9375 71.578125 
L 41.109375 71.578125 
L 41.109375 25.203125 
L 50.78125 25.203125 
L 50.78125 17.140625 
L 41.109375 17.140625 
L 41.109375 0 
z
M 32.328125 25.203125 
L 32.328125 57.46875 
L 9.90625 25.203125 
z
" id="ArialMT-52"/>
       </defs>
       <use xlink:href="#ArialMT-52"/>
       <use x="55.615234" xlink:href="#ArialMT-48"/>
      </g>
     </g>
    </g>
    <g id="text_6">
     <!-- epoch -->
     <g style="fill:#262626;" transform="translate(210.96499 344.177891)scale(0.18 -0.18)">
      <defs>
       <path d="M 42.09375 16.703125 
L 51.171875 15.578125 
Q 49.03125 7.625 43.21875 3.21875 
Q 37.40625 -1.171875 28.375 -1.171875 
Q 17 -1.171875 10.328125 5.828125 
Q 3.65625 12.84375 3.65625 25.484375 
Q 3.65625 38.578125 10.390625 45.796875 
Q 17.140625 53.03125 27.875 53.03125 
Q 38.28125 53.03125 44.875 45.953125 
Q 51.46875 38.875 51.46875 26.03125 
Q 51.46875 25.25 51.421875 23.6875 
L 12.75 23.6875 
Q 13.234375 15.140625 17.578125 10.59375 
Q 21.921875 6.0625 28.421875 6.0625 
Q 33.25 6.0625 36.671875 8.59375 
Q 40.09375 11.140625 42.09375 16.703125 
z
M 13.234375 30.90625 
L 42.1875 30.90625 
Q 41.609375 37.453125 38.875 40.71875 
Q 34.671875 45.796875 27.984375 45.796875 
Q 21.921875 45.796875 17.796875 41.75 
Q 13.671875 37.703125 13.234375 30.90625 
z
" id="ArialMT-101"/>
       <path d="M 6.59375 -19.875 
L 6.59375 51.859375 
L 14.59375 51.859375 
L 14.59375 45.125 
Q 17.4375 49.078125 21 51.046875 
Q 24.5625 53.03125 29.640625 53.03125 
Q 36.28125 53.03125 41.359375 49.609375 
Q 46.4375 46.1875 49.015625 39.953125 
Q 51.609375 33.734375 51.609375 26.3125 
Q 51.609375 18.359375 48.75 11.984375 
Q 45.90625 5.609375 40.453125 2.21875 
Q 35.015625 -1.171875 29 -1.171875 
Q 24.609375 -1.171875 21.109375 0.6875 
Q 17.625 2.546875 15.375 5.375 
L 15.375 -19.875 
z
M 14.546875 25.640625 
Q 14.546875 15.625 18.59375 10.84375 
Q 22.65625 6.0625 28.421875 6.0625 
Q 34.28125 6.0625 38.453125 11.015625 
Q 42.625 15.96875 42.625 26.375 
Q 42.625 36.28125 38.546875 41.203125 
Q 34.46875 46.140625 28.8125 46.140625 
Q 23.1875 46.140625 18.859375 40.890625 
Q 14.546875 35.640625 14.546875 25.640625 
z
" id="ArialMT-112"/>
       <path d="M 3.328125 25.921875 
Q 3.328125 40.328125 11.328125 47.265625 
Q 18.015625 53.03125 27.640625 53.03125 
Q 38.328125 53.03125 45.109375 46.015625 
Q 51.90625 39.015625 51.90625 26.65625 
Q 51.90625 16.65625 48.90625 10.90625 
Q 45.90625 5.171875 40.15625 2 
Q 34.421875 -1.171875 27.640625 -1.171875 
Q 16.75 -1.171875 10.03125 5.8125 
Q 3.328125 12.796875 3.328125 25.921875 
z
M 12.359375 25.921875 
Q 12.359375 15.96875 16.703125 11.015625 
Q 21.046875 6.0625 27.640625 6.0625 
Q 34.1875 6.0625 38.53125 11.03125 
Q 42.875 16.015625 42.875 26.21875 
Q 42.875 35.84375 38.5 40.796875 
Q 34.125 45.75 27.640625 45.75 
Q 21.046875 45.75 16.703125 40.8125 
Q 12.359375 35.890625 12.359375 25.921875 
z
" id="ArialMT-111"/>
       <path d="M 40.4375 19 
L 49.078125 17.875 
Q 47.65625 8.9375 41.8125 3.875 
Q 35.984375 -1.171875 27.484375 -1.171875 
Q 16.84375 -1.171875 10.375 5.78125 
Q 3.90625 12.75 3.90625 25.734375 
Q 3.90625 34.125 6.6875 40.421875 
Q 9.46875 46.734375 15.15625 49.875 
Q 20.84375 53.03125 27.546875 53.03125 
Q 35.984375 53.03125 41.359375 48.75 
Q 46.734375 44.484375 48.25 36.625 
L 39.703125 35.296875 
Q 38.484375 40.53125 35.375 43.15625 
Q 32.28125 45.796875 27.875 45.796875 
Q 21.234375 45.796875 17.078125 41.03125 
Q 12.9375 36.28125 12.9375 25.984375 
Q 12.9375 15.53125 16.9375 10.796875 
Q 20.953125 6.0625 27.390625 6.0625 
Q 32.5625 6.0625 36.03125 9.234375 
Q 39.5 12.40625 40.4375 19 
z
" id="ArialMT-99"/>
       <path d="M 6.59375 0 
L 6.59375 71.578125 
L 15.375 71.578125 
L 15.375 45.90625 
Q 21.53125 53.03125 30.90625 53.03125 
Q 36.671875 53.03125 40.921875 50.75 
Q 45.171875 48.484375 47 44.484375 
Q 48.828125 40.484375 48.828125 32.859375 
L 48.828125 0 
L 40.046875 0 
L 40.046875 32.859375 
Q 40.046875 39.453125 37.1875 42.453125 
Q 34.328125 45.453125 29.109375 45.453125 
Q 25.203125 45.453125 21.75 43.421875 
Q 18.3125 41.40625 16.84375 37.9375 
Q 15.375 34.46875 15.375 28.375 
L 15.375 0 
z
" id="ArialMT-104"/>
      </defs>
      <use xlink:href="#ArialMT-101"/>
      <use x="55.615234" xlink:href="#ArialMT-112"/>
      <use x="111.230469" xlink:href="#ArialMT-111"/>
      <use x="166.845703" xlink:href="#ArialMT-99"/>
      <use x="216.845703" xlink:href="#ArialMT-104"/>
     </g>
    </g>
   </g>
   <g id="matplotlib.axis_2">
    <g id="ytick_1">
     <g id="line2d_6">
      <path clip-path="url(#p6adcfbdbb4)" d="M 72.722109 295.138481 
L 398.24662 295.138481 
" style="fill:none;stroke:#cccccc;stroke-linecap:round;stroke-width:1.5;"/>
     </g>
     <g id="text_7">
      <!-- 0.60 -->
      <g style="fill:#262626;" transform="translate(28.111562 301.043677)scale(0.165 -0.165)">
       <defs>
        <path d="M 9.078125 0 
L 9.078125 10.015625 
L 19.09375 10.015625 
L 19.09375 0 
z
" id="ArialMT-46"/>
        <path d="M 49.75 54.046875 
L 41.015625 53.375 
Q 39.84375 58.546875 37.703125 60.890625 
Q 34.125 64.65625 28.90625 64.65625 
Q 24.703125 64.65625 21.53125 62.3125 
Q 17.390625 59.28125 14.984375 53.46875 
Q 12.59375 47.65625 12.5 36.921875 
Q 15.671875 41.75 20.265625 44.09375 
Q 24.859375 46.4375 29.890625 46.4375 
Q 38.671875 46.4375 44.84375 39.96875 
Q 51.03125 33.5 51.03125 23.25 
Q 51.03125 16.5 48.125 10.71875 
Q 45.21875 4.9375 40.140625 1.859375 
Q 35.0625 -1.21875 28.609375 -1.21875 
Q 17.625 -1.21875 10.6875 6.859375 
Q 3.765625 14.9375 3.765625 33.5 
Q 3.765625 54.25 11.421875 63.671875 
Q 18.109375 71.875 29.4375 71.875 
Q 37.890625 71.875 43.28125 67.140625 
Q 48.6875 62.40625 49.75 54.046875 
z
M 13.875 23.1875 
Q 13.875 18.65625 15.796875 14.5 
Q 17.71875 10.359375 21.1875 8.171875 
Q 24.65625 6 28.46875 6 
Q 34.03125 6 38.03125 10.484375 
Q 42.046875 14.984375 42.046875 22.703125 
Q 42.046875 30.125 38.078125 34.390625 
Q 34.125 38.671875 28.125 38.671875 
Q 22.171875 38.671875 18.015625 34.390625 
Q 13.875 30.125 13.875 23.1875 
z
" id="ArialMT-54"/>
       </defs>
       <use xlink:href="#ArialMT-48"/>
       <use x="55.615234" xlink:href="#ArialMT-46"/>
       <use x="83.398438" xlink:href="#ArialMT-54"/>
       <use x="139.013672" xlink:href="#ArialMT-48"/>
      </g>
     </g>
    </g>
    <g id="ytick_2">
     <g id="line2d_7">
      <path clip-path="url(#p6adcfbdbb4)" d="M 72.722109 255.780023 
L 398.24662 255.780023 
" style="fill:none;stroke:#cccccc;stroke-linecap:round;stroke-width:1.5;"/>
     </g>
     <g id="text_8">
      <!-- 0.65 -->
      <g style="fill:#262626;" transform="translate(28.111562 261.685219)scale(0.165 -0.165)">
       <defs>
        <path d="M 4.15625 18.75 
L 13.375 19.53125 
Q 14.40625 12.796875 18.140625 9.390625 
Q 21.875 6 27.15625 6 
Q 33.5 6 37.890625 10.78125 
Q 42.28125 15.578125 42.28125 23.484375 
Q 42.28125 31 38.0625 35.34375 
Q 33.84375 39.703125 27 39.703125 
Q 22.75 39.703125 19.328125 37.765625 
Q 15.921875 35.84375 13.96875 32.765625 
L 5.71875 33.84375 
L 12.640625 70.609375 
L 48.25 70.609375 
L 48.25 62.203125 
L 19.671875 62.203125 
L 15.828125 42.96875 
Q 22.265625 47.46875 29.34375 47.46875 
Q 38.71875 47.46875 45.15625 40.96875 
Q 51.609375 34.46875 51.609375 24.265625 
Q 51.609375 14.546875 45.953125 7.46875 
Q 39.0625 -1.21875 27.15625 -1.21875 
Q 17.390625 -1.21875 11.203125 4.25 
Q 5.03125 9.71875 4.15625 18.75 
z
" id="ArialMT-53"/>
       </defs>
       <use xlink:href="#ArialMT-48"/>
       <use x="55.615234" xlink:href="#ArialMT-46"/>
       <use x="83.398438" xlink:href="#ArialMT-54"/>
       <use x="139.013672" xlink:href="#ArialMT-53"/>
      </g>
     </g>
    </g>
    <g id="ytick_3">
     <g id="line2d_8">
      <path clip-path="url(#p6adcfbdbb4)" d="M 72.722109 216.421565 
L 398.24662 216.421565 
" style="fill:none;stroke:#cccccc;stroke-linecap:round;stroke-width:1.5;"/>
     </g>
     <g id="text_9">
      <!-- 0.70 -->
      <g style="fill:#262626;" transform="translate(28.111562 222.326761)scale(0.165 -0.165)">
       <defs>
        <path d="M 4.734375 62.203125 
L 4.734375 70.65625 
L 51.078125 70.65625 
L 51.078125 63.8125 
Q 44.234375 56.546875 37.515625 44.484375 
Q 30.8125 32.421875 27.15625 19.671875 
Q 24.515625 10.6875 23.78125 0 
L 14.75 0 
Q 14.890625 8.453125 18.0625 20.40625 
Q 21.234375 32.375 27.171875 43.484375 
Q 33.109375 54.59375 39.796875 62.203125 
z
" id="ArialMT-55"/>
       </defs>
       <use xlink:href="#ArialMT-48"/>
       <use x="55.615234" xlink:href="#ArialMT-46"/>
       <use x="83.398438" xlink:href="#ArialMT-55"/>
       <use x="139.013672" xlink:href="#ArialMT-48"/>
      </g>
     </g>
    </g>
    <g id="ytick_4">
     <g id="line2d_9">
      <path clip-path="url(#p6adcfbdbb4)" d="M 72.722109 177.063107 
L 398.24662 177.063107 
" style="fill:none;stroke:#cccccc;stroke-linecap:round;stroke-width:1.5;"/>
     </g>
     <g id="text_10">
      <!-- 0.75 -->
      <g style="fill:#262626;" transform="translate(28.111562 182.968303)scale(0.165 -0.165)">
       <use xlink:href="#ArialMT-48"/>
       <use x="55.615234" xlink:href="#ArialMT-46"/>
       <use x="83.398438" xlink:href="#ArialMT-55"/>
       <use x="139.013672" xlink:href="#ArialMT-53"/>
      </g>
     </g>
    </g>
    <g id="ytick_5">
     <g id="line2d_10">
      <path clip-path="url(#p6adcfbdbb4)" d="M 72.722109 137.704649 
L 398.24662 137.704649 
" style="fill:none;stroke:#cccccc;stroke-linecap:round;stroke-width:1.5;"/>
     </g>
     <g id="text_11">
      <!-- 0.80 -->
      <g style="fill:#262626;" transform="translate(28.111562 143.609845)scale(0.165 -0.165)">
       <defs>
        <path d="M 17.671875 38.8125 
Q 12.203125 40.828125 9.5625 44.53125 
Q 6.9375 48.25 6.9375 53.421875 
Q 6.9375 61.234375 12.546875 66.546875 
Q 18.171875 71.875 27.484375 71.875 
Q 36.859375 71.875 42.578125 66.421875 
Q 48.296875 60.984375 48.296875 53.171875 
Q 48.296875 48.1875 45.671875 44.5 
Q 43.0625 40.828125 37.75 38.8125 
Q 44.34375 36.671875 47.78125 31.875 
Q 51.21875 27.09375 51.21875 20.453125 
Q 51.21875 11.28125 44.71875 5.03125 
Q 38.234375 -1.21875 27.640625 -1.21875 
Q 17.046875 -1.21875 10.546875 5.046875 
Q 4.046875 11.328125 4.046875 20.703125 
Q 4.046875 27.6875 7.59375 32.390625 
Q 11.140625 37.109375 17.671875 38.8125 
z
M 15.921875 53.71875 
Q 15.921875 48.640625 19.1875 45.40625 
Q 22.46875 42.1875 27.6875 42.1875 
Q 32.765625 42.1875 36.015625 45.375 
Q 39.265625 48.578125 39.265625 53.21875 
Q 39.265625 58.0625 35.90625 61.359375 
Q 32.5625 64.65625 27.59375 64.65625 
Q 22.5625 64.65625 19.234375 61.421875 
Q 15.921875 58.203125 15.921875 53.71875 
z
M 13.09375 20.65625 
Q 13.09375 16.890625 14.875 13.375 
Q 16.65625 9.859375 20.171875 7.921875 
Q 23.6875 6 27.734375 6 
Q 34.03125 6 38.125 10.046875 
Q 42.234375 14.109375 42.234375 20.359375 
Q 42.234375 26.703125 38.015625 30.859375 
Q 33.796875 35.015625 27.4375 35.015625 
Q 21.234375 35.015625 17.15625 30.90625 
Q 13.09375 26.8125 13.09375 20.65625 
z
" id="ArialMT-56"/>
       </defs>
       <use xlink:href="#ArialMT-48"/>
       <use x="55.615234" xlink:href="#ArialMT-46"/>
       <use x="83.398438" xlink:href="#ArialMT-56"/>
       <use x="139.013672" xlink:href="#ArialMT-48"/>
      </g>
     </g>
    </g>
    <g id="ytick_6">
     <g id="line2d_11">
      <path clip-path="url(#p6adcfbdbb4)" d="M 72.722109 98.346191 
L 398.24662 98.346191 
" style="fill:none;stroke:#cccccc;stroke-linecap:round;stroke-width:1.5;"/>
     </g>
     <g id="text_12">
      <!-- 0.85 -->
      <g style="fill:#262626;" transform="translate(28.111562 104.251387)scale(0.165 -0.165)">
       <use xlink:href="#ArialMT-48"/>
       <use x="55.615234" xlink:href="#ArialMT-46"/>
       <use x="83.398438" xlink:href="#ArialMT-56"/>
       <use x="139.013672" xlink:href="#ArialMT-53"/>
      </g>
     </g>
    </g>
    <g id="ytick_7">
     <g id="line2d_12">
      <path clip-path="url(#p6adcfbdbb4)" d="M 72.722109 58.987733 
L 398.24662 58.987733 
" style="fill:none;stroke:#cccccc;stroke-linecap:round;stroke-width:1.5;"/>
     </g>
     <g id="text_13">
      <!-- 0.90 -->
      <g style="fill:#262626;" transform="translate(28.111562 64.892929)scale(0.165 -0.165)">
       <defs>
        <path d="M 5.46875 16.546875 
L 13.921875 17.328125 
Q 14.984375 11.375 18.015625 8.6875 
Q 21.046875 6 25.78125 6 
Q 29.828125 6 32.875 7.859375 
Q 35.9375 9.71875 37.890625 12.8125 
Q 39.84375 15.921875 41.15625 21.1875 
Q 42.484375 26.46875 42.484375 31.9375 
Q 42.484375 32.515625 42.4375 33.6875 
Q 39.796875 29.5 35.234375 26.875 
Q 30.671875 24.265625 25.34375 24.265625 
Q 16.453125 24.265625 10.296875 30.703125 
Q 4.15625 37.15625 4.15625 47.703125 
Q 4.15625 58.59375 10.578125 65.234375 
Q 17 71.875 26.65625 71.875 
Q 33.640625 71.875 39.421875 68.109375 
Q 45.21875 64.359375 48.21875 57.390625 
Q 51.21875 50.4375 51.21875 37.25 
Q 51.21875 23.53125 48.234375 15.40625 
Q 45.265625 7.28125 39.375 3.03125 
Q 33.5 -1.21875 25.59375 -1.21875 
Q 17.1875 -1.21875 11.859375 3.4375 
Q 6.546875 8.109375 5.46875 16.546875 
z
M 41.453125 48.140625 
Q 41.453125 55.71875 37.421875 60.15625 
Q 33.40625 64.59375 27.734375 64.59375 
Q 21.875 64.59375 17.53125 59.8125 
Q 13.1875 55.03125 13.1875 47.40625 
Q 13.1875 40.578125 17.3125 36.296875 
Q 21.4375 32.03125 27.484375 32.03125 
Q 33.59375 32.03125 37.515625 36.296875 
Q 41.453125 40.578125 41.453125 48.140625 
z
" id="ArialMT-57"/>
       </defs>
       <use xlink:href="#ArialMT-48"/>
       <use x="55.615234" xlink:href="#ArialMT-46"/>
       <use x="83.398438" xlink:href="#ArialMT-57"/>
       <use x="139.013672" xlink:href="#ArialMT-48"/>
      </g>
     </g>
    </g>
    <g id="text_14">
     <!-- AP@50 -->
     <g style="fill:#262626;" transform="translate(20.323125 194.046719)rotate(-90)scale(0.18 -0.18)">
      <defs>
       <path d="M -0.140625 0 
L 27.34375 71.578125 
L 37.546875 71.578125 
L 66.84375 0 
L 56.0625 0 
L 47.703125 21.6875 
L 17.78125 21.6875 
L 9.90625 0 
z
M 20.515625 29.390625 
L 44.78125 29.390625 
L 37.3125 49.21875 
Q 33.890625 58.25 32.234375 64.0625 
Q 30.859375 57.171875 28.375 50.390625 
z
" id="ArialMT-65"/>
       <path d="M 7.71875 0 
L 7.71875 71.578125 
L 34.71875 71.578125 
Q 41.84375 71.578125 45.609375 70.90625 
Q 50.875 70.015625 54.4375 67.546875 
Q 58.015625 65.09375 60.1875 60.640625 
Q 62.359375 56.203125 62.359375 50.875 
Q 62.359375 41.75 56.546875 35.421875 
Q 50.734375 29.109375 35.546875 29.109375 
L 17.1875 29.109375 
L 17.1875 0 
z
M 17.1875 37.546875 
L 35.6875 37.546875 
Q 44.875 37.546875 48.734375 40.96875 
Q 52.59375 44.390625 52.59375 50.59375 
Q 52.59375 55.078125 50.3125 58.265625 
Q 48.046875 61.46875 44.34375 62.5 
Q 41.9375 63.140625 35.5 63.140625 
L 17.1875 63.140625 
z
" id="ArialMT-80"/>
       <path d="M 56.6875 7.953125 
Q 53.515625 4.296875 49.578125 2.078125 
Q 45.65625 -0.140625 41.703125 -0.140625 
Q 37.359375 -0.140625 33.25 2.390625 
Q 29.15625 4.9375 26.59375 10.203125 
Q 24.03125 15.484375 24.03125 21.78125 
Q 24.03125 29.546875 28 37.328125 
Q 31.984375 45.125 37.890625 49.03125 
Q 43.796875 52.9375 49.359375 52.9375 
Q 53.609375 52.9375 57.46875 50.703125 
Q 61.328125 48.484375 64.109375 43.953125 
L 65.765625 51.515625 
L 74.515625 51.515625 
L 67.484375 18.75 
Q 66.015625 11.921875 66.015625 11.1875 
Q 66.015625 9.859375 67.015625 8.90625 
Q 68.015625 7.953125 69.4375 7.953125 
Q 72.015625 7.953125 76.21875 10.9375 
Q 81.78125 14.84375 85.03125 21.40625 
Q 88.28125 27.984375 88.28125 34.96875 
Q 88.28125 43.109375 84.109375 50.1875 
Q 79.9375 57.28125 71.65625 61.515625 
Q 63.375 65.765625 53.375 65.765625 
Q 41.9375 65.765625 32.484375 60.421875 
Q 23.046875 55.078125 17.84375 45.09375 
Q 12.640625 35.109375 12.640625 23.6875 
Q 12.640625 11.71875 17.84375 3.078125 
Q 23.046875 -5.5625 32.875 -9.6875 
Q 42.71875 -13.8125 54.6875 -13.8125 
Q 67.484375 -13.8125 76.125 -9.515625 
Q 84.765625 -5.21875 89.0625 0.921875 
L 97.90625 0.921875 
Q 95.40625 -4.203125 89.34375 -9.515625 
Q 83.296875 -14.84375 74.953125 -17.9375 
Q 66.609375 -21.046875 54.828125 -21.046875 
Q 44 -21.046875 34.84375 -18.265625 
Q 25.6875 -15.484375 19.234375 -9.890625 
Q 12.796875 -4.296875 9.515625 2.984375 
Q 5.421875 12.203125 5.421875 22.90625 
Q 5.421875 34.8125 10.296875 45.609375 
Q 16.265625 58.84375 27.21875 65.875 
Q 38.1875 72.90625 53.8125 72.90625 
Q 65.921875 72.90625 75.5625 67.9375 
Q 85.203125 62.984375 90.765625 53.171875 
Q 95.515625 44.734375 95.515625 34.8125 
Q 95.515625 20.65625 85.546875 9.671875 
Q 76.65625 -0.203125 66.109375 -0.203125 
Q 62.75 -0.203125 60.671875 0.828125 
Q 58.59375 1.859375 57.625 3.765625 
Q 56.984375 4.984375 56.6875 7.953125 
z
M 33.0625 21.1875 
Q 33.0625 14.5 36.234375 10.78125 
Q 39.40625 7.078125 43.5 7.078125 
Q 46.234375 7.078125 49.265625 8.71875 
Q 52.296875 10.359375 55.046875 13.578125 
Q 57.8125 16.796875 59.5625 21.75 
Q 61.328125 26.703125 61.328125 31.6875 
Q 61.328125 38.328125 58.03125 41.984375 
Q 54.734375 45.65625 50 45.65625 
Q 46.875 45.65625 44.109375 44.0625 
Q 41.359375 42.484375 38.765625 38.96875 
Q 36.1875 35.453125 34.625 30.421875 
Q 33.0625 25.390625 33.0625 21.1875 
z
" id="ArialMT-64"/>
      </defs>
      <use xlink:href="#ArialMT-65"/>
      <use x="66.699219" xlink:href="#ArialMT-80"/>
      <use x="133.398438" xlink:href="#ArialMT-64"/>
      <use x="234.912109" xlink:href="#ArialMT-53"/>
      <use x="290.527344" xlink:href="#ArialMT-48"/>
     </g>
    </g>
   </g>
   <g id="line2d_13">
    <path clip-path="url(#p6adcfbdbb4)" d="M 87.518678 286.479621 
L 95.106662 259.715869 
L 102.694646 225.867595 
L 110.28263 195.167998 
L 117.870614 180.211784 
L 125.458598 168.404247 
L 133.046582 161.319724 
L 140.634566 158.958217 
L 148.222549 155.022371 
L 155.810533 149.512187 
L 163.398517 147.937848 
L 170.986501 149.512187 
L 178.574485 151.086525 
L 186.162469 150.299356 
L 193.750453 151.873694 
L 201.338437 152.660863 
L 208.926421 151.873694 
L 216.514405 152.660863 
L 224.102389 154.235202 
L 231.690373 155.80954 
L 239.278357 158.958217 
L 246.866341 159.745386 
L 254.454325 158.958217 
L 262.042308 159.745386 
L 269.630292 161.319724 
L 277.218276 162.106893 
L 284.80626 165.25557 
L 292.394244 166.042739 
L 299.982228 166.829908 
L 307.570212 168.404247 
L 315.158196 173.127262 
L 322.74618 173.914431 
L 330.334164 173.127262 
L 337.922148 173.914431 
L 345.510132 177.063107 
L 353.098116 177.850277 
L 360.6861 177.850277 
L 368.274084 177.850277 
L 375.862067 177.850277 
L 383.450051 178.637446 
" style="fill:none;stroke:#179c7d;stroke-linecap:round;stroke-width:2.25;"/>
   </g>
   <g id="line2d_14">
    <path clip-path="url(#p6adcfbdbb4)" d="M 87.518678 287.26679 
L 95.106662 273.884914 
L 102.694646 258.141531 
L 110.28263 216.421565 
L 117.870614 184.934799 
L 125.458598 169.191416 
L 133.046582 159.745386 
L 140.634566 153.448033 
L 148.222549 146.36351 
L 155.810533 144.002003 
L 163.398517 140.853326 
L 170.986501 143.214834 
L 178.574485 141.640495 
L 186.162469 141.640495 
L 193.750453 143.214834 
L 201.338437 144.789172 
L 208.926421 149.512187 
L 216.514405 151.086525 
L 224.102389 154.235202 
L 231.690373 155.80954 
L 239.278357 157.383878 
L 246.866341 159.745386 
L 254.454325 162.106893 
L 262.042308 162.894063 
L 269.630292 165.25557 
L 277.218276 167.617077 
L 284.80626 169.191416 
L 292.394244 170.765754 
L 299.982228 172.340092 
L 307.570212 173.127262 
L 315.158196 176.275938 
L 322.74618 176.275938 
L 330.334164 177.850277 
L 337.922148 177.850277 
L 345.510132 178.637446 
L 353.098116 178.637446 
L 360.6861 181.786122 
L 368.274084 181.786122 
L 375.862067 180.998953 
L 383.450051 180.998953 
" style="fill:none;stroke:#006e92;stroke-linecap:round;stroke-width:2.25;"/>
   </g>
   <g id="line2d_15">
    <path clip-path="url(#p6adcfbdbb4)" d="M 87.518678 273.884914 
L 95.106662 220.357411 
L 102.694646 182.573291 
L 110.28263 159.745386 
L 117.870614 144.789172 
L 125.458598 136.130311 
L 133.046582 128.258619 
L 140.634566 125.897112 
L 148.222549 122.748435 
L 155.810533 124.322774 
L 163.398517 125.897112 
L 170.986501 128.258619 
L 178.574485 136.91748 
L 186.162469 141.640495 
L 193.750453 144.002003 
L 201.338437 147.937848 
L 208.926421 149.512187 
L 216.514405 151.086525 
L 224.102389 155.022371 
L 231.690373 160.532555 
L 239.278357 160.532555 
L 246.866341 163.681232 
L 254.454325 165.25557 
L 262.042308 166.829908 
L 269.630292 171.552923 
L 277.218276 173.914431 
L 284.80626 175.488769 
L 292.394244 179.424615 
L 299.982228 183.360461 
L 307.570212 184.934799 
L 315.158196 188.870645 
L 322.74618 190.444983 
L 330.334164 194.380829 
L 337.922148 195.955167 
L 345.510132 199.103844 
L 353.098116 200.678182 
L 360.6861 202.25252 
L 368.274084 206.188366 
L 375.862067 206.975535 
L 383.450051 207.762705 
" style="fill:none;stroke:#25bae2;stroke-linecap:round;stroke-width:2.25;"/>
   </g>
   <g id="line2d_16"/>
   <g id="line2d_17"/>
   <g id="line2d_18"/>
   <g id="patch_3">
    <path d="M 72.722109 299.704063 
L 72.722109 26.084063 
" style="fill:none;stroke:#cccccc;stroke-linecap:square;stroke-linejoin:miter;stroke-width:1.875;"/>
   </g>
   <g id="patch_4">
    <path d="M 72.722109 299.704062 
L 398.24662 299.704062 
" style="fill:none;stroke:#cccccc;stroke-linecap:square;stroke-linejoin:miter;stroke-width:1.875;"/>
   </g>
   <g id="text_15">
    <!-- 1 -->
    <g style="fill:#262626;" transform="translate(230.479521 20.084062)scale(0.18 -0.18)">
     <use xlink:href="#ArialMT-49"/>
    </g>
   </g>
  </g>
  <g id="axes_2">
   <g id="patch_5">
    <path d="M 417.55185 299.704062 
L 743.076361 299.704062 
L 743.076361 26.084062 
L 417.55185 26.084062 
z
" style="fill:#ffffff;"/>
   </g>
   <g id="matplotlib.axis_3">
    <g id="xtick_6">
     <g id="line2d_19">
      <path clip-path="url(#p3b643a9a70)" d="M 424.760435 299.704062 
L 424.760435 26.084062 
" style="fill:none;stroke:#cccccc;stroke-linecap:round;stroke-width:1.5;"/>
     </g>
     <g id="text_16">
      <!-- 0 -->
      <g style="fill:#262626;" transform="translate(420.172661 324.014453)scale(0.165 -0.165)">
       <use xlink:href="#ArialMT-48"/>
      </g>
     </g>
    </g>
    <g id="xtick_7">
     <g id="line2d_20">
      <path clip-path="url(#p3b643a9a70)" d="M 500.640274 299.704062 
L 500.640274 26.084062 
" style="fill:none;stroke:#cccccc;stroke-linecap:round;stroke-width:1.5;"/>
     </g>
     <g id="text_17">
      <!-- 10 -->
      <g style="fill:#262626;" transform="translate(491.464727 324.014453)scale(0.165 -0.165)">
       <use xlink:href="#ArialMT-49"/>
       <use x="55.615234" xlink:href="#ArialMT-48"/>
      </g>
     </g>
    </g>
    <g id="xtick_8">
     <g id="line2d_21">
      <path clip-path="url(#p3b643a9a70)" d="M 576.520113 299.704062 
L 576.520113 26.084062 
" style="fill:none;stroke:#cccccc;stroke-linecap:round;stroke-width:1.5;"/>
     </g>
     <g id="text_18">
      <!-- 20 -->
      <g style="fill:#262626;" transform="translate(567.344567 324.014453)scale(0.165 -0.165)">
       <use xlink:href="#ArialMT-50"/>
       <use x="55.615234" xlink:href="#ArialMT-48"/>
      </g>
     </g>
    </g>
    <g id="xtick_9">
     <g id="line2d_22">
      <path clip-path="url(#p3b643a9a70)" d="M 652.399953 299.704062 
L 652.399953 26.084062 
" style="fill:none;stroke:#cccccc;stroke-linecap:round;stroke-width:1.5;"/>
     </g>
     <g id="text_19">
      <!-- 30 -->
      <g style="fill:#262626;" transform="translate(643.224406 324.014453)scale(0.165 -0.165)">
       <use xlink:href="#ArialMT-51"/>
       <use x="55.615234" xlink:href="#ArialMT-48"/>
      </g>
     </g>
    </g>
    <g id="xtick_10">
     <g id="line2d_23">
      <path clip-path="url(#p3b643a9a70)" d="M 728.279792 299.704062 
L 728.279792 26.084062 
" style="fill:none;stroke:#cccccc;stroke-linecap:round;stroke-width:1.5;"/>
     </g>
     <g id="text_20">
      <!-- 40 -->
      <g style="fill:#262626;" transform="translate(719.104245 324.014453)scale(0.165 -0.165)">
       <use xlink:href="#ArialMT-52"/>
       <use x="55.615234" xlink:href="#ArialMT-48"/>
      </g>
     </g>
    </g>
    <g id="text_21">
     <!-- epoch -->
     <g style="fill:#262626;" transform="translate(555.79473 344.177891)scale(0.18 -0.18)">
      <use xlink:href="#ArialMT-101"/>
      <use x="55.615234" xlink:href="#ArialMT-112"/>
      <use x="111.230469" xlink:href="#ArialMT-111"/>
      <use x="166.845703" xlink:href="#ArialMT-99"/>
      <use x="216.845703" xlink:href="#ArialMT-104"/>
     </g>
    </g>
   </g>
   <g id="matplotlib.axis_4">
    <g id="ytick_8">
     <g id="line2d_24">
      <path clip-path="url(#p3b643a9a70)" d="M 417.55185 295.138481 
L 743.076361 295.138481 
" style="fill:none;stroke:#cccccc;stroke-linecap:round;stroke-width:1.5;"/>
     </g>
    </g>
    <g id="ytick_9">
     <g id="line2d_25">
      <path clip-path="url(#p3b643a9a70)" d="M 417.55185 255.780023 
L 743.076361 255.780023 
" style="fill:none;stroke:#cccccc;stroke-linecap:round;stroke-width:1.5;"/>
     </g>
    </g>
    <g id="ytick_10">
     <g id="line2d_26">
      <path clip-path="url(#p3b643a9a70)" d="M 417.55185 216.421565 
L 743.076361 216.421565 
" style="fill:none;stroke:#cccccc;stroke-linecap:round;stroke-width:1.5;"/>
     </g>
    </g>
    <g id="ytick_11">
     <g id="line2d_27">
      <path clip-path="url(#p3b643a9a70)" d="M 417.55185 177.063107 
L 743.076361 177.063107 
" style="fill:none;stroke:#cccccc;stroke-linecap:round;stroke-width:1.5;"/>
     </g>
    </g>
    <g id="ytick_12">
     <g id="line2d_28">
      <path clip-path="url(#p3b643a9a70)" d="M 417.55185 137.704649 
L 743.076361 137.704649 
" style="fill:none;stroke:#cccccc;stroke-linecap:round;stroke-width:1.5;"/>
     </g>
    </g>
    <g id="ytick_13">
     <g id="line2d_29">
      <path clip-path="url(#p3b643a9a70)" d="M 417.55185 98.346191 
L 743.076361 98.346191 
" style="fill:none;stroke:#cccccc;stroke-linecap:round;stroke-width:1.5;"/>
     </g>
    </g>
    <g id="ytick_14">
     <g id="line2d_30">
      <path clip-path="url(#p3b643a9a70)" d="M 417.55185 58.987733 
L 743.076361 58.987733 
" style="fill:none;stroke:#cccccc;stroke-linecap:round;stroke-width:1.5;"/>
     </g>
    </g>
   </g>
   <g id="line2d_31">
    <path clip-path="url(#p3b643a9a70)" d="M 432.348419 280.182267 
L 439.936403 259.715869 
L 447.524387 216.421565 
L 455.112371 170.765754 
L 462.700354 139.278988 
L 470.288338 121.961266 
L 477.876322 107.005052 
L 485.464306 102.282037 
L 493.05229 97.559022 
L 500.640274 95.197515 
L 508.228258 92.836007 
L 515.816242 89.687331 
L 523.404226 87.325823 
L 530.99221 87.325823 
L 538.580194 88.112992 
L 546.168178 87.325823 
L 553.756162 90.4745 
L 561.344146 90.4745 
L 568.932129 89.687331 
L 576.520113 88.900161 
L 584.108097 88.112992 
L 591.696081 87.325823 
L 599.284065 91.261669 
L 606.872049 89.687331 
L 614.460033 89.687331 
L 622.048017 93.623176 
L 629.636001 94.410346 
L 637.223985 94.410346 
L 644.811969 93.623176 
L 652.399953 92.836007 
L 659.987937 88.112992 
L 667.575921 88.112992 
L 675.163905 86.538654 
L 682.751888 86.538654 
L 690.339872 87.325823 
L 697.927856 88.112992 
L 705.51584 92.048838 
L 713.103824 88.112992 
L 720.691808 88.112992 
L 728.279792 92.048838 
" style="fill:none;stroke:#179c7d;stroke-linecap:round;stroke-width:2.25;"/>
   </g>
   <g id="line2d_32">
    <path clip-path="url(#p3b643a9a70)" d="M 432.348419 285.692451 
L 439.936403 266.013222 
L 447.524387 234.526456 
L 455.112371 195.955167 
L 462.700354 166.829908 
L 470.288338 144.789172 
L 477.876322 129.045789 
L 485.464306 120.386928 
L 493.05229 110.153729 
L 500.640274 109.36656 
L 508.228258 110.153729 
L 515.816242 106.217883 
L 523.404226 105.430714 
L 530.99221 104.643545 
L 538.580194 106.217883 
L 546.168178 104.643545 
L 553.756162 107.005052 
L 561.344146 111.728067 
L 568.932129 110.940898 
L 576.520113 111.728067 
L 584.108097 114.876744 
L 591.696081 117.238251 
L 599.284065 117.238251 
L 606.872049 117.238251 
L 614.460033 115.663913 
L 622.048017 114.089575 
L 629.636001 114.089575 
L 637.223985 115.663913 
L 644.811969 111.728067 
L 652.399953 110.153729 
L 659.987937 107.792221 
L 667.575921 107.005052 
L 675.163905 107.005052 
L 682.751888 107.005052 
L 690.339872 107.005052 
L 697.927856 107.005052 
L 705.51584 106.217883 
L 713.103824 106.217883 
L 720.691808 106.217883 
L 728.279792 106.217883 
" style="fill:none;stroke:#006e92;stroke-linecap:round;stroke-width:2.25;"/>
   </g>
   <g id="line2d_33">
    <path clip-path="url(#p3b643a9a70)" d="M 432.348419 267.587561 
L 439.936403 215.634396 
L 447.524387 167.617077 
L 455.112371 136.91748 
L 462.700354 121.174097 
L 470.288338 113.302405 
L 477.876322 104.643545 
L 485.464306 95.984684 
L 493.05229 94.410346 
L 500.640274 88.900161 
L 508.228258 84.964316 
L 515.816242 84.964316 
L 523.404226 83.389977 
L 530.99221 82.602808 
L 538.580194 81.815639 
L 546.168178 81.02847 
L 553.756162 80.241301 
L 561.344146 80.241301 
L 568.932129 79.454132 
L 576.520113 79.454132 
L 584.108097 77.879793 
L 591.696081 77.879793 
L 599.284065 77.092624 
L 606.872049 76.305455 
L 614.460033 77.092624 
L 622.048017 79.454132 
L 629.636001 77.879793 
L 637.223985 76.305455 
L 644.811969 75.518286 
L 652.399953 76.305455 
L 659.987937 76.305455 
L 667.575921 76.305455 
L 675.163905 71.58244 
L 682.751888 71.58244 
L 690.339872 73.156778 
L 697.927856 74.731117 
L 705.51584 74.731117 
L 713.103824 74.731117 
L 720.691808 75.518286 
L 728.279792 75.518286 
" style="fill:none;stroke:#25bae2;stroke-linecap:round;stroke-width:2.25;"/>
   </g>
   <g id="patch_6">
    <path d="M 417.55185 299.704063 
L 417.55185 26.084063 
" style="fill:none;stroke:#cccccc;stroke-linecap:square;stroke-linejoin:miter;stroke-width:1.875;"/>
   </g>
   <g id="patch_7">
    <path d="M 417.55185 299.704062 
L 743.076361 299.704062 
" style="fill:none;stroke:#cccccc;stroke-linecap:square;stroke-linejoin:miter;stroke-width:1.875;"/>
   </g>
   <g id="text_22">
    <!-- 10 -->
    <g style="fill:#262626;" transform="translate(570.304418 20.084062)scale(0.18 -0.18)">
     <use xlink:href="#ArialMT-49"/>
     <use x="55.615234" xlink:href="#ArialMT-48"/>
    </g>
   </g>
  </g>
  <g id="axes_3">
   <g id="patch_8">
    <path d="M 762.381591 299.704062 
L 1087.906101 299.704062 
L 1087.906101 26.084062 
L 762.381591 26.084062 
z
" style="fill:#ffffff;"/>
   </g>
   <g id="matplotlib.axis_5">
    <g id="xtick_11">
     <g id="line2d_34">
      <path clip-path="url(#pe1dc332cff)" d="M 769.590175 299.704062 
L 769.590175 26.084062 
" style="fill:none;stroke:#cccccc;stroke-linecap:round;stroke-width:1.5;"/>
     </g>
     <g id="text_23">
      <!-- 0 -->
      <g style="fill:#262626;" transform="translate(765.002402 324.014453)scale(0.165 -0.165)">
       <use xlink:href="#ArialMT-48"/>
      </g>
     </g>
    </g>
    <g id="xtick_12">
     <g id="line2d_35">
      <path clip-path="url(#pe1dc332cff)" d="M 845.470015 299.704062 
L 845.470015 26.084062 
" style="fill:none;stroke:#cccccc;stroke-linecap:round;stroke-width:1.5;"/>
     </g>
     <g id="text_24">
      <!-- 10 -->
      <g style="fill:#262626;" transform="translate(836.294468 324.014453)scale(0.165 -0.165)">
       <use xlink:href="#ArialMT-49"/>
       <use x="55.615234" xlink:href="#ArialMT-48"/>
      </g>
     </g>
    </g>
    <g id="xtick_13">
     <g id="line2d_36">
      <path clip-path="url(#pe1dc332cff)" d="M 921.349854 299.704062 
L 921.349854 26.084062 
" style="fill:none;stroke:#cccccc;stroke-linecap:round;stroke-width:1.5;"/>
     </g>
     <g id="text_25">
      <!-- 20 -->
      <g style="fill:#262626;" transform="translate(912.174307 324.014453)scale(0.165 -0.165)">
       <use xlink:href="#ArialMT-50"/>
       <use x="55.615234" xlink:href="#ArialMT-48"/>
      </g>
     </g>
    </g>
    <g id="xtick_14">
     <g id="line2d_37">
      <path clip-path="url(#pe1dc332cff)" d="M 997.229693 299.704062 
L 997.229693 26.084062 
" style="fill:none;stroke:#cccccc;stroke-linecap:round;stroke-width:1.5;"/>
     </g>
     <g id="text_26">
      <!-- 30 -->
      <g style="fill:#262626;" transform="translate(988.054147 324.014453)scale(0.165 -0.165)">
       <use xlink:href="#ArialMT-51"/>
       <use x="55.615234" xlink:href="#ArialMT-48"/>
      </g>
     </g>
    </g>
    <g id="xtick_15">
     <g id="line2d_38">
      <path clip-path="url(#pe1dc332cff)" d="M 1073.109533 299.704062 
L 1073.109533 26.084062 
" style="fill:none;stroke:#cccccc;stroke-linecap:round;stroke-width:1.5;"/>
     </g>
     <g id="text_27">
      <!-- 40 -->
      <g style="fill:#262626;" transform="translate(1063.933986 324.014453)scale(0.165 -0.165)">
       <use xlink:href="#ArialMT-52"/>
       <use x="55.615234" xlink:href="#ArialMT-48"/>
      </g>
     </g>
    </g>
    <g id="text_28">
     <!-- epoch -->
     <g style="fill:#262626;" transform="translate(900.624471 344.177891)scale(0.18 -0.18)">
      <use xlink:href="#ArialMT-101"/>
      <use x="55.615234" xlink:href="#ArialMT-112"/>
      <use x="111.230469" xlink:href="#ArialMT-111"/>
      <use x="166.845703" xlink:href="#ArialMT-99"/>
      <use x="216.845703" xlink:href="#ArialMT-104"/>
     </g>
    </g>
   </g>
   <g id="matplotlib.axis_6">
    <g id="ytick_15">
     <g id="line2d_39">
      <path clip-path="url(#pe1dc332cff)" d="M 762.381591 295.138481 
L 1087.906101 295.138481 
" style="fill:none;stroke:#cccccc;stroke-linecap:round;stroke-width:1.5;"/>
     </g>
    </g>
    <g id="ytick_16">
     <g id="line2d_40">
      <path clip-path="url(#pe1dc332cff)" d="M 762.381591 255.780023 
L 1087.906101 255.780023 
" style="fill:none;stroke:#cccccc;stroke-linecap:round;stroke-width:1.5;"/>
     </g>
    </g>
    <g id="ytick_17">
     <g id="line2d_41">
      <path clip-path="url(#pe1dc332cff)" d="M 762.381591 216.421565 
L 1087.906101 216.421565 
" style="fill:none;stroke:#cccccc;stroke-linecap:round;stroke-width:1.5;"/>
     </g>
    </g>
    <g id="ytick_18">
     <g id="line2d_42">
      <path clip-path="url(#pe1dc332cff)" d="M 762.381591 177.063107 
L 1087.906101 177.063107 
" style="fill:none;stroke:#cccccc;stroke-linecap:round;stroke-width:1.5;"/>
     </g>
    </g>
    <g id="ytick_19">
     <g id="line2d_43">
      <path clip-path="url(#pe1dc332cff)" d="M 762.381591 137.704649 
L 1087.906101 137.704649 
" style="fill:none;stroke:#cccccc;stroke-linecap:round;stroke-width:1.5;"/>
     </g>
    </g>
    <g id="ytick_20">
     <g id="line2d_44">
      <path clip-path="url(#pe1dc332cff)" d="M 762.381591 98.346191 
L 1087.906101 98.346191 
" style="fill:none;stroke:#cccccc;stroke-linecap:round;stroke-width:1.5;"/>
     </g>
    </g>
    <g id="ytick_21">
     <g id="line2d_45">
      <path clip-path="url(#pe1dc332cff)" d="M 762.381591 58.987733 
L 1087.906101 58.987733 
" style="fill:none;stroke:#cccccc;stroke-linecap:round;stroke-width:1.5;"/>
     </g>
    </g>
   </g>
   <g id="line2d_46">
    <path clip-path="url(#pe1dc332cff)" d="M 777.178159 259.715869 
L 784.766143 180.211784 
L 792.354127 129.832958 
L 799.942111 111.728067 
L 807.530095 102.282037 
L 815.118079 95.984684 
L 822.706063 92.048838 
L 830.294047 96.771853 
L 837.882031 96.771853 
L 845.470015 97.559022 
L 853.057999 96.771853 
L 860.645983 92.836007 
L 868.233967 90.4745 
L 875.821951 88.900161 
L 883.409934 87.325823 
L 890.997918 85.751485 
L 898.585902 84.964316 
L 906.173886 84.177147 
L 913.76187 82.602808 
L 921.349854 81.815639 
L 928.937838 81.815639 
L 936.525822 81.02847 
L 944.113806 79.454132 
L 951.70179 79.454132 
L 959.289774 80.241301 
L 966.877758 80.241301 
L 974.465742 84.177147 
L 982.053726 84.177147 
L 989.641709 84.177147 
L 997.229693 84.177147 
L 1004.817677 84.177147 
L 1012.405661 84.177147 
L 1019.993645 88.900161 
L 1027.581629 84.177147 
L 1035.169613 84.177147 
L 1042.757597 84.177147 
L 1050.345581 83.389977 
L 1057.933565 83.389977 
L 1065.521549 82.602808 
L 1073.109533 82.602808 
" style="fill:none;stroke:#179c7d;stroke-linecap:round;stroke-width:2.25;"/>
   </g>
   <g id="line2d_47">
    <path clip-path="url(#pe1dc332cff)" d="M 777.178159 227.441934 
L 784.766143 150.299356 
L 792.354127 124.322774 
L 799.942111 108.57939 
L 807.530095 97.559022 
L 815.118079 89.687331 
L 822.706063 82.602808 
L 830.294047 81.815639 
L 837.882031 79.454132 
L 845.470015 74.731117 
L 853.057999 71.58244 
L 860.645983 72.369609 
L 868.233967 70.795271 
L 875.821951 70.008102 
L 883.409934 70.795271 
L 890.997918 70.008102 
L 898.585902 69.220932 
L 906.173886 68.433763 
L 913.76187 66.859425 
L 921.349854 67.646594 
L 928.937838 70.008102 
L 936.525822 64.497918 
L 944.113806 63.710748 
L 951.70179 63.710748 
L 959.289774 62.923579 
L 966.877758 62.13641 
L 974.465742 60.562072 
L 982.053726 59.774903 
L 989.641709 59.774903 
L 997.229693 58.200564 
L 1004.817677 58.200564 
L 1012.405661 59.774903 
L 1019.993645 58.200564 
L 1027.581629 58.200564 
L 1035.169613 57.413395 
L 1042.757597 57.413395 
L 1050.345581 58.200564 
L 1057.933565 63.710748 
L 1065.521549 58.987733 
L 1073.109533 63.710748 
" style="fill:none;stroke:#25bae2;stroke-linecap:round;stroke-width:2.25;"/>
   </g>
   <g id="patch_9">
    <path d="M 762.381591 299.704063 
L 762.381591 26.084063 
" style="fill:none;stroke:#cccccc;stroke-linecap:square;stroke-linejoin:miter;stroke-width:1.875;"/>
   </g>
   <g id="patch_10">
    <path d="M 762.381591 299.704062 
L 1087.906101 299.704062 
" style="fill:none;stroke:#cccccc;stroke-linecap:square;stroke-linejoin:miter;stroke-width:1.875;"/>
   </g>
   <g id="text_29">
    <!-- 20 -->
    <g style="fill:#262626;" transform="translate(915.134159 20.084062)scale(0.18 -0.18)">
     <use xlink:href="#ArialMT-50"/>
     <use x="55.615234" xlink:href="#ArialMT-48"/>
    </g>
   </g>
  </g>
  <g id="axes_4">
   <g id="patch_11">
    <path d="M 1107.211331 299.704062 
L 1432.735842 299.704062 
L 1432.735842 26.084062 
L 1107.211331 26.084062 
z
" style="fill:#ffffff;"/>
   </g>
   <g id="matplotlib.axis_7">
    <g id="xtick_16">
     <g id="line2d_48">
      <path clip-path="url(#pf35ac0e4f0)" d="M 1114.419916 299.704062 
L 1114.419916 26.084062 
" style="fill:none;stroke:#cccccc;stroke-linecap:round;stroke-width:1.5;"/>
     </g>
     <g id="text_30">
      <!-- 0 -->
      <g style="fill:#262626;" transform="translate(1109.832143 324.014453)scale(0.165 -0.165)">
       <use xlink:href="#ArialMT-48"/>
      </g>
     </g>
    </g>
    <g id="xtick_17">
     <g id="line2d_49">
      <path clip-path="url(#pf35ac0e4f0)" d="M 1190.299755 299.704062 
L 1190.299755 26.084062 
" style="fill:none;stroke:#cccccc;stroke-linecap:round;stroke-width:1.5;"/>
     </g>
     <g id="text_31">
      <!-- 10 -->
      <g style="fill:#262626;" transform="translate(1181.124209 324.014453)scale(0.165 -0.165)">
       <use xlink:href="#ArialMT-49"/>
       <use x="55.615234" xlink:href="#ArialMT-48"/>
      </g>
     </g>
    </g>
    <g id="xtick_18">
     <g id="line2d_50">
      <path clip-path="url(#pf35ac0e4f0)" d="M 1266.179595 299.704062 
L 1266.179595 26.084062 
" style="fill:none;stroke:#cccccc;stroke-linecap:round;stroke-width:1.5;"/>
     </g>
     <g id="text_32">
      <!-- 20 -->
      <g style="fill:#262626;" transform="translate(1257.004048 324.014453)scale(0.165 -0.165)">
       <use xlink:href="#ArialMT-50"/>
       <use x="55.615234" xlink:href="#ArialMT-48"/>
      </g>
     </g>
    </g>
    <g id="xtick_19">
     <g id="line2d_51">
      <path clip-path="url(#pf35ac0e4f0)" d="M 1342.059434 299.704062 
L 1342.059434 26.084062 
" style="fill:none;stroke:#cccccc;stroke-linecap:round;stroke-width:1.5;"/>
     </g>
     <g id="text_33">
      <!-- 30 -->
      <g style="fill:#262626;" transform="translate(1332.883887 324.014453)scale(0.165 -0.165)">
       <use xlink:href="#ArialMT-51"/>
       <use x="55.615234" xlink:href="#ArialMT-48"/>
      </g>
     </g>
    </g>
    <g id="xtick_20">
     <g id="line2d_52">
      <path clip-path="url(#pf35ac0e4f0)" d="M 1417.939273 299.704062 
L 1417.939273 26.084062 
" style="fill:none;stroke:#cccccc;stroke-linecap:round;stroke-width:1.5;"/>
     </g>
     <g id="text_34">
      <!-- 40 -->
      <g style="fill:#262626;" transform="translate(1408.763727 324.014453)scale(0.165 -0.165)">
       <use xlink:href="#ArialMT-52"/>
       <use x="55.615234" xlink:href="#ArialMT-48"/>
      </g>
     </g>
    </g>
    <g id="text_35">
     <!-- epoch -->
     <g style="fill:#262626;" transform="translate(1245.454212 344.177891)scale(0.18 -0.18)">
      <use xlink:href="#ArialMT-101"/>
      <use x="55.615234" xlink:href="#ArialMT-112"/>
      <use x="111.230469" xlink:href="#ArialMT-111"/>
      <use x="166.845703" xlink:href="#ArialMT-99"/>
      <use x="216.845703" xlink:href="#ArialMT-104"/>
     </g>
    </g>
   </g>
   <g id="matplotlib.axis_8">
    <g id="ytick_22">
     <g id="line2d_53">
      <path clip-path="url(#pf35ac0e4f0)" d="M 1107.211331 295.138481 
L 1432.735842 295.138481 
" style="fill:none;stroke:#cccccc;stroke-linecap:round;stroke-width:1.5;"/>
     </g>
    </g>
    <g id="ytick_23">
     <g id="line2d_54">
      <path clip-path="url(#pf35ac0e4f0)" d="M 1107.211331 255.780023 
L 1432.735842 255.780023 
" style="fill:none;stroke:#cccccc;stroke-linecap:round;stroke-width:1.5;"/>
     </g>
    </g>
    <g id="ytick_24">
     <g id="line2d_55">
      <path clip-path="url(#pf35ac0e4f0)" d="M 1107.211331 216.421565 
L 1432.735842 216.421565 
" style="fill:none;stroke:#cccccc;stroke-linecap:round;stroke-width:1.5;"/>
     </g>
    </g>
    <g id="ytick_25">
     <g id="line2d_56">
      <path clip-path="url(#pf35ac0e4f0)" d="M 1107.211331 177.063107 
L 1432.735842 177.063107 
" style="fill:none;stroke:#cccccc;stroke-linecap:round;stroke-width:1.5;"/>
     </g>
    </g>
    <g id="ytick_26">
     <g id="line2d_57">
      <path clip-path="url(#pf35ac0e4f0)" d="M 1107.211331 137.704649 
L 1432.735842 137.704649 
" style="fill:none;stroke:#cccccc;stroke-linecap:round;stroke-width:1.5;"/>
     </g>
    </g>
    <g id="ytick_27">
     <g id="line2d_58">
      <path clip-path="url(#pf35ac0e4f0)" d="M 1107.211331 98.346191 
L 1432.735842 98.346191 
" style="fill:none;stroke:#cccccc;stroke-linecap:round;stroke-width:1.5;"/>
     </g>
    </g>
    <g id="ytick_28">
     <g id="line2d_59">
      <path clip-path="url(#pf35ac0e4f0)" d="M 1107.211331 58.987733 
L 1432.735842 58.987733 
" style="fill:none;stroke:#cccccc;stroke-linecap:round;stroke-width:1.5;"/>
     </g>
    </g>
   </g>
   <g id="line2d_60">
    <path clip-path="url(#pf35ac0e4f0)" d="M 1122.0079 152.660863 
L 1129.595884 103.856376 
L 1137.183868 86.538654 
L 1144.771852 77.879793 
L 1152.359836 79.454132 
L 1159.94782 70.008102 
L 1167.535804 57.413395 
L 1175.123788 51.116042 
L 1182.711772 51.116042 
L 1190.299755 44.818689 
L 1197.887739 43.24435 
L 1205.475723 42.457181 
L 1213.063707 43.24435 
L 1220.651691 47.967365 
L 1228.239675 47.967365 
L 1235.827659 47.967365 
L 1243.415643 47.180196 
L 1251.003627 47.180196 
L 1258.591611 47.180196 
L 1266.179595 51.903211 
L 1273.767579 51.903211 
L 1281.355563 46.393027 
L 1288.943547 47.180196 
L 1296.531531 51.903211 
L 1304.119514 51.116042 
L 1311.707498 51.116042 
L 1319.295482 51.903211 
L 1326.883466 52.69038 
L 1334.47145 58.200564 
L 1342.059434 53.477549 
L 1349.647418 52.69038 
L 1357.235402 52.69038 
L 1364.823386 52.69038 
L 1372.41137 52.69038 
L 1379.999354 53.477549 
L 1387.587338 53.477549 
L 1395.175322 58.200564 
L 1402.763306 52.69038 
L 1410.351289 58.200564 
L 1417.939273 58.200564 
" style="fill:none;stroke:#179c7d;stroke-linecap:round;stroke-width:2.25;"/>
   </g>
   <g id="line2d_61">
    <path clip-path="url(#pf35ac0e4f0)" d="M 1122.0079 137.704649 
L 1129.595884 99.92053 
L 1137.183868 82.602808 
L 1144.771852 75.518286 
L 1152.359836 69.220932 
L 1159.94782 63.710748 
L 1167.535804 64.497918 
L 1175.123788 60.562072 
L 1182.711772 54.264718 
L 1190.299755 53.477549 
L 1197.887739 51.116042 
L 1205.475723 50.328873 
L 1213.063707 50.328873 
L 1220.651691 48.754534 
L 1228.239675 48.754534 
L 1235.827659 48.754534 
L 1243.415643 49.541703 
L 1251.003627 49.541703 
L 1258.591611 52.69038 
L 1266.179595 53.477549 
L 1273.767579 52.69038 
L 1281.355563 48.754534 
L 1288.943547 48.754534 
L 1296.531531 51.903211 
L 1304.119514 51.903211 
L 1311.707498 51.903211 
L 1319.295482 51.903211 
L 1326.883466 51.903211 
L 1334.47145 52.69038 
L 1342.059434 51.903211 
L 1349.647418 51.116042 
L 1357.235402 51.116042 
L 1364.823386 51.116042 
L 1372.41137 51.116042 
L 1379.999354 51.116042 
L 1387.587338 51.903211 
L 1395.175322 51.116042 
L 1402.763306 51.116042 
L 1410.351289 51.116042 
L 1417.939273 51.903211 
" style="fill:none;stroke:#25bae2;stroke-linecap:round;stroke-width:2.25;"/>
   </g>
   <g id="patch_12">
    <path d="M 1107.211331 299.704063 
L 1107.211331 26.084063 
" style="fill:none;stroke:#cccccc;stroke-linecap:square;stroke-linejoin:miter;stroke-width:1.875;"/>
   </g>
   <g id="patch_13">
    <path d="M 1107.211331 299.704062 
L 1432.735842 299.704062 
" style="fill:none;stroke:#cccccc;stroke-linecap:square;stroke-linejoin:miter;stroke-width:1.875;"/>
   </g>
   <g id="text_36">
    <!-- 50 -->
    <g style="fill:#262626;" transform="translate(1259.963899 20.084062)scale(0.18 -0.18)">
     <use xlink:href="#ArialMT-53"/>
     <use x="55.615234" xlink:href="#ArialMT-48"/>
    </g>
   </g>
  </g>
  <g id="axes_5">
   <g id="patch_14">
    <path d="M 1452.041072 299.704062 
L 1777.565583 299.704062 
L 1777.565583 26.084062 
L 1452.041072 26.084062 
z
" style="fill:#ffffff;"/>
   </g>
   <g id="matplotlib.axis_9">
    <g id="xtick_21">
     <g id="line2d_62">
      <path clip-path="url(#pae0a2101e3)" d="M 1459.249657 299.704062 
L 1459.249657 26.084062 
" style="fill:none;stroke:#cccccc;stroke-linecap:round;stroke-width:1.5;"/>
     </g>
     <g id="text_37">
      <!-- 0 -->
      <g style="fill:#262626;" transform="translate(1454.661883 324.014453)scale(0.165 -0.165)">
       <use xlink:href="#ArialMT-48"/>
      </g>
     </g>
    </g>
    <g id="xtick_22">
     <g id="line2d_63">
      <path clip-path="url(#pae0a2101e3)" d="M 1535.129496 299.704062 
L 1535.129496 26.084062 
" style="fill:none;stroke:#cccccc;stroke-linecap:round;stroke-width:1.5;"/>
     </g>
     <g id="text_38">
      <!-- 10 -->
      <g style="fill:#262626;" transform="translate(1525.953949 324.014453)scale(0.165 -0.165)">
       <use xlink:href="#ArialMT-49"/>
       <use x="55.615234" xlink:href="#ArialMT-48"/>
      </g>
     </g>
    </g>
    <g id="xtick_23">
     <g id="line2d_64">
      <path clip-path="url(#pae0a2101e3)" d="M 1611.009335 299.704062 
L 1611.009335 26.084062 
" style="fill:none;stroke:#cccccc;stroke-linecap:round;stroke-width:1.5;"/>
     </g>
     <g id="text_39">
      <!-- 20 -->
      <g style="fill:#262626;" transform="translate(1601.833789 324.014453)scale(0.165 -0.165)">
       <use xlink:href="#ArialMT-50"/>
       <use x="55.615234" xlink:href="#ArialMT-48"/>
      </g>
     </g>
    </g>
    <g id="xtick_24">
     <g id="line2d_65">
      <path clip-path="url(#pae0a2101e3)" d="M 1686.889175 299.704062 
L 1686.889175 26.084062 
" style="fill:none;stroke:#cccccc;stroke-linecap:round;stroke-width:1.5;"/>
     </g>
     <g id="text_40">
      <!-- 30 -->
      <g style="fill:#262626;" transform="translate(1677.713628 324.014453)scale(0.165 -0.165)">
       <use xlink:href="#ArialMT-51"/>
       <use x="55.615234" xlink:href="#ArialMT-48"/>
      </g>
     </g>
    </g>
    <g id="xtick_25">
     <g id="line2d_66">
      <path clip-path="url(#pae0a2101e3)" d="M 1762.769014 299.704062 
L 1762.769014 26.084062 
" style="fill:none;stroke:#cccccc;stroke-linecap:round;stroke-width:1.5;"/>
     </g>
     <g id="text_41">
      <!-- 40 -->
      <g style="fill:#262626;" transform="translate(1753.593467 324.014453)scale(0.165 -0.165)">
       <use xlink:href="#ArialMT-52"/>
       <use x="55.615234" xlink:href="#ArialMT-48"/>
      </g>
     </g>
    </g>
    <g id="text_42">
     <!-- epoch -->
     <g style="fill:#262626;" transform="translate(1590.283952 344.177891)scale(0.18 -0.18)">
      <use xlink:href="#ArialMT-101"/>
      <use x="55.615234" xlink:href="#ArialMT-112"/>
      <use x="111.230469" xlink:href="#ArialMT-111"/>
      <use x="166.845703" xlink:href="#ArialMT-99"/>
      <use x="216.845703" xlink:href="#ArialMT-104"/>
     </g>
    </g>
   </g>
   <g id="matplotlib.axis_10">
    <g id="ytick_29">
     <g id="line2d_67">
      <path clip-path="url(#pae0a2101e3)" d="M 1452.041072 295.138481 
L 1777.565583 295.138481 
" style="fill:none;stroke:#cccccc;stroke-linecap:round;stroke-width:1.5;"/>
     </g>
    </g>
    <g id="ytick_30">
     <g id="line2d_68">
      <path clip-path="url(#pae0a2101e3)" d="M 1452.041072 255.780023 
L 1777.565583 255.780023 
" style="fill:none;stroke:#cccccc;stroke-linecap:round;stroke-width:1.5;"/>
     </g>
    </g>
    <g id="ytick_31">
     <g id="line2d_69">
      <path clip-path="url(#pae0a2101e3)" d="M 1452.041072 216.421565 
L 1777.565583 216.421565 
" style="fill:none;stroke:#cccccc;stroke-linecap:round;stroke-width:1.5;"/>
     </g>
    </g>
    <g id="ytick_32">
     <g id="line2d_70">
      <path clip-path="url(#pae0a2101e3)" d="M 1452.041072 177.063107 
L 1777.565583 177.063107 
" style="fill:none;stroke:#cccccc;stroke-linecap:round;stroke-width:1.5;"/>
     </g>
    </g>
    <g id="ytick_33">
     <g id="line2d_71">
      <path clip-path="url(#pae0a2101e3)" d="M 1452.041072 137.704649 
L 1777.565583 137.704649 
" style="fill:none;stroke:#cccccc;stroke-linecap:round;stroke-width:1.5;"/>
     </g>
    </g>
    <g id="ytick_34">
     <g id="line2d_72">
      <path clip-path="url(#pae0a2101e3)" d="M 1452.041072 98.346191 
L 1777.565583 98.346191 
" style="fill:none;stroke:#cccccc;stroke-linecap:round;stroke-width:1.5;"/>
     </g>
    </g>
    <g id="ytick_35">
     <g id="line2d_73">
      <path clip-path="url(#pae0a2101e3)" d="M 1452.041072 58.987733 
L 1777.565583 58.987733 
" style="fill:none;stroke:#cccccc;stroke-linecap:round;stroke-width:1.5;"/>
     </g>
    </g>
   </g>
   <g id="line2d_74">
    <path clip-path="url(#pae0a2101e3)" d="M 1466.837641 106.217883 
L 1474.425625 88.112992 
L 1482.013609 88.112992 
L 1489.601593 63.710748 
L 1497.189577 55.051888 
L 1504.77756 50.328873 
L 1512.365544 44.031519 
L 1519.953528 43.24435 
L 1527.541512 41.670012 
L 1535.129496 46.393027 
L 1542.71748 40.882843 
L 1550.305464 40.882843 
L 1557.893448 44.818689 
L 1565.481432 41.670012 
L 1573.069416 51.116042 
L 1580.6574 44.818689 
L 1588.245384 44.818689 
L 1595.833368 44.818689 
L 1603.421352 49.541703 
L 1611.009335 48.754534 
L 1618.597319 47.967365 
L 1626.185303 47.967365 
L 1633.773287 47.967365 
L 1641.361271 48.754534 
L 1648.949255 48.754534 
L 1656.537239 43.24435 
L 1664.125223 48.754534 
L 1671.713207 48.754534 
L 1679.301191 54.264718 
L 1686.889175 48.754534 
L 1694.477159 48.754534 
L 1702.065143 48.754534 
L 1709.653127 48.754534 
L 1717.241111 48.754534 
L 1724.829094 48.754534 
L 1732.417078 54.264718 
L 1740.005062 53.477549 
L 1747.593046 52.69038 
L 1755.18103 54.264718 
L 1762.769014 53.477549 
" style="fill:none;stroke:#179c7d;stroke-linecap:round;stroke-width:2.25;"/>
   </g>
   <g id="line2d_75">
    <path clip-path="url(#pae0a2101e3)" d="M 1466.837641 102.282037 
L 1474.425625 79.454132 
L 1482.013609 73.156778 
L 1489.601593 58.200564 
L 1497.189577 51.116042 
L 1504.77756 49.541703 
L 1512.365544 44.031519 
L 1519.953528 46.393027 
L 1527.541512 41.670012 
L 1535.129496 40.882843 
L 1542.71748 40.095674 
L 1550.305464 40.095674 
L 1557.893448 38.521335 
L 1565.481432 41.670012 
L 1573.069416 42.457181 
L 1580.6574 43.24435 
L 1588.245384 42.457181 
L 1595.833368 41.670012 
L 1603.421352 41.670012 
L 1611.009335 45.605858 
L 1618.597319 45.605858 
L 1626.185303 44.818689 
L 1633.773287 44.818689 
L 1641.361271 44.818689 
L 1648.949255 46.393027 
L 1656.537239 44.818689 
L 1664.125223 44.031519 
L 1671.713207 44.031519 
L 1679.301191 45.605858 
L 1686.889175 44.818689 
L 1694.477159 44.818689 
L 1702.065143 44.818689 
L 1709.653127 44.818689 
L 1717.241111 44.818689 
L 1724.829094 48.754534 
L 1732.417078 44.818689 
L 1740.005062 44.818689 
L 1747.593046 44.818689 
L 1755.18103 44.818689 
L 1762.769014 44.818689 
" style="fill:none;stroke:#25bae2;stroke-linecap:round;stroke-width:2.25;"/>
   </g>
   <g id="patch_15">
    <path d="M 1452.041072 299.704063 
L 1452.041072 26.084063 
" style="fill:none;stroke:#cccccc;stroke-linecap:square;stroke-linejoin:miter;stroke-width:1.875;"/>
   </g>
   <g id="patch_16">
    <path d="M 1452.041072 299.704062 
L 1777.565583 299.704062 
" style="fill:none;stroke:#cccccc;stroke-linecap:square;stroke-linejoin:miter;stroke-width:1.875;"/>
   </g>
   <g id="text_43">
    <!-- 100 -->
    <g style="fill:#262626;" transform="translate(1599.788796 20.084062)scale(0.18 -0.18)">
     <use xlink:href="#ArialMT-49"/>
     <use x="55.615234" xlink:href="#ArialMT-48"/>
     <use x="111.230469" xlink:href="#ArialMT-48"/>
    </g>
   </g>
  </g>
  <g id="legend_1">
   <g id="text_44">
    <!-- mode -->
    <g style="fill:#262626;" transform="translate(1913.401966 146.924102)scale(0.18 -0.18)">
     <defs>
      <path d="M 6.59375 0 
L 6.59375 51.859375 
L 14.453125 51.859375 
L 14.453125 44.578125 
Q 16.890625 48.390625 20.9375 50.703125 
Q 25 53.03125 30.171875 53.03125 
Q 35.9375 53.03125 39.625 50.640625 
Q 43.3125 48.25 44.828125 43.953125 
Q 50.984375 53.03125 60.84375 53.03125 
Q 68.5625 53.03125 72.703125 48.75 
Q 76.859375 44.484375 76.859375 35.59375 
L 76.859375 0 
L 68.109375 0 
L 68.109375 32.671875 
Q 68.109375 37.9375 67.25 40.25 
Q 66.40625 42.578125 64.15625 43.984375 
Q 61.921875 45.40625 58.890625 45.40625 
Q 53.421875 45.40625 49.796875 41.765625 
Q 46.1875 38.140625 46.1875 30.125 
L 46.1875 0 
L 37.40625 0 
L 37.40625 33.6875 
Q 37.40625 39.546875 35.25 42.46875 
Q 33.109375 45.40625 28.21875 45.40625 
Q 24.515625 45.40625 21.359375 43.453125 
Q 18.21875 41.5 16.796875 37.734375 
Q 15.375 33.984375 15.375 26.90625 
L 15.375 0 
z
" id="ArialMT-109"/>
      <path d="M 40.234375 0 
L 40.234375 6.546875 
Q 35.296875 -1.171875 25.734375 -1.171875 
Q 19.53125 -1.171875 14.328125 2.25 
Q 9.125 5.671875 6.265625 11.796875 
Q 3.421875 17.921875 3.421875 25.875 
Q 3.421875 33.640625 6 39.96875 
Q 8.59375 46.296875 13.765625 49.65625 
Q 18.953125 53.03125 25.34375 53.03125 
Q 30.03125 53.03125 33.6875 51.046875 
Q 37.359375 49.078125 39.65625 45.90625 
L 39.65625 71.578125 
L 48.390625 71.578125 
L 48.390625 0 
z
M 12.453125 25.875 
Q 12.453125 15.921875 16.640625 10.984375 
Q 20.84375 6.0625 26.5625 6.0625 
Q 32.328125 6.0625 36.34375 10.765625 
Q 40.375 15.484375 40.375 25.140625 
Q 40.375 35.796875 36.265625 40.765625 
Q 32.171875 45.75 26.171875 45.75 
Q 20.3125 45.75 16.375 40.96875 
Q 12.453125 36.1875 12.453125 25.875 
z
" id="ArialMT-100"/>
     </defs>
     <use xlink:href="#ArialMT-109"/>
     <use x="83.300781" xlink:href="#ArialMT-111"/>
     <use x="138.916016" xlink:href="#ArialMT-100"/>
     <use x="194.53125" xlink:href="#ArialMT-101"/>
    </g>
   </g>
   <g id="line2d_76">
    <path d="M 1795.700598 164.786992 
L 1828.700598 164.786992 
" style="fill:none;stroke:#179c7d;stroke-linecap:round;stroke-width:2.25;"/>
   </g>
   <g id="line2d_77"/>
   <g id="text_45">
    <!-- fine-tune no rotation -->
    <g style="fill:#262626;" transform="translate(1841.900598 170.561992)scale(0.165 -0.165)">
     <defs>
      <path d="M 8.6875 0 
L 8.6875 45.015625 
L 0.921875 45.015625 
L 0.921875 51.859375 
L 8.6875 51.859375 
L 8.6875 57.375 
Q 8.6875 62.59375 9.625 65.140625 
Q 10.890625 68.5625 14.078125 70.671875 
Q 17.28125 72.796875 23.046875 72.796875 
Q 26.765625 72.796875 31.25 71.921875 
L 29.9375 64.265625 
Q 27.203125 64.75 24.75 64.75 
Q 20.75 64.75 19.09375 63.03125 
Q 17.4375 61.328125 17.4375 56.640625 
L 17.4375 51.859375 
L 27.546875 51.859375 
L 27.546875 45.015625 
L 17.4375 45.015625 
L 17.4375 0 
z
" id="ArialMT-102"/>
      <path d="M 6.640625 61.46875 
L 6.640625 71.578125 
L 15.4375 71.578125 
L 15.4375 61.46875 
z
M 6.640625 0 
L 6.640625 51.859375 
L 15.4375 51.859375 
L 15.4375 0 
z
" id="ArialMT-105"/>
      <path d="M 6.59375 0 
L 6.59375 51.859375 
L 14.5 51.859375 
L 14.5 44.484375 
Q 20.21875 53.03125 31 53.03125 
Q 35.6875 53.03125 39.625 51.34375 
Q 43.5625 49.65625 45.515625 46.921875 
Q 47.46875 44.1875 48.25 40.4375 
Q 48.734375 37.984375 48.734375 31.890625 
L 48.734375 0 
L 39.9375 0 
L 39.9375 31.546875 
Q 39.9375 36.921875 38.90625 39.578125 
Q 37.890625 42.234375 35.28125 43.8125 
Q 32.671875 45.40625 29.15625 45.40625 
Q 23.53125 45.40625 19.453125 41.84375 
Q 15.375 38.28125 15.375 28.328125 
L 15.375 0 
z
" id="ArialMT-110"/>
      <path d="M 3.171875 21.484375 
L 3.171875 30.328125 
L 30.171875 30.328125 
L 30.171875 21.484375 
z
" id="ArialMT-45"/>
      <path d="M 25.78125 7.859375 
L 27.046875 0.09375 
Q 23.34375 -0.6875 20.40625 -0.6875 
Q 15.625 -0.6875 12.984375 0.828125 
Q 10.359375 2.34375 9.28125 4.8125 
Q 8.203125 7.28125 8.203125 15.1875 
L 8.203125 45.015625 
L 1.765625 45.015625 
L 1.765625 51.859375 
L 8.203125 51.859375 
L 8.203125 64.703125 
L 16.9375 69.96875 
L 16.9375 51.859375 
L 25.78125 51.859375 
L 25.78125 45.015625 
L 16.9375 45.015625 
L 16.9375 14.703125 
Q 16.9375 10.9375 17.40625 9.859375 
Q 17.875 8.796875 18.921875 8.15625 
Q 19.96875 7.515625 21.921875 7.515625 
Q 23.390625 7.515625 25.78125 7.859375 
z
" id="ArialMT-116"/>
      <path d="M 40.578125 0 
L 40.578125 7.625 
Q 34.515625 -1.171875 24.125 -1.171875 
Q 19.53125 -1.171875 15.546875 0.578125 
Q 11.578125 2.34375 9.640625 5 
Q 7.71875 7.671875 6.9375 11.53125 
Q 6.390625 14.109375 6.390625 19.734375 
L 6.390625 51.859375 
L 15.1875 51.859375 
L 15.1875 23.09375 
Q 15.1875 16.21875 15.71875 13.8125 
Q 16.546875 10.359375 19.234375 8.375 
Q 21.921875 6.390625 25.875 6.390625 
Q 29.828125 6.390625 33.296875 8.421875 
Q 36.765625 10.453125 38.203125 13.9375 
Q 39.65625 17.4375 39.65625 24.078125 
L 39.65625 51.859375 
L 48.4375 51.859375 
L 48.4375 0 
z
" id="ArialMT-117"/>
      <path id="ArialMT-32"/>
      <path d="M 6.5 0 
L 6.5 51.859375 
L 14.40625 51.859375 
L 14.40625 44 
Q 17.4375 49.515625 20 51.265625 
Q 22.5625 53.03125 25.640625 53.03125 
Q 30.078125 53.03125 34.671875 50.203125 
L 31.640625 42.046875 
Q 28.421875 43.953125 25.203125 43.953125 
Q 22.3125 43.953125 20.015625 42.21875 
Q 17.71875 40.484375 16.75 37.40625 
Q 15.28125 32.71875 15.28125 27.15625 
L 15.28125 0 
z
" id="ArialMT-114"/>
      <path d="M 40.4375 6.390625 
Q 35.546875 2.25 31.03125 0.53125 
Q 26.515625 -1.171875 21.34375 -1.171875 
Q 12.796875 -1.171875 8.203125 3 
Q 3.609375 7.171875 3.609375 13.671875 
Q 3.609375 17.484375 5.34375 20.625 
Q 7.078125 23.78125 9.890625 25.6875 
Q 12.703125 27.59375 16.21875 28.5625 
Q 18.796875 29.25 24.03125 29.890625 
Q 34.671875 31.15625 39.703125 32.90625 
Q 39.75 34.71875 39.75 35.203125 
Q 39.75 40.578125 37.25 42.78125 
Q 33.890625 45.75 27.25 45.75 
Q 21.046875 45.75 18.09375 43.578125 
Q 15.140625 41.40625 13.71875 35.890625 
L 5.125 37.0625 
Q 6.296875 42.578125 8.984375 45.96875 
Q 11.671875 49.359375 16.75 51.1875 
Q 21.828125 53.03125 28.515625 53.03125 
Q 35.15625 53.03125 39.296875 51.46875 
Q 43.453125 49.90625 45.40625 47.53125 
Q 47.359375 45.171875 48.140625 41.546875 
Q 48.578125 39.3125 48.578125 33.453125 
L 48.578125 21.734375 
Q 48.578125 9.46875 49.140625 6.21875 
Q 49.703125 2.984375 51.375 0 
L 42.1875 0 
Q 40.828125 2.734375 40.4375 6.390625 
z
M 39.703125 26.03125 
Q 34.90625 24.078125 25.34375 22.703125 
Q 19.921875 21.921875 17.671875 20.9375 
Q 15.4375 19.96875 14.203125 18.09375 
Q 12.984375 16.21875 12.984375 13.921875 
Q 12.984375 10.40625 15.640625 8.0625 
Q 18.3125 5.71875 23.4375 5.71875 
Q 28.515625 5.71875 32.46875 7.9375 
Q 36.421875 10.15625 38.28125 14.015625 
Q 39.703125 17 39.703125 22.796875 
z
" id="ArialMT-97"/>
     </defs>
     <use xlink:href="#ArialMT-102"/>
     <use x="27.783203" xlink:href="#ArialMT-105"/>
     <use x="50" xlink:href="#ArialMT-110"/>
     <use x="105.615234" xlink:href="#ArialMT-101"/>
     <use x="161.230469" xlink:href="#ArialMT-45"/>
     <use x="194.53125" xlink:href="#ArialMT-116"/>
     <use x="222.314453" xlink:href="#ArialMT-117"/>
     <use x="277.929688" xlink:href="#ArialMT-110"/>
     <use x="333.544922" xlink:href="#ArialMT-101"/>
     <use x="389.160156" xlink:href="#ArialMT-32"/>
     <use x="416.943359" xlink:href="#ArialMT-110"/>
     <use x="472.558594" xlink:href="#ArialMT-111"/>
     <use x="528.173828" xlink:href="#ArialMT-32"/>
     <use x="555.957031" xlink:href="#ArialMT-114"/>
     <use x="589.257812" xlink:href="#ArialMT-111"/>
     <use x="644.873047" xlink:href="#ArialMT-116"/>
     <use x="672.65625" xlink:href="#ArialMT-97"/>
     <use x="728.271484" xlink:href="#ArialMT-116"/>
     <use x="756.054688" xlink:href="#ArialMT-105"/>
     <use x="778.271484" xlink:href="#ArialMT-111"/>
     <use x="833.886719" xlink:href="#ArialMT-110"/>
    </g>
   </g>
   <g id="line2d_78">
    <path d="M 1795.700598 188.126758 
L 1828.700598 188.126758 
" style="fill:none;stroke:#006e92;stroke-linecap:round;stroke-width:2.25;"/>
   </g>
   <g id="line2d_79"/>
   <g id="text_46">
    <!-- fine-tune rot90 -->
    <g style="fill:#262626;" transform="translate(1841.900598 193.901758)scale(0.165 -0.165)">
     <use xlink:href="#ArialMT-102"/>
     <use x="27.783203" xlink:href="#ArialMT-105"/>
     <use x="50" xlink:href="#ArialMT-110"/>
     <use x="105.615234" xlink:href="#ArialMT-101"/>
     <use x="161.230469" xlink:href="#ArialMT-45"/>
     <use x="194.53125" xlink:href="#ArialMT-116"/>
     <use x="222.314453" xlink:href="#ArialMT-117"/>
     <use x="277.929688" xlink:href="#ArialMT-110"/>
     <use x="333.544922" xlink:href="#ArialMT-101"/>
     <use x="389.160156" xlink:href="#ArialMT-32"/>
     <use x="416.943359" xlink:href="#ArialMT-114"/>
     <use x="450.244141" xlink:href="#ArialMT-111"/>
     <use x="505.859375" xlink:href="#ArialMT-116"/>
     <use x="533.642578" xlink:href="#ArialMT-57"/>
     <use x="589.257812" xlink:href="#ArialMT-48"/>
    </g>
   </g>
   <g id="line2d_80">
    <path d="M 1795.700598 211.667617 
L 1828.700598 211.667617 
" style="fill:none;stroke:#25bae2;stroke-linecap:round;stroke-width:2.25;"/>
   </g>
   <g id="line2d_81"/>
   <g id="text_47">
    <!-- GPA 10:0.1 | 100:0.1 no rotation -->
    <g style="fill:#262626;" transform="translate(1841.900598 217.442617)scale(0.165 -0.165)">
     <defs>
      <path d="M 41.21875 28.078125 
L 41.21875 36.46875 
L 71.53125 36.53125 
L 71.53125 9.96875 
Q 64.546875 4.390625 57.125 1.578125 
Q 49.703125 -1.21875 41.890625 -1.21875 
Q 31.34375 -1.21875 22.71875 3.296875 
Q 14.109375 7.8125 9.71875 16.359375 
Q 5.328125 24.90625 5.328125 35.453125 
Q 5.328125 45.90625 9.6875 54.953125 
Q 14.0625 64.015625 22.265625 68.40625 
Q 30.46875 72.796875 41.15625 72.796875 
Q 48.921875 72.796875 55.1875 70.28125 
Q 61.46875 67.78125 65.03125 63.28125 
Q 68.609375 58.796875 70.453125 51.5625 
L 61.921875 49.21875 
Q 60.296875 54.6875 57.90625 57.8125 
Q 55.515625 60.9375 51.0625 62.8125 
Q 46.625 64.703125 41.21875 64.703125 
Q 34.71875 64.703125 29.984375 62.71875 
Q 25.25 60.75 22.34375 57.515625 
Q 19.4375 54.296875 17.828125 50.4375 
Q 15.09375 43.796875 15.09375 36.03125 
Q 15.09375 26.46875 18.390625 20.015625 
Q 21.6875 13.578125 27.984375 10.453125 
Q 34.28125 7.328125 41.359375 7.328125 
Q 47.515625 7.328125 53.375 9.6875 
Q 59.234375 12.0625 62.25 14.75 
L 62.25 28.078125 
z
" id="ArialMT-71"/>
      <path d="M 9.03125 41.84375 
L 9.03125 51.859375 
L 19.046875 51.859375 
L 19.046875 41.84375 
z
M 9.03125 0 
L 9.03125 10.015625 
L 19.046875 10.015625 
L 19.046875 0 
z
" id="ArialMT-58"/>
      <path d="M 9.1875 -21.046875 
L 9.1875 72.796875 
L 16.84375 72.796875 
L 16.84375 -21.046875 
z
" id="ArialMT-124"/>
     </defs>
     <use xlink:href="#ArialMT-71"/>
     <use x="77.783203" xlink:href="#ArialMT-80"/>
     <use x="137.107422" xlink:href="#ArialMT-65"/>
     <use x="198.306641" xlink:href="#ArialMT-32"/>
     <use x="226.089844" xlink:href="#ArialMT-49"/>
     <use x="281.705078" xlink:href="#ArialMT-48"/>
     <use x="337.320312" xlink:href="#ArialMT-58"/>
     <use x="365.103516" xlink:href="#ArialMT-48"/>
     <use x="420.71875" xlink:href="#ArialMT-46"/>
     <use x="448.501953" xlink:href="#ArialMT-49"/>
     <use x="504.117188" xlink:href="#ArialMT-32"/>
     <use x="531.900391" xlink:href="#ArialMT-124"/>
     <use x="557.876953" xlink:href="#ArialMT-32"/>
     <use x="585.660156" xlink:href="#ArialMT-49"/>
     <use x="641.275391" xlink:href="#ArialMT-48"/>
     <use x="696.890625" xlink:href="#ArialMT-48"/>
     <use x="752.505859" xlink:href="#ArialMT-58"/>
     <use x="780.289062" xlink:href="#ArialMT-48"/>
     <use x="835.904297" xlink:href="#ArialMT-46"/>
     <use x="863.6875" xlink:href="#ArialMT-49"/>
     <use x="919.302734" xlink:href="#ArialMT-32"/>
     <use x="947.085938" xlink:href="#ArialMT-110"/>
     <use x="1002.701172" xlink:href="#ArialMT-111"/>
     <use x="1058.316406" xlink:href="#ArialMT-32"/>
     <use x="1086.099609" xlink:href="#ArialMT-114"/>
     <use x="1119.400391" xlink:href="#ArialMT-111"/>
     <use x="1175.015625" xlink:href="#ArialMT-116"/>
     <use x="1202.798828" xlink:href="#ArialMT-97"/>
     <use x="1258.414062" xlink:href="#ArialMT-116"/>
     <use x="1286.197266" xlink:href="#ArialMT-105"/>
     <use x="1308.414062" xlink:href="#ArialMT-111"/>
     <use x="1364.029297" xlink:href="#ArialMT-110"/>
    </g>
   </g>
  </g>
 </g>
 <defs>
  <clipPath id="p6adcfbdbb4">
   <rect height="273.62" width="325.524511" x="72.722109" y="26.084062"/>
  </clipPath>
  <clipPath id="p3b643a9a70">
   <rect height="273.62" width="325.524511" x="417.55185" y="26.084062"/>
  </clipPath>
  <clipPath id="pe1dc332cff">
   <rect height="273.62" width="325.524511" x="762.381591" y="26.084062"/>
  </clipPath>
  <clipPath id="pf35ac0e4f0">
   <rect height="273.62" width="325.524511" x="1107.211331" y="26.084062"/>
  </clipPath>
  <clipPath id="pae0a2101e3">
   <rect height="273.62" width="325.524511" x="1452.041072" y="26.084062"/>
  </clipPath>
 </defs>
</svg>
