<?xml version="1.0" encoding="utf-8" standalone="no"?>
<!DOCTYPE svg PUBLIC "-//W3C//DTD SVG 1.1//EN"
  "http://www.w3.org/Graphics/SVG/1.1/DTD/svg11.dtd">
<!-- Created with matplotlib (https://matplotlib.org/) -->
<svg height="355.008828pt" version="1.1" viewBox="0 0 1423.192109 355.008828" width="1423.192109pt" xmlns="http://www.w3.org/2000/svg" xmlns:xlink="http://www.w3.org/1999/xlink">
 <metadata>
  <rdf:RDF xmlns:cc="http://creativecommons.org/ns#" xmlns:dc="http://purl.org/dc/elements/1.1/" xmlns:rdf="http://www.w3.org/1999/02/22-rdf-syntax-ns#">
   <cc:Work>
    <dc:type rdf:resource="http://purl.org/dc/dcmitype/StillImage"/>
    <dc:date>2021-08-19T15:53:10.831673</dc:date>
    <dc:format>image/svg+xml</dc:format>
    <dc:creator>
     <cc:Agent>
      <dc:title>Matplotlib v3.3.4, https://matplotlib.org/</dc:title>
     </cc:Agent>
    </dc:creator>
   </cc:Work>
  </rdf:RDF>
 </metadata>
 <defs>
  <style type="text/css">*{stroke-linecap:butt;stroke-linejoin:round;}</style>
 </defs>
 <g id="figure_1">
  <g id="patch_1">
   <path d="M 0 355.008828 
L 1423.192109 355.008828 
L 1423.192109 0 
L 0 0 
z
" style="fill:#ffffff;"/>
  </g>
  <g id="axes_1">
   <g id="patch_2">
    <path d="M 63.546563 299.7575 
L 381.780519 299.7575 
L 381.780519 26.1375 
L 63.546563 26.1375 
z
" style="fill:#ffffff;"/>
   </g>
   <g id="matplotlib.axis_1">
    <g id="xtick_1">
     <g id="line2d_1">
      <path clip-path="url(#p93eb85429d)" d="M 70.593701 299.7575 
L 70.593701 26.1375 
" style="fill:none;stroke:#cccccc;stroke-linecap:round;stroke-width:1.5;"/>
     </g>
     <g id="text_1">
      <!-- 0 -->
      <g style="fill:#262626;" transform="translate(66.005928 324.067891)scale(0.165 -0.165)">
       <defs>
        <path d="M 4.15625 35.296875 
Q 4.15625 48 6.765625 55.734375 
Q 9.375 63.484375 14.515625 67.671875 
Q 19.671875 71.875 27.484375 71.875 
Q 33.25 71.875 37.59375 69.546875 
Q 41.9375 67.234375 44.765625 62.859375 
Q 47.609375 58.5 49.21875 52.21875 
Q 50.828125 45.953125 50.828125 35.296875 
Q 50.828125 22.703125 48.234375 14.96875 
Q 45.65625 7.234375 40.5 3 
Q 35.359375 -1.21875 27.484375 -1.21875 
Q 17.140625 -1.21875 11.234375 6.203125 
Q 4.15625 15.140625 4.15625 35.296875 
z
M 13.1875 35.296875 
Q 13.1875 17.671875 17.3125 11.828125 
Q 21.4375 6 27.484375 6 
Q 33.546875 6 37.671875 11.859375 
Q 41.796875 17.71875 41.796875 35.296875 
Q 41.796875 52.984375 37.671875 58.78125 
Q 33.546875 64.59375 27.390625 64.59375 
Q 21.34375 64.59375 17.71875 59.46875 
Q 13.1875 52.9375 13.1875 35.296875 
z
" id="ArialMT-48"/>
       </defs>
       <use xlink:href="#ArialMT-48"/>
      </g>
     </g>
    </g>
    <g id="xtick_2">
     <g id="line2d_2">
      <path clip-path="url(#p93eb85429d)" d="M 144.774111 299.7575 
L 144.774111 26.1375 
" style="fill:none;stroke:#cccccc;stroke-linecap:round;stroke-width:1.5;"/>
     </g>
     <g id="text_2">
      <!-- 10 -->
      <g style="fill:#262626;" transform="translate(135.598564 324.067891)scale(0.165 -0.165)">
       <defs>
        <path d="M 37.25 0 
L 28.46875 0 
L 28.46875 56 
Q 25.296875 52.984375 20.140625 49.953125 
Q 14.984375 46.921875 10.890625 45.40625 
L 10.890625 53.90625 
Q 18.265625 57.375 23.78125 62.296875 
Q 29.296875 67.234375 31.59375 71.875 
L 37.25 71.875 
z
" id="ArialMT-49"/>
       </defs>
       <use xlink:href="#ArialMT-49"/>
       <use x="55.615234" xlink:href="#ArialMT-48"/>
      </g>
     </g>
    </g>
    <g id="xtick_3">
     <g id="line2d_3">
      <path clip-path="url(#p93eb85429d)" d="M 218.95452 299.7575 
L 218.95452 26.1375 
" style="fill:none;stroke:#cccccc;stroke-linecap:round;stroke-width:1.5;"/>
     </g>
     <g id="text_3">
      <!-- 20 -->
      <g style="fill:#262626;" transform="translate(209.778973 324.067891)scale(0.165 -0.165)">
       <defs>
        <path d="M 50.34375 8.453125 
L 50.34375 0 
L 3.03125 0 
Q 2.9375 3.171875 4.046875 6.109375 
Q 5.859375 10.9375 9.828125 15.625 
Q 13.8125 20.3125 21.34375 26.46875 
Q 33.015625 36.03125 37.109375 41.625 
Q 41.21875 47.21875 41.21875 52.203125 
Q 41.21875 57.421875 37.46875 61 
Q 33.734375 64.59375 27.734375 64.59375 
Q 21.390625 64.59375 17.578125 60.78125 
Q 13.765625 56.984375 13.71875 50.25 
L 4.6875 51.171875 
Q 5.609375 61.28125 11.65625 66.578125 
Q 17.71875 71.875 27.9375 71.875 
Q 38.234375 71.875 44.234375 66.15625 
Q 50.25 60.453125 50.25 52 
Q 50.25 47.703125 48.484375 43.546875 
Q 46.734375 39.40625 42.65625 34.8125 
Q 38.578125 30.21875 29.109375 22.21875 
Q 21.1875 15.578125 18.9375 13.203125 
Q 16.703125 10.84375 15.234375 8.453125 
z
" id="ArialMT-50"/>
       </defs>
       <use xlink:href="#ArialMT-50"/>
       <use x="55.615234" xlink:href="#ArialMT-48"/>
      </g>
     </g>
    </g>
    <g id="xtick_4">
     <g id="line2d_4">
      <path clip-path="url(#p93eb85429d)" d="M 293.134929 299.7575 
L 293.134929 26.1375 
" style="fill:none;stroke:#cccccc;stroke-linecap:round;stroke-width:1.5;"/>
     </g>
     <g id="text_4">
      <!-- 30 -->
      <g style="fill:#262626;" transform="translate(283.959383 324.067891)scale(0.165 -0.165)">
       <defs>
        <path d="M 4.203125 18.890625 
L 12.984375 20.0625 
Q 14.5 12.59375 18.140625 9.296875 
Q 21.78125 6 27 6 
Q 33.203125 6 37.46875 10.296875 
Q 41.75 14.59375 41.75 20.953125 
Q 41.75 27 37.796875 30.921875 
Q 33.84375 34.859375 27.734375 34.859375 
Q 25.25 34.859375 21.53125 33.890625 
L 22.515625 41.609375 
Q 23.390625 41.5 23.921875 41.5 
Q 29.546875 41.5 34.03125 44.421875 
Q 38.53125 47.359375 38.53125 53.46875 
Q 38.53125 58.296875 35.25 61.46875 
Q 31.984375 64.65625 26.8125 64.65625 
Q 21.6875 64.65625 18.265625 61.421875 
Q 14.84375 58.203125 13.875 51.765625 
L 5.078125 53.328125 
Q 6.6875 62.15625 12.390625 67.015625 
Q 18.109375 71.875 26.609375 71.875 
Q 32.46875 71.875 37.390625 69.359375 
Q 42.328125 66.84375 44.9375 62.5 
Q 47.5625 58.15625 47.5625 53.265625 
Q 47.5625 48.640625 45.0625 44.828125 
Q 42.578125 41.015625 37.703125 38.765625 
Q 44.046875 37.3125 47.5625 32.6875 
Q 51.078125 28.078125 51.078125 21.140625 
Q 51.078125 11.765625 44.234375 5.25 
Q 37.40625 -1.265625 26.953125 -1.265625 
Q 17.53125 -1.265625 11.296875 4.34375 
Q 5.078125 9.96875 4.203125 18.890625 
z
" id="ArialMT-51"/>
       </defs>
       <use xlink:href="#ArialMT-51"/>
       <use x="55.615234" xlink:href="#ArialMT-48"/>
      </g>
     </g>
    </g>
    <g id="xtick_5">
     <g id="line2d_5">
      <path clip-path="url(#p93eb85429d)" d="M 367.315339 299.7575 
L 367.315339 26.1375 
" style="fill:none;stroke:#cccccc;stroke-linecap:round;stroke-width:1.5;"/>
     </g>
     <g id="text_5">
      <!-- 40 -->
      <g style="fill:#262626;" transform="translate(358.139792 324.067891)scale(0.165 -0.165)">
       <defs>
        <path d="M 32.328125 0 
L 32.328125 17.140625 
L 1.265625 17.140625 
L 1.265625 25.203125 
L 33.9375 71.578125 
L 41.109375 71.578125 
L 41.109375 25.203125 
L 50.78125 25.203125 
L 50.78125 17.140625 
L 41.109375 17.140625 
L 41.109375 0 
z
M 32.328125 25.203125 
L 32.328125 57.46875 
L 9.90625 25.203125 
z
" id="ArialMT-52"/>
       </defs>
       <use xlink:href="#ArialMT-52"/>
       <use x="55.615234" xlink:href="#ArialMT-48"/>
      </g>
     </g>
    </g>
    <g id="text_6">
     <!-- epoch -->
     <g style="fill:#262626;" transform="translate(198.144166 344.231328)scale(0.18 -0.18)">
      <defs>
       <path d="M 42.09375 16.703125 
L 51.171875 15.578125 
Q 49.03125 7.625 43.21875 3.21875 
Q 37.40625 -1.171875 28.375 -1.171875 
Q 17 -1.171875 10.328125 5.828125 
Q 3.65625 12.84375 3.65625 25.484375 
Q 3.65625 38.578125 10.390625 45.796875 
Q 17.140625 53.03125 27.875 53.03125 
Q 38.28125 53.03125 44.875 45.953125 
Q 51.46875 38.875 51.46875 26.03125 
Q 51.46875 25.25 51.421875 23.6875 
L 12.75 23.6875 
Q 13.234375 15.140625 17.578125 10.59375 
Q 21.921875 6.0625 28.421875 6.0625 
Q 33.25 6.0625 36.671875 8.59375 
Q 40.09375 11.140625 42.09375 16.703125 
z
M 13.234375 30.90625 
L 42.1875 30.90625 
Q 41.609375 37.453125 38.875 40.71875 
Q 34.671875 45.796875 27.984375 45.796875 
Q 21.921875 45.796875 17.796875 41.75 
Q 13.671875 37.703125 13.234375 30.90625 
z
" id="ArialMT-101"/>
       <path d="M 6.59375 -19.875 
L 6.59375 51.859375 
L 14.59375 51.859375 
L 14.59375 45.125 
Q 17.4375 49.078125 21 51.046875 
Q 24.5625 53.03125 29.640625 53.03125 
Q 36.28125 53.03125 41.359375 49.609375 
Q 46.4375 46.1875 49.015625 39.953125 
Q 51.609375 33.734375 51.609375 26.3125 
Q 51.609375 18.359375 48.75 11.984375 
Q 45.90625 5.609375 40.453125 2.21875 
Q 35.015625 -1.171875 29 -1.171875 
Q 24.609375 -1.171875 21.109375 0.6875 
Q 17.625 2.546875 15.375 5.375 
L 15.375 -19.875 
z
M 14.546875 25.640625 
Q 14.546875 15.625 18.59375 10.84375 
Q 22.65625 6.0625 28.421875 6.0625 
Q 34.28125 6.0625 38.453125 11.015625 
Q 42.625 15.96875 42.625 26.375 
Q 42.625 36.28125 38.546875 41.203125 
Q 34.46875 46.140625 28.8125 46.140625 
Q 23.1875 46.140625 18.859375 40.890625 
Q 14.546875 35.640625 14.546875 25.640625 
z
" id="ArialMT-112"/>
       <path d="M 3.328125 25.921875 
Q 3.328125 40.328125 11.328125 47.265625 
Q 18.015625 53.03125 27.640625 53.03125 
Q 38.328125 53.03125 45.109375 46.015625 
Q 51.90625 39.015625 51.90625 26.65625 
Q 51.90625 16.65625 48.90625 10.90625 
Q 45.90625 5.171875 40.15625 2 
Q 34.421875 -1.171875 27.640625 -1.171875 
Q 16.75 -1.171875 10.03125 5.8125 
Q 3.328125 12.796875 3.328125 25.921875 
z
M 12.359375 25.921875 
Q 12.359375 15.96875 16.703125 11.015625 
Q 21.046875 6.0625 27.640625 6.0625 
Q 34.1875 6.0625 38.53125 11.03125 
Q 42.875 16.015625 42.875 26.21875 
Q 42.875 35.84375 38.5 40.796875 
Q 34.125 45.75 27.640625 45.75 
Q 21.046875 45.75 16.703125 40.8125 
Q 12.359375 35.890625 12.359375 25.921875 
z
" id="ArialMT-111"/>
       <path d="M 40.4375 19 
L 49.078125 17.875 
Q 47.65625 8.9375 41.8125 3.875 
Q 35.984375 -1.171875 27.484375 -1.171875 
Q 16.84375 -1.171875 10.375 5.78125 
Q 3.90625 12.75 3.90625 25.734375 
Q 3.90625 34.125 6.6875 40.421875 
Q 9.46875 46.734375 15.15625 49.875 
Q 20.84375 53.03125 27.546875 53.03125 
Q 35.984375 53.03125 41.359375 48.75 
Q 46.734375 44.484375 48.25 36.625 
L 39.703125 35.296875 
Q 38.484375 40.53125 35.375 43.15625 
Q 32.28125 45.796875 27.875 45.796875 
Q 21.234375 45.796875 17.078125 41.03125 
Q 12.9375 36.28125 12.9375 25.984375 
Q 12.9375 15.53125 16.9375 10.796875 
Q 20.953125 6.0625 27.390625 6.0625 
Q 32.5625 6.0625 36.03125 9.234375 
Q 39.5 12.40625 40.4375 19 
z
" id="ArialMT-99"/>
       <path d="M 6.59375 0 
L 6.59375 71.578125 
L 15.375 71.578125 
L 15.375 45.90625 
Q 21.53125 53.03125 30.90625 53.03125 
Q 36.671875 53.03125 40.921875 50.75 
Q 45.171875 48.484375 47 44.484375 
Q 48.828125 40.484375 48.828125 32.859375 
L 48.828125 0 
L 40.046875 0 
L 40.046875 32.859375 
Q 40.046875 39.453125 37.1875 42.453125 
Q 34.328125 45.453125 29.109375 45.453125 
Q 25.203125 45.453125 21.75 43.421875 
Q 18.3125 41.40625 16.84375 37.9375 
Q 15.375 34.46875 15.375 28.375 
L 15.375 0 
z
" id="ArialMT-104"/>
      </defs>
      <use xlink:href="#ArialMT-101"/>
      <use x="55.615234" xlink:href="#ArialMT-112"/>
      <use x="111.230469" xlink:href="#ArialMT-111"/>
      <use x="166.845703" xlink:href="#ArialMT-99"/>
      <use x="216.845703" xlink:href="#ArialMT-104"/>
     </g>
    </g>
   </g>
   <g id="matplotlib.axis_2">
    <g id="ytick_1">
     <g id="line2d_6">
      <path clip-path="url(#p93eb85429d)" d="M 63.546563 299.573698 
L 381.780519 299.573698 
" style="fill:none;stroke:#cccccc;stroke-linecap:round;stroke-width:1.5;"/>
     </g>
     <g id="text_7">
      <!-- 0.5 -->
      <g style="fill:#262626;" transform="translate(28.111563 305.478893)scale(0.165 -0.165)">
       <defs>
        <path d="M 9.078125 0 
L 9.078125 10.015625 
L 19.09375 10.015625 
L 19.09375 0 
z
" id="ArialMT-46"/>
        <path d="M 4.15625 18.75 
L 13.375 19.53125 
Q 14.40625 12.796875 18.140625 9.390625 
Q 21.875 6 27.15625 6 
Q 33.5 6 37.890625 10.78125 
Q 42.28125 15.578125 42.28125 23.484375 
Q 42.28125 31 38.0625 35.34375 
Q 33.84375 39.703125 27 39.703125 
Q 22.75 39.703125 19.328125 37.765625 
Q 15.921875 35.84375 13.96875 32.765625 
L 5.71875 33.84375 
L 12.640625 70.609375 
L 48.25 70.609375 
L 48.25 62.203125 
L 19.671875 62.203125 
L 15.828125 42.96875 
Q 22.265625 47.46875 29.34375 47.46875 
Q 38.71875 47.46875 45.15625 40.96875 
Q 51.609375 34.46875 51.609375 24.265625 
Q 51.609375 14.546875 45.953125 7.46875 
Q 39.0625 -1.21875 27.15625 -1.21875 
Q 17.390625 -1.21875 11.203125 4.25 
Q 5.03125 9.71875 4.15625 18.75 
z
" id="ArialMT-53"/>
       </defs>
       <use xlink:href="#ArialMT-48"/>
       <use x="55.615234" xlink:href="#ArialMT-46"/>
       <use x="83.398438" xlink:href="#ArialMT-53"/>
      </g>
     </g>
    </g>
    <g id="ytick_2">
     <g id="line2d_7">
      <path clip-path="url(#p93eb85429d)" d="M 63.546563 238.306345 
L 381.780519 238.306345 
" style="fill:none;stroke:#cccccc;stroke-linecap:round;stroke-width:1.5;"/>
     </g>
     <g id="text_8">
      <!-- 0.6 -->
      <g style="fill:#262626;" transform="translate(28.111563 244.21154)scale(0.165 -0.165)">
       <defs>
        <path d="M 49.75 54.046875 
L 41.015625 53.375 
Q 39.84375 58.546875 37.703125 60.890625 
Q 34.125 64.65625 28.90625 64.65625 
Q 24.703125 64.65625 21.53125 62.3125 
Q 17.390625 59.28125 14.984375 53.46875 
Q 12.59375 47.65625 12.5 36.921875 
Q 15.671875 41.75 20.265625 44.09375 
Q 24.859375 46.4375 29.890625 46.4375 
Q 38.671875 46.4375 44.84375 39.96875 
Q 51.03125 33.5 51.03125 23.25 
Q 51.03125 16.5 48.125 10.71875 
Q 45.21875 4.9375 40.140625 1.859375 
Q 35.0625 -1.21875 28.609375 -1.21875 
Q 17.625 -1.21875 10.6875 6.859375 
Q 3.765625 14.9375 3.765625 33.5 
Q 3.765625 54.25 11.421875 63.671875 
Q 18.109375 71.875 29.4375 71.875 
Q 37.890625 71.875 43.28125 67.140625 
Q 48.6875 62.40625 49.75 54.046875 
z
M 13.875 23.1875 
Q 13.875 18.65625 15.796875 14.5 
Q 17.71875 10.359375 21.1875 8.171875 
Q 24.65625 6 28.46875 6 
Q 34.03125 6 38.03125 10.484375 
Q 42.046875 14.984375 42.046875 22.703125 
Q 42.046875 30.125 38.078125 34.390625 
Q 34.125 38.671875 28.125 38.671875 
Q 22.171875 38.671875 18.015625 34.390625 
Q 13.875 30.125 13.875 23.1875 
z
" id="ArialMT-54"/>
       </defs>
       <use xlink:href="#ArialMT-48"/>
       <use x="55.615234" xlink:href="#ArialMT-46"/>
       <use x="83.398438" xlink:href="#ArialMT-54"/>
      </g>
     </g>
    </g>
    <g id="ytick_3">
     <g id="line2d_8">
      <path clip-path="url(#p93eb85429d)" d="M 63.546563 177.038991 
L 381.780519 177.038991 
" style="fill:none;stroke:#cccccc;stroke-linecap:round;stroke-width:1.5;"/>
     </g>
     <g id="text_9">
      <!-- 0.7 -->
      <g style="fill:#262626;" transform="translate(28.111563 182.944187)scale(0.165 -0.165)">
       <defs>
        <path d="M 4.734375 62.203125 
L 4.734375 70.65625 
L 51.078125 70.65625 
L 51.078125 63.8125 
Q 44.234375 56.546875 37.515625 44.484375 
Q 30.8125 32.421875 27.15625 19.671875 
Q 24.515625 10.6875 23.78125 0 
L 14.75 0 
Q 14.890625 8.453125 18.0625 20.40625 
Q 21.234375 32.375 27.171875 43.484375 
Q 33.109375 54.59375 39.796875 62.203125 
z
" id="ArialMT-55"/>
       </defs>
       <use xlink:href="#ArialMT-48"/>
       <use x="55.615234" xlink:href="#ArialMT-46"/>
       <use x="83.398438" xlink:href="#ArialMT-55"/>
      </g>
     </g>
    </g>
    <g id="ytick_4">
     <g id="line2d_9">
      <path clip-path="url(#p93eb85429d)" d="M 63.546563 115.771638 
L 381.780519 115.771638 
" style="fill:none;stroke:#cccccc;stroke-linecap:round;stroke-width:1.5;"/>
     </g>
     <g id="text_10">
      <!-- 0.8 -->
      <g style="fill:#262626;" transform="translate(28.111563 121.676833)scale(0.165 -0.165)">
       <defs>
        <path d="M 17.671875 38.8125 
Q 12.203125 40.828125 9.5625 44.53125 
Q 6.9375 48.25 6.9375 53.421875 
Q 6.9375 61.234375 12.546875 66.546875 
Q 18.171875 71.875 27.484375 71.875 
Q 36.859375 71.875 42.578125 66.421875 
Q 48.296875 60.984375 48.296875 53.171875 
Q 48.296875 48.1875 45.671875 44.5 
Q 43.0625 40.828125 37.75 38.8125 
Q 44.34375 36.671875 47.78125 31.875 
Q 51.21875 27.09375 51.21875 20.453125 
Q 51.21875 11.28125 44.71875 5.03125 
Q 38.234375 -1.21875 27.640625 -1.21875 
Q 17.046875 -1.21875 10.546875 5.046875 
Q 4.046875 11.328125 4.046875 20.703125 
Q 4.046875 27.6875 7.59375 32.390625 
Q 11.140625 37.109375 17.671875 38.8125 
z
M 15.921875 53.71875 
Q 15.921875 48.640625 19.1875 45.40625 
Q 22.46875 42.1875 27.6875 42.1875 
Q 32.765625 42.1875 36.015625 45.375 
Q 39.265625 48.578125 39.265625 53.21875 
Q 39.265625 58.0625 35.90625 61.359375 
Q 32.5625 64.65625 27.59375 64.65625 
Q 22.5625 64.65625 19.234375 61.421875 
Q 15.921875 58.203125 15.921875 53.71875 
z
M 13.09375 20.65625 
Q 13.09375 16.890625 14.875 13.375 
Q 16.65625 9.859375 20.171875 7.921875 
Q 23.6875 6 27.734375 6 
Q 34.03125 6 38.125 10.046875 
Q 42.234375 14.109375 42.234375 20.359375 
Q 42.234375 26.703125 38.015625 30.859375 
Q 33.796875 35.015625 27.4375 35.015625 
Q 21.234375 35.015625 17.15625 30.90625 
Q 13.09375 26.8125 13.09375 20.65625 
z
" id="ArialMT-56"/>
       </defs>
       <use xlink:href="#ArialMT-48"/>
       <use x="55.615234" xlink:href="#ArialMT-46"/>
       <use x="83.398438" xlink:href="#ArialMT-56"/>
      </g>
     </g>
    </g>
    <g id="ytick_5">
     <g id="line2d_10">
      <path clip-path="url(#p93eb85429d)" d="M 63.546563 54.504285 
L 381.780519 54.504285 
" style="fill:none;stroke:#cccccc;stroke-linecap:round;stroke-width:1.5;"/>
     </g>
     <g id="text_11">
      <!-- 0.9 -->
      <g style="fill:#262626;" transform="translate(28.111563 60.40948)scale(0.165 -0.165)">
       <defs>
        <path d="M 5.46875 16.546875 
L 13.921875 17.328125 
Q 14.984375 11.375 18.015625 8.6875 
Q 21.046875 6 25.78125 6 
Q 29.828125 6 32.875 7.859375 
Q 35.9375 9.71875 37.890625 12.8125 
Q 39.84375 15.921875 41.15625 21.1875 
Q 42.484375 26.46875 42.484375 31.9375 
Q 42.484375 32.515625 42.4375 33.6875 
Q 39.796875 29.5 35.234375 26.875 
Q 30.671875 24.265625 25.34375 24.265625 
Q 16.453125 24.265625 10.296875 30.703125 
Q 4.15625 37.15625 4.15625 47.703125 
Q 4.15625 58.59375 10.578125 65.234375 
Q 17 71.875 26.65625 71.875 
Q 33.640625 71.875 39.421875 68.109375 
Q 45.21875 64.359375 48.21875 57.390625 
Q 51.21875 50.4375 51.21875 37.25 
Q 51.21875 23.53125 48.234375 15.40625 
Q 45.265625 7.28125 39.375 3.03125 
Q 33.5 -1.21875 25.59375 -1.21875 
Q 17.1875 -1.21875 11.859375 3.4375 
Q 6.546875 8.109375 5.46875 16.546875 
z
M 41.453125 48.140625 
Q 41.453125 55.71875 37.421875 60.15625 
Q 33.40625 64.59375 27.734375 64.59375 
Q 21.875 64.59375 17.53125 59.8125 
Q 13.1875 55.03125 13.1875 47.40625 
Q 13.1875 40.578125 17.3125 36.296875 
Q 21.4375 32.03125 27.484375 32.03125 
Q 33.59375 32.03125 37.515625 36.296875 
Q 41.453125 40.578125 41.453125 48.140625 
z
" id="ArialMT-57"/>
       </defs>
       <use xlink:href="#ArialMT-48"/>
       <use x="55.615234" xlink:href="#ArialMT-46"/>
       <use x="83.398438" xlink:href="#ArialMT-57"/>
      </g>
     </g>
    </g>
    <g id="text_12">
     <!-- AP@50 -->
     <g style="fill:#262626;" transform="translate(20.323125 194.100156)rotate(-90)scale(0.18 -0.18)">
      <defs>
       <path d="M -0.140625 0 
L 27.34375 71.578125 
L 37.546875 71.578125 
L 66.84375 0 
L 56.0625 0 
L 47.703125 21.6875 
L 17.78125 21.6875 
L 9.90625 0 
z
M 20.515625 29.390625 
L 44.78125 29.390625 
L 37.3125 49.21875 
Q 33.890625 58.25 32.234375 64.0625 
Q 30.859375 57.171875 28.375 50.390625 
z
" id="ArialMT-65"/>
       <path d="M 7.71875 0 
L 7.71875 71.578125 
L 34.71875 71.578125 
Q 41.84375 71.578125 45.609375 70.90625 
Q 50.875 70.015625 54.4375 67.546875 
Q 58.015625 65.09375 60.1875 60.640625 
Q 62.359375 56.203125 62.359375 50.875 
Q 62.359375 41.75 56.546875 35.421875 
Q 50.734375 29.109375 35.546875 29.109375 
L 17.1875 29.109375 
L 17.1875 0 
z
M 17.1875 37.546875 
L 35.6875 37.546875 
Q 44.875 37.546875 48.734375 40.96875 
Q 52.59375 44.390625 52.59375 50.59375 
Q 52.59375 55.078125 50.3125 58.265625 
Q 48.046875 61.46875 44.34375 62.5 
Q 41.9375 63.140625 35.5 63.140625 
L 17.1875 63.140625 
z
" id="ArialMT-80"/>
       <path d="M 56.6875 7.953125 
Q 53.515625 4.296875 49.578125 2.078125 
Q 45.65625 -0.140625 41.703125 -0.140625 
Q 37.359375 -0.140625 33.25 2.390625 
Q 29.15625 4.9375 26.59375 10.203125 
Q 24.03125 15.484375 24.03125 21.78125 
Q 24.03125 29.546875 28 37.328125 
Q 31.984375 45.125 37.890625 49.03125 
Q 43.796875 52.9375 49.359375 52.9375 
Q 53.609375 52.9375 57.46875 50.703125 
Q 61.328125 48.484375 64.109375 43.953125 
L 65.765625 51.515625 
L 74.515625 51.515625 
L 67.484375 18.75 
Q 66.015625 11.921875 66.015625 11.1875 
Q 66.015625 9.859375 67.015625 8.90625 
Q 68.015625 7.953125 69.4375 7.953125 
Q 72.015625 7.953125 76.21875 10.9375 
Q 81.78125 14.84375 85.03125 21.40625 
Q 88.28125 27.984375 88.28125 34.96875 
Q 88.28125 43.109375 84.109375 50.1875 
Q 79.9375 57.28125 71.65625 61.515625 
Q 63.375 65.765625 53.375 65.765625 
Q 41.9375 65.765625 32.484375 60.421875 
Q 23.046875 55.078125 17.84375 45.09375 
Q 12.640625 35.109375 12.640625 23.6875 
Q 12.640625 11.71875 17.84375 3.078125 
Q 23.046875 -5.5625 32.875 -9.6875 
Q 42.71875 -13.8125 54.6875 -13.8125 
Q 67.484375 -13.8125 76.125 -9.515625 
Q 84.765625 -5.21875 89.0625 0.921875 
L 97.90625 0.921875 
Q 95.40625 -4.203125 89.34375 -9.515625 
Q 83.296875 -14.84375 74.953125 -17.9375 
Q 66.609375 -21.046875 54.828125 -21.046875 
Q 44 -21.046875 34.84375 -18.265625 
Q 25.6875 -15.484375 19.234375 -9.890625 
Q 12.796875 -4.296875 9.515625 2.984375 
Q 5.421875 12.203125 5.421875 22.90625 
Q 5.421875 34.8125 10.296875 45.609375 
Q 16.265625 58.84375 27.21875 65.875 
Q 38.1875 72.90625 53.8125 72.90625 
Q 65.921875 72.90625 75.5625 67.9375 
Q 85.203125 62.984375 90.765625 53.171875 
Q 95.515625 44.734375 95.515625 34.8125 
Q 95.515625 20.65625 85.546875 9.671875 
Q 76.65625 -0.203125 66.109375 -0.203125 
Q 62.75 -0.203125 60.671875 0.828125 
Q 58.59375 1.859375 57.625 3.765625 
Q 56.984375 4.984375 56.6875 7.953125 
z
M 33.0625 21.1875 
Q 33.0625 14.5 36.234375 10.78125 
Q 39.40625 7.078125 43.5 7.078125 
Q 46.234375 7.078125 49.265625 8.71875 
Q 52.296875 10.359375 55.046875 13.578125 
Q 57.8125 16.796875 59.5625 21.75 
Q 61.328125 26.703125 61.328125 31.6875 
Q 61.328125 38.328125 58.03125 41.984375 
Q 54.734375 45.65625 50 45.65625 
Q 46.875 45.65625 44.109375 44.0625 
Q 41.359375 42.484375 38.765625 38.96875 
Q 36.1875 35.453125 34.625 30.421875 
Q 33.0625 25.390625 33.0625 21.1875 
z
" id="ArialMT-64"/>
      </defs>
      <use xlink:href="#ArialMT-65"/>
      <use x="66.699219" xlink:href="#ArialMT-80"/>
      <use x="133.398438" xlink:href="#ArialMT-64"/>
      <use x="234.912109" xlink:href="#ArialMT-53"/>
      <use x="290.527344" xlink:href="#ArialMT-48"/>
     </g>
    </g>
   </g>
   <g id="line2d_11">
    <path clip-path="url(#p93eb85429d)" d="M 78.011742 285.482207 
L 85.429783 275.066757 
L 92.847824 273.228736 
L 100.265865 257.299224 
L 107.683906 250.559815 
L 115.101947 248.109121 
L 122.519988 248.721795 
L 129.938029 246.271101 
L 137.35607 242.595059 
L 144.774111 242.595059 
L 152.192152 241.369712 
L 159.610193 242.595059 
L 167.028234 241.982386 
L 174.446274 241.369712 
L 181.864315 243.207733 
L 189.282356 241.982386 
L 196.700397 241.982386 
L 204.118438 241.369712 
L 211.536479 241.982386 
L 218.95452 243.820406 
L 226.372561 243.820406 
L 233.790602 243.207733 
L 241.208643 240.757039 
L 248.626684 240.144365 
L 256.044725 240.757039 
L 263.462766 238.306345 
L 270.880807 240.144365 
L 278.298848 241.982386 
L 285.716889 241.982386 
L 293.134929 238.919018 
L 300.55297 239.531692 
L 307.971011 240.144365 
L 315.389052 240.757039 
L 322.807093 240.757039 
L 330.225134 240.757039 
L 337.643175 243.820406 
L 345.061216 242.595059 
L 352.479257 243.207733 
L 359.897298 243.820406 
L 367.315339 243.207733 
" style="fill:none;stroke:#179c7d;stroke-linecap:round;stroke-width:2.25;"/>
   </g>
   <g id="line2d_12">
    <path clip-path="url(#p93eb85429d)" d="M 78.011742 287.320227 
L 85.429783 284.869533 
L 92.847824 285.482207 
L 100.265865 269.552695 
L 107.683906 265.26398 
L 115.101947 262.813286 
L 122.519988 257.911898 
L 129.938029 253.010509 
" style="fill:none;stroke:#006e92;stroke-linecap:round;stroke-width:2.25;"/>
   </g>
   <g id="line2d_13">
    <path clip-path="url(#p93eb85429d)" d="M 78.011742 284.869533 
L 85.429783 279.968145 
L 92.847824 275.066757 
L 100.265865 264.038633 
L 107.683906 254.235856 
L 115.101947 252.397836 
L 122.519988 249.334468 
L 129.938029 250.559815 
L 137.35607 247.496448 
L 144.774111 246.883774 
L 152.192152 245.045753 
L 159.610193 246.883774 
L 167.028234 245.658427 
L 174.446274 246.271101 
L 181.864315 246.271101 
L 189.282356 245.045753 
L 196.700397 244.43308 
L 204.118438 243.207733 
L 211.536479 245.045753 
L 218.95452 245.045753 
L 226.372561 246.271101 
L 233.790602 246.883774 
L 241.208643 243.820406 
L 248.626684 243.820406 
L 256.044725 243.207733 
L 263.462766 243.207733 
L 270.880807 242.595059 
L 278.298848 242.595059 
L 285.716889 245.045753 
L 293.134929 241.369712 
L 300.55297 240.757039 
L 307.971011 241.982386 
L 315.389052 242.595059 
L 322.807093 243.207733 
L 330.225134 243.820406 
L 337.643175 243.820406 
L 345.061216 243.820406 
L 352.479257 243.207733 
L 359.897298 245.045753 
L 367.315339 246.883774 
" style="fill:none;stroke:#25bae2;stroke-linecap:round;stroke-width:2.25;"/>
   </g>
   <g id="line2d_14"/>
   <g id="line2d_15"/>
   <g id="line2d_16"/>
   <g id="patch_3">
    <path d="M 63.546563 299.7575 
L 63.546563 26.1375 
" style="fill:none;stroke:#cccccc;stroke-linecap:square;stroke-linejoin:miter;stroke-width:1.875;"/>
   </g>
   <g id="patch_4">
    <path d="M 63.546563 299.7575 
L 381.780519 299.7575 
" style="fill:none;stroke:#cccccc;stroke-linecap:square;stroke-linejoin:miter;stroke-width:1.875;"/>
   </g>
   <g id="text_13">
    <!-- bbox_mAP -->
    <g style="fill:#262626;" transform="translate(178.640884 20.1375)scale(0.18 -0.18)">
     <defs>
      <path d="M 14.703125 0 
L 6.546875 0 
L 6.546875 71.578125 
L 15.328125 71.578125 
L 15.328125 46.046875 
Q 20.90625 53.03125 29.546875 53.03125 
Q 34.328125 53.03125 38.59375 51.09375 
Q 42.875 49.171875 45.625 45.671875 
Q 48.390625 42.1875 49.953125 37.25 
Q 51.515625 32.328125 51.515625 26.703125 
Q 51.515625 13.375 44.921875 6.09375 
Q 38.328125 -1.171875 29.109375 -1.171875 
Q 19.921875 -1.171875 14.703125 6.5 
z
M 14.59375 26.3125 
Q 14.59375 17 17.140625 12.84375 
Q 21.296875 6.0625 28.375 6.0625 
Q 34.125 6.0625 38.328125 11.0625 
Q 42.53125 16.0625 42.53125 25.984375 
Q 42.53125 36.140625 38.5 40.96875 
Q 34.46875 45.796875 28.765625 45.796875 
Q 23 45.796875 18.796875 40.796875 
Q 14.59375 35.796875 14.59375 26.3125 
z
" id="ArialMT-98"/>
      <path d="M 0.734375 0 
L 19.671875 26.953125 
L 2.15625 51.859375 
L 13.140625 51.859375 
L 21.09375 39.703125 
Q 23.34375 36.234375 24.703125 33.890625 
Q 26.859375 37.109375 28.65625 39.59375 
L 37.40625 51.859375 
L 47.90625 51.859375 
L 29.984375 27.4375 
L 49.265625 0 
L 38.484375 0 
L 27.828125 16.109375 
L 25 20.453125 
L 11.375 0 
z
" id="ArialMT-120"/>
      <path d="M -1.515625 -19.875 
L -1.515625 -13.53125 
L 56.734375 -13.53125 
L 56.734375 -19.875 
z
" id="ArialMT-95"/>
      <path d="M 6.59375 0 
L 6.59375 51.859375 
L 14.453125 51.859375 
L 14.453125 44.578125 
Q 16.890625 48.390625 20.9375 50.703125 
Q 25 53.03125 30.171875 53.03125 
Q 35.9375 53.03125 39.625 50.640625 
Q 43.3125 48.25 44.828125 43.953125 
Q 50.984375 53.03125 60.84375 53.03125 
Q 68.5625 53.03125 72.703125 48.75 
Q 76.859375 44.484375 76.859375 35.59375 
L 76.859375 0 
L 68.109375 0 
L 68.109375 32.671875 
Q 68.109375 37.9375 67.25 40.25 
Q 66.40625 42.578125 64.15625 43.984375 
Q 61.921875 45.40625 58.890625 45.40625 
Q 53.421875 45.40625 49.796875 41.765625 
Q 46.1875 38.140625 46.1875 30.125 
L 46.1875 0 
L 37.40625 0 
L 37.40625 33.6875 
Q 37.40625 39.546875 35.25 42.46875 
Q 33.109375 45.40625 28.21875 45.40625 
Q 24.515625 45.40625 21.359375 43.453125 
Q 18.21875 41.5 16.796875 37.734375 
Q 15.375 33.984375 15.375 26.90625 
L 15.375 0 
z
" id="ArialMT-109"/>
     </defs>
     <use xlink:href="#ArialMT-98"/>
     <use x="55.615234" xlink:href="#ArialMT-98"/>
     <use x="111.230469" xlink:href="#ArialMT-111"/>
     <use x="166.845703" xlink:href="#ArialMT-120"/>
     <use x="216.845703" xlink:href="#ArialMT-95"/>
     <use x="272.460938" xlink:href="#ArialMT-109"/>
     <use x="355.761719" xlink:href="#ArialMT-65"/>
     <use x="422.460938" xlink:href="#ArialMT-80"/>
    </g>
   </g>
  </g>
  <g id="axes_2">
   <g id="patch_5">
    <path d="M 400.973483 299.7575 
L 719.207439 299.7575 
L 719.207439 26.1375 
L 400.973483 26.1375 
z
" style="fill:#ffffff;"/>
   </g>
   <g id="matplotlib.axis_3">
    <g id="xtick_6">
     <g id="line2d_17">
      <path clip-path="url(#p3fcedf3ad3)" d="M 408.020622 299.7575 
L 408.020622 26.1375 
" style="fill:none;stroke:#cccccc;stroke-linecap:round;stroke-width:1.5;"/>
     </g>
     <g id="text_14">
      <!-- 0 -->
      <g style="fill:#262626;" transform="translate(403.432848 324.067891)scale(0.165 -0.165)">
       <use xlink:href="#ArialMT-48"/>
      </g>
     </g>
    </g>
    <g id="xtick_7">
     <g id="line2d_18">
      <path clip-path="url(#p3fcedf3ad3)" d="M 482.201031 299.7575 
L 482.201031 26.1375 
" style="fill:none;stroke:#cccccc;stroke-linecap:round;stroke-width:1.5;"/>
     </g>
     <g id="text_15">
      <!-- 10 -->
      <g style="fill:#262626;" transform="translate(473.025484 324.067891)scale(0.165 -0.165)">
       <use xlink:href="#ArialMT-49"/>
       <use x="55.615234" xlink:href="#ArialMT-48"/>
      </g>
     </g>
    </g>
    <g id="xtick_8">
     <g id="line2d_19">
      <path clip-path="url(#p3fcedf3ad3)" d="M 556.38144 299.7575 
L 556.38144 26.1375 
" style="fill:none;stroke:#cccccc;stroke-linecap:round;stroke-width:1.5;"/>
     </g>
     <g id="text_16">
      <!-- 20 -->
      <g style="fill:#262626;" transform="translate(547.205893 324.067891)scale(0.165 -0.165)">
       <use xlink:href="#ArialMT-50"/>
       <use x="55.615234" xlink:href="#ArialMT-48"/>
      </g>
     </g>
    </g>
    <g id="xtick_9">
     <g id="line2d_20">
      <path clip-path="url(#p3fcedf3ad3)" d="M 630.56185 299.7575 
L 630.56185 26.1375 
" style="fill:none;stroke:#cccccc;stroke-linecap:round;stroke-width:1.5;"/>
     </g>
     <g id="text_17">
      <!-- 30 -->
      <g style="fill:#262626;" transform="translate(621.386303 324.067891)scale(0.165 -0.165)">
       <use xlink:href="#ArialMT-51"/>
       <use x="55.615234" xlink:href="#ArialMT-48"/>
      </g>
     </g>
    </g>
    <g id="xtick_10">
     <g id="line2d_21">
      <path clip-path="url(#p3fcedf3ad3)" d="M 704.742259 299.7575 
L 704.742259 26.1375 
" style="fill:none;stroke:#cccccc;stroke-linecap:round;stroke-width:1.5;"/>
     </g>
     <g id="text_18">
      <!-- 40 -->
      <g style="fill:#262626;" transform="translate(695.566712 324.067891)scale(0.165 -0.165)">
       <use xlink:href="#ArialMT-52"/>
       <use x="55.615234" xlink:href="#ArialMT-48"/>
      </g>
     </g>
    </g>
    <g id="text_19">
     <!-- epoch -->
     <g style="fill:#262626;" transform="translate(535.571086 344.231328)scale(0.18 -0.18)">
      <use xlink:href="#ArialMT-101"/>
      <use x="55.615234" xlink:href="#ArialMT-112"/>
      <use x="111.230469" xlink:href="#ArialMT-111"/>
      <use x="166.845703" xlink:href="#ArialMT-99"/>
      <use x="216.845703" xlink:href="#ArialMT-104"/>
     </g>
    </g>
   </g>
   <g id="matplotlib.axis_4">
    <g id="ytick_6">
     <g id="line2d_22">
      <path clip-path="url(#p3fcedf3ad3)" d="M 400.973483 299.573698 
L 719.207439 299.573698 
" style="fill:none;stroke:#cccccc;stroke-linecap:round;stroke-width:1.5;"/>
     </g>
    </g>
    <g id="ytick_7">
     <g id="line2d_23">
      <path clip-path="url(#p3fcedf3ad3)" d="M 400.973483 238.306345 
L 719.207439 238.306345 
" style="fill:none;stroke:#cccccc;stroke-linecap:round;stroke-width:1.5;"/>
     </g>
    </g>
    <g id="ytick_8">
     <g id="line2d_24">
      <path clip-path="url(#p3fcedf3ad3)" d="M 400.973483 177.038991 
L 719.207439 177.038991 
" style="fill:none;stroke:#cccccc;stroke-linecap:round;stroke-width:1.5;"/>
     </g>
    </g>
    <g id="ytick_9">
     <g id="line2d_25">
      <path clip-path="url(#p3fcedf3ad3)" d="M 400.973483 115.771638 
L 719.207439 115.771638 
" style="fill:none;stroke:#cccccc;stroke-linecap:round;stroke-width:1.5;"/>
     </g>
    </g>
    <g id="ytick_10">
     <g id="line2d_26">
      <path clip-path="url(#p3fcedf3ad3)" d="M 400.973483 54.504285 
L 719.207439 54.504285 
" style="fill:none;stroke:#cccccc;stroke-linecap:round;stroke-width:1.5;"/>
     </g>
    </g>
   </g>
   <g id="line2d_27">
    <path clip-path="url(#p3fcedf3ad3)" d="M 415.438663 252.397836 
L 422.856703 242.595059 
L 430.274744 235.242977 
L 437.692785 210.736036 
L 445.110826 205.834647 
L 452.528867 208.285341 
L 459.946908 207.059994 
L 467.364949 195.419197 
L 474.78299 186.841768 
L 482.201031 192.968503 
L 489.619072 197.257218 
L 497.037113 192.35583 
L 504.455154 192.35583 
L 511.873195 188.067115 
L 519.291236 194.806524 
L 526.709277 192.35583 
L 534.127317 192.35583 
L 541.545358 192.35583 
L 548.963399 188.679788 
L 556.38144 189.905135 
L 563.799481 188.679788 
L 571.217522 190.517809 
L 578.635563 180.102359 
L 586.053604 177.651665 
L 593.471645 178.877012 
L 600.889686 179.489685 
L 608.307727 175.813644 
L 615.725768 182.553053 
L 623.143809 182.553053 
L 630.56185 176.426318 
L 637.979891 175.200971 
L 645.397932 176.426318 
L 652.815972 177.038991 
L 660.234013 177.651665 
L 667.652054 172.750277 
L 675.070095 182.553053 
L 682.488136 180.102359 
L 689.906177 180.715032 
L 697.324218 181.327706 
L 704.742259 179.489685 
" style="fill:none;stroke:#179c7d;stroke-linecap:round;stroke-width:2.25;"/>
   </g>
   <g id="line2d_28">
    <path clip-path="url(#p3fcedf3ad3)" d="M 415.438663 254.84853 
L 422.856703 246.883774 
L 430.274744 240.144365 
L 437.692785 223.60218 
L 445.110826 216.250097 
L 452.528867 218.088118 
L 459.946908 209.510689 
L 467.364949 206.447321 
" style="fill:none;stroke:#006e92;stroke-linecap:round;stroke-width:2.25;"/>
   </g>
   <g id="line2d_29">
    <path clip-path="url(#p3fcedf3ad3)" d="M 415.438663 250.559815 
L 422.856703 243.207733 
L 430.274744 227.278221 
L 437.692785 216.862771 
L 445.110826 208.898015 
L 452.528867 203.996627 
L 459.946908 197.869891 
L 467.364949 196.644544 
L 474.78299 197.257218 
L 482.201031 197.869891 
L 489.619072 195.419197 
L 497.037113 199.095238 
L 504.455154 198.482565 
L 511.873195 197.257218 
L 519.291236 199.707912 
L 526.709277 192.968503 
L 534.127317 192.35583 
L 541.545358 190.517809 
L 548.963399 192.968503 
L 556.38144 191.743156 
L 563.799481 199.095238 
L 571.217522 197.257218 
L 578.635563 193.581177 
L 586.053604 191.130483 
L 593.471645 191.743156 
L 600.889686 187.454441 
L 608.307727 188.679788 
L 615.725768 186.841768 
L 623.143809 193.581177 
L 630.56185 189.905135 
L 637.979891 188.067115 
L 645.397932 191.130483 
L 652.815972 188.067115 
L 660.234013 187.454441 
L 667.652054 189.905135 
L 675.070095 189.905135 
L 682.488136 188.679788 
L 689.906177 185.616421 
L 697.324218 188.679788 
L 704.742259 193.581177 
" style="fill:none;stroke:#25bae2;stroke-linecap:round;stroke-width:2.25;"/>
   </g>
   <g id="patch_6">
    <path d="M 400.973483 299.7575 
L 400.973483 26.1375 
" style="fill:none;stroke:#cccccc;stroke-linecap:square;stroke-linejoin:miter;stroke-width:1.875;"/>
   </g>
   <g id="patch_7">
    <path d="M 400.973483 299.7575 
L 719.207439 299.7575 
" style="fill:none;stroke:#cccccc;stroke-linecap:square;stroke-linejoin:miter;stroke-width:1.875;"/>
   </g>
   <g id="text_20">
    <!-- bbox_mAP_75 -->
    <g style="fill:#262626;" transform="translate(501.053273 20.1375)scale(0.18 -0.18)">
     <use xlink:href="#ArialMT-98"/>
     <use x="55.615234" xlink:href="#ArialMT-98"/>
     <use x="111.230469" xlink:href="#ArialMT-111"/>
     <use x="166.845703" xlink:href="#ArialMT-120"/>
     <use x="216.845703" xlink:href="#ArialMT-95"/>
     <use x="272.460938" xlink:href="#ArialMT-109"/>
     <use x="355.761719" xlink:href="#ArialMT-65"/>
     <use x="422.460938" xlink:href="#ArialMT-80"/>
     <use x="489.160156" xlink:href="#ArialMT-95"/>
     <use x="544.775391" xlink:href="#ArialMT-55"/>
     <use x="600.390625" xlink:href="#ArialMT-53"/>
    </g>
   </g>
  </g>
  <g id="axes_3">
   <g id="patch_8">
    <path d="M 738.400403 299.7575 
L 1056.634359 299.7575 
L 1056.634359 26.1375 
L 738.400403 26.1375 
z
" style="fill:#ffffff;"/>
   </g>
   <g id="matplotlib.axis_5">
    <g id="xtick_11">
     <g id="line2d_30">
      <path clip-path="url(#p4031acb833)" d="M 745.447542 299.7575 
L 745.447542 26.1375 
" style="fill:none;stroke:#cccccc;stroke-linecap:round;stroke-width:1.5;"/>
     </g>
     <g id="text_21">
      <!-- 0 -->
      <g style="fill:#262626;" transform="translate(740.859768 324.067891)scale(0.165 -0.165)">
       <use xlink:href="#ArialMT-48"/>
      </g>
     </g>
    </g>
    <g id="xtick_12">
     <g id="line2d_31">
      <path clip-path="url(#p4031acb833)" d="M 819.627951 299.7575 
L 819.627951 26.1375 
" style="fill:none;stroke:#cccccc;stroke-linecap:round;stroke-width:1.5;"/>
     </g>
     <g id="text_22">
      <!-- 10 -->
      <g style="fill:#262626;" transform="translate(810.452404 324.067891)scale(0.165 -0.165)">
       <use xlink:href="#ArialMT-49"/>
       <use x="55.615234" xlink:href="#ArialMT-48"/>
      </g>
     </g>
    </g>
    <g id="xtick_13">
     <g id="line2d_32">
      <path clip-path="url(#p4031acb833)" d="M 893.80836 299.7575 
L 893.80836 26.1375 
" style="fill:none;stroke:#cccccc;stroke-linecap:round;stroke-width:1.5;"/>
     </g>
     <g id="text_23">
      <!-- 20 -->
      <g style="fill:#262626;" transform="translate(884.632814 324.067891)scale(0.165 -0.165)">
       <use xlink:href="#ArialMT-50"/>
       <use x="55.615234" xlink:href="#ArialMT-48"/>
      </g>
     </g>
    </g>
    <g id="xtick_14">
     <g id="line2d_33">
      <path clip-path="url(#p4031acb833)" d="M 967.98877 299.7575 
L 967.98877 26.1375 
" style="fill:none;stroke:#cccccc;stroke-linecap:round;stroke-width:1.5;"/>
     </g>
     <g id="text_24">
      <!-- 30 -->
      <g style="fill:#262626;" transform="translate(958.813223 324.067891)scale(0.165 -0.165)">
       <use xlink:href="#ArialMT-51"/>
       <use x="55.615234" xlink:href="#ArialMT-48"/>
      </g>
     </g>
    </g>
    <g id="xtick_15">
     <g id="line2d_34">
      <path clip-path="url(#p4031acb833)" d="M 1042.169179 299.7575 
L 1042.169179 26.1375 
" style="fill:none;stroke:#cccccc;stroke-linecap:round;stroke-width:1.5;"/>
     </g>
     <g id="text_25">
      <!-- 40 -->
      <g style="fill:#262626;" transform="translate(1032.993632 324.067891)scale(0.165 -0.165)">
       <use xlink:href="#ArialMT-52"/>
       <use x="55.615234" xlink:href="#ArialMT-48"/>
      </g>
     </g>
    </g>
    <g id="text_26">
     <!-- epoch -->
     <g style="fill:#262626;" transform="translate(872.998006 344.231328)scale(0.18 -0.18)">
      <use xlink:href="#ArialMT-101"/>
      <use x="55.615234" xlink:href="#ArialMT-112"/>
      <use x="111.230469" xlink:href="#ArialMT-111"/>
      <use x="166.845703" xlink:href="#ArialMT-99"/>
      <use x="216.845703" xlink:href="#ArialMT-104"/>
     </g>
    </g>
   </g>
   <g id="matplotlib.axis_6">
    <g id="ytick_11">
     <g id="line2d_35">
      <path clip-path="url(#p4031acb833)" d="M 738.400403 299.573698 
L 1056.634359 299.573698 
" style="fill:none;stroke:#cccccc;stroke-linecap:round;stroke-width:1.5;"/>
     </g>
    </g>
    <g id="ytick_12">
     <g id="line2d_36">
      <path clip-path="url(#p4031acb833)" d="M 738.400403 238.306345 
L 1056.634359 238.306345 
" style="fill:none;stroke:#cccccc;stroke-linecap:round;stroke-width:1.5;"/>
     </g>
    </g>
    <g id="ytick_13">
     <g id="line2d_37">
      <path clip-path="url(#p4031acb833)" d="M 738.400403 177.038991 
L 1056.634359 177.038991 
" style="fill:none;stroke:#cccccc;stroke-linecap:round;stroke-width:1.5;"/>
     </g>
    </g>
    <g id="ytick_14">
     <g id="line2d_38">
      <path clip-path="url(#p4031acb833)" d="M 738.400403 115.771638 
L 1056.634359 115.771638 
" style="fill:none;stroke:#cccccc;stroke-linecap:round;stroke-width:1.5;"/>
     </g>
    </g>
    <g id="ytick_15">
     <g id="line2d_39">
      <path clip-path="url(#p4031acb833)" d="M 738.400403 54.504285 
L 1056.634359 54.504285 
" style="fill:none;stroke:#cccccc;stroke-linecap:round;stroke-width:1.5;"/>
     </g>
    </g>
   </g>
   <g id="line2d_40">
    <path clip-path="url(#p4031acb833)" d="M 752.865583 91.264697 
L 760.283624 77.173205 
L 767.701665 77.173205 
L 775.119706 58.180326 
L 782.537746 51.440917 
L 789.955787 47.764876 
L 797.373828 42.863487 
L 804.791869 42.250814 
L 812.20991 41.025467 
L 819.627951 44.701508 
L 827.045992 40.412793 
L 834.464033 40.412793 
L 841.882074 43.476161 
L 849.300115 41.025467 
L 856.718156 48.377549 
L 864.136197 43.476161 
L 871.554238 43.476161 
L 878.972279 43.476161 
L 886.39032 47.152202 
L 893.80836 46.539529 
L 901.226401 45.926855 
L 908.644442 45.926855 
L 916.062483 45.926855 
L 923.480524 46.539529 
L 930.898565 46.539529 
L 938.316606 42.250814 
L 945.734647 46.539529 
L 953.152688 46.539529 
L 960.570729 50.828243 
L 967.98877 46.539529 
L 975.406811 46.539529 
L 982.824852 46.539529 
L 990.242893 46.539529 
L 997.660934 46.539529 
L 1005.078975 46.539529 
L 1012.497015 50.828243 
L 1019.915056 50.21557 
L 1027.333097 49.602896 
L 1034.751138 50.828243 
L 1042.169179 50.21557 
" style="fill:none;stroke:#179c7d;stroke-linecap:round;stroke-width:2.25;"/>
   </g>
   <g id="line2d_41">
    <path clip-path="url(#p4031acb833)" d="M 752.865583 90.03935 
L 760.283624 91.87737 
L 767.701665 99.229453 
L 775.119706 76.560532 
L 782.537746 79.623899 
L 789.955787 70.433796 
L 797.373828 61.243693 
L 804.791869 48.990223 
" style="fill:none;stroke:#006e92;stroke-linecap:round;stroke-width:2.25;"/>
   </g>
   <g id="line2d_42">
    <path clip-path="url(#p4031acb833)" d="M 752.865583 88.201329 
L 760.283624 70.433796 
L 767.701665 65.532408 
L 775.119706 53.891611 
L 782.537746 48.377549 
L 789.955787 47.152202 
L 797.373828 42.863487 
L 804.791869 44.701508 
L 812.20991 41.025467 
L 819.627951 40.412793 
L 827.045992 39.80012 
L 834.464033 39.80012 
L 841.882074 38.574773 
L 849.300115 41.025467 
L 856.718156 41.63814 
L 864.136197 42.250814 
L 871.554238 41.63814 
L 878.972279 41.025467 
L 886.39032 41.025467 
L 893.80836 44.088835 
L 901.226401 44.088835 
L 908.644442 43.476161 
L 916.062483 43.476161 
L 923.480524 43.476161 
L 930.898565 44.701508 
L 938.316606 43.476161 
L 945.734647 42.863487 
L 953.152688 42.863487 
L 960.570729 44.088835 
L 967.98877 43.476161 
L 975.406811 43.476161 
L 982.824852 43.476161 
L 990.242893 43.476161 
L 997.660934 43.476161 
L 1005.078975 46.539529 
L 1012.497015 43.476161 
L 1019.915056 43.476161 
L 1027.333097 43.476161 
L 1034.751138 43.476161 
L 1042.169179 43.476161 
" style="fill:none;stroke:#25bae2;stroke-linecap:round;stroke-width:2.25;"/>
   </g>
   <g id="patch_9">
    <path d="M 738.400403 299.7575 
L 738.400403 26.1375 
" style="fill:none;stroke:#cccccc;stroke-linecap:square;stroke-linejoin:miter;stroke-width:1.875;"/>
   </g>
   <g id="patch_10">
    <path d="M 738.400403 299.7575 
L 1056.634359 299.7575 
" style="fill:none;stroke:#cccccc;stroke-linecap:square;stroke-linejoin:miter;stroke-width:1.875;"/>
   </g>
   <g id="text_27">
    <!-- bbox_mAP_50 -->
    <g style="fill:#262626;" transform="translate(838.480193 20.1375)scale(0.18 -0.18)">
     <use xlink:href="#ArialMT-98"/>
     <use x="55.615234" xlink:href="#ArialMT-98"/>
     <use x="111.230469" xlink:href="#ArialMT-111"/>
     <use x="166.845703" xlink:href="#ArialMT-120"/>
     <use x="216.845703" xlink:href="#ArialMT-95"/>
     <use x="272.460938" xlink:href="#ArialMT-109"/>
     <use x="355.761719" xlink:href="#ArialMT-65"/>
     <use x="422.460938" xlink:href="#ArialMT-80"/>
     <use x="489.160156" xlink:href="#ArialMT-95"/>
     <use x="544.775391" xlink:href="#ArialMT-53"/>
     <use x="600.390625" xlink:href="#ArialMT-48"/>
    </g>
   </g>
  </g>
  <g id="legend_1">
   <g id="text_28">
    <!-- setting -->
    <g style="fill:#262626;" transform="translate(1211.690351 146.440586)scale(0.18 -0.18)">
     <defs>
      <path d="M 3.078125 15.484375 
L 11.765625 16.84375 
Q 12.5 11.625 15.84375 8.84375 
Q 19.1875 6.0625 25.203125 6.0625 
Q 31.25 6.0625 34.171875 8.515625 
Q 37.109375 10.984375 37.109375 14.3125 
Q 37.109375 17.28125 34.515625 19 
Q 32.71875 20.171875 25.53125 21.96875 
Q 15.875 24.421875 12.140625 26.203125 
Q 8.40625 27.984375 6.46875 31.125 
Q 4.546875 34.28125 4.546875 38.09375 
Q 4.546875 41.546875 6.125 44.5 
Q 7.71875 47.46875 10.453125 49.421875 
Q 12.5 50.921875 16.03125 51.96875 
Q 19.578125 53.03125 23.640625 53.03125 
Q 29.734375 53.03125 34.34375 51.265625 
Q 38.96875 49.515625 41.15625 46.5 
Q 43.359375 43.5 44.1875 38.484375 
L 35.59375 37.3125 
Q 35.015625 41.3125 32.203125 43.546875 
Q 29.390625 45.796875 24.265625 45.796875 
Q 18.21875 45.796875 15.625 43.796875 
Q 13.03125 41.796875 13.03125 39.109375 
Q 13.03125 37.40625 14.109375 36.03125 
Q 15.1875 34.625 17.484375 33.6875 
Q 18.796875 33.203125 25.25 31.453125 
Q 34.578125 28.953125 38.25 27.359375 
Q 41.9375 25.78125 44.03125 22.75 
Q 46.140625 19.734375 46.140625 15.234375 
Q 46.140625 10.84375 43.578125 6.953125 
Q 41.015625 3.078125 36.171875 0.953125 
Q 31.34375 -1.171875 25.25 -1.171875 
Q 15.140625 -1.171875 9.84375 3.03125 
Q 4.546875 7.234375 3.078125 15.484375 
z
" id="ArialMT-115"/>
      <path d="M 25.78125 7.859375 
L 27.046875 0.09375 
Q 23.34375 -0.6875 20.40625 -0.6875 
Q 15.625 -0.6875 12.984375 0.828125 
Q 10.359375 2.34375 9.28125 4.8125 
Q 8.203125 7.28125 8.203125 15.1875 
L 8.203125 45.015625 
L 1.765625 45.015625 
L 1.765625 51.859375 
L 8.203125 51.859375 
L 8.203125 64.703125 
L 16.9375 69.96875 
L 16.9375 51.859375 
L 25.78125 51.859375 
L 25.78125 45.015625 
L 16.9375 45.015625 
L 16.9375 14.703125 
Q 16.9375 10.9375 17.40625 9.859375 
Q 17.875 8.796875 18.921875 8.15625 
Q 19.96875 7.515625 21.921875 7.515625 
Q 23.390625 7.515625 25.78125 7.859375 
z
" id="ArialMT-116"/>
      <path d="M 6.640625 61.46875 
L 6.640625 71.578125 
L 15.4375 71.578125 
L 15.4375 61.46875 
z
M 6.640625 0 
L 6.640625 51.859375 
L 15.4375 51.859375 
L 15.4375 0 
z
" id="ArialMT-105"/>
      <path d="M 6.59375 0 
L 6.59375 51.859375 
L 14.5 51.859375 
L 14.5 44.484375 
Q 20.21875 53.03125 31 53.03125 
Q 35.6875 53.03125 39.625 51.34375 
Q 43.5625 49.65625 45.515625 46.921875 
Q 47.46875 44.1875 48.25 40.4375 
Q 48.734375 37.984375 48.734375 31.890625 
L 48.734375 0 
L 39.9375 0 
L 39.9375 31.546875 
Q 39.9375 36.921875 38.90625 39.578125 
Q 37.890625 42.234375 35.28125 43.8125 
Q 32.671875 45.40625 29.15625 45.40625 
Q 23.53125 45.40625 19.453125 41.84375 
Q 15.375 38.28125 15.375 28.328125 
L 15.375 0 
z
" id="ArialMT-110"/>
      <path d="M 4.984375 -4.296875 
L 13.53125 -5.5625 
Q 14.0625 -9.515625 16.5 -11.328125 
Q 19.78125 -13.765625 25.4375 -13.765625 
Q 31.546875 -13.765625 34.859375 -11.328125 
Q 38.1875 -8.890625 39.359375 -4.5 
Q 40.046875 -1.8125 39.984375 6.78125 
Q 34.234375 0 25.640625 0 
Q 14.9375 0 9.078125 7.71875 
Q 3.21875 15.4375 3.21875 26.21875 
Q 3.21875 33.640625 5.90625 39.90625 
Q 8.59375 46.1875 13.6875 49.609375 
Q 18.796875 53.03125 25.6875 53.03125 
Q 34.859375 53.03125 40.828125 45.609375 
L 40.828125 51.859375 
L 48.921875 51.859375 
L 48.921875 7.03125 
Q 48.921875 -5.078125 46.453125 -10.125 
Q 44 -15.1875 38.640625 -18.109375 
Q 33.296875 -21.046875 25.484375 -21.046875 
Q 16.21875 -21.046875 10.5 -16.875 
Q 4.78125 -12.703125 4.984375 -4.296875 
z
M 12.25 26.859375 
Q 12.25 16.65625 16.296875 11.96875 
Q 20.359375 7.28125 26.46875 7.28125 
Q 32.515625 7.28125 36.609375 11.9375 
Q 40.71875 16.609375 40.71875 26.5625 
Q 40.71875 36.078125 36.5 40.90625 
Q 32.28125 45.75 26.3125 45.75 
Q 20.453125 45.75 16.34375 40.984375 
Q 12.25 36.234375 12.25 26.859375 
z
" id="ArialMT-103"/>
     </defs>
     <use xlink:href="#ArialMT-115"/>
     <use x="50" xlink:href="#ArialMT-101"/>
     <use x="105.615234" xlink:href="#ArialMT-116"/>
     <use x="133.398438" xlink:href="#ArialMT-116"/>
     <use x="161.181641" xlink:href="#ArialMT-105"/>
     <use x="183.398438" xlink:href="#ArialMT-110"/>
     <use x="239.013672" xlink:href="#ArialMT-103"/>
    </g>
   </g>
   <g id="line2d_43">
    <path d="M 1068.068281 164.715508 
L 1101.068281 164.715508 
" style="fill:none;stroke:#179c7d;stroke-linecap:round;stroke-width:2.25;"/>
   </g>
   <g id="line2d_44"/>
   <g id="text_29">
    <!-- fine-tune (no rotation) -->
    <g style="fill:#262626;" transform="translate(1114.268281 170.490508)scale(0.165 -0.165)">
     <defs>
      <path d="M 8.6875 0 
L 8.6875 45.015625 
L 0.921875 45.015625 
L 0.921875 51.859375 
L 8.6875 51.859375 
L 8.6875 57.375 
Q 8.6875 62.59375 9.625 65.140625 
Q 10.890625 68.5625 14.078125 70.671875 
Q 17.28125 72.796875 23.046875 72.796875 
Q 26.765625 72.796875 31.25 71.921875 
L 29.9375 64.265625 
Q 27.203125 64.75 24.75 64.75 
Q 20.75 64.75 19.09375 63.03125 
Q 17.4375 61.328125 17.4375 56.640625 
L 17.4375 51.859375 
L 27.546875 51.859375 
L 27.546875 45.015625 
L 17.4375 45.015625 
L 17.4375 0 
z
" id="ArialMT-102"/>
      <path d="M 3.171875 21.484375 
L 3.171875 30.328125 
L 30.171875 30.328125 
L 30.171875 21.484375 
z
" id="ArialMT-45"/>
      <path d="M 40.578125 0 
L 40.578125 7.625 
Q 34.515625 -1.171875 24.125 -1.171875 
Q 19.53125 -1.171875 15.546875 0.578125 
Q 11.578125 2.34375 9.640625 5 
Q 7.71875 7.671875 6.9375 11.53125 
Q 6.390625 14.109375 6.390625 19.734375 
L 6.390625 51.859375 
L 15.1875 51.859375 
L 15.1875 23.09375 
Q 15.1875 16.21875 15.71875 13.8125 
Q 16.546875 10.359375 19.234375 8.375 
Q 21.921875 6.390625 25.875 6.390625 
Q 29.828125 6.390625 33.296875 8.421875 
Q 36.765625 10.453125 38.203125 13.9375 
Q 39.65625 17.4375 39.65625 24.078125 
L 39.65625 51.859375 
L 48.4375 51.859375 
L 48.4375 0 
z
" id="ArialMT-117"/>
      <path id="ArialMT-32"/>
      <path d="M 23.390625 -21.046875 
Q 16.109375 -11.859375 11.078125 0.4375 
Q 6.0625 12.75 6.0625 25.921875 
Q 6.0625 37.546875 9.8125 48.1875 
Q 14.203125 60.546875 23.390625 72.796875 
L 29.6875 72.796875 
Q 23.78125 62.640625 21.875 58.296875 
Q 18.890625 51.5625 17.1875 44.234375 
Q 15.09375 35.109375 15.09375 25.875 
Q 15.09375 2.390625 29.6875 -21.046875 
z
" id="ArialMT-40"/>
      <path d="M 6.5 0 
L 6.5 51.859375 
L 14.40625 51.859375 
L 14.40625 44 
Q 17.4375 49.515625 20 51.265625 
Q 22.5625 53.03125 25.640625 53.03125 
Q 30.078125 53.03125 34.671875 50.203125 
L 31.640625 42.046875 
Q 28.421875 43.953125 25.203125 43.953125 
Q 22.3125 43.953125 20.015625 42.21875 
Q 17.71875 40.484375 16.75 37.40625 
Q 15.28125 32.71875 15.28125 27.15625 
L 15.28125 0 
z
" id="ArialMT-114"/>
      <path d="M 40.4375 6.390625 
Q 35.546875 2.25 31.03125 0.53125 
Q 26.515625 -1.171875 21.34375 -1.171875 
Q 12.796875 -1.171875 8.203125 3 
Q 3.609375 7.171875 3.609375 13.671875 
Q 3.609375 17.484375 5.34375 20.625 
Q 7.078125 23.78125 9.890625 25.6875 
Q 12.703125 27.59375 16.21875 28.5625 
Q 18.796875 29.25 24.03125 29.890625 
Q 34.671875 31.15625 39.703125 32.90625 
Q 39.75 34.71875 39.75 35.203125 
Q 39.75 40.578125 37.25 42.78125 
Q 33.890625 45.75 27.25 45.75 
Q 21.046875 45.75 18.09375 43.578125 
Q 15.140625 41.40625 13.71875 35.890625 
L 5.125 37.0625 
Q 6.296875 42.578125 8.984375 45.96875 
Q 11.671875 49.359375 16.75 51.1875 
Q 21.828125 53.03125 28.515625 53.03125 
Q 35.15625 53.03125 39.296875 51.46875 
Q 43.453125 49.90625 45.40625 47.53125 
Q 47.359375 45.171875 48.140625 41.546875 
Q 48.578125 39.3125 48.578125 33.453125 
L 48.578125 21.734375 
Q 48.578125 9.46875 49.140625 6.21875 
Q 49.703125 2.984375 51.375 0 
L 42.1875 0 
Q 40.828125 2.734375 40.4375 6.390625 
z
M 39.703125 26.03125 
Q 34.90625 24.078125 25.34375 22.703125 
Q 19.921875 21.921875 17.671875 20.9375 
Q 15.4375 19.96875 14.203125 18.09375 
Q 12.984375 16.21875 12.984375 13.921875 
Q 12.984375 10.40625 15.640625 8.0625 
Q 18.3125 5.71875 23.4375 5.71875 
Q 28.515625 5.71875 32.46875 7.9375 
Q 36.421875 10.15625 38.28125 14.015625 
Q 39.703125 17 39.703125 22.796875 
z
" id="ArialMT-97"/>
      <path d="M 12.359375 -21.046875 
L 6.0625 -21.046875 
Q 20.65625 2.390625 20.65625 25.875 
Q 20.65625 35.0625 18.5625 44.09375 
Q 16.890625 51.421875 13.921875 58.15625 
Q 12.015625 62.546875 6.0625 72.796875 
L 12.359375 72.796875 
Q 21.53125 60.546875 25.921875 48.1875 
Q 29.6875 37.546875 29.6875 25.921875 
Q 29.6875 12.75 24.625 0.4375 
Q 19.578125 -11.859375 12.359375 -21.046875 
z
" id="ArialMT-41"/>
     </defs>
     <use xlink:href="#ArialMT-102"/>
     <use x="27.783203" xlink:href="#ArialMT-105"/>
     <use x="50" xlink:href="#ArialMT-110"/>
     <use x="105.615234" xlink:href="#ArialMT-101"/>
     <use x="161.230469" xlink:href="#ArialMT-45"/>
     <use x="194.53125" xlink:href="#ArialMT-116"/>
     <use x="222.314453" xlink:href="#ArialMT-117"/>
     <use x="277.929688" xlink:href="#ArialMT-110"/>
     <use x="333.544922" xlink:href="#ArialMT-101"/>
     <use x="389.160156" xlink:href="#ArialMT-32"/>
     <use x="416.943359" xlink:href="#ArialMT-40"/>
     <use x="450.244141" xlink:href="#ArialMT-110"/>
     <use x="505.859375" xlink:href="#ArialMT-111"/>
     <use x="561.474609" xlink:href="#ArialMT-32"/>
     <use x="589.257812" xlink:href="#ArialMT-114"/>
     <use x="622.558594" xlink:href="#ArialMT-111"/>
     <use x="678.173828" xlink:href="#ArialMT-116"/>
     <use x="705.957031" xlink:href="#ArialMT-97"/>
     <use x="761.572266" xlink:href="#ArialMT-116"/>
     <use x="789.355469" xlink:href="#ArialMT-105"/>
     <use x="811.572266" xlink:href="#ArialMT-111"/>
     <use x="867.1875" xlink:href="#ArialMT-110"/>
     <use x="922.802734" xlink:href="#ArialMT-41"/>
    </g>
   </g>
   <g id="line2d_45">
    <path d="M 1068.068281 188.460039 
L 1101.068281 188.460039 
" style="fill:none;stroke:#006e92;stroke-linecap:round;stroke-width:2.25;"/>
   </g>
   <g id="line2d_46"/>
   <g id="text_30">
    <!-- ROI 1:1 | RCNN 1:1 (no rotation) -->
    <g style="fill:#262626;" transform="translate(1114.268281 194.235039)scale(0.165 -0.165)">
     <defs>
      <path d="M 7.859375 0 
L 7.859375 71.578125 
L 39.59375 71.578125 
Q 49.171875 71.578125 54.140625 69.640625 
Q 59.125 67.71875 62.109375 62.828125 
Q 65.09375 57.953125 65.09375 52.046875 
Q 65.09375 44.4375 60.15625 39.203125 
Q 55.21875 33.984375 44.921875 32.5625 
Q 48.6875 30.765625 50.640625 29 
Q 54.78125 25.203125 58.5 19.484375 
L 70.953125 0 
L 59.03125 0 
L 49.5625 14.890625 
Q 45.40625 21.34375 42.71875 24.75 
Q 40.046875 28.171875 37.921875 29.53125 
Q 35.796875 30.90625 33.59375 31.453125 
Q 31.984375 31.78125 28.328125 31.78125 
L 17.328125 31.78125 
L 17.328125 0 
z
M 17.328125 39.984375 
L 37.703125 39.984375 
Q 44.1875 39.984375 47.84375 41.328125 
Q 51.515625 42.671875 53.421875 45.625 
Q 55.328125 48.578125 55.328125 52.046875 
Q 55.328125 57.125 51.640625 60.390625 
Q 47.953125 63.671875 39.984375 63.671875 
L 17.328125 63.671875 
z
" id="ArialMT-82"/>
      <path d="M 4.828125 34.859375 
Q 4.828125 52.6875 14.390625 62.765625 
Q 23.96875 72.859375 39.109375 72.859375 
Q 49.03125 72.859375 56.984375 68.109375 
Q 64.9375 63.375 69.109375 54.90625 
Q 73.296875 46.4375 73.296875 35.6875 
Q 73.296875 24.8125 68.890625 16.21875 
Q 64.5 7.625 56.4375 3.203125 
Q 48.390625 -1.21875 39.0625 -1.21875 
Q 28.953125 -1.21875 20.984375 3.65625 
Q 13.03125 8.546875 8.921875 16.984375 
Q 4.828125 25.4375 4.828125 34.859375 
z
M 14.59375 34.71875 
Q 14.59375 21.78125 21.546875 14.328125 
Q 28.515625 6.890625 39.015625 6.890625 
Q 49.703125 6.890625 56.609375 14.40625 
Q 63.53125 21.921875 63.53125 35.75 
Q 63.53125 44.484375 60.578125 51 
Q 57.625 57.515625 51.921875 61.109375 
Q 46.234375 64.703125 39.15625 64.703125 
Q 29.109375 64.703125 21.84375 57.78125 
Q 14.59375 50.875 14.59375 34.71875 
z
" id="ArialMT-79"/>
      <path d="M 9.328125 0 
L 9.328125 71.578125 
L 18.796875 71.578125 
L 18.796875 0 
z
" id="ArialMT-73"/>
      <path d="M 9.03125 41.84375 
L 9.03125 51.859375 
L 19.046875 51.859375 
L 19.046875 41.84375 
z
M 9.03125 0 
L 9.03125 10.015625 
L 19.046875 10.015625 
L 19.046875 0 
z
" id="ArialMT-58"/>
      <path d="M 9.1875 -21.046875 
L 9.1875 72.796875 
L 16.84375 72.796875 
L 16.84375 -21.046875 
z
" id="ArialMT-124"/>
      <path d="M 58.796875 25.09375 
L 68.265625 22.703125 
Q 65.28125 11.03125 57.546875 4.90625 
Q 49.8125 -1.21875 38.625 -1.21875 
Q 27.046875 -1.21875 19.796875 3.484375 
Q 12.546875 8.203125 8.765625 17.140625 
Q 4.984375 26.078125 4.984375 36.328125 
Q 4.984375 47.515625 9.25 55.828125 
Q 13.53125 64.15625 21.40625 68.46875 
Q 29.296875 72.796875 38.765625 72.796875 
Q 49.515625 72.796875 56.828125 67.328125 
Q 64.15625 61.859375 67.046875 51.953125 
L 57.71875 49.75 
Q 55.21875 57.5625 50.484375 61.125 
Q 45.75 64.703125 38.578125 64.703125 
Q 30.328125 64.703125 24.78125 60.734375 
Q 19.234375 56.78125 16.984375 50.109375 
Q 14.75 43.453125 14.75 36.375 
Q 14.75 27.25 17.40625 20.4375 
Q 20.0625 13.625 25.671875 10.25 
Q 31.296875 6.890625 37.84375 6.890625 
Q 45.796875 6.890625 51.3125 11.46875 
Q 56.84375 16.0625 58.796875 25.09375 
z
" id="ArialMT-67"/>
      <path d="M 7.625 0 
L 7.625 71.578125 
L 17.328125 71.578125 
L 54.9375 15.375 
L 54.9375 71.578125 
L 64.015625 71.578125 
L 64.015625 0 
L 54.296875 0 
L 16.703125 56.25 
L 16.703125 0 
z
" id="ArialMT-78"/>
     </defs>
     <use xlink:href="#ArialMT-82"/>
     <use x="72.216797" xlink:href="#ArialMT-79"/>
     <use x="150" xlink:href="#ArialMT-73"/>
     <use x="177.783203" xlink:href="#ArialMT-32"/>
     <use x="205.566406" xlink:href="#ArialMT-49"/>
     <use x="261.181641" xlink:href="#ArialMT-58"/>
     <use x="288.964844" xlink:href="#ArialMT-49"/>
     <use x="344.580078" xlink:href="#ArialMT-32"/>
     <use x="372.363281" xlink:href="#ArialMT-124"/>
     <use x="398.339844" xlink:href="#ArialMT-32"/>
     <use x="426.123047" xlink:href="#ArialMT-82"/>
     <use x="498.339844" xlink:href="#ArialMT-67"/>
     <use x="570.556641" xlink:href="#ArialMT-78"/>
     <use x="642.773438" xlink:href="#ArialMT-78"/>
     <use x="714.990234" xlink:href="#ArialMT-32"/>
     <use x="742.773438" xlink:href="#ArialMT-49"/>
     <use x="798.388672" xlink:href="#ArialMT-58"/>
     <use x="826.171875" xlink:href="#ArialMT-49"/>
     <use x="881.787109" xlink:href="#ArialMT-32"/>
     <use x="909.570312" xlink:href="#ArialMT-40"/>
     <use x="942.871094" xlink:href="#ArialMT-110"/>
     <use x="998.486328" xlink:href="#ArialMT-111"/>
     <use x="1054.101562" xlink:href="#ArialMT-32"/>
     <use x="1081.884766" xlink:href="#ArialMT-114"/>
     <use x="1115.185547" xlink:href="#ArialMT-111"/>
     <use x="1170.800781" xlink:href="#ArialMT-116"/>
     <use x="1198.583984" xlink:href="#ArialMT-97"/>
     <use x="1254.199219" xlink:href="#ArialMT-116"/>
     <use x="1281.982422" xlink:href="#ArialMT-105"/>
     <use x="1304.199219" xlink:href="#ArialMT-111"/>
     <use x="1359.814453" xlink:href="#ArialMT-110"/>
     <use x="1415.429688" xlink:href="#ArialMT-41"/>
    </g>
   </g>
   <g id="line2d_47">
    <path d="M 1068.068281 212.20457 
L 1101.068281 212.20457 
" style="fill:none;stroke:#25bae2;stroke-linecap:round;stroke-width:2.25;"/>
   </g>
   <g id="line2d_48"/>
   <g id="text_31">
    <!-- ROI 10:0.1 | RCNN 100:0.1 (no rotation) -->
    <g style="fill:#262626;" transform="translate(1114.268281 217.97957)scale(0.165 -0.165)">
     <use xlink:href="#ArialMT-82"/>
     <use x="72.216797" xlink:href="#ArialMT-79"/>
     <use x="150" xlink:href="#ArialMT-73"/>
     <use x="177.783203" xlink:href="#ArialMT-32"/>
     <use x="205.566406" xlink:href="#ArialMT-49"/>
     <use x="261.181641" xlink:href="#ArialMT-48"/>
     <use x="316.796875" xlink:href="#ArialMT-58"/>
     <use x="344.580078" xlink:href="#ArialMT-48"/>
     <use x="400.195312" xlink:href="#ArialMT-46"/>
     <use x="427.978516" xlink:href="#ArialMT-49"/>
     <use x="483.59375" xlink:href="#ArialMT-32"/>
     <use x="511.376953" xlink:href="#ArialMT-124"/>
     <use x="537.353516" xlink:href="#ArialMT-32"/>
     <use x="565.136719" xlink:href="#ArialMT-82"/>
     <use x="637.353516" xlink:href="#ArialMT-67"/>
     <use x="709.570312" xlink:href="#ArialMT-78"/>
     <use x="781.787109" xlink:href="#ArialMT-78"/>
     <use x="854.003906" xlink:href="#ArialMT-32"/>
     <use x="881.787109" xlink:href="#ArialMT-49"/>
     <use x="937.402344" xlink:href="#ArialMT-48"/>
     <use x="993.017578" xlink:href="#ArialMT-48"/>
     <use x="1048.632812" xlink:href="#ArialMT-58"/>
     <use x="1076.416016" xlink:href="#ArialMT-48"/>
     <use x="1132.03125" xlink:href="#ArialMT-46"/>
     <use x="1159.814453" xlink:href="#ArialMT-49"/>
     <use x="1215.429688" xlink:href="#ArialMT-32"/>
     <use x="1243.212891" xlink:href="#ArialMT-40"/>
     <use x="1276.513672" xlink:href="#ArialMT-110"/>
     <use x="1332.128906" xlink:href="#ArialMT-111"/>
     <use x="1387.744141" xlink:href="#ArialMT-32"/>
     <use x="1415.527344" xlink:href="#ArialMT-114"/>
     <use x="1448.828125" xlink:href="#ArialMT-111"/>
     <use x="1504.443359" xlink:href="#ArialMT-116"/>
     <use x="1532.226562" xlink:href="#ArialMT-97"/>
     <use x="1587.841797" xlink:href="#ArialMT-116"/>
     <use x="1615.625" xlink:href="#ArialMT-105"/>
     <use x="1637.841797" xlink:href="#ArialMT-111"/>
     <use x="1693.457031" xlink:href="#ArialMT-110"/>
     <use x="1749.072266" xlink:href="#ArialMT-41"/>
    </g>
   </g>
  </g>
 </g>
 <defs>
  <clipPath id="p93eb85429d">
   <rect height="273.62" width="318.233956" x="63.546563" y="26.1375"/>
  </clipPath>
  <clipPath id="p3fcedf3ad3">
   <rect height="273.62" width="318.233956" x="400.973483" y="26.1375"/>
  </clipPath>
  <clipPath id="p4031acb833">
   <rect height="273.62" width="318.233956" x="738.400403" y="26.1375"/>
  </clipPath>
 </defs>
</svg>
