<?xml version="1.0" encoding="utf-8" standalone="no"?>
<!DOCTYPE svg PUBLIC "-//W3C//DTD SVG 1.1//EN"
  "http://www.w3.org/Graphics/SVG/1.1/DTD/svg11.dtd">
<!-- Created with matplotlib (https://matplotlib.org/) -->
<svg height="354.955391pt" version="1.1" viewBox="0 0 790.422526 354.955391" width="790.422526pt" xmlns="http://www.w3.org/2000/svg" xmlns:xlink="http://www.w3.org/1999/xlink">
 <metadata>
  <rdf:RDF xmlns:cc="http://creativecommons.org/ns#" xmlns:dc="http://purl.org/dc/elements/1.1/" xmlns:rdf="http://www.w3.org/1999/02/22-rdf-syntax-ns#">
   <cc:Work>
    <dc:type rdf:resource="http://purl.org/dc/dcmitype/StillImage"/>
    <dc:date>2021-08-09T17:09:11.620768</dc:date>
    <dc:format>image/svg+xml</dc:format>
    <dc:creator>
     <cc:Agent>
      <dc:title>Matplotlib v3.3.4, https://matplotlib.org/</dc:title>
     </cc:Agent>
    </dc:creator>
   </cc:Work>
  </rdf:RDF>
 </metadata>
 <defs>
  <style type="text/css">*{stroke-linecap:butt;stroke-linejoin:round;}</style>
 </defs>
 <g id="figure_1">
  <g id="patch_1">
   <path d="M 0 354.955391 
L 790.422526 354.955391 
L 790.422526 0 
L 0 0 
z
" style="fill:#ffffff;"/>
  </g>
  <g id="axes_1">
   <g id="patch_2">
    <path d="M 72.722109 299.704062 
L 384.025584 299.704062 
L 384.025584 26.084062 
L 72.722109 26.084062 
z
" style="fill:#ffffff;"/>
   </g>
   <g id="matplotlib.axis_1">
    <g id="xtick_1">
     <g id="line2d_1">
      <path clip-path="url(#pda47692f7f)" d="M 83.289949 299.704062 
L 83.289949 26.084062 
" style="fill:none;stroke:#cccccc;stroke-linecap:round;stroke-width:1.5;"/>
     </g>
     <g id="text_1">
      <!-- 0 -->
      <g style="fill:#262626;" transform="translate(78.702175 324.014453)scale(0.165 -0.165)">
       <defs>
        <path d="M 4.15625 35.296875 
Q 4.15625 48 6.765625 55.734375 
Q 9.375 63.484375 14.515625 67.671875 
Q 19.671875 71.875 27.484375 71.875 
Q 33.25 71.875 37.59375 69.546875 
Q 41.9375 67.234375 44.765625 62.859375 
Q 47.609375 58.5 49.21875 52.21875 
Q 50.828125 45.953125 50.828125 35.296875 
Q 50.828125 22.703125 48.234375 14.96875 
Q 45.65625 7.234375 40.5 3 
Q 35.359375 -1.21875 27.484375 -1.21875 
Q 17.140625 -1.21875 11.234375 6.203125 
Q 4.15625 15.140625 4.15625 35.296875 
z
M 13.1875 35.296875 
Q 13.1875 17.671875 17.3125 11.828125 
Q 21.4375 6 27.484375 6 
Q 33.546875 6 37.671875 11.859375 
Q 41.796875 17.71875 41.796875 35.296875 
Q 41.796875 52.984375 37.671875 58.78125 
Q 33.546875 64.59375 27.390625 64.59375 
Q 21.34375 64.59375 17.71875 59.46875 
Q 13.1875 52.9375 13.1875 35.296875 
z
" id="ArialMT-48"/>
       </defs>
       <use xlink:href="#ArialMT-48"/>
      </g>
     </g>
    </g>
    <g id="xtick_2">
     <g id="line2d_2">
      <path clip-path="url(#pda47692f7f)" d="M 154.936318 299.704062 
L 154.936318 26.084062 
" style="fill:none;stroke:#cccccc;stroke-linecap:round;stroke-width:1.5;"/>
     </g>
     <g id="text_2">
      <!-- 20 -->
      <g style="fill:#262626;" transform="translate(145.760771 324.014453)scale(0.165 -0.165)">
       <defs>
        <path d="M 50.34375 8.453125 
L 50.34375 0 
L 3.03125 0 
Q 2.9375 3.171875 4.046875 6.109375 
Q 5.859375 10.9375 9.828125 15.625 
Q 13.8125 20.3125 21.34375 26.46875 
Q 33.015625 36.03125 37.109375 41.625 
Q 41.21875 47.21875 41.21875 52.203125 
Q 41.21875 57.421875 37.46875 61 
Q 33.734375 64.59375 27.734375 64.59375 
Q 21.390625 64.59375 17.578125 60.78125 
Q 13.765625 56.984375 13.71875 50.25 
L 4.6875 51.171875 
Q 5.609375 61.28125 11.65625 66.578125 
Q 17.71875 71.875 27.9375 71.875 
Q 38.234375 71.875 44.234375 66.15625 
Q 50.25 60.453125 50.25 52 
Q 50.25 47.703125 48.484375 43.546875 
Q 46.734375 39.40625 42.65625 34.8125 
Q 38.578125 30.21875 29.109375 22.21875 
Q 21.1875 15.578125 18.9375 13.203125 
Q 16.703125 10.84375 15.234375 8.453125 
z
" id="ArialMT-50"/>
       </defs>
       <use xlink:href="#ArialMT-50"/>
       <use x="55.615234" xlink:href="#ArialMT-48"/>
      </g>
     </g>
    </g>
    <g id="xtick_3">
     <g id="line2d_3">
      <path clip-path="url(#pda47692f7f)" d="M 226.582688 299.704062 
L 226.582688 26.084062 
" style="fill:none;stroke:#cccccc;stroke-linecap:round;stroke-width:1.5;"/>
     </g>
     <g id="text_3">
      <!-- 40 -->
      <g style="fill:#262626;" transform="translate(217.407141 324.014453)scale(0.165 -0.165)">
       <defs>
        <path d="M 32.328125 0 
L 32.328125 17.140625 
L 1.265625 17.140625 
L 1.265625 25.203125 
L 33.9375 71.578125 
L 41.109375 71.578125 
L 41.109375 25.203125 
L 50.78125 25.203125 
L 50.78125 17.140625 
L 41.109375 17.140625 
L 41.109375 0 
z
M 32.328125 25.203125 
L 32.328125 57.46875 
L 9.90625 25.203125 
z
" id="ArialMT-52"/>
       </defs>
       <use xlink:href="#ArialMT-52"/>
       <use x="55.615234" xlink:href="#ArialMT-48"/>
      </g>
     </g>
    </g>
    <g id="xtick_4">
     <g id="line2d_4">
      <path clip-path="url(#pda47692f7f)" d="M 298.229057 299.704062 
L 298.229057 26.084062 
" style="fill:none;stroke:#cccccc;stroke-linecap:round;stroke-width:1.5;"/>
     </g>
     <g id="text_4">
      <!-- 60 -->
      <g style="fill:#262626;" transform="translate(289.05351 324.014453)scale(0.165 -0.165)">
       <defs>
        <path d="M 49.75 54.046875 
L 41.015625 53.375 
Q 39.84375 58.546875 37.703125 60.890625 
Q 34.125 64.65625 28.90625 64.65625 
Q 24.703125 64.65625 21.53125 62.3125 
Q 17.390625 59.28125 14.984375 53.46875 
Q 12.59375 47.65625 12.5 36.921875 
Q 15.671875 41.75 20.265625 44.09375 
Q 24.859375 46.4375 29.890625 46.4375 
Q 38.671875 46.4375 44.84375 39.96875 
Q 51.03125 33.5 51.03125 23.25 
Q 51.03125 16.5 48.125 10.71875 
Q 45.21875 4.9375 40.140625 1.859375 
Q 35.0625 -1.21875 28.609375 -1.21875 
Q 17.625 -1.21875 10.6875 6.859375 
Q 3.765625 14.9375 3.765625 33.5 
Q 3.765625 54.25 11.421875 63.671875 
Q 18.109375 71.875 29.4375 71.875 
Q 37.890625 71.875 43.28125 67.140625 
Q 48.6875 62.40625 49.75 54.046875 
z
M 13.875 23.1875 
Q 13.875 18.65625 15.796875 14.5 
Q 17.71875 10.359375 21.1875 8.171875 
Q 24.65625 6 28.46875 6 
Q 34.03125 6 38.03125 10.484375 
Q 42.046875 14.984375 42.046875 22.703125 
Q 42.046875 30.125 38.078125 34.390625 
Q 34.125 38.671875 28.125 38.671875 
Q 22.171875 38.671875 18.015625 34.390625 
Q 13.875 30.125 13.875 23.1875 
z
" id="ArialMT-54"/>
       </defs>
       <use xlink:href="#ArialMT-54"/>
       <use x="55.615234" xlink:href="#ArialMT-48"/>
      </g>
     </g>
    </g>
    <g id="xtick_5">
     <g id="line2d_5">
      <path clip-path="url(#pda47692f7f)" d="M 369.875426 299.704062 
L 369.875426 26.084062 
" style="fill:none;stroke:#cccccc;stroke-linecap:round;stroke-width:1.5;"/>
     </g>
     <g id="text_5">
      <!-- 80 -->
      <g style="fill:#262626;" transform="translate(360.699879 324.014453)scale(0.165 -0.165)">
       <defs>
        <path d="M 17.671875 38.8125 
Q 12.203125 40.828125 9.5625 44.53125 
Q 6.9375 48.25 6.9375 53.421875 
Q 6.9375 61.234375 12.546875 66.546875 
Q 18.171875 71.875 27.484375 71.875 
Q 36.859375 71.875 42.578125 66.421875 
Q 48.296875 60.984375 48.296875 53.171875 
Q 48.296875 48.1875 45.671875 44.5 
Q 43.0625 40.828125 37.75 38.8125 
Q 44.34375 36.671875 47.78125 31.875 
Q 51.21875 27.09375 51.21875 20.453125 
Q 51.21875 11.28125 44.71875 5.03125 
Q 38.234375 -1.21875 27.640625 -1.21875 
Q 17.046875 -1.21875 10.546875 5.046875 
Q 4.046875 11.328125 4.046875 20.703125 
Q 4.046875 27.6875 7.59375 32.390625 
Q 11.140625 37.109375 17.671875 38.8125 
z
M 15.921875 53.71875 
Q 15.921875 48.640625 19.1875 45.40625 
Q 22.46875 42.1875 27.6875 42.1875 
Q 32.765625 42.1875 36.015625 45.375 
Q 39.265625 48.578125 39.265625 53.21875 
Q 39.265625 58.0625 35.90625 61.359375 
Q 32.5625 64.65625 27.59375 64.65625 
Q 22.5625 64.65625 19.234375 61.421875 
Q 15.921875 58.203125 15.921875 53.71875 
z
M 13.09375 20.65625 
Q 13.09375 16.890625 14.875 13.375 
Q 16.65625 9.859375 20.171875 7.921875 
Q 23.6875 6 27.734375 6 
Q 34.03125 6 38.125 10.046875 
Q 42.234375 14.109375 42.234375 20.359375 
Q 42.234375 26.703125 38.015625 30.859375 
Q 33.796875 35.015625 27.4375 35.015625 
Q 21.234375 35.015625 17.15625 30.90625 
Q 13.09375 26.8125 13.09375 20.65625 
z
" id="ArialMT-56"/>
       </defs>
       <use xlink:href="#ArialMT-56"/>
       <use x="55.615234" xlink:href="#ArialMT-48"/>
      </g>
     </g>
    </g>
    <g id="text_6">
     <!-- epoch -->
     <g style="fill:#262626;" transform="translate(203.854472 344.177891)scale(0.18 -0.18)">
      <defs>
       <path d="M 42.09375 16.703125 
L 51.171875 15.578125 
Q 49.03125 7.625 43.21875 3.21875 
Q 37.40625 -1.171875 28.375 -1.171875 
Q 17 -1.171875 10.328125 5.828125 
Q 3.65625 12.84375 3.65625 25.484375 
Q 3.65625 38.578125 10.390625 45.796875 
Q 17.140625 53.03125 27.875 53.03125 
Q 38.28125 53.03125 44.875 45.953125 
Q 51.46875 38.875 51.46875 26.03125 
Q 51.46875 25.25 51.421875 23.6875 
L 12.75 23.6875 
Q 13.234375 15.140625 17.578125 10.59375 
Q 21.921875 6.0625 28.421875 6.0625 
Q 33.25 6.0625 36.671875 8.59375 
Q 40.09375 11.140625 42.09375 16.703125 
z
M 13.234375 30.90625 
L 42.1875 30.90625 
Q 41.609375 37.453125 38.875 40.71875 
Q 34.671875 45.796875 27.984375 45.796875 
Q 21.921875 45.796875 17.796875 41.75 
Q 13.671875 37.703125 13.234375 30.90625 
z
" id="ArialMT-101"/>
       <path d="M 6.59375 -19.875 
L 6.59375 51.859375 
L 14.59375 51.859375 
L 14.59375 45.125 
Q 17.4375 49.078125 21 51.046875 
Q 24.5625 53.03125 29.640625 53.03125 
Q 36.28125 53.03125 41.359375 49.609375 
Q 46.4375 46.1875 49.015625 39.953125 
Q 51.609375 33.734375 51.609375 26.3125 
Q 51.609375 18.359375 48.75 11.984375 
Q 45.90625 5.609375 40.453125 2.21875 
Q 35.015625 -1.171875 29 -1.171875 
Q 24.609375 -1.171875 21.109375 0.6875 
Q 17.625 2.546875 15.375 5.375 
L 15.375 -19.875 
z
M 14.546875 25.640625 
Q 14.546875 15.625 18.59375 10.84375 
Q 22.65625 6.0625 28.421875 6.0625 
Q 34.28125 6.0625 38.453125 11.015625 
Q 42.625 15.96875 42.625 26.375 
Q 42.625 36.28125 38.546875 41.203125 
Q 34.46875 46.140625 28.8125 46.140625 
Q 23.1875 46.140625 18.859375 40.890625 
Q 14.546875 35.640625 14.546875 25.640625 
z
" id="ArialMT-112"/>
       <path d="M 3.328125 25.921875 
Q 3.328125 40.328125 11.328125 47.265625 
Q 18.015625 53.03125 27.640625 53.03125 
Q 38.328125 53.03125 45.109375 46.015625 
Q 51.90625 39.015625 51.90625 26.65625 
Q 51.90625 16.65625 48.90625 10.90625 
Q 45.90625 5.171875 40.15625 2 
Q 34.421875 -1.171875 27.640625 -1.171875 
Q 16.75 -1.171875 10.03125 5.8125 
Q 3.328125 12.796875 3.328125 25.921875 
z
M 12.359375 25.921875 
Q 12.359375 15.96875 16.703125 11.015625 
Q 21.046875 6.0625 27.640625 6.0625 
Q 34.1875 6.0625 38.53125 11.03125 
Q 42.875 16.015625 42.875 26.21875 
Q 42.875 35.84375 38.5 40.796875 
Q 34.125 45.75 27.640625 45.75 
Q 21.046875 45.75 16.703125 40.8125 
Q 12.359375 35.890625 12.359375 25.921875 
z
" id="ArialMT-111"/>
       <path d="M 40.4375 19 
L 49.078125 17.875 
Q 47.65625 8.9375 41.8125 3.875 
Q 35.984375 -1.171875 27.484375 -1.171875 
Q 16.84375 -1.171875 10.375 5.78125 
Q 3.90625 12.75 3.90625 25.734375 
Q 3.90625 34.125 6.6875 40.421875 
Q 9.46875 46.734375 15.15625 49.875 
Q 20.84375 53.03125 27.546875 53.03125 
Q 35.984375 53.03125 41.359375 48.75 
Q 46.734375 44.484375 48.25 36.625 
L 39.703125 35.296875 
Q 38.484375 40.53125 35.375 43.15625 
Q 32.28125 45.796875 27.875 45.796875 
Q 21.234375 45.796875 17.078125 41.03125 
Q 12.9375 36.28125 12.9375 25.984375 
Q 12.9375 15.53125 16.9375 10.796875 
Q 20.953125 6.0625 27.390625 6.0625 
Q 32.5625 6.0625 36.03125 9.234375 
Q 39.5 12.40625 40.4375 19 
z
" id="ArialMT-99"/>
       <path d="M 6.59375 0 
L 6.59375 71.578125 
L 15.375 71.578125 
L 15.375 45.90625 
Q 21.53125 53.03125 30.90625 53.03125 
Q 36.671875 53.03125 40.921875 50.75 
Q 45.171875 48.484375 47 44.484375 
Q 48.828125 40.484375 48.828125 32.859375 
L 48.828125 0 
L 40.046875 0 
L 40.046875 32.859375 
Q 40.046875 39.453125 37.1875 42.453125 
Q 34.328125 45.453125 29.109375 45.453125 
Q 25.203125 45.453125 21.75 43.421875 
Q 18.3125 41.40625 16.84375 37.9375 
Q 15.375 34.46875 15.375 28.375 
L 15.375 0 
z
" id="ArialMT-104"/>
      </defs>
      <use xlink:href="#ArialMT-101"/>
      <use x="55.615234" xlink:href="#ArialMT-112"/>
      <use x="111.230469" xlink:href="#ArialMT-111"/>
      <use x="166.845703" xlink:href="#ArialMT-99"/>
      <use x="216.845703" xlink:href="#ArialMT-104"/>
     </g>
    </g>
   </g>
   <g id="matplotlib.axis_2">
    <g id="ytick_1">
     <g id="line2d_6">
      <path clip-path="url(#pda47692f7f)" d="M 72.722109 287.26679 
L 384.025584 287.26679 
" style="fill:none;stroke:#cccccc;stroke-linecap:round;stroke-width:1.5;"/>
     </g>
     <g id="text_7">
      <!-- 0.74 -->
      <g style="fill:#262626;" transform="translate(28.111562 293.171985)scale(0.165 -0.165)">
       <defs>
        <path d="M 9.078125 0 
L 9.078125 10.015625 
L 19.09375 10.015625 
L 19.09375 0 
z
" id="ArialMT-46"/>
        <path d="M 4.734375 62.203125 
L 4.734375 70.65625 
L 51.078125 70.65625 
L 51.078125 63.8125 
Q 44.234375 56.546875 37.515625 44.484375 
Q 30.8125 32.421875 27.15625 19.671875 
Q 24.515625 10.6875 23.78125 0 
L 14.75 0 
Q 14.890625 8.453125 18.0625 20.40625 
Q 21.234375 32.375 27.171875 43.484375 
Q 33.109375 54.59375 39.796875 62.203125 
z
" id="ArialMT-55"/>
       </defs>
       <use xlink:href="#ArialMT-48"/>
       <use x="55.615234" xlink:href="#ArialMT-46"/>
       <use x="83.398438" xlink:href="#ArialMT-55"/>
       <use x="139.013672" xlink:href="#ArialMT-52"/>
      </g>
     </g>
    </g>
    <g id="ytick_2">
     <g id="line2d_7">
      <path clip-path="url(#pda47692f7f)" d="M 72.722109 245.106543 
L 384.025584 245.106543 
" style="fill:none;stroke:#cccccc;stroke-linecap:round;stroke-width:1.5;"/>
     </g>
     <g id="text_8">
      <!-- 0.76 -->
      <g style="fill:#262626;" transform="translate(28.111562 251.011739)scale(0.165 -0.165)">
       <use xlink:href="#ArialMT-48"/>
       <use x="55.615234" xlink:href="#ArialMT-46"/>
       <use x="83.398438" xlink:href="#ArialMT-55"/>
       <use x="139.013672" xlink:href="#ArialMT-54"/>
      </g>
     </g>
    </g>
    <g id="ytick_3">
     <g id="line2d_8">
      <path clip-path="url(#pda47692f7f)" d="M 72.722109 202.946297 
L 384.025584 202.946297 
" style="fill:none;stroke:#cccccc;stroke-linecap:round;stroke-width:1.5;"/>
     </g>
     <g id="text_9">
      <!-- 0.78 -->
      <g style="fill:#262626;" transform="translate(28.111562 208.851492)scale(0.165 -0.165)">
       <use xlink:href="#ArialMT-48"/>
       <use x="55.615234" xlink:href="#ArialMT-46"/>
       <use x="83.398438" xlink:href="#ArialMT-55"/>
       <use x="139.013672" xlink:href="#ArialMT-56"/>
      </g>
     </g>
    </g>
    <g id="ytick_4">
     <g id="line2d_9">
      <path clip-path="url(#pda47692f7f)" d="M 72.722109 160.78605 
L 384.025584 160.78605 
" style="fill:none;stroke:#cccccc;stroke-linecap:round;stroke-width:1.5;"/>
     </g>
     <g id="text_10">
      <!-- 0.80 -->
      <g style="fill:#262626;" transform="translate(28.111562 166.691245)scale(0.165 -0.165)">
       <use xlink:href="#ArialMT-48"/>
       <use x="55.615234" xlink:href="#ArialMT-46"/>
       <use x="83.398438" xlink:href="#ArialMT-56"/>
       <use x="139.013672" xlink:href="#ArialMT-48"/>
      </g>
     </g>
    </g>
    <g id="ytick_5">
     <g id="line2d_10">
      <path clip-path="url(#pda47692f7f)" d="M 72.722109 118.625804 
L 384.025584 118.625804 
" style="fill:none;stroke:#cccccc;stroke-linecap:round;stroke-width:1.5;"/>
     </g>
     <g id="text_11">
      <!-- 0.82 -->
      <g style="fill:#262626;" transform="translate(28.111562 124.530999)scale(0.165 -0.165)">
       <use xlink:href="#ArialMT-48"/>
       <use x="55.615234" xlink:href="#ArialMT-46"/>
       <use x="83.398438" xlink:href="#ArialMT-56"/>
       <use x="139.013672" xlink:href="#ArialMT-50"/>
      </g>
     </g>
    </g>
    <g id="ytick_6">
     <g id="line2d_11">
      <path clip-path="url(#pda47692f7f)" d="M 72.722109 76.465557 
L 384.025584 76.465557 
" style="fill:none;stroke:#cccccc;stroke-linecap:round;stroke-width:1.5;"/>
     </g>
     <g id="text_12">
      <!-- 0.84 -->
      <g style="fill:#262626;" transform="translate(28.111562 82.370752)scale(0.165 -0.165)">
       <use xlink:href="#ArialMT-48"/>
       <use x="55.615234" xlink:href="#ArialMT-46"/>
       <use x="83.398438" xlink:href="#ArialMT-56"/>
       <use x="139.013672" xlink:href="#ArialMT-52"/>
      </g>
     </g>
    </g>
    <g id="ytick_7">
     <g id="line2d_12">
      <path clip-path="url(#pda47692f7f)" d="M 72.722109 34.305311 
L 384.025584 34.305311 
" style="fill:none;stroke:#cccccc;stroke-linecap:round;stroke-width:1.5;"/>
     </g>
     <g id="text_13">
      <!-- 0.86 -->
      <g style="fill:#262626;" transform="translate(28.111562 40.210506)scale(0.165 -0.165)">
       <use xlink:href="#ArialMT-48"/>
       <use x="55.615234" xlink:href="#ArialMT-46"/>
       <use x="83.398438" xlink:href="#ArialMT-56"/>
       <use x="139.013672" xlink:href="#ArialMT-54"/>
      </g>
     </g>
    </g>
    <g id="text_14">
     <!-- AP@50 -->
     <g style="fill:#262626;" transform="translate(20.323125 194.046719)rotate(-90)scale(0.18 -0.18)">
      <defs>
       <path d="M -0.140625 0 
L 27.34375 71.578125 
L 37.546875 71.578125 
L 66.84375 0 
L 56.0625 0 
L 47.703125 21.6875 
L 17.78125 21.6875 
L 9.90625 0 
z
M 20.515625 29.390625 
L 44.78125 29.390625 
L 37.3125 49.21875 
Q 33.890625 58.25 32.234375 64.0625 
Q 30.859375 57.171875 28.375 50.390625 
z
" id="ArialMT-65"/>
       <path d="M 7.71875 0 
L 7.71875 71.578125 
L 34.71875 71.578125 
Q 41.84375 71.578125 45.609375 70.90625 
Q 50.875 70.015625 54.4375 67.546875 
Q 58.015625 65.09375 60.1875 60.640625 
Q 62.359375 56.203125 62.359375 50.875 
Q 62.359375 41.75 56.546875 35.421875 
Q 50.734375 29.109375 35.546875 29.109375 
L 17.1875 29.109375 
L 17.1875 0 
z
M 17.1875 37.546875 
L 35.6875 37.546875 
Q 44.875 37.546875 48.734375 40.96875 
Q 52.59375 44.390625 52.59375 50.59375 
Q 52.59375 55.078125 50.3125 58.265625 
Q 48.046875 61.46875 44.34375 62.5 
Q 41.9375 63.140625 35.5 63.140625 
L 17.1875 63.140625 
z
" id="ArialMT-80"/>
       <path d="M 56.6875 7.953125 
Q 53.515625 4.296875 49.578125 2.078125 
Q 45.65625 -0.140625 41.703125 -0.140625 
Q 37.359375 -0.140625 33.25 2.390625 
Q 29.15625 4.9375 26.59375 10.203125 
Q 24.03125 15.484375 24.03125 21.78125 
Q 24.03125 29.546875 28 37.328125 
Q 31.984375 45.125 37.890625 49.03125 
Q 43.796875 52.9375 49.359375 52.9375 
Q 53.609375 52.9375 57.46875 50.703125 
Q 61.328125 48.484375 64.109375 43.953125 
L 65.765625 51.515625 
L 74.515625 51.515625 
L 67.484375 18.75 
Q 66.015625 11.921875 66.015625 11.1875 
Q 66.015625 9.859375 67.015625 8.90625 
Q 68.015625 7.953125 69.4375 7.953125 
Q 72.015625 7.953125 76.21875 10.9375 
Q 81.78125 14.84375 85.03125 21.40625 
Q 88.28125 27.984375 88.28125 34.96875 
Q 88.28125 43.109375 84.109375 50.1875 
Q 79.9375 57.28125 71.65625 61.515625 
Q 63.375 65.765625 53.375 65.765625 
Q 41.9375 65.765625 32.484375 60.421875 
Q 23.046875 55.078125 17.84375 45.09375 
Q 12.640625 35.109375 12.640625 23.6875 
Q 12.640625 11.71875 17.84375 3.078125 
Q 23.046875 -5.5625 32.875 -9.6875 
Q 42.71875 -13.8125 54.6875 -13.8125 
Q 67.484375 -13.8125 76.125 -9.515625 
Q 84.765625 -5.21875 89.0625 0.921875 
L 97.90625 0.921875 
Q 95.40625 -4.203125 89.34375 -9.515625 
Q 83.296875 -14.84375 74.953125 -17.9375 
Q 66.609375 -21.046875 54.828125 -21.046875 
Q 44 -21.046875 34.84375 -18.265625 
Q 25.6875 -15.484375 19.234375 -9.890625 
Q 12.796875 -4.296875 9.515625 2.984375 
Q 5.421875 12.203125 5.421875 22.90625 
Q 5.421875 34.8125 10.296875 45.609375 
Q 16.265625 58.84375 27.21875 65.875 
Q 38.1875 72.90625 53.8125 72.90625 
Q 65.921875 72.90625 75.5625 67.9375 
Q 85.203125 62.984375 90.765625 53.171875 
Q 95.515625 44.734375 95.515625 34.8125 
Q 95.515625 20.65625 85.546875 9.671875 
Q 76.65625 -0.203125 66.109375 -0.203125 
Q 62.75 -0.203125 60.671875 0.828125 
Q 58.59375 1.859375 57.625 3.765625 
Q 56.984375 4.984375 56.6875 7.953125 
z
M 33.0625 21.1875 
Q 33.0625 14.5 36.234375 10.78125 
Q 39.40625 7.078125 43.5 7.078125 
Q 46.234375 7.078125 49.265625 8.71875 
Q 52.296875 10.359375 55.046875 13.578125 
Q 57.8125 16.796875 59.5625 21.75 
Q 61.328125 26.703125 61.328125 31.6875 
Q 61.328125 38.328125 58.03125 41.984375 
Q 54.734375 45.65625 50 45.65625 
Q 46.875 45.65625 44.109375 44.0625 
Q 41.359375 42.484375 38.765625 38.96875 
Q 36.1875 35.453125 34.625 30.421875 
Q 33.0625 25.390625 33.0625 21.1875 
z
" id="ArialMT-64"/>
       <path d="M 4.15625 18.75 
L 13.375 19.53125 
Q 14.40625 12.796875 18.140625 9.390625 
Q 21.875 6 27.15625 6 
Q 33.5 6 37.890625 10.78125 
Q 42.28125 15.578125 42.28125 23.484375 
Q 42.28125 31 38.0625 35.34375 
Q 33.84375 39.703125 27 39.703125 
Q 22.75 39.703125 19.328125 37.765625 
Q 15.921875 35.84375 13.96875 32.765625 
L 5.71875 33.84375 
L 12.640625 70.609375 
L 48.25 70.609375 
L 48.25 62.203125 
L 19.671875 62.203125 
L 15.828125 42.96875 
Q 22.265625 47.46875 29.34375 47.46875 
Q 38.71875 47.46875 45.15625 40.96875 
Q 51.609375 34.46875 51.609375 24.265625 
Q 51.609375 14.546875 45.953125 7.46875 
Q 39.0625 -1.21875 27.15625 -1.21875 
Q 17.390625 -1.21875 11.203125 4.25 
Q 5.03125 9.71875 4.15625 18.75 
z
" id="ArialMT-53"/>
      </defs>
      <use xlink:href="#ArialMT-65"/>
      <use x="66.699219" xlink:href="#ArialMT-80"/>
      <use x="133.398438" xlink:href="#ArialMT-64"/>
      <use x="234.912109" xlink:href="#ArialMT-53"/>
      <use x="290.527344" xlink:href="#ArialMT-48"/>
     </g>
    </g>
   </g>
   <g id="line2d_13">
    <path clip-path="url(#pda47692f7f)" d="M 86.872267 152.354001 
L 90.454586 105.97773 
L 94.036904 143.921952 
L 97.619223 84.897606 
L 101.201541 101.761705 
L 104.78386 68.033508 
L 108.366178 49.061397 
L 111.948497 72.249532 
L 115.530815 53.277422 
L 119.113134 55.385434 
L 122.695452 68.033508 
L 126.27777 108.085742 
L 129.860089 110.193754 
L 133.442407 80.681582 
L 137.024726 40.629348 
L 140.607044 38.521335 
L 144.189363 40.629348 
L 147.771681 72.249532 
L 151.354 63.817483 
L 154.936318 61.709471 
L 158.518637 68.033508 
L 162.100955 80.681582 
L 165.683274 87.005619 
L 169.265592 110.193754 
L 172.847911 95.437668 
L 176.430229 57.493446 
L 180.012547 44.845372 
L 183.594866 84.897606 
L 187.177184 59.601458 
L 190.759503 70.14152 
L 194.341821 103.869717 
L 197.92414 112.301767 
L 201.506458 89.113631 
L 205.088777 110.193754 
L 208.671095 120.733816 
L 212.253414 112.301767 
L 215.835732 97.54568 
L 219.418051 129.165865 
L 223.000369 188.19021 
L 226.582688 150.245989 
L 230.165006 165.002075 
L 233.747324 152.354001 
L 237.329643 165.002075 
L 240.911961 160.78605 
L 244.49428 165.002075 
L 248.076598 162.894062 
L 251.658917 169.218099 
L 255.241235 171.326112 
L 258.823554 165.002075 
L 262.405872 167.110087 
L 265.988191 158.678038 
L 269.570509 158.678038 
L 273.152828 133.38189 
L 276.735146 131.273878 
L 280.317465 129.165865 
L 283.899783 127.057853 
L 287.482101 131.273878 
L 291.06442 131.273878 
L 294.646738 131.273878 
L 298.229057 131.273878 
L 301.811375 131.273878 
L 305.393694 133.38189 
L 308.976012 131.273878 
L 312.558331 135.489902 
L 316.140649 127.057853 
L 319.722968 137.597915 
L 323.305286 137.597915 
L 326.887605 137.597915 
L 330.469923 146.029964 
L 334.052242 152.354001 
L 337.63456 148.137976 
L 341.216878 135.489902 
L 344.799197 135.489902 
L 348.381515 135.489902 
L 351.963834 143.921952 
L 355.546152 137.597915 
L 359.128471 137.597915 
L 362.710789 139.705927 
L 366.293108 139.705927 
L 369.875426 139.705927 
" style="fill:none;stroke:#179c7d;stroke-linecap:round;stroke-width:2.25;"/>
   </g>
   <g id="line2d_14">
    <path clip-path="url(#pda47692f7f)" d="M 86.872267 143.921952 
L 90.454586 118.625804 
L 94.036904 137.597915 
L 97.619223 95.437668 
L 101.201541 97.54568 
L 104.78386 118.625804 
L 108.366178 152.354001 
L 111.948497 162.894062 
L 115.530815 141.813939 
L 119.113134 116.517791 
L 122.695452 139.705927 
L 126.27777 154.462013 
L 129.860089 139.705927 
L 133.442407 135.489902 
L 137.024726 139.705927 
L 140.607044 131.273878 
L 144.189363 114.409779 
L 147.771681 105.97773 
L 151.354 148.137976 
L 154.936318 154.462013 
L 158.518637 150.245989 
L 162.100955 110.193754 
L 165.683274 122.841828 
L 169.265592 152.354001 
L 172.847911 165.002075 
L 176.430229 146.029964 
L 180.012547 141.813939 
L 183.594866 139.705927 
L 187.177184 82.789594 
L 190.759503 108.085742 
L 194.341821 131.273878 
L 197.92414 148.137976 
L 201.506458 154.462013 
L 205.088777 173.434124 
L 208.671095 196.62226 
L 212.253414 198.730272 
L 215.835732 167.110087 
L 219.418051 192.406235 
L 223.000369 202.946297 
L 226.582688 255.646605 
L 230.165006 255.646605 
L 233.747324 255.646605 
L 237.329643 255.646605 
L 240.911961 234.566482 
L 244.49428 228.242445 
L 248.076598 221.918408 
L 251.658917 213.486358 
L 255.241235 217.702383 
L 258.823554 202.946297 
L 262.405872 200.838284 
L 265.988191 200.838284 
L 269.570509 202.946297 
L 273.152828 217.702383 
L 276.735146 215.594371 
L 280.317465 215.594371 
L 283.899783 198.730272 
L 287.482101 196.62226 
L 291.06442 196.62226 
L 294.646738 213.486358 
L 298.229057 211.378346 
L 301.811375 215.594371 
L 305.393694 215.594371 
L 308.976012 213.486358 
L 312.558331 200.838284 
L 316.140649 192.406235 
L 319.722968 200.838284 
L 323.305286 200.838284 
L 326.887605 200.838284 
L 330.469923 200.838284 
L 334.052242 200.838284 
L 337.63456 200.838284 
L 341.216878 200.838284 
L 344.799197 200.838284 
L 348.381515 200.838284 
L 351.963834 215.594371 
L 355.546152 215.594371 
L 359.128471 219.810395 
L 362.710789 213.486358 
L 366.293108 200.838284 
L 369.875426 213.486358 
" style="fill:none;stroke:#006e92;stroke-linecap:round;stroke-width:2.25;"/>
   </g>
   <g id="line2d_15">
    <path clip-path="url(#pda47692f7f)" d="M 86.872267 135.489902 
L 90.454586 118.625804 
L 94.036904 116.517791 
L 97.619223 97.54568 
L 101.201541 108.085742 
L 104.78386 143.921952 
L 108.366178 152.354001 
L 111.948497 175.542136 
L 115.530815 177.650149 
L 119.113134 146.029964 
L 122.695452 158.678038 
L 126.27777 165.002075 
L 129.860089 118.625804 
L 133.442407 135.489902 
L 137.024726 154.462013 
L 140.607044 158.678038 
L 144.189363 146.029964 
L 147.771681 202.946297 
L 151.354 217.702383 
L 154.936318 198.730272 
L 158.518637 194.514247 
L 162.100955 175.542136 
L 165.683274 202.946297 
L 169.265592 173.434124 
L 172.847911 150.245989 
L 176.430229 167.110087 
L 180.012547 177.650149 
L 183.594866 181.866173 
L 187.177184 249.322568 
L 190.759503 287.26679 
L 194.341821 253.538593 
L 197.92414 190.298223 
L 201.506458 179.758161 
L 205.088777 158.678038 
L 208.671095 167.110087 
L 212.253414 160.78605 
L 215.835732 194.514247 
L 219.418051 196.62226 
L 223.000369 198.730272 
L 226.582688 242.998531 
L 230.165006 249.322568 
L 233.747324 266.186667 
L 237.329643 266.186667 
L 240.911961 251.43058 
L 244.49428 242.998531 
L 248.076598 238.782506 
L 251.658917 215.594371 
L 255.241235 213.486358 
L 258.823554 213.486358 
L 262.405872 221.918408 
L 265.988191 232.458469 
L 269.570509 232.458469 
L 273.152828 198.730272 
L 276.735146 226.134432 
L 280.317465 217.702383 
L 283.899783 215.594371 
L 287.482101 202.946297 
L 291.06442 200.838284 
L 294.646738 200.838284 
L 298.229057 200.838284 
L 301.811375 202.946297 
L 305.393694 202.946297 
L 308.976012 215.594371 
L 312.558331 215.594371 
L 316.140649 202.946297 
L 319.722968 196.62226 
L 323.305286 194.514247 
L 326.887605 194.514247 
L 330.469923 194.514247 
L 334.052242 194.514247 
L 337.63456 196.62226 
L 341.216878 194.514247 
L 344.799197 194.514247 
L 348.381515 194.514247 
L 351.963834 198.730272 
L 355.546152 202.946297 
L 359.128471 202.946297 
L 362.710789 234.566482 
L 366.293108 224.02642 
L 369.875426 211.378346 
" style="fill:none;stroke:#25bae2;stroke-linecap:round;stroke-width:2.25;"/>
   </g>
   <g id="line2d_16"/>
   <g id="line2d_17"/>
   <g id="line2d_18"/>
   <g id="line2d_19">
    <path clip-path="url(#pda47692f7f)" d="M 140.607044 38.521335 
" style="fill:none;stroke:#179c7d;stroke-linecap:round;stroke-width:2.25;"/>
    <defs>
     <path d="M 0 4.5 
C 1.193414 4.5 2.338109 4.025852 3.181981 3.181981 
C 4.025852 2.338109 4.5 1.193414 4.5 0 
C 4.5 -1.193414 4.025852 -2.338109 3.181981 -3.181981 
C 2.338109 -4.025852 1.193414 -4.5 0 -4.5 
C -1.193414 -4.5 -2.338109 -4.025852 -3.181981 -3.181981 
C -4.025852 -2.338109 -4.5 -1.193414 -4.5 0 
C -4.5 1.193414 -4.025852 2.338109 -3.181981 3.181981 
C -2.338109 4.025852 -1.193414 4.5 0 4.5 
z
" id="m628e6f63b7" style="stroke:#000000;"/>
    </defs>
    <g clip-path="url(#pda47692f7f)">
     <use style="fill-opacity:0;stroke:#000000;" x="140.607044" xlink:href="#m628e6f63b7" y="38.521335"/>
    </g>
   </g>
   <g id="line2d_20">
    <path clip-path="url(#pda47692f7f)" d="M 187.177184 82.789594 
" style="fill:none;stroke:#006e92;stroke-linecap:round;stroke-width:2.25;"/>
    <g clip-path="url(#pda47692f7f)">
     <use style="fill-opacity:0;stroke:#000000;" x="187.177184" xlink:href="#m628e6f63b7" y="82.789594"/>
    </g>
   </g>
   <g id="line2d_21">
    <path clip-path="url(#pda47692f7f)" d="M 97.619223 97.54568 
" style="fill:none;stroke:#25bae2;stroke-linecap:round;stroke-width:2.25;"/>
    <g clip-path="url(#pda47692f7f)">
     <use style="fill-opacity:0;stroke:#000000;" x="97.619223" xlink:href="#m628e6f63b7" y="97.54568"/>
    </g>
   </g>
   <g id="patch_3">
    <path d="M 72.722109 299.704062 
L 72.722109 26.084062 
" style="fill:none;stroke:#cccccc;stroke-linecap:square;stroke-linejoin:miter;stroke-width:1.875;"/>
   </g>
   <g id="patch_4">
    <path d="M 72.722109 299.704062 
L 384.025584 299.704062 
" style="fill:none;stroke:#cccccc;stroke-linecap:square;stroke-linejoin:miter;stroke-width:1.875;"/>
   </g>
   <g id="text_15">
    <!-- 0.858 -->
    <g style="fill:#262626;" transform="translate(145.980522 32.197298)scale(0.18 -0.18)">
     <use xlink:href="#ArialMT-48"/>
     <use x="55.615234" xlink:href="#ArialMT-46"/>
     <use x="83.398438" xlink:href="#ArialMT-56"/>
     <use x="139.013672" xlink:href="#ArialMT-53"/>
     <use x="194.628906" xlink:href="#ArialMT-56"/>
    </g>
   </g>
   <g id="text_16">
    <!-- 0.837 -->
    <g style="fill:#262626;" transform="translate(192.550662 76.465557)scale(0.18 -0.18)">
     <defs>
      <path d="M 4.203125 18.890625 
L 12.984375 20.0625 
Q 14.5 12.59375 18.140625 9.296875 
Q 21.78125 6 27 6 
Q 33.203125 6 37.46875 10.296875 
Q 41.75 14.59375 41.75 20.953125 
Q 41.75 27 37.796875 30.921875 
Q 33.84375 34.859375 27.734375 34.859375 
Q 25.25 34.859375 21.53125 33.890625 
L 22.515625 41.609375 
Q 23.390625 41.5 23.921875 41.5 
Q 29.546875 41.5 34.03125 44.421875 
Q 38.53125 47.359375 38.53125 53.46875 
Q 38.53125 58.296875 35.25 61.46875 
Q 31.984375 64.65625 26.8125 64.65625 
Q 21.6875 64.65625 18.265625 61.421875 
Q 14.84375 58.203125 13.875 51.765625 
L 5.078125 53.328125 
Q 6.6875 62.15625 12.390625 67.015625 
Q 18.109375 71.875 26.609375 71.875 
Q 32.46875 71.875 37.390625 69.359375 
Q 42.328125 66.84375 44.9375 62.5 
Q 47.5625 58.15625 47.5625 53.265625 
Q 47.5625 48.640625 45.0625 44.828125 
Q 42.578125 41.015625 37.703125 38.765625 
Q 44.046875 37.3125 47.5625 32.6875 
Q 51.078125 28.078125 51.078125 21.140625 
Q 51.078125 11.765625 44.234375 5.25 
Q 37.40625 -1.265625 26.953125 -1.265625 
Q 17.53125 -1.265625 11.296875 4.34375 
Q 5.078125 9.96875 4.203125 18.890625 
z
" id="ArialMT-51"/>
     </defs>
     <use xlink:href="#ArialMT-48"/>
     <use x="55.615234" xlink:href="#ArialMT-46"/>
     <use x="83.398438" xlink:href="#ArialMT-56"/>
     <use x="139.013672" xlink:href="#ArialMT-51"/>
     <use x="194.628906" xlink:href="#ArialMT-55"/>
    </g>
   </g>
   <g id="patch_5">
    <path d="M 236.171933 102.608586 
Q 168.790742 100.114138 101.409551 97.61969 
" style="fill:none;stroke:#000000;stroke-dasharray:1.5,2.475;stroke-dashoffset:0;stroke-linecap:round;stroke-width:1.5;"/>
   </g>
   <g id="text_17">
    <!-- 0.83 -->
    <g style="fill:#262626;" transform="translate(240.911961 108.085742)scale(0.18 -0.18)">
     <use xlink:href="#ArialMT-48"/>
     <use x="55.615234" xlink:href="#ArialMT-46"/>
     <use x="83.398438" xlink:href="#ArialMT-56"/>
     <use x="139.013672" xlink:href="#ArialMT-51"/>
    </g>
   </g>
   <g id="text_18">
    <!-- random -->
    <g style="fill:#262626;" transform="translate(197.861034 20.084062)scale(0.18 -0.18)">
     <defs>
      <path d="M 6.5 0 
L 6.5 51.859375 
L 14.40625 51.859375 
L 14.40625 44 
Q 17.4375 49.515625 20 51.265625 
Q 22.5625 53.03125 25.640625 53.03125 
Q 30.078125 53.03125 34.671875 50.203125 
L 31.640625 42.046875 
Q 28.421875 43.953125 25.203125 43.953125 
Q 22.3125 43.953125 20.015625 42.21875 
Q 17.71875 40.484375 16.75 37.40625 
Q 15.28125 32.71875 15.28125 27.15625 
L 15.28125 0 
z
" id="ArialMT-114"/>
      <path d="M 40.4375 6.390625 
Q 35.546875 2.25 31.03125 0.53125 
Q 26.515625 -1.171875 21.34375 -1.171875 
Q 12.796875 -1.171875 8.203125 3 
Q 3.609375 7.171875 3.609375 13.671875 
Q 3.609375 17.484375 5.34375 20.625 
Q 7.078125 23.78125 9.890625 25.6875 
Q 12.703125 27.59375 16.21875 28.5625 
Q 18.796875 29.25 24.03125 29.890625 
Q 34.671875 31.15625 39.703125 32.90625 
Q 39.75 34.71875 39.75 35.203125 
Q 39.75 40.578125 37.25 42.78125 
Q 33.890625 45.75 27.25 45.75 
Q 21.046875 45.75 18.09375 43.578125 
Q 15.140625 41.40625 13.71875 35.890625 
L 5.125 37.0625 
Q 6.296875 42.578125 8.984375 45.96875 
Q 11.671875 49.359375 16.75 51.1875 
Q 21.828125 53.03125 28.515625 53.03125 
Q 35.15625 53.03125 39.296875 51.46875 
Q 43.453125 49.90625 45.40625 47.53125 
Q 47.359375 45.171875 48.140625 41.546875 
Q 48.578125 39.3125 48.578125 33.453125 
L 48.578125 21.734375 
Q 48.578125 9.46875 49.140625 6.21875 
Q 49.703125 2.984375 51.375 0 
L 42.1875 0 
Q 40.828125 2.734375 40.4375 6.390625 
z
M 39.703125 26.03125 
Q 34.90625 24.078125 25.34375 22.703125 
Q 19.921875 21.921875 17.671875 20.9375 
Q 15.4375 19.96875 14.203125 18.09375 
Q 12.984375 16.21875 12.984375 13.921875 
Q 12.984375 10.40625 15.640625 8.0625 
Q 18.3125 5.71875 23.4375 5.71875 
Q 28.515625 5.71875 32.46875 7.9375 
Q 36.421875 10.15625 38.28125 14.015625 
Q 39.703125 17 39.703125 22.796875 
z
" id="ArialMT-97"/>
      <path d="M 6.59375 0 
L 6.59375 51.859375 
L 14.5 51.859375 
L 14.5 44.484375 
Q 20.21875 53.03125 31 53.03125 
Q 35.6875 53.03125 39.625 51.34375 
Q 43.5625 49.65625 45.515625 46.921875 
Q 47.46875 44.1875 48.25 40.4375 
Q 48.734375 37.984375 48.734375 31.890625 
L 48.734375 0 
L 39.9375 0 
L 39.9375 31.546875 
Q 39.9375 36.921875 38.90625 39.578125 
Q 37.890625 42.234375 35.28125 43.8125 
Q 32.671875 45.40625 29.15625 45.40625 
Q 23.53125 45.40625 19.453125 41.84375 
Q 15.375 38.28125 15.375 28.328125 
L 15.375 0 
z
" id="ArialMT-110"/>
      <path d="M 40.234375 0 
L 40.234375 6.546875 
Q 35.296875 -1.171875 25.734375 -1.171875 
Q 19.53125 -1.171875 14.328125 2.25 
Q 9.125 5.671875 6.265625 11.796875 
Q 3.421875 17.921875 3.421875 25.875 
Q 3.421875 33.640625 6 39.96875 
Q 8.59375 46.296875 13.765625 49.65625 
Q 18.953125 53.03125 25.34375 53.03125 
Q 30.03125 53.03125 33.6875 51.046875 
Q 37.359375 49.078125 39.65625 45.90625 
L 39.65625 71.578125 
L 48.390625 71.578125 
L 48.390625 0 
z
M 12.453125 25.875 
Q 12.453125 15.921875 16.640625 10.984375 
Q 20.84375 6.0625 26.5625 6.0625 
Q 32.328125 6.0625 36.34375 10.765625 
Q 40.375 15.484375 40.375 25.140625 
Q 40.375 35.796875 36.265625 40.765625 
Q 32.171875 45.75 26.171875 45.75 
Q 20.3125 45.75 16.375 40.96875 
Q 12.453125 36.1875 12.453125 25.875 
z
" id="ArialMT-100"/>
      <path d="M 6.59375 0 
L 6.59375 51.859375 
L 14.453125 51.859375 
L 14.453125 44.578125 
Q 16.890625 48.390625 20.9375 50.703125 
Q 25 53.03125 30.171875 53.03125 
Q 35.9375 53.03125 39.625 50.640625 
Q 43.3125 48.25 44.828125 43.953125 
Q 50.984375 53.03125 60.84375 53.03125 
Q 68.5625 53.03125 72.703125 48.75 
Q 76.859375 44.484375 76.859375 35.59375 
L 76.859375 0 
L 68.109375 0 
L 68.109375 32.671875 
Q 68.109375 37.9375 67.25 40.25 
Q 66.40625 42.578125 64.15625 43.984375 
Q 61.921875 45.40625 58.890625 45.40625 
Q 53.421875 45.40625 49.796875 41.765625 
Q 46.1875 38.140625 46.1875 30.125 
L 46.1875 0 
L 37.40625 0 
L 37.40625 33.6875 
Q 37.40625 39.546875 35.25 42.46875 
Q 33.109375 45.40625 28.21875 45.40625 
Q 24.515625 45.40625 21.359375 43.453125 
Q 18.21875 41.5 16.796875 37.734375 
Q 15.375 33.984375 15.375 26.90625 
L 15.375 0 
z
" id="ArialMT-109"/>
     </defs>
     <use xlink:href="#ArialMT-114"/>
     <use x="33.300781" xlink:href="#ArialMT-97"/>
     <use x="88.916016" xlink:href="#ArialMT-110"/>
     <use x="144.53125" xlink:href="#ArialMT-100"/>
     <use x="200.146484" xlink:href="#ArialMT-111"/>
     <use x="255.761719" xlink:href="#ArialMT-109"/>
    </g>
   </g>
  </g>
  <g id="axes_2">
   <g id="patch_6">
    <path d="M 403.632552 299.704062 
L 714.936026 299.704062 
L 714.936026 26.084062 
L 403.632552 26.084062 
z
" style="fill:#ffffff;"/>
   </g>
   <g id="matplotlib.axis_3">
    <g id="xtick_6">
     <g id="line2d_22">
      <path clip-path="url(#p264ab04c99)" d="M 414.200391 299.704062 
L 414.200391 26.084062 
" style="fill:none;stroke:#cccccc;stroke-linecap:round;stroke-width:1.5;"/>
     </g>
     <g id="text_19">
      <!-- 0 -->
      <g style="fill:#262626;" transform="translate(409.612618 324.014453)scale(0.165 -0.165)">
       <use xlink:href="#ArialMT-48"/>
      </g>
     </g>
    </g>
    <g id="xtick_7">
     <g id="line2d_23">
      <path clip-path="url(#p264ab04c99)" d="M 485.84676 299.704062 
L 485.84676 26.084062 
" style="fill:none;stroke:#cccccc;stroke-linecap:round;stroke-width:1.5;"/>
     </g>
     <g id="text_20">
      <!-- 20 -->
      <g style="fill:#262626;" transform="translate(476.671214 324.014453)scale(0.165 -0.165)">
       <use xlink:href="#ArialMT-50"/>
       <use x="55.615234" xlink:href="#ArialMT-48"/>
      </g>
     </g>
    </g>
    <g id="xtick_8">
     <g id="line2d_24">
      <path clip-path="url(#p264ab04c99)" d="M 557.49313 299.704062 
L 557.49313 26.084062 
" style="fill:none;stroke:#cccccc;stroke-linecap:round;stroke-width:1.5;"/>
     </g>
     <g id="text_21">
      <!-- 40 -->
      <g style="fill:#262626;" transform="translate(548.317583 324.014453)scale(0.165 -0.165)">
       <use xlink:href="#ArialMT-52"/>
       <use x="55.615234" xlink:href="#ArialMT-48"/>
      </g>
     </g>
    </g>
    <g id="xtick_9">
     <g id="line2d_25">
      <path clip-path="url(#p264ab04c99)" d="M 629.139499 299.704062 
L 629.139499 26.084062 
" style="fill:none;stroke:#cccccc;stroke-linecap:round;stroke-width:1.5;"/>
     </g>
     <g id="text_22">
      <!-- 60 -->
      <g style="fill:#262626;" transform="translate(619.963952 324.014453)scale(0.165 -0.165)">
       <use xlink:href="#ArialMT-54"/>
       <use x="55.615234" xlink:href="#ArialMT-48"/>
      </g>
     </g>
    </g>
    <g id="xtick_10">
     <g id="line2d_26">
      <path clip-path="url(#p264ab04c99)" d="M 700.785868 299.704062 
L 700.785868 26.084062 
" style="fill:none;stroke:#cccccc;stroke-linecap:round;stroke-width:1.5;"/>
     </g>
     <g id="text_23">
      <!-- 80 -->
      <g style="fill:#262626;" transform="translate(691.610322 324.014453)scale(0.165 -0.165)">
       <use xlink:href="#ArialMT-56"/>
       <use x="55.615234" xlink:href="#ArialMT-48"/>
      </g>
     </g>
    </g>
    <g id="text_24">
     <!-- epoch -->
     <g style="fill:#262626;" transform="translate(534.764914 344.177891)scale(0.18 -0.18)">
      <use xlink:href="#ArialMT-101"/>
      <use x="55.615234" xlink:href="#ArialMT-112"/>
      <use x="111.230469" xlink:href="#ArialMT-111"/>
      <use x="166.845703" xlink:href="#ArialMT-99"/>
      <use x="216.845703" xlink:href="#ArialMT-104"/>
     </g>
    </g>
   </g>
   <g id="matplotlib.axis_4">
    <g id="ytick_8">
     <g id="line2d_27">
      <path clip-path="url(#p264ab04c99)" d="M 403.632552 287.26679 
L 714.936026 287.26679 
" style="fill:none;stroke:#cccccc;stroke-linecap:round;stroke-width:1.5;"/>
     </g>
    </g>
    <g id="ytick_9">
     <g id="line2d_28">
      <path clip-path="url(#p264ab04c99)" d="M 403.632552 245.106543 
L 714.936026 245.106543 
" style="fill:none;stroke:#cccccc;stroke-linecap:round;stroke-width:1.5;"/>
     </g>
    </g>
    <g id="ytick_10">
     <g id="line2d_29">
      <path clip-path="url(#p264ab04c99)" d="M 403.632552 202.946297 
L 714.936026 202.946297 
" style="fill:none;stroke:#cccccc;stroke-linecap:round;stroke-width:1.5;"/>
     </g>
    </g>
    <g id="ytick_11">
     <g id="line2d_30">
      <path clip-path="url(#p264ab04c99)" d="M 403.632552 160.78605 
L 714.936026 160.78605 
" style="fill:none;stroke:#cccccc;stroke-linecap:round;stroke-width:1.5;"/>
     </g>
    </g>
    <g id="ytick_12">
     <g id="line2d_31">
      <path clip-path="url(#p264ab04c99)" d="M 403.632552 118.625804 
L 714.936026 118.625804 
" style="fill:none;stroke:#cccccc;stroke-linecap:round;stroke-width:1.5;"/>
     </g>
    </g>
    <g id="ytick_13">
     <g id="line2d_32">
      <path clip-path="url(#p264ab04c99)" d="M 403.632552 76.465557 
L 714.936026 76.465557 
" style="fill:none;stroke:#cccccc;stroke-linecap:round;stroke-width:1.5;"/>
     </g>
    </g>
    <g id="ytick_14">
     <g id="line2d_33">
      <path clip-path="url(#p264ab04c99)" d="M 403.632552 34.305311 
L 714.936026 34.305311 
" style="fill:none;stroke:#cccccc;stroke-linecap:round;stroke-width:1.5;"/>
     </g>
    </g>
   </g>
   <g id="line2d_34">
    <path clip-path="url(#p264ab04c99)" d="M 417.78271 127.057853 
L 421.365028 87.005619 
L 424.947347 82.789594 
L 428.529665 63.817483 
L 432.111983 70.14152 
L 435.694302 57.493446 
L 439.27662 74.357545 
L 442.858939 101.761705 
L 446.441257 118.625804 
L 450.023576 116.517791 
L 453.605894 76.465557 
L 457.188213 72.249532 
L 460.770531 95.437668 
L 464.35285 87.005619 
L 467.935168 101.761705 
L 471.517487 89.113631 
L 475.099805 93.329656 
L 478.682124 95.437668 
L 482.264442 68.033508 
L 485.84676 78.573569 
L 489.429079 78.573569 
L 493.011397 80.681582 
L 496.593716 84.897606 
L 500.176034 65.925495 
L 503.758353 55.385434 
L 507.340671 63.817483 
L 510.92299 57.493446 
L 514.505308 97.54568 
L 518.087627 87.005619 
L 521.669945 97.54568 
L 525.252264 93.329656 
L 528.834582 97.54568 
L 532.416901 108.085742 
L 535.999219 87.005619 
L 539.581537 101.761705 
L 543.163856 171.326112 
L 546.746174 129.165865 
L 550.328493 120.733816 
L 553.910811 124.949841 
L 557.49313 135.489902 
L 561.075448 137.597915 
L 564.657767 135.489902 
L 568.240085 135.489902 
L 571.822404 137.597915 
L 575.404722 133.38189 
L 578.987041 133.38189 
L 582.569359 133.38189 
L 586.151678 135.489902 
L 589.733996 133.38189 
L 593.316314 133.38189 
L 596.898633 133.38189 
L 600.480951 133.38189 
L 604.06327 133.38189 
L 607.645588 133.38189 
L 611.227907 133.38189 
L 614.810225 131.273878 
L 618.392544 131.273878 
L 621.974862 131.273878 
L 625.557181 133.38189 
L 629.139499 133.38189 
L 632.721818 133.38189 
L 636.304136 133.38189 
L 639.886455 133.38189 
L 643.468773 133.38189 
L 647.051091 133.38189 
L 650.63341 133.38189 
L 654.215728 133.38189 
L 657.798047 133.38189 
L 661.380365 137.597915 
L 664.962684 135.489902 
L 668.545002 135.489902 
L 672.127321 135.489902 
L 675.709639 135.489902 
L 679.291958 122.841828 
L 682.874276 137.597915 
L 686.456595 137.597915 
L 690.038913 137.597915 
L 693.621232 139.705927 
L 697.20355 143.921952 
L 700.785868 143.921952 
" style="fill:none;stroke:#179c7d;stroke-linecap:round;stroke-width:2.25;"/>
   </g>
   <g id="line2d_35">
    <path clip-path="url(#p264ab04c99)" d="M 417.78271 129.165865 
L 421.365028 103.869717 
L 424.947347 133.38189 
L 428.529665 116.517791 
L 432.111983 97.54568 
L 435.694302 108.085742 
L 439.27662 116.517791 
L 442.858939 116.517791 
L 446.441257 131.273878 
L 450.023576 165.002075 
L 453.605894 192.406235 
L 457.188213 150.245989 
L 460.770531 112.301767 
L 464.35285 127.057853 
L 467.935168 124.949841 
L 471.517487 160.78605 
L 475.099805 150.245989 
L 478.682124 137.597915 
L 482.264442 158.678038 
L 485.84676 143.921952 
L 489.429079 141.813939 
L 493.011397 156.570026 
L 496.593716 160.78605 
L 500.176034 160.78605 
L 503.758353 143.921952 
L 507.340671 148.137976 
L 510.92299 181.866173 
L 514.505308 200.838284 
L 518.087627 202.946297 
L 521.669945 228.242445 
L 525.252264 238.782506 
L 528.834582 230.350457 
L 532.416901 238.782506 
L 535.999219 224.02642 
L 539.581537 255.646605 
L 543.163856 255.646605 
L 546.746174 228.242445 
L 550.328493 253.538593 
L 553.910811 221.918408 
L 557.49313 194.514247 
L 561.075448 194.514247 
L 564.657767 194.514247 
L 568.240085 194.514247 
L 571.822404 198.730272 
L 575.404722 198.730272 
L 578.987041 198.730272 
L 582.569359 215.594371 
L 586.151678 215.594371 
L 589.733996 215.594371 
L 593.316314 217.702383 
L 596.898633 217.702383 
L 600.480951 215.594371 
L 604.06327 219.810395 
L 607.645588 217.702383 
L 611.227907 219.810395 
L 614.810225 226.134432 
L 618.392544 228.242445 
L 621.974862 224.02642 
L 625.557181 221.918408 
L 629.139499 219.810395 
L 632.721818 221.918408 
L 636.304136 221.918408 
L 639.886455 226.134432 
L 643.468773 219.810395 
L 647.051091 219.810395 
L 650.63341 219.810395 
L 654.215728 219.810395 
L 657.798047 226.134432 
L 661.380365 228.242445 
L 664.962684 234.566482 
L 668.545002 251.43058 
L 672.127321 240.890519 
L 675.709639 249.322568 
L 679.291958 249.322568 
L 682.874276 242.998531 
L 686.456595 228.242445 
L 690.038913 230.350457 
L 693.621232 226.134432 
L 697.20355 230.350457 
L 700.785868 230.350457 
" style="fill:none;stroke:#006e92;stroke-linecap:round;stroke-width:2.25;"/>
   </g>
   <g id="line2d_36">
    <path clip-path="url(#p264ab04c99)" d="M 417.78271 158.678038 
L 421.365028 133.38189 
L 424.947347 143.921952 
L 428.529665 108.085742 
L 432.111983 97.54568 
L 435.694302 114.409779 
L 439.27662 131.273878 
L 442.858939 156.570026 
L 446.441257 181.866173 
L 450.023576 167.110087 
L 453.605894 196.62226 
L 457.188213 171.326112 
L 460.770531 143.921952 
L 464.35285 143.921952 
L 467.935168 169.218099 
L 471.517487 167.110087 
L 475.099805 160.78605 
L 478.682124 154.462013 
L 482.264442 116.517791 
L 485.84676 156.570026 
L 489.429079 171.326112 
L 493.011397 207.162321 
L 496.593716 200.838284 
L 500.176034 221.918408 
L 503.758353 196.62226 
L 507.340671 200.838284 
L 510.92299 177.650149 
L 514.505308 196.62226 
L 518.087627 196.62226 
L 521.669945 188.19021 
L 525.252264 175.542136 
L 528.834582 186.082198 
L 532.416901 167.110087 
L 535.999219 188.19021 
L 539.581537 230.350457 
L 543.163856 211.378346 
L 546.746174 190.298223 
L 550.328493 221.918408 
L 553.910811 259.86263 
L 557.49313 247.214556 
L 561.075448 238.782506 
L 564.657767 245.106543 
L 568.240085 236.674494 
L 571.822404 236.674494 
L 575.404722 234.566482 
L 578.987041 238.782506 
L 582.569359 247.214556 
L 586.151678 257.754617 
L 589.733996 255.646605 
L 593.316314 245.106543 
L 596.898633 247.214556 
L 600.480951 245.106543 
L 604.06327 245.106543 
L 607.645588 242.998531 
L 611.227907 232.458469 
L 614.810225 242.998531 
L 618.392544 245.106543 
L 621.974862 251.43058 
L 625.557181 249.322568 
L 629.139499 240.890519 
L 632.721818 242.998531 
L 636.304136 242.998531 
L 639.886455 242.998531 
L 643.468773 247.214556 
L 647.051091 245.106543 
L 650.63341 232.458469 
L 654.215728 232.458469 
L 657.798047 232.458469 
L 661.380365 240.890519 
L 664.962684 228.242445 
L 668.545002 226.134432 
L 672.127321 224.02642 
L 675.709639 224.02642 
L 679.291958 224.02642 
L 682.874276 221.918408 
L 686.456595 224.02642 
L 690.038913 211.378346 
L 693.621232 221.918408 
L 697.20355 232.458469 
L 700.785868 240.890519 
" style="fill:none;stroke:#25bae2;stroke-linecap:round;stroke-width:2.25;"/>
   </g>
   <g id="line2d_37">
    <path clip-path="url(#p264ab04c99)" d="M 503.758353 55.385434 
" style="fill:none;stroke:#179c7d;stroke-linecap:round;stroke-width:2.25;"/>
    <g clip-path="url(#p264ab04c99)">
     <use style="fill-opacity:0;stroke:#000000;" x="503.758353" xlink:href="#m628e6f63b7" y="55.385434"/>
    </g>
   </g>
   <g id="line2d_38">
    <path clip-path="url(#p264ab04c99)" d="M 432.111983 97.54568 
" style="fill:none;stroke:#006e92;stroke-linecap:round;stroke-width:2.25;"/>
    <g clip-path="url(#p264ab04c99)">
     <use style="fill-opacity:0;stroke:#000000;" x="432.111983" xlink:href="#m628e6f63b7" y="97.54568"/>
    </g>
   </g>
   <g id="patch_7">
    <path d="M 403.632552 299.704062 
L 403.632552 26.084062 
" style="fill:none;stroke:#cccccc;stroke-linecap:square;stroke-linejoin:miter;stroke-width:1.875;"/>
   </g>
   <g id="patch_8">
    <path d="M 403.632552 299.704062 
L 714.936026 299.704062 
" style="fill:none;stroke:#cccccc;stroke-linecap:square;stroke-linejoin:miter;stroke-width:1.875;"/>
   </g>
   <g id="text_25">
    <!-- 0.85 -->
    <g style="fill:#262626;" transform="translate(509.13183 49.061397)scale(0.18 -0.18)">
     <use xlink:href="#ArialMT-48"/>
     <use x="55.615234" xlink:href="#ArialMT-46"/>
     <use x="83.398438" xlink:href="#ArialMT-56"/>
     <use x="139.013672" xlink:href="#ArialMT-53"/>
    </g>
   </g>
   <g id="patch_9">
    <path d="M 570.664694 102.608586 
Q 503.283503 100.114138 435.902312 97.61969 
" style="fill:none;stroke:#000000;stroke-dasharray:1.5,2.475;stroke-dashoffset:0;stroke-linecap:round;stroke-width:1.5;"/>
   </g>
   <g id="text_26">
    <!-- 0.83 -->
    <g style="fill:#262626;" transform="translate(575.404722 108.085742)scale(0.18 -0.18)">
     <use xlink:href="#ArialMT-48"/>
     <use x="55.615234" xlink:href="#ArialMT-46"/>
     <use x="83.398438" xlink:href="#ArialMT-56"/>
     <use x="139.013672" xlink:href="#ArialMT-51"/>
    </g>
   </g>
   <g id="text_27">
    <!-- seeded -->
    <g style="fill:#262626;" transform="translate(529.76007 20.084062)scale(0.18 -0.18)">
     <defs>
      <path d="M 3.078125 15.484375 
L 11.765625 16.84375 
Q 12.5 11.625 15.84375 8.84375 
Q 19.1875 6.0625 25.203125 6.0625 
Q 31.25 6.0625 34.171875 8.515625 
Q 37.109375 10.984375 37.109375 14.3125 
Q 37.109375 17.28125 34.515625 19 
Q 32.71875 20.171875 25.53125 21.96875 
Q 15.875 24.421875 12.140625 26.203125 
Q 8.40625 27.984375 6.46875 31.125 
Q 4.546875 34.28125 4.546875 38.09375 
Q 4.546875 41.546875 6.125 44.5 
Q 7.71875 47.46875 10.453125 49.421875 
Q 12.5 50.921875 16.03125 51.96875 
Q 19.578125 53.03125 23.640625 53.03125 
Q 29.734375 53.03125 34.34375 51.265625 
Q 38.96875 49.515625 41.15625 46.5 
Q 43.359375 43.5 44.1875 38.484375 
L 35.59375 37.3125 
Q 35.015625 41.3125 32.203125 43.546875 
Q 29.390625 45.796875 24.265625 45.796875 
Q 18.21875 45.796875 15.625 43.796875 
Q 13.03125 41.796875 13.03125 39.109375 
Q 13.03125 37.40625 14.109375 36.03125 
Q 15.1875 34.625 17.484375 33.6875 
Q 18.796875 33.203125 25.25 31.453125 
Q 34.578125 28.953125 38.25 27.359375 
Q 41.9375 25.78125 44.03125 22.75 
Q 46.140625 19.734375 46.140625 15.234375 
Q 46.140625 10.84375 43.578125 6.953125 
Q 41.015625 3.078125 36.171875 0.953125 
Q 31.34375 -1.171875 25.25 -1.171875 
Q 15.140625 -1.171875 9.84375 3.03125 
Q 4.546875 7.234375 3.078125 15.484375 
z
" id="ArialMT-115"/>
     </defs>
     <use xlink:href="#ArialMT-115"/>
     <use x="50" xlink:href="#ArialMT-101"/>
     <use x="105.615234" xlink:href="#ArialMT-101"/>
     <use x="161.230469" xlink:href="#ArialMT-100"/>
     <use x="216.845703" xlink:href="#ArialMT-101"/>
     <use x="272.460938" xlink:href="#ArialMT-100"/>
    </g>
   </g>
  </g>
  <g id="legend_1">
   <g id="text_28">
    <!-- split -->
    <g style="fill:#262626;" transform="translate(731.880222 147.121328)scale(0.18 -0.18)">
     <defs>
      <path d="M 6.390625 0 
L 6.390625 71.578125 
L 15.1875 71.578125 
L 15.1875 0 
z
" id="ArialMT-108"/>
      <path d="M 6.640625 61.46875 
L 6.640625 71.578125 
L 15.4375 71.578125 
L 15.4375 61.46875 
z
M 6.640625 0 
L 6.640625 51.859375 
L 15.4375 51.859375 
L 15.4375 0 
z
" id="ArialMT-105"/>
      <path d="M 25.78125 7.859375 
L 27.046875 0.09375 
Q 23.34375 -0.6875 20.40625 -0.6875 
Q 15.625 -0.6875 12.984375 0.828125 
Q 10.359375 2.34375 9.28125 4.8125 
Q 8.203125 7.28125 8.203125 15.1875 
L 8.203125 45.015625 
L 1.765625 45.015625 
L 1.765625 51.859375 
L 8.203125 51.859375 
L 8.203125 64.703125 
L 16.9375 69.96875 
L 16.9375 51.859375 
L 25.78125 51.859375 
L 25.78125 45.015625 
L 16.9375 45.015625 
L 16.9375 14.703125 
Q 16.9375 10.9375 17.40625 9.859375 
Q 17.875 8.796875 18.921875 8.15625 
Q 19.96875 7.515625 21.921875 7.515625 
Q 23.390625 7.515625 25.78125 7.859375 
z
" id="ArialMT-116"/>
     </defs>
     <use xlink:href="#ArialMT-115"/>
     <use x="50" xlink:href="#ArialMT-112"/>
     <use x="105.615234" xlink:href="#ArialMT-108"/>
     <use x="127.832031" xlink:href="#ArialMT-105"/>
     <use x="150.048828" xlink:href="#ArialMT-116"/>
    </g>
   </g>
   <g id="line2d_39">
    <path d="M 720.19698 164.984219 
L 753.19698 164.984219 
" style="fill:none;stroke:#179c7d;stroke-linecap:round;stroke-width:2.25;"/>
   </g>
   <g id="line2d_40"/>
   <g id="text_29">
    <!-- a -->
    <g style="fill:#262626;" transform="translate(766.39698 170.759219)scale(0.165 -0.165)">
     <use xlink:href="#ArialMT-97"/>
    </g>
   </g>
   <g id="line2d_41">
    <path d="M 720.19698 188.323984 
L 753.19698 188.323984 
" style="fill:none;stroke:#006e92;stroke-linecap:round;stroke-width:2.25;"/>
   </g>
   <g id="line2d_42"/>
   <g id="text_30">
    <!-- b -->
    <g style="fill:#262626;" transform="translate(766.39698 194.098984)scale(0.165 -0.165)">
     <defs>
      <path d="M 14.703125 0 
L 6.546875 0 
L 6.546875 71.578125 
L 15.328125 71.578125 
L 15.328125 46.046875 
Q 20.90625 53.03125 29.546875 53.03125 
Q 34.328125 53.03125 38.59375 51.09375 
Q 42.875 49.171875 45.625 45.671875 
Q 48.390625 42.1875 49.953125 37.25 
Q 51.515625 32.328125 51.515625 26.703125 
Q 51.515625 13.375 44.921875 6.09375 
Q 38.328125 -1.171875 29.109375 -1.171875 
Q 19.921875 -1.171875 14.703125 6.5 
z
M 14.59375 26.3125 
Q 14.59375 17 17.140625 12.84375 
Q 21.296875 6.0625 28.375 6.0625 
Q 34.125 6.0625 38.328125 11.0625 
Q 42.53125 16.0625 42.53125 25.984375 
Q 42.53125 36.140625 38.5 40.96875 
Q 34.46875 45.796875 28.765625 45.796875 
Q 23 45.796875 18.796875 40.796875 
Q 14.59375 35.796875 14.59375 26.3125 
z
" id="ArialMT-98"/>
     </defs>
     <use xlink:href="#ArialMT-98"/>
    </g>
   </g>
   <g id="line2d_43">
    <path d="M 720.19698 211.66375 
L 753.19698 211.66375 
" style="fill:none;stroke:#25bae2;stroke-linecap:round;stroke-width:2.25;"/>
   </g>
   <g id="line2d_44"/>
   <g id="text_31">
    <!-- c -->
    <g style="fill:#262626;" transform="translate(766.39698 217.43875)scale(0.165 -0.165)">
     <use xlink:href="#ArialMT-99"/>
    </g>
   </g>
  </g>
 </g>
 <defs>
  <clipPath id="pda47692f7f">
   <rect height="273.62" width="311.303475" x="72.722109" y="26.084062"/>
  </clipPath>
  <clipPath id="p264ab04c99">
   <rect height="273.62" width="311.303475" x="403.632552" y="26.084062"/>
  </clipPath>
 </defs>
</svg>
