<?xml version="1.0" encoding="utf-8" standalone="no"?>
<!DOCTYPE svg PUBLIC "-//W3C//DTD SVG 1.1//EN"
  "http://www.w3.org/Graphics/SVG/1.1/DTD/svg11.dtd">
<!-- Created with matplotlib (https://matplotlib.org/) -->
<svg height="355.008828pt" version="1.1" viewBox="0 0 1868.35397 355.008828" width="1868.35397pt" xmlns="http://www.w3.org/2000/svg" xmlns:xlink="http://www.w3.org/1999/xlink">
 <metadata>
  <rdf:RDF xmlns:cc="http://creativecommons.org/ns#" xmlns:dc="http://purl.org/dc/elements/1.1/" xmlns:rdf="http://www.w3.org/1999/02/22-rdf-syntax-ns#">
   <cc:Work>
    <dc:type rdf:resource="http://purl.org/dc/dcmitype/StillImage"/>
    <dc:date>2021-08-19T16:39:41.920213</dc:date>
    <dc:format>image/svg+xml</dc:format>
    <dc:creator>
     <cc:Agent>
      <dc:title>Matplotlib v3.3.4, https://matplotlib.org/</dc:title>
     </cc:Agent>
    </dc:creator>
   </cc:Work>
  </rdf:RDF>
 </metadata>
 <defs>
  <style type="text/css">*{stroke-linecap:butt;stroke-linejoin:round;}</style>
 </defs>
 <g id="figure_1">
  <g id="patch_1">
   <path d="M 0 355.008828 
L 1868.35397 355.008828 
L 1868.35397 0 
L 0 0 
z
" style="fill:#ffffff;"/>
  </g>
  <g id="axes_1">
   <g id="patch_2">
    <path d="M 63.546563 299.7575 
L 386.620628 299.7575 
L 386.620628 26.1375 
L 63.546563 26.1375 
z
" style="fill:#ffffff;"/>
   </g>
   <g id="matplotlib.axis_1">
    <g id="xtick_1">
     <g id="line2d_1">
      <path clip-path="url(#pccf4bcf8c7)" d="M 70.700883 299.7575 
L 70.700883 26.1375 
" style="fill:none;stroke:#cccccc;stroke-linecap:round;stroke-width:1.5;"/>
     </g>
     <g id="text_1">
      <!-- 0 -->
      <g style="fill:#262626;" transform="translate(66.11311 324.067891)scale(0.165 -0.165)">
       <defs>
        <path d="M 4.15625 35.296875 
Q 4.15625 48 6.765625 55.734375 
Q 9.375 63.484375 14.515625 67.671875 
Q 19.671875 71.875 27.484375 71.875 
Q 33.25 71.875 37.59375 69.546875 
Q 41.9375 67.234375 44.765625 62.859375 
Q 47.609375 58.5 49.21875 52.21875 
Q 50.828125 45.953125 50.828125 35.296875 
Q 50.828125 22.703125 48.234375 14.96875 
Q 45.65625 7.234375 40.5 3 
Q 35.359375 -1.21875 27.484375 -1.21875 
Q 17.140625 -1.21875 11.234375 6.203125 
Q 4.15625 15.140625 4.15625 35.296875 
z
M 13.1875 35.296875 
Q 13.1875 17.671875 17.3125 11.828125 
Q 21.4375 6 27.484375 6 
Q 33.546875 6 37.671875 11.859375 
Q 41.796875 17.71875 41.796875 35.296875 
Q 41.796875 52.984375 37.671875 58.78125 
Q 33.546875 64.59375 27.390625 64.59375 
Q 21.34375 64.59375 17.71875 59.46875 
Q 13.1875 52.9375 13.1875 35.296875 
z
" id="ArialMT-48"/>
       </defs>
       <use xlink:href="#ArialMT-48"/>
      </g>
     </g>
    </g>
    <g id="xtick_2">
     <g id="line2d_2">
      <path clip-path="url(#pccf4bcf8c7)" d="M 146.009523 299.7575 
L 146.009523 26.1375 
" style="fill:none;stroke:#cccccc;stroke-linecap:round;stroke-width:1.5;"/>
     </g>
     <g id="text_2">
      <!-- 10 -->
      <g style="fill:#262626;" transform="translate(136.833976 324.067891)scale(0.165 -0.165)">
       <defs>
        <path d="M 37.25 0 
L 28.46875 0 
L 28.46875 56 
Q 25.296875 52.984375 20.140625 49.953125 
Q 14.984375 46.921875 10.890625 45.40625 
L 10.890625 53.90625 
Q 18.265625 57.375 23.78125 62.296875 
Q 29.296875 67.234375 31.59375 71.875 
L 37.25 71.875 
z
" id="ArialMT-49"/>
       </defs>
       <use xlink:href="#ArialMT-49"/>
       <use x="55.615234" xlink:href="#ArialMT-48"/>
      </g>
     </g>
    </g>
    <g id="xtick_3">
     <g id="line2d_3">
      <path clip-path="url(#pccf4bcf8c7)" d="M 221.318163 299.7575 
L 221.318163 26.1375 
" style="fill:none;stroke:#cccccc;stroke-linecap:round;stroke-width:1.5;"/>
     </g>
     <g id="text_3">
      <!-- 20 -->
      <g style="fill:#262626;" transform="translate(212.142616 324.067891)scale(0.165 -0.165)">
       <defs>
        <path d="M 50.34375 8.453125 
L 50.34375 0 
L 3.03125 0 
Q 2.9375 3.171875 4.046875 6.109375 
Q 5.859375 10.9375 9.828125 15.625 
Q 13.8125 20.3125 21.34375 26.46875 
Q 33.015625 36.03125 37.109375 41.625 
Q 41.21875 47.21875 41.21875 52.203125 
Q 41.21875 57.421875 37.46875 61 
Q 33.734375 64.59375 27.734375 64.59375 
Q 21.390625 64.59375 17.578125 60.78125 
Q 13.765625 56.984375 13.71875 50.25 
L 4.6875 51.171875 
Q 5.609375 61.28125 11.65625 66.578125 
Q 17.71875 71.875 27.9375 71.875 
Q 38.234375 71.875 44.234375 66.15625 
Q 50.25 60.453125 50.25 52 
Q 50.25 47.703125 48.484375 43.546875 
Q 46.734375 39.40625 42.65625 34.8125 
Q 38.578125 30.21875 29.109375 22.21875 
Q 21.1875 15.578125 18.9375 13.203125 
Q 16.703125 10.84375 15.234375 8.453125 
z
" id="ArialMT-50"/>
       </defs>
       <use xlink:href="#ArialMT-50"/>
       <use x="55.615234" xlink:href="#ArialMT-48"/>
      </g>
     </g>
    </g>
    <g id="xtick_4">
     <g id="line2d_4">
      <path clip-path="url(#pccf4bcf8c7)" d="M 296.626803 299.7575 
L 296.626803 26.1375 
" style="fill:none;stroke:#cccccc;stroke-linecap:round;stroke-width:1.5;"/>
     </g>
     <g id="text_4">
      <!-- 30 -->
      <g style="fill:#262626;" transform="translate(287.451256 324.067891)scale(0.165 -0.165)">
       <defs>
        <path d="M 4.203125 18.890625 
L 12.984375 20.0625 
Q 14.5 12.59375 18.140625 9.296875 
Q 21.78125 6 27 6 
Q 33.203125 6 37.46875 10.296875 
Q 41.75 14.59375 41.75 20.953125 
Q 41.75 27 37.796875 30.921875 
Q 33.84375 34.859375 27.734375 34.859375 
Q 25.25 34.859375 21.53125 33.890625 
L 22.515625 41.609375 
Q 23.390625 41.5 23.921875 41.5 
Q 29.546875 41.5 34.03125 44.421875 
Q 38.53125 47.359375 38.53125 53.46875 
Q 38.53125 58.296875 35.25 61.46875 
Q 31.984375 64.65625 26.8125 64.65625 
Q 21.6875 64.65625 18.265625 61.421875 
Q 14.84375 58.203125 13.875 51.765625 
L 5.078125 53.328125 
Q 6.6875 62.15625 12.390625 67.015625 
Q 18.109375 71.875 26.609375 71.875 
Q 32.46875 71.875 37.390625 69.359375 
Q 42.328125 66.84375 44.9375 62.5 
Q 47.5625 58.15625 47.5625 53.265625 
Q 47.5625 48.640625 45.0625 44.828125 
Q 42.578125 41.015625 37.703125 38.765625 
Q 44.046875 37.3125 47.5625 32.6875 
Q 51.078125 28.078125 51.078125 21.140625 
Q 51.078125 11.765625 44.234375 5.25 
Q 37.40625 -1.265625 26.953125 -1.265625 
Q 17.53125 -1.265625 11.296875 4.34375 
Q 5.078125 9.96875 4.203125 18.890625 
z
" id="ArialMT-51"/>
       </defs>
       <use xlink:href="#ArialMT-51"/>
       <use x="55.615234" xlink:href="#ArialMT-48"/>
      </g>
     </g>
    </g>
    <g id="xtick_5">
     <g id="line2d_5">
      <path clip-path="url(#pccf4bcf8c7)" d="M 371.935443 299.7575 
L 371.935443 26.1375 
" style="fill:none;stroke:#cccccc;stroke-linecap:round;stroke-width:1.5;"/>
     </g>
     <g id="text_5">
      <!-- 40 -->
      <g style="fill:#262626;" transform="translate(362.759896 324.067891)scale(0.165 -0.165)">
       <defs>
        <path d="M 32.328125 0 
L 32.328125 17.140625 
L 1.265625 17.140625 
L 1.265625 25.203125 
L 33.9375 71.578125 
L 41.109375 71.578125 
L 41.109375 25.203125 
L 50.78125 25.203125 
L 50.78125 17.140625 
L 41.109375 17.140625 
L 41.109375 0 
z
M 32.328125 25.203125 
L 32.328125 57.46875 
L 9.90625 25.203125 
z
" id="ArialMT-52"/>
       </defs>
       <use xlink:href="#ArialMT-52"/>
       <use x="55.615234" xlink:href="#ArialMT-48"/>
      </g>
     </g>
    </g>
    <g id="text_6">
     <!-- epoch -->
     <g style="fill:#262626;" transform="translate(200.56422 344.231328)scale(0.18 -0.18)">
      <defs>
       <path d="M 42.09375 16.703125 
L 51.171875 15.578125 
Q 49.03125 7.625 43.21875 3.21875 
Q 37.40625 -1.171875 28.375 -1.171875 
Q 17 -1.171875 10.328125 5.828125 
Q 3.65625 12.84375 3.65625 25.484375 
Q 3.65625 38.578125 10.390625 45.796875 
Q 17.140625 53.03125 27.875 53.03125 
Q 38.28125 53.03125 44.875 45.953125 
Q 51.46875 38.875 51.46875 26.03125 
Q 51.46875 25.25 51.421875 23.6875 
L 12.75 23.6875 
Q 13.234375 15.140625 17.578125 10.59375 
Q 21.921875 6.0625 28.421875 6.0625 
Q 33.25 6.0625 36.671875 8.59375 
Q 40.09375 11.140625 42.09375 16.703125 
z
M 13.234375 30.90625 
L 42.1875 30.90625 
Q 41.609375 37.453125 38.875 40.71875 
Q 34.671875 45.796875 27.984375 45.796875 
Q 21.921875 45.796875 17.796875 41.75 
Q 13.671875 37.703125 13.234375 30.90625 
z
" id="ArialMT-101"/>
       <path d="M 6.59375 -19.875 
L 6.59375 51.859375 
L 14.59375 51.859375 
L 14.59375 45.125 
Q 17.4375 49.078125 21 51.046875 
Q 24.5625 53.03125 29.640625 53.03125 
Q 36.28125 53.03125 41.359375 49.609375 
Q 46.4375 46.1875 49.015625 39.953125 
Q 51.609375 33.734375 51.609375 26.3125 
Q 51.609375 18.359375 48.75 11.984375 
Q 45.90625 5.609375 40.453125 2.21875 
Q 35.015625 -1.171875 29 -1.171875 
Q 24.609375 -1.171875 21.109375 0.6875 
Q 17.625 2.546875 15.375 5.375 
L 15.375 -19.875 
z
M 14.546875 25.640625 
Q 14.546875 15.625 18.59375 10.84375 
Q 22.65625 6.0625 28.421875 6.0625 
Q 34.28125 6.0625 38.453125 11.015625 
Q 42.625 15.96875 42.625 26.375 
Q 42.625 36.28125 38.546875 41.203125 
Q 34.46875 46.140625 28.8125 46.140625 
Q 23.1875 46.140625 18.859375 40.890625 
Q 14.546875 35.640625 14.546875 25.640625 
z
" id="ArialMT-112"/>
       <path d="M 3.328125 25.921875 
Q 3.328125 40.328125 11.328125 47.265625 
Q 18.015625 53.03125 27.640625 53.03125 
Q 38.328125 53.03125 45.109375 46.015625 
Q 51.90625 39.015625 51.90625 26.65625 
Q 51.90625 16.65625 48.90625 10.90625 
Q 45.90625 5.171875 40.15625 2 
Q 34.421875 -1.171875 27.640625 -1.171875 
Q 16.75 -1.171875 10.03125 5.8125 
Q 3.328125 12.796875 3.328125 25.921875 
z
M 12.359375 25.921875 
Q 12.359375 15.96875 16.703125 11.015625 
Q 21.046875 6.0625 27.640625 6.0625 
Q 34.1875 6.0625 38.53125 11.03125 
Q 42.875 16.015625 42.875 26.21875 
Q 42.875 35.84375 38.5 40.796875 
Q 34.125 45.75 27.640625 45.75 
Q 21.046875 45.75 16.703125 40.8125 
Q 12.359375 35.890625 12.359375 25.921875 
z
" id="ArialMT-111"/>
       <path d="M 40.4375 19 
L 49.078125 17.875 
Q 47.65625 8.9375 41.8125 3.875 
Q 35.984375 -1.171875 27.484375 -1.171875 
Q 16.84375 -1.171875 10.375 5.78125 
Q 3.90625 12.75 3.90625 25.734375 
Q 3.90625 34.125 6.6875 40.421875 
Q 9.46875 46.734375 15.15625 49.875 
Q 20.84375 53.03125 27.546875 53.03125 
Q 35.984375 53.03125 41.359375 48.75 
Q 46.734375 44.484375 48.25 36.625 
L 39.703125 35.296875 
Q 38.484375 40.53125 35.375 43.15625 
Q 32.28125 45.796875 27.875 45.796875 
Q 21.234375 45.796875 17.078125 41.03125 
Q 12.9375 36.28125 12.9375 25.984375 
Q 12.9375 15.53125 16.9375 10.796875 
Q 20.953125 6.0625 27.390625 6.0625 
Q 32.5625 6.0625 36.03125 9.234375 
Q 39.5 12.40625 40.4375 19 
z
" id="ArialMT-99"/>
       <path d="M 6.59375 0 
L 6.59375 71.578125 
L 15.375 71.578125 
L 15.375 45.90625 
Q 21.53125 53.03125 30.90625 53.03125 
Q 36.671875 53.03125 40.921875 50.75 
Q 45.171875 48.484375 47 44.484375 
Q 48.828125 40.484375 48.828125 32.859375 
L 48.828125 0 
L 40.046875 0 
L 40.046875 32.859375 
Q 40.046875 39.453125 37.1875 42.453125 
Q 34.328125 45.453125 29.109375 45.453125 
Q 25.203125 45.453125 21.75 43.421875 
Q 18.3125 41.40625 16.84375 37.9375 
Q 15.375 34.46875 15.375 28.375 
L 15.375 0 
z
" id="ArialMT-104"/>
      </defs>
      <use xlink:href="#ArialMT-101"/>
      <use x="55.615234" xlink:href="#ArialMT-112"/>
      <use x="111.230469" xlink:href="#ArialMT-111"/>
      <use x="166.845703" xlink:href="#ArialMT-99"/>
      <use x="216.845703" xlink:href="#ArialMT-104"/>
     </g>
    </g>
   </g>
   <g id="matplotlib.axis_2">
    <g id="ytick_1">
     <g id="line2d_6">
      <path clip-path="url(#pccf4bcf8c7)" d="M 63.546563 299.13845 
L 386.620628 299.13845 
" style="fill:none;stroke:#cccccc;stroke-linecap:round;stroke-width:1.5;"/>
     </g>
     <g id="text_7">
      <!-- 0.0 -->
      <g style="fill:#262626;" transform="translate(28.111563 305.043646)scale(0.165 -0.165)">
       <defs>
        <path d="M 9.078125 0 
L 9.078125 10.015625 
L 19.09375 10.015625 
L 19.09375 0 
z
" id="ArialMT-46"/>
       </defs>
       <use xlink:href="#ArialMT-48"/>
       <use x="55.615234" xlink:href="#ArialMT-46"/>
       <use x="83.398438" xlink:href="#ArialMT-48"/>
      </g>
     </g>
    </g>
    <g id="ytick_2">
     <g id="line2d_7">
      <path clip-path="url(#pccf4bcf8c7)" d="M 63.546563 242.861198 
L 386.620628 242.861198 
" style="fill:none;stroke:#cccccc;stroke-linecap:round;stroke-width:1.5;"/>
     </g>
     <g id="text_8">
      <!-- 0.2 -->
      <g style="fill:#262626;" transform="translate(28.111563 248.766393)scale(0.165 -0.165)">
       <use xlink:href="#ArialMT-48"/>
       <use x="55.615234" xlink:href="#ArialMT-46"/>
       <use x="83.398438" xlink:href="#ArialMT-50"/>
      </g>
     </g>
    </g>
    <g id="ytick_3">
     <g id="line2d_8">
      <path clip-path="url(#pccf4bcf8c7)" d="M 63.546563 186.583946 
L 386.620628 186.583946 
" style="fill:none;stroke:#cccccc;stroke-linecap:round;stroke-width:1.5;"/>
     </g>
     <g id="text_9">
      <!-- 0.4 -->
      <g style="fill:#262626;" transform="translate(28.111563 192.489141)scale(0.165 -0.165)">
       <use xlink:href="#ArialMT-48"/>
       <use x="55.615234" xlink:href="#ArialMT-46"/>
       <use x="83.398438" xlink:href="#ArialMT-52"/>
      </g>
     </g>
    </g>
    <g id="ytick_4">
     <g id="line2d_9">
      <path clip-path="url(#pccf4bcf8c7)" d="M 63.546563 130.306694 
L 386.620628 130.306694 
" style="fill:none;stroke:#cccccc;stroke-linecap:round;stroke-width:1.5;"/>
     </g>
     <g id="text_10">
      <!-- 0.6 -->
      <g style="fill:#262626;" transform="translate(28.111563 136.211889)scale(0.165 -0.165)">
       <defs>
        <path d="M 49.75 54.046875 
L 41.015625 53.375 
Q 39.84375 58.546875 37.703125 60.890625 
Q 34.125 64.65625 28.90625 64.65625 
Q 24.703125 64.65625 21.53125 62.3125 
Q 17.390625 59.28125 14.984375 53.46875 
Q 12.59375 47.65625 12.5 36.921875 
Q 15.671875 41.75 20.265625 44.09375 
Q 24.859375 46.4375 29.890625 46.4375 
Q 38.671875 46.4375 44.84375 39.96875 
Q 51.03125 33.5 51.03125 23.25 
Q 51.03125 16.5 48.125 10.71875 
Q 45.21875 4.9375 40.140625 1.859375 
Q 35.0625 -1.21875 28.609375 -1.21875 
Q 17.625 -1.21875 10.6875 6.859375 
Q 3.765625 14.9375 3.765625 33.5 
Q 3.765625 54.25 11.421875 63.671875 
Q 18.109375 71.875 29.4375 71.875 
Q 37.890625 71.875 43.28125 67.140625 
Q 48.6875 62.40625 49.75 54.046875 
z
M 13.875 23.1875 
Q 13.875 18.65625 15.796875 14.5 
Q 17.71875 10.359375 21.1875 8.171875 
Q 24.65625 6 28.46875 6 
Q 34.03125 6 38.03125 10.484375 
Q 42.046875 14.984375 42.046875 22.703125 
Q 42.046875 30.125 38.078125 34.390625 
Q 34.125 38.671875 28.125 38.671875 
Q 22.171875 38.671875 18.015625 34.390625 
Q 13.875 30.125 13.875 23.1875 
z
" id="ArialMT-54"/>
       </defs>
       <use xlink:href="#ArialMT-48"/>
       <use x="55.615234" xlink:href="#ArialMT-46"/>
       <use x="83.398438" xlink:href="#ArialMT-54"/>
      </g>
     </g>
    </g>
    <g id="ytick_5">
     <g id="line2d_10">
      <path clip-path="url(#pccf4bcf8c7)" d="M 63.546563 74.029442 
L 386.620628 74.029442 
" style="fill:none;stroke:#cccccc;stroke-linecap:round;stroke-width:1.5;"/>
     </g>
     <g id="text_11">
      <!-- 0.8 -->
      <g style="fill:#262626;" transform="translate(28.111563 79.934637)scale(0.165 -0.165)">
       <defs>
        <path d="M 17.671875 38.8125 
Q 12.203125 40.828125 9.5625 44.53125 
Q 6.9375 48.25 6.9375 53.421875 
Q 6.9375 61.234375 12.546875 66.546875 
Q 18.171875 71.875 27.484375 71.875 
Q 36.859375 71.875 42.578125 66.421875 
Q 48.296875 60.984375 48.296875 53.171875 
Q 48.296875 48.1875 45.671875 44.5 
Q 43.0625 40.828125 37.75 38.8125 
Q 44.34375 36.671875 47.78125 31.875 
Q 51.21875 27.09375 51.21875 20.453125 
Q 51.21875 11.28125 44.71875 5.03125 
Q 38.234375 -1.21875 27.640625 -1.21875 
Q 17.046875 -1.21875 10.546875 5.046875 
Q 4.046875 11.328125 4.046875 20.703125 
Q 4.046875 27.6875 7.59375 32.390625 
Q 11.140625 37.109375 17.671875 38.8125 
z
M 15.921875 53.71875 
Q 15.921875 48.640625 19.1875 45.40625 
Q 22.46875 42.1875 27.6875 42.1875 
Q 32.765625 42.1875 36.015625 45.375 
Q 39.265625 48.578125 39.265625 53.21875 
Q 39.265625 58.0625 35.90625 61.359375 
Q 32.5625 64.65625 27.59375 64.65625 
Q 22.5625 64.65625 19.234375 61.421875 
Q 15.921875 58.203125 15.921875 53.71875 
z
M 13.09375 20.65625 
Q 13.09375 16.890625 14.875 13.375 
Q 16.65625 9.859375 20.171875 7.921875 
Q 23.6875 6 27.734375 6 
Q 34.03125 6 38.125 10.046875 
Q 42.234375 14.109375 42.234375 20.359375 
Q 42.234375 26.703125 38.015625 30.859375 
Q 33.796875 35.015625 27.4375 35.015625 
Q 21.234375 35.015625 17.15625 30.90625 
Q 13.09375 26.8125 13.09375 20.65625 
z
" id="ArialMT-56"/>
       </defs>
       <use xlink:href="#ArialMT-48"/>
       <use x="55.615234" xlink:href="#ArialMT-46"/>
       <use x="83.398438" xlink:href="#ArialMT-56"/>
      </g>
     </g>
    </g>
    <g id="text_12">
     <!-- AP@50 -->
     <g style="fill:#262626;" transform="translate(20.323125 194.100156)rotate(-90)scale(0.18 -0.18)">
      <defs>
       <path d="M -0.140625 0 
L 27.34375 71.578125 
L 37.546875 71.578125 
L 66.84375 0 
L 56.0625 0 
L 47.703125 21.6875 
L 17.78125 21.6875 
L 9.90625 0 
z
M 20.515625 29.390625 
L 44.78125 29.390625 
L 37.3125 49.21875 
Q 33.890625 58.25 32.234375 64.0625 
Q 30.859375 57.171875 28.375 50.390625 
z
" id="ArialMT-65"/>
       <path d="M 7.71875 0 
L 7.71875 71.578125 
L 34.71875 71.578125 
Q 41.84375 71.578125 45.609375 70.90625 
Q 50.875 70.015625 54.4375 67.546875 
Q 58.015625 65.09375 60.1875 60.640625 
Q 62.359375 56.203125 62.359375 50.875 
Q 62.359375 41.75 56.546875 35.421875 
Q 50.734375 29.109375 35.546875 29.109375 
L 17.1875 29.109375 
L 17.1875 0 
z
M 17.1875 37.546875 
L 35.6875 37.546875 
Q 44.875 37.546875 48.734375 40.96875 
Q 52.59375 44.390625 52.59375 50.59375 
Q 52.59375 55.078125 50.3125 58.265625 
Q 48.046875 61.46875 44.34375 62.5 
Q 41.9375 63.140625 35.5 63.140625 
L 17.1875 63.140625 
z
" id="ArialMT-80"/>
       <path d="M 56.6875 7.953125 
Q 53.515625 4.296875 49.578125 2.078125 
Q 45.65625 -0.140625 41.703125 -0.140625 
Q 37.359375 -0.140625 33.25 2.390625 
Q 29.15625 4.9375 26.59375 10.203125 
Q 24.03125 15.484375 24.03125 21.78125 
Q 24.03125 29.546875 28 37.328125 
Q 31.984375 45.125 37.890625 49.03125 
Q 43.796875 52.9375 49.359375 52.9375 
Q 53.609375 52.9375 57.46875 50.703125 
Q 61.328125 48.484375 64.109375 43.953125 
L 65.765625 51.515625 
L 74.515625 51.515625 
L 67.484375 18.75 
Q 66.015625 11.921875 66.015625 11.1875 
Q 66.015625 9.859375 67.015625 8.90625 
Q 68.015625 7.953125 69.4375 7.953125 
Q 72.015625 7.953125 76.21875 10.9375 
Q 81.78125 14.84375 85.03125 21.40625 
Q 88.28125 27.984375 88.28125 34.96875 
Q 88.28125 43.109375 84.109375 50.1875 
Q 79.9375 57.28125 71.65625 61.515625 
Q 63.375 65.765625 53.375 65.765625 
Q 41.9375 65.765625 32.484375 60.421875 
Q 23.046875 55.078125 17.84375 45.09375 
Q 12.640625 35.109375 12.640625 23.6875 
Q 12.640625 11.71875 17.84375 3.078125 
Q 23.046875 -5.5625 32.875 -9.6875 
Q 42.71875 -13.8125 54.6875 -13.8125 
Q 67.484375 -13.8125 76.125 -9.515625 
Q 84.765625 -5.21875 89.0625 0.921875 
L 97.90625 0.921875 
Q 95.40625 -4.203125 89.34375 -9.515625 
Q 83.296875 -14.84375 74.953125 -17.9375 
Q 66.609375 -21.046875 54.828125 -21.046875 
Q 44 -21.046875 34.84375 -18.265625 
Q 25.6875 -15.484375 19.234375 -9.890625 
Q 12.796875 -4.296875 9.515625 2.984375 
Q 5.421875 12.203125 5.421875 22.90625 
Q 5.421875 34.8125 10.296875 45.609375 
Q 16.265625 58.84375 27.21875 65.875 
Q 38.1875 72.90625 53.8125 72.90625 
Q 65.921875 72.90625 75.5625 67.9375 
Q 85.203125 62.984375 90.765625 53.171875 
Q 95.515625 44.734375 95.515625 34.8125 
Q 95.515625 20.65625 85.546875 9.671875 
Q 76.65625 -0.203125 66.109375 -0.203125 
Q 62.75 -0.203125 60.671875 0.828125 
Q 58.59375 1.859375 57.625 3.765625 
Q 56.984375 4.984375 56.6875 7.953125 
z
M 33.0625 21.1875 
Q 33.0625 14.5 36.234375 10.78125 
Q 39.40625 7.078125 43.5 7.078125 
Q 46.234375 7.078125 49.265625 8.71875 
Q 52.296875 10.359375 55.046875 13.578125 
Q 57.8125 16.796875 59.5625 21.75 
Q 61.328125 26.703125 61.328125 31.6875 
Q 61.328125 38.328125 58.03125 41.984375 
Q 54.734375 45.65625 50 45.65625 
Q 46.875 45.65625 44.109375 44.0625 
Q 41.359375 42.484375 38.765625 38.96875 
Q 36.1875 35.453125 34.625 30.421875 
Q 33.0625 25.390625 33.0625 21.1875 
z
" id="ArialMT-64"/>
       <path d="M 4.15625 18.75 
L 13.375 19.53125 
Q 14.40625 12.796875 18.140625 9.390625 
Q 21.875 6 27.15625 6 
Q 33.5 6 37.890625 10.78125 
Q 42.28125 15.578125 42.28125 23.484375 
Q 42.28125 31 38.0625 35.34375 
Q 33.84375 39.703125 27 39.703125 
Q 22.75 39.703125 19.328125 37.765625 
Q 15.921875 35.84375 13.96875 32.765625 
L 5.71875 33.84375 
L 12.640625 70.609375 
L 48.25 70.609375 
L 48.25 62.203125 
L 19.671875 62.203125 
L 15.828125 42.96875 
Q 22.265625 47.46875 29.34375 47.46875 
Q 38.71875 47.46875 45.15625 40.96875 
Q 51.609375 34.46875 51.609375 24.265625 
Q 51.609375 14.546875 45.953125 7.46875 
Q 39.0625 -1.21875 27.15625 -1.21875 
Q 17.390625 -1.21875 11.203125 4.25 
Q 5.03125 9.71875 4.15625 18.75 
z
" id="ArialMT-53"/>
      </defs>
      <use xlink:href="#ArialMT-65"/>
      <use x="66.699219" xlink:href="#ArialMT-80"/>
      <use x="133.398438" xlink:href="#ArialMT-64"/>
      <use x="234.912109" xlink:href="#ArialMT-53"/>
      <use x="290.527344" xlink:href="#ArialMT-48"/>
     </g>
    </g>
   </g>
   <g id="line2d_11">
    <path clip-path="url(#pccf4bcf8c7)" d="M 78.231747 156.757002 
L 85.762611 154.505912 
L 93.293475 160.133637 
L 100.824339 167.731066 
L 108.355203 174.765723 
L 115.886067 179.267903 
L 123.416931 189.116422 
L 130.947795 196.713851 
L 138.478659 201.216031 
L 146.009523 202.341577 
L 153.540387 197.55801 
L 161.071251 198.683555 
L 168.602115 201.497418 
L 176.132979 203.185735 
L 183.663843 204.874053 
L 191.194707 205.999598 
L 198.725571 208.532074 
L 206.256435 208.813461 
L 213.787299 207.406529 
L 221.318163 211.064551 
L 228.849027 209.094847 
L 236.379891 209.376233 
L 243.910755 213.878413 
L 251.441619 211.345937 
L 258.972483 209.657619 
L 266.503347 211.908709 
L 274.034211 212.752868 
L 281.565075 214.722572 
L 289.095939 215.003958 
L 296.626803 216.973662 
L 304.157667 218.099207 
L 311.688531 219.224752 
L 319.219395 220.631683 
L 326.750259 221.194456 
L 334.281123 222.320001 
L 341.811987 230.198816 
L 349.342851 225.41525 
L 356.873715 224.008319 
L 364.404579 225.978022 
L 371.935443 227.384954 
" style="fill:none;stroke:#179c7d;stroke-linecap:round;stroke-width:2.25;"/>
   </g>
   <g id="line2d_12">
    <path clip-path="url(#pccf4bcf8c7)" d="M 78.231747 151.973436 
L 85.762611 147.189869 
L 93.293475 146.345711 
L 100.824339 139.029668 
L 108.355203 135.934419 
L 115.886067 134.808874 
L 123.416931 135.09026 
L 130.947795 133.964715 
L 138.478659 132.276398 
L 146.009523 132.276398 
L 153.540387 131.713625 
L 161.071251 132.276398 
L 168.602115 131.995011 
L 176.132979 131.713625 
L 183.663843 132.557784 
L 191.194707 131.995011 
L 198.725571 131.995011 
L 206.256435 131.713625 
L 213.787299 131.995011 
L 221.318163 132.83917 
L 228.849027 132.83917 
L 236.379891 132.557784 
L 243.910755 131.432239 
L 251.441619 131.150853 
L 258.972483 131.432239 
L 266.503347 130.306694 
L 274.034211 131.150853 
L 281.565075 131.995011 
L 289.095939 131.995011 
L 296.626803 130.58808 
L 304.157667 130.869466 
L 311.688531 131.150853 
L 319.219395 131.432239 
L 326.750259 131.432239 
L 334.281123 131.432239 
L 341.811987 132.83917 
L 349.342851 132.276398 
L 356.873715 132.557784 
L 364.404579 132.83917 
L 371.935443 132.557784 
" style="fill:none;stroke:#006e92;stroke-linecap:round;stroke-width:2.25;"/>
   </g>
   <g id="line2d_13">
    <path clip-path="url(#pccf4bcf8c7)" d="M 78.231747 151.69205 
L 85.762611 149.440959 
L 93.293475 147.189869 
L 100.824339 142.124917 
L 108.355203 137.622737 
L 115.886067 136.778578 
L 123.416931 135.371646 
L 130.947795 135.934419 
L 138.478659 134.527488 
L 146.009523 134.246101 
L 153.540387 133.401943 
L 161.071251 134.246101 
L 168.602115 133.683329 
L 176.132979 133.964715 
L 183.663843 133.964715 
L 191.194707 133.401943 
L 198.725571 133.120556 
L 206.256435 132.557784 
L 213.787299 133.401943 
L 221.318163 133.401943 
L 228.849027 133.964715 
L 236.379891 134.246101 
L 243.910755 132.83917 
L 251.441619 132.83917 
L 258.972483 132.557784 
L 266.503347 132.557784 
L 274.034211 132.276398 
L 281.565075 132.276398 
L 289.095939 133.401943 
L 296.626803 131.713625 
L 304.157667 131.432239 
L 311.688531 131.995011 
L 319.219395 132.276398 
L 326.750259 132.557784 
L 334.281123 132.83917 
L 341.811987 132.83917 
L 349.342851 132.83917 
L 356.873715 132.557784 
L 364.404579 133.401943 
L 371.935443 134.246101 
" style="fill:none;stroke:#25bae2;stroke-linecap:round;stroke-width:2.25;"/>
   </g>
   <g id="line2d_14"/>
   <g id="line2d_15"/>
   <g id="line2d_16"/>
   <g id="patch_3">
    <path d="M 63.546563 299.7575 
L 63.546563 26.1375 
" style="fill:none;stroke:#cccccc;stroke-linecap:square;stroke-linejoin:miter;stroke-width:1.875;"/>
   </g>
   <g id="patch_4">
    <path d="M 63.546563 299.7575 
L 386.620628 299.7575 
" style="fill:none;stroke:#cccccc;stroke-linecap:square;stroke-linejoin:miter;stroke-width:1.875;"/>
   </g>
   <g id="text_13">
    <!-- bbox_mAP -->
    <g style="fill:#262626;" transform="translate(181.060939 20.1375)scale(0.18 -0.18)">
     <defs>
      <path d="M 14.703125 0 
L 6.546875 0 
L 6.546875 71.578125 
L 15.328125 71.578125 
L 15.328125 46.046875 
Q 20.90625 53.03125 29.546875 53.03125 
Q 34.328125 53.03125 38.59375 51.09375 
Q 42.875 49.171875 45.625 45.671875 
Q 48.390625 42.1875 49.953125 37.25 
Q 51.515625 32.328125 51.515625 26.703125 
Q 51.515625 13.375 44.921875 6.09375 
Q 38.328125 -1.171875 29.109375 -1.171875 
Q 19.921875 -1.171875 14.703125 6.5 
z
M 14.59375 26.3125 
Q 14.59375 17 17.140625 12.84375 
Q 21.296875 6.0625 28.375 6.0625 
Q 34.125 6.0625 38.328125 11.0625 
Q 42.53125 16.0625 42.53125 25.984375 
Q 42.53125 36.140625 38.5 40.96875 
Q 34.46875 45.796875 28.765625 45.796875 
Q 23 45.796875 18.796875 40.796875 
Q 14.59375 35.796875 14.59375 26.3125 
z
" id="ArialMT-98"/>
      <path d="M 0.734375 0 
L 19.671875 26.953125 
L 2.15625 51.859375 
L 13.140625 51.859375 
L 21.09375 39.703125 
Q 23.34375 36.234375 24.703125 33.890625 
Q 26.859375 37.109375 28.65625 39.59375 
L 37.40625 51.859375 
L 47.90625 51.859375 
L 29.984375 27.4375 
L 49.265625 0 
L 38.484375 0 
L 27.828125 16.109375 
L 25 20.453125 
L 11.375 0 
z
" id="ArialMT-120"/>
      <path d="M -1.515625 -19.875 
L -1.515625 -13.53125 
L 56.734375 -13.53125 
L 56.734375 -19.875 
z
" id="ArialMT-95"/>
      <path d="M 6.59375 0 
L 6.59375 51.859375 
L 14.453125 51.859375 
L 14.453125 44.578125 
Q 16.890625 48.390625 20.9375 50.703125 
Q 25 53.03125 30.171875 53.03125 
Q 35.9375 53.03125 39.625 50.640625 
Q 43.3125 48.25 44.828125 43.953125 
Q 50.984375 53.03125 60.84375 53.03125 
Q 68.5625 53.03125 72.703125 48.75 
Q 76.859375 44.484375 76.859375 35.59375 
L 76.859375 0 
L 68.109375 0 
L 68.109375 32.671875 
Q 68.109375 37.9375 67.25 40.25 
Q 66.40625 42.578125 64.15625 43.984375 
Q 61.921875 45.40625 58.890625 45.40625 
Q 53.421875 45.40625 49.796875 41.765625 
Q 46.1875 38.140625 46.1875 30.125 
L 46.1875 0 
L 37.40625 0 
L 37.40625 33.6875 
Q 37.40625 39.546875 35.25 42.46875 
Q 33.109375 45.40625 28.21875 45.40625 
Q 24.515625 45.40625 21.359375 43.453125 
Q 18.21875 41.5 16.796875 37.734375 
Q 15.375 33.984375 15.375 26.90625 
L 15.375 0 
z
" id="ArialMT-109"/>
     </defs>
     <use xlink:href="#ArialMT-98"/>
     <use x="55.615234" xlink:href="#ArialMT-98"/>
     <use x="111.230469" xlink:href="#ArialMT-111"/>
     <use x="166.845703" xlink:href="#ArialMT-120"/>
     <use x="216.845703" xlink:href="#ArialMT-95"/>
     <use x="272.460938" xlink:href="#ArialMT-109"/>
     <use x="355.761719" xlink:href="#ArialMT-65"/>
     <use x="422.460938" xlink:href="#ArialMT-80"/>
    </g>
   </g>
  </g>
  <g id="axes_2">
   <g id="patch_5">
    <path d="M 405.833843 299.7575 
L 728.907909 299.7575 
L 728.907909 26.1375 
L 405.833843 26.1375 
z
" style="fill:#ffffff;"/>
   </g>
   <g id="matplotlib.axis_3">
    <g id="xtick_6">
     <g id="line2d_17">
      <path clip-path="url(#p47c04dc5c6)" d="M 412.988164 299.7575 
L 412.988164 26.1375 
" style="fill:none;stroke:#cccccc;stroke-linecap:round;stroke-width:1.5;"/>
     </g>
     <g id="text_14">
      <!-- 0 -->
      <g style="fill:#262626;" transform="translate(408.40039 324.067891)scale(0.165 -0.165)">
       <use xlink:href="#ArialMT-48"/>
      </g>
     </g>
    </g>
    <g id="xtick_7">
     <g id="line2d_18">
      <path clip-path="url(#p47c04dc5c6)" d="M 488.296804 299.7575 
L 488.296804 26.1375 
" style="fill:none;stroke:#cccccc;stroke-linecap:round;stroke-width:1.5;"/>
     </g>
     <g id="text_15">
      <!-- 10 -->
      <g style="fill:#262626;" transform="translate(479.121257 324.067891)scale(0.165 -0.165)">
       <use xlink:href="#ArialMT-49"/>
       <use x="55.615234" xlink:href="#ArialMT-48"/>
      </g>
     </g>
    </g>
    <g id="xtick_8">
     <g id="line2d_19">
      <path clip-path="url(#p47c04dc5c6)" d="M 563.605444 299.7575 
L 563.605444 26.1375 
" style="fill:none;stroke:#cccccc;stroke-linecap:round;stroke-width:1.5;"/>
     </g>
     <g id="text_16">
      <!-- 20 -->
      <g style="fill:#262626;" transform="translate(554.429897 324.067891)scale(0.165 -0.165)">
       <use xlink:href="#ArialMT-50"/>
       <use x="55.615234" xlink:href="#ArialMT-48"/>
      </g>
     </g>
    </g>
    <g id="xtick_9">
     <g id="line2d_20">
      <path clip-path="url(#p47c04dc5c6)" d="M 638.914084 299.7575 
L 638.914084 26.1375 
" style="fill:none;stroke:#cccccc;stroke-linecap:round;stroke-width:1.5;"/>
     </g>
     <g id="text_17">
      <!-- 30 -->
      <g style="fill:#262626;" transform="translate(629.738537 324.067891)scale(0.165 -0.165)">
       <use xlink:href="#ArialMT-51"/>
       <use x="55.615234" xlink:href="#ArialMT-48"/>
      </g>
     </g>
    </g>
    <g id="xtick_10">
     <g id="line2d_21">
      <path clip-path="url(#p47c04dc5c6)" d="M 714.222724 299.7575 
L 714.222724 26.1375 
" style="fill:none;stroke:#cccccc;stroke-linecap:round;stroke-width:1.5;"/>
     </g>
     <g id="text_18">
      <!-- 40 -->
      <g style="fill:#262626;" transform="translate(705.047177 324.067891)scale(0.165 -0.165)">
       <use xlink:href="#ArialMT-52"/>
       <use x="55.615234" xlink:href="#ArialMT-48"/>
      </g>
     </g>
    </g>
    <g id="text_19">
     <!-- epoch -->
     <g style="fill:#262626;" transform="translate(542.851501 344.231328)scale(0.18 -0.18)">
      <use xlink:href="#ArialMT-101"/>
      <use x="55.615234" xlink:href="#ArialMT-112"/>
      <use x="111.230469" xlink:href="#ArialMT-111"/>
      <use x="166.845703" xlink:href="#ArialMT-99"/>
      <use x="216.845703" xlink:href="#ArialMT-104"/>
     </g>
    </g>
   </g>
   <g id="matplotlib.axis_4">
    <g id="ytick_6">
     <g id="line2d_22">
      <path clip-path="url(#p47c04dc5c6)" d="M 405.833843 299.13845 
L 728.907909 299.13845 
" style="fill:none;stroke:#cccccc;stroke-linecap:round;stroke-width:1.5;"/>
     </g>
    </g>
    <g id="ytick_7">
     <g id="line2d_23">
      <path clip-path="url(#p47c04dc5c6)" d="M 405.833843 242.861198 
L 728.907909 242.861198 
" style="fill:none;stroke:#cccccc;stroke-linecap:round;stroke-width:1.5;"/>
     </g>
    </g>
    <g id="ytick_8">
     <g id="line2d_24">
      <path clip-path="url(#p47c04dc5c6)" d="M 405.833843 186.583946 
L 728.907909 186.583946 
" style="fill:none;stroke:#cccccc;stroke-linecap:round;stroke-width:1.5;"/>
     </g>
    </g>
    <g id="ytick_9">
     <g id="line2d_25">
      <path clip-path="url(#p47c04dc5c6)" d="M 405.833843 130.306694 
L 728.907909 130.306694 
" style="fill:none;stroke:#cccccc;stroke-linecap:round;stroke-width:1.5;"/>
     </g>
    </g>
    <g id="ytick_10">
     <g id="line2d_26">
      <path clip-path="url(#p47c04dc5c6)" d="M 405.833843 74.029442 
L 728.907909 74.029442 
" style="fill:none;stroke:#cccccc;stroke-linecap:round;stroke-width:1.5;"/>
     </g>
    </g>
   </g>
   <g id="line2d_27">
    <path clip-path="url(#p47c04dc5c6)" d="M 420.519028 139.311054 
L 428.049892 139.029668 
L 435.580756 145.220166 
L 443.11162 161.259182 
L 450.642484 175.891268 
L 458.173348 186.865332 
L 465.704212 211.345937 
L 473.235076 230.198816 
L 480.76594 240.328722 
L 488.296804 243.986743 
L 495.827668 236.952087 
L 503.358532 238.640404 
L 510.889396 246.519219 
L 518.42026 250.177241 
L 525.951124 253.553876 
L 533.481988 258.618829 
L 541.012852 258.337442 
L 548.543716 260.869919 
L 556.07458 261.432691 
L 563.605444 268.185962 
L 571.136308 263.683781 
L 578.667172 263.121009 
L 586.198036 269.311507 
L 593.7289 266.216258 
L 601.259764 266.497644 
L 608.790628 268.467348 
L 616.321492 270.999824 
L 623.852356 274.095073 
L 631.38322 277.190322 
L 638.914084 278.315867 
L 646.444948 280.004184 
L 653.975812 280.848343 
L 661.506676 281.973888 
L 669.03754 280.004184 
L 676.568404 280.848343 
L 684.099268 286.476068 
L 691.630132 284.787751 
L 699.160996 283.943592 
L 706.69186 285.913296 
L 714.222724 287.320227 
" style="fill:none;stroke:#179c7d;stroke-linecap:round;stroke-width:2.25;"/>
   </g>
   <g id="line2d_28">
    <path clip-path="url(#p47c04dc5c6)" d="M 420.519028 136.778578 
L 428.049892 132.276398 
L 435.580756 128.899762 
L 443.11162 117.644312 
L 450.642484 115.393222 
L 458.173348 116.518767 
L 465.704212 115.955994 
L 473.235076 110.609655 
L 480.76594 106.670248 
L 488.296804 109.48411 
L 495.827668 111.453814 
L 503.358532 109.202724 
L 510.889396 109.202724 
L 518.42026 107.23302 
L 525.951124 110.328269 
L 533.481988 109.202724 
L 541.012852 109.202724 
L 548.543716 109.202724 
L 556.07458 107.514407 
L 563.605444 108.077179 
L 571.136308 107.514407 
L 578.667172 108.358565 
L 586.198036 103.574999 
L 593.7289 102.449454 
L 601.259764 103.012226 
L 608.790628 103.293613 
L 616.321492 101.605295 
L 623.852356 104.700544 
L 631.38322 104.700544 
L 638.914084 101.886681 
L 646.444948 101.323909 
L 653.975812 101.886681 
L 661.506676 102.168068 
L 669.03754 102.449454 
L 676.568404 100.198364 
L 684.099268 104.700544 
L 691.630132 103.574999 
L 699.160996 103.856385 
L 706.69186 104.137771 
L 714.222724 103.293613 
" style="fill:none;stroke:#006e92;stroke-linecap:round;stroke-width:2.25;"/>
   </g>
   <g id="line2d_29">
    <path clip-path="url(#p47c04dc5c6)" d="M 420.519028 135.934419 
L 428.049892 132.557784 
L 435.580756 125.241741 
L 443.11162 120.458175 
L 450.642484 116.800153 
L 458.173348 114.549063 
L 465.704212 111.735201 
L 473.235076 111.172428 
L 480.76594 111.453814 
L 488.296804 111.735201 
L 495.827668 110.609655 
L 503.358532 112.297973 
L 510.889396 112.016587 
L 518.42026 111.453814 
L 525.951124 112.579359 
L 533.481988 109.48411 
L 541.012852 109.202724 
L 548.543716 108.358565 
L 556.07458 109.48411 
L 563.605444 108.921338 
L 571.136308 112.297973 
L 578.667172 111.453814 
L 586.198036 109.765497 
L 593.7289 108.639952 
L 601.259764 108.921338 
L 608.790628 106.951634 
L 616.321492 107.514407 
L 623.852356 106.670248 
L 631.38322 109.765497 
L 638.914084 108.077179 
L 646.444948 107.23302 
L 653.975812 108.639952 
L 661.506676 107.23302 
L 669.03754 106.951634 
L 676.568404 108.077179 
L 684.099268 108.077179 
L 691.630132 107.514407 
L 699.160996 106.107475 
L 706.69186 107.514407 
L 714.222724 109.765497 
" style="fill:none;stroke:#25bae2;stroke-linecap:round;stroke-width:2.25;"/>
   </g>
   <g id="patch_6">
    <path d="M 405.833843 299.7575 
L 405.833843 26.1375 
" style="fill:none;stroke:#cccccc;stroke-linecap:square;stroke-linejoin:miter;stroke-width:1.875;"/>
   </g>
   <g id="patch_7">
    <path d="M 405.833843 299.7575 
L 728.907909 299.7575 
" style="fill:none;stroke:#cccccc;stroke-linecap:square;stroke-linejoin:miter;stroke-width:1.875;"/>
   </g>
   <g id="text_20">
    <!-- bbox_mAP_75 -->
    <g style="fill:#262626;" transform="translate(508.333688 20.1375)scale(0.18 -0.18)">
     <defs>
      <path d="M 4.734375 62.203125 
L 4.734375 70.65625 
L 51.078125 70.65625 
L 51.078125 63.8125 
Q 44.234375 56.546875 37.515625 44.484375 
Q 30.8125 32.421875 27.15625 19.671875 
Q 24.515625 10.6875 23.78125 0 
L 14.75 0 
Q 14.890625 8.453125 18.0625 20.40625 
Q 21.234375 32.375 27.171875 43.484375 
Q 33.109375 54.59375 39.796875 62.203125 
z
" id="ArialMT-55"/>
     </defs>
     <use xlink:href="#ArialMT-98"/>
     <use x="55.615234" xlink:href="#ArialMT-98"/>
     <use x="111.230469" xlink:href="#ArialMT-111"/>
     <use x="166.845703" xlink:href="#ArialMT-120"/>
     <use x="216.845703" xlink:href="#ArialMT-95"/>
     <use x="272.460938" xlink:href="#ArialMT-109"/>
     <use x="355.761719" xlink:href="#ArialMT-65"/>
     <use x="422.460938" xlink:href="#ArialMT-80"/>
     <use x="489.160156" xlink:href="#ArialMT-95"/>
     <use x="544.775391" xlink:href="#ArialMT-55"/>
     <use x="600.390625" xlink:href="#ArialMT-53"/>
    </g>
   </g>
  </g>
  <g id="axes_3">
   <g id="patch_8">
    <path d="M 748.121124 299.7575 
L 1071.195189 299.7575 
L 1071.195189 26.1375 
L 748.121124 26.1375 
z
" style="fill:#ffffff;"/>
   </g>
   <g id="matplotlib.axis_5">
    <g id="xtick_11">
     <g id="line2d_30">
      <path clip-path="url(#p26a8bcb6ac)" d="M 755.275444 299.7575 
L 755.275444 26.1375 
" style="fill:none;stroke:#cccccc;stroke-linecap:round;stroke-width:1.5;"/>
     </g>
     <g id="text_21">
      <!-- 0 -->
      <g style="fill:#262626;" transform="translate(750.687671 324.067891)scale(0.165 -0.165)">
       <use xlink:href="#ArialMT-48"/>
      </g>
     </g>
    </g>
    <g id="xtick_12">
     <g id="line2d_31">
      <path clip-path="url(#p26a8bcb6ac)" d="M 830.584084 299.7575 
L 830.584084 26.1375 
" style="fill:none;stroke:#cccccc;stroke-linecap:round;stroke-width:1.5;"/>
     </g>
     <g id="text_22">
      <!-- 10 -->
      <g style="fill:#262626;" transform="translate(821.408538 324.067891)scale(0.165 -0.165)">
       <use xlink:href="#ArialMT-49"/>
       <use x="55.615234" xlink:href="#ArialMT-48"/>
      </g>
     </g>
    </g>
    <g id="xtick_13">
     <g id="line2d_32">
      <path clip-path="url(#p26a8bcb6ac)" d="M 905.892724 299.7575 
L 905.892724 26.1375 
" style="fill:none;stroke:#cccccc;stroke-linecap:round;stroke-width:1.5;"/>
     </g>
     <g id="text_23">
      <!-- 20 -->
      <g style="fill:#262626;" transform="translate(896.717178 324.067891)scale(0.165 -0.165)">
       <use xlink:href="#ArialMT-50"/>
       <use x="55.615234" xlink:href="#ArialMT-48"/>
      </g>
     </g>
    </g>
    <g id="xtick_14">
     <g id="line2d_33">
      <path clip-path="url(#p26a8bcb6ac)" d="M 981.201364 299.7575 
L 981.201364 26.1375 
" style="fill:none;stroke:#cccccc;stroke-linecap:round;stroke-width:1.5;"/>
     </g>
     <g id="text_24">
      <!-- 30 -->
      <g style="fill:#262626;" transform="translate(972.025818 324.067891)scale(0.165 -0.165)">
       <use xlink:href="#ArialMT-51"/>
       <use x="55.615234" xlink:href="#ArialMT-48"/>
      </g>
     </g>
    </g>
    <g id="xtick_15">
     <g id="line2d_34">
      <path clip-path="url(#p26a8bcb6ac)" d="M 1056.510004 299.7575 
L 1056.510004 26.1375 
" style="fill:none;stroke:#cccccc;stroke-linecap:round;stroke-width:1.5;"/>
     </g>
     <g id="text_25">
      <!-- 40 -->
      <g style="fill:#262626;" transform="translate(1047.334458 324.067891)scale(0.165 -0.165)">
       <use xlink:href="#ArialMT-52"/>
       <use x="55.615234" xlink:href="#ArialMT-48"/>
      </g>
     </g>
    </g>
    <g id="text_26">
     <!-- epoch -->
     <g style="fill:#262626;" transform="translate(885.138781 344.231328)scale(0.18 -0.18)">
      <use xlink:href="#ArialMT-101"/>
      <use x="55.615234" xlink:href="#ArialMT-112"/>
      <use x="111.230469" xlink:href="#ArialMT-111"/>
      <use x="166.845703" xlink:href="#ArialMT-99"/>
      <use x="216.845703" xlink:href="#ArialMT-104"/>
     </g>
    </g>
   </g>
   <g id="matplotlib.axis_6">
    <g id="ytick_11">
     <g id="line2d_35">
      <path clip-path="url(#p26a8bcb6ac)" d="M 748.121124 299.13845 
L 1071.195189 299.13845 
" style="fill:none;stroke:#cccccc;stroke-linecap:round;stroke-width:1.5;"/>
     </g>
    </g>
    <g id="ytick_12">
     <g id="line2d_36">
      <path clip-path="url(#p26a8bcb6ac)" d="M 748.121124 242.861198 
L 1071.195189 242.861198 
" style="fill:none;stroke:#cccccc;stroke-linecap:round;stroke-width:1.5;"/>
     </g>
    </g>
    <g id="ytick_13">
     <g id="line2d_37">
      <path clip-path="url(#p26a8bcb6ac)" d="M 748.121124 186.583946 
L 1071.195189 186.583946 
" style="fill:none;stroke:#cccccc;stroke-linecap:round;stroke-width:1.5;"/>
     </g>
    </g>
    <g id="ytick_14">
     <g id="line2d_38">
      <path clip-path="url(#p26a8bcb6ac)" d="M 748.121124 130.306694 
L 1071.195189 130.306694 
" style="fill:none;stroke:#cccccc;stroke-linecap:round;stroke-width:1.5;"/>
     </g>
    </g>
    <g id="ytick_15">
     <g id="line2d_39">
      <path clip-path="url(#p26a8bcb6ac)" d="M 748.121124 74.029442 
L 1071.195189 74.029442 
" style="fill:none;stroke:#cccccc;stroke-linecap:round;stroke-width:1.5;"/>
     </g>
    </g>
   </g>
   <g id="line2d_40">
    <path clip-path="url(#p26a8bcb6ac)" d="M 762.806308 69.527261 
L 770.337172 64.180922 
L 777.868036 63.899536 
L 785.3989 61.085674 
L 792.929764 61.648446 
L 800.460628 59.397356 
L 807.991492 63.336764 
L 815.522356 65.587854 
L 823.05322 69.527261 
L 830.584084 67.838944 
L 838.114948 63.055377 
L 845.645812 61.929832 
L 853.176676 65.587854 
L 860.70754 63.899536 
L 868.238404 65.86924 
L 875.769268 62.492605 
L 883.300132 63.336764 
L 890.830996 65.025081 
L 898.36186 61.648446 
L 905.892724 63.61815 
L 913.423588 63.336764 
L 920.954452 60.522901 
L 928.485316 61.648446 
L 936.01618 60.522901 
L 943.547044 57.427652 
L 951.077908 61.085674 
L 958.608772 62.492605 
L 966.139636 63.055377 
L 973.6705 62.773991 
L 981.201364 66.432013 
L 988.732228 64.462309 
L 996.263092 65.587854 
L 1003.793956 66.150626 
L 1011.32482 65.306468 
L 1018.855684 66.713399 
L 1026.386548 73.748055 
L 1033.917412 67.838944 
L 1041.448276 68.683103 
L 1048.97914 69.527261 
L 1056.510004 70.934193 
" style="fill:none;stroke:#179c7d;stroke-linecap:round;stroke-width:2.25;"/>
   </g>
   <g id="line2d_41">
    <path clip-path="url(#p26a8bcb6ac)" d="M 762.806308 62.773991 
L 770.337172 56.302107 
L 777.868036 56.302107 
L 785.3989 47.579133 
L 792.929764 44.483884 
L 800.460628 42.795567 
L 807.991492 40.544477 
L 815.522356 40.26309 
L 823.05322 39.700318 
L 830.584084 41.388635 
L 838.114948 39.418932 
L 845.645812 39.418932 
L 853.176676 40.825863 
L 860.70754 39.700318 
L 868.238404 43.076953 
L 875.769268 40.825863 
L 883.300132 40.825863 
L 890.830996 40.825863 
L 898.36186 42.51418 
L 905.892724 42.232794 
L 913.423588 41.951408 
L 920.954452 41.951408 
L 928.485316 41.951408 
L 936.01618 42.232794 
L 943.547044 42.232794 
L 951.077908 40.26309 
L 958.608772 42.232794 
L 966.139636 42.232794 
L 973.6705 44.202498 
L 981.201364 42.232794 
L 988.732228 42.232794 
L 996.263092 42.232794 
L 1003.793956 42.232794 
L 1011.32482 42.232794 
L 1018.855684 42.232794 
L 1026.386548 44.202498 
L 1033.917412 43.921112 
L 1041.448276 43.639725 
L 1048.97914 44.202498 
L 1056.510004 43.921112 
" style="fill:none;stroke:#006e92;stroke-linecap:round;stroke-width:2.25;"/>
   </g>
   <g id="line2d_42">
    <path clip-path="url(#p26a8bcb6ac)" d="M 762.806308 61.36706 
L 770.337172 53.206858 
L 777.868036 50.955768 
L 785.3989 45.609429 
L 792.929764 43.076953 
L 800.460628 42.51418 
L 807.991492 40.544477 
L 815.522356 41.388635 
L 823.05322 39.700318 
L 830.584084 39.418932 
L 838.114948 39.137545 
L 845.645812 39.137545 
L 853.176676 38.574773 
L 860.70754 39.700318 
L 868.238404 39.981704 
L 875.769268 40.26309 
L 883.300132 39.981704 
L 890.830996 39.700318 
L 898.36186 39.700318 
L 905.892724 41.107249 
L 913.423588 41.107249 
L 920.954452 40.825863 
L 928.485316 40.825863 
L 936.01618 40.825863 
L 943.547044 41.388635 
L 951.077908 40.825863 
L 958.608772 40.544477 
L 966.139636 40.544477 
L 973.6705 41.107249 
L 981.201364 40.825863 
L 988.732228 40.825863 
L 996.263092 40.825863 
L 1003.793956 40.825863 
L 1011.32482 40.825863 
L 1018.855684 42.232794 
L 1026.386548 40.825863 
L 1033.917412 40.825863 
L 1041.448276 40.825863 
L 1048.97914 40.825863 
L 1056.510004 40.825863 
" style="fill:none;stroke:#25bae2;stroke-linecap:round;stroke-width:2.25;"/>
   </g>
   <g id="patch_9">
    <path d="M 748.121124 299.7575 
L 748.121124 26.1375 
" style="fill:none;stroke:#cccccc;stroke-linecap:square;stroke-linejoin:miter;stroke-width:1.875;"/>
   </g>
   <g id="patch_10">
    <path d="M 748.121124 299.7575 
L 1071.195189 299.7575 
" style="fill:none;stroke:#cccccc;stroke-linecap:square;stroke-linejoin:miter;stroke-width:1.875;"/>
   </g>
   <g id="text_27">
    <!-- bbox_mAP_50 -->
    <g style="fill:#262626;" transform="translate(850.620969 20.1375)scale(0.18 -0.18)">
     <use xlink:href="#ArialMT-98"/>
     <use x="55.615234" xlink:href="#ArialMT-98"/>
     <use x="111.230469" xlink:href="#ArialMT-111"/>
     <use x="166.845703" xlink:href="#ArialMT-120"/>
     <use x="216.845703" xlink:href="#ArialMT-95"/>
     <use x="272.460938" xlink:href="#ArialMT-109"/>
     <use x="355.761719" xlink:href="#ArialMT-65"/>
     <use x="422.460938" xlink:href="#ArialMT-80"/>
     <use x="489.160156" xlink:href="#ArialMT-95"/>
     <use x="544.775391" xlink:href="#ArialMT-53"/>
     <use x="600.390625" xlink:href="#ArialMT-48"/>
    </g>
   </g>
  </g>
  <g id="axes_4">
   <g id="patch_11">
    <path d="M 1090.408404 299.7575 
L 1413.48247 299.7575 
L 1413.48247 26.1375 
L 1090.408404 26.1375 
z
" style="fill:#ffffff;"/>
   </g>
   <g id="matplotlib.axis_7">
    <g id="xtick_16">
     <g id="line2d_43">
      <path clip-path="url(#p3b9168f1c5)" d="M 1097.562725 299.7575 
L 1097.562725 26.1375 
" style="fill:none;stroke:#cccccc;stroke-linecap:round;stroke-width:1.5;"/>
     </g>
     <g id="text_28">
      <!-- 0 -->
      <g style="fill:#262626;" transform="translate(1092.974952 324.067891)scale(0.165 -0.165)">
       <use xlink:href="#ArialMT-48"/>
      </g>
     </g>
    </g>
    <g id="xtick_17">
     <g id="line2d_44">
      <path clip-path="url(#p3b9168f1c5)" d="M 1172.871365 299.7575 
L 1172.871365 26.1375 
" style="fill:none;stroke:#cccccc;stroke-linecap:round;stroke-width:1.5;"/>
     </g>
     <g id="text_29">
      <!-- 10 -->
      <g style="fill:#262626;" transform="translate(1163.695818 324.067891)scale(0.165 -0.165)">
       <use xlink:href="#ArialMT-49"/>
       <use x="55.615234" xlink:href="#ArialMT-48"/>
      </g>
     </g>
    </g>
    <g id="xtick_18">
     <g id="line2d_45">
      <path clip-path="url(#p3b9168f1c5)" d="M 1248.180005 299.7575 
L 1248.180005 26.1375 
" style="fill:none;stroke:#cccccc;stroke-linecap:round;stroke-width:1.5;"/>
     </g>
     <g id="text_30">
      <!-- 20 -->
      <g style="fill:#262626;" transform="translate(1239.004458 324.067891)scale(0.165 -0.165)">
       <use xlink:href="#ArialMT-50"/>
       <use x="55.615234" xlink:href="#ArialMT-48"/>
      </g>
     </g>
    </g>
    <g id="xtick_19">
     <g id="line2d_46">
      <path clip-path="url(#p3b9168f1c5)" d="M 1323.488645 299.7575 
L 1323.488645 26.1375 
" style="fill:none;stroke:#cccccc;stroke-linecap:round;stroke-width:1.5;"/>
     </g>
     <g id="text_31">
      <!-- 30 -->
      <g style="fill:#262626;" transform="translate(1314.313098 324.067891)scale(0.165 -0.165)">
       <use xlink:href="#ArialMT-51"/>
       <use x="55.615234" xlink:href="#ArialMT-48"/>
      </g>
     </g>
    </g>
    <g id="xtick_20">
     <g id="line2d_47">
      <path clip-path="url(#p3b9168f1c5)" d="M 1398.797285 299.7575 
L 1398.797285 26.1375 
" style="fill:none;stroke:#cccccc;stroke-linecap:round;stroke-width:1.5;"/>
     </g>
     <g id="text_32">
      <!-- 40 -->
      <g style="fill:#262626;" transform="translate(1389.621738 324.067891)scale(0.165 -0.165)">
       <use xlink:href="#ArialMT-52"/>
       <use x="55.615234" xlink:href="#ArialMT-48"/>
      </g>
     </g>
    </g>
    <g id="text_33">
     <!-- epoch -->
     <g style="fill:#262626;" transform="translate(1227.426062 344.231328)scale(0.18 -0.18)">
      <use xlink:href="#ArialMT-101"/>
      <use x="55.615234" xlink:href="#ArialMT-112"/>
      <use x="111.230469" xlink:href="#ArialMT-111"/>
      <use x="166.845703" xlink:href="#ArialMT-99"/>
      <use x="216.845703" xlink:href="#ArialMT-104"/>
     </g>
    </g>
   </g>
   <g id="matplotlib.axis_8">
    <g id="ytick_16">
     <g id="line2d_48">
      <path clip-path="url(#p3b9168f1c5)" d="M 1090.408404 299.13845 
L 1413.48247 299.13845 
" style="fill:none;stroke:#cccccc;stroke-linecap:round;stroke-width:1.5;"/>
     </g>
    </g>
    <g id="ytick_17">
     <g id="line2d_49">
      <path clip-path="url(#p3b9168f1c5)" d="M 1090.408404 242.861198 
L 1413.48247 242.861198 
" style="fill:none;stroke:#cccccc;stroke-linecap:round;stroke-width:1.5;"/>
     </g>
    </g>
    <g id="ytick_18">
     <g id="line2d_50">
      <path clip-path="url(#p3b9168f1c5)" d="M 1090.408404 186.583946 
L 1413.48247 186.583946 
" style="fill:none;stroke:#cccccc;stroke-linecap:round;stroke-width:1.5;"/>
     </g>
    </g>
    <g id="ytick_19">
     <g id="line2d_51">
      <path clip-path="url(#p3b9168f1c5)" d="M 1090.408404 130.306694 
L 1413.48247 130.306694 
" style="fill:none;stroke:#cccccc;stroke-linecap:round;stroke-width:1.5;"/>
     </g>
    </g>
    <g id="ytick_20">
     <g id="line2d_52">
      <path clip-path="url(#p3b9168f1c5)" d="M 1090.408404 74.029442 
L 1413.48247 74.029442 
" style="fill:none;stroke:#cccccc;stroke-linecap:round;stroke-width:1.5;"/>
     </g>
    </g>
   </g>
   <g id="line2d_53">
    <path clip-path="url(#p3b9168f1c5)" d="M 1105.093589 229.664182 
L 1112.624453 237.008364 
L 1120.155317 231.662025 
L 1127.686181 240.328722 
L 1135.217045 237.205334 
L 1142.747909 240.244306 
L 1150.278773 229.748598 
L 1157.809637 232.759431 
L 1165.340501 222.460694 
L 1172.871365 226.315686 
L 1180.402229 232.928263 
L 1187.933093 232.646877 
L 1195.463957 228.48236 
L 1202.994821 231.183668 
L 1210.525685 229.045133 
L 1218.056549 234.560303 
L 1225.587413 233.209649 
L 1233.118277 230.986698 
L 1240.649141 235.179353 
L 1248.180005 231.042975 
L 1255.710869 231.15553 
L 1263.241733 235.376324 
L 1270.772597 232.956402 
L 1278.303461 233.772422 
L 1285.834325 238.387157 
L 1293.365189 234.166363 
L 1300.896053 232.646877 
L 1308.426917 234.025669 
L 1315.957781 232.900124 
L 1323.488645 229.10141 
L 1331.019509 231.268084 
L 1338.550373 230.789727 
L 1346.081237 230.677173 
L 1353.612101 227.497508 
L 1361.142965 225.246418 
L 1368.673829 220.997486 
L 1376.204693 227.497508 
L 1383.735557 224.317843 
L 1391.266421 223.445546 
L 1398.797285 221.475842 
" style="fill:none;stroke:#179c7d;stroke-linecap:round;stroke-width:2.25;"/>
   </g>
   <g id="line2d_54">
    <path clip-path="url(#p3b9168f1c5)" d="M 1105.093589 241.623099 
L 1112.624453 247.53221 
L 1120.155317 246.547358 
L 1127.686181 255.439164 
L 1135.217045 262.586375 
L 1142.747909 263.008454 
L 1150.278773 264.978158 
L 1157.809637 265.991149 
L 1165.340501 267.229248 
L 1172.871365 266.77903 
L 1180.402229 269.086398 
L 1187.933093 268.63618 
L 1195.463957 268.045268 
L 1202.994821 268.242239 
L 1210.525685 265.991149 
L 1218.056549 267.876437 
L 1225.587413 264.218415 
L 1233.118277 264.274693 
L 1240.649141 262.333127 
L 1248.180005 263.965168 
L 1255.710869 264.921881 
L 1263.241733 264.865604 
L 1270.772597 265.259544 
L 1278.303461 264.33097 
L 1285.834325 263.965168 
L 1293.365189 264.696772 
L 1300.896053 264.893742 
L 1308.426917 265.034435 
L 1315.957781 263.177286 
L 1323.488645 264.359108 
L 1331.019509 263.90889 
L 1338.550373 263.458672 
L 1346.081237 263.149147 
L 1353.612101 263.149147 
L 1361.142965 262.867761 
L 1368.673829 262.867761 
L 1376.204693 263.51495 
L 1383.735557 263.937029 
L 1391.266421 263.402395 
L 1398.797285 262.755207 
" style="fill:none;stroke:#006e92;stroke-linecap:round;stroke-width:2.25;"/>
   </g>
   <g id="line2d_55">
    <path clip-path="url(#p3b9168f1c5)" d="M 1105.093589 239.006206 
L 1112.624453 249.304943 
L 1120.155317 252.597163 
L 1127.686181 259.266017 
L 1135.217045 261.770355 
L 1142.747909 264.246554 
L 1150.278773 266.469505 
L 1157.809637 263.543088 
L 1165.340501 264.274693 
L 1172.871365 264.724911 
L 1180.402229 265.372099 
L 1187.933093 265.14699 
L 1195.463957 266.610198 
L 1202.994821 266.976001 
L 1210.525685 266.15998 
L 1218.056549 265.96301 
L 1225.587413 266.413228 
L 1233.118277 266.441367 
L 1240.649141 266.666476 
L 1248.180005 265.991149 
L 1255.710869 265.850456 
L 1263.241733 266.807169 
L 1270.772597 266.77903 
L 1278.303461 266.891585 
L 1285.834325 265.540931 
L 1293.365189 267.144832 
L 1300.896053 267.707605 
L 1308.426917 267.454357 
L 1315.957781 266.525783 
L 1323.488645 267.369941 
L 1331.019509 267.426219 
L 1338.550373 267.032278 
L 1346.081237 267.088555 
L 1353.612101 267.060416 
L 1361.142965 266.58206 
L 1368.673829 264.274693 
L 1376.204693 263.740059 
L 1383.735557 263.740059 
L 1391.266421 263.71192 
L 1398.797285 263.402395 
" style="fill:none;stroke:#25bae2;stroke-linecap:round;stroke-width:2.25;"/>
   </g>
   <g id="patch_12">
    <path d="M 1090.408404 299.7575 
L 1090.408404 26.1375 
" style="fill:none;stroke:#cccccc;stroke-linecap:square;stroke-linejoin:miter;stroke-width:1.875;"/>
   </g>
   <g id="patch_13">
    <path d="M 1090.408404 299.7575 
L 1413.48247 299.7575 
" style="fill:none;stroke:#cccccc;stroke-linecap:square;stroke-linejoin:miter;stroke-width:1.875;"/>
   </g>
   <g id="text_34">
    <!-- LAMR -->
    <g style="fill:#262626;" transform="translate(1226.940906 20.1375)scale(0.18 -0.18)">
     <defs>
      <path d="M 7.328125 0 
L 7.328125 71.578125 
L 16.796875 71.578125 
L 16.796875 8.453125 
L 52.046875 8.453125 
L 52.046875 0 
z
" id="ArialMT-76"/>
      <path d="M 7.421875 0 
L 7.421875 71.578125 
L 21.6875 71.578125 
L 38.625 20.90625 
Q 40.96875 13.8125 42.046875 10.296875 
Q 43.265625 14.203125 45.84375 21.78125 
L 62.984375 71.578125 
L 75.734375 71.578125 
L 75.734375 0 
L 66.609375 0 
L 66.609375 59.90625 
L 45.796875 0 
L 37.25 0 
L 16.546875 60.9375 
L 16.546875 0 
z
" id="ArialMT-77"/>
      <path d="M 7.859375 0 
L 7.859375 71.578125 
L 39.59375 71.578125 
Q 49.171875 71.578125 54.140625 69.640625 
Q 59.125 67.71875 62.109375 62.828125 
Q 65.09375 57.953125 65.09375 52.046875 
Q 65.09375 44.4375 60.15625 39.203125 
Q 55.21875 33.984375 44.921875 32.5625 
Q 48.6875 30.765625 50.640625 29 
Q 54.78125 25.203125 58.5 19.484375 
L 70.953125 0 
L 59.03125 0 
L 49.5625 14.890625 
Q 45.40625 21.34375 42.71875 24.75 
Q 40.046875 28.171875 37.921875 29.53125 
Q 35.796875 30.90625 33.59375 31.453125 
Q 31.984375 31.78125 28.328125 31.78125 
L 17.328125 31.78125 
L 17.328125 0 
z
M 17.328125 39.984375 
L 37.703125 39.984375 
Q 44.1875 39.984375 47.84375 41.328125 
Q 51.515625 42.671875 53.421875 45.625 
Q 55.328125 48.578125 55.328125 52.046875 
Q 55.328125 57.125 51.640625 60.390625 
Q 47.953125 63.671875 39.984375 63.671875 
L 17.328125 63.671875 
z
" id="ArialMT-82"/>
     </defs>
     <use xlink:href="#ArialMT-76"/>
     <use x="55.615234" xlink:href="#ArialMT-65"/>
     <use x="122.314453" xlink:href="#ArialMT-77"/>
     <use x="205.615234" xlink:href="#ArialMT-82"/>
    </g>
   </g>
  </g>
  <g id="legend_1">
   <g id="text_35">
    <!-- setting -->
    <g style="fill:#262626;" transform="translate(1615.121392 146.840195)scale(0.18 -0.18)">
     <defs>
      <path d="M 3.078125 15.484375 
L 11.765625 16.84375 
Q 12.5 11.625 15.84375 8.84375 
Q 19.1875 6.0625 25.203125 6.0625 
Q 31.25 6.0625 34.171875 8.515625 
Q 37.109375 10.984375 37.109375 14.3125 
Q 37.109375 17.28125 34.515625 19 
Q 32.71875 20.171875 25.53125 21.96875 
Q 15.875 24.421875 12.140625 26.203125 
Q 8.40625 27.984375 6.46875 31.125 
Q 4.546875 34.28125 4.546875 38.09375 
Q 4.546875 41.546875 6.125 44.5 
Q 7.71875 47.46875 10.453125 49.421875 
Q 12.5 50.921875 16.03125 51.96875 
Q 19.578125 53.03125 23.640625 53.03125 
Q 29.734375 53.03125 34.34375 51.265625 
Q 38.96875 49.515625 41.15625 46.5 
Q 43.359375 43.5 44.1875 38.484375 
L 35.59375 37.3125 
Q 35.015625 41.3125 32.203125 43.546875 
Q 29.390625 45.796875 24.265625 45.796875 
Q 18.21875 45.796875 15.625 43.796875 
Q 13.03125 41.796875 13.03125 39.109375 
Q 13.03125 37.40625 14.109375 36.03125 
Q 15.1875 34.625 17.484375 33.6875 
Q 18.796875 33.203125 25.25 31.453125 
Q 34.578125 28.953125 38.25 27.359375 
Q 41.9375 25.78125 44.03125 22.75 
Q 46.140625 19.734375 46.140625 15.234375 
Q 46.140625 10.84375 43.578125 6.953125 
Q 41.015625 3.078125 36.171875 0.953125 
Q 31.34375 -1.171875 25.25 -1.171875 
Q 15.140625 -1.171875 9.84375 3.03125 
Q 4.546875 7.234375 3.078125 15.484375 
z
" id="ArialMT-115"/>
      <path d="M 25.78125 7.859375 
L 27.046875 0.09375 
Q 23.34375 -0.6875 20.40625 -0.6875 
Q 15.625 -0.6875 12.984375 0.828125 
Q 10.359375 2.34375 9.28125 4.8125 
Q 8.203125 7.28125 8.203125 15.1875 
L 8.203125 45.015625 
L 1.765625 45.015625 
L 1.765625 51.859375 
L 8.203125 51.859375 
L 8.203125 64.703125 
L 16.9375 69.96875 
L 16.9375 51.859375 
L 25.78125 51.859375 
L 25.78125 45.015625 
L 16.9375 45.015625 
L 16.9375 14.703125 
Q 16.9375 10.9375 17.40625 9.859375 
Q 17.875 8.796875 18.921875 8.15625 
Q 19.96875 7.515625 21.921875 7.515625 
Q 23.390625 7.515625 25.78125 7.859375 
z
" id="ArialMT-116"/>
      <path d="M 6.640625 61.46875 
L 6.640625 71.578125 
L 15.4375 71.578125 
L 15.4375 61.46875 
z
M 6.640625 0 
L 6.640625 51.859375 
L 15.4375 51.859375 
L 15.4375 0 
z
" id="ArialMT-105"/>
      <path d="M 6.59375 0 
L 6.59375 51.859375 
L 14.5 51.859375 
L 14.5 44.484375 
Q 20.21875 53.03125 31 53.03125 
Q 35.6875 53.03125 39.625 51.34375 
Q 43.5625 49.65625 45.515625 46.921875 
Q 47.46875 44.1875 48.25 40.4375 
Q 48.734375 37.984375 48.734375 31.890625 
L 48.734375 0 
L 39.9375 0 
L 39.9375 31.546875 
Q 39.9375 36.921875 38.90625 39.578125 
Q 37.890625 42.234375 35.28125 43.8125 
Q 32.671875 45.40625 29.15625 45.40625 
Q 23.53125 45.40625 19.453125 41.84375 
Q 15.375 38.28125 15.375 28.328125 
L 15.375 0 
z
" id="ArialMT-110"/>
      <path d="M 4.984375 -4.296875 
L 13.53125 -5.5625 
Q 14.0625 -9.515625 16.5 -11.328125 
Q 19.78125 -13.765625 25.4375 -13.765625 
Q 31.546875 -13.765625 34.859375 -11.328125 
Q 38.1875 -8.890625 39.359375 -4.5 
Q 40.046875 -1.8125 39.984375 6.78125 
Q 34.234375 0 25.640625 0 
Q 14.9375 0 9.078125 7.71875 
Q 3.21875 15.4375 3.21875 26.21875 
Q 3.21875 33.640625 5.90625 39.90625 
Q 8.59375 46.1875 13.6875 49.609375 
Q 18.796875 53.03125 25.6875 53.03125 
Q 34.859375 53.03125 40.828125 45.609375 
L 40.828125 51.859375 
L 48.921875 51.859375 
L 48.921875 7.03125 
Q 48.921875 -5.078125 46.453125 -10.125 
Q 44 -15.1875 38.640625 -18.109375 
Q 33.296875 -21.046875 25.484375 -21.046875 
Q 16.21875 -21.046875 10.5 -16.875 
Q 4.78125 -12.703125 4.984375 -4.296875 
z
M 12.25 26.859375 
Q 12.25 16.65625 16.296875 11.96875 
Q 20.359375 7.28125 26.46875 7.28125 
Q 32.515625 7.28125 36.609375 11.9375 
Q 40.71875 16.609375 40.71875 26.5625 
Q 40.71875 36.078125 36.5 40.90625 
Q 32.28125 45.75 26.3125 45.75 
Q 20.453125 45.75 16.34375 40.984375 
Q 12.25 36.234375 12.25 26.859375 
z
" id="ArialMT-103"/>
     </defs>
     <use xlink:href="#ArialMT-115"/>
     <use x="50" xlink:href="#ArialMT-101"/>
     <use x="105.615234" xlink:href="#ArialMT-116"/>
     <use x="133.398438" xlink:href="#ArialMT-116"/>
     <use x="161.181641" xlink:href="#ArialMT-105"/>
     <use x="183.398438" xlink:href="#ArialMT-110"/>
     <use x="239.013672" xlink:href="#ArialMT-103"/>
    </g>
   </g>
   <g id="line2d_56">
    <path d="M 1429.768501 164.914023 
L 1462.768501 164.914023 
" style="fill:none;stroke:#179c7d;stroke-linecap:round;stroke-width:2.25;"/>
   </g>
   <g id="line2d_57"/>
   <g id="text_36">
    <!-- fine-tune -->
    <g style="fill:#262626;" transform="translate(1475.968501 170.689023)scale(0.165 -0.165)">
     <defs>
      <path d="M 8.6875 0 
L 8.6875 45.015625 
L 0.921875 45.015625 
L 0.921875 51.859375 
L 8.6875 51.859375 
L 8.6875 57.375 
Q 8.6875 62.59375 9.625 65.140625 
Q 10.890625 68.5625 14.078125 70.671875 
Q 17.28125 72.796875 23.046875 72.796875 
Q 26.765625 72.796875 31.25 71.921875 
L 29.9375 64.265625 
Q 27.203125 64.75 24.75 64.75 
Q 20.75 64.75 19.09375 63.03125 
Q 17.4375 61.328125 17.4375 56.640625 
L 17.4375 51.859375 
L 27.546875 51.859375 
L 27.546875 45.015625 
L 17.4375 45.015625 
L 17.4375 0 
z
" id="ArialMT-102"/>
      <path d="M 3.171875 21.484375 
L 3.171875 30.328125 
L 30.171875 30.328125 
L 30.171875 21.484375 
z
" id="ArialMT-45"/>
      <path d="M 40.578125 0 
L 40.578125 7.625 
Q 34.515625 -1.171875 24.125 -1.171875 
Q 19.53125 -1.171875 15.546875 0.578125 
Q 11.578125 2.34375 9.640625 5 
Q 7.71875 7.671875 6.9375 11.53125 
Q 6.390625 14.109375 6.390625 19.734375 
L 6.390625 51.859375 
L 15.1875 51.859375 
L 15.1875 23.09375 
Q 15.1875 16.21875 15.71875 13.8125 
Q 16.546875 10.359375 19.234375 8.375 
Q 21.921875 6.390625 25.875 6.390625 
Q 29.828125 6.390625 33.296875 8.421875 
Q 36.765625 10.453125 38.203125 13.9375 
Q 39.65625 17.4375 39.65625 24.078125 
L 39.65625 51.859375 
L 48.4375 51.859375 
L 48.4375 0 
z
" id="ArialMT-117"/>
     </defs>
     <use xlink:href="#ArialMT-102"/>
     <use x="27.783203" xlink:href="#ArialMT-105"/>
     <use x="50" xlink:href="#ArialMT-110"/>
     <use x="105.615234" xlink:href="#ArialMT-101"/>
     <use x="161.230469" xlink:href="#ArialMT-45"/>
     <use x="194.53125" xlink:href="#ArialMT-116"/>
     <use x="222.314453" xlink:href="#ArialMT-117"/>
     <use x="277.929688" xlink:href="#ArialMT-110"/>
     <use x="333.544922" xlink:href="#ArialMT-101"/>
    </g>
   </g>
   <g id="line2d_58">
    <path d="M 1429.768501 188.253789 
L 1462.768501 188.253789 
" style="fill:none;stroke:#006e92;stroke-linecap:round;stroke-width:2.25;"/>
   </g>
   <g id="line2d_59"/>
   <g id="text_37">
    <!-- fine-tune without rotation -->
    <g style="fill:#262626;" transform="translate(1475.968501 194.028789)scale(0.165 -0.165)">
     <defs>
      <path id="ArialMT-32"/>
      <path d="M 16.15625 0 
L 0.296875 51.859375 
L 9.375 51.859375 
L 17.625 21.921875 
L 20.703125 10.796875 
Q 20.90625 11.625 23.390625 21.484375 
L 31.640625 51.859375 
L 40.671875 51.859375 
L 48.4375 21.78125 
L 51.03125 11.859375 
L 54 21.875 
L 62.890625 51.859375 
L 71.4375 51.859375 
L 55.21875 0 
L 46.09375 0 
L 37.84375 31.0625 
L 35.84375 39.890625 
L 25.34375 0 
z
" id="ArialMT-119"/>
      <path d="M 6.5 0 
L 6.5 51.859375 
L 14.40625 51.859375 
L 14.40625 44 
Q 17.4375 49.515625 20 51.265625 
Q 22.5625 53.03125 25.640625 53.03125 
Q 30.078125 53.03125 34.671875 50.203125 
L 31.640625 42.046875 
Q 28.421875 43.953125 25.203125 43.953125 
Q 22.3125 43.953125 20.015625 42.21875 
Q 17.71875 40.484375 16.75 37.40625 
Q 15.28125 32.71875 15.28125 27.15625 
L 15.28125 0 
z
" id="ArialMT-114"/>
      <path d="M 40.4375 6.390625 
Q 35.546875 2.25 31.03125 0.53125 
Q 26.515625 -1.171875 21.34375 -1.171875 
Q 12.796875 -1.171875 8.203125 3 
Q 3.609375 7.171875 3.609375 13.671875 
Q 3.609375 17.484375 5.34375 20.625 
Q 7.078125 23.78125 9.890625 25.6875 
Q 12.703125 27.59375 16.21875 28.5625 
Q 18.796875 29.25 24.03125 29.890625 
Q 34.671875 31.15625 39.703125 32.90625 
Q 39.75 34.71875 39.75 35.203125 
Q 39.75 40.578125 37.25 42.78125 
Q 33.890625 45.75 27.25 45.75 
Q 21.046875 45.75 18.09375 43.578125 
Q 15.140625 41.40625 13.71875 35.890625 
L 5.125 37.0625 
Q 6.296875 42.578125 8.984375 45.96875 
Q 11.671875 49.359375 16.75 51.1875 
Q 21.828125 53.03125 28.515625 53.03125 
Q 35.15625 53.03125 39.296875 51.46875 
Q 43.453125 49.90625 45.40625 47.53125 
Q 47.359375 45.171875 48.140625 41.546875 
Q 48.578125 39.3125 48.578125 33.453125 
L 48.578125 21.734375 
Q 48.578125 9.46875 49.140625 6.21875 
Q 49.703125 2.984375 51.375 0 
L 42.1875 0 
Q 40.828125 2.734375 40.4375 6.390625 
z
M 39.703125 26.03125 
Q 34.90625 24.078125 25.34375 22.703125 
Q 19.921875 21.921875 17.671875 20.9375 
Q 15.4375 19.96875 14.203125 18.09375 
Q 12.984375 16.21875 12.984375 13.921875 
Q 12.984375 10.40625 15.640625 8.0625 
Q 18.3125 5.71875 23.4375 5.71875 
Q 28.515625 5.71875 32.46875 7.9375 
Q 36.421875 10.15625 38.28125 14.015625 
Q 39.703125 17 39.703125 22.796875 
z
" id="ArialMT-97"/>
     </defs>
     <use xlink:href="#ArialMT-102"/>
     <use x="27.783203" xlink:href="#ArialMT-105"/>
     <use x="50" xlink:href="#ArialMT-110"/>
     <use x="105.615234" xlink:href="#ArialMT-101"/>
     <use x="161.230469" xlink:href="#ArialMT-45"/>
     <use x="194.53125" xlink:href="#ArialMT-116"/>
     <use x="222.314453" xlink:href="#ArialMT-117"/>
     <use x="277.929688" xlink:href="#ArialMT-110"/>
     <use x="333.544922" xlink:href="#ArialMT-101"/>
     <use x="389.160156" xlink:href="#ArialMT-32"/>
     <use x="416.943359" xlink:href="#ArialMT-119"/>
     <use x="489.160156" xlink:href="#ArialMT-105"/>
     <use x="511.376953" xlink:href="#ArialMT-116"/>
     <use x="539.160156" xlink:href="#ArialMT-104"/>
     <use x="594.775391" xlink:href="#ArialMT-111"/>
     <use x="650.390625" xlink:href="#ArialMT-117"/>
     <use x="706.005859" xlink:href="#ArialMT-116"/>
     <use x="733.789062" xlink:href="#ArialMT-32"/>
     <use x="761.572266" xlink:href="#ArialMT-114"/>
     <use x="794.873047" xlink:href="#ArialMT-111"/>
     <use x="850.488281" xlink:href="#ArialMT-116"/>
     <use x="878.271484" xlink:href="#ArialMT-97"/>
     <use x="933.886719" xlink:href="#ArialMT-116"/>
     <use x="961.669922" xlink:href="#ArialMT-105"/>
     <use x="983.886719" xlink:href="#ArialMT-111"/>
     <use x="1039.501953" xlink:href="#ArialMT-110"/>
    </g>
   </g>
   <g id="line2d_60">
    <path d="M 1429.768501 211.804961 
L 1462.768501 211.804961 
" style="fill:none;stroke:#25bae2;stroke-linecap:round;stroke-width:2.25;"/>
   </g>
   <g id="line2d_61"/>
   <g id="text_38">
    <!-- ROI 10:0.1 | RCNN 100:0.1 without random rotation -->
    <g style="fill:#262626;" transform="translate(1475.968501 217.579961)scale(0.165 -0.165)">
     <defs>
      <path d="M 4.828125 34.859375 
Q 4.828125 52.6875 14.390625 62.765625 
Q 23.96875 72.859375 39.109375 72.859375 
Q 49.03125 72.859375 56.984375 68.109375 
Q 64.9375 63.375 69.109375 54.90625 
Q 73.296875 46.4375 73.296875 35.6875 
Q 73.296875 24.8125 68.890625 16.21875 
Q 64.5 7.625 56.4375 3.203125 
Q 48.390625 -1.21875 39.0625 -1.21875 
Q 28.953125 -1.21875 20.984375 3.65625 
Q 13.03125 8.546875 8.921875 16.984375 
Q 4.828125 25.4375 4.828125 34.859375 
z
M 14.59375 34.71875 
Q 14.59375 21.78125 21.546875 14.328125 
Q 28.515625 6.890625 39.015625 6.890625 
Q 49.703125 6.890625 56.609375 14.40625 
Q 63.53125 21.921875 63.53125 35.75 
Q 63.53125 44.484375 60.578125 51 
Q 57.625 57.515625 51.921875 61.109375 
Q 46.234375 64.703125 39.15625 64.703125 
Q 29.109375 64.703125 21.84375 57.78125 
Q 14.59375 50.875 14.59375 34.71875 
z
" id="ArialMT-79"/>
      <path d="M 9.328125 0 
L 9.328125 71.578125 
L 18.796875 71.578125 
L 18.796875 0 
z
" id="ArialMT-73"/>
      <path d="M 9.03125 41.84375 
L 9.03125 51.859375 
L 19.046875 51.859375 
L 19.046875 41.84375 
z
M 9.03125 0 
L 9.03125 10.015625 
L 19.046875 10.015625 
L 19.046875 0 
z
" id="ArialMT-58"/>
      <path d="M 9.1875 -21.046875 
L 9.1875 72.796875 
L 16.84375 72.796875 
L 16.84375 -21.046875 
z
" id="ArialMT-124"/>
      <path d="M 58.796875 25.09375 
L 68.265625 22.703125 
Q 65.28125 11.03125 57.546875 4.90625 
Q 49.8125 -1.21875 38.625 -1.21875 
Q 27.046875 -1.21875 19.796875 3.484375 
Q 12.546875 8.203125 8.765625 17.140625 
Q 4.984375 26.078125 4.984375 36.328125 
Q 4.984375 47.515625 9.25 55.828125 
Q 13.53125 64.15625 21.40625 68.46875 
Q 29.296875 72.796875 38.765625 72.796875 
Q 49.515625 72.796875 56.828125 67.328125 
Q 64.15625 61.859375 67.046875 51.953125 
L 57.71875 49.75 
Q 55.21875 57.5625 50.484375 61.125 
Q 45.75 64.703125 38.578125 64.703125 
Q 30.328125 64.703125 24.78125 60.734375 
Q 19.234375 56.78125 16.984375 50.109375 
Q 14.75 43.453125 14.75 36.375 
Q 14.75 27.25 17.40625 20.4375 
Q 20.0625 13.625 25.671875 10.25 
Q 31.296875 6.890625 37.84375 6.890625 
Q 45.796875 6.890625 51.3125 11.46875 
Q 56.84375 16.0625 58.796875 25.09375 
z
" id="ArialMT-67"/>
      <path d="M 7.625 0 
L 7.625 71.578125 
L 17.328125 71.578125 
L 54.9375 15.375 
L 54.9375 71.578125 
L 64.015625 71.578125 
L 64.015625 0 
L 54.296875 0 
L 16.703125 56.25 
L 16.703125 0 
z
" id="ArialMT-78"/>
      <path d="M 40.234375 0 
L 40.234375 6.546875 
Q 35.296875 -1.171875 25.734375 -1.171875 
Q 19.53125 -1.171875 14.328125 2.25 
Q 9.125 5.671875 6.265625 11.796875 
Q 3.421875 17.921875 3.421875 25.875 
Q 3.421875 33.640625 6 39.96875 
Q 8.59375 46.296875 13.765625 49.65625 
Q 18.953125 53.03125 25.34375 53.03125 
Q 30.03125 53.03125 33.6875 51.046875 
Q 37.359375 49.078125 39.65625 45.90625 
L 39.65625 71.578125 
L 48.390625 71.578125 
L 48.390625 0 
z
M 12.453125 25.875 
Q 12.453125 15.921875 16.640625 10.984375 
Q 20.84375 6.0625 26.5625 6.0625 
Q 32.328125 6.0625 36.34375 10.765625 
Q 40.375 15.484375 40.375 25.140625 
Q 40.375 35.796875 36.265625 40.765625 
Q 32.171875 45.75 26.171875 45.75 
Q 20.3125 45.75 16.375 40.96875 
Q 12.453125 36.1875 12.453125 25.875 
z
" id="ArialMT-100"/>
     </defs>
     <use xlink:href="#ArialMT-82"/>
     <use x="72.216797" xlink:href="#ArialMT-79"/>
     <use x="150" xlink:href="#ArialMT-73"/>
     <use x="177.783203" xlink:href="#ArialMT-32"/>
     <use x="205.566406" xlink:href="#ArialMT-49"/>
     <use x="261.181641" xlink:href="#ArialMT-48"/>
     <use x="316.796875" xlink:href="#ArialMT-58"/>
     <use x="344.580078" xlink:href="#ArialMT-48"/>
     <use x="400.195312" xlink:href="#ArialMT-46"/>
     <use x="427.978516" xlink:href="#ArialMT-49"/>
     <use x="483.59375" xlink:href="#ArialMT-32"/>
     <use x="511.376953" xlink:href="#ArialMT-124"/>
     <use x="537.353516" xlink:href="#ArialMT-32"/>
     <use x="565.136719" xlink:href="#ArialMT-82"/>
     <use x="637.353516" xlink:href="#ArialMT-67"/>
     <use x="709.570312" xlink:href="#ArialMT-78"/>
     <use x="781.787109" xlink:href="#ArialMT-78"/>
     <use x="854.003906" xlink:href="#ArialMT-32"/>
     <use x="881.787109" xlink:href="#ArialMT-49"/>
     <use x="937.402344" xlink:href="#ArialMT-48"/>
     <use x="993.017578" xlink:href="#ArialMT-48"/>
     <use x="1048.632812" xlink:href="#ArialMT-58"/>
     <use x="1076.416016" xlink:href="#ArialMT-48"/>
     <use x="1132.03125" xlink:href="#ArialMT-46"/>
     <use x="1159.814453" xlink:href="#ArialMT-49"/>
     <use x="1215.429688" xlink:href="#ArialMT-32"/>
     <use x="1243.212891" xlink:href="#ArialMT-119"/>
     <use x="1315.429688" xlink:href="#ArialMT-105"/>
     <use x="1337.646484" xlink:href="#ArialMT-116"/>
     <use x="1365.429688" xlink:href="#ArialMT-104"/>
     <use x="1421.044922" xlink:href="#ArialMT-111"/>
     <use x="1476.660156" xlink:href="#ArialMT-117"/>
     <use x="1532.275391" xlink:href="#ArialMT-116"/>
     <use x="1560.058594" xlink:href="#ArialMT-32"/>
     <use x="1587.841797" xlink:href="#ArialMT-114"/>
     <use x="1621.142578" xlink:href="#ArialMT-97"/>
     <use x="1676.757812" xlink:href="#ArialMT-110"/>
     <use x="1732.373047" xlink:href="#ArialMT-100"/>
     <use x="1787.988281" xlink:href="#ArialMT-111"/>
     <use x="1843.603516" xlink:href="#ArialMT-109"/>
     <use x="1926.904297" xlink:href="#ArialMT-32"/>
     <use x="1954.6875" xlink:href="#ArialMT-114"/>
     <use x="1987.988281" xlink:href="#ArialMT-111"/>
     <use x="2043.603516" xlink:href="#ArialMT-116"/>
     <use x="2071.386719" xlink:href="#ArialMT-97"/>
     <use x="2127.001953" xlink:href="#ArialMT-116"/>
     <use x="2154.785156" xlink:href="#ArialMT-105"/>
     <use x="2177.001953" xlink:href="#ArialMT-111"/>
     <use x="2232.617188" xlink:href="#ArialMT-110"/>
    </g>
   </g>
  </g>
 </g>
 <defs>
  <clipPath id="pccf4bcf8c7">
   <rect height="273.62" width="323.074066" x="63.546563" y="26.1375"/>
  </clipPath>
  <clipPath id="p47c04dc5c6">
   <rect height="273.62" width="323.074066" x="405.833843" y="26.1375"/>
  </clipPath>
  <clipPath id="p26a8bcb6ac">
   <rect height="273.62" width="323.074066" x="748.121124" y="26.1375"/>
  </clipPath>
  <clipPath id="p3b9168f1c5">
   <rect height="273.62" width="323.074066" x="1090.408404" y="26.1375"/>
  </clipPath>
 </defs>
</svg>
