<?xml version="1.0" encoding="utf-8" standalone="no"?>
<!DOCTYPE svg PUBLIC "-//W3C//DTD SVG 1.1//EN"
  "http://www.w3.org/Graphics/SVG/1.1/DTD/svg11.dtd">
<!-- Created with matplotlib (https://matplotlib.org/) -->
<svg height="283.174766pt" version="1.1" viewBox="0 0 444.449732 283.174766" width="444.449732pt" xmlns="http://www.w3.org/2000/svg" xmlns:xlink="http://www.w3.org/1999/xlink">
 <metadata>
  <rdf:RDF xmlns:cc="http://creativecommons.org/ns#" xmlns:dc="http://purl.org/dc/elements/1.1/" xmlns:rdf="http://www.w3.org/1999/02/22-rdf-syntax-ns#">
   <cc:Work>
    <dc:type rdf:resource="http://purl.org/dc/dcmitype/StillImage"/>
    <dc:date>2021-10-19T04:05:00.183954</dc:date>
    <dc:format>image/svg+xml</dc:format>
    <dc:creator>
     <cc:Agent>
      <dc:title>Matplotlib v3.3.4, https://matplotlib.org/</dc:title>
     </cc:Agent>
    </dc:creator>
   </cc:Work>
  </rdf:RDF>
 </metadata>
 <defs>
  <style type="text/css">*{stroke-linecap:butt;stroke-linejoin:round;}</style>
 </defs>
 <g id="figure_1">
  <g id="patch_1">
   <path d="M 0 283.174766 
L 444.449732 283.174766 
L 444.449732 0 
L 0 0 
z
" style="fill:#ffffff;"/>
  </g>
  <g id="axes_1">
   <g id="patch_2">
    <path d="M 72.831563 227.923437 
L 268.874482 227.923437 
L 268.874482 26.303437 
L 72.831563 26.303437 
z
" style="fill:#ffffff;"/>
   </g>
   <g id="matplotlib.axis_1">
    <g id="xtick_1">
     <g id="line2d_1">
      <path clip-path="url(#pc9ab7d7993)" d="M 77.172839 227.923437 
L 77.172839 26.303437 
" style="fill:none;stroke:#cccccc;stroke-linecap:round;stroke-width:1.5;"/>
     </g>
     <g id="text_1">
      <!-- 0 -->
      <g style="fill:#262626;" transform="translate(72.585066 252.233828)scale(0.165 -0.165)">
       <defs>
        <path d="M 4.15625 35.296875 
Q 4.15625 48 6.765625 55.734375 
Q 9.375 63.484375 14.515625 67.671875 
Q 19.671875 71.875 27.484375 71.875 
Q 33.25 71.875 37.59375 69.546875 
Q 41.9375 67.234375 44.765625 62.859375 
Q 47.609375 58.5 49.21875 52.21875 
Q 50.828125 45.953125 50.828125 35.296875 
Q 50.828125 22.703125 48.234375 14.96875 
Q 45.65625 7.234375 40.5 3 
Q 35.359375 -1.21875 27.484375 -1.21875 
Q 17.140625 -1.21875 11.234375 6.203125 
Q 4.15625 15.140625 4.15625 35.296875 
z
M 13.1875 35.296875 
Q 13.1875 17.671875 17.3125 11.828125 
Q 21.4375 6 27.484375 6 
Q 33.546875 6 37.671875 11.859375 
Q 41.796875 17.71875 41.796875 35.296875 
Q 41.796875 52.984375 37.671875 58.78125 
Q 33.546875 64.59375 27.390625 64.59375 
Q 21.34375 64.59375 17.71875 59.46875 
Q 13.1875 52.9375 13.1875 35.296875 
z
" id="ArialMT-48"/>
       </defs>
       <use xlink:href="#ArialMT-48"/>
      </g>
     </g>
    </g>
    <g id="xtick_2">
     <g id="line2d_2">
      <path clip-path="url(#pc9ab7d7993)" d="M 168.56814 227.923437 
L 168.56814 26.303437 
" style="fill:none;stroke:#cccccc;stroke-linecap:round;stroke-width:1.5;"/>
     </g>
     <g id="text_2">
      <!-- 20 -->
      <g style="fill:#262626;" transform="translate(159.392593 252.233828)scale(0.165 -0.165)">
       <defs>
        <path d="M 50.34375 8.453125 
L 50.34375 0 
L 3.03125 0 
Q 2.9375 3.171875 4.046875 6.109375 
Q 5.859375 10.9375 9.828125 15.625 
Q 13.8125 20.3125 21.34375 26.46875 
Q 33.015625 36.03125 37.109375 41.625 
Q 41.21875 47.21875 41.21875 52.203125 
Q 41.21875 57.421875 37.46875 61 
Q 33.734375 64.59375 27.734375 64.59375 
Q 21.390625 64.59375 17.578125 60.78125 
Q 13.765625 56.984375 13.71875 50.25 
L 4.6875 51.171875 
Q 5.609375 61.28125 11.65625 66.578125 
Q 17.71875 71.875 27.9375 71.875 
Q 38.234375 71.875 44.234375 66.15625 
Q 50.25 60.453125 50.25 52 
Q 50.25 47.703125 48.484375 43.546875 
Q 46.734375 39.40625 42.65625 34.8125 
Q 38.578125 30.21875 29.109375 22.21875 
Q 21.1875 15.578125 18.9375 13.203125 
Q 16.703125 10.84375 15.234375 8.453125 
z
" id="ArialMT-50"/>
       </defs>
       <use xlink:href="#ArialMT-50"/>
       <use x="55.615234" xlink:href="#ArialMT-48"/>
      </g>
     </g>
    </g>
    <g id="xtick_3">
     <g id="line2d_3">
      <path clip-path="url(#pc9ab7d7993)" d="M 259.96344 227.923437 
L 259.96344 26.303437 
" style="fill:none;stroke:#cccccc;stroke-linecap:round;stroke-width:1.5;"/>
     </g>
     <g id="text_3">
      <!-- 40 -->
      <g style="fill:#262626;" transform="translate(250.787893 252.233828)scale(0.165 -0.165)">
       <defs>
        <path d="M 32.328125 0 
L 32.328125 17.140625 
L 1.265625 17.140625 
L 1.265625 25.203125 
L 33.9375 71.578125 
L 41.109375 71.578125 
L 41.109375 25.203125 
L 50.78125 25.203125 
L 50.78125 17.140625 
L 41.109375 17.140625 
L 41.109375 0 
z
M 32.328125 25.203125 
L 32.328125 57.46875 
L 9.90625 25.203125 
z
" id="ArialMT-52"/>
       </defs>
       <use xlink:href="#ArialMT-52"/>
       <use x="55.615234" xlink:href="#ArialMT-48"/>
      </g>
     </g>
    </g>
    <g id="text_4">
     <!-- epoch -->
     <g style="fill:#262626;" transform="translate(146.333647 272.397266)scale(0.18 -0.18)">
      <defs>
       <path d="M 42.09375 16.703125 
L 51.171875 15.578125 
Q 49.03125 7.625 43.21875 3.21875 
Q 37.40625 -1.171875 28.375 -1.171875 
Q 17 -1.171875 10.328125 5.828125 
Q 3.65625 12.84375 3.65625 25.484375 
Q 3.65625 38.578125 10.390625 45.796875 
Q 17.140625 53.03125 27.875 53.03125 
Q 38.28125 53.03125 44.875 45.953125 
Q 51.46875 38.875 51.46875 26.03125 
Q 51.46875 25.25 51.421875 23.6875 
L 12.75 23.6875 
Q 13.234375 15.140625 17.578125 10.59375 
Q 21.921875 6.0625 28.421875 6.0625 
Q 33.25 6.0625 36.671875 8.59375 
Q 40.09375 11.140625 42.09375 16.703125 
z
M 13.234375 30.90625 
L 42.1875 30.90625 
Q 41.609375 37.453125 38.875 40.71875 
Q 34.671875 45.796875 27.984375 45.796875 
Q 21.921875 45.796875 17.796875 41.75 
Q 13.671875 37.703125 13.234375 30.90625 
z
" id="ArialMT-101"/>
       <path d="M 6.59375 -19.875 
L 6.59375 51.859375 
L 14.59375 51.859375 
L 14.59375 45.125 
Q 17.4375 49.078125 21 51.046875 
Q 24.5625 53.03125 29.640625 53.03125 
Q 36.28125 53.03125 41.359375 49.609375 
Q 46.4375 46.1875 49.015625 39.953125 
Q 51.609375 33.734375 51.609375 26.3125 
Q 51.609375 18.359375 48.75 11.984375 
Q 45.90625 5.609375 40.453125 2.21875 
Q 35.015625 -1.171875 29 -1.171875 
Q 24.609375 -1.171875 21.109375 0.6875 
Q 17.625 2.546875 15.375 5.375 
L 15.375 -19.875 
z
M 14.546875 25.640625 
Q 14.546875 15.625 18.59375 10.84375 
Q 22.65625 6.0625 28.421875 6.0625 
Q 34.28125 6.0625 38.453125 11.015625 
Q 42.625 15.96875 42.625 26.375 
Q 42.625 36.28125 38.546875 41.203125 
Q 34.46875 46.140625 28.8125 46.140625 
Q 23.1875 46.140625 18.859375 40.890625 
Q 14.546875 35.640625 14.546875 25.640625 
z
" id="ArialMT-112"/>
       <path d="M 3.328125 25.921875 
Q 3.328125 40.328125 11.328125 47.265625 
Q 18.015625 53.03125 27.640625 53.03125 
Q 38.328125 53.03125 45.109375 46.015625 
Q 51.90625 39.015625 51.90625 26.65625 
Q 51.90625 16.65625 48.90625 10.90625 
Q 45.90625 5.171875 40.15625 2 
Q 34.421875 -1.171875 27.640625 -1.171875 
Q 16.75 -1.171875 10.03125 5.8125 
Q 3.328125 12.796875 3.328125 25.921875 
z
M 12.359375 25.921875 
Q 12.359375 15.96875 16.703125 11.015625 
Q 21.046875 6.0625 27.640625 6.0625 
Q 34.1875 6.0625 38.53125 11.03125 
Q 42.875 16.015625 42.875 26.21875 
Q 42.875 35.84375 38.5 40.796875 
Q 34.125 45.75 27.640625 45.75 
Q 21.046875 45.75 16.703125 40.8125 
Q 12.359375 35.890625 12.359375 25.921875 
z
" id="ArialMT-111"/>
       <path d="M 40.4375 19 
L 49.078125 17.875 
Q 47.65625 8.9375 41.8125 3.875 
Q 35.984375 -1.171875 27.484375 -1.171875 
Q 16.84375 -1.171875 10.375 5.78125 
Q 3.90625 12.75 3.90625 25.734375 
Q 3.90625 34.125 6.6875 40.421875 
Q 9.46875 46.734375 15.15625 49.875 
Q 20.84375 53.03125 27.546875 53.03125 
Q 35.984375 53.03125 41.359375 48.75 
Q 46.734375 44.484375 48.25 36.625 
L 39.703125 35.296875 
Q 38.484375 40.53125 35.375 43.15625 
Q 32.28125 45.796875 27.875 45.796875 
Q 21.234375 45.796875 17.078125 41.03125 
Q 12.9375 36.28125 12.9375 25.984375 
Q 12.9375 15.53125 16.9375 10.796875 
Q 20.953125 6.0625 27.390625 6.0625 
Q 32.5625 6.0625 36.03125 9.234375 
Q 39.5 12.40625 40.4375 19 
z
" id="ArialMT-99"/>
       <path d="M 6.59375 0 
L 6.59375 71.578125 
L 15.375 71.578125 
L 15.375 45.90625 
Q 21.53125 53.03125 30.90625 53.03125 
Q 36.671875 53.03125 40.921875 50.75 
Q 45.171875 48.484375 47 44.484375 
Q 48.828125 40.484375 48.828125 32.859375 
L 48.828125 0 
L 40.046875 0 
L 40.046875 32.859375 
Q 40.046875 39.453125 37.1875 42.453125 
Q 34.328125 45.453125 29.109375 45.453125 
Q 25.203125 45.453125 21.75 43.421875 
Q 18.3125 41.40625 16.84375 37.9375 
Q 15.375 34.46875 15.375 28.375 
L 15.375 0 
z
" id="ArialMT-104"/>
      </defs>
      <use xlink:href="#ArialMT-101"/>
      <use x="55.615234" xlink:href="#ArialMT-112"/>
      <use x="111.230469" xlink:href="#ArialMT-111"/>
      <use x="166.845703" xlink:href="#ArialMT-99"/>
      <use x="216.845703" xlink:href="#ArialMT-104"/>
     </g>
    </g>
   </g>
   <g id="matplotlib.axis_2">
    <g id="ytick_1">
     <g id="line2d_4">
      <path clip-path="url(#pc9ab7d7993)" d="M 72.831563 219.706863 
L 268.874482 219.706863 
" style="fill:none;stroke:#cccccc;stroke-linecap:round;stroke-width:1.5;"/>
     </g>
     <g id="text_5">
      <!-- $\mathdefault{10^{-2}}$ -->
      <g style="fill:#262626;" transform="translate(27.661563 228.214675)scale(0.165 -0.165)">
       <defs>
        <path d="M 37.25 0 
L 28.46875 0 
L 28.46875 56 
Q 25.296875 52.984375 20.140625 49.953125 
Q 14.984375 46.921875 10.890625 45.40625 
L 10.890625 53.90625 
Q 18.265625 57.375 23.78125 62.296875 
Q 29.296875 67.234375 31.59375 71.875 
L 37.25 71.875 
z
" id="ArialMT-49"/>
        <path d="M 52.828125 31.203125 
L 5.5625 31.203125 
L 5.5625 39.40625 
L 52.828125 39.40625 
z
" id="ArialMT-8722"/>
       </defs>
       <use transform="translate(0 0.99375)" xlink:href="#ArialMT-49"/>
       <use transform="translate(55.615234 0.99375)" xlink:href="#ArialMT-48"/>
       <use transform="translate(112.972813 70.6875)scale(0.7)" xlink:href="#ArialMT-8722"/>
       <use transform="translate(153.851719 70.6875)scale(0.7)" xlink:href="#ArialMT-50"/>
      </g>
     </g>
    </g>
    <g id="ytick_2">
     <g id="line2d_5">
      <path clip-path="url(#pc9ab7d7993)" d="M 72.831563 109.479923 
L 268.874482 109.479923 
" style="fill:none;stroke:#cccccc;stroke-linecap:round;stroke-width:1.5;"/>
     </g>
     <g id="text_6">
      <!-- $\mathdefault{10^{-1}}$ -->
      <g style="fill:#262626;" transform="translate(27.661563 117.987735)scale(0.165 -0.165)">
       <use transform="translate(0 0.99375)" xlink:href="#ArialMT-49"/>
       <use transform="translate(55.615234 0.99375)" xlink:href="#ArialMT-48"/>
       <use transform="translate(112.972813 70.6875)scale(0.7)" xlink:href="#ArialMT-8722"/>
       <use transform="translate(153.851719 70.6875)scale(0.7)" xlink:href="#ArialMT-49"/>
      </g>
     </g>
    </g>
    <g id="ytick_3"/>
    <g id="ytick_4"/>
    <g id="ytick_5"/>
    <g id="ytick_6"/>
    <g id="ytick_7"/>
    <g id="ytick_8"/>
    <g id="ytick_9"/>
    <g id="ytick_10"/>
    <g id="ytick_11"/>
    <g id="ytick_12"/>
    <g id="ytick_13"/>
    <g id="ytick_14"/>
    <g id="ytick_15"/>
    <g id="text_7">
     <!-- loss -->
     <g style="fill:#262626;" transform="translate(20.084063 143.117969)rotate(-90)scale(0.18 -0.18)">
      <defs>
       <path d="M 6.390625 0 
L 6.390625 71.578125 
L 15.1875 71.578125 
L 15.1875 0 
z
" id="ArialMT-108"/>
       <path d="M 3.078125 15.484375 
L 11.765625 16.84375 
Q 12.5 11.625 15.84375 8.84375 
Q 19.1875 6.0625 25.203125 6.0625 
Q 31.25 6.0625 34.171875 8.515625 
Q 37.109375 10.984375 37.109375 14.3125 
Q 37.109375 17.28125 34.515625 19 
Q 32.71875 20.171875 25.53125 21.96875 
Q 15.875 24.421875 12.140625 26.203125 
Q 8.40625 27.984375 6.46875 31.125 
Q 4.546875 34.28125 4.546875 38.09375 
Q 4.546875 41.546875 6.125 44.5 
Q 7.71875 47.46875 10.453125 49.421875 
Q 12.5 50.921875 16.03125 51.96875 
Q 19.578125 53.03125 23.640625 53.03125 
Q 29.734375 53.03125 34.34375 51.265625 
Q 38.96875 49.515625 41.15625 46.5 
Q 43.359375 43.5 44.1875 38.484375 
L 35.59375 37.3125 
Q 35.015625 41.3125 32.203125 43.546875 
Q 29.390625 45.796875 24.265625 45.796875 
Q 18.21875 45.796875 15.625 43.796875 
Q 13.03125 41.796875 13.03125 39.109375 
Q 13.03125 37.40625 14.109375 36.03125 
Q 15.1875 34.625 17.484375 33.6875 
Q 18.796875 33.203125 25.25 31.453125 
Q 34.578125 28.953125 38.25 27.359375 
Q 41.9375 25.78125 44.03125 22.75 
Q 46.140625 19.734375 46.140625 15.234375 
Q 46.140625 10.84375 43.578125 6.953125 
Q 41.015625 3.078125 36.171875 0.953125 
Q 31.34375 -1.171875 25.25 -1.171875 
Q 15.140625 -1.171875 9.84375 3.03125 
Q 4.546875 7.234375 3.078125 15.484375 
z
" id="ArialMT-115"/>
      </defs>
      <use xlink:href="#ArialMT-108"/>
      <use x="22.216797" xlink:href="#ArialMT-111"/>
      <use x="77.832031" xlink:href="#ArialMT-115"/>
      <use x="127.832031" xlink:href="#ArialMT-115"/>
     </g>
    </g>
   </g>
   <g id="line2d_6">
    <path clip-path="url(#pc9ab7d7993)" d="M 81.742604 35.467983 
L 86.312369 49.990086 
L 90.882134 50.045381 
L 95.451899 72.216838 
L 100.021664 74.168278 
L 104.591429 93.304338 
L 109.161194 84.816044 
L 113.730959 100.871844 
L 118.300724 101.964004 
L 122.870489 100.394324 
L 127.440254 109.051011 
L 132.010019 104.700232 
L 136.579785 120.703617 
L 141.14955 115.00475 
L 145.719315 116.755654 
L 150.28908 121.681857 
L 154.858845 120.221893 
L 159.42861 133.2209 
L 163.998375 135.309561 
L 168.56814 149.438321 
L 173.137905 139.422654 
L 177.70767 147.071185 
L 182.277435 149.54875 
L 186.8472 150.780585 
L 191.416965 155.925233 
L 195.98673 151.236502 
L 200.556495 164.627885 
L 205.12626 154.433031 
L 209.696025 161.975892 
L 214.26579 154.925281 
L 218.835555 158.787936 
L 223.40532 168.903504 
L 227.975085 160.286154 
L 232.54485 174.150094 
L 237.114615 161.123568 
L 241.68438 175.272121 
L 246.254145 168.245474 
L 250.82391 168.08237 
L 255.393675 175.652051 
L 259.96344 167.75782 
" style="fill:none;stroke:#179c7d;stroke-linecap:round;stroke-width:2.25;"/>
   </g>
   <g id="line2d_7">
    <path clip-path="url(#pc9ab7d7993)" d="M 81.742604 126.828625 
L 86.312369 125.272259 
L 90.882134 125.072935 
L 95.451899 122.178577 
L 100.021664 122.053913 
L 104.591429 119.923259 
L 109.161194 120.82481 
L 113.730959 119.331521 
L 118.300724 119.214046 
L 122.870489 119.390367 
L 127.440254 118.515188 
L 132.010019 118.863342 
L 136.579785 117.542284 
L 141.14955 117.9405 
L 145.719315 117.826385 
L 150.28908 117.485665 
L 154.858845 117.655722 
L 159.42861 116.644327 
L 163.998375 116.477819 
L 168.56814 115.54506 
L 173.137905 116.201586 
L 177.70767 115.708349 
L 182.277435 115.599428 
L 186.8472 115.54506 
L 191.416965 115.166204 
L 195.98673 115.436509 
L 200.556495 114.736865 
L 205.12626 115.274143 
L 209.696025 114.897416 
L 214.26579 115.274143 
L 218.835555 115.058508 
L 223.40532 114.523631 
L 227.975085 114.951053 
L 232.54485 114.258417 
L 237.114615 114.951053 
L 241.68438 114.20555 
L 246.254145 114.523631 
L 250.82391 114.57685 
L 255.393675 114.152742 
L 259.96344 114.57685 
" style="fill:none;stroke:#006e92;stroke-linecap:round;stroke-width:2.25;"/>
   </g>
   <g id="line2d_8">
    <path clip-path="url(#pc9ab7d7993)" d="M 81.742604 67.450873 
L 86.312369 76.562325 
L 90.882134 86.297156 
L 95.451899 111.086318 
L 100.021664 104.786954 
L 104.591429 113.005453 
L 109.161194 116.811416 
L 113.730959 122.241031 
L 118.300724 129.15394 
L 122.870489 138.01199 
L 127.440254 157.990069 
L 132.010019 136.137799 
L 136.579785 160.982978 
L 141.14955 159.056875 
L 145.719315 166.955942 
L 150.28908 168.903504 
L 154.858845 152.161573 
L 159.42861 173.053765 
L 163.998375 167.115247 
L 168.56814 183.9622 
L 173.137905 177.598293 
L 177.70767 182.841049 
L 182.277435 194.024414 
L 186.8472 192.917522 
L 191.416965 191.835647 
L 195.98673 192.373528 
L 200.556495 206.780407 
L 205.12626 191.039989 
L 209.696025 190.257341 
L 214.26579 206.416367 
L 218.835555 204.987277 
L 223.40532 213.016325 
L 227.975085 200.939435 
L 232.54485 218.758892 
L 237.114615 198.727182 
L 241.68438 202.920584 
L 246.254145 213.016325 
L 250.82391 210.187683 
L 255.393675 218.758892 
L 259.96344 214.281711 
" style="fill:none;stroke:#52e5c3;stroke-linecap:round;stroke-width:2.25;"/>
   </g>
   <g id="line2d_9">
    <path clip-path="url(#pc9ab7d7993)" d="M 81.742604 113.942088 
L 86.312369 113.57566 
L 90.882134 113.212016 
L 95.451899 112.391058 
L 100.021664 112.543919 
L 104.591429 112.340212 
L 109.161194 112.187999 
L 113.730959 112.086792 
L 118.300724 111.885018 
L 122.870489 111.68409 
L 127.440254 111.284747 
L 132.010019 111.734243 
L 136.579785 111.235063 
L 141.14955 111.284747 
L 145.719315 111.086318 
L 150.28908 111.086318 
L 154.858845 111.384271 
L 159.42861 111.036839 
L 163.998375 111.135848 
L 168.56814 110.839433 
L 173.137905 110.938034 
L 177.70767 110.888708 
L 182.277435 110.741034 
L 186.8472 110.741034 
L 191.416965 110.741034 
L 195.98673 110.741034 
L 200.556495 110.544841 
L 205.12626 110.741034 
L 209.696025 110.741034 
L 214.26579 110.593814 
L 218.835555 110.593814 
L 223.40532 110.495918 
L 227.975085 110.642837 
L 232.54485 110.447046 
L 237.114615 110.642837 
L 241.68438 110.593814 
L 246.254145 110.495918 
L 250.82391 110.544841 
L 255.393675 110.447046 
L 259.96344 110.495918 
" style="fill:none;stroke:#25bae2;stroke-linecap:round;stroke-width:2.25;"/>
   </g>
   <g id="line2d_10"/>
   <g id="line2d_11"/>
   <g id="line2d_12"/>
   <g id="line2d_13"/>
   <g id="patch_3">
    <path d="M 72.831563 227.923437 
L 72.831563 26.303437 
" style="fill:none;stroke:#cccccc;stroke-linecap:square;stroke-linejoin:miter;stroke-width:1.875;"/>
   </g>
   <g id="patch_4">
    <path d="M 72.831563 227.923437 
L 268.874482 227.923437 
" style="fill:none;stroke:#cccccc;stroke-linecap:square;stroke-linejoin:miter;stroke-width:1.875;"/>
   </g>
   <g id="text_8">
    <!-- RoI 10:0.1 | RCNN 100:0.1 -->
    <g style="fill:#262626;" transform="translate(63.464741 20.303437)scale(0.18 -0.18)">
     <defs>
      <path d="M 7.859375 0 
L 7.859375 71.578125 
L 39.59375 71.578125 
Q 49.171875 71.578125 54.140625 69.640625 
Q 59.125 67.71875 62.109375 62.828125 
Q 65.09375 57.953125 65.09375 52.046875 
Q 65.09375 44.4375 60.15625 39.203125 
Q 55.21875 33.984375 44.921875 32.5625 
Q 48.6875 30.765625 50.640625 29 
Q 54.78125 25.203125 58.5 19.484375 
L 70.953125 0 
L 59.03125 0 
L 49.5625 14.890625 
Q 45.40625 21.34375 42.71875 24.75 
Q 40.046875 28.171875 37.921875 29.53125 
Q 35.796875 30.90625 33.59375 31.453125 
Q 31.984375 31.78125 28.328125 31.78125 
L 17.328125 31.78125 
L 17.328125 0 
z
M 17.328125 39.984375 
L 37.703125 39.984375 
Q 44.1875 39.984375 47.84375 41.328125 
Q 51.515625 42.671875 53.421875 45.625 
Q 55.328125 48.578125 55.328125 52.046875 
Q 55.328125 57.125 51.640625 60.390625 
Q 47.953125 63.671875 39.984375 63.671875 
L 17.328125 63.671875 
z
" id="ArialMT-82"/>
      <path d="M 9.328125 0 
L 9.328125 71.578125 
L 18.796875 71.578125 
L 18.796875 0 
z
" id="ArialMT-73"/>
      <path id="ArialMT-32"/>
      <path d="M 9.03125 41.84375 
L 9.03125 51.859375 
L 19.046875 51.859375 
L 19.046875 41.84375 
z
M 9.03125 0 
L 9.03125 10.015625 
L 19.046875 10.015625 
L 19.046875 0 
z
" id="ArialMT-58"/>
      <path d="M 9.078125 0 
L 9.078125 10.015625 
L 19.09375 10.015625 
L 19.09375 0 
z
" id="ArialMT-46"/>
      <path d="M 9.1875 -21.046875 
L 9.1875 72.796875 
L 16.84375 72.796875 
L 16.84375 -21.046875 
z
" id="ArialMT-124"/>
      <path d="M 58.796875 25.09375 
L 68.265625 22.703125 
Q 65.28125 11.03125 57.546875 4.90625 
Q 49.8125 -1.21875 38.625 -1.21875 
Q 27.046875 -1.21875 19.796875 3.484375 
Q 12.546875 8.203125 8.765625 17.140625 
Q 4.984375 26.078125 4.984375 36.328125 
Q 4.984375 47.515625 9.25 55.828125 
Q 13.53125 64.15625 21.40625 68.46875 
Q 29.296875 72.796875 38.765625 72.796875 
Q 49.515625 72.796875 56.828125 67.328125 
Q 64.15625 61.859375 67.046875 51.953125 
L 57.71875 49.75 
Q 55.21875 57.5625 50.484375 61.125 
Q 45.75 64.703125 38.578125 64.703125 
Q 30.328125 64.703125 24.78125 60.734375 
Q 19.234375 56.78125 16.984375 50.109375 
Q 14.75 43.453125 14.75 36.375 
Q 14.75 27.25 17.40625 20.4375 
Q 20.0625 13.625 25.671875 10.25 
Q 31.296875 6.890625 37.84375 6.890625 
Q 45.796875 6.890625 51.3125 11.46875 
Q 56.84375 16.0625 58.796875 25.09375 
z
" id="ArialMT-67"/>
      <path d="M 7.625 0 
L 7.625 71.578125 
L 17.328125 71.578125 
L 54.9375 15.375 
L 54.9375 71.578125 
L 64.015625 71.578125 
L 64.015625 0 
L 54.296875 0 
L 16.703125 56.25 
L 16.703125 0 
z
" id="ArialMT-78"/>
     </defs>
     <use xlink:href="#ArialMT-82"/>
     <use x="72.216797" xlink:href="#ArialMT-111"/>
     <use x="127.832031" xlink:href="#ArialMT-73"/>
     <use x="155.615234" xlink:href="#ArialMT-32"/>
     <use x="183.398438" xlink:href="#ArialMT-49"/>
     <use x="239.013672" xlink:href="#ArialMT-48"/>
     <use x="294.628906" xlink:href="#ArialMT-58"/>
     <use x="322.412109" xlink:href="#ArialMT-48"/>
     <use x="378.027344" xlink:href="#ArialMT-46"/>
     <use x="405.810547" xlink:href="#ArialMT-49"/>
     <use x="461.425781" xlink:href="#ArialMT-32"/>
     <use x="489.208984" xlink:href="#ArialMT-124"/>
     <use x="515.185547" xlink:href="#ArialMT-32"/>
     <use x="542.96875" xlink:href="#ArialMT-82"/>
     <use x="615.185547" xlink:href="#ArialMT-67"/>
     <use x="687.402344" xlink:href="#ArialMT-78"/>
     <use x="759.619141" xlink:href="#ArialMT-78"/>
     <use x="831.835938" xlink:href="#ArialMT-32"/>
     <use x="859.619141" xlink:href="#ArialMT-49"/>
     <use x="915.234375" xlink:href="#ArialMT-48"/>
     <use x="970.849609" xlink:href="#ArialMT-48"/>
     <use x="1026.464844" xlink:href="#ArialMT-58"/>
     <use x="1054.248047" xlink:href="#ArialMT-48"/>
     <use x="1109.863281" xlink:href="#ArialMT-46"/>
     <use x="1137.646484" xlink:href="#ArialMT-49"/>
    </g>
   </g>
  </g>
  <g id="legend_1">
   <g id="text_9">
    <!-- metric -->
    <g style="fill:#262626;" transform="translate(326.060005 99.561133)scale(0.18 -0.18)">
     <defs>
      <path d="M 6.59375 0 
L 6.59375 51.859375 
L 14.453125 51.859375 
L 14.453125 44.578125 
Q 16.890625 48.390625 20.9375 50.703125 
Q 25 53.03125 30.171875 53.03125 
Q 35.9375 53.03125 39.625 50.640625 
Q 43.3125 48.25 44.828125 43.953125 
Q 50.984375 53.03125 60.84375 53.03125 
Q 68.5625 53.03125 72.703125 48.75 
Q 76.859375 44.484375 76.859375 35.59375 
L 76.859375 0 
L 68.109375 0 
L 68.109375 32.671875 
Q 68.109375 37.9375 67.25 40.25 
Q 66.40625 42.578125 64.15625 43.984375 
Q 61.921875 45.40625 58.890625 45.40625 
Q 53.421875 45.40625 49.796875 41.765625 
Q 46.1875 38.140625 46.1875 30.125 
L 46.1875 0 
L 37.40625 0 
L 37.40625 33.6875 
Q 37.40625 39.546875 35.25 42.46875 
Q 33.109375 45.40625 28.21875 45.40625 
Q 24.515625 45.40625 21.359375 43.453125 
Q 18.21875 41.5 16.796875 37.734375 
Q 15.375 33.984375 15.375 26.90625 
L 15.375 0 
z
" id="ArialMT-109"/>
      <path d="M 25.78125 7.859375 
L 27.046875 0.09375 
Q 23.34375 -0.6875 20.40625 -0.6875 
Q 15.625 -0.6875 12.984375 0.828125 
Q 10.359375 2.34375 9.28125 4.8125 
Q 8.203125 7.28125 8.203125 15.1875 
L 8.203125 45.015625 
L 1.765625 45.015625 
L 1.765625 51.859375 
L 8.203125 51.859375 
L 8.203125 64.703125 
L 16.9375 69.96875 
L 16.9375 51.859375 
L 25.78125 51.859375 
L 25.78125 45.015625 
L 16.9375 45.015625 
L 16.9375 14.703125 
Q 16.9375 10.9375 17.40625 9.859375 
Q 17.875 8.796875 18.921875 8.15625 
Q 19.96875 7.515625 21.921875 7.515625 
Q 23.390625 7.515625 25.78125 7.859375 
z
" id="ArialMT-116"/>
      <path d="M 6.5 0 
L 6.5 51.859375 
L 14.40625 51.859375 
L 14.40625 44 
Q 17.4375 49.515625 20 51.265625 
Q 22.5625 53.03125 25.640625 53.03125 
Q 30.078125 53.03125 34.671875 50.203125 
L 31.640625 42.046875 
Q 28.421875 43.953125 25.203125 43.953125 
Q 22.3125 43.953125 20.015625 42.21875 
Q 17.71875 40.484375 16.75 37.40625 
Q 15.28125 32.71875 15.28125 27.15625 
L 15.28125 0 
z
" id="ArialMT-114"/>
      <path d="M 6.640625 61.46875 
L 6.640625 71.578125 
L 15.4375 71.578125 
L 15.4375 61.46875 
z
M 6.640625 0 
L 6.640625 51.859375 
L 15.4375 51.859375 
L 15.4375 0 
z
" id="ArialMT-105"/>
     </defs>
     <use xlink:href="#ArialMT-109"/>
     <use x="83.300781" xlink:href="#ArialMT-101"/>
     <use x="138.916016" xlink:href="#ArialMT-116"/>
     <use x="166.699219" xlink:href="#ArialMT-114"/>
     <use x="200" xlink:href="#ArialMT-105"/>
     <use x="222.216797" xlink:href="#ArialMT-99"/>
    </g>
   </g>
   <g id="line2d_14">
    <path d="M 271.516841 117.424023 
L 304.516841 117.424023 
" style="fill:none;stroke:#179c7d;stroke-linecap:round;stroke-width:2.25;"/>
   </g>
   <g id="line2d_15"/>
   <g id="text_10">
    <!-- roi_loss_intra -->
    <g style="fill:#262626;" transform="translate(317.716841 123.199023)scale(0.165 -0.165)">
     <defs>
      <path d="M -1.515625 -19.875 
L -1.515625 -13.53125 
L 56.734375 -13.53125 
L 56.734375 -19.875 
z
" id="ArialMT-95"/>
      <path d="M 6.59375 0 
L 6.59375 51.859375 
L 14.5 51.859375 
L 14.5 44.484375 
Q 20.21875 53.03125 31 53.03125 
Q 35.6875 53.03125 39.625 51.34375 
Q 43.5625 49.65625 45.515625 46.921875 
Q 47.46875 44.1875 48.25 40.4375 
Q 48.734375 37.984375 48.734375 31.890625 
L 48.734375 0 
L 39.9375 0 
L 39.9375 31.546875 
Q 39.9375 36.921875 38.90625 39.578125 
Q 37.890625 42.234375 35.28125 43.8125 
Q 32.671875 45.40625 29.15625 45.40625 
Q 23.53125 45.40625 19.453125 41.84375 
Q 15.375 38.28125 15.375 28.328125 
L 15.375 0 
z
" id="ArialMT-110"/>
      <path d="M 40.4375 6.390625 
Q 35.546875 2.25 31.03125 0.53125 
Q 26.515625 -1.171875 21.34375 -1.171875 
Q 12.796875 -1.171875 8.203125 3 
Q 3.609375 7.171875 3.609375 13.671875 
Q 3.609375 17.484375 5.34375 20.625 
Q 7.078125 23.78125 9.890625 25.6875 
Q 12.703125 27.59375 16.21875 28.5625 
Q 18.796875 29.25 24.03125 29.890625 
Q 34.671875 31.15625 39.703125 32.90625 
Q 39.75 34.71875 39.75 35.203125 
Q 39.75 40.578125 37.25 42.78125 
Q 33.890625 45.75 27.25 45.75 
Q 21.046875 45.75 18.09375 43.578125 
Q 15.140625 41.40625 13.71875 35.890625 
L 5.125 37.0625 
Q 6.296875 42.578125 8.984375 45.96875 
Q 11.671875 49.359375 16.75 51.1875 
Q 21.828125 53.03125 28.515625 53.03125 
Q 35.15625 53.03125 39.296875 51.46875 
Q 43.453125 49.90625 45.40625 47.53125 
Q 47.359375 45.171875 48.140625 41.546875 
Q 48.578125 39.3125 48.578125 33.453125 
L 48.578125 21.734375 
Q 48.578125 9.46875 49.140625 6.21875 
Q 49.703125 2.984375 51.375 0 
L 42.1875 0 
Q 40.828125 2.734375 40.4375 6.390625 
z
M 39.703125 26.03125 
Q 34.90625 24.078125 25.34375 22.703125 
Q 19.921875 21.921875 17.671875 20.9375 
Q 15.4375 19.96875 14.203125 18.09375 
Q 12.984375 16.21875 12.984375 13.921875 
Q 12.984375 10.40625 15.640625 8.0625 
Q 18.3125 5.71875 23.4375 5.71875 
Q 28.515625 5.71875 32.46875 7.9375 
Q 36.421875 10.15625 38.28125 14.015625 
Q 39.703125 17 39.703125 22.796875 
z
" id="ArialMT-97"/>
     </defs>
     <use xlink:href="#ArialMT-114"/>
     <use x="33.300781" xlink:href="#ArialMT-111"/>
     <use x="88.916016" xlink:href="#ArialMT-105"/>
     <use x="111.132812" xlink:href="#ArialMT-95"/>
     <use x="166.748047" xlink:href="#ArialMT-108"/>
     <use x="188.964844" xlink:href="#ArialMT-111"/>
     <use x="244.580078" xlink:href="#ArialMT-115"/>
     <use x="294.580078" xlink:href="#ArialMT-115"/>
     <use x="344.580078" xlink:href="#ArialMT-95"/>
     <use x="400.195312" xlink:href="#ArialMT-105"/>
     <use x="422.412109" xlink:href="#ArialMT-110"/>
     <use x="478.027344" xlink:href="#ArialMT-116"/>
     <use x="505.810547" xlink:href="#ArialMT-114"/>
     <use x="539.111328" xlink:href="#ArialMT-97"/>
    </g>
   </g>
   <g id="line2d_16">
    <path d="M 271.516841 140.763789 
L 304.516841 140.763789 
" style="fill:none;stroke:#006e92;stroke-linecap:round;stroke-width:2.25;"/>
   </g>
   <g id="line2d_17"/>
   <g id="text_11">
    <!-- roi_loss_inter -->
    <g style="fill:#262626;" transform="translate(317.716841 146.538789)scale(0.165 -0.165)">
     <use xlink:href="#ArialMT-114"/>
     <use x="33.300781" xlink:href="#ArialMT-111"/>
     <use x="88.916016" xlink:href="#ArialMT-105"/>
     <use x="111.132812" xlink:href="#ArialMT-95"/>
     <use x="166.748047" xlink:href="#ArialMT-108"/>
     <use x="188.964844" xlink:href="#ArialMT-111"/>
     <use x="244.580078" xlink:href="#ArialMT-115"/>
     <use x="294.580078" xlink:href="#ArialMT-115"/>
     <use x="344.580078" xlink:href="#ArialMT-95"/>
     <use x="400.195312" xlink:href="#ArialMT-105"/>
     <use x="422.412109" xlink:href="#ArialMT-110"/>
     <use x="478.027344" xlink:href="#ArialMT-116"/>
     <use x="505.810547" xlink:href="#ArialMT-101"/>
     <use x="561.425781" xlink:href="#ArialMT-114"/>
    </g>
   </g>
   <g id="line2d_18">
    <path d="M 271.516841 164.103555 
L 304.516841 164.103555 
" style="fill:none;stroke:#52e5c3;stroke-linecap:round;stroke-width:2.25;"/>
   </g>
   <g id="line2d_19"/>
   <g id="text_12">
    <!-- rcnn_loss_intra -->
    <g style="fill:#262626;" transform="translate(317.716841 169.878555)scale(0.165 -0.165)">
     <use xlink:href="#ArialMT-114"/>
     <use x="33.300781" xlink:href="#ArialMT-99"/>
     <use x="83.300781" xlink:href="#ArialMT-110"/>
     <use x="138.916016" xlink:href="#ArialMT-110"/>
     <use x="194.53125" xlink:href="#ArialMT-95"/>
     <use x="250.146484" xlink:href="#ArialMT-108"/>
     <use x="272.363281" xlink:href="#ArialMT-111"/>
     <use x="327.978516" xlink:href="#ArialMT-115"/>
     <use x="377.978516" xlink:href="#ArialMT-115"/>
     <use x="427.978516" xlink:href="#ArialMT-95"/>
     <use x="483.59375" xlink:href="#ArialMT-105"/>
     <use x="505.810547" xlink:href="#ArialMT-110"/>
     <use x="561.425781" xlink:href="#ArialMT-116"/>
     <use x="589.208984" xlink:href="#ArialMT-114"/>
     <use x="622.509766" xlink:href="#ArialMT-97"/>
    </g>
   </g>
   <g id="line2d_20">
    <path d="M 271.516841 187.44332 
L 304.516841 187.44332 
" style="fill:none;stroke:#25bae2;stroke-linecap:round;stroke-width:2.25;"/>
   </g>
   <g id="line2d_21"/>
   <g id="text_13">
    <!-- rcnn_loss_inter -->
    <g style="fill:#262626;" transform="translate(317.716841 193.21832)scale(0.165 -0.165)">
     <use xlink:href="#ArialMT-114"/>
     <use x="33.300781" xlink:href="#ArialMT-99"/>
     <use x="83.300781" xlink:href="#ArialMT-110"/>
     <use x="138.916016" xlink:href="#ArialMT-110"/>
     <use x="194.53125" xlink:href="#ArialMT-95"/>
     <use x="250.146484" xlink:href="#ArialMT-108"/>
     <use x="272.363281" xlink:href="#ArialMT-111"/>
     <use x="327.978516" xlink:href="#ArialMT-115"/>
     <use x="377.978516" xlink:href="#ArialMT-115"/>
     <use x="427.978516" xlink:href="#ArialMT-95"/>
     <use x="483.59375" xlink:href="#ArialMT-105"/>
     <use x="505.810547" xlink:href="#ArialMT-110"/>
     <use x="561.425781" xlink:href="#ArialMT-116"/>
     <use x="589.208984" xlink:href="#ArialMT-101"/>
     <use x="644.824219" xlink:href="#ArialMT-114"/>
    </g>
   </g>
  </g>
 </g>
 <defs>
  <clipPath id="pc9ab7d7993">
   <rect height="201.62" width="196.042919" x="72.831563" y="26.303437"/>
  </clipPath>
 </defs>
</svg>
