<?xml version="1.0" encoding="utf-8" standalone="no"?>
<!DOCTYPE svg PUBLIC "-//W3C//DTD SVG 1.1//EN"
  "http://www.w3.org/Graphics/SVG/1.1/DTD/svg11.dtd">
<!-- Created with matplotlib (https://matplotlib.org/) -->
<svg height="714.955391pt" version="1.1" viewBox="0 0 819.931898 714.955391" width="819.931898pt" xmlns="http://www.w3.org/2000/svg" xmlns:xlink="http://www.w3.org/1999/xlink">
 <metadata>
  <rdf:RDF xmlns:cc="http://creativecommons.org/ns#" xmlns:dc="http://purl.org/dc/elements/1.1/" xmlns:rdf="http://www.w3.org/1999/02/22-rdf-syntax-ns#">
   <cc:Work>
    <dc:type rdf:resource="http://purl.org/dc/dcmitype/StillImage"/>
    <dc:date>2021-07-26T22:48:31.379439</dc:date>
    <dc:format>image/svg+xml</dc:format>
    <dc:creator>
     <cc:Agent>
      <dc:title>Matplotlib v3.3.4, https://matplotlib.org/</dc:title>
     </cc:Agent>
    </dc:creator>
   </cc:Work>
  </rdf:RDF>
 </metadata>
 <defs>
  <style type="text/css">*{stroke-linecap:butt;stroke-linejoin:round;}</style>
 </defs>
 <g id="figure_1">
  <g id="patch_1">
   <path d="M 0 714.955391 
L 819.931898 714.955391 
L 819.931898 0 
L 0 0 
z
" style="fill:#ffffff;"/>
  </g>
  <g id="axes_1">
   <g id="patch_2">
    <path d="M 72.831563 323.174062 
L 388.245248 323.174062 
L 388.245248 26.084062 
L 72.831563 26.084062 
z
" style="fill:#eaeaf2;"/>
   </g>
   <g id="matplotlib.axis_1">
    <g id="xtick_1">
     <g id="line2d_1">
      <path clip-path="url(#pb72e03a534)" d="M 86.140807 323.174062 
L 86.140807 26.084062 
" style="fill:none;stroke:#ffffff;stroke-linecap:round;stroke-width:1.5;"/>
     </g>
    </g>
    <g id="xtick_2">
     <g id="line2d_2">
      <path clip-path="url(#pb72e03a534)" d="M 188.914899 323.174062 
L 188.914899 26.084062 
" style="fill:none;stroke:#ffffff;stroke-linecap:round;stroke-width:1.5;"/>
     </g>
    </g>
    <g id="xtick_3">
     <g id="line2d_3">
      <path clip-path="url(#pb72e03a534)" d="M 291.68899 323.174062 
L 291.68899 26.084062 
" style="fill:none;stroke:#ffffff;stroke-linecap:round;stroke-width:1.5;"/>
     </g>
    </g>
   </g>
   <g id="matplotlib.axis_2">
    <g id="ytick_1">
     <g id="line2d_4">
      <path clip-path="url(#pb72e03a534)" d="M 72.831563 273.467167 
L 388.245248 273.467167 
" style="fill:none;stroke:#ffffff;stroke-linecap:round;stroke-width:1.5;"/>
     </g>
     <g id="text_1">
      <!-- $\mathdefault{10^{-3}}$ -->
      <g style="fill:#262626;" transform="translate(27.661563 281.97498)scale(0.165 -0.165)">
       <defs>
        <path d="M 37.25 0 
L 28.46875 0 
L 28.46875 56 
Q 25.296875 52.984375 20.140625 49.953125 
Q 14.984375 46.921875 10.890625 45.40625 
L 10.890625 53.90625 
Q 18.265625 57.375 23.78125 62.296875 
Q 29.296875 67.234375 31.59375 71.875 
L 37.25 71.875 
z
" id="ArialMT-49"/>
        <path d="M 4.15625 35.296875 
Q 4.15625 48 6.765625 55.734375 
Q 9.375 63.484375 14.515625 67.671875 
Q 19.671875 71.875 27.484375 71.875 
Q 33.25 71.875 37.59375 69.546875 
Q 41.9375 67.234375 44.765625 62.859375 
Q 47.609375 58.5 49.21875 52.21875 
Q 50.828125 45.953125 50.828125 35.296875 
Q 50.828125 22.703125 48.234375 14.96875 
Q 45.65625 7.234375 40.5 3 
Q 35.359375 -1.21875 27.484375 -1.21875 
Q 17.140625 -1.21875 11.234375 6.203125 
Q 4.15625 15.140625 4.15625 35.296875 
z
M 13.1875 35.296875 
Q 13.1875 17.671875 17.3125 11.828125 
Q 21.4375 6 27.484375 6 
Q 33.546875 6 37.671875 11.859375 
Q 41.796875 17.71875 41.796875 35.296875 
Q 41.796875 52.984375 37.671875 58.78125 
Q 33.546875 64.59375 27.390625 64.59375 
Q 21.34375 64.59375 17.71875 59.46875 
Q 13.1875 52.9375 13.1875 35.296875 
z
" id="ArialMT-48"/>
        <path d="M 52.828125 31.203125 
L 5.5625 31.203125 
L 5.5625 39.40625 
L 52.828125 39.40625 
z
" id="ArialMT-8722"/>
        <path d="M 4.203125 18.890625 
L 12.984375 20.0625 
Q 14.5 12.59375 18.140625 9.296875 
Q 21.78125 6 27 6 
Q 33.203125 6 37.46875 10.296875 
Q 41.75 14.59375 41.75 20.953125 
Q 41.75 27 37.796875 30.921875 
Q 33.84375 34.859375 27.734375 34.859375 
Q 25.25 34.859375 21.53125 33.890625 
L 22.515625 41.609375 
Q 23.390625 41.5 23.921875 41.5 
Q 29.546875 41.5 34.03125 44.421875 
Q 38.53125 47.359375 38.53125 53.46875 
Q 38.53125 58.296875 35.25 61.46875 
Q 31.984375 64.65625 26.8125 64.65625 
Q 21.6875 64.65625 18.265625 61.421875 
Q 14.84375 58.203125 13.875 51.765625 
L 5.078125 53.328125 
Q 6.6875 62.15625 12.390625 67.015625 
Q 18.109375 71.875 26.609375 71.875 
Q 32.46875 71.875 37.390625 69.359375 
Q 42.328125 66.84375 44.9375 62.5 
Q 47.5625 58.15625 47.5625 53.265625 
Q 47.5625 48.640625 45.0625 44.828125 
Q 42.578125 41.015625 37.703125 38.765625 
Q 44.046875 37.3125 47.5625 32.6875 
Q 51.078125 28.078125 51.078125 21.140625 
Q 51.078125 11.765625 44.234375 5.25 
Q 37.40625 -1.265625 26.953125 -1.265625 
Q 17.53125 -1.265625 11.296875 4.34375 
Q 5.078125 9.96875 4.203125 18.890625 
z
" id="ArialMT-51"/>
       </defs>
       <use transform="translate(0 0.99375)" xlink:href="#ArialMT-49"/>
       <use transform="translate(55.615234 0.99375)" xlink:href="#ArialMT-48"/>
       <use transform="translate(112.972813 70.6875)scale(0.7)" xlink:href="#ArialMT-8722"/>
       <use transform="translate(153.851719 70.6875)scale(0.7)" xlink:href="#ArialMT-51"/>
      </g>
     </g>
    </g>
    <g id="ytick_2">
     <g id="line2d_5">
      <path clip-path="url(#pb72e03a534)" d="M 72.831563 204.229691 
L 388.245248 204.229691 
" style="fill:none;stroke:#ffffff;stroke-linecap:round;stroke-width:1.5;"/>
     </g>
     <g id="text_2">
      <!-- $\mathdefault{10^{-2}}$ -->
      <g style="fill:#262626;" transform="translate(27.661563 212.737504)scale(0.165 -0.165)">
       <defs>
        <path d="M 50.34375 8.453125 
L 50.34375 0 
L 3.03125 0 
Q 2.9375 3.171875 4.046875 6.109375 
Q 5.859375 10.9375 9.828125 15.625 
Q 13.8125 20.3125 21.34375 26.46875 
Q 33.015625 36.03125 37.109375 41.625 
Q 41.21875 47.21875 41.21875 52.203125 
Q 41.21875 57.421875 37.46875 61 
Q 33.734375 64.59375 27.734375 64.59375 
Q 21.390625 64.59375 17.578125 60.78125 
Q 13.765625 56.984375 13.71875 50.25 
L 4.6875 51.171875 
Q 5.609375 61.28125 11.65625 66.578125 
Q 17.71875 71.875 27.9375 71.875 
Q 38.234375 71.875 44.234375 66.15625 
Q 50.25 60.453125 50.25 52 
Q 50.25 47.703125 48.484375 43.546875 
Q 46.734375 39.40625 42.65625 34.8125 
Q 38.578125 30.21875 29.109375 22.21875 
Q 21.1875 15.578125 18.9375 13.203125 
Q 16.703125 10.84375 15.234375 8.453125 
z
" id="ArialMT-50"/>
       </defs>
       <use transform="translate(0 0.99375)" xlink:href="#ArialMT-49"/>
       <use transform="translate(55.615234 0.99375)" xlink:href="#ArialMT-48"/>
       <use transform="translate(112.972813 70.6875)scale(0.7)" xlink:href="#ArialMT-8722"/>
       <use transform="translate(153.851719 70.6875)scale(0.7)" xlink:href="#ArialMT-50"/>
      </g>
     </g>
    </g>
    <g id="ytick_3">
     <g id="line2d_6">
      <path clip-path="url(#pb72e03a534)" d="M 72.831563 134.992215 
L 388.245248 134.992215 
" style="fill:none;stroke:#ffffff;stroke-linecap:round;stroke-width:1.5;"/>
     </g>
     <g id="text_3">
      <!-- $\mathdefault{10^{-1}}$ -->
      <g style="fill:#262626;" transform="translate(27.661563 143.500028)scale(0.165 -0.165)">
       <use transform="translate(0 0.99375)" xlink:href="#ArialMT-49"/>
       <use transform="translate(55.615234 0.99375)" xlink:href="#ArialMT-48"/>
       <use transform="translate(112.972813 70.6875)scale(0.7)" xlink:href="#ArialMT-8722"/>
       <use transform="translate(153.851719 70.6875)scale(0.7)" xlink:href="#ArialMT-49"/>
      </g>
     </g>
    </g>
    <g id="ytick_4">
     <g id="line2d_7">
      <path clip-path="url(#pb72e03a534)" d="M 72.831563 65.75474 
L 388.245248 65.75474 
" style="fill:none;stroke:#ffffff;stroke-linecap:round;stroke-width:1.5;"/>
     </g>
     <g id="text_4">
      <!-- $\mathdefault{10^{0}}$ -->
      <g style="fill:#262626;" transform="translate(34.426563 74.262552)scale(0.165 -0.165)">
       <use transform="translate(0 0.99375)" xlink:href="#ArialMT-49"/>
       <use transform="translate(55.615234 0.99375)" xlink:href="#ArialMT-48"/>
       <use transform="translate(112.972813 70.6875)scale(0.7)" xlink:href="#ArialMT-48"/>
      </g>
     </g>
    </g>
    <g id="ytick_5"/>
    <g id="ytick_6"/>
    <g id="ytick_7"/>
    <g id="ytick_8"/>
    <g id="ytick_9"/>
    <g id="ytick_10"/>
    <g id="ytick_11"/>
    <g id="ytick_12"/>
    <g id="ytick_13"/>
    <g id="ytick_14"/>
    <g id="ytick_15"/>
    <g id="ytick_16"/>
    <g id="ytick_17"/>
    <g id="ytick_18"/>
    <g id="ytick_19"/>
    <g id="ytick_20"/>
    <g id="ytick_21"/>
    <g id="ytick_22"/>
    <g id="ytick_23"/>
    <g id="ytick_24"/>
    <g id="ytick_25"/>
    <g id="ytick_26"/>
    <g id="ytick_27"/>
    <g id="ytick_28"/>
    <g id="ytick_29"/>
    <g id="ytick_30"/>
    <g id="ytick_31"/>
    <g id="ytick_32"/>
    <g id="ytick_33"/>
    <g id="ytick_34"/>
    <g id="ytick_35"/>
    <g id="ytick_36"/>
    <g id="ytick_37"/>
    <g id="ytick_38"/>
    <g id="text_5">
     <!-- loss -->
     <g style="fill:#262626;" transform="translate(20.084063 190.633594)rotate(-90)scale(0.18 -0.18)">
      <defs>
       <path d="M 6.390625 0 
L 6.390625 71.578125 
L 15.1875 71.578125 
L 15.1875 0 
z
" id="ArialMT-108"/>
       <path d="M 3.328125 25.921875 
Q 3.328125 40.328125 11.328125 47.265625 
Q 18.015625 53.03125 27.640625 53.03125 
Q 38.328125 53.03125 45.109375 46.015625 
Q 51.90625 39.015625 51.90625 26.65625 
Q 51.90625 16.65625 48.90625 10.90625 
Q 45.90625 5.171875 40.15625 2 
Q 34.421875 -1.171875 27.640625 -1.171875 
Q 16.75 -1.171875 10.03125 5.8125 
Q 3.328125 12.796875 3.328125 25.921875 
z
M 12.359375 25.921875 
Q 12.359375 15.96875 16.703125 11.015625 
Q 21.046875 6.0625 27.640625 6.0625 
Q 34.1875 6.0625 38.53125 11.03125 
Q 42.875 16.015625 42.875 26.21875 
Q 42.875 35.84375 38.5 40.796875 
Q 34.125 45.75 27.640625 45.75 
Q 21.046875 45.75 16.703125 40.8125 
Q 12.359375 35.890625 12.359375 25.921875 
z
" id="ArialMT-111"/>
       <path d="M 3.078125 15.484375 
L 11.765625 16.84375 
Q 12.5 11.625 15.84375 8.84375 
Q 19.1875 6.0625 25.203125 6.0625 
Q 31.25 6.0625 34.171875 8.515625 
Q 37.109375 10.984375 37.109375 14.3125 
Q 37.109375 17.28125 34.515625 19 
Q 32.71875 20.171875 25.53125 21.96875 
Q 15.875 24.421875 12.140625 26.203125 
Q 8.40625 27.984375 6.46875 31.125 
Q 4.546875 34.28125 4.546875 38.09375 
Q 4.546875 41.546875 6.125 44.5 
Q 7.71875 47.46875 10.453125 49.421875 
Q 12.5 50.921875 16.03125 51.96875 
Q 19.578125 53.03125 23.640625 53.03125 
Q 29.734375 53.03125 34.34375 51.265625 
Q 38.96875 49.515625 41.15625 46.5 
Q 43.359375 43.5 44.1875 38.484375 
L 35.59375 37.3125 
Q 35.015625 41.3125 32.203125 43.546875 
Q 29.390625 45.796875 24.265625 45.796875 
Q 18.21875 45.796875 15.625 43.796875 
Q 13.03125 41.796875 13.03125 39.109375 
Q 13.03125 37.40625 14.109375 36.03125 
Q 15.1875 34.625 17.484375 33.6875 
Q 18.796875 33.203125 25.25 31.453125 
Q 34.578125 28.953125 38.25 27.359375 
Q 41.9375 25.78125 44.03125 22.75 
Q 46.140625 19.734375 46.140625 15.234375 
Q 46.140625 10.84375 43.578125 6.953125 
Q 41.015625 3.078125 36.171875 0.953125 
Q 31.34375 -1.171875 25.25 -1.171875 
Q 15.140625 -1.171875 9.84375 3.03125 
Q 4.546875 7.234375 3.078125 15.484375 
z
" id="ArialMT-115"/>
      </defs>
      <use xlink:href="#ArialMT-108"/>
      <use x="22.216797" xlink:href="#ArialMT-111"/>
      <use x="77.832031" xlink:href="#ArialMT-115"/>
      <use x="127.832031" xlink:href="#ArialMT-115"/>
     </g>
    </g>
   </g>
   <g id="line2d_8">
    <path clip-path="url(#pb72e03a534)" d="M 87.168548 39.588153 
L 88.196289 46.476708 
L 90.251771 55.857083 
L 91.279512 56.35887 
L 92.307253 59.642602 
L 93.334994 59.179949 
L 94.362735 64.790115 
L 95.390476 69.438448 
L 96.418216 66.70475 
L 97.445957 72.922819 
L 98.473698 65.363388 
L 99.501439 77.743074 
L 100.52918 74.325104 
L 101.556921 81.722471 
L 102.584662 84.692387 
L 103.612403 80.965014 
L 104.640144 87.843591 
L 105.667885 82.051552 
L 106.695626 91.611775 
L 107.723366 84.613465 
L 108.751107 88.663285 
L 109.778848 92.05556 
L 110.806589 90.867896 
L 111.83433 94.083818 
L 112.862071 88.785925 
L 113.889812 97.964889 
L 114.917553 93.723425 
L 115.945294 93.030237 
L 116.973035 93.868596 
L 118.000776 92.265407 
L 119.028516 98.398059 
L 120.056257 98.442613 
L 121.083998 103.331567 
L 122.111739 100.816774 
L 123.13948 102.057943 
L 124.167221 104.981246 
L 125.194962 102.259752 
L 126.222703 104.903761 
L 127.250444 102.759985 
L 128.278185 112.101152 
L 129.305926 109.634951 
L 130.333667 111.835482 
L 131.361407 114.391181 
L 132.389148 112.739895 
L 133.416889 113.805833 
L 134.44463 115.755391 
L 135.472371 116.722337 
L 136.500112 112.984773 
L 137.527853 117.434956 
L 138.555594 118.912953 
L 139.583335 117.334501 
L 140.611076 118.25091 
L 141.638817 116.985529 
L 142.666557 121.505326 
L 143.694298 119.410273 
L 144.722039 119.213915 
L 145.74978 121.047987 
L 146.777521 118.737313 
L 147.805262 121.085834 
L 148.833003 120.634784 
L 149.860744 121.066904 
L 150.888485 120.467369 
L 151.916226 123.061839 
L 152.943967 125.046997 
L 153.971708 124.469338 
L 154.999448 127.103065 
L 156.027189 124.896165 
L 157.05493 126.507611 
L 158.082671 124.006722 
L 159.110412 127.28868 
L 160.138153 126.552999 
L 161.165894 128.282411 
L 162.193635 128.718559 
L 163.221376 126.598455 
L 164.249117 130.14297 
L 166.304598 127.010686 
L 167.332339 129.235525 
L 168.36008 128.306476 
L 169.387821 129.33501 
L 170.415562 128.988242 
L 171.443303 131.052267 
L 172.471044 130.920672 
L 173.498785 128.499694 
L 174.526526 132.594628 
L 175.554267 129.484858 
L 176.582008 131.557648 
L 177.609748 132.845557 
L 178.637489 133.211747 
L 179.66523 130.815809 
L 180.692971 129.862779 
L 181.720712 130.946945 
L 182.748453 128.963625 
L 183.776194 132.12629 
L 184.803935 128.865359 
L 185.831676 134.191107 
L 186.859417 134.132606 
L 187.887158 131.665135 
L 188.914899 136.661452 
L 189.942639 133.841797 
L 190.97038 132.373325 
L 191.998121 135.722683 
L 193.025862 136.408234 
L 194.053603 135.052415 
L 195.081344 132.181012 
L 196.109085 136.43977 
L 197.136826 134.367296 
L 198.164567 133.69744 
L 199.192308 136.852775 
L 200.220049 132.456123 
L 201.247789 133.553773 
L 202.27553 131.746003 
L 203.303271 135.630399 
L 204.331012 131.665135 
L 206.386494 136.629683 
L 207.414235 135.69189 
L 208.441976 137.499455 
L 209.469717 131.2906 
L 210.497458 136.282421 
L 211.525199 133.899734 
L 212.552939 136.345262 
L 213.58068 137.336476 
L 214.608421 138.973086 
L 215.636162 136.376732 
L 216.663903 137.564894 
L 217.691644 138.361483 
L 218.719385 134.842243 
L 219.747126 136.345262 
L 220.774867 139.562362 
L 221.802608 138.093602 
L 222.830349 135.0223 
L 223.85809 135.355231 
L 224.88583 134.842243 
L 226.941312 133.126845 
L 228.996794 140.450479 
L 230.024535 136.251049 
L 231.052276 138.160349 
L 232.080017 139.041816 
L 233.107758 133.240101 
L 234.135499 134.992215 
L 235.16324 141.217319 
L 236.19098 137.894245 
L 237.218721 139.387844 
L 238.246462 136.502941 
L 239.274203 140.092078 
L 240.301944 137.045323 
L 241.329685 136.916821 
L 242.357426 141.180356 
L 243.385167 140.234927 
L 244.412908 140.740307 
L 245.440649 137.894245 
L 246.46839 137.401562 
L 247.49613 136.094681 
L 248.523871 138.870284 
L 249.551612 142.004228 
L 250.579353 141.032956 
L 251.607094 141.143438 
L 252.634835 138.836095 
L 253.662576 139.632454 
L 254.690317 139.248954 
L 255.718058 136.916821 
L 256.745799 146.766277 
L 257.77354 140.020908 
L 258.801281 142.424787 
L 259.829021 135.939123 
L 260.856762 140.631294 
L 261.884503 138.126957 
L 262.912244 142.271175 
L 263.939985 141.928391 
L 264.967726 142.890388 
L 265.995467 140.703926 
L 268.050949 141.402819 
L 269.07869 139.283617 
L 270.106431 139.597388 
L 271.134171 139.632454 
L 272.161912 141.928391 
L 274.217394 137.10978 
L 275.245135 139.879071 
L 276.272876 140.558838 
L 277.300617 142.271175 
L 278.328358 141.73963 
L 279.356099 141.62694 
L 280.38384 142.38631 
L 281.411581 142.656686 
L 282.439322 143.165355 
L 283.467062 141.365627 
L 284.494803 141.70202 
L 285.522544 146.944731 
L 286.550285 142.69551 
L 287.578026 145.079697 
L 288.605767 135.203442 
L 289.633508 141.664457 
L 290.661249 141.402819 
L 291.68899 142.156479 
L 292.716731 144.168432 
L 293.744472 143.363312 
L 294.772212 141.254328 
L 295.799953 136.597948 
L 296.827694 140.996219 
L 297.855435 141.514671 
L 298.883176 143.323616 
L 299.910917 142.080257 
L 300.938658 141.514671 
L 301.966399 144.496615 
L 302.99414 141.143438 
L 304.021881 145.588642 
L 305.049622 141.928391 
L 306.077362 144.870153 
L 307.105103 147.441013 
L 308.132844 145.889554 
L 309.160585 145.846382 
L 310.188326 141.890544 
L 311.216067 144.786743 
L 312.243808 141.928391 
L 313.271549 144.953796 
L 314.29929 144.537891 
L 315.327031 143.763177 
L 316.354772 143.244381 
L 317.382513 139.597388 
L 318.410253 145.760223 
L 319.437994 141.73963 
L 320.465735 144.662059 
L 321.493476 145.631446 
L 322.521217 146.368586 
L 323.548958 144.703563 
L 324.576699 142.540513 
L 325.60444 143.204842 
L 326.632181 141.254328 
L 327.659922 140.34251 
L 328.687663 145.460596 
L 329.715403 146.280919 
L 330.743144 145.760223 
L 331.770885 142.004228 
L 332.798626 143.72295 
L 333.826367 143.482714 
L 334.854108 145.206128 
L 335.881849 148.933136 
L 336.90959 145.889554 
L 337.937331 145.932789 
L 338.965072 142.77331 
L 339.992813 145.503218 
L 341.020553 141.180356 
L 342.048294 146.412515 
L 343.076035 149.561116 
L 344.103776 145.889554 
L 345.131517 144.953796 
L 346.159258 139.422666 
L 347.186999 145.588642 
L 348.21474 141.73963 
L 349.242481 145.079697 
L 350.270222 147.350168 
L 351.297963 146.324721 
L 352.325704 145.889554 
L 353.353444 138.973086 
L 354.381185 146.810791 
L 355.408926 145.333093 
L 356.436667 145.803272 
L 357.464408 145.375534 
L 358.492149 145.588642 
L 359.51989 145.460596 
L 360.547631 142.118344 
L 361.575372 144.620613 
L 362.603113 143.843792 
L 363.630854 146.412515 
L 364.658594 150.604092 
L 365.686335 148.038286 
L 366.714076 148.131237 
L 367.741817 144.870153 
L 368.769558 146.633128 
L 369.797299 140.558838 
L 371.852781 148.271204 
L 372.880522 146.588876 
L 373.908263 146.324721 
L 373.908263 146.324721 
" style="fill:none;stroke:#179c7d;stroke-linecap:round;stroke-width:2.25;"/>
   </g>
   <g id="line2d_9"/>
   <g id="patch_3">
    <path d="M 72.831563 323.174062 
L 72.831563 26.084062 
" style="fill:none;stroke:#ffffff;stroke-linecap:square;stroke-linejoin:miter;stroke-width:1.875;"/>
   </g>
   <g id="patch_4">
    <path d="M 72.831563 323.174062 
L 388.245248 323.174062 
" style="fill:none;stroke:#ffffff;stroke-linecap:square;stroke-linejoin:miter;stroke-width:1.875;"/>
   </g>
   <g id="text_6">
    <!-- roi_loss_intra -->
    <g style="fill:#262626;" transform="translate(177.01653 20.084062)scale(0.18 -0.18)">
     <defs>
      <path d="M 6.5 0 
L 6.5 51.859375 
L 14.40625 51.859375 
L 14.40625 44 
Q 17.4375 49.515625 20 51.265625 
Q 22.5625 53.03125 25.640625 53.03125 
Q 30.078125 53.03125 34.671875 50.203125 
L 31.640625 42.046875 
Q 28.421875 43.953125 25.203125 43.953125 
Q 22.3125 43.953125 20.015625 42.21875 
Q 17.71875 40.484375 16.75 37.40625 
Q 15.28125 32.71875 15.28125 27.15625 
L 15.28125 0 
z
" id="ArialMT-114"/>
      <path d="M 6.640625 61.46875 
L 6.640625 71.578125 
L 15.4375 71.578125 
L 15.4375 61.46875 
z
M 6.640625 0 
L 6.640625 51.859375 
L 15.4375 51.859375 
L 15.4375 0 
z
" id="ArialMT-105"/>
      <path d="M -1.515625 -19.875 
L -1.515625 -13.53125 
L 56.734375 -13.53125 
L 56.734375 -19.875 
z
" id="ArialMT-95"/>
      <path d="M 6.59375 0 
L 6.59375 51.859375 
L 14.5 51.859375 
L 14.5 44.484375 
Q 20.21875 53.03125 31 53.03125 
Q 35.6875 53.03125 39.625 51.34375 
Q 43.5625 49.65625 45.515625 46.921875 
Q 47.46875 44.1875 48.25 40.4375 
Q 48.734375 37.984375 48.734375 31.890625 
L 48.734375 0 
L 39.9375 0 
L 39.9375 31.546875 
Q 39.9375 36.921875 38.90625 39.578125 
Q 37.890625 42.234375 35.28125 43.8125 
Q 32.671875 45.40625 29.15625 45.40625 
Q 23.53125 45.40625 19.453125 41.84375 
Q 15.375 38.28125 15.375 28.328125 
L 15.375 0 
z
" id="ArialMT-110"/>
      <path d="M 25.78125 7.859375 
L 27.046875 0.09375 
Q 23.34375 -0.6875 20.40625 -0.6875 
Q 15.625 -0.6875 12.984375 0.828125 
Q 10.359375 2.34375 9.28125 4.8125 
Q 8.203125 7.28125 8.203125 15.1875 
L 8.203125 45.015625 
L 1.765625 45.015625 
L 1.765625 51.859375 
L 8.203125 51.859375 
L 8.203125 64.703125 
L 16.9375 69.96875 
L 16.9375 51.859375 
L 25.78125 51.859375 
L 25.78125 45.015625 
L 16.9375 45.015625 
L 16.9375 14.703125 
Q 16.9375 10.9375 17.40625 9.859375 
Q 17.875 8.796875 18.921875 8.15625 
Q 19.96875 7.515625 21.921875 7.515625 
Q 23.390625 7.515625 25.78125 7.859375 
z
" id="ArialMT-116"/>
      <path d="M 40.4375 6.390625 
Q 35.546875 2.25 31.03125 0.53125 
Q 26.515625 -1.171875 21.34375 -1.171875 
Q 12.796875 -1.171875 8.203125 3 
Q 3.609375 7.171875 3.609375 13.671875 
Q 3.609375 17.484375 5.34375 20.625 
Q 7.078125 23.78125 9.890625 25.6875 
Q 12.703125 27.59375 16.21875 28.5625 
Q 18.796875 29.25 24.03125 29.890625 
Q 34.671875 31.15625 39.703125 32.90625 
Q 39.75 34.71875 39.75 35.203125 
Q 39.75 40.578125 37.25 42.78125 
Q 33.890625 45.75 27.25 45.75 
Q 21.046875 45.75 18.09375 43.578125 
Q 15.140625 41.40625 13.71875 35.890625 
L 5.125 37.0625 
Q 6.296875 42.578125 8.984375 45.96875 
Q 11.671875 49.359375 16.75 51.1875 
Q 21.828125 53.03125 28.515625 53.03125 
Q 35.15625 53.03125 39.296875 51.46875 
Q 43.453125 49.90625 45.40625 47.53125 
Q 47.359375 45.171875 48.140625 41.546875 
Q 48.578125 39.3125 48.578125 33.453125 
L 48.578125 21.734375 
Q 48.578125 9.46875 49.140625 6.21875 
Q 49.703125 2.984375 51.375 0 
L 42.1875 0 
Q 40.828125 2.734375 40.4375 6.390625 
z
M 39.703125 26.03125 
Q 34.90625 24.078125 25.34375 22.703125 
Q 19.921875 21.921875 17.671875 20.9375 
Q 15.4375 19.96875 14.203125 18.09375 
Q 12.984375 16.21875 12.984375 13.921875 
Q 12.984375 10.40625 15.640625 8.0625 
Q 18.3125 5.71875 23.4375 5.71875 
Q 28.515625 5.71875 32.46875 7.9375 
Q 36.421875 10.15625 38.28125 14.015625 
Q 39.703125 17 39.703125 22.796875 
z
" id="ArialMT-97"/>
     </defs>
     <use xlink:href="#ArialMT-114"/>
     <use x="33.300781" xlink:href="#ArialMT-111"/>
     <use x="88.916016" xlink:href="#ArialMT-105"/>
     <use x="111.132812" xlink:href="#ArialMT-95"/>
     <use x="166.748047" xlink:href="#ArialMT-108"/>
     <use x="188.964844" xlink:href="#ArialMT-111"/>
     <use x="244.580078" xlink:href="#ArialMT-115"/>
     <use x="294.580078" xlink:href="#ArialMT-115"/>
     <use x="344.580078" xlink:href="#ArialMT-95"/>
     <use x="400.195312" xlink:href="#ArialMT-105"/>
     <use x="422.412109" xlink:href="#ArialMT-110"/>
     <use x="478.027344" xlink:href="#ArialMT-116"/>
     <use x="505.810547" xlink:href="#ArialMT-114"/>
     <use x="539.111328" xlink:href="#ArialMT-97"/>
    </g>
   </g>
  </g>
  <g id="axes_2">
   <g id="patch_5">
    <path d="M 407.821712 323.174062 
L 723.235398 323.174062 
L 723.235398 26.084062 
L 407.821712 26.084062 
z
" style="fill:#eaeaf2;"/>
   </g>
   <g id="matplotlib.axis_3">
    <g id="xtick_4">
     <g id="line2d_10">
      <path clip-path="url(#p18f7f08535)" d="M 421.130957 323.174062 
L 421.130957 26.084062 
" style="fill:none;stroke:#ffffff;stroke-linecap:round;stroke-width:1.5;"/>
     </g>
    </g>
    <g id="xtick_5">
     <g id="line2d_11">
      <path clip-path="url(#p18f7f08535)" d="M 523.905048 323.174062 
L 523.905048 26.084062 
" style="fill:none;stroke:#ffffff;stroke-linecap:round;stroke-width:1.5;"/>
     </g>
    </g>
    <g id="xtick_6">
     <g id="line2d_12">
      <path clip-path="url(#p18f7f08535)" d="M 626.679139 323.174062 
L 626.679139 26.084062 
" style="fill:none;stroke:#ffffff;stroke-linecap:round;stroke-width:1.5;"/>
     </g>
    </g>
   </g>
   <g id="matplotlib.axis_4">
    <g id="ytick_39">
     <g id="line2d_13">
      <path clip-path="url(#p18f7f08535)" d="M 407.821712 273.467167 
L 723.235398 273.467167 
" style="fill:none;stroke:#ffffff;stroke-linecap:round;stroke-width:1.5;"/>
     </g>
    </g>
    <g id="ytick_40">
     <g id="line2d_14">
      <path clip-path="url(#p18f7f08535)" d="M 407.821712 204.229691 
L 723.235398 204.229691 
" style="fill:none;stroke:#ffffff;stroke-linecap:round;stroke-width:1.5;"/>
     </g>
    </g>
    <g id="ytick_41">
     <g id="line2d_15">
      <path clip-path="url(#p18f7f08535)" d="M 407.821712 134.992215 
L 723.235398 134.992215 
" style="fill:none;stroke:#ffffff;stroke-linecap:round;stroke-width:1.5;"/>
     </g>
    </g>
    <g id="ytick_42">
     <g id="line2d_16">
      <path clip-path="url(#p18f7f08535)" d="M 407.821712 65.75474 
L 723.235398 65.75474 
" style="fill:none;stroke:#ffffff;stroke-linecap:round;stroke-width:1.5;"/>
     </g>
    </g>
    <g id="ytick_43"/>
    <g id="ytick_44"/>
    <g id="ytick_45"/>
    <g id="ytick_46"/>
    <g id="ytick_47"/>
    <g id="ytick_48"/>
    <g id="ytick_49"/>
    <g id="ytick_50"/>
    <g id="ytick_51"/>
    <g id="ytick_52"/>
    <g id="ytick_53"/>
    <g id="ytick_54"/>
    <g id="ytick_55"/>
    <g id="ytick_56"/>
    <g id="ytick_57"/>
    <g id="ytick_58"/>
    <g id="ytick_59"/>
    <g id="ytick_60"/>
    <g id="ytick_61"/>
    <g id="ytick_62"/>
    <g id="ytick_63"/>
    <g id="ytick_64"/>
    <g id="ytick_65"/>
    <g id="ytick_66"/>
    <g id="ytick_67"/>
    <g id="ytick_68"/>
    <g id="ytick_69"/>
    <g id="ytick_70"/>
    <g id="ytick_71"/>
    <g id="ytick_72"/>
    <g id="ytick_73"/>
    <g id="ytick_74"/>
    <g id="ytick_75"/>
    <g id="ytick_76"/>
   </g>
   <g id="line2d_17">
    <path clip-path="url(#p18f7f08535)" d="M 422.158698 99.643368 
L 423.186439 101.263984 
L 425.24192 106.8444 
L 427.297402 116.705964 
L 428.325143 121.447777 
L 429.352884 128.114492 
L 430.380625 132.235833 
L 431.408366 139.214332 
L 433.463848 155.239318 
L 434.491589 161.365232 
L 435.51933 170.995222 
L 436.547071 174.474728 
L 437.574811 181.072958 
L 438.602552 189.354446 
L 439.630293 207.733799 
L 440.658034 221.664517 
L 441.685775 237.566571 
L 442.713516 242.507074 
L 443.741257 248.422045 
L 444.768998 244.73546 
L 445.796739 255.792743 
L 446.82448 242.507074 
L 447.852221 220.09532 
L 448.879961 225.679733 
L 449.907702 221.1323 
L 450.935443 214.107629 
L 451.963184 209.83252 
L 452.990925 210.565958 
L 454.018666 211.700789 
L 455.046407 205.772053 
L 456.074148 216.271833 
L 457.101889 230.314959 
L 458.12963 245.914805 
L 459.157371 248.422045 
L 460.185111 265.578017 
L 461.212852 273.467167 
L 462.240593 263.349631 
L 463.268334 261.275053 
L 464.296075 247.1423 
L 465.323816 244.73546 
L 466.351557 226.932808 
L 467.379298 234.126314 
L 469.43478 223.320134 
L 470.462521 219.092912 
L 471.490262 212.481857 
L 472.518002 221.664517 
L 473.545743 215.387373 
L 475.601225 228.916128 
L 476.628966 233.324414 
L 477.656707 233.324414 
L 478.684448 231.03956 
L 479.712189 243.600629 
L 480.73993 230.314959 
L 481.767671 239.446524 
L 482.795412 245.914805 
L 483.823152 248.422045 
L 485.878634 236.668908 
L 486.906375 244.73546 
L 487.934116 230.314959 
L 488.961857 233.324414 
L 489.989598 242.507074 
L 492.04508 238.491858 
L 493.072821 237.566571 
L 494.100562 245.914805 
L 495.128302 236.668908 
L 496.156043 240.432496 
L 497.183784 244.73546 
L 498.211525 239.446524 
L 499.239266 238.491858 
L 500.267007 231.782053 
L 501.294748 240.432496 
L 502.322489 234.126314 
L 503.35023 234.126314 
L 504.377971 242.507074 
L 505.405712 236.668908 
L 506.433453 237.566571 
L 507.461193 236.668908 
L 508.488934 245.914805 
L 509.516675 235.797269 
L 510.544416 241.451897 
L 511.572157 242.507074 
L 512.599898 238.491858 
L 513.627639 236.668908 
L 514.65538 237.566571 
L 515.683121 249.758685 
L 516.710862 239.446524 
L 517.738603 247.1423 
L 518.766343 249.758685 
L 519.794084 238.491858 
L 520.821825 234.126314 
L 521.849566 231.782053 
L 522.877307 240.432496 
L 523.905048 235.797269 
L 525.96053 255.792743 
L 526.988271 248.422045 
L 528.016012 251.157516 
L 529.043753 247.1423 
L 530.071494 251.157516 
L 531.099234 239.446524 
L 532.126975 242.507074 
L 533.154716 244.73546 
L 534.182457 241.451897 
L 535.210198 243.600629 
L 536.237939 239.446524 
L 537.26568 243.600629 
L 538.293421 241.451897 
L 539.321162 245.914805 
L 540.348903 251.157516 
L 541.376644 243.600629 
L 542.404384 240.432496 
L 543.432125 240.432496 
L 544.459866 243.600629 
L 545.487607 238.491858 
L 546.515348 245.914805 
L 547.543089 244.73546 
L 548.57083 240.432496 
L 549.598571 238.491858 
L 550.626312 244.73546 
L 551.654053 254.166971 
L 552.681794 247.1423 
L 553.709534 252.62461 
L 554.737275 255.792743 
L 555.765016 248.422045 
L 556.792757 245.914805 
L 557.820498 241.451897 
L 558.848239 240.432496 
L 559.87598 234.950186 
L 560.903721 230.314959 
L 561.931462 238.491858 
L 562.959203 238.491858 
L 563.986944 244.73546 
L 565.014685 252.62461 
L 566.042425 265.578017 
L 567.070166 265.578017 
L 568.097907 261.275053 
L 569.125648 273.467167 
L 570.153389 255.792743 
L 571.18113 249.758685 
L 572.208871 245.914805 
L 573.236612 247.1423 
L 575.292094 235.797269 
L 576.319835 241.451897 
L 577.347575 251.157516 
L 578.375316 252.62461 
L 579.403057 265.578017 
L 580.430798 276.6353 
L 581.458539 273.467167 
L 582.48628 273.467167 
L 583.514021 270.601242 
L 584.541762 257.511465 
L 585.569503 252.62461 
L 587.624985 247.1423 
L 589.680466 244.73546 
L 590.708207 241.451897 
L 591.735948 242.507074 
L 593.79143 242.507074 
L 594.819171 254.166971 
L 595.846912 252.62461 
L 596.874653 255.792743 
L 597.902394 259.334415 
L 598.930135 251.157516 
L 599.957876 251.157516 
L 600.985616 241.451897 
L 602.013357 241.451897 
L 603.041098 242.507074 
L 604.068839 241.451897 
L 605.09658 237.566571 
L 606.124321 236.668908 
L 607.152062 244.73546 
L 608.179803 251.157516 
L 609.207544 261.275053 
L 610.235285 267.984857 
L 611.263026 265.578017 
L 612.290766 270.601242 
L 613.318507 267.984857 
L 614.346248 267.984857 
L 615.373989 270.601242 
L 616.40173 265.578017 
L 617.429471 255.792743 
L 618.457212 254.166971 
L 619.484953 254.166971 
L 620.512694 251.157516 
L 621.540435 249.758685 
L 622.568176 243.600629 
L 623.595916 249.758685 
L 624.623657 239.446524 
L 625.651398 242.507074 
L 626.679139 239.446524 
L 627.70688 238.491858 
L 628.734621 245.914805 
L 629.762362 247.1423 
L 630.790103 261.275053 
L 631.817844 273.467167 
L 632.845585 280.176972 
L 633.873326 288.827415 
L 634.901067 288.827415 
L 635.928807 284.192188 
L 636.956548 284.192188 
L 637.984289 270.601242 
L 639.01203 265.578017 
L 640.039771 259.334415 
L 641.067512 255.792743 
L 642.095253 248.422045 
L 643.122994 249.758685 
L 644.150735 252.62461 
L 645.178476 263.349631 
L 646.206217 261.275053 
L 647.233957 267.984857 
L 648.261698 267.984857 
L 649.289439 263.349631 
L 650.31718 267.984857 
L 651.344921 252.62461 
L 652.372662 255.792743 
L 653.400403 245.914805 
L 654.428144 243.600629 
L 655.455885 240.432496 
L 656.483626 233.324414 
L 657.511367 240.432496 
L 658.539108 243.600629 
L 659.566848 254.166971 
L 660.594589 267.984857 
L 661.62233 273.467167 
L 662.650071 276.6353 
L 663.677812 270.601242 
L 664.705553 267.984857 
L 665.733294 263.349631 
L 666.761035 263.349631 
L 667.788776 259.334415 
L 668.816517 257.511465 
L 669.844258 248.422045 
L 670.871998 243.600629 
L 671.899739 248.422045 
L 672.92748 248.422045 
L 673.955221 254.166971 
L 674.982962 257.511465 
L 676.010703 259.334415 
L 677.038444 255.792743 
L 679.093926 252.62461 
L 680.121667 251.157516 
L 681.149408 252.62461 
L 682.177148 259.334415 
L 683.204889 267.984857 
L 685.260371 273.467167 
L 686.288112 288.827415 
L 687.315853 288.827415 
L 688.343594 294.309724 
L 689.371335 309.669972 
L 690.399076 301.019529 
L 691.426817 301.019529 
L 692.454558 288.827415 
L 693.482299 284.192188 
L 694.510039 267.984857 
L 695.53778 267.984857 
L 696.565521 254.166971 
L 697.593262 243.600629 
L 698.621003 234.950186 
L 699.648744 237.566571 
L 700.676485 241.451897 
L 701.704226 240.432496 
L 702.731967 259.334415 
L 703.759708 270.601242 
L 705.815189 270.601242 
L 706.84293 267.984857 
L 707.870671 261.275053 
L 708.898412 249.758685 
L 708.898412 249.758685 
" style="fill:none;stroke:#179c7d;stroke-linecap:round;stroke-width:2.25;"/>
   </g>
   <g id="patch_6">
    <path d="M 407.821712 323.174062 
L 407.821712 26.084062 
" style="fill:none;stroke:#ffffff;stroke-linecap:square;stroke-linejoin:miter;stroke-width:1.875;"/>
   </g>
   <g id="patch_7">
    <path d="M 407.821712 323.174062 
L 723.235398 323.174062 
" style="fill:none;stroke:#ffffff;stroke-linecap:square;stroke-linejoin:miter;stroke-width:1.875;"/>
   </g>
   <g id="text_7">
    <!-- roi_loss_inter -->
    <g style="fill:#262626;" transform="translate(512.00668 20.084062)scale(0.18 -0.18)">
     <defs>
      <path d="M 42.09375 16.703125 
L 51.171875 15.578125 
Q 49.03125 7.625 43.21875 3.21875 
Q 37.40625 -1.171875 28.375 -1.171875 
Q 17 -1.171875 10.328125 5.828125 
Q 3.65625 12.84375 3.65625 25.484375 
Q 3.65625 38.578125 10.390625 45.796875 
Q 17.140625 53.03125 27.875 53.03125 
Q 38.28125 53.03125 44.875 45.953125 
Q 51.46875 38.875 51.46875 26.03125 
Q 51.46875 25.25 51.421875 23.6875 
L 12.75 23.6875 
Q 13.234375 15.140625 17.578125 10.59375 
Q 21.921875 6.0625 28.421875 6.0625 
Q 33.25 6.0625 36.671875 8.59375 
Q 40.09375 11.140625 42.09375 16.703125 
z
M 13.234375 30.90625 
L 42.1875 30.90625 
Q 41.609375 37.453125 38.875 40.71875 
Q 34.671875 45.796875 27.984375 45.796875 
Q 21.921875 45.796875 17.796875 41.75 
Q 13.671875 37.703125 13.234375 30.90625 
z
" id="ArialMT-101"/>
     </defs>
     <use xlink:href="#ArialMT-114"/>
     <use x="33.300781" xlink:href="#ArialMT-111"/>
     <use x="88.916016" xlink:href="#ArialMT-105"/>
     <use x="111.132812" xlink:href="#ArialMT-95"/>
     <use x="166.748047" xlink:href="#ArialMT-108"/>
     <use x="188.964844" xlink:href="#ArialMT-111"/>
     <use x="244.580078" xlink:href="#ArialMT-115"/>
     <use x="294.580078" xlink:href="#ArialMT-115"/>
     <use x="344.580078" xlink:href="#ArialMT-95"/>
     <use x="400.195312" xlink:href="#ArialMT-105"/>
     <use x="422.412109" xlink:href="#ArialMT-110"/>
     <use x="478.027344" xlink:href="#ArialMT-116"/>
     <use x="505.810547" xlink:href="#ArialMT-101"/>
     <use x="561.425781" xlink:href="#ArialMT-114"/>
    </g>
   </g>
  </g>
  <g id="axes_3">
   <g id="patch_8">
    <path d="M 72.831563 659.704062 
L 388.245248 659.704062 
L 388.245248 362.614062 
L 72.831563 362.614062 
z
" style="fill:#eaeaf2;"/>
   </g>
   <g id="matplotlib.axis_5">
    <g id="xtick_7">
     <g id="line2d_18">
      <path clip-path="url(#pd39e530c1e)" d="M 86.140807 659.704062 
L 86.140807 362.614062 
" style="fill:none;stroke:#ffffff;stroke-linecap:round;stroke-width:1.5;"/>
     </g>
     <g id="text_8">
      <!-- 0 -->
      <g style="fill:#262626;" transform="translate(81.553034 684.014453)scale(0.165 -0.165)">
       <use xlink:href="#ArialMT-48"/>
      </g>
     </g>
    </g>
    <g id="xtick_8">
     <g id="line2d_19">
      <path clip-path="url(#pd39e530c1e)" d="M 188.914899 659.704062 
L 188.914899 362.614062 
" style="fill:none;stroke:#ffffff;stroke-linecap:round;stroke-width:1.5;"/>
     </g>
     <g id="text_9">
      <!-- 100 -->
      <g style="fill:#262626;" transform="translate(175.151578 684.014453)scale(0.165 -0.165)">
       <use xlink:href="#ArialMT-49"/>
       <use x="55.615234" xlink:href="#ArialMT-48"/>
       <use x="111.230469" xlink:href="#ArialMT-48"/>
      </g>
     </g>
    </g>
    <g id="xtick_9">
     <g id="line2d_20">
      <path clip-path="url(#pd39e530c1e)" d="M 291.68899 659.704062 
L 291.68899 362.614062 
" style="fill:none;stroke:#ffffff;stroke-linecap:round;stroke-width:1.5;"/>
     </g>
     <g id="text_10">
      <!-- 200 -->
      <g style="fill:#262626;" transform="translate(277.925669 684.014453)scale(0.165 -0.165)">
       <use xlink:href="#ArialMT-50"/>
       <use x="55.615234" xlink:href="#ArialMT-48"/>
       <use x="111.230469" xlink:href="#ArialMT-48"/>
      </g>
     </g>
    </g>
    <g id="text_11">
     <!-- epoch -->
     <g style="fill:#262626;" transform="translate(206.01903 704.177891)scale(0.18 -0.18)">
      <defs>
       <path d="M 6.59375 -19.875 
L 6.59375 51.859375 
L 14.59375 51.859375 
L 14.59375 45.125 
Q 17.4375 49.078125 21 51.046875 
Q 24.5625 53.03125 29.640625 53.03125 
Q 36.28125 53.03125 41.359375 49.609375 
Q 46.4375 46.1875 49.015625 39.953125 
Q 51.609375 33.734375 51.609375 26.3125 
Q 51.609375 18.359375 48.75 11.984375 
Q 45.90625 5.609375 40.453125 2.21875 
Q 35.015625 -1.171875 29 -1.171875 
Q 24.609375 -1.171875 21.109375 0.6875 
Q 17.625 2.546875 15.375 5.375 
L 15.375 -19.875 
z
M 14.546875 25.640625 
Q 14.546875 15.625 18.59375 10.84375 
Q 22.65625 6.0625 28.421875 6.0625 
Q 34.28125 6.0625 38.453125 11.015625 
Q 42.625 15.96875 42.625 26.375 
Q 42.625 36.28125 38.546875 41.203125 
Q 34.46875 46.140625 28.8125 46.140625 
Q 23.1875 46.140625 18.859375 40.890625 
Q 14.546875 35.640625 14.546875 25.640625 
z
" id="ArialMT-112"/>
       <path d="M 40.4375 19 
L 49.078125 17.875 
Q 47.65625 8.9375 41.8125 3.875 
Q 35.984375 -1.171875 27.484375 -1.171875 
Q 16.84375 -1.171875 10.375 5.78125 
Q 3.90625 12.75 3.90625 25.734375 
Q 3.90625 34.125 6.6875 40.421875 
Q 9.46875 46.734375 15.15625 49.875 
Q 20.84375 53.03125 27.546875 53.03125 
Q 35.984375 53.03125 41.359375 48.75 
Q 46.734375 44.484375 48.25 36.625 
L 39.703125 35.296875 
Q 38.484375 40.53125 35.375 43.15625 
Q 32.28125 45.796875 27.875 45.796875 
Q 21.234375 45.796875 17.078125 41.03125 
Q 12.9375 36.28125 12.9375 25.984375 
Q 12.9375 15.53125 16.9375 10.796875 
Q 20.953125 6.0625 27.390625 6.0625 
Q 32.5625 6.0625 36.03125 9.234375 
Q 39.5 12.40625 40.4375 19 
z
" id="ArialMT-99"/>
       <path d="M 6.59375 0 
L 6.59375 71.578125 
L 15.375 71.578125 
L 15.375 45.90625 
Q 21.53125 53.03125 30.90625 53.03125 
Q 36.671875 53.03125 40.921875 50.75 
Q 45.171875 48.484375 47 44.484375 
Q 48.828125 40.484375 48.828125 32.859375 
L 48.828125 0 
L 40.046875 0 
L 40.046875 32.859375 
Q 40.046875 39.453125 37.1875 42.453125 
Q 34.328125 45.453125 29.109375 45.453125 
Q 25.203125 45.453125 21.75 43.421875 
Q 18.3125 41.40625 16.84375 37.9375 
Q 15.375 34.46875 15.375 28.375 
L 15.375 0 
z
" id="ArialMT-104"/>
      </defs>
      <use xlink:href="#ArialMT-101"/>
      <use x="55.615234" xlink:href="#ArialMT-112"/>
      <use x="111.230469" xlink:href="#ArialMT-111"/>
      <use x="166.845703" xlink:href="#ArialMT-99"/>
      <use x="216.845703" xlink:href="#ArialMT-104"/>
     </g>
    </g>
   </g>
   <g id="matplotlib.axis_6">
    <g id="ytick_77">
     <g id="line2d_21">
      <path clip-path="url(#pd39e530c1e)" d="M 72.831563 609.997167 
L 388.245248 609.997167 
" style="fill:none;stroke:#ffffff;stroke-linecap:round;stroke-width:1.5;"/>
     </g>
     <g id="text_12">
      <!-- $\mathdefault{10^{-3}}$ -->
      <g style="fill:#262626;" transform="translate(27.661563 618.50498)scale(0.165 -0.165)">
       <use transform="translate(0 0.99375)" xlink:href="#ArialMT-49"/>
       <use transform="translate(55.615234 0.99375)" xlink:href="#ArialMT-48"/>
       <use transform="translate(112.972813 70.6875)scale(0.7)" xlink:href="#ArialMT-8722"/>
       <use transform="translate(153.851719 70.6875)scale(0.7)" xlink:href="#ArialMT-51"/>
      </g>
     </g>
    </g>
    <g id="ytick_78">
     <g id="line2d_22">
      <path clip-path="url(#pd39e530c1e)" d="M 72.831563 540.759691 
L 388.245248 540.759691 
" style="fill:none;stroke:#ffffff;stroke-linecap:round;stroke-width:1.5;"/>
     </g>
     <g id="text_13">
      <!-- $\mathdefault{10^{-2}}$ -->
      <g style="fill:#262626;" transform="translate(27.661563 549.267504)scale(0.165 -0.165)">
       <use transform="translate(0 0.99375)" xlink:href="#ArialMT-49"/>
       <use transform="translate(55.615234 0.99375)" xlink:href="#ArialMT-48"/>
       <use transform="translate(112.972813 70.6875)scale(0.7)" xlink:href="#ArialMT-8722"/>
       <use transform="translate(153.851719 70.6875)scale(0.7)" xlink:href="#ArialMT-50"/>
      </g>
     </g>
    </g>
    <g id="ytick_79">
     <g id="line2d_23">
      <path clip-path="url(#pd39e530c1e)" d="M 72.831563 471.522215 
L 388.245248 471.522215 
" style="fill:none;stroke:#ffffff;stroke-linecap:round;stroke-width:1.5;"/>
     </g>
     <g id="text_14">
      <!-- $\mathdefault{10^{-1}}$ -->
      <g style="fill:#262626;" transform="translate(27.661563 480.030028)scale(0.165 -0.165)">
       <use transform="translate(0 0.99375)" xlink:href="#ArialMT-49"/>
       <use transform="translate(55.615234 0.99375)" xlink:href="#ArialMT-48"/>
       <use transform="translate(112.972813 70.6875)scale(0.7)" xlink:href="#ArialMT-8722"/>
       <use transform="translate(153.851719 70.6875)scale(0.7)" xlink:href="#ArialMT-49"/>
      </g>
     </g>
    </g>
    <g id="ytick_80">
     <g id="line2d_24">
      <path clip-path="url(#pd39e530c1e)" d="M 72.831563 402.28474 
L 388.245248 402.28474 
" style="fill:none;stroke:#ffffff;stroke-linecap:round;stroke-width:1.5;"/>
     </g>
     <g id="text_15">
      <!-- $\mathdefault{10^{0}}$ -->
      <g style="fill:#262626;" transform="translate(34.426563 410.792552)scale(0.165 -0.165)">
       <use transform="translate(0 0.99375)" xlink:href="#ArialMT-49"/>
       <use transform="translate(55.615234 0.99375)" xlink:href="#ArialMT-48"/>
       <use transform="translate(112.972813 70.6875)scale(0.7)" xlink:href="#ArialMT-48"/>
      </g>
     </g>
    </g>
    <g id="ytick_81"/>
    <g id="ytick_82"/>
    <g id="ytick_83"/>
    <g id="ytick_84"/>
    <g id="ytick_85"/>
    <g id="ytick_86"/>
    <g id="ytick_87"/>
    <g id="ytick_88"/>
    <g id="ytick_89"/>
    <g id="ytick_90"/>
    <g id="ytick_91"/>
    <g id="ytick_92"/>
    <g id="ytick_93"/>
    <g id="ytick_94"/>
    <g id="ytick_95"/>
    <g id="ytick_96"/>
    <g id="ytick_97"/>
    <g id="ytick_98"/>
    <g id="ytick_99"/>
    <g id="ytick_100"/>
    <g id="ytick_101"/>
    <g id="ytick_102"/>
    <g id="ytick_103"/>
    <g id="ytick_104"/>
    <g id="ytick_105"/>
    <g id="ytick_106"/>
    <g id="ytick_107"/>
    <g id="ytick_108"/>
    <g id="ytick_109"/>
    <g id="ytick_110"/>
    <g id="ytick_111"/>
    <g id="ytick_112"/>
    <g id="ytick_113"/>
    <g id="ytick_114"/>
    <g id="text_16">
     <!-- loss -->
     <g style="fill:#262626;" transform="translate(20.084063 527.163594)rotate(-90)scale(0.18 -0.18)">
      <use xlink:href="#ArialMT-108"/>
      <use x="22.216797" xlink:href="#ArialMT-111"/>
      <use x="77.832031" xlink:href="#ArialMT-115"/>
      <use x="127.832031" xlink:href="#ArialMT-115"/>
     </g>
    </g>
   </g>
   <g id="line2d_25">
    <path clip-path="url(#pd39e530c1e)" d="M 87.168548 431.371551 
L 88.196289 433.964212 
L 89.22403 437.715729 
L 90.251771 444.114535 
L 91.279512 442.583052 
L 94.362735 449.966515 
L 95.390476 451.379333 
L 96.418216 452.048435 
L 97.445957 458.715 
L 98.473698 446.608115 
L 99.501439 455.81517 
L 100.52918 455.904476 
L 101.556921 458.247287 
L 102.584662 457.843922 
L 103.612403 459.37022 
L 104.640144 461.361753 
L 105.667885 453.350764 
L 106.695626 470.487783 
L 107.723366 462.654556 
L 108.751107 462.077985 
L 109.778848 467.424422 
L 110.806589 468.303008 
L 111.83433 460.349502 
L 112.862071 454.83265 
L 113.889812 472.160399 
L 114.917553 461.276085 
L 115.945294 455.267313 
L 116.973035 458.734647 
L 118.000776 456.683662 
L 119.028516 459.0309 
L 120.056257 449.456975 
L 121.083998 474.391148 
L 122.111739 473.286961 
L 123.13948 466.165457 
L 124.167221 471.104163 
L 125.194962 474.490551 
L 126.222703 474.424245 
L 127.250444 469.18021 
L 128.278185 479.186686 
L 129.305926 479.070513 
L 130.333667 470.458745 
L 131.361407 472.099032 
L 132.389148 475.98753 
L 133.416889 477.016555 
L 134.44463 479.381311 
L 135.472371 481.067891 
L 136.500112 474.062157 
L 137.527853 482.986508 
L 138.555594 477.895627 
L 139.583335 485.654968 
L 140.611076 476.622078 
L 141.638817 484.754476 
L 142.666557 484.429397 
L 143.694298 485.035939 
L 144.722039 481.77839 
L 145.74978 483.880168 
L 146.777521 485.272521 
L 147.805262 480.012714 
L 148.833003 483.834849 
L 149.860744 482.679898 
L 150.888485 479.498694 
L 151.916226 488.636582 
L 152.943967 483.744414 
L 153.971708 492.545733 
L 154.999448 494.034009 
L 156.027189 488.743022 
L 157.05493 496.27707 
L 158.082671 485.848031 
L 159.110412 502.1593 
L 160.138153 479.774381 
L 161.165894 494.161422 
L 162.193635 489.994963 
L 163.221376 482.506085 
L 164.249117 495.73404 
L 165.276858 490.330314 
L 166.304598 496.004329 
L 167.332339 481.820712 
L 168.36008 494.097648 
L 169.387821 491.769318 
L 170.415562 481.990596 
L 171.443303 497.251628 
L 172.471044 492.364772 
L 173.498785 493.342727 
L 174.526526 484.062132 
L 175.554267 495.39956 
L 176.582008 494.546934 
L 177.609748 495.068759 
L 178.637489 500.459093 
L 179.66523 505.133704 
L 180.692971 490.162171 
L 181.720712 481.609697 
L 182.748453 490.955009 
L 183.776194 492.910953 
L 184.803935 483.699299 
L 185.831676 496.072282 
L 186.859417 503.435423 
L 187.887158 495.200643 
L 188.914899 496.760401 
L 189.942639 489.994963 
L 190.97038 490.162171 
L 191.998121 499.452814 
L 193.025862 497.607484 
L 194.053603 495.003034 
L 195.081344 497.040119 
L 196.109085 498.18576 
L 197.136826 499.074577 
L 198.164567 496.14039 
L 199.192308 502.663269 
L 200.220049 488.903393 
L 201.247789 489.663312 
L 202.27553 490.897679 
L 203.303271 492.788719 
L 204.331012 491.069997 
L 205.358753 493.654978 
L 206.386494 495.134629 
L 207.414235 501.015215 
L 208.441976 499.452814 
L 209.469717 484.894878 
L 210.497458 491.828336 
L 211.525199 489.11856 
L 212.552939 498.040145 
L 213.58068 497.751013 
L 214.608421 498.479123 
L 215.636162 501.095508 
L 216.663903 499.91307 
L 217.691644 489.884006 
L 219.747126 496.899934 
L 220.774867 504.586971 
L 221.802608 504.768113 
L 222.830349 489.884006 
L 223.85809 496.345643 
L 224.88583 491.828336 
L 225.913571 485.272521 
L 226.941312 490.274162 
L 227.969053 501.256738 
L 228.996794 504.768113 
L 230.024535 493.717819 
L 231.052276 501.418838 
L 232.080017 492.364772 
L 233.107758 494.546934 
L 234.135499 495.134629 
L 235.16324 508.952515 
L 236.19098 501.581817 
L 237.218721 496.690876 
L 238.246462 499.452814 
L 239.274203 499.529036 
L 240.301944 495.936529 
L 241.329685 501.663638 
L 242.357426 505.410843 
L 243.385167 501.095508 
L 244.412908 502.07612 
L 245.440649 503.697278 
L 246.46839 493.033686 
L 247.49613 495.39956 
L 248.523871 501.176015 
L 249.551612 513.327849 
L 250.579353 498.040145 
L 251.607094 502.663269 
L 252.634835 502.748091 
L 253.662576 494.225332 
L 254.690317 497.607484 
L 255.718058 490.386571 
L 256.745799 504.950353 
L 257.77354 498.332084 
L 258.801281 506.933673 
L 259.829021 498.18576 
L 260.856762 498.552913 
L 261.884503 494.546934 
L 262.912244 499.758867 
L 263.939985 502.833153 
L 264.967726 502.918457 
L 265.995467 496.969945 
L 267.023208 500.696173 
L 268.050949 498.040145 
L 269.07869 499.758867 
L 270.106431 503.262111 
L 271.134171 498.626885 
L 272.161912 499.225302 
L 273.189653 501.827953 
L 274.217394 496.004329 
L 275.245135 500.459093 
L 276.272876 499.83587 
L 277.300617 499.376785 
L 278.328358 503.785072 
L 279.356099 500.537912 
L 280.38384 500.068068 
L 281.411581 505.503794 
L 282.439322 499.990469 
L 283.467062 506.739048 
L 284.494803 499.452814 
L 285.522544 503.175829 
L 286.550285 504.677406 
L 287.578026 509.692398 
L 288.605767 487.6952 
L 289.633508 502.494339 
L 290.661249 502.07612 
L 291.68899 500.616939 
L 292.716731 505.597033 
L 293.744472 512.143859 
L 294.772212 507.825419 
L 295.799953 500.302072 
L 296.827694 502.494339 
L 297.855435 499.758867 
L 298.883176 509.907181 
L 299.910917 497.823036 
L 300.938658 506.836203 
L 301.966399 505.041888 
L 302.99414 504.768113 
L 304.021881 503.961433 
L 305.049622 499.074577 
L 306.077362 507.926154 
L 307.105103 508.230401 
L 308.132844 511.683015 
L 309.160585 504.859095 
L 310.188326 498.849898 
L 311.216067 506.257926 
L 312.243808 503.089793 
L 313.271549 508.952515 
L 314.29929 505.972906 
L 315.327031 505.784382 
L 316.354772 504.496808 
L 317.382513 499.074577 
L 318.410253 502.578685 
L 319.437994 497.322463 
L 320.465735 509.267381 
L 321.493476 501.663638 
L 322.521217 513.087292 
L 323.548958 505.318179 
L 325.60444 500.537912 
L 326.632181 500.459093 
L 327.659922 495.333108 
L 329.715403 510.341404 
L 330.743144 514.560376 
L 331.770885 500.935137 
L 332.798626 499.83587 
L 333.826367 504.138834 
L 334.854108 499.91307 
L 335.881849 511.683015 
L 336.90959 508.848288 
L 337.937331 510.450947 
L 338.965072 504.317288 
L 339.992813 498.924605 
L 341.020553 498.18576 
L 342.048294 508.027228 
L 343.076035 511.5689 
L 344.103776 505.410843 
L 345.131517 503.522455 
L 346.159258 503.609739 
L 347.186999 501.910448 
L 348.21474 497.823036 
L 349.242481 506.836203 
L 350.270222 518.023516 
L 351.297963 513.448853 
L 352.325704 517.051209 
L 353.353444 500.38048 
L 354.381185 502.833153 
L 355.408926 511.341959 
L 356.436667 503.004003 
L 357.464408 504.950353 
L 358.492149 509.479139 
L 359.51989 507.624955 
L 360.547631 506.353537 
L 361.575372 500.855271 
L 362.603113 504.677406 
L 363.630854 511.455215 
L 364.658594 511.116719 
L 365.686335 505.503794 
L 366.714076 511.797566 
L 367.741817 512.611875 
L 368.769558 501.745683 
L 369.797299 503.089793 
L 370.82504 501.256738 
L 371.852781 513.692331 
L 372.880522 501.418838 
L 373.908263 506.449452 
L 373.908263 506.449452 
" style="fill:none;stroke:#179c7d;stroke-linecap:round;stroke-width:2.25;"/>
   </g>
   <g id="patch_9">
    <path d="M 72.831563 659.704062 
L 72.831563 362.614062 
" style="fill:none;stroke:#ffffff;stroke-linecap:square;stroke-linejoin:miter;stroke-width:1.875;"/>
   </g>
   <g id="patch_10">
    <path d="M 72.831563 659.704062 
L 388.245248 659.704062 
" style="fill:none;stroke:#ffffff;stroke-linecap:square;stroke-linejoin:miter;stroke-width:1.875;"/>
   </g>
   <g id="text_17">
    <!-- rcnn_loss_intra -->
    <g style="fill:#262626;" transform="translate(169.511374 356.614062)scale(0.18 -0.18)">
     <use xlink:href="#ArialMT-114"/>
     <use x="33.300781" xlink:href="#ArialMT-99"/>
     <use x="83.300781" xlink:href="#ArialMT-110"/>
     <use x="138.916016" xlink:href="#ArialMT-110"/>
     <use x="194.53125" xlink:href="#ArialMT-95"/>
     <use x="250.146484" xlink:href="#ArialMT-108"/>
     <use x="272.363281" xlink:href="#ArialMT-111"/>
     <use x="327.978516" xlink:href="#ArialMT-115"/>
     <use x="377.978516" xlink:href="#ArialMT-115"/>
     <use x="427.978516" xlink:href="#ArialMT-95"/>
     <use x="483.59375" xlink:href="#ArialMT-105"/>
     <use x="505.810547" xlink:href="#ArialMT-110"/>
     <use x="561.425781" xlink:href="#ArialMT-116"/>
     <use x="589.208984" xlink:href="#ArialMT-114"/>
     <use x="622.509766" xlink:href="#ArialMT-97"/>
    </g>
   </g>
  </g>
  <g id="axes_4">
   <g id="patch_11">
    <path d="M 407.821712 659.704062 
L 723.235398 659.704062 
L 723.235398 362.614062 
L 407.821712 362.614062 
z
" style="fill:#eaeaf2;"/>
   </g>
   <g id="matplotlib.axis_7">
    <g id="xtick_10">
     <g id="line2d_26">
      <path clip-path="url(#p329dd33606)" d="M 421.130957 659.704062 
L 421.130957 362.614062 
" style="fill:none;stroke:#ffffff;stroke-linecap:round;stroke-width:1.5;"/>
     </g>
     <g id="text_18">
      <!-- 0 -->
      <g style="fill:#262626;" transform="translate(416.543183 684.014453)scale(0.165 -0.165)">
       <use xlink:href="#ArialMT-48"/>
      </g>
     </g>
    </g>
    <g id="xtick_11">
     <g id="line2d_27">
      <path clip-path="url(#p329dd33606)" d="M 523.905048 659.704062 
L 523.905048 362.614062 
" style="fill:none;stroke:#ffffff;stroke-linecap:round;stroke-width:1.5;"/>
     </g>
     <g id="text_19">
      <!-- 100 -->
      <g style="fill:#262626;" transform="translate(510.141728 684.014453)scale(0.165 -0.165)">
       <use xlink:href="#ArialMT-49"/>
       <use x="55.615234" xlink:href="#ArialMT-48"/>
       <use x="111.230469" xlink:href="#ArialMT-48"/>
      </g>
     </g>
    </g>
    <g id="xtick_12">
     <g id="line2d_28">
      <path clip-path="url(#p329dd33606)" d="M 626.679139 659.704062 
L 626.679139 362.614062 
" style="fill:none;stroke:#ffffff;stroke-linecap:round;stroke-width:1.5;"/>
     </g>
     <g id="text_20">
      <!-- 200 -->
      <g style="fill:#262626;" transform="translate(612.915819 684.014453)scale(0.165 -0.165)">
       <use xlink:href="#ArialMT-50"/>
       <use x="55.615234" xlink:href="#ArialMT-48"/>
       <use x="111.230469" xlink:href="#ArialMT-48"/>
      </g>
     </g>
    </g>
    <g id="text_21">
     <!-- epoch -->
     <g style="fill:#262626;" transform="translate(541.00918 704.177891)scale(0.18 -0.18)">
      <use xlink:href="#ArialMT-101"/>
      <use x="55.615234" xlink:href="#ArialMT-112"/>
      <use x="111.230469" xlink:href="#ArialMT-111"/>
      <use x="166.845703" xlink:href="#ArialMT-99"/>
      <use x="216.845703" xlink:href="#ArialMT-104"/>
     </g>
    </g>
   </g>
   <g id="matplotlib.axis_8">
    <g id="ytick_115">
     <g id="line2d_29">
      <path clip-path="url(#p329dd33606)" d="M 407.821712 609.997167 
L 723.235398 609.997167 
" style="fill:none;stroke:#ffffff;stroke-linecap:round;stroke-width:1.5;"/>
     </g>
    </g>
    <g id="ytick_116">
     <g id="line2d_30">
      <path clip-path="url(#p329dd33606)" d="M 407.821712 540.759691 
L 723.235398 540.759691 
" style="fill:none;stroke:#ffffff;stroke-linecap:round;stroke-width:1.5;"/>
     </g>
    </g>
    <g id="ytick_117">
     <g id="line2d_31">
      <path clip-path="url(#p329dd33606)" d="M 407.821712 471.522215 
L 723.235398 471.522215 
" style="fill:none;stroke:#ffffff;stroke-linecap:round;stroke-width:1.5;"/>
     </g>
    </g>
    <g id="ytick_118">
     <g id="line2d_32">
      <path clip-path="url(#p329dd33606)" d="M 407.821712 402.28474 
L 723.235398 402.28474 
" style="fill:none;stroke:#ffffff;stroke-linecap:round;stroke-width:1.5;"/>
     </g>
    </g>
    <g id="ytick_119"/>
    <g id="ytick_120"/>
    <g id="ytick_121"/>
    <g id="ytick_122"/>
    <g id="ytick_123"/>
    <g id="ytick_124"/>
    <g id="ytick_125"/>
    <g id="ytick_126"/>
    <g id="ytick_127"/>
    <g id="ytick_128"/>
    <g id="ytick_129"/>
    <g id="ytick_130"/>
    <g id="ytick_131"/>
    <g id="ytick_132"/>
    <g id="ytick_133"/>
    <g id="ytick_134"/>
    <g id="ytick_135"/>
    <g id="ytick_136"/>
    <g id="ytick_137"/>
    <g id="ytick_138"/>
    <g id="ytick_139"/>
    <g id="ytick_140"/>
    <g id="ytick_141"/>
    <g id="ytick_142"/>
    <g id="ytick_143"/>
    <g id="ytick_144"/>
    <g id="ytick_145"/>
    <g id="ytick_146"/>
    <g id="ytick_147"/>
    <g id="ytick_148"/>
    <g id="ytick_149"/>
    <g id="ytick_150"/>
    <g id="ytick_151"/>
    <g id="ytick_152"/>
   </g>
   <g id="line2d_33">
    <path clip-path="url(#p329dd33606)" d="M 422.158698 428.463224 
L 423.186439 428.766375 
L 424.21418 429.590046 
L 425.24192 430.093784 
L 426.269661 432.0031 
L 429.352884 436.462454 
L 430.380625 437.039548 
L 431.408366 438.891167 
L 432.436107 439.444797 
L 433.463848 444.885745 
L 434.491589 444.259915 
L 435.51933 447.882151 
L 436.547071 449.399288 
L 438.602552 454.200664 
L 439.630293 458.26663 
L 440.658034 463.888582 
L 441.685775 467.52956 
L 442.713516 472.843825 
L 443.741257 475.434513 
L 444.768998 479.22551 
L 445.796739 490.386571 
L 446.82448 491.012448 
L 447.852221 497.751013 
L 448.879961 506.067613 
L 449.907702 504.586971 
L 450.935443 502.663269 
L 451.963184 508.332504 
L 454.018666 516.91484 
L 455.046407 511.229128 
L 456.074148 523.421242 
L 457.101889 525.884446 
L 458.12963 521.459496 
L 459.157371 519.469442 
L 460.185111 527.77623 
L 461.212852 535.027841 
L 462.240593 528.9712 
L 463.268334 535.277382 
L 464.296075 532.870541 
L 465.323816 535.52901 
L 466.351557 527.581605 
L 467.379298 540.164237 
L 468.407039 544.947226 
L 469.43478 542.941852 
L 470.462521 543.595562 
L 471.490262 538.445515 
L 472.518002 544.947226 
L 473.545743 536.038674 
L 474.573484 544.263799 
L 475.601225 547.095958 
L 476.628966 549.011857 
L 477.656707 546.727003 
L 478.684448 541.367176 
L 479.712189 546.727003 
L 480.73993 536.296783 
L 481.767671 542.620251 
L 482.795412 546.727003 
L 483.823152 549.410134 
L 484.850893 546.36252 
L 485.878634 541.367176 
L 486.906375 548.618787 
L 487.934116 538.725233 
L 488.961857 544.947226 
L 489.989598 554.652845 
L 491.017339 552.801833 
L 492.04508 553.254014 
L 493.072821 550.222871 
L 494.100562 557.13934 
L 495.128302 547.095958 
L 496.156043 552.356351 
L 497.183784 558.736323 
L 498.211525 554.179301 
L 499.239266 557.6623 
L 500.267007 551.484712 
L 501.294748 557.6623 
L 502.322489 549.410134 
L 503.35023 551.917373 
L 504.377971 562.209733 
L 505.405712 554.179301 
L 506.433453 556.62532 
L 507.461193 551.917373 
L 508.488934 558.194517 
L 509.516675 549.410134 
L 511.572157 558.736323 
L 512.599898 555.622912 
L 513.627639 554.652845 
L 514.65538 554.179301 
L 515.683121 557.6623 
L 516.710862 547.095958 
L 517.738603 556.119939 
L 518.766343 561.602248 
L 519.794084 556.119939 
L 520.821825 557.6623 
L 521.849566 555.622912 
L 522.877307 561.006794 
L 523.905048 554.652845 
L 524.932789 559.850134 
L 525.96053 566.844959 
L 526.988271 561.006794 
L 528.016012 562.829743 
L 529.043753 559.850134 
L 530.071494 562.209733 
L 531.099234 553.713098 
L 532.126975 557.6623 
L 533.154716 562.829743 
L 534.182457 559.288072 
L 535.210198 559.850134 
L 536.237939 553.254014 
L 537.26568 557.6623 
L 538.293421 554.179301 
L 539.321162 559.288072 
L 540.348903 565.446128 
L 541.376644 561.006794 
L 542.404384 561.602248 
L 543.432125 561.006794 
L 544.459866 562.829743 
L 545.487607 556.119939 
L 546.515348 561.602248 
L 547.543089 564.109488 
L 548.57083 563.462808 
L 549.598571 562.209733 
L 550.626312 564.109488 
L 551.654053 568.312053 
L 552.681794 557.6623 
L 553.709534 561.006794 
L 554.737275 567.56956 
L 555.765016 564.109488 
L 556.792757 562.829743 
L 557.820498 557.13934 
L 558.848239 559.850134 
L 559.87598 555.133967 
L 560.903721 554.179301 
L 561.931462 564.770381 
L 562.959203 560.422903 
L 565.014685 558.194517 
L 566.042425 564.109488 
L 567.070166 561.006794 
L 568.097907 559.288072 
L 569.125648 569.854414 
L 570.153389 564.109488 
L 571.18113 562.829743 
L 572.208871 561.006794 
L 573.236612 564.109488 
L 574.264353 561.602248 
L 575.292094 558.194517 
L 576.319835 562.829743 
L 577.347575 562.829743 
L 578.375316 558.736323 
L 579.403057 563.462808 
L 580.430798 566.13741 
L 581.458539 561.602248 
L 583.514021 570.656314 
L 584.541762 564.770381 
L 585.569503 565.446128 
L 586.597244 567.56956 
L 587.624985 565.446128 
L 588.652725 565.446128 
L 589.680466 570.656314 
L 590.708207 569.854414 
L 591.735948 571.480186 
L 592.763689 568.312053 
L 593.79143 568.312053 
L 594.819171 575.021858 
L 595.846912 569.073346 
L 596.874653 572.327269 
L 597.902394 576.962496 
L 598.930135 572.327269 
L 599.957876 571.480186 
L 600.985616 563.462808 
L 602.013357 563.462808 
L 603.041098 564.109488 
L 604.068839 566.844959 
L 605.09658 562.829743 
L 606.124321 559.850134 
L 607.152062 557.6623 
L 608.179803 561.006794 
L 609.207544 566.13741 
L 611.263026 566.13741 
L 612.290766 572.327269 
L 613.318507 570.656314 
L 614.346248 571.480186 
L 615.373989 575.021858 
L 616.40173 573.198908 
L 617.429471 567.56956 
L 618.457212 566.844959 
L 619.484953 569.854414 
L 620.512694 568.312053 
L 621.540435 570.656314 
L 622.568176 565.446128 
L 623.595916 565.446128 
L 624.623657 559.850134 
L 625.651398 566.844959 
L 626.679139 564.109488 
L 627.70688 563.462808 
L 628.734621 566.13741 
L 629.762362 560.422903 
L 630.790103 564.770381 
L 631.817844 566.13741 
L 632.845585 566.13741 
L 633.873326 570.656314 
L 634.901067 572.327269 
L 635.928807 570.656314 
L 636.956548 575.976524 
L 637.984289 574.096571 
L 639.01203 570.656314 
L 641.067512 575.976524 
L 642.095253 574.096571 
L 643.122994 574.096571 
L 644.150735 573.198908 
L 645.178476 575.976524 
L 646.206217 570.656314 
L 647.233957 574.096571 
L 648.261698 574.096571 
L 649.289439 571.480186 
L 650.31718 575.976524 
L 651.344921 570.656314 
L 652.372662 572.327269 
L 653.400403 569.854414 
L 654.428144 573.198908 
L 655.455885 575.021858 
L 656.483626 568.312053 
L 657.511367 574.096571 
L 658.539108 570.656314 
L 659.566848 571.480186 
L 660.594589 575.021858 
L 661.62233 575.976524 
L 662.650071 574.096571 
L 663.677812 570.656314 
L 665.733294 574.096571 
L 666.761035 575.021858 
L 667.788776 573.198908 
L 668.816517 577.981897 
L 669.844258 575.021858 
L 670.871998 575.021858 
L 671.899739 579.037074 
L 672.92748 579.037074 
L 673.955221 575.976524 
L 674.982962 576.962496 
L 678.066185 576.962496 
L 679.093926 574.096571 
L 680.121667 573.198908 
L 681.149408 571.480186 
L 682.177148 568.312053 
L 683.204889 573.198908 
L 684.23263 570.656314 
L 685.260371 566.844959 
L 686.288112 571.480186 
L 687.315853 568.312053 
L 688.343594 568.312053 
L 689.371335 569.854414 
L 691.426817 571.480186 
L 692.454558 568.312053 
L 694.510039 568.312053 
L 695.53778 572.327269 
L 697.593262 572.327269 
L 698.621003 574.096571 
L 699.648744 576.962496 
L 700.676485 579.037074 
L 701.704226 574.096571 
L 702.731967 580.130629 
L 705.815189 576.962496 
L 706.84293 576.962496 
L 707.870671 577.981897 
L 708.898412 573.198908 
L 708.898412 573.198908 
" style="fill:none;stroke:#179c7d;stroke-linecap:round;stroke-width:2.25;"/>
   </g>
   <g id="patch_12">
    <path d="M 407.821712 659.704062 
L 407.821712 362.614062 
" style="fill:none;stroke:#ffffff;stroke-linecap:square;stroke-linejoin:miter;stroke-width:1.875;"/>
   </g>
   <g id="patch_13">
    <path d="M 407.821712 659.704062 
L 723.235398 659.704062 
" style="fill:none;stroke:#ffffff;stroke-linecap:square;stroke-linejoin:miter;stroke-width:1.875;"/>
   </g>
   <g id="text_22">
    <!-- rcnn_loss_inter -->
    <g style="fill:#262626;" transform="translate(504.501524 356.614062)scale(0.18 -0.18)">
     <use xlink:href="#ArialMT-114"/>
     <use x="33.300781" xlink:href="#ArialMT-99"/>
     <use x="83.300781" xlink:href="#ArialMT-110"/>
     <use x="138.916016" xlink:href="#ArialMT-110"/>
     <use x="194.53125" xlink:href="#ArialMT-95"/>
     <use x="250.146484" xlink:href="#ArialMT-108"/>
     <use x="272.363281" xlink:href="#ArialMT-111"/>
     <use x="327.978516" xlink:href="#ArialMT-115"/>
     <use x="377.978516" xlink:href="#ArialMT-115"/>
     <use x="427.978516" xlink:href="#ArialMT-95"/>
     <use x="483.59375" xlink:href="#ArialMT-105"/>
     <use x="505.810547" xlink:href="#ArialMT-110"/>
     <use x="561.425781" xlink:href="#ArialMT-116"/>
     <use x="589.208984" xlink:href="#ArialMT-101"/>
     <use x="644.824219" xlink:href="#ArialMT-114"/>
    </g>
   </g>
  </g>
  <g id="legend_1">
   <g id="text_23">
    <!-- mode -->
    <g style="fill:#262626;" transform="translate(744.337054 350.461094)scale(0.18 -0.18)">
     <defs>
      <path d="M 6.59375 0 
L 6.59375 51.859375 
L 14.453125 51.859375 
L 14.453125 44.578125 
Q 16.890625 48.390625 20.9375 50.703125 
Q 25 53.03125 30.171875 53.03125 
Q 35.9375 53.03125 39.625 50.640625 
Q 43.3125 48.25 44.828125 43.953125 
Q 50.984375 53.03125 60.84375 53.03125 
Q 68.5625 53.03125 72.703125 48.75 
Q 76.859375 44.484375 76.859375 35.59375 
L 76.859375 0 
L 68.109375 0 
L 68.109375 32.671875 
Q 68.109375 37.9375 67.25 40.25 
Q 66.40625 42.578125 64.15625 43.984375 
Q 61.921875 45.40625 58.890625 45.40625 
Q 53.421875 45.40625 49.796875 41.765625 
Q 46.1875 38.140625 46.1875 30.125 
L 46.1875 0 
L 37.40625 0 
L 37.40625 33.6875 
Q 37.40625 39.546875 35.25 42.46875 
Q 33.109375 45.40625 28.21875 45.40625 
Q 24.515625 45.40625 21.359375 43.453125 
Q 18.21875 41.5 16.796875 37.734375 
Q 15.375 33.984375 15.375 26.90625 
L 15.375 0 
z
" id="ArialMT-109"/>
      <path d="M 40.234375 0 
L 40.234375 6.546875 
Q 35.296875 -1.171875 25.734375 -1.171875 
Q 19.53125 -1.171875 14.328125 2.25 
Q 9.125 5.671875 6.265625 11.796875 
Q 3.421875 17.921875 3.421875 25.875 
Q 3.421875 33.640625 6 39.96875 
Q 8.59375 46.296875 13.765625 49.65625 
Q 18.953125 53.03125 25.34375 53.03125 
Q 30.03125 53.03125 33.6875 51.046875 
Q 37.359375 49.078125 39.65625 45.90625 
L 39.65625 71.578125 
L 48.390625 71.578125 
L 48.390625 0 
z
M 12.453125 25.875 
Q 12.453125 15.921875 16.640625 10.984375 
Q 20.84375 6.0625 26.5625 6.0625 
Q 32.328125 6.0625 36.34375 10.765625 
Q 40.375 15.484375 40.375 25.140625 
Q 40.375 35.796875 36.265625 40.765625 
Q 32.171875 45.75 26.171875 45.75 
Q 20.3125 45.75 16.375 40.96875 
Q 12.453125 36.1875 12.453125 25.875 
z
" id="ArialMT-100"/>
     </defs>
     <use xlink:href="#ArialMT-109"/>
     <use x="83.300781" xlink:href="#ArialMT-111"/>
     <use x="138.916016" xlink:href="#ArialMT-100"/>
     <use x="194.53125" xlink:href="#ArialMT-101"/>
    </g>
   </g>
   <g id="line2d_34">
    <path d="M 728.61471 368.323984 
L 761.61471 368.323984 
" style="fill:none;stroke:#179c7d;stroke-linecap:round;stroke-width:2.25;"/>
   </g>
   <g id="line2d_35"/>
   <g id="text_24">
    <!-- eucl -->
    <g style="fill:#262626;" transform="translate(774.81471 374.098984)scale(0.165 -0.165)">
     <defs>
      <path d="M 40.578125 0 
L 40.578125 7.625 
Q 34.515625 -1.171875 24.125 -1.171875 
Q 19.53125 -1.171875 15.546875 0.578125 
Q 11.578125 2.34375 9.640625 5 
Q 7.71875 7.671875 6.9375 11.53125 
Q 6.390625 14.109375 6.390625 19.734375 
L 6.390625 51.859375 
L 15.1875 51.859375 
L 15.1875 23.09375 
Q 15.1875 16.21875 15.71875 13.8125 
Q 16.546875 10.359375 19.234375 8.375 
Q 21.921875 6.390625 25.875 6.390625 
Q 29.828125 6.390625 33.296875 8.421875 
Q 36.765625 10.453125 38.203125 13.9375 
Q 39.65625 17.4375 39.65625 24.078125 
L 39.65625 51.859375 
L 48.4375 51.859375 
L 48.4375 0 
z
" id="ArialMT-117"/>
     </defs>
     <use xlink:href="#ArialMT-101"/>
     <use x="55.615234" xlink:href="#ArialMT-117"/>
     <use x="111.230469" xlink:href="#ArialMT-99"/>
     <use x="161.230469" xlink:href="#ArialMT-108"/>
    </g>
   </g>
  </g>
 </g>
 <defs>
  <clipPath id="pb72e03a534">
   <rect height="297.09" width="315.413686" x="72.831563" y="26.084062"/>
  </clipPath>
  <clipPath id="p18f7f08535">
   <rect height="297.09" width="315.413686" x="407.821712" y="26.084062"/>
  </clipPath>
  <clipPath id="pd39e530c1e">
   <rect height="297.09" width="315.413686" x="72.831563" y="362.614062"/>
  </clipPath>
  <clipPath id="p329dd33606">
   <rect height="297.09" width="315.413686" x="407.821712" y="362.614062"/>
  </clipPath>
 </defs>
</svg>
