<?xml version="1.0" encoding="utf-8" standalone="no"?>
<!DOCTYPE svg PUBLIC "-//W3C//DTD SVG 1.1//EN"
  "http://www.w3.org/Graphics/SVG/1.1/DTD/svg11.dtd">
<!-- Created with matplotlib (https://matplotlib.org/) -->
<svg height="714.955391pt" version="1.1" viewBox="0 0 797.117158 714.955391" width="797.117158pt" xmlns="http://www.w3.org/2000/svg" xmlns:xlink="http://www.w3.org/1999/xlink">
 <metadata>
  <rdf:RDF xmlns:cc="http://creativecommons.org/ns#" xmlns:dc="http://purl.org/dc/elements/1.1/" xmlns:rdf="http://www.w3.org/1999/02/22-rdf-syntax-ns#">
   <cc:Work>
    <dc:type rdf:resource="http://purl.org/dc/dcmitype/StillImage"/>
    <dc:date>2021-07-26T20:02:46.741403</dc:date>
    <dc:format>image/svg+xml</dc:format>
    <dc:creator>
     <cc:Agent>
      <dc:title>Matplotlib v3.3.4, https://matplotlib.org/</dc:title>
     </cc:Agent>
    </dc:creator>
   </cc:Work>
  </rdf:RDF>
 </metadata>
 <defs>
  <style type="text/css">*{stroke-linecap:butt;stroke-linejoin:round;}</style>
 </defs>
 <g id="figure_1">
  <g id="patch_1">
   <path d="M 0 714.955391 
L 797.117158 714.955391 
L 797.117158 0 
L 0 0 
z
" style="fill:#ffffff;"/>
  </g>
  <g id="axes_1">
   <g id="patch_2">
    <path d="M 72.831563 323.174062 
L 380.95272 323.174062 
L 380.95272 26.084062 
L 72.831563 26.084062 
z
" style="fill:#eaeaf2;"/>
   </g>
   <g id="matplotlib.axis_1">
    <g id="xtick_1">
     <g id="line2d_1">
      <path clip-path="url(#pa746763d5f)" d="M 82.891856 323.174062 
L 82.891856 26.084062 
" style="fill:none;stroke:#ffffff;stroke-linecap:round;stroke-width:1.5;"/>
     </g>
    </g>
    <g id="xtick_2">
     <g id="line2d_2">
      <path clip-path="url(#pa746763d5f)" d="M 161.796122 323.174062 
L 161.796122 26.084062 
" style="fill:none;stroke:#ffffff;stroke-linecap:round;stroke-width:1.5;"/>
     </g>
    </g>
    <g id="xtick_3">
     <g id="line2d_3">
      <path clip-path="url(#pa746763d5f)" d="M 240.700388 323.174062 
L 240.700388 26.084062 
" style="fill:none;stroke:#ffffff;stroke-linecap:round;stroke-width:1.5;"/>
     </g>
    </g>
    <g id="xtick_4">
     <g id="line2d_4">
      <path clip-path="url(#pa746763d5f)" d="M 319.604654 323.174062 
L 319.604654 26.084062 
" style="fill:none;stroke:#ffffff;stroke-linecap:round;stroke-width:1.5;"/>
     </g>
    </g>
   </g>
   <g id="matplotlib.axis_2">
    <g id="ytick_1">
     <g id="line2d_5">
      <path clip-path="url(#pa746763d5f)" d="M 72.831563 307.904849 
L 380.95272 307.904849 
" style="fill:none;stroke:#ffffff;stroke-linecap:round;stroke-width:1.5;"/>
     </g>
     <g id="text_1">
      <!-- $\mathdefault{10^{-3}}$ -->
      <g style="fill:#262626;" transform="translate(27.661563 316.412662)scale(0.165 -0.165)">
       <defs>
        <path d="M 37.25 0 
L 28.46875 0 
L 28.46875 56 
Q 25.296875 52.984375 20.140625 49.953125 
Q 14.984375 46.921875 10.890625 45.40625 
L 10.890625 53.90625 
Q 18.265625 57.375 23.78125 62.296875 
Q 29.296875 67.234375 31.59375 71.875 
L 37.25 71.875 
z
" id="ArialMT-49"/>
        <path d="M 4.15625 35.296875 
Q 4.15625 48 6.765625 55.734375 
Q 9.375 63.484375 14.515625 67.671875 
Q 19.671875 71.875 27.484375 71.875 
Q 33.25 71.875 37.59375 69.546875 
Q 41.9375 67.234375 44.765625 62.859375 
Q 47.609375 58.5 49.21875 52.21875 
Q 50.828125 45.953125 50.828125 35.296875 
Q 50.828125 22.703125 48.234375 14.96875 
Q 45.65625 7.234375 40.5 3 
Q 35.359375 -1.21875 27.484375 -1.21875 
Q 17.140625 -1.21875 11.234375 6.203125 
Q 4.15625 15.140625 4.15625 35.296875 
z
M 13.1875 35.296875 
Q 13.1875 17.671875 17.3125 11.828125 
Q 21.4375 6 27.484375 6 
Q 33.546875 6 37.671875 11.859375 
Q 41.796875 17.71875 41.796875 35.296875 
Q 41.796875 52.984375 37.671875 58.78125 
Q 33.546875 64.59375 27.390625 64.59375 
Q 21.34375 64.59375 17.71875 59.46875 
Q 13.1875 52.9375 13.1875 35.296875 
z
" id="ArialMT-48"/>
        <path d="M 52.828125 31.203125 
L 5.5625 31.203125 
L 5.5625 39.40625 
L 52.828125 39.40625 
z
" id="ArialMT-8722"/>
        <path d="M 4.203125 18.890625 
L 12.984375 20.0625 
Q 14.5 12.59375 18.140625 9.296875 
Q 21.78125 6 27 6 
Q 33.203125 6 37.46875 10.296875 
Q 41.75 14.59375 41.75 20.953125 
Q 41.75 27 37.796875 30.921875 
Q 33.84375 34.859375 27.734375 34.859375 
Q 25.25 34.859375 21.53125 33.890625 
L 22.515625 41.609375 
Q 23.390625 41.5 23.921875 41.5 
Q 29.546875 41.5 34.03125 44.421875 
Q 38.53125 47.359375 38.53125 53.46875 
Q 38.53125 58.296875 35.25 61.46875 
Q 31.984375 64.65625 26.8125 64.65625 
Q 21.6875 64.65625 18.265625 61.421875 
Q 14.84375 58.203125 13.875 51.765625 
L 5.078125 53.328125 
Q 6.6875 62.15625 12.390625 67.015625 
Q 18.109375 71.875 26.609375 71.875 
Q 32.46875 71.875 37.390625 69.359375 
Q 42.328125 66.84375 44.9375 62.5 
Q 47.5625 58.15625 47.5625 53.265625 
Q 47.5625 48.640625 45.0625 44.828125 
Q 42.578125 41.015625 37.703125 38.765625 
Q 44.046875 37.3125 47.5625 32.6875 
Q 51.078125 28.078125 51.078125 21.140625 
Q 51.078125 11.765625 44.234375 5.25 
Q 37.40625 -1.265625 26.953125 -1.265625 
Q 17.53125 -1.265625 11.296875 4.34375 
Q 5.078125 9.96875 4.203125 18.890625 
z
" id="ArialMT-51"/>
       </defs>
       <use transform="translate(0 0.99375)" xlink:href="#ArialMT-49"/>
       <use transform="translate(55.615234 0.99375)" xlink:href="#ArialMT-48"/>
       <use transform="translate(112.972813 70.6875)scale(0.7)" xlink:href="#ArialMT-8722"/>
       <use transform="translate(153.851719 70.6875)scale(0.7)" xlink:href="#ArialMT-51"/>
      </g>
     </g>
    </g>
    <g id="ytick_2">
     <g id="line2d_6">
      <path clip-path="url(#pa746763d5f)" d="M 72.831563 269.329253 
L 380.95272 269.329253 
" style="fill:none;stroke:#ffffff;stroke-linecap:round;stroke-width:1.5;"/>
     </g>
     <g id="text_2">
      <!-- $\mathdefault{10^{-2}}$ -->
      <g style="fill:#262626;" transform="translate(27.661563 277.837066)scale(0.165 -0.165)">
       <defs>
        <path d="M 50.34375 8.453125 
L 50.34375 0 
L 3.03125 0 
Q 2.9375 3.171875 4.046875 6.109375 
Q 5.859375 10.9375 9.828125 15.625 
Q 13.8125 20.3125 21.34375 26.46875 
Q 33.015625 36.03125 37.109375 41.625 
Q 41.21875 47.21875 41.21875 52.203125 
Q 41.21875 57.421875 37.46875 61 
Q 33.734375 64.59375 27.734375 64.59375 
Q 21.390625 64.59375 17.578125 60.78125 
Q 13.765625 56.984375 13.71875 50.25 
L 4.6875 51.171875 
Q 5.609375 61.28125 11.65625 66.578125 
Q 17.71875 71.875 27.9375 71.875 
Q 38.234375 71.875 44.234375 66.15625 
Q 50.25 60.453125 50.25 52 
Q 50.25 47.703125 48.484375 43.546875 
Q 46.734375 39.40625 42.65625 34.8125 
Q 38.578125 30.21875 29.109375 22.21875 
Q 21.1875 15.578125 18.9375 13.203125 
Q 16.703125 10.84375 15.234375 8.453125 
z
" id="ArialMT-50"/>
       </defs>
       <use transform="translate(0 0.99375)" xlink:href="#ArialMT-49"/>
       <use transform="translate(55.615234 0.99375)" xlink:href="#ArialMT-48"/>
       <use transform="translate(112.972813 70.6875)scale(0.7)" xlink:href="#ArialMT-8722"/>
       <use transform="translate(153.851719 70.6875)scale(0.7)" xlink:href="#ArialMT-50"/>
      </g>
     </g>
    </g>
    <g id="ytick_3">
     <g id="line2d_7">
      <path clip-path="url(#pa746763d5f)" d="M 72.831563 230.753657 
L 380.95272 230.753657 
" style="fill:none;stroke:#ffffff;stroke-linecap:round;stroke-width:1.5;"/>
     </g>
     <g id="text_3">
      <!-- $\mathdefault{10^{-1}}$ -->
      <g style="fill:#262626;" transform="translate(27.661563 239.261469)scale(0.165 -0.165)">
       <use transform="translate(0 0.99375)" xlink:href="#ArialMT-49"/>
       <use transform="translate(55.615234 0.99375)" xlink:href="#ArialMT-48"/>
       <use transform="translate(112.972813 70.6875)scale(0.7)" xlink:href="#ArialMT-8722"/>
       <use transform="translate(153.851719 70.6875)scale(0.7)" xlink:href="#ArialMT-49"/>
      </g>
     </g>
    </g>
    <g id="ytick_4">
     <g id="line2d_8">
      <path clip-path="url(#pa746763d5f)" d="M 72.831563 192.178061 
L 380.95272 192.178061 
" style="fill:none;stroke:#ffffff;stroke-linecap:round;stroke-width:1.5;"/>
     </g>
     <g id="text_4">
      <!-- $\mathdefault{10^{0}}$ -->
      <g style="fill:#262626;" transform="translate(34.426563 200.685873)scale(0.165 -0.165)">
       <use transform="translate(0 0.99375)" xlink:href="#ArialMT-49"/>
       <use transform="translate(55.615234 0.99375)" xlink:href="#ArialMT-48"/>
       <use transform="translate(112.972813 70.6875)scale(0.7)" xlink:href="#ArialMT-48"/>
      </g>
     </g>
    </g>
    <g id="ytick_5">
     <g id="line2d_9">
      <path clip-path="url(#pa746763d5f)" d="M 72.831563 153.602465 
L 380.95272 153.602465 
" style="fill:none;stroke:#ffffff;stroke-linecap:round;stroke-width:1.5;"/>
     </g>
     <g id="text_5">
      <!-- $\mathdefault{10^{1}}$ -->
      <g style="fill:#262626;" transform="translate(34.426563 162.110277)scale(0.165 -0.165)">
       <use transform="translate(0 0.99375)" xlink:href="#ArialMT-49"/>
       <use transform="translate(55.615234 0.99375)" xlink:href="#ArialMT-48"/>
       <use transform="translate(112.972813 70.6875)scale(0.7)" xlink:href="#ArialMT-49"/>
      </g>
     </g>
    </g>
    <g id="ytick_6">
     <g id="line2d_10">
      <path clip-path="url(#pa746763d5f)" d="M 72.831563 115.026869 
L 380.95272 115.026869 
" style="fill:none;stroke:#ffffff;stroke-linecap:round;stroke-width:1.5;"/>
     </g>
     <g id="text_6">
      <!-- $\mathdefault{10^{2}}$ -->
      <g style="fill:#262626;" transform="translate(34.426563 123.534681)scale(0.165 -0.165)">
       <use transform="translate(0 0.99375)" xlink:href="#ArialMT-49"/>
       <use transform="translate(55.615234 0.99375)" xlink:href="#ArialMT-48"/>
       <use transform="translate(112.972813 70.6875)scale(0.7)" xlink:href="#ArialMT-50"/>
      </g>
     </g>
    </g>
    <g id="ytick_7">
     <g id="line2d_11">
      <path clip-path="url(#pa746763d5f)" d="M 72.831563 76.451272 
L 380.95272 76.451272 
" style="fill:none;stroke:#ffffff;stroke-linecap:round;stroke-width:1.5;"/>
     </g>
     <g id="text_7">
      <!-- $\mathdefault{10^{3}}$ -->
      <g style="fill:#262626;" transform="translate(34.426563 84.959085)scale(0.165 -0.165)">
       <use transform="translate(0 0.99375)" xlink:href="#ArialMT-49"/>
       <use transform="translate(55.615234 0.99375)" xlink:href="#ArialMT-48"/>
       <use transform="translate(112.972813 70.6875)scale(0.7)" xlink:href="#ArialMT-51"/>
      </g>
     </g>
    </g>
    <g id="ytick_8">
     <g id="line2d_12">
      <path clip-path="url(#pa746763d5f)" d="M 72.831563 37.875676 
L 380.95272 37.875676 
" style="fill:none;stroke:#ffffff;stroke-linecap:round;stroke-width:1.5;"/>
     </g>
     <g id="text_8">
      <!-- $\mathdefault{10^{4}}$ -->
      <g style="fill:#262626;" transform="translate(34.426563 46.300989)scale(0.165 -0.165)">
       <defs>
        <path d="M 32.328125 0 
L 32.328125 17.140625 
L 1.265625 17.140625 
L 1.265625 25.203125 
L 33.9375 71.578125 
L 41.109375 71.578125 
L 41.109375 25.203125 
L 50.78125 25.203125 
L 50.78125 17.140625 
L 41.109375 17.140625 
L 41.109375 0 
z
M 32.328125 25.203125 
L 32.328125 57.46875 
L 9.90625 25.203125 
z
" id="ArialMT-52"/>
       </defs>
       <use transform="translate(0 0.201563)" xlink:href="#ArialMT-49"/>
       <use transform="translate(55.615234 0.201563)" xlink:href="#ArialMT-48"/>
       <use transform="translate(112.972813 69.895313)scale(0.7)" xlink:href="#ArialMT-52"/>
      </g>
     </g>
    </g>
    <g id="ytick_9"/>
    <g id="ytick_10"/>
    <g id="ytick_11"/>
    <g id="ytick_12"/>
    <g id="ytick_13"/>
    <g id="ytick_14"/>
    <g id="ytick_15"/>
    <g id="ytick_16"/>
    <g id="ytick_17"/>
    <g id="ytick_18"/>
    <g id="ytick_19"/>
    <g id="ytick_20"/>
    <g id="ytick_21"/>
    <g id="ytick_22"/>
    <g id="ytick_23"/>
    <g id="ytick_24"/>
    <g id="ytick_25"/>
    <g id="ytick_26"/>
    <g id="ytick_27"/>
    <g id="ytick_28"/>
    <g id="ytick_29"/>
    <g id="ytick_30"/>
    <g id="ytick_31"/>
    <g id="ytick_32"/>
    <g id="ytick_33"/>
    <g id="ytick_34"/>
    <g id="ytick_35"/>
    <g id="ytick_36"/>
    <g id="ytick_37"/>
    <g id="ytick_38"/>
    <g id="ytick_39"/>
    <g id="ytick_40"/>
    <g id="ytick_41"/>
    <g id="ytick_42"/>
    <g id="ytick_43"/>
    <g id="ytick_44"/>
    <g id="ytick_45"/>
    <g id="ytick_46"/>
    <g id="ytick_47"/>
    <g id="ytick_48"/>
    <g id="ytick_49"/>
    <g id="ytick_50"/>
    <g id="ytick_51"/>
    <g id="ytick_52"/>
    <g id="ytick_53"/>
    <g id="ytick_54"/>
    <g id="ytick_55"/>
    <g id="ytick_56"/>
    <g id="ytick_57"/>
    <g id="ytick_58"/>
    <g id="ytick_59"/>
    <g id="ytick_60"/>
    <g id="ytick_61"/>
    <g id="ytick_62"/>
    <g id="ytick_63"/>
    <g id="ytick_64"/>
    <g id="ytick_65"/>
    <g id="ytick_66"/>
    <g id="ytick_67"/>
    <g id="ytick_68"/>
    <g id="ytick_69"/>
    <g id="ytick_70"/>
    <g id="text_9">
     <!-- loss -->
     <g style="fill:#262626;" transform="translate(20.084063 190.633594)rotate(-90)scale(0.18 -0.18)">
      <defs>
       <path d="M 6.390625 0 
L 6.390625 71.578125 
L 15.1875 71.578125 
L 15.1875 0 
z
" id="ArialMT-108"/>
       <path d="M 3.328125 25.921875 
Q 3.328125 40.328125 11.328125 47.265625 
Q 18.015625 53.03125 27.640625 53.03125 
Q 38.328125 53.03125 45.109375 46.015625 
Q 51.90625 39.015625 51.90625 26.65625 
Q 51.90625 16.65625 48.90625 10.90625 
Q 45.90625 5.171875 40.15625 2 
Q 34.421875 -1.171875 27.640625 -1.171875 
Q 16.75 -1.171875 10.03125 5.8125 
Q 3.328125 12.796875 3.328125 25.921875 
z
M 12.359375 25.921875 
Q 12.359375 15.96875 16.703125 11.015625 
Q 21.046875 6.0625 27.640625 6.0625 
Q 34.1875 6.0625 38.53125 11.03125 
Q 42.875 16.015625 42.875 26.21875 
Q 42.875 35.84375 38.5 40.796875 
Q 34.125 45.75 27.640625 45.75 
Q 21.046875 45.75 16.703125 40.8125 
Q 12.359375 35.890625 12.359375 25.921875 
z
" id="ArialMT-111"/>
       <path d="M 3.078125 15.484375 
L 11.765625 16.84375 
Q 12.5 11.625 15.84375 8.84375 
Q 19.1875 6.0625 25.203125 6.0625 
Q 31.25 6.0625 34.171875 8.515625 
Q 37.109375 10.984375 37.109375 14.3125 
Q 37.109375 17.28125 34.515625 19 
Q 32.71875 20.171875 25.53125 21.96875 
Q 15.875 24.421875 12.140625 26.203125 
Q 8.40625 27.984375 6.46875 31.125 
Q 4.546875 34.28125 4.546875 38.09375 
Q 4.546875 41.546875 6.125 44.5 
Q 7.71875 47.46875 10.453125 49.421875 
Q 12.5 50.921875 16.03125 51.96875 
Q 19.578125 53.03125 23.640625 53.03125 
Q 29.734375 53.03125 34.34375 51.265625 
Q 38.96875 49.515625 41.15625 46.5 
Q 43.359375 43.5 44.1875 38.484375 
L 35.59375 37.3125 
Q 35.015625 41.3125 32.203125 43.546875 
Q 29.390625 45.796875 24.265625 45.796875 
Q 18.21875 45.796875 15.625 43.796875 
Q 13.03125 41.796875 13.03125 39.109375 
Q 13.03125 37.40625 14.109375 36.03125 
Q 15.1875 34.625 17.484375 33.6875 
Q 18.796875 33.203125 25.25 31.453125 
Q 34.578125 28.953125 38.25 27.359375 
Q 41.9375 25.78125 44.03125 22.75 
Q 46.140625 19.734375 46.140625 15.234375 
Q 46.140625 10.84375 43.578125 6.953125 
Q 41.015625 3.078125 36.171875 0.953125 
Q 31.34375 -1.171875 25.25 -1.171875 
Q 15.140625 -1.171875 9.84375 3.03125 
Q 4.546875 7.234375 3.078125 15.484375 
z
" id="ArialMT-115"/>
      </defs>
      <use xlink:href="#ArialMT-108"/>
      <use x="22.216797" xlink:href="#ArialMT-111"/>
      <use x="77.832031" xlink:href="#ArialMT-115"/>
      <use x="127.832031" xlink:href="#ArialMT-115"/>
     </g>
    </g>
   </g>
   <g id="line2d_13">
    <path clip-path="url(#pa746763d5f)" d="M 86.83707 243.43836 
L 90.782283 246.062599 
L 94.727496 240.407728 
L 98.67271 247.275244 
L 102.617923 243.835973 
L 106.563136 244.853914 
L 110.508349 241.644686 
L 114.453563 238.048137 
L 118.398776 237.338366 
L 122.343989 232.687154 
L 126.289203 236.327092 
L 130.234416 228.720957 
L 134.179629 229.417844 
L 138.124842 227.244702 
L 142.070056 226.526599 
L 146.015269 225.813048 
L 149.960482 222.283053 
L 153.905696 230.922032 
L 157.850909 226.617968 
L 161.796122 226.709839 
L 165.741335 226.935073 
L 169.686549 226.788988 
L 173.631762 229.448811 
L 177.576975 227.23112 
L 181.522189 233.834947 
L 185.467402 232.425964 
L 189.412615 231.790266 
L 193.357828 232.096022 
L 197.303042 231.525039 
L 201.248255 233.009888 
L 205.193468 229.417844 
L 209.138682 233.338962 
L 213.083895 231.350525 
L 217.029108 230.520739 
L 220.974321 227.825315 
L 224.919535 227.190441 
L 228.864748 228.529153 
L 232.809961 224.961833 
L 236.755175 229.557648 
L 240.700388 230.553816 
L 244.645601 231.229438 
L 248.590814 231.719127 
L 252.536028 230.854479 
L 256.481241 232.574717 
L 260.426454 230.487728 
L 264.371668 233.496085 
L 268.316881 231.91549 
L 272.262094 231.525039 
L 276.207307 230.720184 
L 280.152521 230.177324 
L 284.097734 229.294545 
L 288.042947 226.788988 
L 291.988161 231.298523 
L 295.933374 229.080931 
L 299.878587 231.246683 
L 303.8238 232.223562 
L 307.769014 232.241861 
L 311.714227 232.29688 
L 315.65944 230.520739 
L 319.604654 230.871341 
L 323.549867 228.383091 
L 327.49508 229.667198 
L 331.440293 229.95223 
L 335.385507 229.263861 
L 339.33072 227.518677 
L 343.275933 194.42088 
L 347.221147 237.264072 
L 351.16636 240.769321 
L 355.111573 249.895227 
L 359.056787 246.701298 
L 363.002 220.062407 
L 366.947213 39.588153 
" style="fill:none;stroke:#179c7d;stroke-linecap:round;stroke-width:2.25;"/>
   </g>
   <g id="line2d_14"/>
   <g id="patch_3">
    <path d="M 72.831563 323.174062 
L 72.831563 26.084062 
" style="fill:none;stroke:#ffffff;stroke-linecap:square;stroke-linejoin:miter;stroke-width:1.875;"/>
   </g>
   <g id="patch_4">
    <path d="M 72.831563 323.174062 
L 380.95272 323.174062 
" style="fill:none;stroke:#ffffff;stroke-linecap:square;stroke-linejoin:miter;stroke-width:1.875;"/>
   </g>
   <g id="text_10">
    <!-- roi_loss_intra -->
    <g style="fill:#262626;" transform="translate(173.370266 20.084062)scale(0.18 -0.18)">
     <defs>
      <path d="M 6.5 0 
L 6.5 51.859375 
L 14.40625 51.859375 
L 14.40625 44 
Q 17.4375 49.515625 20 51.265625 
Q 22.5625 53.03125 25.640625 53.03125 
Q 30.078125 53.03125 34.671875 50.203125 
L 31.640625 42.046875 
Q 28.421875 43.953125 25.203125 43.953125 
Q 22.3125 43.953125 20.015625 42.21875 
Q 17.71875 40.484375 16.75 37.40625 
Q 15.28125 32.71875 15.28125 27.15625 
L 15.28125 0 
z
" id="ArialMT-114"/>
      <path d="M 6.640625 61.46875 
L 6.640625 71.578125 
L 15.4375 71.578125 
L 15.4375 61.46875 
z
M 6.640625 0 
L 6.640625 51.859375 
L 15.4375 51.859375 
L 15.4375 0 
z
" id="ArialMT-105"/>
      <path d="M -1.515625 -19.875 
L -1.515625 -13.53125 
L 56.734375 -13.53125 
L 56.734375 -19.875 
z
" id="ArialMT-95"/>
      <path d="M 6.59375 0 
L 6.59375 51.859375 
L 14.5 51.859375 
L 14.5 44.484375 
Q 20.21875 53.03125 31 53.03125 
Q 35.6875 53.03125 39.625 51.34375 
Q 43.5625 49.65625 45.515625 46.921875 
Q 47.46875 44.1875 48.25 40.4375 
Q 48.734375 37.984375 48.734375 31.890625 
L 48.734375 0 
L 39.9375 0 
L 39.9375 31.546875 
Q 39.9375 36.921875 38.90625 39.578125 
Q 37.890625 42.234375 35.28125 43.8125 
Q 32.671875 45.40625 29.15625 45.40625 
Q 23.53125 45.40625 19.453125 41.84375 
Q 15.375 38.28125 15.375 28.328125 
L 15.375 0 
z
" id="ArialMT-110"/>
      <path d="M 25.78125 7.859375 
L 27.046875 0.09375 
Q 23.34375 -0.6875 20.40625 -0.6875 
Q 15.625 -0.6875 12.984375 0.828125 
Q 10.359375 2.34375 9.28125 4.8125 
Q 8.203125 7.28125 8.203125 15.1875 
L 8.203125 45.015625 
L 1.765625 45.015625 
L 1.765625 51.859375 
L 8.203125 51.859375 
L 8.203125 64.703125 
L 16.9375 69.96875 
L 16.9375 51.859375 
L 25.78125 51.859375 
L 25.78125 45.015625 
L 16.9375 45.015625 
L 16.9375 14.703125 
Q 16.9375 10.9375 17.40625 9.859375 
Q 17.875 8.796875 18.921875 8.15625 
Q 19.96875 7.515625 21.921875 7.515625 
Q 23.390625 7.515625 25.78125 7.859375 
z
" id="ArialMT-116"/>
      <path d="M 40.4375 6.390625 
Q 35.546875 2.25 31.03125 0.53125 
Q 26.515625 -1.171875 21.34375 -1.171875 
Q 12.796875 -1.171875 8.203125 3 
Q 3.609375 7.171875 3.609375 13.671875 
Q 3.609375 17.484375 5.34375 20.625 
Q 7.078125 23.78125 9.890625 25.6875 
Q 12.703125 27.59375 16.21875 28.5625 
Q 18.796875 29.25 24.03125 29.890625 
Q 34.671875 31.15625 39.703125 32.90625 
Q 39.75 34.71875 39.75 35.203125 
Q 39.75 40.578125 37.25 42.78125 
Q 33.890625 45.75 27.25 45.75 
Q 21.046875 45.75 18.09375 43.578125 
Q 15.140625 41.40625 13.71875 35.890625 
L 5.125 37.0625 
Q 6.296875 42.578125 8.984375 45.96875 
Q 11.671875 49.359375 16.75 51.1875 
Q 21.828125 53.03125 28.515625 53.03125 
Q 35.15625 53.03125 39.296875 51.46875 
Q 43.453125 49.90625 45.40625 47.53125 
Q 47.359375 45.171875 48.140625 41.546875 
Q 48.578125 39.3125 48.578125 33.453125 
L 48.578125 21.734375 
Q 48.578125 9.46875 49.140625 6.21875 
Q 49.703125 2.984375 51.375 0 
L 42.1875 0 
Q 40.828125 2.734375 40.4375 6.390625 
z
M 39.703125 26.03125 
Q 34.90625 24.078125 25.34375 22.703125 
Q 19.921875 21.921875 17.671875 20.9375 
Q 15.4375 19.96875 14.203125 18.09375 
Q 12.984375 16.21875 12.984375 13.921875 
Q 12.984375 10.40625 15.640625 8.0625 
Q 18.3125 5.71875 23.4375 5.71875 
Q 28.515625 5.71875 32.46875 7.9375 
Q 36.421875 10.15625 38.28125 14.015625 
Q 39.703125 17 39.703125 22.796875 
z
" id="ArialMT-97"/>
     </defs>
     <use xlink:href="#ArialMT-114"/>
     <use x="33.300781" xlink:href="#ArialMT-111"/>
     <use x="88.916016" xlink:href="#ArialMT-105"/>
     <use x="111.132812" xlink:href="#ArialMT-95"/>
     <use x="166.748047" xlink:href="#ArialMT-108"/>
     <use x="188.964844" xlink:href="#ArialMT-111"/>
     <use x="244.580078" xlink:href="#ArialMT-115"/>
     <use x="294.580078" xlink:href="#ArialMT-115"/>
     <use x="344.580078" xlink:href="#ArialMT-95"/>
     <use x="400.195312" xlink:href="#ArialMT-105"/>
     <use x="422.412109" xlink:href="#ArialMT-110"/>
     <use x="478.027344" xlink:href="#ArialMT-116"/>
     <use x="505.810547" xlink:href="#ArialMT-114"/>
     <use x="539.111328" xlink:href="#ArialMT-97"/>
    </g>
   </g>
  </g>
  <g id="axes_2">
   <g id="patch_5">
    <path d="M 400.505751 323.174062 
L 708.626908 323.174062 
L 708.626908 26.084062 
L 400.505751 26.084062 
z
" style="fill:#eaeaf2;"/>
   </g>
   <g id="matplotlib.axis_3">
    <g id="xtick_5">
     <g id="line2d_15">
      <path clip-path="url(#p027c9d4675)" d="M 410.566044 323.174062 
L 410.566044 26.084062 
" style="fill:none;stroke:#ffffff;stroke-linecap:round;stroke-width:1.5;"/>
     </g>
    </g>
    <g id="xtick_6">
     <g id="line2d_16">
      <path clip-path="url(#p027c9d4675)" d="M 489.47031 323.174062 
L 489.47031 26.084062 
" style="fill:none;stroke:#ffffff;stroke-linecap:round;stroke-width:1.5;"/>
     </g>
    </g>
    <g id="xtick_7">
     <g id="line2d_17">
      <path clip-path="url(#p027c9d4675)" d="M 568.374576 323.174062 
L 568.374576 26.084062 
" style="fill:none;stroke:#ffffff;stroke-linecap:round;stroke-width:1.5;"/>
     </g>
    </g>
    <g id="xtick_8">
     <g id="line2d_18">
      <path clip-path="url(#p027c9d4675)" d="M 647.278842 323.174062 
L 647.278842 26.084062 
" style="fill:none;stroke:#ffffff;stroke-linecap:round;stroke-width:1.5;"/>
     </g>
    </g>
   </g>
   <g id="matplotlib.axis_4">
    <g id="ytick_71">
     <g id="line2d_19">
      <path clip-path="url(#p027c9d4675)" d="M 400.505751 307.904849 
L 708.626908 307.904849 
" style="fill:none;stroke:#ffffff;stroke-linecap:round;stroke-width:1.5;"/>
     </g>
    </g>
    <g id="ytick_72">
     <g id="line2d_20">
      <path clip-path="url(#p027c9d4675)" d="M 400.505751 269.329253 
L 708.626908 269.329253 
" style="fill:none;stroke:#ffffff;stroke-linecap:round;stroke-width:1.5;"/>
     </g>
    </g>
    <g id="ytick_73">
     <g id="line2d_21">
      <path clip-path="url(#p027c9d4675)" d="M 400.505751 230.753657 
L 708.626908 230.753657 
" style="fill:none;stroke:#ffffff;stroke-linecap:round;stroke-width:1.5;"/>
     </g>
    </g>
    <g id="ytick_74">
     <g id="line2d_22">
      <path clip-path="url(#p027c9d4675)" d="M 400.505751 192.178061 
L 708.626908 192.178061 
" style="fill:none;stroke:#ffffff;stroke-linecap:round;stroke-width:1.5;"/>
     </g>
    </g>
    <g id="ytick_75">
     <g id="line2d_23">
      <path clip-path="url(#p027c9d4675)" d="M 400.505751 153.602465 
L 708.626908 153.602465 
" style="fill:none;stroke:#ffffff;stroke-linecap:round;stroke-width:1.5;"/>
     </g>
    </g>
    <g id="ytick_76">
     <g id="line2d_24">
      <path clip-path="url(#p027c9d4675)" d="M 400.505751 115.026869 
L 708.626908 115.026869 
" style="fill:none;stroke:#ffffff;stroke-linecap:round;stroke-width:1.5;"/>
     </g>
    </g>
    <g id="ytick_77">
     <g id="line2d_25">
      <path clip-path="url(#p027c9d4675)" d="M 400.505751 76.451272 
L 708.626908 76.451272 
" style="fill:none;stroke:#ffffff;stroke-linecap:round;stroke-width:1.5;"/>
     </g>
    </g>
    <g id="ytick_78">
     <g id="line2d_26">
      <path clip-path="url(#p027c9d4675)" d="M 400.505751 37.875676 
L 708.626908 37.875676 
" style="fill:none;stroke:#ffffff;stroke-linecap:round;stroke-width:1.5;"/>
     </g>
    </g>
    <g id="ytick_79"/>
    <g id="ytick_80"/>
    <g id="ytick_81"/>
    <g id="ytick_82"/>
    <g id="ytick_83"/>
    <g id="ytick_84"/>
    <g id="ytick_85"/>
    <g id="ytick_86"/>
    <g id="ytick_87"/>
    <g id="ytick_88"/>
    <g id="ytick_89"/>
    <g id="ytick_90"/>
    <g id="ytick_91"/>
    <g id="ytick_92"/>
    <g id="ytick_93"/>
    <g id="ytick_94"/>
    <g id="ytick_95"/>
    <g id="ytick_96"/>
    <g id="ytick_97"/>
    <g id="ytick_98"/>
    <g id="ytick_99"/>
    <g id="ytick_100"/>
    <g id="ytick_101"/>
    <g id="ytick_102"/>
    <g id="ytick_103"/>
    <g id="ytick_104"/>
    <g id="ytick_105"/>
    <g id="ytick_106"/>
    <g id="ytick_107"/>
    <g id="ytick_108"/>
    <g id="ytick_109"/>
    <g id="ytick_110"/>
    <g id="ytick_111"/>
    <g id="ytick_112"/>
    <g id="ytick_113"/>
    <g id="ytick_114"/>
    <g id="ytick_115"/>
    <g id="ytick_116"/>
    <g id="ytick_117"/>
    <g id="ytick_118"/>
    <g id="ytick_119"/>
    <g id="ytick_120"/>
    <g id="ytick_121"/>
    <g id="ytick_122"/>
    <g id="ytick_123"/>
    <g id="ytick_124"/>
    <g id="ytick_125"/>
    <g id="ytick_126"/>
    <g id="ytick_127"/>
    <g id="ytick_128"/>
    <g id="ytick_129"/>
    <g id="ytick_130"/>
    <g id="ytick_131"/>
    <g id="ytick_132"/>
    <g id="ytick_133"/>
    <g id="ytick_134"/>
    <g id="ytick_135"/>
    <g id="ytick_136"/>
    <g id="ytick_137"/>
    <g id="ytick_138"/>
    <g id="ytick_139"/>
    <g id="ytick_140"/>
   </g>
   <g id="line2d_27">
    <path clip-path="url(#p027c9d4675)" d="M 414.511258 198.247096 
L 418.456471 198.062796 
L 422.401684 198.809993 
L 426.346898 197.85227 
L 430.292111 198.365443 
L 434.237324 198.22545 
L 438.182537 198.713204 
L 442.127751 199.197745 
L 446.072964 199.438913 
L 450.018177 200.17047 
L 453.963391 199.524408 
L 457.908604 200.814373 
L 461.853817 200.685824 
L 465.79903 201.074468 
L 469.744244 201.194563 
L 473.689457 201.338665 
L 477.63467 201.829151 
L 481.579884 200.47008 
L 485.525097 201.120117 
L 489.47031 201.229034 
L 493.415523 201.131549 
L 497.360737 201.125832 
L 501.30595 200.794747 
L 505.251163 201.120117 
L 509.196377 200.046751 
L 513.14159 200.229965 
L 517.086803 200.44262 
L 521.032017 200.382367 
L 524.97723 200.547207 
L 528.922443 200.314159 
L 532.867656 200.924138 
L 536.81287 200.202896 
L 540.758083 200.574839 
L 544.703296 200.755565 
L 548.64851 201.295304 
L 552.593723 201.47526 
L 556.538936 201.234787 
L 560.484149 201.853012 
L 564.429363 201.017581 
L 568.374576 200.890287 
L 572.319789 200.856505 
L 576.265003 200.88747 
L 580.210216 201.065923 
L 584.155429 200.853693 
L 588.100642 201.163026 
L 592.045856 200.65523 
L 595.991069 201.020421 
L 599.936282 201.217536 
L 603.881496 201.671927 
L 607.826709 201.906823 
L 611.771922 202.306809 
L 615.717135 202.538402 
L 619.662349 201.921801 
L 623.607562 202.202865 
L 627.552775 202.172416 
L 631.497989 202.377491 
L 635.443202 202.864936 
L 639.388415 202.67264 
L 643.333628 203.120519 
L 647.278842 203.10443 
L 651.224055 203.871081 
L 655.169268 204.95949 
L 659.114482 205.712692 
L 663.059695 208.265167 
L 667.004908 210.640355 
L 670.950121 216.411001 
L 674.895335 200.44262 
L 678.840548 199.744022 
L 682.785761 198.73549 
L 686.730975 200.254365 
L 690.676188 217.898505 
L 690.727159 715.955391 
" style="fill:none;stroke:#179c7d;stroke-linecap:round;stroke-width:2.25;"/>
   </g>
   <g id="patch_6">
    <path d="M 400.505751 323.174062 
L 400.505751 26.084062 
" style="fill:none;stroke:#ffffff;stroke-linecap:square;stroke-linejoin:miter;stroke-width:1.875;"/>
   </g>
   <g id="patch_7">
    <path d="M 400.505751 323.174062 
L 708.626908 323.174062 
" style="fill:none;stroke:#ffffff;stroke-linecap:square;stroke-linejoin:miter;stroke-width:1.875;"/>
   </g>
   <g id="text_11">
    <!-- roi_loss_inter -->
    <g style="fill:#262626;" transform="translate(501.044454 20.084062)scale(0.18 -0.18)">
     <defs>
      <path d="M 42.09375 16.703125 
L 51.171875 15.578125 
Q 49.03125 7.625 43.21875 3.21875 
Q 37.40625 -1.171875 28.375 -1.171875 
Q 17 -1.171875 10.328125 5.828125 
Q 3.65625 12.84375 3.65625 25.484375 
Q 3.65625 38.578125 10.390625 45.796875 
Q 17.140625 53.03125 27.875 53.03125 
Q 38.28125 53.03125 44.875 45.953125 
Q 51.46875 38.875 51.46875 26.03125 
Q 51.46875 25.25 51.421875 23.6875 
L 12.75 23.6875 
Q 13.234375 15.140625 17.578125 10.59375 
Q 21.921875 6.0625 28.421875 6.0625 
Q 33.25 6.0625 36.671875 8.59375 
Q 40.09375 11.140625 42.09375 16.703125 
z
M 13.234375 30.90625 
L 42.1875 30.90625 
Q 41.609375 37.453125 38.875 40.71875 
Q 34.671875 45.796875 27.984375 45.796875 
Q 21.921875 45.796875 17.796875 41.75 
Q 13.671875 37.703125 13.234375 30.90625 
z
" id="ArialMT-101"/>
     </defs>
     <use xlink:href="#ArialMT-114"/>
     <use x="33.300781" xlink:href="#ArialMT-111"/>
     <use x="88.916016" xlink:href="#ArialMT-105"/>
     <use x="111.132812" xlink:href="#ArialMT-95"/>
     <use x="166.748047" xlink:href="#ArialMT-108"/>
     <use x="188.964844" xlink:href="#ArialMT-111"/>
     <use x="244.580078" xlink:href="#ArialMT-115"/>
     <use x="294.580078" xlink:href="#ArialMT-115"/>
     <use x="344.580078" xlink:href="#ArialMT-95"/>
     <use x="400.195312" xlink:href="#ArialMT-105"/>
     <use x="422.412109" xlink:href="#ArialMT-110"/>
     <use x="478.027344" xlink:href="#ArialMT-116"/>
     <use x="505.810547" xlink:href="#ArialMT-101"/>
     <use x="561.425781" xlink:href="#ArialMT-114"/>
    </g>
   </g>
  </g>
  <g id="axes_3">
   <g id="patch_8">
    <path d="M 72.831563 659.704062 
L 380.95272 659.704062 
L 380.95272 362.614062 
L 72.831563 362.614062 
z
" style="fill:#eaeaf2;"/>
   </g>
   <g id="matplotlib.axis_5">
    <g id="xtick_9">
     <g id="line2d_28">
      <path clip-path="url(#pee1bf2428e)" d="M 82.891856 659.704062 
L 82.891856 362.614062 
" style="fill:none;stroke:#ffffff;stroke-linecap:round;stroke-width:1.5;"/>
     </g>
     <g id="text_12">
      <!-- 0 -->
      <g style="fill:#262626;" transform="translate(78.304083 684.014453)scale(0.165 -0.165)">
       <use xlink:href="#ArialMT-48"/>
      </g>
     </g>
    </g>
    <g id="xtick_10">
     <g id="line2d_29">
      <path clip-path="url(#pee1bf2428e)" d="M 161.796122 659.704062 
L 161.796122 362.614062 
" style="fill:none;stroke:#ffffff;stroke-linecap:round;stroke-width:1.5;"/>
     </g>
     <g id="text_13">
      <!-- 20 -->
      <g style="fill:#262626;" transform="translate(152.620575 684.014453)scale(0.165 -0.165)">
       <use xlink:href="#ArialMT-50"/>
       <use x="55.615234" xlink:href="#ArialMT-48"/>
      </g>
     </g>
    </g>
    <g id="xtick_11">
     <g id="line2d_30">
      <path clip-path="url(#pee1bf2428e)" d="M 240.700388 659.704062 
L 240.700388 362.614062 
" style="fill:none;stroke:#ffffff;stroke-linecap:round;stroke-width:1.5;"/>
     </g>
     <g id="text_14">
      <!-- 40 -->
      <g style="fill:#262626;" transform="translate(231.524841 684.014453)scale(0.165 -0.165)">
       <use xlink:href="#ArialMT-52"/>
       <use x="55.615234" xlink:href="#ArialMT-48"/>
      </g>
     </g>
    </g>
    <g id="xtick_12">
     <g id="line2d_31">
      <path clip-path="url(#pee1bf2428e)" d="M 319.604654 659.704062 
L 319.604654 362.614062 
" style="fill:none;stroke:#ffffff;stroke-linecap:round;stroke-width:1.5;"/>
     </g>
     <g id="text_15">
      <!-- 60 -->
      <g style="fill:#262626;" transform="translate(310.429107 684.014453)scale(0.165 -0.165)">
       <defs>
        <path d="M 49.75 54.046875 
L 41.015625 53.375 
Q 39.84375 58.546875 37.703125 60.890625 
Q 34.125 64.65625 28.90625 64.65625 
Q 24.703125 64.65625 21.53125 62.3125 
Q 17.390625 59.28125 14.984375 53.46875 
Q 12.59375 47.65625 12.5 36.921875 
Q 15.671875 41.75 20.265625 44.09375 
Q 24.859375 46.4375 29.890625 46.4375 
Q 38.671875 46.4375 44.84375 39.96875 
Q 51.03125 33.5 51.03125 23.25 
Q 51.03125 16.5 48.125 10.71875 
Q 45.21875 4.9375 40.140625 1.859375 
Q 35.0625 -1.21875 28.609375 -1.21875 
Q 17.625 -1.21875 10.6875 6.859375 
Q 3.765625 14.9375 3.765625 33.5 
Q 3.765625 54.25 11.421875 63.671875 
Q 18.109375 71.875 29.4375 71.875 
Q 37.890625 71.875 43.28125 67.140625 
Q 48.6875 62.40625 49.75 54.046875 
z
M 13.875 23.1875 
Q 13.875 18.65625 15.796875 14.5 
Q 17.71875 10.359375 21.1875 8.171875 
Q 24.65625 6 28.46875 6 
Q 34.03125 6 38.03125 10.484375 
Q 42.046875 14.984375 42.046875 22.703125 
Q 42.046875 30.125 38.078125 34.390625 
Q 34.125 38.671875 28.125 38.671875 
Q 22.171875 38.671875 18.015625 34.390625 
Q 13.875 30.125 13.875 23.1875 
z
" id="ArialMT-54"/>
       </defs>
       <use xlink:href="#ArialMT-54"/>
       <use x="55.615234" xlink:href="#ArialMT-48"/>
      </g>
     </g>
    </g>
    <g id="text_16">
     <!-- epoch -->
     <g style="fill:#262626;" transform="translate(202.372766 704.177891)scale(0.18 -0.18)">
      <defs>
       <path d="M 6.59375 -19.875 
L 6.59375 51.859375 
L 14.59375 51.859375 
L 14.59375 45.125 
Q 17.4375 49.078125 21 51.046875 
Q 24.5625 53.03125 29.640625 53.03125 
Q 36.28125 53.03125 41.359375 49.609375 
Q 46.4375 46.1875 49.015625 39.953125 
Q 51.609375 33.734375 51.609375 26.3125 
Q 51.609375 18.359375 48.75 11.984375 
Q 45.90625 5.609375 40.453125 2.21875 
Q 35.015625 -1.171875 29 -1.171875 
Q 24.609375 -1.171875 21.109375 0.6875 
Q 17.625 2.546875 15.375 5.375 
L 15.375 -19.875 
z
M 14.546875 25.640625 
Q 14.546875 15.625 18.59375 10.84375 
Q 22.65625 6.0625 28.421875 6.0625 
Q 34.28125 6.0625 38.453125 11.015625 
Q 42.625 15.96875 42.625 26.375 
Q 42.625 36.28125 38.546875 41.203125 
Q 34.46875 46.140625 28.8125 46.140625 
Q 23.1875 46.140625 18.859375 40.890625 
Q 14.546875 35.640625 14.546875 25.640625 
z
" id="ArialMT-112"/>
       <path d="M 40.4375 19 
L 49.078125 17.875 
Q 47.65625 8.9375 41.8125 3.875 
Q 35.984375 -1.171875 27.484375 -1.171875 
Q 16.84375 -1.171875 10.375 5.78125 
Q 3.90625 12.75 3.90625 25.734375 
Q 3.90625 34.125 6.6875 40.421875 
Q 9.46875 46.734375 15.15625 49.875 
Q 20.84375 53.03125 27.546875 53.03125 
Q 35.984375 53.03125 41.359375 48.75 
Q 46.734375 44.484375 48.25 36.625 
L 39.703125 35.296875 
Q 38.484375 40.53125 35.375 43.15625 
Q 32.28125 45.796875 27.875 45.796875 
Q 21.234375 45.796875 17.078125 41.03125 
Q 12.9375 36.28125 12.9375 25.984375 
Q 12.9375 15.53125 16.9375 10.796875 
Q 20.953125 6.0625 27.390625 6.0625 
Q 32.5625 6.0625 36.03125 9.234375 
Q 39.5 12.40625 40.4375 19 
z
" id="ArialMT-99"/>
       <path d="M 6.59375 0 
L 6.59375 71.578125 
L 15.375 71.578125 
L 15.375 45.90625 
Q 21.53125 53.03125 30.90625 53.03125 
Q 36.671875 53.03125 40.921875 50.75 
Q 45.171875 48.484375 47 44.484375 
Q 48.828125 40.484375 48.828125 32.859375 
L 48.828125 0 
L 40.046875 0 
L 40.046875 32.859375 
Q 40.046875 39.453125 37.1875 42.453125 
Q 34.328125 45.453125 29.109375 45.453125 
Q 25.203125 45.453125 21.75 43.421875 
Q 18.3125 41.40625 16.84375 37.9375 
Q 15.375 34.46875 15.375 28.375 
L 15.375 0 
z
" id="ArialMT-104"/>
      </defs>
      <use xlink:href="#ArialMT-101"/>
      <use x="55.615234" xlink:href="#ArialMT-112"/>
      <use x="111.230469" xlink:href="#ArialMT-111"/>
      <use x="166.845703" xlink:href="#ArialMT-99"/>
      <use x="216.845703" xlink:href="#ArialMT-104"/>
     </g>
    </g>
   </g>
   <g id="matplotlib.axis_6">
    <g id="ytick_141">
     <g id="line2d_32">
      <path clip-path="url(#pee1bf2428e)" d="M 72.831563 644.434849 
L 380.95272 644.434849 
" style="fill:none;stroke:#ffffff;stroke-linecap:round;stroke-width:1.5;"/>
     </g>
     <g id="text_17">
      <!-- $\mathdefault{10^{-3}}$ -->
      <g style="fill:#262626;" transform="translate(27.661563 652.942662)scale(0.165 -0.165)">
       <use transform="translate(0 0.99375)" xlink:href="#ArialMT-49"/>
       <use transform="translate(55.615234 0.99375)" xlink:href="#ArialMT-48"/>
       <use transform="translate(112.972813 70.6875)scale(0.7)" xlink:href="#ArialMT-8722"/>
       <use transform="translate(153.851719 70.6875)scale(0.7)" xlink:href="#ArialMT-51"/>
      </g>
     </g>
    </g>
    <g id="ytick_142">
     <g id="line2d_33">
      <path clip-path="url(#pee1bf2428e)" d="M 72.831563 605.859253 
L 380.95272 605.859253 
" style="fill:none;stroke:#ffffff;stroke-linecap:round;stroke-width:1.5;"/>
     </g>
     <g id="text_18">
      <!-- $\mathdefault{10^{-2}}$ -->
      <g style="fill:#262626;" transform="translate(27.661563 614.367066)scale(0.165 -0.165)">
       <use transform="translate(0 0.99375)" xlink:href="#ArialMT-49"/>
       <use transform="translate(55.615234 0.99375)" xlink:href="#ArialMT-48"/>
       <use transform="translate(112.972813 70.6875)scale(0.7)" xlink:href="#ArialMT-8722"/>
       <use transform="translate(153.851719 70.6875)scale(0.7)" xlink:href="#ArialMT-50"/>
      </g>
     </g>
    </g>
    <g id="ytick_143">
     <g id="line2d_34">
      <path clip-path="url(#pee1bf2428e)" d="M 72.831563 567.283657 
L 380.95272 567.283657 
" style="fill:none;stroke:#ffffff;stroke-linecap:round;stroke-width:1.5;"/>
     </g>
     <g id="text_19">
      <!-- $\mathdefault{10^{-1}}$ -->
      <g style="fill:#262626;" transform="translate(27.661563 575.791469)scale(0.165 -0.165)">
       <use transform="translate(0 0.99375)" xlink:href="#ArialMT-49"/>
       <use transform="translate(55.615234 0.99375)" xlink:href="#ArialMT-48"/>
       <use transform="translate(112.972813 70.6875)scale(0.7)" xlink:href="#ArialMT-8722"/>
       <use transform="translate(153.851719 70.6875)scale(0.7)" xlink:href="#ArialMT-49"/>
      </g>
     </g>
    </g>
    <g id="ytick_144">
     <g id="line2d_35">
      <path clip-path="url(#pee1bf2428e)" d="M 72.831563 528.708061 
L 380.95272 528.708061 
" style="fill:none;stroke:#ffffff;stroke-linecap:round;stroke-width:1.5;"/>
     </g>
     <g id="text_20">
      <!-- $\mathdefault{10^{0}}$ -->
      <g style="fill:#262626;" transform="translate(34.426563 537.215873)scale(0.165 -0.165)">
       <use transform="translate(0 0.99375)" xlink:href="#ArialMT-49"/>
       <use transform="translate(55.615234 0.99375)" xlink:href="#ArialMT-48"/>
       <use transform="translate(112.972813 70.6875)scale(0.7)" xlink:href="#ArialMT-48"/>
      </g>
     </g>
    </g>
    <g id="ytick_145">
     <g id="line2d_36">
      <path clip-path="url(#pee1bf2428e)" d="M 72.831563 490.132465 
L 380.95272 490.132465 
" style="fill:none;stroke:#ffffff;stroke-linecap:round;stroke-width:1.5;"/>
     </g>
     <g id="text_21">
      <!-- $\mathdefault{10^{1}}$ -->
      <g style="fill:#262626;" transform="translate(34.426563 498.640277)scale(0.165 -0.165)">
       <use transform="translate(0 0.99375)" xlink:href="#ArialMT-49"/>
       <use transform="translate(55.615234 0.99375)" xlink:href="#ArialMT-48"/>
       <use transform="translate(112.972813 70.6875)scale(0.7)" xlink:href="#ArialMT-49"/>
      </g>
     </g>
    </g>
    <g id="ytick_146">
     <g id="line2d_37">
      <path clip-path="url(#pee1bf2428e)" d="M 72.831563 451.556869 
L 380.95272 451.556869 
" style="fill:none;stroke:#ffffff;stroke-linecap:round;stroke-width:1.5;"/>
     </g>
     <g id="text_22">
      <!-- $\mathdefault{10^{2}}$ -->
      <g style="fill:#262626;" transform="translate(34.426563 460.064681)scale(0.165 -0.165)">
       <use transform="translate(0 0.99375)" xlink:href="#ArialMT-49"/>
       <use transform="translate(55.615234 0.99375)" xlink:href="#ArialMT-48"/>
       <use transform="translate(112.972813 70.6875)scale(0.7)" xlink:href="#ArialMT-50"/>
      </g>
     </g>
    </g>
    <g id="ytick_147">
     <g id="line2d_38">
      <path clip-path="url(#pee1bf2428e)" d="M 72.831563 412.981272 
L 380.95272 412.981272 
" style="fill:none;stroke:#ffffff;stroke-linecap:round;stroke-width:1.5;"/>
     </g>
     <g id="text_23">
      <!-- $\mathdefault{10^{3}}$ -->
      <g style="fill:#262626;" transform="translate(34.426563 421.489085)scale(0.165 -0.165)">
       <use transform="translate(0 0.99375)" xlink:href="#ArialMT-49"/>
       <use transform="translate(55.615234 0.99375)" xlink:href="#ArialMT-48"/>
       <use transform="translate(112.972813 70.6875)scale(0.7)" xlink:href="#ArialMT-51"/>
      </g>
     </g>
    </g>
    <g id="ytick_148">
     <g id="line2d_39">
      <path clip-path="url(#pee1bf2428e)" d="M 72.831563 374.405676 
L 380.95272 374.405676 
" style="fill:none;stroke:#ffffff;stroke-linecap:round;stroke-width:1.5;"/>
     </g>
     <g id="text_24">
      <!-- $\mathdefault{10^{4}}$ -->
      <g style="fill:#262626;" transform="translate(34.426563 382.830989)scale(0.165 -0.165)">
       <use transform="translate(0 0.201563)" xlink:href="#ArialMT-49"/>
       <use transform="translate(55.615234 0.201563)" xlink:href="#ArialMT-48"/>
       <use transform="translate(112.972813 69.895313)scale(0.7)" xlink:href="#ArialMT-52"/>
      </g>
     </g>
    </g>
    <g id="ytick_149"/>
    <g id="ytick_150"/>
    <g id="ytick_151"/>
    <g id="ytick_152"/>
    <g id="ytick_153"/>
    <g id="ytick_154"/>
    <g id="ytick_155"/>
    <g id="ytick_156"/>
    <g id="ytick_157"/>
    <g id="ytick_158"/>
    <g id="ytick_159"/>
    <g id="ytick_160"/>
    <g id="ytick_161"/>
    <g id="ytick_162"/>
    <g id="ytick_163"/>
    <g id="ytick_164"/>
    <g id="ytick_165"/>
    <g id="ytick_166"/>
    <g id="ytick_167"/>
    <g id="ytick_168"/>
    <g id="ytick_169"/>
    <g id="ytick_170"/>
    <g id="ytick_171"/>
    <g id="ytick_172"/>
    <g id="ytick_173"/>
    <g id="ytick_174"/>
    <g id="ytick_175"/>
    <g id="ytick_176"/>
    <g id="ytick_177"/>
    <g id="ytick_178"/>
    <g id="ytick_179"/>
    <g id="ytick_180"/>
    <g id="ytick_181"/>
    <g id="ytick_182"/>
    <g id="ytick_183"/>
    <g id="ytick_184"/>
    <g id="ytick_185"/>
    <g id="ytick_186"/>
    <g id="ytick_187"/>
    <g id="ytick_188"/>
    <g id="ytick_189"/>
    <g id="ytick_190"/>
    <g id="ytick_191"/>
    <g id="ytick_192"/>
    <g id="ytick_193"/>
    <g id="ytick_194"/>
    <g id="ytick_195"/>
    <g id="ytick_196"/>
    <g id="ytick_197"/>
    <g id="ytick_198"/>
    <g id="ytick_199"/>
    <g id="ytick_200"/>
    <g id="ytick_201"/>
    <g id="ytick_202"/>
    <g id="ytick_203"/>
    <g id="ytick_204"/>
    <g id="ytick_205"/>
    <g id="ytick_206"/>
    <g id="ytick_207"/>
    <g id="ytick_208"/>
    <g id="ytick_209"/>
    <g id="ytick_210"/>
    <g id="text_25">
     <!-- loss -->
     <g style="fill:#262626;" transform="translate(20.084063 527.163594)rotate(-90)scale(0.18 -0.18)">
      <use xlink:href="#ArialMT-108"/>
      <use x="22.216797" xlink:href="#ArialMT-111"/>
      <use x="77.832031" xlink:href="#ArialMT-115"/>
      <use x="127.832031" xlink:href="#ArialMT-115"/>
     </g>
    </g>
   </g>
   <g id="line2d_40">
    <path clip-path="url(#pee1bf2428e)" d="M 86.83707 629.767974 
L 90.782283 631.22569 
L 94.727496 630.480982 
L 98.67271 638.797873 
L 102.617923 635.545145 
L 106.563136 633.681763 
L 110.508349 634.58756 
L 114.453563 628.427005 
L 118.398776 629.084076 
L 122.343989 627.185461 
L 126.289203 635.545145 
L 130.234416 627.794735 
L 134.179629 625.480279 
L 138.124842 626.029612 
L 142.070056 621.210026 
L 146.015269 619.998426 
L 149.960482 615.57305 
L 153.905696 626.597571 
L 157.850909 618.868571 
L 161.796122 613.335976 
L 165.741335 614.985159 
L 169.686549 611.362737 
L 173.631762 608.58196 
L 177.576975 606.197712 
L 181.522189 610.237941 
L 185.467402 608.192334 
L 189.412615 600.95611 
L 193.357828 603.960638 
L 197.303042 598.625529 
L 201.248255 596.969548 
L 205.193468 594.670995 
L 209.138682 595.552944 
L 213.083895 592.9575 
L 217.029108 587.735589 
L 220.974321 587.232117 
L 224.919535 584.306737 
L 228.864748 582.139226 
L 232.809961 576.848536 
L 236.755175 577.513912 
L 240.700388 577.117549 
L 244.645601 570.772587 
L 248.590814 573.670977 
L 252.536028 569.908105 
L 256.481241 567.950113 
L 260.426454 566.402567 
L 264.371668 566.181504 
L 268.316881 565.265802 
L 272.262094 562.696025 
L 276.207307 567.100378 
L 280.152521 564.215238 
L 284.097734 563.056599 
L 288.042947 561.291477 
L 291.988161 565.029838 
L 295.933374 565.610931 
L 299.878587 562.721525 
L 303.8238 567.166793 
L 307.769014 567.050739 
L 311.714227 564.75388 
L 315.65944 564.496574 
L 319.604654 567.70781 
L 323.549867 567.083816 
L 327.49508 565.505137 
L 331.440293 565.763234 
L 335.385507 567.233473 
L 339.33072 563.425105 
L 343.275933 556.663357 
L 347.221147 593.349864 
L 351.16636 619.998426 
L 355.111573 635.545145 
L 359.056787 637.642024 
L 363.002 593.670509 
L 366.947213 424.743451 
" style="fill:none;stroke:#179c7d;stroke-linecap:round;stroke-width:2.25;"/>
   </g>
   <g id="patch_9">
    <path d="M 72.831563 659.704062 
L 72.831563 362.614062 
" style="fill:none;stroke:#ffffff;stroke-linecap:square;stroke-linejoin:miter;stroke-width:1.875;"/>
   </g>
   <g id="patch_10">
    <path d="M 72.831563 659.704062 
L 380.95272 659.704062 
" style="fill:none;stroke:#ffffff;stroke-linecap:square;stroke-linejoin:miter;stroke-width:1.875;"/>
   </g>
   <g id="text_26">
    <!-- rcnn_loss_intra -->
    <g style="fill:#262626;" transform="translate(165.86511 356.614062)scale(0.18 -0.18)">
     <use xlink:href="#ArialMT-114"/>
     <use x="33.300781" xlink:href="#ArialMT-99"/>
     <use x="83.300781" xlink:href="#ArialMT-110"/>
     <use x="138.916016" xlink:href="#ArialMT-110"/>
     <use x="194.53125" xlink:href="#ArialMT-95"/>
     <use x="250.146484" xlink:href="#ArialMT-108"/>
     <use x="272.363281" xlink:href="#ArialMT-111"/>
     <use x="327.978516" xlink:href="#ArialMT-115"/>
     <use x="377.978516" xlink:href="#ArialMT-115"/>
     <use x="427.978516" xlink:href="#ArialMT-95"/>
     <use x="483.59375" xlink:href="#ArialMT-105"/>
     <use x="505.810547" xlink:href="#ArialMT-110"/>
     <use x="561.425781" xlink:href="#ArialMT-116"/>
     <use x="589.208984" xlink:href="#ArialMT-114"/>
     <use x="622.509766" xlink:href="#ArialMT-97"/>
    </g>
   </g>
  </g>
  <g id="axes_4">
   <g id="patch_11">
    <path d="M 400.505751 659.704062 
L 708.626908 659.704062 
L 708.626908 362.614062 
L 400.505751 362.614062 
z
" style="fill:#eaeaf2;"/>
   </g>
   <g id="matplotlib.axis_7">
    <g id="xtick_13">
     <g id="line2d_41">
      <path clip-path="url(#pf4b4d7b876)" d="M 410.566044 659.704062 
L 410.566044 362.614062 
" style="fill:none;stroke:#ffffff;stroke-linecap:round;stroke-width:1.5;"/>
     </g>
     <g id="text_27">
      <!-- 0 -->
      <g style="fill:#262626;" transform="translate(405.978271 684.014453)scale(0.165 -0.165)">
       <use xlink:href="#ArialMT-48"/>
      </g>
     </g>
    </g>
    <g id="xtick_14">
     <g id="line2d_42">
      <path clip-path="url(#pf4b4d7b876)" d="M 489.47031 659.704062 
L 489.47031 362.614062 
" style="fill:none;stroke:#ffffff;stroke-linecap:round;stroke-width:1.5;"/>
     </g>
     <g id="text_28">
      <!-- 20 -->
      <g style="fill:#262626;" transform="translate(480.294763 684.014453)scale(0.165 -0.165)">
       <use xlink:href="#ArialMT-50"/>
       <use x="55.615234" xlink:href="#ArialMT-48"/>
      </g>
     </g>
    </g>
    <g id="xtick_15">
     <g id="line2d_43">
      <path clip-path="url(#pf4b4d7b876)" d="M 568.374576 659.704062 
L 568.374576 362.614062 
" style="fill:none;stroke:#ffffff;stroke-linecap:round;stroke-width:1.5;"/>
     </g>
     <g id="text_29">
      <!-- 40 -->
      <g style="fill:#262626;" transform="translate(559.199029 684.014453)scale(0.165 -0.165)">
       <use xlink:href="#ArialMT-52"/>
       <use x="55.615234" xlink:href="#ArialMT-48"/>
      </g>
     </g>
    </g>
    <g id="xtick_16">
     <g id="line2d_44">
      <path clip-path="url(#pf4b4d7b876)" d="M 647.278842 659.704062 
L 647.278842 362.614062 
" style="fill:none;stroke:#ffffff;stroke-linecap:round;stroke-width:1.5;"/>
     </g>
     <g id="text_30">
      <!-- 60 -->
      <g style="fill:#262626;" transform="translate(638.103295 684.014453)scale(0.165 -0.165)">
       <use xlink:href="#ArialMT-54"/>
       <use x="55.615234" xlink:href="#ArialMT-48"/>
      </g>
     </g>
    </g>
    <g id="text_31">
     <!-- epoch -->
     <g style="fill:#262626;" transform="translate(530.046954 704.177891)scale(0.18 -0.18)">
      <use xlink:href="#ArialMT-101"/>
      <use x="55.615234" xlink:href="#ArialMT-112"/>
      <use x="111.230469" xlink:href="#ArialMT-111"/>
      <use x="166.845703" xlink:href="#ArialMT-99"/>
      <use x="216.845703" xlink:href="#ArialMT-104"/>
     </g>
    </g>
   </g>
   <g id="matplotlib.axis_8">
    <g id="ytick_211">
     <g id="line2d_45">
      <path clip-path="url(#pf4b4d7b876)" d="M 400.505751 644.434849 
L 708.626908 644.434849 
" style="fill:none;stroke:#ffffff;stroke-linecap:round;stroke-width:1.5;"/>
     </g>
    </g>
    <g id="ytick_212">
     <g id="line2d_46">
      <path clip-path="url(#pf4b4d7b876)" d="M 400.505751 605.859253 
L 708.626908 605.859253 
" style="fill:none;stroke:#ffffff;stroke-linecap:round;stroke-width:1.5;"/>
     </g>
    </g>
    <g id="ytick_213">
     <g id="line2d_47">
      <path clip-path="url(#pf4b4d7b876)" d="M 400.505751 567.283657 
L 708.626908 567.283657 
" style="fill:none;stroke:#ffffff;stroke-linecap:round;stroke-width:1.5;"/>
     </g>
    </g>
    <g id="ytick_214">
     <g id="line2d_48">
      <path clip-path="url(#pf4b4d7b876)" d="M 400.505751 528.708061 
L 708.626908 528.708061 
" style="fill:none;stroke:#ffffff;stroke-linecap:round;stroke-width:1.5;"/>
     </g>
    </g>
    <g id="ytick_215">
     <g id="line2d_49">
      <path clip-path="url(#pf4b4d7b876)" d="M 400.505751 490.132465 
L 708.626908 490.132465 
" style="fill:none;stroke:#ffffff;stroke-linecap:round;stroke-width:1.5;"/>
     </g>
    </g>
    <g id="ytick_216">
     <g id="line2d_50">
      <path clip-path="url(#pf4b4d7b876)" d="M 400.505751 451.556869 
L 708.626908 451.556869 
" style="fill:none;stroke:#ffffff;stroke-linecap:round;stroke-width:1.5;"/>
     </g>
    </g>
    <g id="ytick_217">
     <g id="line2d_51">
      <path clip-path="url(#pf4b4d7b876)" d="M 400.505751 412.981272 
L 708.626908 412.981272 
" style="fill:none;stroke:#ffffff;stroke-linecap:round;stroke-width:1.5;"/>
     </g>
    </g>
    <g id="ytick_218">
     <g id="line2d_52">
      <path clip-path="url(#pf4b4d7b876)" d="M 400.505751 374.405676 
L 708.626908 374.405676 
" style="fill:none;stroke:#ffffff;stroke-linecap:round;stroke-width:1.5;"/>
     </g>
    </g>
    <g id="ytick_219"/>
    <g id="ytick_220"/>
    <g id="ytick_221"/>
    <g id="ytick_222"/>
    <g id="ytick_223"/>
    <g id="ytick_224"/>
    <g id="ytick_225"/>
    <g id="ytick_226"/>
    <g id="ytick_227"/>
    <g id="ytick_228"/>
    <g id="ytick_229"/>
    <g id="ytick_230"/>
    <g id="ytick_231"/>
    <g id="ytick_232"/>
    <g id="ytick_233"/>
    <g id="ytick_234"/>
    <g id="ytick_235"/>
    <g id="ytick_236"/>
    <g id="ytick_237"/>
    <g id="ytick_238"/>
    <g id="ytick_239"/>
    <g id="ytick_240"/>
    <g id="ytick_241"/>
    <g id="ytick_242"/>
    <g id="ytick_243"/>
    <g id="ytick_244"/>
    <g id="ytick_245"/>
    <g id="ytick_246"/>
    <g id="ytick_247"/>
    <g id="ytick_248"/>
    <g id="ytick_249"/>
    <g id="ytick_250"/>
    <g id="ytick_251"/>
    <g id="ytick_252"/>
    <g id="ytick_253"/>
    <g id="ytick_254"/>
    <g id="ytick_255"/>
    <g id="ytick_256"/>
    <g id="ytick_257"/>
    <g id="ytick_258"/>
    <g id="ytick_259"/>
    <g id="ytick_260"/>
    <g id="ytick_261"/>
    <g id="ytick_262"/>
    <g id="ytick_263"/>
    <g id="ytick_264"/>
    <g id="ytick_265"/>
    <g id="ytick_266"/>
    <g id="ytick_267"/>
    <g id="ytick_268"/>
    <g id="ytick_269"/>
    <g id="ytick_270"/>
    <g id="ytick_271"/>
    <g id="ytick_272"/>
    <g id="ytick_273"/>
    <g id="ytick_274"/>
    <g id="ytick_275"/>
    <g id="ytick_276"/>
    <g id="ytick_277"/>
    <g id="ytick_278"/>
    <g id="ytick_279"/>
    <g id="ytick_280"/>
   </g>
   <g id="line2d_53">
    <path clip-path="url(#pf4b4d7b876)" d="M 414.511258 530.265986 
L 418.456471 530.225586 
L 422.401684 530.249447 
L 426.346898 529.907645 
L 430.292111 530.072221 
L 434.237324 530.135952 
L 438.182537 530.081311 
L 442.127751 530.352623 
L 446.072964 530.304641 
L 450.018177 530.408158 
L 453.963391 530.037725 
L 457.908604 530.397037 
L 461.853817 530.504858 
L 465.79903 530.471322 
L 469.744244 530.722605 
L 473.689457 530.781279 
L 477.63467 531.060409 
L 481.579884 530.454579 
L 485.525097 530.842061 
L 489.47031 531.271876 
L 493.415523 531.135765 
L 497.360737 531.389429 
L 501.30595 531.583223 
L 505.251163 531.767216 
L 509.196377 531.488023 
L 513.14159 531.629032 
L 517.086803 532.33996 
L 521.032017 532.055232 
L 524.97723 532.490457 
L 528.922443 532.657157 
L 532.867656 532.913588 
L 536.81287 532.840533 
L 540.758083 533.119417 
L 544.703296 533.877507 
L 548.64851 533.982758 
L 552.593723 534.307217 
L 556.538936 534.535764 
L 560.484149 535.412329 
L 564.429363 535.335016 
L 568.374576 535.352442 
L 572.319789 536.472569 
L 576.265003 536.0752 
L 580.210216 536.616994 
L 584.155429 536.898703 
L 588.100642 537.196349 
L 592.045856 537.349984 
L 595.991069 537.355598 
L 599.936282 538.031544 
L 603.881496 537.254843 
L 607.826709 537.707354 
L 611.771922 538.034467 
L 615.717135 538.29074 
L 619.662349 537.784935 
L 623.607562 537.567469 
L 627.552775 538.193071 
L 631.497989 537.564627 
L 635.443202 537.635838 
L 639.388415 537.819531 
L 643.333628 538.008178 
L 647.278842 537.536227 
L 651.224055 537.567469 
L 655.169268 538.18422 
L 659.114482 538.377043 
L 663.059695 538.472793 
L 667.004908 539.186976 
L 670.950121 541.39991 
L 674.895335 533.323392 
L 678.840548 531.108675 
L 682.785761 530.450861 
L 686.730975 530.579624 
L 690.676188 535.364901 
L 694.621401 646.199972 
" style="fill:none;stroke:#179c7d;stroke-linecap:round;stroke-width:2.25;"/>
   </g>
   <g id="patch_12">
    <path d="M 400.505751 659.704062 
L 400.505751 362.614062 
" style="fill:none;stroke:#ffffff;stroke-linecap:square;stroke-linejoin:miter;stroke-width:1.875;"/>
   </g>
   <g id="patch_13">
    <path d="M 400.505751 659.704062 
L 708.626908 659.704062 
" style="fill:none;stroke:#ffffff;stroke-linecap:square;stroke-linejoin:miter;stroke-width:1.875;"/>
   </g>
   <g id="text_32">
    <!-- rcnn_loss_inter -->
    <g style="fill:#262626;" transform="translate(493.539298 356.614062)scale(0.18 -0.18)">
     <use xlink:href="#ArialMT-114"/>
     <use x="33.300781" xlink:href="#ArialMT-99"/>
     <use x="83.300781" xlink:href="#ArialMT-110"/>
     <use x="138.916016" xlink:href="#ArialMT-110"/>
     <use x="194.53125" xlink:href="#ArialMT-95"/>
     <use x="250.146484" xlink:href="#ArialMT-108"/>
     <use x="272.363281" xlink:href="#ArialMT-111"/>
     <use x="327.978516" xlink:href="#ArialMT-115"/>
     <use x="377.978516" xlink:href="#ArialMT-115"/>
     <use x="427.978516" xlink:href="#ArialMT-95"/>
     <use x="483.59375" xlink:href="#ArialMT-105"/>
     <use x="505.810547" xlink:href="#ArialMT-110"/>
     <use x="561.425781" xlink:href="#ArialMT-116"/>
     <use x="589.208984" xlink:href="#ArialMT-101"/>
     <use x="644.824219" xlink:href="#ArialMT-114"/>
    </g>
   </g>
  </g>
  <g id="legend_1">
   <g id="text_33">
    <!-- mode -->
    <g style="fill:#262626;" transform="translate(725.651182 350.461094)scale(0.18 -0.18)">
     <defs>
      <path d="M 6.59375 0 
L 6.59375 51.859375 
L 14.453125 51.859375 
L 14.453125 44.578125 
Q 16.890625 48.390625 20.9375 50.703125 
Q 25 53.03125 30.171875 53.03125 
Q 35.9375 53.03125 39.625 50.640625 
Q 43.3125 48.25 44.828125 43.953125 
Q 50.984375 53.03125 60.84375 53.03125 
Q 68.5625 53.03125 72.703125 48.75 
Q 76.859375 44.484375 76.859375 35.59375 
L 76.859375 0 
L 68.109375 0 
L 68.109375 32.671875 
Q 68.109375 37.9375 67.25 40.25 
Q 66.40625 42.578125 64.15625 43.984375 
Q 61.921875 45.40625 58.890625 45.40625 
Q 53.421875 45.40625 49.796875 41.765625 
Q 46.1875 38.140625 46.1875 30.125 
L 46.1875 0 
L 37.40625 0 
L 37.40625 33.6875 
Q 37.40625 39.546875 35.25 42.46875 
Q 33.109375 45.40625 28.21875 45.40625 
Q 24.515625 45.40625 21.359375 43.453125 
Q 18.21875 41.5 16.796875 37.734375 
Q 15.375 33.984375 15.375 26.90625 
L 15.375 0 
z
" id="ArialMT-109"/>
      <path d="M 40.234375 0 
L 40.234375 6.546875 
Q 35.296875 -1.171875 25.734375 -1.171875 
Q 19.53125 -1.171875 14.328125 2.25 
Q 9.125 5.671875 6.265625 11.796875 
Q 3.421875 17.921875 3.421875 25.875 
Q 3.421875 33.640625 6 39.96875 
Q 8.59375 46.296875 13.765625 49.65625 
Q 18.953125 53.03125 25.34375 53.03125 
Q 30.03125 53.03125 33.6875 51.046875 
Q 37.359375 49.078125 39.65625 45.90625 
L 39.65625 71.578125 
L 48.390625 71.578125 
L 48.390625 0 
z
M 12.453125 25.875 
Q 12.453125 15.921875 16.640625 10.984375 
Q 20.84375 6.0625 26.5625 6.0625 
Q 32.328125 6.0625 36.34375 10.765625 
Q 40.375 15.484375 40.375 25.140625 
Q 40.375 35.796875 36.265625 40.765625 
Q 32.171875 45.75 26.171875 45.75 
Q 20.3125 45.75 16.375 40.96875 
Q 12.453125 36.1875 12.453125 25.875 
z
" id="ArialMT-100"/>
     </defs>
     <use xlink:href="#ArialMT-109"/>
     <use x="83.300781" xlink:href="#ArialMT-111"/>
     <use x="138.916016" xlink:href="#ArialMT-100"/>
     <use x="194.53125" xlink:href="#ArialMT-101"/>
    </g>
   </g>
   <g id="line2d_54">
    <path d="M 714.057705 368.323984 
L 747.057705 368.323984 
" style="fill:none;stroke:#179c7d;stroke-linecap:round;stroke-width:2.25;"/>
   </g>
   <g id="line2d_55"/>
   <g id="text_34">
    <!-- std -->
    <g style="fill:#262626;" transform="translate(760.257705 374.098984)scale(0.165 -0.165)">
     <use xlink:href="#ArialMT-115"/>
     <use x="50" xlink:href="#ArialMT-116"/>
     <use x="77.783203" xlink:href="#ArialMT-100"/>
    </g>
   </g>
  </g>
 </g>
 <defs>
  <clipPath id="pa746763d5f">
   <rect height="297.09" width="308.121158" x="72.831563" y="26.084062"/>
  </clipPath>
  <clipPath id="p027c9d4675">
   <rect height="297.09" width="308.121158" x="400.505751" y="26.084062"/>
  </clipPath>
  <clipPath id="pee1bf2428e">
   <rect height="297.09" width="308.121158" x="72.831563" y="362.614062"/>
  </clipPath>
  <clipPath id="pf4b4d7b876">
   <rect height="297.09" width="308.121158" x="400.505751" y="362.614062"/>
  </clipPath>
 </defs>
</svg>
