<?xml version="1.0" encoding="utf-8" standalone="no"?>
<!DOCTYPE svg PUBLIC "-//W3C//DTD SVG 1.1//EN"
  "http://www.w3.org/Graphics/SVG/1.1/DTD/svg11.dtd">
<!-- Created with matplotlib (https://matplotlib.org/) -->
<svg height="290.116523pt" version="1.1" viewBox="0 0 858.7875 290.116523" width="858.7875pt" xmlns="http://www.w3.org/2000/svg" xmlns:xlink="http://www.w3.org/1999/xlink">
 <metadata>
  <rdf:RDF xmlns:cc="http://creativecommons.org/ns#" xmlns:dc="http://purl.org/dc/elements/1.1/" xmlns:rdf="http://www.w3.org/1999/02/22-rdf-syntax-ns#">
   <cc:Work>
    <dc:type rdf:resource="http://purl.org/dc/dcmitype/StillImage"/>
    <dc:date>2021-11-24T05:09:23.334058</dc:date>
    <dc:format>image/svg+xml</dc:format>
    <dc:creator>
     <cc:Agent>
      <dc:title>Matplotlib v3.3.4, https://matplotlib.org/</dc:title>
     </cc:Agent>
    </dc:creator>
   </cc:Work>
  </rdf:RDF>
 </metadata>
 <defs>
  <style type="text/css">*{stroke-linecap:butt;stroke-linejoin:round;}</style>
 </defs>
 <g id="figure_1">
  <g id="patch_1">
   <path d="M 0 290.116523 
L 858.7875 290.116523 
L 858.7875 0 
L 0 0 
z
" style="fill:#ffffff;"/>
  </g>
  <g id="axes_1">
   <g id="patch_2">
    <path d="M 63.096563 234.865195 
L 397.896563 234.865195 
L 397.896563 13.105195 
L 63.096563 13.105195 
z
" style="fill:#ffffff;"/>
   </g>
   <g id="matplotlib.axis_1">
    <g id="xtick_1">
     <g id="line2d_1">
      <path clip-path="url(#pc5309ef35e)" d="M 63.096563 234.865195 
L 63.096563 13.105195 
" style="fill:none;stroke:#cccccc;stroke-linecap:round;stroke-width:1.5;"/>
     </g>
     <g id="text_1">
      <!-- 0.0 -->
      <g style="fill:#262626;" transform="translate(51.629063 259.175586)scale(0.165 -0.165)">
       <defs>
        <path d="M 4.15625 35.296875 
Q 4.15625 48 6.765625 55.734375 
Q 9.375 63.484375 14.515625 67.671875 
Q 19.671875 71.875 27.484375 71.875 
Q 33.25 71.875 37.59375 69.546875 
Q 41.9375 67.234375 44.765625 62.859375 
Q 47.609375 58.5 49.21875 52.21875 
Q 50.828125 45.953125 50.828125 35.296875 
Q 50.828125 22.703125 48.234375 14.96875 
Q 45.65625 7.234375 40.5 3 
Q 35.359375 -1.21875 27.484375 -1.21875 
Q 17.140625 -1.21875 11.234375 6.203125 
Q 4.15625 15.140625 4.15625 35.296875 
z
M 13.1875 35.296875 
Q 13.1875 17.671875 17.3125 11.828125 
Q 21.4375 6 27.484375 6 
Q 33.546875 6 37.671875 11.859375 
Q 41.796875 17.71875 41.796875 35.296875 
Q 41.796875 52.984375 37.671875 58.78125 
Q 33.546875 64.59375 27.390625 64.59375 
Q 21.34375 64.59375 17.71875 59.46875 
Q 13.1875 52.9375 13.1875 35.296875 
z
" id="ArialMT-48"/>
        <path d="M 9.078125 0 
L 9.078125 10.015625 
L 19.09375 10.015625 
L 19.09375 0 
z
" id="ArialMT-46"/>
       </defs>
       <use xlink:href="#ArialMT-48"/>
       <use x="55.615234" xlink:href="#ArialMT-46"/>
       <use x="83.398438" xlink:href="#ArialMT-48"/>
      </g>
     </g>
    </g>
    <g id="xtick_2">
     <g id="line2d_2">
      <path clip-path="url(#pc5309ef35e)" d="M 130.056563 234.865195 
L 130.056563 13.105195 
" style="fill:none;stroke:#cccccc;stroke-linecap:round;stroke-width:1.5;"/>
     </g>
     <g id="text_2">
      <!-- 0.2 -->
      <g style="fill:#262626;" transform="translate(118.589063 259.175586)scale(0.165 -0.165)">
       <defs>
        <path d="M 50.34375 8.453125 
L 50.34375 0 
L 3.03125 0 
Q 2.9375 3.171875 4.046875 6.109375 
Q 5.859375 10.9375 9.828125 15.625 
Q 13.8125 20.3125 21.34375 26.46875 
Q 33.015625 36.03125 37.109375 41.625 
Q 41.21875 47.21875 41.21875 52.203125 
Q 41.21875 57.421875 37.46875 61 
Q 33.734375 64.59375 27.734375 64.59375 
Q 21.390625 64.59375 17.578125 60.78125 
Q 13.765625 56.984375 13.71875 50.25 
L 4.6875 51.171875 
Q 5.609375 61.28125 11.65625 66.578125 
Q 17.71875 71.875 27.9375 71.875 
Q 38.234375 71.875 44.234375 66.15625 
Q 50.25 60.453125 50.25 52 
Q 50.25 47.703125 48.484375 43.546875 
Q 46.734375 39.40625 42.65625 34.8125 
Q 38.578125 30.21875 29.109375 22.21875 
Q 21.1875 15.578125 18.9375 13.203125 
Q 16.703125 10.84375 15.234375 8.453125 
z
" id="ArialMT-50"/>
       </defs>
       <use xlink:href="#ArialMT-48"/>
       <use x="55.615234" xlink:href="#ArialMT-46"/>
       <use x="83.398438" xlink:href="#ArialMT-50"/>
      </g>
     </g>
    </g>
    <g id="xtick_3">
     <g id="line2d_3">
      <path clip-path="url(#pc5309ef35e)" d="M 197.016563 234.865195 
L 197.016563 13.105195 
" style="fill:none;stroke:#cccccc;stroke-linecap:round;stroke-width:1.5;"/>
     </g>
     <g id="text_3">
      <!-- 0.4 -->
      <g style="fill:#262626;" transform="translate(185.549063 259.175586)scale(0.165 -0.165)">
       <defs>
        <path d="M 32.328125 0 
L 32.328125 17.140625 
L 1.265625 17.140625 
L 1.265625 25.203125 
L 33.9375 71.578125 
L 41.109375 71.578125 
L 41.109375 25.203125 
L 50.78125 25.203125 
L 50.78125 17.140625 
L 41.109375 17.140625 
L 41.109375 0 
z
M 32.328125 25.203125 
L 32.328125 57.46875 
L 9.90625 25.203125 
z
" id="ArialMT-52"/>
       </defs>
       <use xlink:href="#ArialMT-48"/>
       <use x="55.615234" xlink:href="#ArialMT-46"/>
       <use x="83.398438" xlink:href="#ArialMT-52"/>
      </g>
     </g>
    </g>
    <g id="xtick_4">
     <g id="line2d_4">
      <path clip-path="url(#pc5309ef35e)" d="M 263.976562 234.865195 
L 263.976562 13.105195 
" style="fill:none;stroke:#cccccc;stroke-linecap:round;stroke-width:1.5;"/>
     </g>
     <g id="text_4">
      <!-- 0.6 -->
      <g style="fill:#262626;" transform="translate(252.509062 259.175586)scale(0.165 -0.165)">
       <defs>
        <path d="M 49.75 54.046875 
L 41.015625 53.375 
Q 39.84375 58.546875 37.703125 60.890625 
Q 34.125 64.65625 28.90625 64.65625 
Q 24.703125 64.65625 21.53125 62.3125 
Q 17.390625 59.28125 14.984375 53.46875 
Q 12.59375 47.65625 12.5 36.921875 
Q 15.671875 41.75 20.265625 44.09375 
Q 24.859375 46.4375 29.890625 46.4375 
Q 38.671875 46.4375 44.84375 39.96875 
Q 51.03125 33.5 51.03125 23.25 
Q 51.03125 16.5 48.125 10.71875 
Q 45.21875 4.9375 40.140625 1.859375 
Q 35.0625 -1.21875 28.609375 -1.21875 
Q 17.625 -1.21875 10.6875 6.859375 
Q 3.765625 14.9375 3.765625 33.5 
Q 3.765625 54.25 11.421875 63.671875 
Q 18.109375 71.875 29.4375 71.875 
Q 37.890625 71.875 43.28125 67.140625 
Q 48.6875 62.40625 49.75 54.046875 
z
M 13.875 23.1875 
Q 13.875 18.65625 15.796875 14.5 
Q 17.71875 10.359375 21.1875 8.171875 
Q 24.65625 6 28.46875 6 
Q 34.03125 6 38.03125 10.484375 
Q 42.046875 14.984375 42.046875 22.703125 
Q 42.046875 30.125 38.078125 34.390625 
Q 34.125 38.671875 28.125 38.671875 
Q 22.171875 38.671875 18.015625 34.390625 
Q 13.875 30.125 13.875 23.1875 
z
" id="ArialMT-54"/>
       </defs>
       <use xlink:href="#ArialMT-48"/>
       <use x="55.615234" xlink:href="#ArialMT-46"/>
       <use x="83.398438" xlink:href="#ArialMT-54"/>
      </g>
     </g>
    </g>
    <g id="xtick_5">
     <g id="line2d_5">
      <path clip-path="url(#pc5309ef35e)" d="M 330.936563 234.865195 
L 330.936563 13.105195 
" style="fill:none;stroke:#cccccc;stroke-linecap:round;stroke-width:1.5;"/>
     </g>
     <g id="text_5">
      <!-- 0.8 -->
      <g style="fill:#262626;" transform="translate(319.469063 259.175586)scale(0.165 -0.165)">
       <defs>
        <path d="M 17.671875 38.8125 
Q 12.203125 40.828125 9.5625 44.53125 
Q 6.9375 48.25 6.9375 53.421875 
Q 6.9375 61.234375 12.546875 66.546875 
Q 18.171875 71.875 27.484375 71.875 
Q 36.859375 71.875 42.578125 66.421875 
Q 48.296875 60.984375 48.296875 53.171875 
Q 48.296875 48.1875 45.671875 44.5 
Q 43.0625 40.828125 37.75 38.8125 
Q 44.34375 36.671875 47.78125 31.875 
Q 51.21875 27.09375 51.21875 20.453125 
Q 51.21875 11.28125 44.71875 5.03125 
Q 38.234375 -1.21875 27.640625 -1.21875 
Q 17.046875 -1.21875 10.546875 5.046875 
Q 4.046875 11.328125 4.046875 20.703125 
Q 4.046875 27.6875 7.59375 32.390625 
Q 11.140625 37.109375 17.671875 38.8125 
z
M 15.921875 53.71875 
Q 15.921875 48.640625 19.1875 45.40625 
Q 22.46875 42.1875 27.6875 42.1875 
Q 32.765625 42.1875 36.015625 45.375 
Q 39.265625 48.578125 39.265625 53.21875 
Q 39.265625 58.0625 35.90625 61.359375 
Q 32.5625 64.65625 27.59375 64.65625 
Q 22.5625 64.65625 19.234375 61.421875 
Q 15.921875 58.203125 15.921875 53.71875 
z
M 13.09375 20.65625 
Q 13.09375 16.890625 14.875 13.375 
Q 16.65625 9.859375 20.171875 7.921875 
Q 23.6875 6 27.734375 6 
Q 34.03125 6 38.125 10.046875 
Q 42.234375 14.109375 42.234375 20.359375 
Q 42.234375 26.703125 38.015625 30.859375 
Q 33.796875 35.015625 27.4375 35.015625 
Q 21.234375 35.015625 17.15625 30.90625 
Q 13.09375 26.8125 13.09375 20.65625 
z
" id="ArialMT-56"/>
       </defs>
       <use xlink:href="#ArialMT-48"/>
       <use x="55.615234" xlink:href="#ArialMT-46"/>
       <use x="83.398438" xlink:href="#ArialMT-56"/>
      </g>
     </g>
    </g>
    <g id="xtick_6">
     <g id="line2d_6">
      <path clip-path="url(#pc5309ef35e)" d="M 397.896563 234.865195 
L 397.896563 13.105195 
" style="fill:none;stroke:#cccccc;stroke-linecap:round;stroke-width:1.5;"/>
     </g>
     <g id="text_6">
      <!-- 1.0 -->
      <g style="fill:#262626;" transform="translate(386.429062 259.175586)scale(0.165 -0.165)">
       <defs>
        <path d="M 37.25 0 
L 28.46875 0 
L 28.46875 56 
Q 25.296875 52.984375 20.140625 49.953125 
Q 14.984375 46.921875 10.890625 45.40625 
L 10.890625 53.90625 
Q 18.265625 57.375 23.78125 62.296875 
Q 29.296875 67.234375 31.59375 71.875 
L 37.25 71.875 
z
" id="ArialMT-49"/>
       </defs>
       <use xlink:href="#ArialMT-49"/>
       <use x="55.615234" xlink:href="#ArialMT-46"/>
       <use x="83.398438" xlink:href="#ArialMT-48"/>
      </g>
     </g>
    </g>
    <g id="text_7">
     <!-- recall -->
     <g style="fill:#262626;" transform="translate(208.990781 279.339023)scale(0.18 -0.18)">
      <defs>
       <path d="M 6.5 0 
L 6.5 51.859375 
L 14.40625 51.859375 
L 14.40625 44 
Q 17.4375 49.515625 20 51.265625 
Q 22.5625 53.03125 25.640625 53.03125 
Q 30.078125 53.03125 34.671875 50.203125 
L 31.640625 42.046875 
Q 28.421875 43.953125 25.203125 43.953125 
Q 22.3125 43.953125 20.015625 42.21875 
Q 17.71875 40.484375 16.75 37.40625 
Q 15.28125 32.71875 15.28125 27.15625 
L 15.28125 0 
z
" id="ArialMT-114"/>
       <path d="M 42.09375 16.703125 
L 51.171875 15.578125 
Q 49.03125 7.625 43.21875 3.21875 
Q 37.40625 -1.171875 28.375 -1.171875 
Q 17 -1.171875 10.328125 5.828125 
Q 3.65625 12.84375 3.65625 25.484375 
Q 3.65625 38.578125 10.390625 45.796875 
Q 17.140625 53.03125 27.875 53.03125 
Q 38.28125 53.03125 44.875 45.953125 
Q 51.46875 38.875 51.46875 26.03125 
Q 51.46875 25.25 51.421875 23.6875 
L 12.75 23.6875 
Q 13.234375 15.140625 17.578125 10.59375 
Q 21.921875 6.0625 28.421875 6.0625 
Q 33.25 6.0625 36.671875 8.59375 
Q 40.09375 11.140625 42.09375 16.703125 
z
M 13.234375 30.90625 
L 42.1875 30.90625 
Q 41.609375 37.453125 38.875 40.71875 
Q 34.671875 45.796875 27.984375 45.796875 
Q 21.921875 45.796875 17.796875 41.75 
Q 13.671875 37.703125 13.234375 30.90625 
z
" id="ArialMT-101"/>
       <path d="M 40.4375 19 
L 49.078125 17.875 
Q 47.65625 8.9375 41.8125 3.875 
Q 35.984375 -1.171875 27.484375 -1.171875 
Q 16.84375 -1.171875 10.375 5.78125 
Q 3.90625 12.75 3.90625 25.734375 
Q 3.90625 34.125 6.6875 40.421875 
Q 9.46875 46.734375 15.15625 49.875 
Q 20.84375 53.03125 27.546875 53.03125 
Q 35.984375 53.03125 41.359375 48.75 
Q 46.734375 44.484375 48.25 36.625 
L 39.703125 35.296875 
Q 38.484375 40.53125 35.375 43.15625 
Q 32.28125 45.796875 27.875 45.796875 
Q 21.234375 45.796875 17.078125 41.03125 
Q 12.9375 36.28125 12.9375 25.984375 
Q 12.9375 15.53125 16.9375 10.796875 
Q 20.953125 6.0625 27.390625 6.0625 
Q 32.5625 6.0625 36.03125 9.234375 
Q 39.5 12.40625 40.4375 19 
z
" id="ArialMT-99"/>
       <path d="M 40.4375 6.390625 
Q 35.546875 2.25 31.03125 0.53125 
Q 26.515625 -1.171875 21.34375 -1.171875 
Q 12.796875 -1.171875 8.203125 3 
Q 3.609375 7.171875 3.609375 13.671875 
Q 3.609375 17.484375 5.34375 20.625 
Q 7.078125 23.78125 9.890625 25.6875 
Q 12.703125 27.59375 16.21875 28.5625 
Q 18.796875 29.25 24.03125 29.890625 
Q 34.671875 31.15625 39.703125 32.90625 
Q 39.75 34.71875 39.75 35.203125 
Q 39.75 40.578125 37.25 42.78125 
Q 33.890625 45.75 27.25 45.75 
Q 21.046875 45.75 18.09375 43.578125 
Q 15.140625 41.40625 13.71875 35.890625 
L 5.125 37.0625 
Q 6.296875 42.578125 8.984375 45.96875 
Q 11.671875 49.359375 16.75 51.1875 
Q 21.828125 53.03125 28.515625 53.03125 
Q 35.15625 53.03125 39.296875 51.46875 
Q 43.453125 49.90625 45.40625 47.53125 
Q 47.359375 45.171875 48.140625 41.546875 
Q 48.578125 39.3125 48.578125 33.453125 
L 48.578125 21.734375 
Q 48.578125 9.46875 49.140625 6.21875 
Q 49.703125 2.984375 51.375 0 
L 42.1875 0 
Q 40.828125 2.734375 40.4375 6.390625 
z
M 39.703125 26.03125 
Q 34.90625 24.078125 25.34375 22.703125 
Q 19.921875 21.921875 17.671875 20.9375 
Q 15.4375 19.96875 14.203125 18.09375 
Q 12.984375 16.21875 12.984375 13.921875 
Q 12.984375 10.40625 15.640625 8.0625 
Q 18.3125 5.71875 23.4375 5.71875 
Q 28.515625 5.71875 32.46875 7.9375 
Q 36.421875 10.15625 38.28125 14.015625 
Q 39.703125 17 39.703125 22.796875 
z
" id="ArialMT-97"/>
       <path d="M 6.390625 0 
L 6.390625 71.578125 
L 15.1875 71.578125 
L 15.1875 0 
z
" id="ArialMT-108"/>
      </defs>
      <use xlink:href="#ArialMT-114"/>
      <use x="33.300781" xlink:href="#ArialMT-101"/>
      <use x="88.916016" xlink:href="#ArialMT-99"/>
      <use x="138.916016" xlink:href="#ArialMT-97"/>
      <use x="194.53125" xlink:href="#ArialMT-108"/>
      <use x="216.748047" xlink:href="#ArialMT-108"/>
     </g>
    </g>
   </g>
   <g id="matplotlib.axis_2">
    <g id="ytick_1">
     <g id="line2d_7">
      <path clip-path="url(#pc5309ef35e)" d="M 63.096563 234.865195 
L 397.896563 234.865195 
" style="fill:none;stroke:#cccccc;stroke-linecap:round;stroke-width:1.5;"/>
     </g>
     <g id="text_8">
      <!-- 0.0 -->
      <g style="fill:#262626;" transform="translate(27.661563 240.770391)scale(0.165 -0.165)">
       <use xlink:href="#ArialMT-48"/>
       <use x="55.615234" xlink:href="#ArialMT-46"/>
       <use x="83.398438" xlink:href="#ArialMT-48"/>
      </g>
     </g>
    </g>
    <g id="ytick_2">
     <g id="line2d_8">
      <path clip-path="url(#pc5309ef35e)" d="M 63.096563 190.513195 
L 397.896563 190.513195 
" style="fill:none;stroke:#cccccc;stroke-linecap:round;stroke-width:1.5;"/>
     </g>
     <g id="text_9">
      <!-- 0.2 -->
      <g style="fill:#262626;" transform="translate(27.661563 196.418391)scale(0.165 -0.165)">
       <use xlink:href="#ArialMT-48"/>
       <use x="55.615234" xlink:href="#ArialMT-46"/>
       <use x="83.398438" xlink:href="#ArialMT-50"/>
      </g>
     </g>
    </g>
    <g id="ytick_3">
     <g id="line2d_9">
      <path clip-path="url(#pc5309ef35e)" d="M 63.096563 146.161195 
L 397.896563 146.161195 
" style="fill:none;stroke:#cccccc;stroke-linecap:round;stroke-width:1.5;"/>
     </g>
     <g id="text_10">
      <!-- 0.4 -->
      <g style="fill:#262626;" transform="translate(27.661563 152.066391)scale(0.165 -0.165)">
       <use xlink:href="#ArialMT-48"/>
       <use x="55.615234" xlink:href="#ArialMT-46"/>
       <use x="83.398438" xlink:href="#ArialMT-52"/>
      </g>
     </g>
    </g>
    <g id="ytick_4">
     <g id="line2d_10">
      <path clip-path="url(#pc5309ef35e)" d="M 63.096563 101.809195 
L 397.896563 101.809195 
" style="fill:none;stroke:#cccccc;stroke-linecap:round;stroke-width:1.5;"/>
     </g>
     <g id="text_11">
      <!-- 0.6 -->
      <g style="fill:#262626;" transform="translate(27.661563 107.714391)scale(0.165 -0.165)">
       <use xlink:href="#ArialMT-48"/>
       <use x="55.615234" xlink:href="#ArialMT-46"/>
       <use x="83.398438" xlink:href="#ArialMT-54"/>
      </g>
     </g>
    </g>
    <g id="ytick_5">
     <g id="line2d_11">
      <path clip-path="url(#pc5309ef35e)" d="M 63.096563 57.457195 
L 397.896563 57.457195 
" style="fill:none;stroke:#cccccc;stroke-linecap:round;stroke-width:1.5;"/>
     </g>
     <g id="text_12">
      <!-- 0.8 -->
      <g style="fill:#262626;" transform="translate(27.661563 63.362391)scale(0.165 -0.165)">
       <use xlink:href="#ArialMT-48"/>
       <use x="55.615234" xlink:href="#ArialMT-46"/>
       <use x="83.398438" xlink:href="#ArialMT-56"/>
      </g>
     </g>
    </g>
    <g id="ytick_6">
     <g id="line2d_12">
      <path clip-path="url(#pc5309ef35e)" d="M 63.096563 13.105195 
L 397.896563 13.105195 
" style="fill:none;stroke:#cccccc;stroke-linecap:round;stroke-width:1.5;"/>
     </g>
     <g id="text_13">
      <!-- 1.0 -->
      <g style="fill:#262626;" transform="translate(27.661563 19.010391)scale(0.165 -0.165)">
       <use xlink:href="#ArialMT-49"/>
       <use x="55.615234" xlink:href="#ArialMT-46"/>
       <use x="83.398438" xlink:href="#ArialMT-48"/>
      </g>
     </g>
    </g>
    <g id="text_14">
     <!-- precision -->
     <g style="fill:#262626;" transform="translate(20.084062 160.000664)rotate(-90)scale(0.18 -0.18)">
      <defs>
       <path d="M 6.59375 -19.875 
L 6.59375 51.859375 
L 14.59375 51.859375 
L 14.59375 45.125 
Q 17.4375 49.078125 21 51.046875 
Q 24.5625 53.03125 29.640625 53.03125 
Q 36.28125 53.03125 41.359375 49.609375 
Q 46.4375 46.1875 49.015625 39.953125 
Q 51.609375 33.734375 51.609375 26.3125 
Q 51.609375 18.359375 48.75 11.984375 
Q 45.90625 5.609375 40.453125 2.21875 
Q 35.015625 -1.171875 29 -1.171875 
Q 24.609375 -1.171875 21.109375 0.6875 
Q 17.625 2.546875 15.375 5.375 
L 15.375 -19.875 
z
M 14.546875 25.640625 
Q 14.546875 15.625 18.59375 10.84375 
Q 22.65625 6.0625 28.421875 6.0625 
Q 34.28125 6.0625 38.453125 11.015625 
Q 42.625 15.96875 42.625 26.375 
Q 42.625 36.28125 38.546875 41.203125 
Q 34.46875 46.140625 28.8125 46.140625 
Q 23.1875 46.140625 18.859375 40.890625 
Q 14.546875 35.640625 14.546875 25.640625 
z
" id="ArialMT-112"/>
       <path d="M 6.640625 61.46875 
L 6.640625 71.578125 
L 15.4375 71.578125 
L 15.4375 61.46875 
z
M 6.640625 0 
L 6.640625 51.859375 
L 15.4375 51.859375 
L 15.4375 0 
z
" id="ArialMT-105"/>
       <path d="M 3.078125 15.484375 
L 11.765625 16.84375 
Q 12.5 11.625 15.84375 8.84375 
Q 19.1875 6.0625 25.203125 6.0625 
Q 31.25 6.0625 34.171875 8.515625 
Q 37.109375 10.984375 37.109375 14.3125 
Q 37.109375 17.28125 34.515625 19 
Q 32.71875 20.171875 25.53125 21.96875 
Q 15.875 24.421875 12.140625 26.203125 
Q 8.40625 27.984375 6.46875 31.125 
Q 4.546875 34.28125 4.546875 38.09375 
Q 4.546875 41.546875 6.125 44.5 
Q 7.71875 47.46875 10.453125 49.421875 
Q 12.5 50.921875 16.03125 51.96875 
Q 19.578125 53.03125 23.640625 53.03125 
Q 29.734375 53.03125 34.34375 51.265625 
Q 38.96875 49.515625 41.15625 46.5 
Q 43.359375 43.5 44.1875 38.484375 
L 35.59375 37.3125 
Q 35.015625 41.3125 32.203125 43.546875 
Q 29.390625 45.796875 24.265625 45.796875 
Q 18.21875 45.796875 15.625 43.796875 
Q 13.03125 41.796875 13.03125 39.109375 
Q 13.03125 37.40625 14.109375 36.03125 
Q 15.1875 34.625 17.484375 33.6875 
Q 18.796875 33.203125 25.25 31.453125 
Q 34.578125 28.953125 38.25 27.359375 
Q 41.9375 25.78125 44.03125 22.75 
Q 46.140625 19.734375 46.140625 15.234375 
Q 46.140625 10.84375 43.578125 6.953125 
Q 41.015625 3.078125 36.171875 0.953125 
Q 31.34375 -1.171875 25.25 -1.171875 
Q 15.140625 -1.171875 9.84375 3.03125 
Q 4.546875 7.234375 3.078125 15.484375 
z
" id="ArialMT-115"/>
       <path d="M 3.328125 25.921875 
Q 3.328125 40.328125 11.328125 47.265625 
Q 18.015625 53.03125 27.640625 53.03125 
Q 38.328125 53.03125 45.109375 46.015625 
Q 51.90625 39.015625 51.90625 26.65625 
Q 51.90625 16.65625 48.90625 10.90625 
Q 45.90625 5.171875 40.15625 2 
Q 34.421875 -1.171875 27.640625 -1.171875 
Q 16.75 -1.171875 10.03125 5.8125 
Q 3.328125 12.796875 3.328125 25.921875 
z
M 12.359375 25.921875 
Q 12.359375 15.96875 16.703125 11.015625 
Q 21.046875 6.0625 27.640625 6.0625 
Q 34.1875 6.0625 38.53125 11.03125 
Q 42.875 16.015625 42.875 26.21875 
Q 42.875 35.84375 38.5 40.796875 
Q 34.125 45.75 27.640625 45.75 
Q 21.046875 45.75 16.703125 40.8125 
Q 12.359375 35.890625 12.359375 25.921875 
z
" id="ArialMT-111"/>
       <path d="M 6.59375 0 
L 6.59375 51.859375 
L 14.5 51.859375 
L 14.5 44.484375 
Q 20.21875 53.03125 31 53.03125 
Q 35.6875 53.03125 39.625 51.34375 
Q 43.5625 49.65625 45.515625 46.921875 
Q 47.46875 44.1875 48.25 40.4375 
Q 48.734375 37.984375 48.734375 31.890625 
L 48.734375 0 
L 39.9375 0 
L 39.9375 31.546875 
Q 39.9375 36.921875 38.90625 39.578125 
Q 37.890625 42.234375 35.28125 43.8125 
Q 32.671875 45.40625 29.15625 45.40625 
Q 23.53125 45.40625 19.453125 41.84375 
Q 15.375 38.28125 15.375 28.328125 
L 15.375 0 
z
" id="ArialMT-110"/>
      </defs>
      <use xlink:href="#ArialMT-112"/>
      <use x="55.615234" xlink:href="#ArialMT-114"/>
      <use x="88.916016" xlink:href="#ArialMT-101"/>
      <use x="144.53125" xlink:href="#ArialMT-99"/>
      <use x="194.53125" xlink:href="#ArialMT-105"/>
      <use x="216.748047" xlink:href="#ArialMT-115"/>
      <use x="266.748047" xlink:href="#ArialMT-105"/>
      <use x="288.964844" xlink:href="#ArialMT-111"/>
      <use x="344.580078" xlink:href="#ArialMT-110"/>
     </g>
    </g>
   </g>
   <g id="PolyCollection_1">
    <path clip-path="url(#pc5309ef35e)" d="M 63.096563 234.865195 
L 63.096563 13.105195 
L 66.444563 13.105195 
L 69.792563 13.105195 
L 73.140563 13.105195 
L 76.488563 13.105195 
L 79.836563 16.185195 
L 83.184562 16.185195 
L 86.532563 16.185195 
L 89.880563 16.185195 
L 93.228563 17.211862 
L 96.576563 17.211862 
L 99.924563 17.211862 
L 103.272563 17.211862 
L 106.620563 17.211862 
L 109.968563 18.302695 
L 113.316563 18.302695 
L 116.664563 21.745195 
L 120.012563 21.745195 
L 123.360563 21.745195 
L 126.708562 22.026575 
L 130.056563 22.026575 
L 133.404562 22.799622 
L 136.752563 23.134542 
L 140.100563 23.134542 
L 143.448563 23.565573 
L 146.796562 23.565573 
L 150.144563 23.946795 
L 153.492563 25.167455 
L 156.840563 25.167455 
L 160.188562 29.008303 
L 163.536563 31.585195 
L 166.884563 32.181324 
L 170.232563 34.442927 
L 173.580563 36.91835 
L 176.928562 38.223642 
L 180.276563 38.746195 
L 183.624563 39.077087 
L 186.972563 39.459282 
L 190.320562 39.792645 
L 193.668563 41.89724 
L 197.016563 43.79261 
L 200.364563 43.79261 
L 203.712562 45.490938 
L 207.060563 45.557878 
L 210.408563 46.155965 
L 213.756563 47.145105 
L 217.104563 47.145105 
L 220.452563 48.171921 
L 223.800563 51.96058 
L 227.148562 54.741767 
L 230.496563 56.926034 
L 233.844563 62.010442 
L 237.192563 71.955389 
L 240.540563 94.909995 
L 243.888563 107.726701 
L 247.236563 112.800538 
L 250.584563 116.206456 
L 253.932563 124.945195 
L 257.280562 127.776947 
L 260.628562 143.857195 
L 263.976562 156.443831 
L 267.324563 170.185195 
L 270.672563 179.784657 
L 274.020562 187.197158 
L 277.368563 195.533021 
L 280.716563 205.990483 
L 284.064563 234.865195 
L 287.412563 234.865195 
L 290.760562 234.865195 
L 294.108563 234.865195 
L 297.456563 234.865195 
L 300.804562 234.865195 
L 304.152563 234.865195 
L 307.500563 234.865195 
L 310.848563 234.865195 
L 314.196563 234.865195 
L 317.544562 234.865195 
L 320.892562 234.865195 
L 324.240563 234.865195 
L 327.588563 234.865195 
L 330.936563 234.865195 
L 334.284563 234.865195 
L 337.632563 234.865195 
L 340.980563 234.865195 
L 344.328562 234.865195 
L 347.676562 234.865195 
L 351.024563 234.865195 
L 354.372563 234.865195 
L 357.720563 234.865195 
L 361.068563 234.865195 
L 364.416562 234.865195 
L 367.764563 234.865195 
L 371.112563 234.865195 
L 374.460563 234.865195 
L 377.808563 234.865195 
L 381.156563 234.865195 
L 384.504563 234.865195 
L 387.852563 234.865195 
L 391.200562 234.865195 
L 394.548563 234.865195 
L 397.896563 234.865195 
L 397.896563 234.865195 
L 397.896563 234.865195 
L 394.548563 234.865195 
L 391.200562 234.865195 
L 387.852563 234.865195 
L 384.504563 234.865195 
L 381.156563 234.865195 
L 377.808563 234.865195 
L 374.460563 234.865195 
L 371.112563 234.865195 
L 367.764563 234.865195 
L 364.416562 234.865195 
L 361.068563 234.865195 
L 357.720563 234.865195 
L 354.372563 234.865195 
L 351.024563 234.865195 
L 347.676562 234.865195 
L 344.328562 234.865195 
L 340.980563 234.865195 
L 337.632563 234.865195 
L 334.284563 234.865195 
L 330.936563 234.865195 
L 327.588563 234.865195 
L 324.240563 234.865195 
L 320.892562 234.865195 
L 317.544562 234.865195 
L 314.196563 234.865195 
L 310.848563 234.865195 
L 307.500563 234.865195 
L 304.152563 234.865195 
L 300.804562 234.865195 
L 297.456563 234.865195 
L 294.108563 234.865195 
L 290.760562 234.865195 
L 287.412563 234.865195 
L 284.064563 234.865195 
L 280.716563 234.865195 
L 277.368563 234.865195 
L 274.020562 234.865195 
L 270.672563 234.865195 
L 267.324563 234.865195 
L 263.976562 234.865195 
L 260.628562 234.865195 
L 257.280562 234.865195 
L 253.932563 234.865195 
L 250.584563 234.865195 
L 247.236563 234.865195 
L 243.888563 234.865195 
L 240.540563 234.865195 
L 237.192563 234.865195 
L 233.844563 234.865195 
L 230.496563 234.865195 
L 227.148562 234.865195 
L 223.800563 234.865195 
L 220.452563 234.865195 
L 217.104563 234.865195 
L 213.756563 234.865195 
L 210.408563 234.865195 
L 207.060563 234.865195 
L 203.712562 234.865195 
L 200.364563 234.865195 
L 197.016563 234.865195 
L 193.668563 234.865195 
L 190.320562 234.865195 
L 186.972563 234.865195 
L 183.624563 234.865195 
L 180.276563 234.865195 
L 176.928562 234.865195 
L 173.580563 234.865195 
L 170.232563 234.865195 
L 166.884563 234.865195 
L 163.536563 234.865195 
L 160.188562 234.865195 
L 156.840563 234.865195 
L 153.492563 234.865195 
L 150.144563 234.865195 
L 146.796562 234.865195 
L 143.448563 234.865195 
L 140.100563 234.865195 
L 136.752563 234.865195 
L 133.404562 234.865195 
L 130.056563 234.865195 
L 126.708562 234.865195 
L 123.360563 234.865195 
L 120.012563 234.865195 
L 116.664563 234.865195 
L 113.316563 234.865195 
L 109.968563 234.865195 
L 106.620563 234.865195 
L 103.272563 234.865195 
L 99.924563 234.865195 
L 96.576563 234.865195 
L 93.228563 234.865195 
L 89.880563 234.865195 
L 86.532563 234.865195 
L 83.184562 234.865195 
L 79.836563 234.865195 
L 76.488563 234.865195 
L 73.140563 234.865195 
L 69.792563 234.865195 
L 66.444563 234.865195 
L 63.096563 234.865195 
z
" style="fill:url(#h118ddc0839);fill-opacity:0.3;"/>
   </g>
   <g id="PolyCollection_2">
    <defs>
     <path d="M 63.096563 -277.011328 
L 63.096563 -277.011328 
L 66.444563 -277.011328 
L 69.792563 -277.011328 
L 73.140563 -277.011328 
L 76.488563 -277.011328 
L 79.836563 -277.011328 
L 83.184562 -277.011328 
L 86.532563 -277.011328 
L 89.880563 -277.011328 
L 93.228563 -277.011328 
L 96.576563 -277.011328 
L 99.924563 -277.011328 
L 103.272563 -277.011328 
L 106.620563 -277.011328 
L 109.968563 -277.011328 
L 113.316563 -277.011328 
L 116.664563 -277.011328 
L 120.012563 -277.011328 
L 123.360563 -277.011328 
L 126.708562 -277.011328 
L 130.056563 -277.011328 
L 133.404562 -277.011328 
L 136.752563 -277.011328 
L 140.100563 -277.011328 
L 143.448563 -277.011328 
L 146.796562 -277.011328 
L 150.144563 -277.011328 
L 153.492563 -277.011328 
L 156.840563 -277.011328 
L 160.188562 -277.011328 
L 163.536563 -277.011328 
L 166.884563 -277.011328 
L 170.232563 -277.011328 
L 173.580563 -277.011328 
L 176.928562 -277.011328 
L 180.276563 -277.011328 
L 183.624563 -277.011328 
L 186.972563 -277.011328 
L 190.320562 -277.011328 
L 193.668563 -277.011328 
L 197.016563 -276.439782 
L 200.364563 -276.439782 
L 203.712562 -276.439782 
L 207.060563 -276.439782 
L 210.408563 -276.439782 
L 213.756563 -276.439782 
L 217.104563 -276.439782 
L 220.452563 -276.439782 
L 223.800563 -276.439782 
L 227.148562 -275.53947 
L 230.496563 -275.53947 
L 233.844563 -275.53947 
L 237.192563 -275.53947 
L 240.540563 -275.53947 
L 243.888563 -275.53947 
L 247.236563 -275.53947 
L 250.584563 -275.115944 
L 253.932563 -275.115944 
L 257.280562 -274.691663 
L 260.628562 -273.830345 
L 263.976562 -273.420073 
L 267.324563 -272.628719 
L 270.672563 -272.228269 
L 274.020562 -270.626683 
L 277.368563 -268.32297 
L 280.716563 -264.225166 
L 284.064563 -245.433852 
L 287.412563 -235.26434 
L 290.760562 -222.334964 
L 294.108563 -220.530899 
L 297.456563 -218.242033 
L 300.804562 -217.068587 
L 304.152563 -216.556655 
L 307.500563 -214.192867 
L 310.848563 -212.221589 
L 314.196563 -209.842403 
L 317.544562 -200.166152 
L 320.892562 -198.838608 
L 324.240563 -194.573492 
L 327.588563 -182.457832 
L 330.936563 -176.709318 
L 334.284563 -167.336546 
L 337.632563 -158.239235 
L 340.980563 -144.409809 
L 344.328562 -137.906215 
L 347.676562 -131.362926 
L 351.024563 -126.0956 
L 354.372563 -121.101048 
L 357.720563 -112.80798 
L 361.068563 -108.051328 
L 364.416562 -97.678552 
L 367.764563 -94.741355 
L 371.112563 -55.251328 
L 374.460563 -55.251328 
L 377.808563 -55.251328 
L 381.156563 -55.251328 
L 384.504563 -55.251328 
L 387.852563 -55.251328 
L 391.200562 -55.251328 
L 394.548563 -55.251328 
L 397.896563 -55.251328 
L 397.896563 -55.251328 
L 397.896563 -55.251328 
L 394.548563 -55.251328 
L 391.200562 -55.251328 
L 387.852563 -55.251328 
L 384.504563 -55.251328 
L 381.156563 -55.251328 
L 377.808563 -55.251328 
L 374.460563 -55.251328 
L 371.112563 -55.251328 
L 367.764563 -55.251328 
L 364.416562 -55.251328 
L 361.068563 -55.251328 
L 357.720563 -55.251328 
L 354.372563 -55.251328 
L 351.024563 -55.251328 
L 347.676562 -55.251328 
L 344.328562 -55.251328 
L 340.980563 -55.251328 
L 337.632563 -55.251328 
L 334.284563 -55.251328 
L 330.936563 -55.251328 
L 327.588563 -55.251328 
L 324.240563 -55.251328 
L 320.892562 -55.251328 
L 317.544562 -55.251328 
L 314.196563 -55.251328 
L 310.848563 -55.251328 
L 307.500563 -55.251328 
L 304.152563 -55.251328 
L 300.804562 -55.251328 
L 297.456563 -55.251328 
L 294.108563 -55.251328 
L 290.760562 -55.251328 
L 287.412563 -55.251328 
L 284.064563 -55.251328 
L 280.716563 -84.12604 
L 277.368563 -94.583502 
L 274.020562 -102.919366 
L 270.672563 -110.331867 
L 267.324563 -119.931328 
L 263.976562 -133.672693 
L 260.628562 -146.259328 
L 257.280562 -162.339577 
L 253.932563 -165.171328 
L 250.584563 -173.910068 
L 247.236563 -177.315986 
L 243.888563 -182.389822 
L 240.540563 -195.206528 
L 237.192563 -218.161135 
L 233.844563 -228.106081 
L 230.496563 -233.19049 
L 227.148562 -235.374757 
L 223.800563 -238.155944 
L 220.452563 -241.944602 
L 217.104563 -242.971418 
L 213.756563 -242.971418 
L 210.408563 -243.960559 
L 207.060563 -244.558645 
L 203.712562 -244.625586 
L 200.364563 -246.323913 
L 197.016563 -246.323913 
L 193.668563 -248.219284 
L 190.320562 -250.323878 
L 186.972563 -250.657241 
L 183.624563 -251.039436 
L 180.276563 -251.370328 
L 176.928562 -251.892882 
L 173.580563 -253.198174 
L 170.232563 -255.673596 
L 166.884563 -257.935199 
L 163.536563 -258.531328 
L 160.188562 -261.108221 
L 156.840563 -264.949069 
L 153.492563 -264.949069 
L 150.144563 -266.169728 
L 146.796562 -266.550951 
L 143.448563 -266.550951 
L 140.100563 -266.981981 
L 136.752563 -266.981981 
L 133.404562 -267.316902 
L 130.056563 -268.089949 
L 126.708562 -268.089949 
L 123.360563 -268.371328 
L 120.012563 -268.371328 
L 116.664563 -268.371328 
L 113.316563 -271.813828 
L 109.968563 -271.813828 
L 106.620563 -272.904661 
L 103.272563 -272.904661 
L 99.924563 -272.904661 
L 96.576563 -272.904661 
L 93.228563 -272.904661 
L 89.880563 -273.931328 
L 86.532563 -273.931328 
L 83.184562 -273.931328 
L 79.836563 -273.931328 
L 76.488563 -277.011328 
L 73.140563 -277.011328 
L 69.792563 -277.011328 
L 66.444563 -277.011328 
L 63.096563 -277.011328 
z
" id="m295713be68"/>
    </defs>
    <g clip-path="url(#pc5309ef35e)">
     <use style="fill:#00af90;fill-opacity:0.3;" x="0" xlink:href="#m295713be68" y="290.116523"/>
    </g>
   </g>
   <g id="PolyCollection_3">
    <defs>
     <path d="M 63.096563 -277.011328 
L 63.096563 -277.011328 
L 66.444563 -277.011328 
L 69.792563 -277.011328 
L 73.140563 -277.011328 
L 76.488563 -277.011328 
L 79.836563 -277.011328 
L 83.184562 -277.011328 
L 86.532563 -277.011328 
L 89.880563 -277.011328 
L 93.228563 -277.011328 
L 96.576563 -277.011328 
L 99.924563 -277.011328 
L 103.272563 -277.011328 
L 106.620563 -277.011328 
L 109.968563 -277.011328 
L 113.316563 -277.011328 
L 116.664563 -277.011328 
L 120.012563 -277.011328 
L 123.360563 -277.011328 
L 126.708562 -277.011328 
L 130.056563 -277.011328 
L 133.404562 -277.011328 
L 136.752563 -277.011328 
L 140.100563 -277.011328 
L 143.448563 -277.011328 
L 146.796562 -277.011328 
L 150.144563 -277.011328 
L 153.492563 -277.011328 
L 156.840563 -277.011328 
L 160.188562 -277.011328 
L 163.536563 -277.011328 
L 166.884563 -277.011328 
L 170.232563 -277.011328 
L 173.580563 -277.011328 
L 176.928562 -277.011328 
L 180.276563 -277.011328 
L 183.624563 -277.011328 
L 186.972563 -277.011328 
L 190.320562 -277.011328 
L 193.668563 -277.011328 
L 197.016563 -277.011328 
L 200.364563 -277.011328 
L 203.712562 -277.011328 
L 207.060563 -277.011328 
L 210.408563 -277.011328 
L 213.756563 -277.011328 
L 217.104563 -277.011328 
L 220.452563 -277.011328 
L 223.800563 -277.011328 
L 227.148562 -277.011328 
L 230.496563 -277.011328 
L 233.844563 -277.011328 
L 237.192563 -277.011328 
L 240.540563 -277.011328 
L 243.888563 -277.011328 
L 247.236563 -277.011328 
L 250.584563 -277.011328 
L 253.932563 -277.011328 
L 257.280562 -277.011328 
L 260.628562 -277.011328 
L 263.976562 -277.011328 
L 267.324563 -276.566027 
L 270.672563 -276.134806 
L 274.020562 -275.706858 
L 277.368563 -274.031827 
L 280.716563 -272.434668 
L 284.064563 -270.131912 
L 287.412563 -265.319237 
L 290.760562 -251.534047 
L 294.108563 -240.941931 
L 297.456563 -233.164045 
L 300.804562 -228.00025 
L 304.152563 -226.745728 
L 307.500563 -224.595328 
L 310.848563 -223.541277 
L 314.196563 -223.521479 
L 317.544562 -221.707544 
L 320.892562 -220.437177 
L 324.240563 -219.816486 
L 327.588563 -218.680482 
L 330.936563 -215.286884 
L 334.284563 -209.65321 
L 337.632563 -207.394363 
L 340.980563 -202.722834 
L 344.328562 -193.467395 
L 347.676562 -186.843057 
L 351.024563 -182.102454 
L 354.372563 -175.228294 
L 357.720563 -167.160193 
L 361.068563 -158.681465 
L 364.416562 -148.143843 
L 367.764563 -139.200867 
L 371.112563 -132.262907 
L 374.460563 -123.73199 
L 377.808563 -113.025241 
L 381.156563 -106.400929 
L 384.504563 -97.899609 
L 387.852563 -55.251328 
L 391.200562 -55.251328 
L 394.548563 -55.251328 
L 397.896563 -55.251328 
L 397.896563 -55.251328 
L 397.896563 -55.251328 
L 394.548563 -55.251328 
L 391.200562 -55.251328 
L 387.852563 -55.251328 
L 384.504563 -55.251328 
L 381.156563 -55.251328 
L 377.808563 -55.251328 
L 374.460563 -55.251328 
L 371.112563 -55.251328 
L 367.764563 -94.741355 
L 364.416562 -97.678552 
L 361.068563 -108.051328 
L 357.720563 -112.80798 
L 354.372563 -121.101048 
L 351.024563 -126.0956 
L 347.676562 -131.362926 
L 344.328562 -137.906215 
L 340.980563 -144.409809 
L 337.632563 -158.239235 
L 334.284563 -167.336546 
L 330.936563 -176.709318 
L 327.588563 -182.457832 
L 324.240563 -194.573492 
L 320.892562 -198.838608 
L 317.544562 -200.166152 
L 314.196563 -209.842403 
L 310.848563 -212.221589 
L 307.500563 -214.192867 
L 304.152563 -216.556655 
L 300.804562 -217.068587 
L 297.456563 -218.242033 
L 294.108563 -220.530899 
L 290.760562 -222.334964 
L 287.412563 -235.26434 
L 284.064563 -245.433852 
L 280.716563 -264.225166 
L 277.368563 -268.32297 
L 274.020562 -270.626683 
L 270.672563 -272.228269 
L 267.324563 -272.628719 
L 263.976562 -273.420073 
L 260.628562 -273.830345 
L 257.280562 -274.691663 
L 253.932563 -275.115944 
L 250.584563 -275.115944 
L 247.236563 -275.53947 
L 243.888563 -275.53947 
L 240.540563 -275.53947 
L 237.192563 -275.53947 
L 233.844563 -275.53947 
L 230.496563 -275.53947 
L 227.148562 -275.53947 
L 223.800563 -276.439782 
L 220.452563 -276.439782 
L 217.104563 -276.439782 
L 213.756563 -276.439782 
L 210.408563 -276.439782 
L 207.060563 -276.439782 
L 203.712562 -276.439782 
L 200.364563 -276.439782 
L 197.016563 -276.439782 
L 193.668563 -277.011328 
L 190.320562 -277.011328 
L 186.972563 -277.011328 
L 183.624563 -277.011328 
L 180.276563 -277.011328 
L 176.928562 -277.011328 
L 173.580563 -277.011328 
L 170.232563 -277.011328 
L 166.884563 -277.011328 
L 163.536563 -277.011328 
L 160.188562 -277.011328 
L 156.840563 -277.011328 
L 153.492563 -277.011328 
L 150.144563 -277.011328 
L 146.796562 -277.011328 
L 143.448563 -277.011328 
L 140.100563 -277.011328 
L 136.752563 -277.011328 
L 133.404562 -277.011328 
L 130.056563 -277.011328 
L 126.708562 -277.011328 
L 123.360563 -277.011328 
L 120.012563 -277.011328 
L 116.664563 -277.011328 
L 113.316563 -277.011328 
L 109.968563 -277.011328 
L 106.620563 -277.011328 
L 103.272563 -277.011328 
L 99.924563 -277.011328 
L 96.576563 -277.011328 
L 93.228563 -277.011328 
L 89.880563 -277.011328 
L 86.532563 -277.011328 
L 83.184562 -277.011328 
L 79.836563 -277.011328 
L 76.488563 -277.011328 
L 73.140563 -277.011328 
L 69.792563 -277.011328 
L 66.444563 -277.011328 
L 63.096563 -277.011328 
z
" id="meddebef556"/>
    </defs>
    <g clip-path="url(#pc5309ef35e)">
     <use style="fill:#2b7ac2;fill-opacity:0.3;" x="0" xlink:href="#meddebef556" y="290.116523"/>
    </g>
   </g>
   <g id="PolyCollection_4">
    <defs>
     <path d="M 63.096563 -277.011328 
L 63.096563 -277.011328 
L 66.444563 -277.011328 
L 69.792563 -277.011328 
L 73.140563 -277.011328 
L 76.488563 -277.011328 
L 79.836563 -277.011328 
L 83.184562 -277.011328 
L 86.532563 -277.011328 
L 89.880563 -277.011328 
L 93.228563 -277.011328 
L 96.576563 -277.011328 
L 99.924563 -277.011328 
L 103.272563 -277.011328 
L 106.620563 -277.011328 
L 109.968563 -277.011328 
L 113.316563 -277.011328 
L 116.664563 -277.011328 
L 120.012563 -277.011328 
L 123.360563 -277.011328 
L 126.708562 -277.011328 
L 130.056563 -277.011328 
L 133.404562 -277.011328 
L 136.752563 -277.011328 
L 140.100563 -277.011328 
L 143.448563 -277.011328 
L 146.796562 -277.011328 
L 150.144563 -277.011328 
L 153.492563 -277.011328 
L 156.840563 -277.011328 
L 160.188562 -277.011328 
L 163.536563 -277.011328 
L 166.884563 -277.011328 
L 170.232563 -277.011328 
L 173.580563 -277.011328 
L 176.928562 -277.011328 
L 180.276563 -277.011328 
L 183.624563 -277.011328 
L 186.972563 -277.011328 
L 190.320562 -277.011328 
L 193.668563 -277.011328 
L 197.016563 -277.011328 
L 200.364563 -277.011328 
L 203.712562 -277.011328 
L 207.060563 -277.011328 
L 210.408563 -277.011328 
L 213.756563 -277.011328 
L 217.104563 -277.011328 
L 220.452563 -277.011328 
L 223.800563 -277.011328 
L 227.148562 -277.011328 
L 230.496563 -277.011328 
L 233.844563 -277.011328 
L 237.192563 -277.011328 
L 240.540563 -277.011328 
L 243.888563 -277.011328 
L 247.236563 -277.011328 
L 250.584563 -277.011328 
L 253.932563 -277.011328 
L 257.280562 -277.011328 
L 260.628562 -277.011328 
L 263.976562 -277.011328 
L 267.324563 -277.011328 
L 270.672563 -277.011328 
L 274.020562 -277.011328 
L 277.368563 -277.011328 
L 280.716563 -277.011328 
L 284.064563 -277.011328 
L 287.412563 -277.011328 
L 290.760562 -277.011328 
L 294.108563 -277.011328 
L 297.456563 -277.011328 
L 300.804562 -277.011328 
L 304.152563 -277.011328 
L 307.500563 -277.011328 
L 310.848563 -277.011328 
L 314.196563 -277.011328 
L 317.544562 -277.011328 
L 320.892562 -277.011328 
L 324.240563 -277.011328 
L 327.588563 -277.011328 
L 330.936563 -277.011328 
L 334.284563 -277.011328 
L 337.632563 -277.011328 
L 340.980563 -277.011328 
L 344.328562 -277.011328 
L 347.676562 -277.011328 
L 351.024563 -277.011328 
L 354.372563 -277.011328 
L 357.720563 -277.011328 
L 361.068563 -277.011328 
L 364.416562 -277.011328 
L 367.764563 -277.011328 
L 371.112563 -277.011328 
L 374.460563 -277.011328 
L 377.808563 -277.011328 
L 381.156563 -277.011328 
L 384.504563 -277.011328 
L 387.852563 -55.251328 
L 391.200562 -55.251328 
L 394.548563 -55.251328 
L 397.896563 -55.251328 
L 397.896563 -55.251328 
L 397.896563 -55.251328 
L 394.548563 -55.251328 
L 391.200562 -55.251328 
L 387.852563 -55.251328 
L 384.504563 -97.899609 
L 381.156563 -106.400929 
L 377.808563 -113.025241 
L 374.460563 -123.73199 
L 371.112563 -132.262907 
L 367.764563 -139.200867 
L 364.416562 -148.143843 
L 361.068563 -158.681465 
L 357.720563 -167.160193 
L 354.372563 -175.228294 
L 351.024563 -182.102454 
L 347.676562 -186.843057 
L 344.328562 -193.467395 
L 340.980563 -202.722834 
L 337.632563 -207.394363 
L 334.284563 -209.65321 
L 330.936563 -215.286884 
L 327.588563 -218.680482 
L 324.240563 -219.816486 
L 320.892562 -220.437177 
L 317.544562 -221.707544 
L 314.196563 -223.521479 
L 310.848563 -223.541277 
L 307.500563 -224.595328 
L 304.152563 -226.745728 
L 300.804562 -228.00025 
L 297.456563 -233.164045 
L 294.108563 -240.941931 
L 290.760562 -251.534047 
L 287.412563 -265.319237 
L 284.064563 -270.131912 
L 280.716563 -272.434668 
L 277.368563 -274.031827 
L 274.020562 -275.706858 
L 270.672563 -276.134806 
L 267.324563 -276.566027 
L 263.976562 -277.011328 
L 260.628562 -277.011328 
L 257.280562 -277.011328 
L 253.932563 -277.011328 
L 250.584563 -277.011328 
L 247.236563 -277.011328 
L 243.888563 -277.011328 
L 240.540563 -277.011328 
L 237.192563 -277.011328 
L 233.844563 -277.011328 
L 230.496563 -277.011328 
L 227.148562 -277.011328 
L 223.800563 -277.011328 
L 220.452563 -277.011328 
L 217.104563 -277.011328 
L 213.756563 -277.011328 
L 210.408563 -277.011328 
L 207.060563 -277.011328 
L 203.712562 -277.011328 
L 200.364563 -277.011328 
L 197.016563 -277.011328 
L 193.668563 -277.011328 
L 190.320562 -277.011328 
L 186.972563 -277.011328 
L 183.624563 -277.011328 
L 180.276563 -277.011328 
L 176.928562 -277.011328 
L 173.580563 -277.011328 
L 170.232563 -277.011328 
L 166.884563 -277.011328 
L 163.536563 -277.011328 
L 160.188562 -277.011328 
L 156.840563 -277.011328 
L 153.492563 -277.011328 
L 150.144563 -277.011328 
L 146.796562 -277.011328 
L 143.448563 -277.011328 
L 140.100563 -277.011328 
L 136.752563 -277.011328 
L 133.404562 -277.011328 
L 130.056563 -277.011328 
L 126.708562 -277.011328 
L 123.360563 -277.011328 
L 120.012563 -277.011328 
L 116.664563 -277.011328 
L 113.316563 -277.011328 
L 109.968563 -277.011328 
L 106.620563 -277.011328 
L 103.272563 -277.011328 
L 99.924563 -277.011328 
L 96.576563 -277.011328 
L 93.228563 -277.011328 
L 89.880563 -277.011328 
L 86.532563 -277.011328 
L 83.184562 -277.011328 
L 79.836563 -277.011328 
L 76.488563 -277.011328 
L 73.140563 -277.011328 
L 69.792563 -277.011328 
L 66.444563 -277.011328 
L 63.096563 -277.011328 
z
" id="m149d5e38e4"/>
    </defs>
    <g clip-path="url(#pc5309ef35e)">
     <use style="fill:#ff9929;fill-opacity:0.3;" x="0" xlink:href="#m149d5e38e4" y="290.116523"/>
    </g>
   </g>
   <g id="line2d_13">
    <path clip-path="url(#pc5309ef35e)" d="M 63.096563 13.105195 
L 66.444563 13.105195 
L 69.792563 13.105195 
L 73.140563 13.105195 
L 76.488563 13.105195 
L 79.836563 16.185195 
L 83.184562 16.185195 
L 86.532563 16.185195 
L 89.880563 16.185195 
L 93.228563 17.211862 
L 96.576563 17.211862 
L 99.924563 17.211862 
L 103.272563 17.211862 
L 106.620563 17.211862 
L 109.968563 18.302695 
L 113.316563 18.302695 
L 116.664563 21.745195 
L 120.012563 21.745195 
L 123.360563 21.745195 
L 126.708562 22.026575 
L 130.056563 22.026575 
L 133.404562 22.799622 
L 136.752563 23.134542 
L 140.100563 23.134542 
L 143.448563 23.565573 
L 146.796562 23.565573 
L 150.144563 23.946795 
L 153.492563 25.167455 
L 156.840563 25.167455 
L 160.188562 29.008303 
L 163.536563 31.585195 
L 166.884563 32.181324 
L 170.232563 34.442927 
L 173.580563 36.91835 
L 176.928562 38.223642 
L 180.276563 38.746195 
L 183.624563 39.077087 
L 186.972563 39.459282 
L 190.320562 39.792645 
L 193.668563 41.89724 
L 197.016563 43.79261 
L 200.364563 43.79261 
L 203.712562 45.490938 
L 207.060563 45.557878 
L 210.408563 46.155965 
L 213.756563 47.145105 
L 217.104563 47.145105 
L 220.452563 48.171921 
L 223.800563 51.96058 
L 227.148562 54.741767 
L 230.496563 56.926034 
L 233.844563 62.010442 
L 237.192563 71.955389 
L 240.540563 94.909995 
L 243.888563 107.726701 
L 247.236563 112.800538 
L 250.584563 116.206456 
L 253.932563 124.945195 
L 257.280562 127.776947 
L 260.628562 143.857195 
L 263.976562 156.443831 
L 267.324563 170.185195 
L 270.672563 179.784657 
L 274.020562 187.197158 
L 277.368563 195.533021 
L 280.716563 205.990483 
L 284.064563 234.865195 
L 287.412563 234.865195 
L 290.760562 234.865195 
L 294.108563 234.865195 
L 297.456563 234.865195 
L 300.804562 234.865195 
L 304.152563 234.865195 
L 307.500563 234.865195 
L 310.848563 234.865195 
L 314.196563 234.865195 
L 317.544562 234.865195 
L 320.892562 234.865195 
L 324.240563 234.865195 
L 327.588563 234.865195 
L 330.936563 234.865195 
L 334.284563 234.865195 
L 337.632563 234.865195 
L 340.980563 234.865195 
L 344.328562 234.865195 
L 347.676562 234.865195 
L 351.024563 234.865195 
L 354.372563 234.865195 
L 357.720563 234.865195 
L 361.068563 234.865195 
L 364.416562 234.865195 
L 367.764563 234.865195 
L 371.112563 234.865195 
L 374.460563 234.865195 
L 377.808563 234.865195 
L 381.156563 234.865195 
L 384.504563 234.865195 
L 387.852563 234.865195 
L 391.200562 234.865195 
L 394.548563 234.865195 
L 397.896563 234.865195 
" style="fill:none;stroke:#00af90;stroke-dasharray:8.325,3.6;stroke-dashoffset:0;stroke-width:2.25;"/>
   </g>
   <g id="line2d_14">
    <path clip-path="url(#pc5309ef35e)" d="M 63.096563 13.105195 
L 66.444563 13.105195 
L 69.792563 13.105195 
L 73.140563 13.105195 
L 76.488563 13.105195 
L 79.836563 13.105195 
L 83.184562 13.105195 
L 86.532563 13.105195 
L 89.880563 13.105195 
L 93.228563 13.105195 
L 96.576563 13.105195 
L 99.924563 13.105195 
L 103.272563 13.105195 
L 106.620563 13.105195 
L 109.968563 13.105195 
L 113.316563 13.105195 
L 116.664563 13.105195 
L 120.012563 13.105195 
L 123.360563 13.105195 
L 126.708562 13.105195 
L 130.056563 13.105195 
L 133.404562 13.105195 
L 136.752563 13.105195 
L 140.100563 13.105195 
L 143.448563 13.105195 
L 146.796562 13.105195 
L 150.144563 13.105195 
L 153.492563 13.105195 
L 156.840563 13.105195 
L 160.188562 13.105195 
L 163.536563 13.105195 
L 166.884563 13.105195 
L 170.232563 13.105195 
L 173.580563 13.105195 
L 176.928562 13.105195 
L 180.276563 13.105195 
L 183.624563 13.105195 
L 186.972563 13.105195 
L 190.320562 13.105195 
L 193.668563 13.105195 
L 197.016563 13.676742 
L 200.364563 13.676742 
L 203.712562 13.676742 
L 207.060563 13.676742 
L 210.408563 13.676742 
L 213.756563 13.676742 
L 217.104563 13.676742 
L 220.452563 13.676742 
L 223.800563 13.676742 
L 227.148562 14.577054 
L 230.496563 14.577054 
L 233.844563 14.577054 
L 237.192563 14.577054 
L 240.540563 14.577054 
L 243.888563 14.577054 
L 247.236563 14.577054 
L 250.584563 15.00058 
L 253.932563 15.00058 
L 257.280562 15.424861 
L 260.628562 16.286179 
L 263.976562 16.69645 
L 267.324563 17.487804 
L 270.672563 17.888254 
L 274.020562 19.48984 
L 277.368563 21.793554 
L 280.716563 25.891357 
L 284.064563 44.682671 
L 287.412563 54.852183 
L 290.760562 67.781559 
L 294.108563 69.585624 
L 297.456563 71.87449 
L 300.804562 73.047936 
L 304.152563 73.559869 
L 307.500563 75.923657 
L 310.848563 77.894934 
L 314.196563 80.27412 
L 317.544562 89.950372 
L 320.892562 91.277915 
L 324.240563 95.543031 
L 327.588563 107.658691 
L 330.936563 113.407206 
L 334.284563 122.779978 
L 337.632563 131.877288 
L 340.980563 145.706714 
L 344.328562 152.210309 
L 347.676562 158.753597 
L 351.024563 164.020923 
L 354.372563 169.015476 
L 357.720563 177.308543 
L 361.068563 182.065195 
L 364.416562 192.437971 
L 367.764563 195.375169 
L 371.112563 234.865195 
L 374.460563 234.865195 
L 377.808563 234.865195 
L 381.156563 234.865195 
L 384.504563 234.865195 
L 387.852563 234.865195 
L 391.200562 234.865195 
L 394.548563 234.865195 
L 397.896563 234.865195 
" style="fill:none;stroke:#00af90;stroke-linecap:round;stroke-width:2.25;"/>
   </g>
   <g id="line2d_15">
    <path clip-path="url(#pc5309ef35e)" d="M 63.096563 13.105195 
L 66.444563 13.105195 
L 69.792563 13.105195 
L 73.140563 13.105195 
L 76.488563 13.105195 
L 79.836563 13.105195 
L 83.184562 13.105195 
L 86.532563 13.105195 
L 89.880563 13.105195 
L 93.228563 13.105195 
L 96.576563 13.105195 
L 99.924563 13.105195 
L 103.272563 13.105195 
L 106.620563 13.105195 
L 109.968563 13.105195 
L 113.316563 13.105195 
L 116.664563 13.105195 
L 120.012563 13.105195 
L 123.360563 13.105195 
L 126.708562 13.105195 
L 130.056563 13.105195 
L 133.404562 13.105195 
L 136.752563 13.105195 
L 140.100563 13.105195 
L 143.448563 13.105195 
L 146.796562 13.105195 
L 150.144563 13.105195 
L 153.492563 13.105195 
L 156.840563 13.105195 
L 160.188562 13.105195 
L 163.536563 13.105195 
L 166.884563 13.105195 
L 170.232563 13.105195 
L 173.580563 13.105195 
L 176.928562 13.105195 
L 180.276563 13.105195 
L 183.624563 13.105195 
L 186.972563 13.105195 
L 190.320562 13.105195 
L 193.668563 13.105195 
L 197.016563 13.105195 
L 200.364563 13.105195 
L 203.712562 13.105195 
L 207.060563 13.105195 
L 210.408563 13.105195 
L 213.756563 13.105195 
L 217.104563 13.105195 
L 220.452563 13.105195 
L 223.800563 13.105195 
L 227.148562 13.105195 
L 230.496563 13.105195 
L 233.844563 13.105195 
L 237.192563 13.105195 
L 240.540563 13.105195 
L 243.888563 13.105195 
L 247.236563 13.105195 
L 250.584563 13.105195 
L 253.932563 13.105195 
L 257.280562 13.105195 
L 260.628562 13.105195 
L 263.976562 13.105195 
L 267.324563 13.550497 
L 270.672563 13.981717 
L 274.020562 14.409666 
L 277.368563 16.084696 
L 280.716563 17.681856 
L 284.064563 19.984611 
L 287.412563 24.797287 
L 290.760562 38.582477 
L 294.108563 49.174593 
L 297.456563 56.952478 
L 300.804562 62.116273 
L 304.152563 63.370795 
L 307.500563 65.521195 
L 310.848563 66.575246 
L 314.196563 66.595045 
L 317.544562 68.408979 
L 320.892562 69.679347 
L 324.240563 70.300037 
L 327.588563 71.436041 
L 330.936563 74.82964 
L 334.284563 80.463313 
L 337.632563 82.72216 
L 340.980563 87.39369 
L 344.328562 96.649129 
L 347.676562 103.273466 
L 351.024563 108.014069 
L 354.372563 114.888229 
L 357.720563 122.95633 
L 361.068563 131.435058 
L 364.416562 141.972681 
L 367.764563 150.915656 
L 371.112563 157.853616 
L 374.460563 166.384534 
L 377.808563 177.091282 
L 381.156563 183.715594 
L 384.504563 192.216914 
L 387.852563 234.865195 
L 391.200562 234.865195 
L 394.548563 234.865195 
L 397.896563 234.865195 
" style="fill:none;stroke:#2b7ac2;stroke-linecap:round;stroke-width:2.25;"/>
   </g>
   <g id="line2d_16">
    <path clip-path="url(#pc5309ef35e)" d="M 63.096563 13.105195 
L 66.444563 13.105195 
L 69.792563 13.105195 
L 73.140563 13.105195 
L 76.488563 13.105195 
L 79.836563 13.105195 
L 83.184562 13.105195 
L 86.532563 13.105195 
L 89.880563 13.105195 
L 93.228563 13.105195 
L 96.576563 13.105195 
L 99.924563 13.105195 
L 103.272563 13.105195 
L 106.620563 13.105195 
L 109.968563 13.105195 
L 113.316563 13.105195 
L 116.664563 13.105195 
L 120.012563 13.105195 
L 123.360563 13.105195 
L 126.708562 13.105195 
L 130.056563 13.105195 
L 133.404562 13.105195 
L 136.752563 13.105195 
L 140.100563 13.105195 
L 143.448563 13.105195 
L 146.796562 13.105195 
L 150.144563 13.105195 
L 153.492563 13.105195 
L 156.840563 13.105195 
L 160.188562 13.105195 
L 163.536563 13.105195 
L 166.884563 13.105195 
L 170.232563 13.105195 
L 173.580563 13.105195 
L 176.928562 13.105195 
L 180.276563 13.105195 
L 183.624563 13.105195 
L 186.972563 13.105195 
L 190.320562 13.105195 
L 193.668563 13.105195 
L 197.016563 13.105195 
L 200.364563 13.105195 
L 203.712562 13.105195 
L 207.060563 13.105195 
L 210.408563 13.105195 
L 213.756563 13.105195 
L 217.104563 13.105195 
L 220.452563 13.105195 
L 223.800563 13.105195 
L 227.148562 13.105195 
L 230.496563 13.105195 
L 233.844563 13.105195 
L 237.192563 13.105195 
L 240.540563 13.105195 
L 243.888563 13.105195 
L 247.236563 13.105195 
L 250.584563 13.105195 
L 253.932563 13.105195 
L 257.280562 13.105195 
L 260.628562 13.105195 
L 263.976562 13.105195 
L 267.324563 13.105195 
L 270.672563 13.105195 
L 274.020562 13.105195 
L 277.368563 13.105195 
L 280.716563 13.105195 
L 284.064563 13.105195 
L 287.412563 13.105195 
L 290.760562 13.105195 
L 294.108563 13.105195 
L 297.456563 13.105195 
L 300.804562 13.105195 
L 304.152563 13.105195 
L 307.500563 13.105195 
L 310.848563 13.105195 
L 314.196563 13.105195 
L 317.544562 13.105195 
L 320.892562 13.105195 
L 324.240563 13.105195 
L 327.588563 13.105195 
L 330.936563 13.105195 
L 334.284563 13.105195 
L 337.632563 13.105195 
L 340.980563 13.105195 
L 344.328562 13.105195 
L 347.676562 13.105195 
L 351.024563 13.105195 
L 354.372563 13.105195 
L 357.720563 13.105195 
L 361.068563 13.105195 
L 364.416562 13.105195 
L 367.764563 13.105195 
L 371.112563 13.105195 
L 374.460563 13.105195 
L 377.808563 13.105195 
L 381.156563 13.105195 
L 384.504563 13.105195 
L 387.852563 234.865195 
L 391.200562 234.865195 
L 394.548563 234.865195 
L 397.896563 234.865195 
" style="fill:none;stroke:#ff9929;stroke-linecap:round;stroke-width:2.25;"/>
   </g>
   <g id="patch_3">
    <path d="M 63.096563 234.865195 
L 63.096563 13.105195 
" style="fill:none;stroke:#cccccc;stroke-linecap:square;stroke-linejoin:miter;stroke-width:1.875;"/>
   </g>
   <g id="patch_4">
    <path d="M 397.896563 234.865195 
L 397.896563 13.105195 
" style="fill:none;stroke:#cccccc;stroke-linecap:square;stroke-linejoin:miter;stroke-width:1.875;"/>
   </g>
   <g id="patch_5">
    <path d="M 63.096563 234.865195 
L 397.896563 234.865195 
" style="fill:none;stroke:#cccccc;stroke-linecap:square;stroke-linejoin:miter;stroke-width:1.875;"/>
   </g>
   <g id="patch_6">
    <path d="M 63.096563 13.105195 
L 397.896563 13.105195 
" style="fill:none;stroke:#cccccc;stroke-linecap:square;stroke-linejoin:miter;stroke-width:1.875;"/>
   </g>
   <g id="legend_1">
    <g id="text_15">
     <!-- AP | setting -->
     <g style="fill:#262626;" transform="translate(591.533906 81.174258)scale(0.18 -0.18)">
      <defs>
       <path d="M -0.140625 0 
L 27.34375 71.578125 
L 37.546875 71.578125 
L 66.84375 0 
L 56.0625 0 
L 47.703125 21.6875 
L 17.78125 21.6875 
L 9.90625 0 
z
M 20.515625 29.390625 
L 44.78125 29.390625 
L 37.3125 49.21875 
Q 33.890625 58.25 32.234375 64.0625 
Q 30.859375 57.171875 28.375 50.390625 
z
" id="ArialMT-65"/>
       <path d="M 7.71875 0 
L 7.71875 71.578125 
L 34.71875 71.578125 
Q 41.84375 71.578125 45.609375 70.90625 
Q 50.875 70.015625 54.4375 67.546875 
Q 58.015625 65.09375 60.1875 60.640625 
Q 62.359375 56.203125 62.359375 50.875 
Q 62.359375 41.75 56.546875 35.421875 
Q 50.734375 29.109375 35.546875 29.109375 
L 17.1875 29.109375 
L 17.1875 0 
z
M 17.1875 37.546875 
L 35.6875 37.546875 
Q 44.875 37.546875 48.734375 40.96875 
Q 52.59375 44.390625 52.59375 50.59375 
Q 52.59375 55.078125 50.3125 58.265625 
Q 48.046875 61.46875 44.34375 62.5 
Q 41.9375 63.140625 35.5 63.140625 
L 17.1875 63.140625 
z
" id="ArialMT-80"/>
       <path id="ArialMT-32"/>
       <path d="M 9.1875 -21.046875 
L 9.1875 72.796875 
L 16.84375 72.796875 
L 16.84375 -21.046875 
z
" id="ArialMT-124"/>
       <path d="M 25.78125 7.859375 
L 27.046875 0.09375 
Q 23.34375 -0.6875 20.40625 -0.6875 
Q 15.625 -0.6875 12.984375 0.828125 
Q 10.359375 2.34375 9.28125 4.8125 
Q 8.203125 7.28125 8.203125 15.1875 
L 8.203125 45.015625 
L 1.765625 45.015625 
L 1.765625 51.859375 
L 8.203125 51.859375 
L 8.203125 64.703125 
L 16.9375 69.96875 
L 16.9375 51.859375 
L 25.78125 51.859375 
L 25.78125 45.015625 
L 16.9375 45.015625 
L 16.9375 14.703125 
Q 16.9375 10.9375 17.40625 9.859375 
Q 17.875 8.796875 18.921875 8.15625 
Q 19.96875 7.515625 21.921875 7.515625 
Q 23.390625 7.515625 25.78125 7.859375 
z
" id="ArialMT-116"/>
       <path d="M 4.984375 -4.296875 
L 13.53125 -5.5625 
Q 14.0625 -9.515625 16.5 -11.328125 
Q 19.78125 -13.765625 25.4375 -13.765625 
Q 31.546875 -13.765625 34.859375 -11.328125 
Q 38.1875 -8.890625 39.359375 -4.5 
Q 40.046875 -1.8125 39.984375 6.78125 
Q 34.234375 0 25.640625 0 
Q 14.9375 0 9.078125 7.71875 
Q 3.21875 15.4375 3.21875 26.21875 
Q 3.21875 33.640625 5.90625 39.90625 
Q 8.59375 46.1875 13.6875 49.609375 
Q 18.796875 53.03125 25.6875 53.03125 
Q 34.859375 53.03125 40.828125 45.609375 
L 40.828125 51.859375 
L 48.921875 51.859375 
L 48.921875 7.03125 
Q 48.921875 -5.078125 46.453125 -10.125 
Q 44 -15.1875 38.640625 -18.109375 
Q 33.296875 -21.046875 25.484375 -21.046875 
Q 16.21875 -21.046875 10.5 -16.875 
Q 4.78125 -12.703125 4.984375 -4.296875 
z
M 12.25 26.859375 
Q 12.25 16.65625 16.296875 11.96875 
Q 20.359375 7.28125 26.46875 7.28125 
Q 32.515625 7.28125 36.609375 11.9375 
Q 40.71875 16.609375 40.71875 26.5625 
Q 40.71875 36.078125 36.5 40.90625 
Q 32.28125 45.75 26.3125 45.75 
Q 20.453125 45.75 16.34375 40.984375 
Q 12.25 36.234375 12.25 26.859375 
z
" id="ArialMT-103"/>
      </defs>
      <use xlink:href="#ArialMT-65"/>
      <use x="66.699219" xlink:href="#ArialMT-80"/>
      <use x="131.648438" xlink:href="#ArialMT-32"/>
      <use x="159.431641" xlink:href="#ArialMT-124"/>
      <use x="185.408203" xlink:href="#ArialMT-32"/>
      <use x="213.191406" xlink:href="#ArialMT-115"/>
      <use x="263.191406" xlink:href="#ArialMT-101"/>
      <use x="318.806641" xlink:href="#ArialMT-116"/>
      <use x="346.589844" xlink:href="#ArialMT-116"/>
      <use x="374.373047" xlink:href="#ArialMT-105"/>
      <use x="396.589844" xlink:href="#ArialMT-110"/>
      <use x="452.205078" xlink:href="#ArialMT-103"/>
     </g>
    </g>
    <g id="line2d_17">
     <path d="M 429.486563 99.44918 
L 462.486563 99.44918 
" style="fill:none;stroke:#00af90;stroke-dasharray:8.325,3.6;stroke-dashoffset:0;stroke-width:2.25;"/>
    </g>
    <g id="line2d_18"/>
    <g id="text_16">
     <!-- 0.534 | IoU=0.75 -->
     <g style="fill:#262626;" transform="translate(475.686563 105.22418)scale(0.165 -0.165)">
      <defs>
       <path d="M 4.15625 18.75 
L 13.375 19.53125 
Q 14.40625 12.796875 18.140625 9.390625 
Q 21.875 6 27.15625 6 
Q 33.5 6 37.890625 10.78125 
Q 42.28125 15.578125 42.28125 23.484375 
Q 42.28125 31 38.0625 35.34375 
Q 33.84375 39.703125 27 39.703125 
Q 22.75 39.703125 19.328125 37.765625 
Q 15.921875 35.84375 13.96875 32.765625 
L 5.71875 33.84375 
L 12.640625 70.609375 
L 48.25 70.609375 
L 48.25 62.203125 
L 19.671875 62.203125 
L 15.828125 42.96875 
Q 22.265625 47.46875 29.34375 47.46875 
Q 38.71875 47.46875 45.15625 40.96875 
Q 51.609375 34.46875 51.609375 24.265625 
Q 51.609375 14.546875 45.953125 7.46875 
Q 39.0625 -1.21875 27.15625 -1.21875 
Q 17.390625 -1.21875 11.203125 4.25 
Q 5.03125 9.71875 4.15625 18.75 
z
" id="ArialMT-53"/>
       <path d="M 4.203125 18.890625 
L 12.984375 20.0625 
Q 14.5 12.59375 18.140625 9.296875 
Q 21.78125 6 27 6 
Q 33.203125 6 37.46875 10.296875 
Q 41.75 14.59375 41.75 20.953125 
Q 41.75 27 37.796875 30.921875 
Q 33.84375 34.859375 27.734375 34.859375 
Q 25.25 34.859375 21.53125 33.890625 
L 22.515625 41.609375 
Q 23.390625 41.5 23.921875 41.5 
Q 29.546875 41.5 34.03125 44.421875 
Q 38.53125 47.359375 38.53125 53.46875 
Q 38.53125 58.296875 35.25 61.46875 
Q 31.984375 64.65625 26.8125 64.65625 
Q 21.6875 64.65625 18.265625 61.421875 
Q 14.84375 58.203125 13.875 51.765625 
L 5.078125 53.328125 
Q 6.6875 62.15625 12.390625 67.015625 
Q 18.109375 71.875 26.609375 71.875 
Q 32.46875 71.875 37.390625 69.359375 
Q 42.328125 66.84375 44.9375 62.5 
Q 47.5625 58.15625 47.5625 53.265625 
Q 47.5625 48.640625 45.0625 44.828125 
Q 42.578125 41.015625 37.703125 38.765625 
Q 44.046875 37.3125 47.5625 32.6875 
Q 51.078125 28.078125 51.078125 21.140625 
Q 51.078125 11.765625 44.234375 5.25 
Q 37.40625 -1.265625 26.953125 -1.265625 
Q 17.53125 -1.265625 11.296875 4.34375 
Q 5.078125 9.96875 4.203125 18.890625 
z
" id="ArialMT-51"/>
       <path d="M 9.328125 0 
L 9.328125 71.578125 
L 18.796875 71.578125 
L 18.796875 0 
z
" id="ArialMT-73"/>
       <path d="M 54.6875 71.578125 
L 64.15625 71.578125 
L 64.15625 30.21875 
Q 64.15625 19.4375 61.71875 13.078125 
Q 59.28125 6.734375 52.90625 2.75 
Q 46.53125 -1.21875 36.1875 -1.21875 
Q 26.125 -1.21875 19.71875 2.25 
Q 13.328125 5.71875 10.59375 12.28125 
Q 7.859375 18.84375 7.859375 30.21875 
L 7.859375 71.578125 
L 17.328125 71.578125 
L 17.328125 30.28125 
Q 17.328125 20.953125 19.0625 16.53125 
Q 20.796875 12.109375 25.015625 9.71875 
Q 29.25 7.328125 35.359375 7.328125 
Q 45.796875 7.328125 50.234375 12.0625 
Q 54.6875 16.796875 54.6875 30.28125 
z
" id="ArialMT-85"/>
       <path d="M 52.828125 42.09375 
L 5.5625 42.09375 
L 5.5625 50.296875 
L 52.828125 50.296875 
z
M 52.828125 20.359375 
L 5.5625 20.359375 
L 5.5625 28.5625 
L 52.828125 28.5625 
z
" id="ArialMT-61"/>
       <path d="M 4.734375 62.203125 
L 4.734375 70.65625 
L 51.078125 70.65625 
L 51.078125 63.8125 
Q 44.234375 56.546875 37.515625 44.484375 
Q 30.8125 32.421875 27.15625 19.671875 
Q 24.515625 10.6875 23.78125 0 
L 14.75 0 
Q 14.890625 8.453125 18.0625 20.40625 
Q 21.234375 32.375 27.171875 43.484375 
Q 33.109375 54.59375 39.796875 62.203125 
z
" id="ArialMT-55"/>
      </defs>
      <use xlink:href="#ArialMT-48"/>
      <use x="55.615234" xlink:href="#ArialMT-46"/>
      <use x="83.398438" xlink:href="#ArialMT-53"/>
      <use x="139.013672" xlink:href="#ArialMT-51"/>
      <use x="194.628906" xlink:href="#ArialMT-52"/>
      <use x="250.244141" xlink:href="#ArialMT-32"/>
      <use x="278.027344" xlink:href="#ArialMT-124"/>
      <use x="304.003906" xlink:href="#ArialMT-32"/>
      <use x="331.787109" xlink:href="#ArialMT-73"/>
      <use x="359.570312" xlink:href="#ArialMT-111"/>
      <use x="415.185547" xlink:href="#ArialMT-85"/>
      <use x="487.402344" xlink:href="#ArialMT-61"/>
      <use x="545.800781" xlink:href="#ArialMT-48"/>
      <use x="601.416016" xlink:href="#ArialMT-46"/>
      <use x="629.199219" xlink:href="#ArialMT-55"/>
      <use x="684.814453" xlink:href="#ArialMT-53"/>
     </g>
    </g>
    <g id="line2d_19">
     <path d="M 429.486563 123.183398 
L 462.486563 123.183398 
" style="fill:none;stroke:#00af90;stroke-linecap:round;stroke-width:2.25;"/>
    </g>
    <g id="line2d_20"/>
    <g id="text_17">
     <!-- 0.790 | IoU=0.50 -->
     <g style="fill:#262626;" transform="translate(475.686563 128.958398)scale(0.165 -0.165)">
      <defs>
       <path d="M 5.46875 16.546875 
L 13.921875 17.328125 
Q 14.984375 11.375 18.015625 8.6875 
Q 21.046875 6 25.78125 6 
Q 29.828125 6 32.875 7.859375 
Q 35.9375 9.71875 37.890625 12.8125 
Q 39.84375 15.921875 41.15625 21.1875 
Q 42.484375 26.46875 42.484375 31.9375 
Q 42.484375 32.515625 42.4375 33.6875 
Q 39.796875 29.5 35.234375 26.875 
Q 30.671875 24.265625 25.34375 24.265625 
Q 16.453125 24.265625 10.296875 30.703125 
Q 4.15625 37.15625 4.15625 47.703125 
Q 4.15625 58.59375 10.578125 65.234375 
Q 17 71.875 26.65625 71.875 
Q 33.640625 71.875 39.421875 68.109375 
Q 45.21875 64.359375 48.21875 57.390625 
Q 51.21875 50.4375 51.21875 37.25 
Q 51.21875 23.53125 48.234375 15.40625 
Q 45.265625 7.28125 39.375 3.03125 
Q 33.5 -1.21875 25.59375 -1.21875 
Q 17.1875 -1.21875 11.859375 3.4375 
Q 6.546875 8.109375 5.46875 16.546875 
z
M 41.453125 48.140625 
Q 41.453125 55.71875 37.421875 60.15625 
Q 33.40625 64.59375 27.734375 64.59375 
Q 21.875 64.59375 17.53125 59.8125 
Q 13.1875 55.03125 13.1875 47.40625 
Q 13.1875 40.578125 17.3125 36.296875 
Q 21.4375 32.03125 27.484375 32.03125 
Q 33.59375 32.03125 37.515625 36.296875 
Q 41.453125 40.578125 41.453125 48.140625 
z
" id="ArialMT-57"/>
      </defs>
      <use xlink:href="#ArialMT-48"/>
      <use x="55.615234" xlink:href="#ArialMT-46"/>
      <use x="83.398438" xlink:href="#ArialMT-55"/>
      <use x="139.013672" xlink:href="#ArialMT-57"/>
      <use x="194.628906" xlink:href="#ArialMT-48"/>
      <use x="250.244141" xlink:href="#ArialMT-32"/>
      <use x="278.027344" xlink:href="#ArialMT-124"/>
      <use x="304.003906" xlink:href="#ArialMT-32"/>
      <use x="331.787109" xlink:href="#ArialMT-73"/>
      <use x="359.570312" xlink:href="#ArialMT-111"/>
      <use x="415.185547" xlink:href="#ArialMT-85"/>
      <use x="487.402344" xlink:href="#ArialMT-61"/>
      <use x="545.800781" xlink:href="#ArialMT-48"/>
      <use x="601.416016" xlink:href="#ArialMT-46"/>
      <use x="629.199219" xlink:href="#ArialMT-53"/>
      <use x="684.814453" xlink:href="#ArialMT-48"/>
     </g>
    </g>
    <g id="line2d_21">
     <path d="M 429.486563 146.917617 
L 462.486563 146.917617 
" style="fill:none;stroke:#2b7ac2;stroke-linecap:round;stroke-width:2.25;"/>
    </g>
    <g id="line2d_22"/>
    <g id="text_18">
     <!-- 0.846 | ignoring localization error -->
     <g style="fill:#262626;" transform="translate(475.686563 152.692617)scale(0.165 -0.165)">
      <defs>
       <path d="M 1.953125 0 
L 1.953125 7.125 
L 34.96875 45.015625 
Q 29.34375 44.734375 25.046875 44.734375 
L 3.90625 44.734375 
L 3.90625 51.859375 
L 46.296875 51.859375 
L 46.296875 46.046875 
L 18.21875 13.140625 
L 12.796875 7.125 
Q 18.703125 7.5625 23.875 7.5625 
L 47.859375 7.5625 
L 47.859375 0 
z
" id="ArialMT-122"/>
      </defs>
      <use xlink:href="#ArialMT-48"/>
      <use x="55.615234" xlink:href="#ArialMT-46"/>
      <use x="83.398438" xlink:href="#ArialMT-56"/>
      <use x="139.013672" xlink:href="#ArialMT-52"/>
      <use x="194.628906" xlink:href="#ArialMT-54"/>
      <use x="250.244141" xlink:href="#ArialMT-32"/>
      <use x="278.027344" xlink:href="#ArialMT-124"/>
      <use x="304.003906" xlink:href="#ArialMT-32"/>
      <use x="331.787109" xlink:href="#ArialMT-105"/>
      <use x="354.003906" xlink:href="#ArialMT-103"/>
      <use x="409.619141" xlink:href="#ArialMT-110"/>
      <use x="465.234375" xlink:href="#ArialMT-111"/>
      <use x="520.849609" xlink:href="#ArialMT-114"/>
      <use x="554.150391" xlink:href="#ArialMT-105"/>
      <use x="576.367188" xlink:href="#ArialMT-110"/>
      <use x="631.982422" xlink:href="#ArialMT-103"/>
      <use x="687.597656" xlink:href="#ArialMT-32"/>
      <use x="715.380859" xlink:href="#ArialMT-108"/>
      <use x="737.597656" xlink:href="#ArialMT-111"/>
      <use x="793.212891" xlink:href="#ArialMT-99"/>
      <use x="843.212891" xlink:href="#ArialMT-97"/>
      <use x="898.828125" xlink:href="#ArialMT-108"/>
      <use x="921.044922" xlink:href="#ArialMT-105"/>
      <use x="943.261719" xlink:href="#ArialMT-122"/>
      <use x="993.261719" xlink:href="#ArialMT-97"/>
      <use x="1048.876953" xlink:href="#ArialMT-116"/>
      <use x="1076.660156" xlink:href="#ArialMT-105"/>
      <use x="1098.876953" xlink:href="#ArialMT-111"/>
      <use x="1154.492188" xlink:href="#ArialMT-110"/>
      <use x="1210.107422" xlink:href="#ArialMT-32"/>
      <use x="1237.890625" xlink:href="#ArialMT-101"/>
      <use x="1293.505859" xlink:href="#ArialMT-114"/>
      <use x="1326.806641" xlink:href="#ArialMT-114"/>
      <use x="1360.107422" xlink:href="#ArialMT-111"/>
      <use x="1415.722656" xlink:href="#ArialMT-114"/>
     </g>
    </g>
    <g id="line2d_23">
     <path d="M 429.486563 170.651836 
L 462.486563 170.651836 
" style="fill:none;stroke:#ff9929;stroke-linecap:round;stroke-width:2.25;"/>
    </g>
    <g id="line2d_24"/>
    <g id="text_19">
     <!-- 0.960 | ignoring localization and classification error -->
     <g style="fill:#262626;" transform="translate(475.686563 176.426836)scale(0.165 -0.165)">
      <defs>
       <path d="M 40.234375 0 
L 40.234375 6.546875 
Q 35.296875 -1.171875 25.734375 -1.171875 
Q 19.53125 -1.171875 14.328125 2.25 
Q 9.125 5.671875 6.265625 11.796875 
Q 3.421875 17.921875 3.421875 25.875 
Q 3.421875 33.640625 6 39.96875 
Q 8.59375 46.296875 13.765625 49.65625 
Q 18.953125 53.03125 25.34375 53.03125 
Q 30.03125 53.03125 33.6875 51.046875 
Q 37.359375 49.078125 39.65625 45.90625 
L 39.65625 71.578125 
L 48.390625 71.578125 
L 48.390625 0 
z
M 12.453125 25.875 
Q 12.453125 15.921875 16.640625 10.984375 
Q 20.84375 6.0625 26.5625 6.0625 
Q 32.328125 6.0625 36.34375 10.765625 
Q 40.375 15.484375 40.375 25.140625 
Q 40.375 35.796875 36.265625 40.765625 
Q 32.171875 45.75 26.171875 45.75 
Q 20.3125 45.75 16.375 40.96875 
Q 12.453125 36.1875 12.453125 25.875 
z
" id="ArialMT-100"/>
       <path d="M 8.6875 0 
L 8.6875 45.015625 
L 0.921875 45.015625 
L 0.921875 51.859375 
L 8.6875 51.859375 
L 8.6875 57.375 
Q 8.6875 62.59375 9.625 65.140625 
Q 10.890625 68.5625 14.078125 70.671875 
Q 17.28125 72.796875 23.046875 72.796875 
Q 26.765625 72.796875 31.25 71.921875 
L 29.9375 64.265625 
Q 27.203125 64.75 24.75 64.75 
Q 20.75 64.75 19.09375 63.03125 
Q 17.4375 61.328125 17.4375 56.640625 
L 17.4375 51.859375 
L 27.546875 51.859375 
L 27.546875 45.015625 
L 17.4375 45.015625 
L 17.4375 0 
z
" id="ArialMT-102"/>
      </defs>
      <use xlink:href="#ArialMT-48"/>
      <use x="55.615234" xlink:href="#ArialMT-46"/>
      <use x="83.398438" xlink:href="#ArialMT-57"/>
      <use x="139.013672" xlink:href="#ArialMT-54"/>
      <use x="194.628906" xlink:href="#ArialMT-48"/>
      <use x="250.244141" xlink:href="#ArialMT-32"/>
      <use x="278.027344" xlink:href="#ArialMT-124"/>
      <use x="304.003906" xlink:href="#ArialMT-32"/>
      <use x="331.787109" xlink:href="#ArialMT-105"/>
      <use x="354.003906" xlink:href="#ArialMT-103"/>
      <use x="409.619141" xlink:href="#ArialMT-110"/>
      <use x="465.234375" xlink:href="#ArialMT-111"/>
      <use x="520.849609" xlink:href="#ArialMT-114"/>
      <use x="554.150391" xlink:href="#ArialMT-105"/>
      <use x="576.367188" xlink:href="#ArialMT-110"/>
      <use x="631.982422" xlink:href="#ArialMT-103"/>
      <use x="687.597656" xlink:href="#ArialMT-32"/>
      <use x="715.380859" xlink:href="#ArialMT-108"/>
      <use x="737.597656" xlink:href="#ArialMT-111"/>
      <use x="793.212891" xlink:href="#ArialMT-99"/>
      <use x="843.212891" xlink:href="#ArialMT-97"/>
      <use x="898.828125" xlink:href="#ArialMT-108"/>
      <use x="921.044922" xlink:href="#ArialMT-105"/>
      <use x="943.261719" xlink:href="#ArialMT-122"/>
      <use x="993.261719" xlink:href="#ArialMT-97"/>
      <use x="1048.876953" xlink:href="#ArialMT-116"/>
      <use x="1076.660156" xlink:href="#ArialMT-105"/>
      <use x="1098.876953" xlink:href="#ArialMT-111"/>
      <use x="1154.492188" xlink:href="#ArialMT-110"/>
      <use x="1210.107422" xlink:href="#ArialMT-32"/>
      <use x="1237.890625" xlink:href="#ArialMT-97"/>
      <use x="1293.505859" xlink:href="#ArialMT-110"/>
      <use x="1349.121094" xlink:href="#ArialMT-100"/>
      <use x="1404.736328" xlink:href="#ArialMT-32"/>
      <use x="1432.519531" xlink:href="#ArialMT-99"/>
      <use x="1482.519531" xlink:href="#ArialMT-108"/>
      <use x="1504.736328" xlink:href="#ArialMT-97"/>
      <use x="1560.351562" xlink:href="#ArialMT-115"/>
      <use x="1610.351562" xlink:href="#ArialMT-115"/>
      <use x="1660.351562" xlink:href="#ArialMT-105"/>
      <use x="1682.568359" xlink:href="#ArialMT-102"/>
      <use x="1710.351562" xlink:href="#ArialMT-105"/>
      <use x="1732.568359" xlink:href="#ArialMT-99"/>
      <use x="1782.568359" xlink:href="#ArialMT-97"/>
      <use x="1838.183594" xlink:href="#ArialMT-116"/>
      <use x="1865.966797" xlink:href="#ArialMT-105"/>
      <use x="1888.183594" xlink:href="#ArialMT-111"/>
      <use x="1943.798828" xlink:href="#ArialMT-110"/>
      <use x="1999.414062" xlink:href="#ArialMT-32"/>
      <use x="2027.197266" xlink:href="#ArialMT-101"/>
      <use x="2082.8125" xlink:href="#ArialMT-114"/>
      <use x="2116.113281" xlink:href="#ArialMT-114"/>
      <use x="2149.414062" xlink:href="#ArialMT-111"/>
      <use x="2205.029297" xlink:href="#ArialMT-114"/>
     </g>
    </g>
   </g>
  </g>
 </g>
 <defs>
  <clipPath id="pc5309ef35e">
   <rect height="221.76" width="334.8" x="63.096563" y="13.105195"/>
  </clipPath>
 </defs>
 <defs>
  <pattern height="72" id="h118ddc0839" patternUnits="userSpaceOnUse" width="72" x="0" y="0">
   <rect fill="#00af90" height="73" width="73" x="0" y="0"/>
   <path d="M -36 36 
L 36 -36 
M -32 40 
L 40 -32 
M -28 44 
L 44 -28 
M -24 48 
L 48 -24 
M -20 52 
L 52 -20 
M -16 56 
L 56 -16 
M -12 60 
L 60 -12 
M -8 64 
L 64 -8 
M -4 68 
L 68 -4 
M 0 72 
L 72 0 
M 4 76 
L 76 4 
M 8 80 
L 80 8 
M 12 84 
L 84 12 
M 16 88 
L 88 16 
M 20 92 
L 92 20 
M 24 96 
L 96 24 
M 28 100 
L 100 28 
M 32 104 
L 104 32 
M 36 108 
L 108 36 
" style="fill:#00af90;stroke:#00af90;stroke-linecap:butt;stroke-linejoin:miter;stroke-opacity:0.3;stroke-width:1.0;"/>
  </pattern>
 </defs>
</svg>
