<?xml version="1.0" encoding="utf-8" standalone="no"?>
<!DOCTYPE svg PUBLIC "-//W3C//DTD SVG 1.1//EN"
  "http://www.w3.org/Graphics/SVG/1.1/DTD/svg11.dtd">
<!-- Created with matplotlib (https://matplotlib.org/) -->
<svg height="211.496pt" version="1.1" viewBox="0 0 906.395601 211.496" width="906.395601pt" xmlns="http://www.w3.org/2000/svg" xmlns:xlink="http://www.w3.org/1999/xlink">
 <metadata>
  <rdf:RDF xmlns:cc="http://creativecommons.org/ns#" xmlns:dc="http://purl.org/dc/elements/1.1/" xmlns:rdf="http://www.w3.org/1999/02/22-rdf-syntax-ns#">
   <cc:Work>
    <dc:type rdf:resource="http://purl.org/dc/dcmitype/StillImage"/>
    <dc:date>2021-06-29T14:06:35.095790</dc:date>
    <dc:format>image/svg+xml</dc:format>
    <dc:creator>
     <cc:Agent>
      <dc:title>Matplotlib v3.3.4, https://matplotlib.org/</dc:title>
     </cc:Agent>
    </dc:creator>
   </cc:Work>
  </rdf:RDF>
 </metadata>
 <defs>
  <style type="text/css">*{stroke-linecap:butt;stroke-linejoin:round;}</style>
 </defs>
 <g id="figure_1">
  <g id="patch_1">
   <path d="M 0 211.496 
L 906.395601 211.496 
L 906.395601 0 
L 0 0 
z
" style="fill:#ffffff;"/>
  </g>
  <g id="axes_1">
   <g id="patch_2">
    <path d="M 40.5115 172.163 
L 234.916884 172.163 
L 234.916884 20.199 
L 40.5115 20.199 
z
" style="fill:#eaeaf2;"/>
   </g>
   <g id="matplotlib.axis_1">
    <g id="xtick_1">
     <g id="line2d_1">
      <path clip-path="url(#pd30ec1adfd)" d="M 49.348108 172.163 
L 49.348108 20.199 
" style="fill:none;stroke:#ffffff;stroke-linecap:round;stroke-width:0.8;"/>
     </g>
     <g id="text_1">
      <!-- $\mathdefault{10^{0}}$ -->
      <g style="fill:#262626;" transform="translate(42.440108 189.538)scale(0.088 -0.088)">
       <defs>
        <path d="M 37.25 0 
L 28.46875 0 
L 28.46875 56 
Q 25.296875 52.984375 20.140625 49.953125 
Q 14.984375 46.921875 10.890625 45.40625 
L 10.890625 53.90625 
Q 18.265625 57.375 23.78125 62.296875 
Q 29.296875 67.234375 31.59375 71.875 
L 37.25 71.875 
z
" id="ArialMT-49"/>
        <path d="M 4.15625 35.296875 
Q 4.15625 48 6.765625 55.734375 
Q 9.375 63.484375 14.515625 67.671875 
Q 19.671875 71.875 27.484375 71.875 
Q 33.25 71.875 37.59375 69.546875 
Q 41.9375 67.234375 44.765625 62.859375 
Q 47.609375 58.5 49.21875 52.21875 
Q 50.828125 45.953125 50.828125 35.296875 
Q 50.828125 22.703125 48.234375 14.96875 
Q 45.65625 7.234375 40.5 3 
Q 35.359375 -1.21875 27.484375 -1.21875 
Q 17.140625 -1.21875 11.234375 6.203125 
Q 4.15625 15.140625 4.15625 35.296875 
z
M 13.1875 35.296875 
Q 13.1875 17.671875 17.3125 11.828125 
Q 21.4375 6 27.484375 6 
Q 33.546875 6 37.671875 11.859375 
Q 41.796875 17.71875 41.796875 35.296875 
Q 41.796875 52.984375 37.671875 58.78125 
Q 33.546875 64.59375 27.390625 64.59375 
Q 21.34375 64.59375 17.71875 59.46875 
Q 13.1875 52.9375 13.1875 35.296875 
z
" id="ArialMT-48"/>
       </defs>
       <use transform="translate(0 0.99375)" xlink:href="#ArialMT-49"/>
       <use transform="translate(55.615234 0.99375)" xlink:href="#ArialMT-48"/>
       <use transform="translate(112.972813 70.6875)scale(0.7)" xlink:href="#ArialMT-48"/>
      </g>
     </g>
    </g>
    <g id="xtick_2">
     <g id="line2d_2">
      <path clip-path="url(#pd30ec1adfd)" d="M 101.754195 172.163 
L 101.754195 20.199 
" style="fill:none;stroke:#ffffff;stroke-linecap:round;stroke-width:0.8;"/>
     </g>
     <g id="text_2">
      <!-- $\mathdefault{10^{1}}$ -->
      <g style="fill:#262626;" transform="translate(94.846195 189.538)scale(0.088 -0.088)">
       <use transform="translate(0 0.99375)" xlink:href="#ArialMT-49"/>
       <use transform="translate(55.615234 0.99375)" xlink:href="#ArialMT-48"/>
       <use transform="translate(112.972813 70.6875)scale(0.7)" xlink:href="#ArialMT-49"/>
      </g>
     </g>
    </g>
    <g id="xtick_3">
     <g id="line2d_3">
      <path clip-path="url(#pd30ec1adfd)" d="M 154.160281 172.163 
L 154.160281 20.199 
" style="fill:none;stroke:#ffffff;stroke-linecap:round;stroke-width:0.8;"/>
     </g>
     <g id="text_3">
      <!-- $\mathdefault{10^{2}}$ -->
      <g style="fill:#262626;" transform="translate(147.252281 189.538)scale(0.088 -0.088)">
       <defs>
        <path d="M 50.34375 8.453125 
L 50.34375 0 
L 3.03125 0 
Q 2.9375 3.171875 4.046875 6.109375 
Q 5.859375 10.9375 9.828125 15.625 
Q 13.8125 20.3125 21.34375 26.46875 
Q 33.015625 36.03125 37.109375 41.625 
Q 41.21875 47.21875 41.21875 52.203125 
Q 41.21875 57.421875 37.46875 61 
Q 33.734375 64.59375 27.734375 64.59375 
Q 21.390625 64.59375 17.578125 60.78125 
Q 13.765625 56.984375 13.71875 50.25 
L 4.6875 51.171875 
Q 5.609375 61.28125 11.65625 66.578125 
Q 17.71875 71.875 27.9375 71.875 
Q 38.234375 71.875 44.234375 66.15625 
Q 50.25 60.453125 50.25 52 
Q 50.25 47.703125 48.484375 43.546875 
Q 46.734375 39.40625 42.65625 34.8125 
Q 38.578125 30.21875 29.109375 22.21875 
Q 21.1875 15.578125 18.9375 13.203125 
Q 16.703125 10.84375 15.234375 8.453125 
z
" id="ArialMT-50"/>
       </defs>
       <use transform="translate(0 0.99375)" xlink:href="#ArialMT-49"/>
       <use transform="translate(55.615234 0.99375)" xlink:href="#ArialMT-48"/>
       <use transform="translate(112.972813 70.6875)scale(0.7)" xlink:href="#ArialMT-50"/>
      </g>
     </g>
    </g>
    <g id="xtick_4">
     <g id="line2d_4">
      <path clip-path="url(#pd30ec1adfd)" d="M 206.566368 172.163 
L 206.566368 20.199 
" style="fill:none;stroke:#ffffff;stroke-linecap:round;stroke-width:0.8;"/>
     </g>
     <g id="text_4">
      <!-- $\mathdefault{10^{3}}$ -->
      <g style="fill:#262626;" transform="translate(199.658368 189.538)scale(0.088 -0.088)">
       <defs>
        <path d="M 4.203125 18.890625 
L 12.984375 20.0625 
Q 14.5 12.59375 18.140625 9.296875 
Q 21.78125 6 27 6 
Q 33.203125 6 37.46875 10.296875 
Q 41.75 14.59375 41.75 20.953125 
Q 41.75 27 37.796875 30.921875 
Q 33.84375 34.859375 27.734375 34.859375 
Q 25.25 34.859375 21.53125 33.890625 
L 22.515625 41.609375 
Q 23.390625 41.5 23.921875 41.5 
Q 29.546875 41.5 34.03125 44.421875 
Q 38.53125 47.359375 38.53125 53.46875 
Q 38.53125 58.296875 35.25 61.46875 
Q 31.984375 64.65625 26.8125 64.65625 
Q 21.6875 64.65625 18.265625 61.421875 
Q 14.84375 58.203125 13.875 51.765625 
L 5.078125 53.328125 
Q 6.6875 62.15625 12.390625 67.015625 
Q 18.109375 71.875 26.609375 71.875 
Q 32.46875 71.875 37.390625 69.359375 
Q 42.328125 66.84375 44.9375 62.5 
Q 47.5625 58.15625 47.5625 53.265625 
Q 47.5625 48.640625 45.0625 44.828125 
Q 42.578125 41.015625 37.703125 38.765625 
Q 44.046875 37.3125 47.5625 32.6875 
Q 51.078125 28.078125 51.078125 21.140625 
Q 51.078125 11.765625 44.234375 5.25 
Q 37.40625 -1.265625 26.953125 -1.265625 
Q 17.53125 -1.265625 11.296875 4.34375 
Q 5.078125 9.96875 4.203125 18.890625 
z
" id="ArialMT-51"/>
       </defs>
       <use transform="translate(0 0.99375)" xlink:href="#ArialMT-49"/>
       <use transform="translate(55.615234 0.99375)" xlink:href="#ArialMT-48"/>
       <use transform="translate(112.972813 70.6875)scale(0.7)" xlink:href="#ArialMT-51"/>
      </g>
     </g>
    </g>
    <g id="xtick_5"/>
    <g id="xtick_6"/>
    <g id="xtick_7"/>
    <g id="xtick_8"/>
    <g id="xtick_9"/>
    <g id="xtick_10"/>
    <g id="xtick_11"/>
    <g id="xtick_12"/>
    <g id="xtick_13"/>
    <g id="xtick_14"/>
    <g id="xtick_15"/>
    <g id="xtick_16"/>
    <g id="xtick_17"/>
    <g id="xtick_18"/>
    <g id="xtick_19"/>
    <g id="xtick_20"/>
    <g id="xtick_21"/>
    <g id="xtick_22"/>
    <g id="xtick_23"/>
    <g id="xtick_24"/>
    <g id="xtick_25"/>
    <g id="xtick_26"/>
    <g id="xtick_27"/>
    <g id="xtick_28"/>
    <g id="xtick_29"/>
    <g id="xtick_30"/>
    <g id="xtick_31"/>
    <g id="xtick_32"/>
    <g id="xtick_33"/>
    <g id="text_5">
     <!-- # training images -->
     <g style="fill:#262626;" transform="translate(101.163692 202.2755)scale(0.096 -0.096)">
      <defs>
       <path d="M 5.03125 -1.21875 
L 9.28125 19.578125 
L 1.03125 19.578125 
L 1.03125 26.859375 
L 10.75 26.859375 
L 14.359375 44.578125 
L 1.03125 44.578125 
L 1.03125 51.859375 
L 15.828125 51.859375 
L 20.0625 72.796875 
L 27.390625 72.796875 
L 23.140625 51.859375 
L 38.53125 51.859375 
L 42.78125 72.796875 
L 50.140625 72.796875 
L 45.90625 51.859375 
L 54.34375 51.859375 
L 54.34375 44.578125 
L 44.4375 44.578125 
L 40.765625 26.859375 
L 54.34375 26.859375 
L 54.34375 19.578125 
L 39.3125 19.578125 
L 35.0625 -1.21875 
L 27.734375 -1.21875 
L 31.9375 19.578125 
L 16.609375 19.578125 
L 12.359375 -1.21875 
z
M 18.0625 26.859375 
L 33.40625 26.859375 
L 37.0625 44.578125 
L 21.6875 44.578125 
z
" id="ArialMT-35"/>
       <path id="ArialMT-32"/>
       <path d="M 25.78125 7.859375 
L 27.046875 0.09375 
Q 23.34375 -0.6875 20.40625 -0.6875 
Q 15.625 -0.6875 12.984375 0.828125 
Q 10.359375 2.34375 9.28125 4.8125 
Q 8.203125 7.28125 8.203125 15.1875 
L 8.203125 45.015625 
L 1.765625 45.015625 
L 1.765625 51.859375 
L 8.203125 51.859375 
L 8.203125 64.703125 
L 16.9375 69.96875 
L 16.9375 51.859375 
L 25.78125 51.859375 
L 25.78125 45.015625 
L 16.9375 45.015625 
L 16.9375 14.703125 
Q 16.9375 10.9375 17.40625 9.859375 
Q 17.875 8.796875 18.921875 8.15625 
Q 19.96875 7.515625 21.921875 7.515625 
Q 23.390625 7.515625 25.78125 7.859375 
z
" id="ArialMT-116"/>
       <path d="M 6.5 0 
L 6.5 51.859375 
L 14.40625 51.859375 
L 14.40625 44 
Q 17.4375 49.515625 20 51.265625 
Q 22.5625 53.03125 25.640625 53.03125 
Q 30.078125 53.03125 34.671875 50.203125 
L 31.640625 42.046875 
Q 28.421875 43.953125 25.203125 43.953125 
Q 22.3125 43.953125 20.015625 42.21875 
Q 17.71875 40.484375 16.75 37.40625 
Q 15.28125 32.71875 15.28125 27.15625 
L 15.28125 0 
z
" id="ArialMT-114"/>
       <path d="M 40.4375 6.390625 
Q 35.546875 2.25 31.03125 0.53125 
Q 26.515625 -1.171875 21.34375 -1.171875 
Q 12.796875 -1.171875 8.203125 3 
Q 3.609375 7.171875 3.609375 13.671875 
Q 3.609375 17.484375 5.34375 20.625 
Q 7.078125 23.78125 9.890625 25.6875 
Q 12.703125 27.59375 16.21875 28.5625 
Q 18.796875 29.25 24.03125 29.890625 
Q 34.671875 31.15625 39.703125 32.90625 
Q 39.75 34.71875 39.75 35.203125 
Q 39.75 40.578125 37.25 42.78125 
Q 33.890625 45.75 27.25 45.75 
Q 21.046875 45.75 18.09375 43.578125 
Q 15.140625 41.40625 13.71875 35.890625 
L 5.125 37.0625 
Q 6.296875 42.578125 8.984375 45.96875 
Q 11.671875 49.359375 16.75 51.1875 
Q 21.828125 53.03125 28.515625 53.03125 
Q 35.15625 53.03125 39.296875 51.46875 
Q 43.453125 49.90625 45.40625 47.53125 
Q 47.359375 45.171875 48.140625 41.546875 
Q 48.578125 39.3125 48.578125 33.453125 
L 48.578125 21.734375 
Q 48.578125 9.46875 49.140625 6.21875 
Q 49.703125 2.984375 51.375 0 
L 42.1875 0 
Q 40.828125 2.734375 40.4375 6.390625 
z
M 39.703125 26.03125 
Q 34.90625 24.078125 25.34375 22.703125 
Q 19.921875 21.921875 17.671875 20.9375 
Q 15.4375 19.96875 14.203125 18.09375 
Q 12.984375 16.21875 12.984375 13.921875 
Q 12.984375 10.40625 15.640625 8.0625 
Q 18.3125 5.71875 23.4375 5.71875 
Q 28.515625 5.71875 32.46875 7.9375 
Q 36.421875 10.15625 38.28125 14.015625 
Q 39.703125 17 39.703125 22.796875 
z
" id="ArialMT-97"/>
       <path d="M 6.640625 61.46875 
L 6.640625 71.578125 
L 15.4375 71.578125 
L 15.4375 61.46875 
z
M 6.640625 0 
L 6.640625 51.859375 
L 15.4375 51.859375 
L 15.4375 0 
z
" id="ArialMT-105"/>
       <path d="M 6.59375 0 
L 6.59375 51.859375 
L 14.5 51.859375 
L 14.5 44.484375 
Q 20.21875 53.03125 31 53.03125 
Q 35.6875 53.03125 39.625 51.34375 
Q 43.5625 49.65625 45.515625 46.921875 
Q 47.46875 44.1875 48.25 40.4375 
Q 48.734375 37.984375 48.734375 31.890625 
L 48.734375 0 
L 39.9375 0 
L 39.9375 31.546875 
Q 39.9375 36.921875 38.90625 39.578125 
Q 37.890625 42.234375 35.28125 43.8125 
Q 32.671875 45.40625 29.15625 45.40625 
Q 23.53125 45.40625 19.453125 41.84375 
Q 15.375 38.28125 15.375 28.328125 
L 15.375 0 
z
" id="ArialMT-110"/>
       <path d="M 4.984375 -4.296875 
L 13.53125 -5.5625 
Q 14.0625 -9.515625 16.5 -11.328125 
Q 19.78125 -13.765625 25.4375 -13.765625 
Q 31.546875 -13.765625 34.859375 -11.328125 
Q 38.1875 -8.890625 39.359375 -4.5 
Q 40.046875 -1.8125 39.984375 6.78125 
Q 34.234375 0 25.640625 0 
Q 14.9375 0 9.078125 7.71875 
Q 3.21875 15.4375 3.21875 26.21875 
Q 3.21875 33.640625 5.90625 39.90625 
Q 8.59375 46.1875 13.6875 49.609375 
Q 18.796875 53.03125 25.6875 53.03125 
Q 34.859375 53.03125 40.828125 45.609375 
L 40.828125 51.859375 
L 48.921875 51.859375 
L 48.921875 7.03125 
Q 48.921875 -5.078125 46.453125 -10.125 
Q 44 -15.1875 38.640625 -18.109375 
Q 33.296875 -21.046875 25.484375 -21.046875 
Q 16.21875 -21.046875 10.5 -16.875 
Q 4.78125 -12.703125 4.984375 -4.296875 
z
M 12.25 26.859375 
Q 12.25 16.65625 16.296875 11.96875 
Q 20.359375 7.28125 26.46875 7.28125 
Q 32.515625 7.28125 36.609375 11.9375 
Q 40.71875 16.609375 40.71875 26.5625 
Q 40.71875 36.078125 36.5 40.90625 
Q 32.28125 45.75 26.3125 45.75 
Q 20.453125 45.75 16.34375 40.984375 
Q 12.25 36.234375 12.25 26.859375 
z
" id="ArialMT-103"/>
       <path d="M 6.59375 0 
L 6.59375 51.859375 
L 14.453125 51.859375 
L 14.453125 44.578125 
Q 16.890625 48.390625 20.9375 50.703125 
Q 25 53.03125 30.171875 53.03125 
Q 35.9375 53.03125 39.625 50.640625 
Q 43.3125 48.25 44.828125 43.953125 
Q 50.984375 53.03125 60.84375 53.03125 
Q 68.5625 53.03125 72.703125 48.75 
Q 76.859375 44.484375 76.859375 35.59375 
L 76.859375 0 
L 68.109375 0 
L 68.109375 32.671875 
Q 68.109375 37.9375 67.25 40.25 
Q 66.40625 42.578125 64.15625 43.984375 
Q 61.921875 45.40625 58.890625 45.40625 
Q 53.421875 45.40625 49.796875 41.765625 
Q 46.1875 38.140625 46.1875 30.125 
L 46.1875 0 
L 37.40625 0 
L 37.40625 33.6875 
Q 37.40625 39.546875 35.25 42.46875 
Q 33.109375 45.40625 28.21875 45.40625 
Q 24.515625 45.40625 21.359375 43.453125 
Q 18.21875 41.5 16.796875 37.734375 
Q 15.375 33.984375 15.375 26.90625 
L 15.375 0 
z
" id="ArialMT-109"/>
       <path d="M 42.09375 16.703125 
L 51.171875 15.578125 
Q 49.03125 7.625 43.21875 3.21875 
Q 37.40625 -1.171875 28.375 -1.171875 
Q 17 -1.171875 10.328125 5.828125 
Q 3.65625 12.84375 3.65625 25.484375 
Q 3.65625 38.578125 10.390625 45.796875 
Q 17.140625 53.03125 27.875 53.03125 
Q 38.28125 53.03125 44.875 45.953125 
Q 51.46875 38.875 51.46875 26.03125 
Q 51.46875 25.25 51.421875 23.6875 
L 12.75 23.6875 
Q 13.234375 15.140625 17.578125 10.59375 
Q 21.921875 6.0625 28.421875 6.0625 
Q 33.25 6.0625 36.671875 8.59375 
Q 40.09375 11.140625 42.09375 16.703125 
z
M 13.234375 30.90625 
L 42.1875 30.90625 
Q 41.609375 37.453125 38.875 40.71875 
Q 34.671875 45.796875 27.984375 45.796875 
Q 21.921875 45.796875 17.796875 41.75 
Q 13.671875 37.703125 13.234375 30.90625 
z
" id="ArialMT-101"/>
       <path d="M 3.078125 15.484375 
L 11.765625 16.84375 
Q 12.5 11.625 15.84375 8.84375 
Q 19.1875 6.0625 25.203125 6.0625 
Q 31.25 6.0625 34.171875 8.515625 
Q 37.109375 10.984375 37.109375 14.3125 
Q 37.109375 17.28125 34.515625 19 
Q 32.71875 20.171875 25.53125 21.96875 
Q 15.875 24.421875 12.140625 26.203125 
Q 8.40625 27.984375 6.46875 31.125 
Q 4.546875 34.28125 4.546875 38.09375 
Q 4.546875 41.546875 6.125 44.5 
Q 7.71875 47.46875 10.453125 49.421875 
Q 12.5 50.921875 16.03125 51.96875 
Q 19.578125 53.03125 23.640625 53.03125 
Q 29.734375 53.03125 34.34375 51.265625 
Q 38.96875 49.515625 41.15625 46.5 
Q 43.359375 43.5 44.1875 38.484375 
L 35.59375 37.3125 
Q 35.015625 41.3125 32.203125 43.546875 
Q 29.390625 45.796875 24.265625 45.796875 
Q 18.21875 45.796875 15.625 43.796875 
Q 13.03125 41.796875 13.03125 39.109375 
Q 13.03125 37.40625 14.109375 36.03125 
Q 15.1875 34.625 17.484375 33.6875 
Q 18.796875 33.203125 25.25 31.453125 
Q 34.578125 28.953125 38.25 27.359375 
Q 41.9375 25.78125 44.03125 22.75 
Q 46.140625 19.734375 46.140625 15.234375 
Q 46.140625 10.84375 43.578125 6.953125 
Q 41.015625 3.078125 36.171875 0.953125 
Q 31.34375 -1.171875 25.25 -1.171875 
Q 15.140625 -1.171875 9.84375 3.03125 
Q 4.546875 7.234375 3.078125 15.484375 
z
" id="ArialMT-115"/>
      </defs>
      <use xlink:href="#ArialMT-35"/>
      <use x="55.615234" xlink:href="#ArialMT-32"/>
      <use x="83.398438" xlink:href="#ArialMT-116"/>
      <use x="111.181641" xlink:href="#ArialMT-114"/>
      <use x="144.482422" xlink:href="#ArialMT-97"/>
      <use x="200.097656" xlink:href="#ArialMT-105"/>
      <use x="222.314453" xlink:href="#ArialMT-110"/>
      <use x="277.929688" xlink:href="#ArialMT-105"/>
      <use x="300.146484" xlink:href="#ArialMT-110"/>
      <use x="355.761719" xlink:href="#ArialMT-103"/>
      <use x="411.376953" xlink:href="#ArialMT-32"/>
      <use x="439.160156" xlink:href="#ArialMT-105"/>
      <use x="461.376953" xlink:href="#ArialMT-109"/>
      <use x="544.677734" xlink:href="#ArialMT-97"/>
      <use x="600.292969" xlink:href="#ArialMT-103"/>
      <use x="655.908203" xlink:href="#ArialMT-101"/>
      <use x="711.523438" xlink:href="#ArialMT-115"/>
     </g>
    </g>
   </g>
   <g id="matplotlib.axis_2">
    <g id="ytick_1">
     <g id="line2d_5">
      <path clip-path="url(#pd30ec1adfd)" d="M 40.5115 170.095163 
L 234.916884 170.095163 
" style="fill:none;stroke:#ffffff;stroke-linecap:round;stroke-width:0.8;"/>
     </g>
     <g id="text_6">
      <!-- 0.0 -->
      <g style="fill:#262626;" transform="translate(19.9795 173.244601)scale(0.088 -0.088)">
       <defs>
        <path d="M 9.078125 0 
L 9.078125 10.015625 
L 19.09375 10.015625 
L 19.09375 0 
z
" id="ArialMT-46"/>
       </defs>
       <use xlink:href="#ArialMT-48"/>
       <use x="55.615234" xlink:href="#ArialMT-46"/>
       <use x="83.398438" xlink:href="#ArialMT-48"/>
      </g>
     </g>
    </g>
    <g id="ytick_2">
     <g id="line2d_6">
      <path clip-path="url(#pd30ec1adfd)" d="M 40.5115 140.764146 
L 234.916884 140.764146 
" style="fill:none;stroke:#ffffff;stroke-linecap:round;stroke-width:0.8;"/>
     </g>
     <g id="text_7">
      <!-- 0.2 -->
      <g style="fill:#262626;" transform="translate(19.9795 143.913584)scale(0.088 -0.088)">
       <use xlink:href="#ArialMT-48"/>
       <use x="55.615234" xlink:href="#ArialMT-46"/>
       <use x="83.398438" xlink:href="#ArialMT-50"/>
      </g>
     </g>
    </g>
    <g id="ytick_3">
     <g id="line2d_7">
      <path clip-path="url(#pd30ec1adfd)" d="M 40.5115 111.433129 
L 234.916884 111.433129 
" style="fill:none;stroke:#ffffff;stroke-linecap:round;stroke-width:0.8;"/>
     </g>
     <g id="text_8">
      <!-- 0.4 -->
      <g style="fill:#262626;" transform="translate(19.9795 114.582566)scale(0.088 -0.088)">
       <defs>
        <path d="M 32.328125 0 
L 32.328125 17.140625 
L 1.265625 17.140625 
L 1.265625 25.203125 
L 33.9375 71.578125 
L 41.109375 71.578125 
L 41.109375 25.203125 
L 50.78125 25.203125 
L 50.78125 17.140625 
L 41.109375 17.140625 
L 41.109375 0 
z
M 32.328125 25.203125 
L 32.328125 57.46875 
L 9.90625 25.203125 
z
" id="ArialMT-52"/>
       </defs>
       <use xlink:href="#ArialMT-48"/>
       <use x="55.615234" xlink:href="#ArialMT-46"/>
       <use x="83.398438" xlink:href="#ArialMT-52"/>
      </g>
     </g>
    </g>
    <g id="ytick_4">
     <g id="line2d_8">
      <path clip-path="url(#pd30ec1adfd)" d="M 40.5115 82.102112 
L 234.916884 82.102112 
" style="fill:none;stroke:#ffffff;stroke-linecap:round;stroke-width:0.8;"/>
     </g>
     <g id="text_9">
      <!-- 0.6 -->
      <g style="fill:#262626;" transform="translate(19.9795 85.251549)scale(0.088 -0.088)">
       <defs>
        <path d="M 49.75 54.046875 
L 41.015625 53.375 
Q 39.84375 58.546875 37.703125 60.890625 
Q 34.125 64.65625 28.90625 64.65625 
Q 24.703125 64.65625 21.53125 62.3125 
Q 17.390625 59.28125 14.984375 53.46875 
Q 12.59375 47.65625 12.5 36.921875 
Q 15.671875 41.75 20.265625 44.09375 
Q 24.859375 46.4375 29.890625 46.4375 
Q 38.671875 46.4375 44.84375 39.96875 
Q 51.03125 33.5 51.03125 23.25 
Q 51.03125 16.5 48.125 10.71875 
Q 45.21875 4.9375 40.140625 1.859375 
Q 35.0625 -1.21875 28.609375 -1.21875 
Q 17.625 -1.21875 10.6875 6.859375 
Q 3.765625 14.9375 3.765625 33.5 
Q 3.765625 54.25 11.421875 63.671875 
Q 18.109375 71.875 29.4375 71.875 
Q 37.890625 71.875 43.28125 67.140625 
Q 48.6875 62.40625 49.75 54.046875 
z
M 13.875 23.1875 
Q 13.875 18.65625 15.796875 14.5 
Q 17.71875 10.359375 21.1875 8.171875 
Q 24.65625 6 28.46875 6 
Q 34.03125 6 38.03125 10.484375 
Q 42.046875 14.984375 42.046875 22.703125 
Q 42.046875 30.125 38.078125 34.390625 
Q 34.125 38.671875 28.125 38.671875 
Q 22.171875 38.671875 18.015625 34.390625 
Q 13.875 30.125 13.875 23.1875 
z
" id="ArialMT-54"/>
       </defs>
       <use xlink:href="#ArialMT-48"/>
       <use x="55.615234" xlink:href="#ArialMT-46"/>
       <use x="83.398438" xlink:href="#ArialMT-54"/>
      </g>
     </g>
    </g>
    <g id="ytick_5">
     <g id="line2d_9">
      <path clip-path="url(#pd30ec1adfd)" d="M 40.5115 52.771095 
L 234.916884 52.771095 
" style="fill:none;stroke:#ffffff;stroke-linecap:round;stroke-width:0.8;"/>
     </g>
     <g id="text_10">
      <!-- 0.8 -->
      <g style="fill:#262626;" transform="translate(19.9795 55.920532)scale(0.088 -0.088)">
       <defs>
        <path d="M 17.671875 38.8125 
Q 12.203125 40.828125 9.5625 44.53125 
Q 6.9375 48.25 6.9375 53.421875 
Q 6.9375 61.234375 12.546875 66.546875 
Q 18.171875 71.875 27.484375 71.875 
Q 36.859375 71.875 42.578125 66.421875 
Q 48.296875 60.984375 48.296875 53.171875 
Q 48.296875 48.1875 45.671875 44.5 
Q 43.0625 40.828125 37.75 38.8125 
Q 44.34375 36.671875 47.78125 31.875 
Q 51.21875 27.09375 51.21875 20.453125 
Q 51.21875 11.28125 44.71875 5.03125 
Q 38.234375 -1.21875 27.640625 -1.21875 
Q 17.046875 -1.21875 10.546875 5.046875 
Q 4.046875 11.328125 4.046875 20.703125 
Q 4.046875 27.6875 7.59375 32.390625 
Q 11.140625 37.109375 17.671875 38.8125 
z
M 15.921875 53.71875 
Q 15.921875 48.640625 19.1875 45.40625 
Q 22.46875 42.1875 27.6875 42.1875 
Q 32.765625 42.1875 36.015625 45.375 
Q 39.265625 48.578125 39.265625 53.21875 
Q 39.265625 58.0625 35.90625 61.359375 
Q 32.5625 64.65625 27.59375 64.65625 
Q 22.5625 64.65625 19.234375 61.421875 
Q 15.921875 58.203125 15.921875 53.71875 
z
M 13.09375 20.65625 
Q 13.09375 16.890625 14.875 13.375 
Q 16.65625 9.859375 20.171875 7.921875 
Q 23.6875 6 27.734375 6 
Q 34.03125 6 38.125 10.046875 
Q 42.234375 14.109375 42.234375 20.359375 
Q 42.234375 26.703125 38.015625 30.859375 
Q 33.796875 35.015625 27.4375 35.015625 
Q 21.234375 35.015625 17.15625 30.90625 
Q 13.09375 26.8125 13.09375 20.65625 
z
" id="ArialMT-56"/>
       </defs>
       <use xlink:href="#ArialMT-48"/>
       <use x="55.615234" xlink:href="#ArialMT-46"/>
       <use x="83.398438" xlink:href="#ArialMT-56"/>
      </g>
     </g>
    </g>
    <g id="ytick_6">
     <g id="line2d_10">
      <path clip-path="url(#pd30ec1adfd)" d="M 40.5115 23.440077 
L 234.916884 23.440077 
" style="fill:none;stroke:#ffffff;stroke-linecap:round;stroke-width:0.8;"/>
     </g>
     <g id="text_11">
      <!-- 1.0 -->
      <g style="fill:#262626;" transform="translate(19.9795 26.589515)scale(0.088 -0.088)">
       <use xlink:href="#ArialMT-49"/>
       <use x="55.615234" xlink:href="#ArialMT-46"/>
       <use x="83.398438" xlink:href="#ArialMT-48"/>
      </g>
     </g>
    </g>
    <g id="text_12">
     <!-- value -->
     <g style="fill:#262626;" transform="translate(14.0715 107.65525)rotate(-90)scale(0.096 -0.096)">
      <defs>
       <path d="M 21 0 
L 1.265625 51.859375 
L 10.546875 51.859375 
L 21.6875 20.796875 
Q 23.484375 15.765625 25 10.359375 
Q 26.171875 14.453125 28.265625 20.21875 
L 39.796875 51.859375 
L 48.828125 51.859375 
L 29.203125 0 
z
" id="ArialMT-118"/>
       <path d="M 6.390625 0 
L 6.390625 71.578125 
L 15.1875 71.578125 
L 15.1875 0 
z
" id="ArialMT-108"/>
       <path d="M 40.578125 0 
L 40.578125 7.625 
Q 34.515625 -1.171875 24.125 -1.171875 
Q 19.53125 -1.171875 15.546875 0.578125 
Q 11.578125 2.34375 9.640625 5 
Q 7.71875 7.671875 6.9375 11.53125 
Q 6.390625 14.109375 6.390625 19.734375 
L 6.390625 51.859375 
L 15.1875 51.859375 
L 15.1875 23.09375 
Q 15.1875 16.21875 15.71875 13.8125 
Q 16.546875 10.359375 19.234375 8.375 
Q 21.921875 6.390625 25.875 6.390625 
Q 29.828125 6.390625 33.296875 8.421875 
Q 36.765625 10.453125 38.203125 13.9375 
Q 39.65625 17.4375 39.65625 24.078125 
L 39.65625 51.859375 
L 48.4375 51.859375 
L 48.4375 0 
z
" id="ArialMT-117"/>
      </defs>
      <use xlink:href="#ArialMT-118"/>
      <use x="50" xlink:href="#ArialMT-97"/>
      <use x="105.615234" xlink:href="#ArialMT-108"/>
      <use x="127.832031" xlink:href="#ArialMT-117"/>
      <use x="183.447266" xlink:href="#ArialMT-101"/>
     </g>
    </g>
   </g>
   <g id="LineCollection_1">
    <path clip-path="url(#pd30ec1adfd)" d="M 0 0 
" style="fill:none;stroke:#179c7d;stroke-linecap:round;stroke-width:1.2;"/>
    <path clip-path="url(#pd30ec1adfd)" d="M 49.348108 110.773181 
L 49.348108 107.208729 
" style="fill:none;stroke:#179c7d;stroke-linecap:round;stroke-width:1.2;"/>
    <path clip-path="url(#pd30ec1adfd)" d="M 65.123912 108.500394 
L 65.123912 106.035855 
" style="fill:none;stroke:#179c7d;stroke-linecap:round;stroke-width:1.2;"/>
    <path clip-path="url(#pd30ec1adfd)" d="M 85.978391 108.984356 
L 85.978391 106.754832 
" style="fill:none;stroke:#179c7d;stroke-linecap:round;stroke-width:1.2;"/>
    <path clip-path="url(#pd30ec1adfd)" d="M 101.754195 109.321296 
L 101.754195 107.854378 
" style="fill:none;stroke:#179c7d;stroke-linecap:round;stroke-width:1.2;"/>
    <path clip-path="url(#pd30ec1adfd)" d="M 117.529999 95.770366 
L 117.529999 94.611791 
" style="fill:none;stroke:#179c7d;stroke-linecap:round;stroke-width:1.2;"/>
    <path clip-path="url(#pd30ec1adfd)" d="M 138.384477 91.224058 
L 138.384477 89.801137 
" style="fill:none;stroke:#179c7d;stroke-linecap:round;stroke-width:1.2;"/>
    <path clip-path="url(#pd30ec1adfd)" d="M 154.160281 84.49259 
L 154.160281 83.422008 
" style="fill:none;stroke:#179c7d;stroke-linecap:round;stroke-width:1.2;"/>
    <path clip-path="url(#pd30ec1adfd)" d="M 169.936085 79.75563 
L 169.936085 78.596689 
" style="fill:none;stroke:#179c7d;stroke-linecap:round;stroke-width:1.2;"/>
    <path clip-path="url(#pd30ec1adfd)" d="M 190.790564 74.315093 
L 190.790564 73.214814 
" style="fill:none;stroke:#179c7d;stroke-linecap:round;stroke-width:1.2;"/>
    <path clip-path="url(#pd30ec1adfd)" d="M 206.566368 70.135423 
L 206.566368 69.416447 
" style="fill:none;stroke:#179c7d;stroke-linecap:round;stroke-width:1.2;"/>
    <path clip-path="url(#pd30ec1adfd)" d="M 0 0 
" style="fill:none;stroke:#179c7d;stroke-linecap:round;stroke-width:1.2;"/>
   </g>
   <g id="LineCollection_2">
    <path clip-path="url(#pd30ec1adfd)" d="M 49.348108 136.673936 
L 49.348108 116.520594 
" style="fill:none;stroke:#006e92;stroke-linecap:round;stroke-width:1.2;"/>
    <path clip-path="url(#pd30ec1adfd)" d="M 65.123912 137.729486 
L 65.123912 123.839783 
" style="fill:none;stroke:#006e92;stroke-linecap:round;stroke-width:1.2;"/>
    <path clip-path="url(#pd30ec1adfd)" d="M 85.978391 127.301576 
L 85.978391 119.997419 
" style="fill:none;stroke:#006e92;stroke-linecap:round;stroke-width:1.2;"/>
    <path clip-path="url(#pd30ec1adfd)" d="M 101.754195 124.604589 
L 101.754195 116.050198 
" style="fill:none;stroke:#006e92;stroke-linecap:round;stroke-width:1.2;"/>
    <path clip-path="url(#pd30ec1adfd)" d="M 117.529999 112.343124 
L 117.529999 105.346576 
" style="fill:none;stroke:#006e92;stroke-linecap:round;stroke-width:1.2;"/>
    <path clip-path="url(#pd30ec1adfd)" d="M 138.384477 104.658764 
L 138.384477 102.17846 
" style="fill:none;stroke:#006e92;stroke-linecap:round;stroke-width:1.2;"/>
    <path clip-path="url(#pd30ec1adfd)" d="M 154.160281 100.023363 
L 154.160281 96.986503 
" style="fill:none;stroke:#006e92;stroke-linecap:round;stroke-width:1.2;"/>
    <path clip-path="url(#pd30ec1adfd)" d="M 169.936085 98.703834 
L 169.936085 96.649563 
" style="fill:none;stroke:#006e92;stroke-linecap:round;stroke-width:1.2;"/>
    <path clip-path="url(#pd30ec1adfd)" d="M 190.790564 97.090262 
L 190.790564 95.374397 
" style="fill:none;stroke:#006e92;stroke-linecap:round;stroke-width:1.2;"/>
    <path clip-path="url(#pd30ec1adfd)" d="M 206.566368 97.251949 
L 206.566368 95.623711 
" style="fill:none;stroke:#006e92;stroke-linecap:round;stroke-width:1.2;"/>
    <path clip-path="url(#pd30ec1adfd)" d="M 0 0 
" style="fill:none;stroke:#006e92;stroke-linecap:round;stroke-width:1.2;"/>
   </g>
   <g id="line2d_11">
    <path clip-path="url(#pd30ec1adfd)" d="M -1 108.827572 
L 49.348108 108.822668 
L 65.123912 107.253459 
L 85.978391 107.913407 
L 101.754195 108.558689 
L 117.529999 95.095752 
L 138.384477 90.490783 
L 154.160281 83.964631 
L 169.936085 79.183676 
L 190.790564 73.757437 
L 206.566368 69.753754 
L 226.080276 65.970052 
" style="fill:none;stroke:#179c7d;stroke-linecap:round;stroke-width:1.2;"/>
   </g>
   <g id="line2d_12">
    <path clip-path="url(#pd30ec1adfd)" d="M 49.348108 125.468021 
L 65.123912 130.762269 
L 85.978391 123.825484 
L 101.754195 120.305762 
L 117.529999 108.822668 
L 138.384477 103.425761 
L 154.160281 98.615474 
L 169.936085 97.706213 
L 190.790564 96.195666 
L 206.566368 96.459645 
L 226.080276 95.59438 
" style="fill:none;stroke:#006e92;stroke-linecap:round;stroke-width:1.2;"/>
   </g>
   <g id="line2d_13"/>
   <g id="line2d_14"/>
   <g id="patch_3">
    <path d="M 40.5115 172.163 
L 40.5115 20.199 
" style="fill:none;stroke:#ffffff;stroke-linecap:square;stroke-linejoin:miter;"/>
   </g>
   <g id="patch_4">
    <path d="M 40.5115 172.163 
L 234.916884 172.163 
" style="fill:none;stroke:#ffffff;stroke-linecap:square;stroke-linejoin:miter;"/>
   </g>
   <g id="text_13">
    <!-- metric = AP -->
    <g style="fill:#262626;" transform="translate(113.038442 14.199)scale(0.096 -0.096)">
     <defs>
      <path d="M 40.4375 19 
L 49.078125 17.875 
Q 47.65625 8.9375 41.8125 3.875 
Q 35.984375 -1.171875 27.484375 -1.171875 
Q 16.84375 -1.171875 10.375 5.78125 
Q 3.90625 12.75 3.90625 25.734375 
Q 3.90625 34.125 6.6875 40.421875 
Q 9.46875 46.734375 15.15625 49.875 
Q 20.84375 53.03125 27.546875 53.03125 
Q 35.984375 53.03125 41.359375 48.75 
Q 46.734375 44.484375 48.25 36.625 
L 39.703125 35.296875 
Q 38.484375 40.53125 35.375 43.15625 
Q 32.28125 45.796875 27.875 45.796875 
Q 21.234375 45.796875 17.078125 41.03125 
Q 12.9375 36.28125 12.9375 25.984375 
Q 12.9375 15.53125 16.9375 10.796875 
Q 20.953125 6.0625 27.390625 6.0625 
Q 32.5625 6.0625 36.03125 9.234375 
Q 39.5 12.40625 40.4375 19 
z
" id="ArialMT-99"/>
      <path d="M 52.828125 42.09375 
L 5.5625 42.09375 
L 5.5625 50.296875 
L 52.828125 50.296875 
z
M 52.828125 20.359375 
L 5.5625 20.359375 
L 5.5625 28.5625 
L 52.828125 28.5625 
z
" id="ArialMT-61"/>
      <path d="M -0.140625 0 
L 27.34375 71.578125 
L 37.546875 71.578125 
L 66.84375 0 
L 56.0625 0 
L 47.703125 21.6875 
L 17.78125 21.6875 
L 9.90625 0 
z
M 20.515625 29.390625 
L 44.78125 29.390625 
L 37.3125 49.21875 
Q 33.890625 58.25 32.234375 64.0625 
Q 30.859375 57.171875 28.375 50.390625 
z
" id="ArialMT-65"/>
      <path d="M 7.71875 0 
L 7.71875 71.578125 
L 34.71875 71.578125 
Q 41.84375 71.578125 45.609375 70.90625 
Q 50.875 70.015625 54.4375 67.546875 
Q 58.015625 65.09375 60.1875 60.640625 
Q 62.359375 56.203125 62.359375 50.875 
Q 62.359375 41.75 56.546875 35.421875 
Q 50.734375 29.109375 35.546875 29.109375 
L 17.1875 29.109375 
L 17.1875 0 
z
M 17.1875 37.546875 
L 35.6875 37.546875 
Q 44.875 37.546875 48.734375 40.96875 
Q 52.59375 44.390625 52.59375 50.59375 
Q 52.59375 55.078125 50.3125 58.265625 
Q 48.046875 61.46875 44.34375 62.5 
Q 41.9375 63.140625 35.5 63.140625 
L 17.1875 63.140625 
z
" id="ArialMT-80"/>
     </defs>
     <use xlink:href="#ArialMT-109"/>
     <use x="83.300781" xlink:href="#ArialMT-101"/>
     <use x="138.916016" xlink:href="#ArialMT-116"/>
     <use x="166.699219" xlink:href="#ArialMT-114"/>
     <use x="200" xlink:href="#ArialMT-105"/>
     <use x="222.216797" xlink:href="#ArialMT-99"/>
     <use x="272.216797" xlink:href="#ArialMT-32"/>
     <use x="300" xlink:href="#ArialMT-61"/>
     <use x="358.398438" xlink:href="#ArialMT-32"/>
     <use x="380.681641" xlink:href="#ArialMT-65"/>
     <use x="447.380859" xlink:href="#ArialMT-80"/>
    </g>
   </g>
  </g>
  <g id="axes_2">
   <g id="patch_5">
    <path d="M 245.271722 172.163 
L 439.677107 172.163 
L 439.677107 20.199 
L 245.271722 20.199 
z
" style="fill:#eaeaf2;"/>
   </g>
   <g id="matplotlib.axis_3">
    <g id="xtick_34">
     <g id="line2d_15">
      <path clip-path="url(#p94e358923a)" d="M 254.10833 172.163 
L 254.10833 20.199 
" style="fill:none;stroke:#ffffff;stroke-linecap:round;stroke-width:0.8;"/>
     </g>
     <g id="text_14">
      <!-- $\mathdefault{10^{0}}$ -->
      <g style="fill:#262626;" transform="translate(247.20033 189.538)scale(0.088 -0.088)">
       <use transform="translate(0 0.99375)" xlink:href="#ArialMT-49"/>
       <use transform="translate(55.615234 0.99375)" xlink:href="#ArialMT-48"/>
       <use transform="translate(112.972813 70.6875)scale(0.7)" xlink:href="#ArialMT-48"/>
      </g>
     </g>
    </g>
    <g id="xtick_35">
     <g id="line2d_16">
      <path clip-path="url(#p94e358923a)" d="M 306.514417 172.163 
L 306.514417 20.199 
" style="fill:none;stroke:#ffffff;stroke-linecap:round;stroke-width:0.8;"/>
     </g>
     <g id="text_15">
      <!-- $\mathdefault{10^{1}}$ -->
      <g style="fill:#262626;" transform="translate(299.606417 189.538)scale(0.088 -0.088)">
       <use transform="translate(0 0.99375)" xlink:href="#ArialMT-49"/>
       <use transform="translate(55.615234 0.99375)" xlink:href="#ArialMT-48"/>
       <use transform="translate(112.972813 70.6875)scale(0.7)" xlink:href="#ArialMT-49"/>
      </g>
     </g>
    </g>
    <g id="xtick_36">
     <g id="line2d_17">
      <path clip-path="url(#p94e358923a)" d="M 358.920503 172.163 
L 358.920503 20.199 
" style="fill:none;stroke:#ffffff;stroke-linecap:round;stroke-width:0.8;"/>
     </g>
     <g id="text_16">
      <!-- $\mathdefault{10^{2}}$ -->
      <g style="fill:#262626;" transform="translate(352.012503 189.538)scale(0.088 -0.088)">
       <use transform="translate(0 0.99375)" xlink:href="#ArialMT-49"/>
       <use transform="translate(55.615234 0.99375)" xlink:href="#ArialMT-48"/>
       <use transform="translate(112.972813 70.6875)scale(0.7)" xlink:href="#ArialMT-50"/>
      </g>
     </g>
    </g>
    <g id="xtick_37">
     <g id="line2d_18">
      <path clip-path="url(#p94e358923a)" d="M 411.32659 172.163 
L 411.32659 20.199 
" style="fill:none;stroke:#ffffff;stroke-linecap:round;stroke-width:0.8;"/>
     </g>
     <g id="text_17">
      <!-- $\mathdefault{10^{3}}$ -->
      <g style="fill:#262626;" transform="translate(404.41859 189.538)scale(0.088 -0.088)">
       <use transform="translate(0 0.99375)" xlink:href="#ArialMT-49"/>
       <use transform="translate(55.615234 0.99375)" xlink:href="#ArialMT-48"/>
       <use transform="translate(112.972813 70.6875)scale(0.7)" xlink:href="#ArialMT-51"/>
      </g>
     </g>
    </g>
    <g id="xtick_38"/>
    <g id="xtick_39"/>
    <g id="xtick_40"/>
    <g id="xtick_41"/>
    <g id="xtick_42"/>
    <g id="xtick_43"/>
    <g id="xtick_44"/>
    <g id="xtick_45"/>
    <g id="xtick_46"/>
    <g id="xtick_47"/>
    <g id="xtick_48"/>
    <g id="xtick_49"/>
    <g id="xtick_50"/>
    <g id="xtick_51"/>
    <g id="xtick_52"/>
    <g id="xtick_53"/>
    <g id="xtick_54"/>
    <g id="xtick_55"/>
    <g id="xtick_56"/>
    <g id="xtick_57"/>
    <g id="xtick_58"/>
    <g id="xtick_59"/>
    <g id="xtick_60"/>
    <g id="xtick_61"/>
    <g id="xtick_62"/>
    <g id="xtick_63"/>
    <g id="xtick_64"/>
    <g id="xtick_65"/>
    <g id="xtick_66"/>
    <g id="text_18">
     <!-- # training images -->
     <g style="fill:#262626;" transform="translate(305.923914 202.2755)scale(0.096 -0.096)">
      <use xlink:href="#ArialMT-35"/>
      <use x="55.615234" xlink:href="#ArialMT-32"/>
      <use x="83.398438" xlink:href="#ArialMT-116"/>
      <use x="111.181641" xlink:href="#ArialMT-114"/>
      <use x="144.482422" xlink:href="#ArialMT-97"/>
      <use x="200.097656" xlink:href="#ArialMT-105"/>
      <use x="222.314453" xlink:href="#ArialMT-110"/>
      <use x="277.929688" xlink:href="#ArialMT-105"/>
      <use x="300.146484" xlink:href="#ArialMT-110"/>
      <use x="355.761719" xlink:href="#ArialMT-103"/>
      <use x="411.376953" xlink:href="#ArialMT-32"/>
      <use x="439.160156" xlink:href="#ArialMT-105"/>
      <use x="461.376953" xlink:href="#ArialMT-109"/>
      <use x="544.677734" xlink:href="#ArialMT-97"/>
      <use x="600.292969" xlink:href="#ArialMT-103"/>
      <use x="655.908203" xlink:href="#ArialMT-101"/>
      <use x="711.523438" xlink:href="#ArialMT-115"/>
     </g>
    </g>
   </g>
   <g id="matplotlib.axis_4">
    <g id="ytick_7">
     <g id="line2d_19">
      <path clip-path="url(#p94e358923a)" d="M 245.271722 170.095163 
L 439.677107 170.095163 
" style="fill:none;stroke:#ffffff;stroke-linecap:round;stroke-width:0.8;"/>
     </g>
    </g>
    <g id="ytick_8">
     <g id="line2d_20">
      <path clip-path="url(#p94e358923a)" d="M 245.271722 140.764146 
L 439.677107 140.764146 
" style="fill:none;stroke:#ffffff;stroke-linecap:round;stroke-width:0.8;"/>
     </g>
    </g>
    <g id="ytick_9">
     <g id="line2d_21">
      <path clip-path="url(#p94e358923a)" d="M 245.271722 111.433129 
L 439.677107 111.433129 
" style="fill:none;stroke:#ffffff;stroke-linecap:round;stroke-width:0.8;"/>
     </g>
    </g>
    <g id="ytick_10">
     <g id="line2d_22">
      <path clip-path="url(#p94e358923a)" d="M 245.271722 82.102112 
L 439.677107 82.102112 
" style="fill:none;stroke:#ffffff;stroke-linecap:round;stroke-width:0.8;"/>
     </g>
    </g>
    <g id="ytick_11">
     <g id="line2d_23">
      <path clip-path="url(#p94e358923a)" d="M 245.271722 52.771095 
L 439.677107 52.771095 
" style="fill:none;stroke:#ffffff;stroke-linecap:round;stroke-width:0.8;"/>
     </g>
    </g>
    <g id="ytick_12">
     <g id="line2d_24">
      <path clip-path="url(#p94e358923a)" d="M 245.271722 23.440077 
L 439.677107 23.440077 
" style="fill:none;stroke:#ffffff;stroke-linecap:round;stroke-width:0.8;"/>
     </g>
    </g>
   </g>
   <g id="LineCollection_3">
    <path clip-path="url(#p94e358923a)" d="M 0 0 
" style="fill:none;stroke:#179c7d;stroke-linecap:round;stroke-width:1.2;"/>
    <path clip-path="url(#p94e358923a)" d="M 254.10833 77.028212 
L 254.10833 71.23387 
" style="fill:none;stroke:#179c7d;stroke-linecap:round;stroke-width:1.2;"/>
    <path clip-path="url(#p94e358923a)" d="M 269.884134 73.376501 
L 269.884134 68.902787 
" style="fill:none;stroke:#179c7d;stroke-linecap:round;stroke-width:1.2;"/>
    <path clip-path="url(#p94e358923a)" d="M 290.738613 74.285762 
L 290.738613 70.236982 
" style="fill:none;stroke:#179c7d;stroke-linecap:round;stroke-width:1.2;"/>
    <path clip-path="url(#p94e358923a)" d="M 306.514417 75.619957 
L 306.514417 72.554499 
" style="fill:none;stroke:#179c7d;stroke-linecap:round;stroke-width:1.2;"/>
    <path clip-path="url(#p94e358923a)" d="M 322.290221 51.260547 
L 322.290221 49.309668 
" style="fill:none;stroke:#179c7d;stroke-linecap:round;stroke-width:1.2;"/>
    <path clip-path="url(#p94e358923a)" d="M 343.144699 44.617438 
L 343.144699 42.9892 
" style="fill:none;stroke:#179c7d;stroke-linecap:round;stroke-width:1.2;"/>
    <path clip-path="url(#p94e358923a)" d="M 358.920503 36.771025 
L 358.920503 35.788436 
" style="fill:none;stroke:#179c7d;stroke-linecap:round;stroke-width:1.2;"/>
    <path clip-path="url(#p94e358923a)" d="M 374.696307 33.324997 
L 374.696307 32.136724 
" style="fill:none;stroke:#179c7d;stroke-linecap:round;stroke-width:1.2;"/>
    <path clip-path="url(#p94e358923a)" d="M 395.550786 30.509219 
L 395.550786 29.555594 
" style="fill:none;stroke:#179c7d;stroke-linecap:round;stroke-width:1.2;"/>
    <path clip-path="url(#p94e358923a)" d="M 411.32659 28.587671 
L 411.32659 28.411685 
" style="fill:none;stroke:#179c7d;stroke-linecap:round;stroke-width:1.2;"/>
    <path clip-path="url(#p94e358923a)" d="M 0 0 
" style="fill:none;stroke:#179c7d;stroke-linecap:round;stroke-width:1.2;"/>
   </g>
   <g id="LineCollection_4">
    <path clip-path="url(#p94e358923a)" d="M 254.10833 88.804982 
L 254.10833 68.696737 
" style="fill:none;stroke:#006e92;stroke-linecap:round;stroke-width:1.2;"/>
    <path clip-path="url(#p94e358923a)" d="M 269.884134 78.274781 
L 269.884134 69.108105 
" style="fill:none;stroke:#006e92;stroke-linecap:round;stroke-width:1.2;"/>
    <path clip-path="url(#p94e358923a)" d="M 290.738613 64.154829 
L 290.738613 57.903656 
" style="fill:none;stroke:#006e92;stroke-linecap:round;stroke-width:1.2;"/>
    <path clip-path="url(#p94e358923a)" d="M 306.514417 60.045553 
L 306.514417 52.843689 
" style="fill:none;stroke:#006e92;stroke-linecap:round;stroke-width:1.2;"/>
    <path clip-path="url(#p94e358923a)" d="M 322.290221 49.545049 
L 322.290221 45.14503 
" style="fill:none;stroke:#006e92;stroke-linecap:round;stroke-width:1.2;"/>
    <path clip-path="url(#p94e358923a)" d="M 343.144699 42.563901 
L 343.144699 40.261416 
" style="fill:none;stroke:#006e92;stroke-linecap:round;stroke-width:1.2;"/>
    <path clip-path="url(#p94e358923a)" d="M 358.920503 39.264528 
L 358.920503 37.591927 
" style="fill:none;stroke:#006e92;stroke-linecap:round;stroke-width:1.2;"/>
    <path clip-path="url(#p94e358923a)" d="M 374.696307 38.105586 
L 374.696307 36.785324 
" style="fill:none;stroke:#006e92;stroke-linecap:round;stroke-width:1.2;"/>
    <path clip-path="url(#p94e358923a)" d="M 395.550786 36.448384 
L 395.550786 35.788436 
" style="fill:none;stroke:#006e92;stroke-linecap:round;stroke-width:1.2;"/>
    <path clip-path="url(#p94e358923a)" d="M 411.32659 35.891461 
L 411.32659 35.436463 
" style="fill:none;stroke:#006e92;stroke-linecap:round;stroke-width:1.2;"/>
    <path clip-path="url(#p94e358923a)" d="M 0 0 
" style="fill:none;stroke:#006e92;stroke-linecap:round;stroke-width:1.2;"/>
   </g>
   <g id="line2d_25">
    <path clip-path="url(#p94e358923a)" d="M -1 74.094224 
L 254.10833 74.050748 
L 269.884134 71.132311 
L 290.738613 72.37888 
L 306.514417 74.065413 
L 322.290221 50.1753 
L 343.144699 43.766472 
L 358.920503 36.272397 
L 374.696307 32.723344 
L 395.550786 30.068887 
L 411.32659 28.499678 
L 430.840498 27.106455 
" style="fill:none;stroke:#179c7d;stroke-linecap:round;stroke-width:1.2;"/>
   </g>
   <g id="line2d_26">
    <path clip-path="url(#p94e358923a)" d="M 254.10833 78.699714 
L 269.884134 73.625448 
L 290.738613 60.954448 
L 306.514417 56.202824 
L 322.290221 47.374187 
L 343.144699 41.302667 
L 358.920503 38.486889 
L 374.696307 37.430973 
L 395.550786 36.125742 
L 411.32659 35.671112 
L 430.840498 36.19907 
" style="fill:none;stroke:#006e92;stroke-linecap:round;stroke-width:1.2;"/>
   </g>
   <g id="line2d_27"/>
   <g id="line2d_28"/>
   <g id="patch_6">
    <path d="M 245.271722 172.163 
L 245.271722 20.199 
" style="fill:none;stroke:#ffffff;stroke-linecap:square;stroke-linejoin:miter;"/>
   </g>
   <g id="patch_7">
    <path d="M 245.271722 172.163 
L 439.677107 172.163 
" style="fill:none;stroke:#ffffff;stroke-linecap:square;stroke-linejoin:miter;"/>
   </g>
   <g id="text_19">
    <!-- metric = AP@.5 -->
    <g style="fill:#262626;" transform="translate(308.923164 14.199)scale(0.096 -0.096)">
     <defs>
      <path d="M 56.6875 7.953125 
Q 53.515625 4.296875 49.578125 2.078125 
Q 45.65625 -0.140625 41.703125 -0.140625 
Q 37.359375 -0.140625 33.25 2.390625 
Q 29.15625 4.9375 26.59375 10.203125 
Q 24.03125 15.484375 24.03125 21.78125 
Q 24.03125 29.546875 28 37.328125 
Q 31.984375 45.125 37.890625 49.03125 
Q 43.796875 52.9375 49.359375 52.9375 
Q 53.609375 52.9375 57.46875 50.703125 
Q 61.328125 48.484375 64.109375 43.953125 
L 65.765625 51.515625 
L 74.515625 51.515625 
L 67.484375 18.75 
Q 66.015625 11.921875 66.015625 11.1875 
Q 66.015625 9.859375 67.015625 8.90625 
Q 68.015625 7.953125 69.4375 7.953125 
Q 72.015625 7.953125 76.21875 10.9375 
Q 81.78125 14.84375 85.03125 21.40625 
Q 88.28125 27.984375 88.28125 34.96875 
Q 88.28125 43.109375 84.109375 50.1875 
Q 79.9375 57.28125 71.65625 61.515625 
Q 63.375 65.765625 53.375 65.765625 
Q 41.9375 65.765625 32.484375 60.421875 
Q 23.046875 55.078125 17.84375 45.09375 
Q 12.640625 35.109375 12.640625 23.6875 
Q 12.640625 11.71875 17.84375 3.078125 
Q 23.046875 -5.5625 32.875 -9.6875 
Q 42.71875 -13.8125 54.6875 -13.8125 
Q 67.484375 -13.8125 76.125 -9.515625 
Q 84.765625 -5.21875 89.0625 0.921875 
L 97.90625 0.921875 
Q 95.40625 -4.203125 89.34375 -9.515625 
Q 83.296875 -14.84375 74.953125 -17.9375 
Q 66.609375 -21.046875 54.828125 -21.046875 
Q 44 -21.046875 34.84375 -18.265625 
Q 25.6875 -15.484375 19.234375 -9.890625 
Q 12.796875 -4.296875 9.515625 2.984375 
Q 5.421875 12.203125 5.421875 22.90625 
Q 5.421875 34.8125 10.296875 45.609375 
Q 16.265625 58.84375 27.21875 65.875 
Q 38.1875 72.90625 53.8125 72.90625 
Q 65.921875 72.90625 75.5625 67.9375 
Q 85.203125 62.984375 90.765625 53.171875 
Q 95.515625 44.734375 95.515625 34.8125 
Q 95.515625 20.65625 85.546875 9.671875 
Q 76.65625 -0.203125 66.109375 -0.203125 
Q 62.75 -0.203125 60.671875 0.828125 
Q 58.59375 1.859375 57.625 3.765625 
Q 56.984375 4.984375 56.6875 7.953125 
z
M 33.0625 21.1875 
Q 33.0625 14.5 36.234375 10.78125 
Q 39.40625 7.078125 43.5 7.078125 
Q 46.234375 7.078125 49.265625 8.71875 
Q 52.296875 10.359375 55.046875 13.578125 
Q 57.8125 16.796875 59.5625 21.75 
Q 61.328125 26.703125 61.328125 31.6875 
Q 61.328125 38.328125 58.03125 41.984375 
Q 54.734375 45.65625 50 45.65625 
Q 46.875 45.65625 44.109375 44.0625 
Q 41.359375 42.484375 38.765625 38.96875 
Q 36.1875 35.453125 34.625 30.421875 
Q 33.0625 25.390625 33.0625 21.1875 
z
" id="ArialMT-64"/>
      <path d="M 4.15625 18.75 
L 13.375 19.53125 
Q 14.40625 12.796875 18.140625 9.390625 
Q 21.875 6 27.15625 6 
Q 33.5 6 37.890625 10.78125 
Q 42.28125 15.578125 42.28125 23.484375 
Q 42.28125 31 38.0625 35.34375 
Q 33.84375 39.703125 27 39.703125 
Q 22.75 39.703125 19.328125 37.765625 
Q 15.921875 35.84375 13.96875 32.765625 
L 5.71875 33.84375 
L 12.640625 70.609375 
L 48.25 70.609375 
L 48.25 62.203125 
L 19.671875 62.203125 
L 15.828125 42.96875 
Q 22.265625 47.46875 29.34375 47.46875 
Q 38.71875 47.46875 45.15625 40.96875 
Q 51.609375 34.46875 51.609375 24.265625 
Q 51.609375 14.546875 45.953125 7.46875 
Q 39.0625 -1.21875 27.15625 -1.21875 
Q 17.390625 -1.21875 11.203125 4.25 
Q 5.03125 9.71875 4.15625 18.75 
z
" id="ArialMT-53"/>
     </defs>
     <use xlink:href="#ArialMT-109"/>
     <use x="83.300781" xlink:href="#ArialMT-101"/>
     <use x="138.916016" xlink:href="#ArialMT-116"/>
     <use x="166.699219" xlink:href="#ArialMT-114"/>
     <use x="200" xlink:href="#ArialMT-105"/>
     <use x="222.216797" xlink:href="#ArialMT-99"/>
     <use x="272.216797" xlink:href="#ArialMT-32"/>
     <use x="300" xlink:href="#ArialMT-61"/>
     <use x="358.398438" xlink:href="#ArialMT-32"/>
     <use x="380.681641" xlink:href="#ArialMT-65"/>
     <use x="447.380859" xlink:href="#ArialMT-80"/>
     <use x="514.080078" xlink:href="#ArialMT-64"/>
     <use x="615.59375" xlink:href="#ArialMT-46"/>
     <use x="643.376953" xlink:href="#ArialMT-53"/>
    </g>
   </g>
  </g>
  <g id="axes_3">
   <g id="patch_8">
    <path d="M 450.031944 172.163 
L 644.437329 172.163 
L 644.437329 20.199 
L 450.031944 20.199 
z
" style="fill:#eaeaf2;"/>
   </g>
   <g id="matplotlib.axis_5">
    <g id="xtick_67">
     <g id="line2d_29">
      <path clip-path="url(#paf162d1f99)" d="M 458.868553 172.163 
L 458.868553 20.199 
" style="fill:none;stroke:#ffffff;stroke-linecap:round;stroke-width:0.8;"/>
     </g>
     <g id="text_20">
      <!-- $\mathdefault{10^{0}}$ -->
      <g style="fill:#262626;" transform="translate(451.960553 189.538)scale(0.088 -0.088)">
       <use transform="translate(0 0.99375)" xlink:href="#ArialMT-49"/>
       <use transform="translate(55.615234 0.99375)" xlink:href="#ArialMT-48"/>
       <use transform="translate(112.972813 70.6875)scale(0.7)" xlink:href="#ArialMT-48"/>
      </g>
     </g>
    </g>
    <g id="xtick_68">
     <g id="line2d_30">
      <path clip-path="url(#paf162d1f99)" d="M 511.274639 172.163 
L 511.274639 20.199 
" style="fill:none;stroke:#ffffff;stroke-linecap:round;stroke-width:0.8;"/>
     </g>
     <g id="text_21">
      <!-- $\mathdefault{10^{1}}$ -->
      <g style="fill:#262626;" transform="translate(504.366639 189.538)scale(0.088 -0.088)">
       <use transform="translate(0 0.99375)" xlink:href="#ArialMT-49"/>
       <use transform="translate(55.615234 0.99375)" xlink:href="#ArialMT-48"/>
       <use transform="translate(112.972813 70.6875)scale(0.7)" xlink:href="#ArialMT-49"/>
      </g>
     </g>
    </g>
    <g id="xtick_69">
     <g id="line2d_31">
      <path clip-path="url(#paf162d1f99)" d="M 563.680725 172.163 
L 563.680725 20.199 
" style="fill:none;stroke:#ffffff;stroke-linecap:round;stroke-width:0.8;"/>
     </g>
     <g id="text_22">
      <!-- $\mathdefault{10^{2}}$ -->
      <g style="fill:#262626;" transform="translate(556.772725 189.538)scale(0.088 -0.088)">
       <use transform="translate(0 0.99375)" xlink:href="#ArialMT-49"/>
       <use transform="translate(55.615234 0.99375)" xlink:href="#ArialMT-48"/>
       <use transform="translate(112.972813 70.6875)scale(0.7)" xlink:href="#ArialMT-50"/>
      </g>
     </g>
    </g>
    <g id="xtick_70">
     <g id="line2d_32">
      <path clip-path="url(#paf162d1f99)" d="M 616.086812 172.163 
L 616.086812 20.199 
" style="fill:none;stroke:#ffffff;stroke-linecap:round;stroke-width:0.8;"/>
     </g>
     <g id="text_23">
      <!-- $\mathdefault{10^{3}}$ -->
      <g style="fill:#262626;" transform="translate(609.178812 189.538)scale(0.088 -0.088)">
       <use transform="translate(0 0.99375)" xlink:href="#ArialMT-49"/>
       <use transform="translate(55.615234 0.99375)" xlink:href="#ArialMT-48"/>
       <use transform="translate(112.972813 70.6875)scale(0.7)" xlink:href="#ArialMT-51"/>
      </g>
     </g>
    </g>
    <g id="xtick_71"/>
    <g id="xtick_72"/>
    <g id="xtick_73"/>
    <g id="xtick_74"/>
    <g id="xtick_75"/>
    <g id="xtick_76"/>
    <g id="xtick_77"/>
    <g id="xtick_78"/>
    <g id="xtick_79"/>
    <g id="xtick_80"/>
    <g id="xtick_81"/>
    <g id="xtick_82"/>
    <g id="xtick_83"/>
    <g id="xtick_84"/>
    <g id="xtick_85"/>
    <g id="xtick_86"/>
    <g id="xtick_87"/>
    <g id="xtick_88"/>
    <g id="xtick_89"/>
    <g id="xtick_90"/>
    <g id="xtick_91"/>
    <g id="xtick_92"/>
    <g id="xtick_93"/>
    <g id="xtick_94"/>
    <g id="xtick_95"/>
    <g id="xtick_96"/>
    <g id="xtick_97"/>
    <g id="xtick_98"/>
    <g id="xtick_99"/>
    <g id="text_24">
     <!-- # training images -->
     <g style="fill:#262626;" transform="translate(510.684136 202.2755)scale(0.096 -0.096)">
      <use xlink:href="#ArialMT-35"/>
      <use x="55.615234" xlink:href="#ArialMT-32"/>
      <use x="83.398438" xlink:href="#ArialMT-116"/>
      <use x="111.181641" xlink:href="#ArialMT-114"/>
      <use x="144.482422" xlink:href="#ArialMT-97"/>
      <use x="200.097656" xlink:href="#ArialMT-105"/>
      <use x="222.314453" xlink:href="#ArialMT-110"/>
      <use x="277.929688" xlink:href="#ArialMT-105"/>
      <use x="300.146484" xlink:href="#ArialMT-110"/>
      <use x="355.761719" xlink:href="#ArialMT-103"/>
      <use x="411.376953" xlink:href="#ArialMT-32"/>
      <use x="439.160156" xlink:href="#ArialMT-105"/>
      <use x="461.376953" xlink:href="#ArialMT-109"/>
      <use x="544.677734" xlink:href="#ArialMT-97"/>
      <use x="600.292969" xlink:href="#ArialMT-103"/>
      <use x="655.908203" xlink:href="#ArialMT-101"/>
      <use x="711.523438" xlink:href="#ArialMT-115"/>
     </g>
    </g>
   </g>
   <g id="matplotlib.axis_6">
    <g id="ytick_13">
     <g id="line2d_33">
      <path clip-path="url(#paf162d1f99)" d="M 450.031944 170.095163 
L 644.437329 170.095163 
" style="fill:none;stroke:#ffffff;stroke-linecap:round;stroke-width:0.8;"/>
     </g>
    </g>
    <g id="ytick_14">
     <g id="line2d_34">
      <path clip-path="url(#paf162d1f99)" d="M 450.031944 140.764146 
L 644.437329 140.764146 
" style="fill:none;stroke:#ffffff;stroke-linecap:round;stroke-width:0.8;"/>
     </g>
    </g>
    <g id="ytick_15">
     <g id="line2d_35">
      <path clip-path="url(#paf162d1f99)" d="M 450.031944 111.433129 
L 644.437329 111.433129 
" style="fill:none;stroke:#ffffff;stroke-linecap:round;stroke-width:0.8;"/>
     </g>
    </g>
    <g id="ytick_16">
     <g id="line2d_36">
      <path clip-path="url(#paf162d1f99)" d="M 450.031944 82.102112 
L 644.437329 82.102112 
" style="fill:none;stroke:#ffffff;stroke-linecap:round;stroke-width:0.8;"/>
     </g>
    </g>
    <g id="ytick_17">
     <g id="line2d_37">
      <path clip-path="url(#paf162d1f99)" d="M 450.031944 52.771095 
L 644.437329 52.771095 
" style="fill:none;stroke:#ffffff;stroke-linecap:round;stroke-width:0.8;"/>
     </g>
    </g>
    <g id="ytick_18">
     <g id="line2d_38">
      <path clip-path="url(#paf162d1f99)" d="M 450.031944 23.440077 
L 644.437329 23.440077 
" style="fill:none;stroke:#ffffff;stroke-linecap:round;stroke-width:0.8;"/>
     </g>
    </g>
   </g>
   <g id="LineCollection_5">
    <path clip-path="url(#paf162d1f99)" d="M 0 0 
" style="fill:none;stroke:#179c7d;stroke-linecap:round;stroke-width:1.2;"/>
    <path clip-path="url(#paf162d1f99)" d="M 458.868553 102.22319 
L 458.868553 99.260757 
" style="fill:none;stroke:#179c7d;stroke-linecap:round;stroke-width:1.2;"/>
    <path clip-path="url(#paf162d1f99)" d="M 474.644357 100.477994 
L 474.644357 98.424456 
" style="fill:none;stroke:#179c7d;stroke-linecap:round;stroke-width:1.2;"/>
    <path clip-path="url(#paf162d1f99)" d="M 495.498835 101.064981 
L 495.498835 98.732798 
" style="fill:none;stroke:#179c7d;stroke-linecap:round;stroke-width:1.2;"/>
    <path clip-path="url(#paf162d1f99)" d="M 511.274639 100.771304 
L 511.274639 99.084404 
" style="fill:none;stroke:#179c7d;stroke-linecap:round;stroke-width:1.2;"/>
    <path clip-path="url(#paf162d1f99)" d="M 527.050443 87.690037 
L 527.050443 86.267116 
" style="fill:none;stroke:#179c7d;stroke-linecap:round;stroke-width:1.2;"/>
    <path clip-path="url(#paf162d1f99)" d="M 547.904921 83.158028 
L 547.904921 80.767184 
" style="fill:none;stroke:#179c7d;stroke-linecap:round;stroke-width:1.2;"/>
    <path clip-path="url(#paf162d1f99)" d="M 563.680725 74.138741 
L 563.680725 72.334883 
" style="fill:none;stroke:#179c7d;stroke-linecap:round;stroke-width:1.2;"/>
    <path clip-path="url(#paf162d1f99)" d="M 579.456529 67.289948 
L 579.456529 66.04338 
" style="fill:none;stroke:#179c7d;stroke-linecap:round;stroke-width:1.2;"/>
    <path clip-path="url(#paf162d1f99)" d="M 600.311008 56.584493 
L 600.311008 55.234533 
" style="fill:none;stroke:#179c7d;stroke-linecap:round;stroke-width:1.2;"/>
    <path clip-path="url(#paf162d1f99)" d="M 616.086812 50.321955 
L 616.086812 48.620756 
" style="fill:none;stroke:#179c7d;stroke-linecap:round;stroke-width:1.2;"/>
    <path clip-path="url(#paf162d1f99)" d="M 0 0 
" style="fill:none;stroke:#179c7d;stroke-linecap:round;stroke-width:1.2;"/>
   </g>
   <g id="LineCollection_6">
    <path clip-path="url(#paf162d1f99)" d="M 458.868553 145.358483 
L 458.868553 117.382926 
" style="fill:none;stroke:#006e92;stroke-linecap:round;stroke-width:1.2;"/>
    <path clip-path="url(#paf162d1f99)" d="M 474.644357 156.091802 
L 474.644357 133.634142 
" style="fill:none;stroke:#006e92;stroke-linecap:round;stroke-width:1.2;"/>
    <path clip-path="url(#paf162d1f99)" d="M 495.498835 149.021561 
L 495.498835 133.693171 
" style="fill:none;stroke:#006e92;stroke-linecap:round;stroke-width:1.2;"/>
    <path clip-path="url(#paf162d1f99)" d="M 511.274639 143.639686 
L 511.274639 127.618351 
" style="fill:none;stroke:#006e92;stroke-linecap:round;stroke-width:1.2;"/>
    <path clip-path="url(#paf162d1f99)" d="M 527.050443 124.783875 
L 527.050443 109.789125 
" style="fill:none;stroke:#006e92;stroke-linecap:round;stroke-width:1.2;"/>
    <path clip-path="url(#paf162d1f99)" d="M 547.904921 113.01737 
L 547.904921 104.994604 
" style="fill:none;stroke:#006e92;stroke-linecap:round;stroke-width:1.2;"/>
    <path clip-path="url(#paf162d1f99)" d="M 563.680725 102.619525 
L 563.680725 96.870279 
" style="fill:none;stroke:#006e92;stroke-linecap:round;stroke-width:1.2;"/>
    <path clip-path="url(#paf162d1f99)" d="M 579.456529 102.209624 
L 579.456529 97.002268 
" style="fill:none;stroke:#006e92;stroke-linecap:round;stroke-width:1.2;"/>
    <path clip-path="url(#paf162d1f99)" d="M 600.311008 98.587243 
L 600.311008 94.215822 
" style="fill:none;stroke:#006e92;stroke-linecap:round;stroke-width:1.2;"/>
    <path clip-path="url(#paf162d1f99)" d="M 616.086812 99.554067 
L 616.086812 95.168713 
" style="fill:none;stroke:#006e92;stroke-linecap:round;stroke-width:1.2;"/>
    <path clip-path="url(#paf162d1f99)" d="M 0 0 
" style="fill:none;stroke:#006e92;stroke-linecap:round;stroke-width:1.2;"/>
   </g>
   <g id="line2d_39">
    <path clip-path="url(#paf162d1f99)" d="M -1 100.724878 
L 458.868553 100.683311 
L 474.644357 99.436743 
L 495.498835 99.979367 
L 511.274639 99.920705 
L 527.050443 86.912399 
L 547.904921 82.014119 
L 563.680725 73.273476 
L 579.456529 66.600669 
L 600.311008 55.880182 
L 616.086812 49.45669 
L 635.60072 44.705065 
" style="fill:none;stroke:#179c7d;stroke-linecap:round;stroke-width:1.2;"/>
   </g>
   <g id="line2d_40">
    <path clip-path="url(#paf162d1f99)" d="M 458.868553 130.527621 
L 474.644357 146.087726 
L 495.498835 141.453425 
L 511.274639 136.041852 
L 527.050443 116.492729 
L 547.904921 109.115979 
L 563.680725 99.906039 
L 579.456529 99.495405 
L 600.311008 96.210331 
L 616.086812 97.427568 
L 635.60072 94.714449 
" style="fill:none;stroke:#006e92;stroke-linecap:round;stroke-width:1.2;"/>
   </g>
   <g id="line2d_41"/>
   <g id="line2d_42"/>
   <g id="patch_9">
    <path d="M 450.031944 172.163 
L 450.031944 20.199 
" style="fill:none;stroke:#ffffff;stroke-linecap:square;stroke-linejoin:miter;"/>
   </g>
   <g id="patch_10">
    <path d="M 450.031944 172.163 
L 644.437329 172.163 
" style="fill:none;stroke:#ffffff;stroke-linecap:square;stroke-linejoin:miter;"/>
   </g>
   <g id="text_25">
    <!-- metric = AP@.75 -->
    <g style="fill:#262626;" transform="translate(511.014136 14.199)scale(0.096 -0.096)">
     <defs>
      <path d="M 4.734375 62.203125 
L 4.734375 70.65625 
L 51.078125 70.65625 
L 51.078125 63.8125 
Q 44.234375 56.546875 37.515625 44.484375 
Q 30.8125 32.421875 27.15625 19.671875 
Q 24.515625 10.6875 23.78125 0 
L 14.75 0 
Q 14.890625 8.453125 18.0625 20.40625 
Q 21.234375 32.375 27.171875 43.484375 
Q 33.109375 54.59375 39.796875 62.203125 
z
" id="ArialMT-55"/>
     </defs>
     <use xlink:href="#ArialMT-109"/>
     <use x="83.300781" xlink:href="#ArialMT-101"/>
     <use x="138.916016" xlink:href="#ArialMT-116"/>
     <use x="166.699219" xlink:href="#ArialMT-114"/>
     <use x="200" xlink:href="#ArialMT-105"/>
     <use x="222.216797" xlink:href="#ArialMT-99"/>
     <use x="272.216797" xlink:href="#ArialMT-32"/>
     <use x="300" xlink:href="#ArialMT-61"/>
     <use x="358.398438" xlink:href="#ArialMT-32"/>
     <use x="380.681641" xlink:href="#ArialMT-65"/>
     <use x="447.380859" xlink:href="#ArialMT-80"/>
     <use x="514.080078" xlink:href="#ArialMT-64"/>
     <use x="615.59375" xlink:href="#ArialMT-46"/>
     <use x="643.376953" xlink:href="#ArialMT-55"/>
     <use x="698.992188" xlink:href="#ArialMT-53"/>
    </g>
   </g>
  </g>
  <g id="axes_4">
   <g id="patch_11">
    <path d="M 654.792166 172.163 
L 849.197551 172.163 
L 849.197551 20.199 
L 654.792166 20.199 
z
" style="fill:#eaeaf2;"/>
   </g>
   <g id="matplotlib.axis_7">
    <g id="xtick_100">
     <g id="line2d_43">
      <path clip-path="url(#p1405c9f30a)" d="M 663.628775 172.163 
L 663.628775 20.199 
" style="fill:none;stroke:#ffffff;stroke-linecap:round;stroke-width:0.8;"/>
     </g>
     <g id="text_26">
      <!-- $\mathdefault{10^{0}}$ -->
      <g style="fill:#262626;" transform="translate(656.720775 189.538)scale(0.088 -0.088)">
       <use transform="translate(0 0.99375)" xlink:href="#ArialMT-49"/>
       <use transform="translate(55.615234 0.99375)" xlink:href="#ArialMT-48"/>
       <use transform="translate(112.972813 70.6875)scale(0.7)" xlink:href="#ArialMT-48"/>
      </g>
     </g>
    </g>
    <g id="xtick_101">
     <g id="line2d_44">
      <path clip-path="url(#p1405c9f30a)" d="M 716.034861 172.163 
L 716.034861 20.199 
" style="fill:none;stroke:#ffffff;stroke-linecap:round;stroke-width:0.8;"/>
     </g>
     <g id="text_27">
      <!-- $\mathdefault{10^{1}}$ -->
      <g style="fill:#262626;" transform="translate(709.126861 189.538)scale(0.088 -0.088)">
       <use transform="translate(0 0.99375)" xlink:href="#ArialMT-49"/>
       <use transform="translate(55.615234 0.99375)" xlink:href="#ArialMT-48"/>
       <use transform="translate(112.972813 70.6875)scale(0.7)" xlink:href="#ArialMT-49"/>
      </g>
     </g>
    </g>
    <g id="xtick_102">
     <g id="line2d_45">
      <path clip-path="url(#p1405c9f30a)" d="M 768.440947 172.163 
L 768.440947 20.199 
" style="fill:none;stroke:#ffffff;stroke-linecap:round;stroke-width:0.8;"/>
     </g>
     <g id="text_28">
      <!-- $\mathdefault{10^{2}}$ -->
      <g style="fill:#262626;" transform="translate(761.532947 189.538)scale(0.088 -0.088)">
       <use transform="translate(0 0.99375)" xlink:href="#ArialMT-49"/>
       <use transform="translate(55.615234 0.99375)" xlink:href="#ArialMT-48"/>
       <use transform="translate(112.972813 70.6875)scale(0.7)" xlink:href="#ArialMT-50"/>
      </g>
     </g>
    </g>
    <g id="xtick_103">
     <g id="line2d_46">
      <path clip-path="url(#p1405c9f30a)" d="M 820.847034 172.163 
L 820.847034 20.199 
" style="fill:none;stroke:#ffffff;stroke-linecap:round;stroke-width:0.8;"/>
     </g>
     <g id="text_29">
      <!-- $\mathdefault{10^{3}}$ -->
      <g style="fill:#262626;" transform="translate(813.939034 189.538)scale(0.088 -0.088)">
       <use transform="translate(0 0.99375)" xlink:href="#ArialMT-49"/>
       <use transform="translate(55.615234 0.99375)" xlink:href="#ArialMT-48"/>
       <use transform="translate(112.972813 70.6875)scale(0.7)" xlink:href="#ArialMT-51"/>
      </g>
     </g>
    </g>
    <g id="xtick_104"/>
    <g id="xtick_105"/>
    <g id="xtick_106"/>
    <g id="xtick_107"/>
    <g id="xtick_108"/>
    <g id="xtick_109"/>
    <g id="xtick_110"/>
    <g id="xtick_111"/>
    <g id="xtick_112"/>
    <g id="xtick_113"/>
    <g id="xtick_114"/>
    <g id="xtick_115"/>
    <g id="xtick_116"/>
    <g id="xtick_117"/>
    <g id="xtick_118"/>
    <g id="xtick_119"/>
    <g id="xtick_120"/>
    <g id="xtick_121"/>
    <g id="xtick_122"/>
    <g id="xtick_123"/>
    <g id="xtick_124"/>
    <g id="xtick_125"/>
    <g id="xtick_126"/>
    <g id="xtick_127"/>
    <g id="xtick_128"/>
    <g id="xtick_129"/>
    <g id="xtick_130"/>
    <g id="xtick_131"/>
    <g id="xtick_132"/>
    <g id="text_30">
     <!-- # training images -->
     <g style="fill:#262626;" transform="translate(715.444358 202.2755)scale(0.096 -0.096)">
      <use xlink:href="#ArialMT-35"/>
      <use x="55.615234" xlink:href="#ArialMT-32"/>
      <use x="83.398438" xlink:href="#ArialMT-116"/>
      <use x="111.181641" xlink:href="#ArialMT-114"/>
      <use x="144.482422" xlink:href="#ArialMT-97"/>
      <use x="200.097656" xlink:href="#ArialMT-105"/>
      <use x="222.314453" xlink:href="#ArialMT-110"/>
      <use x="277.929688" xlink:href="#ArialMT-105"/>
      <use x="300.146484" xlink:href="#ArialMT-110"/>
      <use x="355.761719" xlink:href="#ArialMT-103"/>
      <use x="411.376953" xlink:href="#ArialMT-32"/>
      <use x="439.160156" xlink:href="#ArialMT-105"/>
      <use x="461.376953" xlink:href="#ArialMT-109"/>
      <use x="544.677734" xlink:href="#ArialMT-97"/>
      <use x="600.292969" xlink:href="#ArialMT-103"/>
      <use x="655.908203" xlink:href="#ArialMT-101"/>
      <use x="711.523438" xlink:href="#ArialMT-115"/>
     </g>
    </g>
   </g>
   <g id="matplotlib.axis_8">
    <g id="ytick_19">
     <g id="line2d_47">
      <path clip-path="url(#p1405c9f30a)" d="M 654.792166 170.095163 
L 849.197551 170.095163 
" style="fill:none;stroke:#ffffff;stroke-linecap:round;stroke-width:0.8;"/>
     </g>
    </g>
    <g id="ytick_20">
     <g id="line2d_48">
      <path clip-path="url(#p1405c9f30a)" d="M 654.792166 140.764146 
L 849.197551 140.764146 
" style="fill:none;stroke:#ffffff;stroke-linecap:round;stroke-width:0.8;"/>
     </g>
    </g>
    <g id="ytick_21">
     <g id="line2d_49">
      <path clip-path="url(#p1405c9f30a)" d="M 654.792166 111.433129 
L 849.197551 111.433129 
" style="fill:none;stroke:#ffffff;stroke-linecap:round;stroke-width:0.8;"/>
     </g>
    </g>
    <g id="ytick_22">
     <g id="line2d_50">
      <path clip-path="url(#p1405c9f30a)" d="M 654.792166 82.102112 
L 849.197551 82.102112 
" style="fill:none;stroke:#ffffff;stroke-linecap:round;stroke-width:0.8;"/>
     </g>
    </g>
    <g id="ytick_23">
     <g id="line2d_51">
      <path clip-path="url(#p1405c9f30a)" d="M 654.792166 52.771095 
L 849.197551 52.771095 
" style="fill:none;stroke:#ffffff;stroke-linecap:round;stroke-width:0.8;"/>
     </g>
    </g>
    <g id="ytick_24">
     <g id="line2d_52">
      <path clip-path="url(#p1405c9f30a)" d="M 654.792166 23.440077 
L 849.197551 23.440077 
" style="fill:none;stroke:#ffffff;stroke-linecap:round;stroke-width:0.8;"/>
     </g>
    </g>
   </g>
   <g id="LineCollection_7">
    <path clip-path="url(#p1405c9f30a)" d="M 0 0 
" style="fill:none;stroke:#179c7d;stroke-linecap:round;stroke-width:1.2;"/>
    <path clip-path="url(#p1405c9f30a)" d="M 663.628775 113.897301 
L 663.628775 108.4256 
" style="fill:none;stroke:#179c7d;stroke-linecap:round;stroke-width:1.2;"/>
    <path clip-path="url(#p1405c9f30a)" d="M 679.404579 116.404736 
L 679.404579 111.682076 
" style="fill:none;stroke:#179c7d;stroke-linecap:round;stroke-width:1.2;"/>
    <path clip-path="url(#p1405c9f30a)" d="M 700.259057 113.486667 
L 700.259057 110.743483 
" style="fill:none;stroke:#179c7d;stroke-linecap:round;stroke-width:1.2;"/>
    <path clip-path="url(#p1405c9f30a)" d="M 716.034861 112.063746 
L 716.034861 110.156863 
" style="fill:none;stroke:#179c7d;stroke-linecap:round;stroke-width:1.2;"/>
    <path clip-path="url(#p1405c9f30a)" d="M 731.810665 135.968525 
L 731.810665 133.724702 
" style="fill:none;stroke:#179c7d;stroke-linecap:round;stroke-width:1.2;"/>
    <path clip-path="url(#p1405c9f30a)" d="M 752.665143 142.803018 
L 752.665143 140.837474 
" style="fill:none;stroke:#179c7d;stroke-linecap:round;stroke-width:1.2;"/>
    <path clip-path="url(#p1405c9f30a)" d="M 768.440947 152.335232 
L 768.440947 150.560339 
" style="fill:none;stroke:#179c7d;stroke-linecap:round;stroke-width:1.2;"/>
    <path clip-path="url(#p1405c9f30a)" d="M 784.216751 157.424164 
L 784.216751 155.913616 
" style="fill:none;stroke:#179c7d;stroke-linecap:round;stroke-width:1.2;"/>
    <path clip-path="url(#p1405c9f30a)" d="M 805.07123 161.369186 
L 805.07123 159.946631 
" style="fill:none;stroke:#179c7d;stroke-linecap:round;stroke-width:1.2;"/>
    <path clip-path="url(#p1405c9f30a)" d="M 820.847034 163.876988 
L 820.847034 163.51035 
" style="fill:none;stroke:#179c7d;stroke-linecap:round;stroke-width:1.2;"/>
    <path clip-path="url(#p1405c9f30a)" d="M 0 0 
" style="fill:none;stroke:#179c7d;stroke-linecap:round;stroke-width:1.2;"/>
   </g>
   <g id="LineCollection_8">
    <path clip-path="url(#p1405c9f30a)" d="M 663.628775 114.574481 
L 663.628775 94.974762 
" style="fill:none;stroke:#006e92;stroke-linecap:round;stroke-width:1.2;"/>
    <path clip-path="url(#p1405c9f30a)" d="M 679.404579 112.694363 
L 679.404579 102.824109 
" style="fill:none;stroke:#006e92;stroke-linecap:round;stroke-width:1.2;"/>
    <path clip-path="url(#p1405c9f30a)" d="M 700.259057 123.634832 
L 700.259057 116.74131 
" style="fill:none;stroke:#006e92;stroke-linecap:round;stroke-width:1.2;"/>
    <path clip-path="url(#p1405c9f30a)" d="M 716.034861 129.340082 
L 716.034861 121.155994 
" style="fill:none;stroke:#006e92;stroke-linecap:round;stroke-width:1.2;"/>
    <path clip-path="url(#p1405c9f30a)" d="M 731.810665 139.122709 
L 731.810665 133.240374 
" style="fill:none;stroke:#006e92;stroke-linecap:round;stroke-width:1.2;"/>
    <path clip-path="url(#p1405c9f30a)" d="M 752.665143 146.264078 
L 752.665143 143.095229 
" style="fill:none;stroke:#006e92;stroke-linecap:round;stroke-width:1.2;"/>
    <path clip-path="url(#p1405c9f30a)" d="M 768.440947 149.504789 
L 768.440947 147.026318 
" style="fill:none;stroke:#006e92;stroke-linecap:round;stroke-width:1.2;"/>
    <path clip-path="url(#p1405c9f30a)" d="M 784.216751 150.560706 
L 784.216751 148.918169 
" style="fill:none;stroke:#006e92;stroke-linecap:round;stroke-width:1.2;"/>
    <path clip-path="url(#p1405c9f30a)" d="M 805.07123 152.232574 
L 805.07123 151.117995 
" style="fill:none;stroke:#006e92;stroke-linecap:round;stroke-width:1.2;"/>
    <path clip-path="url(#p1405c9f30a)" d="M 820.847034 152.628543 
L 820.847034 151.821573 
" style="fill:none;stroke:#006e92;stroke-linecap:round;stroke-width:1.2;"/>
    <path clip-path="url(#p1405c9f30a)" d="M 0 0 
" style="fill:none;stroke:#006e92;stroke-linecap:round;stroke-width:1.2;"/>
   </g>
   <g id="line2d_53">
    <path clip-path="url(#p1405c9f30a)" d="M -1 111.12254 
L 663.628775 111.227812 
L 679.404579 113.970262 
L 700.259057 112.078411 
L 716.034861 111.081157 
L 731.810665 134.956605 
L 752.665143 141.89339 
L 768.440947 151.455302 
L 784.216751 156.705554 
L 805.07123 160.621245 
L 820.847034 163.715667 
L 840.360942 165.255545 
" style="fill:none;stroke:#179c7d;stroke-linecap:round;stroke-width:1.2;"/>
   </g>
   <g id="line2d_54">
    <path clip-path="url(#p1405c9f30a)" d="M 663.628775 104.774988 
L 679.404579 107.854745 
L 700.259057 120.056448 
L 716.034861 125.233373 
L 731.810665 136.159176 
L 752.665143 144.826492 
L 768.440947 148.199559 
L 784.216751 149.754103 
L 805.07123 151.645953 
L 820.847034 152.203243 
L 840.360942 151.323312 
" style="fill:none;stroke:#006e92;stroke-linecap:round;stroke-width:1.2;"/>
   </g>
   <g id="line2d_55"/>
   <g id="line2d_56"/>
   <g id="patch_12">
    <path d="M 654.792166 172.163 
L 654.792166 20.199 
" style="fill:none;stroke:#ffffff;stroke-linecap:square;stroke-linejoin:miter;"/>
   </g>
   <g id="patch_13">
    <path d="M 654.792166 172.163 
L 849.197551 172.163 
" style="fill:none;stroke:#ffffff;stroke-linecap:square;stroke-linejoin:miter;"/>
   </g>
   <g id="text_31">
    <!-- metric = LAMR -->
    <g style="fill:#262626;" transform="translate(720.122858 14.199)scale(0.096 -0.096)">
     <defs>
      <path d="M 7.328125 0 
L 7.328125 71.578125 
L 16.796875 71.578125 
L 16.796875 8.453125 
L 52.046875 8.453125 
L 52.046875 0 
z
" id="ArialMT-76"/>
      <path d="M 7.421875 0 
L 7.421875 71.578125 
L 21.6875 71.578125 
L 38.625 20.90625 
Q 40.96875 13.8125 42.046875 10.296875 
Q 43.265625 14.203125 45.84375 21.78125 
L 62.984375 71.578125 
L 75.734375 71.578125 
L 75.734375 0 
L 66.609375 0 
L 66.609375 59.90625 
L 45.796875 0 
L 37.25 0 
L 16.546875 60.9375 
L 16.546875 0 
z
" id="ArialMT-77"/>
      <path d="M 7.859375 0 
L 7.859375 71.578125 
L 39.59375 71.578125 
Q 49.171875 71.578125 54.140625 69.640625 
Q 59.125 67.71875 62.109375 62.828125 
Q 65.09375 57.953125 65.09375 52.046875 
Q 65.09375 44.4375 60.15625 39.203125 
Q 55.21875 33.984375 44.921875 32.5625 
Q 48.6875 30.765625 50.640625 29 
Q 54.78125 25.203125 58.5 19.484375 
L 70.953125 0 
L 59.03125 0 
L 49.5625 14.890625 
Q 45.40625 21.34375 42.71875 24.75 
Q 40.046875 28.171875 37.921875 29.53125 
Q 35.796875 30.90625 33.59375 31.453125 
Q 31.984375 31.78125 28.328125 31.78125 
L 17.328125 31.78125 
L 17.328125 0 
z
M 17.328125 39.984375 
L 37.703125 39.984375 
Q 44.1875 39.984375 47.84375 41.328125 
Q 51.515625 42.671875 53.421875 45.625 
Q 55.328125 48.578125 55.328125 52.046875 
Q 55.328125 57.125 51.640625 60.390625 
Q 47.953125 63.671875 39.984375 63.671875 
L 17.328125 63.671875 
z
" id="ArialMT-82"/>
     </defs>
     <use xlink:href="#ArialMT-109"/>
     <use x="83.300781" xlink:href="#ArialMT-101"/>
     <use x="138.916016" xlink:href="#ArialMT-116"/>
     <use x="166.699219" xlink:href="#ArialMT-114"/>
     <use x="200" xlink:href="#ArialMT-105"/>
     <use x="222.216797" xlink:href="#ArialMT-99"/>
     <use x="272.216797" xlink:href="#ArialMT-32"/>
     <use x="300" xlink:href="#ArialMT-61"/>
     <use x="358.398438" xlink:href="#ArialMT-32"/>
     <use x="386.181641" xlink:href="#ArialMT-76"/>
     <use x="441.796875" xlink:href="#ArialMT-65"/>
     <use x="508.496094" xlink:href="#ArialMT-77"/>
     <use x="591.796875" xlink:href="#ArialMT-82"/>
    </g>
   </g>
  </g>
  <g id="legend_1">
   <g id="text_32">
    <!-- fine-tune -->
    <g style="fill:#262626;" transform="translate(860.630788 95.730312)scale(0.096 -0.096)">
     <defs>
      <path d="M 8.6875 0 
L 8.6875 45.015625 
L 0.921875 45.015625 
L 0.921875 51.859375 
L 8.6875 51.859375 
L 8.6875 57.375 
Q 8.6875 62.59375 9.625 65.140625 
Q 10.890625 68.5625 14.078125 70.671875 
Q 17.28125 72.796875 23.046875 72.796875 
Q 26.765625 72.796875 31.25 71.921875 
L 29.9375 64.265625 
Q 27.203125 64.75 24.75 64.75 
Q 20.75 64.75 19.09375 63.03125 
Q 17.4375 61.328125 17.4375 56.640625 
L 17.4375 51.859375 
L 27.546875 51.859375 
L 27.546875 45.015625 
L 17.4375 45.015625 
L 17.4375 0 
z
" id="ArialMT-102"/>
      <path d="M 3.171875 21.484375 
L 3.171875 30.328125 
L 30.171875 30.328125 
L 30.171875 21.484375 
z
" id="ArialMT-45"/>
     </defs>
     <use xlink:href="#ArialMT-102"/>
     <use x="27.783203" xlink:href="#ArialMT-105"/>
     <use x="50" xlink:href="#ArialMT-110"/>
     <use x="105.615234" xlink:href="#ArialMT-101"/>
     <use x="161.230469" xlink:href="#ArialMT-45"/>
     <use x="194.53125" xlink:href="#ArialMT-116"/>
     <use x="222.314453" xlink:href="#ArialMT-117"/>
     <use x="277.929688" xlink:href="#ArialMT-110"/>
     <use x="333.544922" xlink:href="#ArialMT-101"/>
    </g>
   </g>
   <g id="line2d_57">
    <path d="M 860.141976 105.257188 
L 877.741976 105.257188 
" style="fill:none;stroke:#179c7d;stroke-linecap:round;stroke-width:1.2;"/>
   </g>
   <g id="line2d_58"/>
   <g id="text_33">
    <!-- no -->
    <g style="fill:#262626;" transform="translate(884.781976 108.337187)scale(0.088 -0.088)">
     <defs>
      <path d="M 3.328125 25.921875 
Q 3.328125 40.328125 11.328125 47.265625 
Q 18.015625 53.03125 27.640625 53.03125 
Q 38.328125 53.03125 45.109375 46.015625 
Q 51.90625 39.015625 51.90625 26.65625 
Q 51.90625 16.65625 48.90625 10.90625 
Q 45.90625 5.171875 40.15625 2 
Q 34.421875 -1.171875 27.640625 -1.171875 
Q 16.75 -1.171875 10.03125 5.8125 
Q 3.328125 12.796875 3.328125 25.921875 
z
M 12.359375 25.921875 
Q 12.359375 15.96875 16.703125 11.015625 
Q 21.046875 6.0625 27.640625 6.0625 
Q 34.1875 6.0625 38.53125 11.03125 
Q 42.875 16.015625 42.875 26.21875 
Q 42.875 35.84375 38.5 40.796875 
Q 34.125 45.75 27.640625 45.75 
Q 21.046875 45.75 16.703125 40.8125 
Q 12.359375 35.890625 12.359375 25.921875 
z
" id="ArialMT-111"/>
     </defs>
     <use xlink:href="#ArialMT-110"/>
     <use x="55.615234" xlink:href="#ArialMT-111"/>
    </g>
   </g>
   <g id="line2d_59">
    <path d="M 860.141976 117.705062 
L 877.741976 117.705062 
" style="fill:none;stroke:#006e92;stroke-linecap:round;stroke-width:1.2;"/>
   </g>
   <g id="line2d_60"/>
   <g id="text_34">
    <!-- yes -->
    <g style="fill:#262626;" transform="translate(884.781976 120.785062)scale(0.088 -0.088)">
     <defs>
      <path d="M 6.203125 -19.96875 
L 5.21875 -11.71875 
Q 8.109375 -12.5 10.25 -12.5 
Q 13.1875 -12.5 14.9375 -11.515625 
Q 16.703125 -10.546875 17.828125 -8.796875 
Q 18.65625 -7.46875 20.515625 -2.25 
Q 20.75 -1.515625 21.296875 -0.09375 
L 1.609375 51.859375 
L 11.078125 51.859375 
L 21.875 21.828125 
Q 23.96875 16.109375 25.640625 9.8125 
Q 27.15625 15.875 29.25 21.625 
L 40.328125 51.859375 
L 49.125 51.859375 
L 29.390625 -0.875 
Q 26.21875 -9.421875 24.46875 -12.640625 
Q 22.125 -17 19.09375 -19.015625 
Q 16.0625 -21.046875 11.859375 -21.046875 
Q 9.328125 -21.046875 6.203125 -19.96875 
z
" id="ArialMT-121"/>
     </defs>
     <use xlink:href="#ArialMT-121"/>
     <use x="50" xlink:href="#ArialMT-101"/>
     <use x="105.615234" xlink:href="#ArialMT-115"/>
    </g>
   </g>
  </g>
 </g>
 <defs>
  <clipPath id="pd30ec1adfd">
   <rect height="151.964" width="194.405384" x="40.5115" y="20.199"/>
  </clipPath>
  <clipPath id="p94e358923a">
   <rect height="151.964" width="194.405384" x="245.271722" y="20.199"/>
  </clipPath>
  <clipPath id="paf162d1f99">
   <rect height="151.964" width="194.405384" x="450.031944" y="20.199"/>
  </clipPath>
  <clipPath id="p1405c9f30a">
   <rect height="151.964" width="194.405384" x="654.792166" y="20.199"/>
  </clipPath>
 </defs>
</svg>
