<?xml version="1.0" encoding="utf-8" standalone="no"?>
<!DOCTYPE svg PUBLIC "-//W3C//DTD SVG 1.1//EN"
  "http://www.w3.org/Graphics/SVG/1.1/DTD/svg11.dtd">
<!-- Created with matplotlib (https://matplotlib.org/) -->
<svg height="309.87207pt" version="1.1" viewBox="0 0 1464.43229 309.87207" width="1464.43229pt" xmlns="http://www.w3.org/2000/svg" xmlns:xlink="http://www.w3.org/1999/xlink">
 <metadata>
  <rdf:RDF xmlns:cc="http://creativecommons.org/ns#" xmlns:dc="http://purl.org/dc/elements/1.1/" xmlns:rdf="http://www.w3.org/1999/02/22-rdf-syntax-ns#">
   <cc:Work>
    <dc:type rdf:resource="http://purl.org/dc/dcmitype/StillImage"/>
    <dc:date>2021-11-24T05:38:32.577724</dc:date>
    <dc:format>image/svg+xml</dc:format>
    <dc:creator>
     <cc:Agent>
      <dc:title>Matplotlib v3.3.4, https://matplotlib.org/</dc:title>
     </cc:Agent>
    </dc:creator>
   </cc:Work>
  </rdf:RDF>
 </metadata>
 <defs>
  <style type="text/css">*{stroke-linecap:butt;stroke-linejoin:round;}</style>
 </defs>
 <g id="figure_1">
  <g id="patch_1">
   <path d="M 0 309.87207 
L 1464.43229 309.87207 
L 1464.43229 0 
L 0 0 
z
" style="fill:#ffffff;"/>
  </g>
  <g id="axes_1">
   <g id="patch_2">
    <path d="M 63.096563 274.888945 
L 358.508327 274.888945 
L 358.508327 53.128945 
L 63.096563 53.128945 
z
" style="fill:#ffffff;"/>
   </g>
   <g id="matplotlib.axis_1">
    <g id="xtick_1">
     <g id="line2d_1">
      <path clip-path="url(#pdee444a858)" d="M 100.133702 274.888945 
L 100.133702 53.128945 
" style="fill:none;stroke:#cccccc;stroke-linecap:round;stroke-width:1.5;"/>
     </g>
     <g id="text_1">
      <!-- overall -->
      <g style="fill:#262626;" transform="translate(75.832296 299.199336)scale(0.165 -0.165)">
       <defs>
        <path d="M 3.328125 25.921875 
Q 3.328125 40.328125 11.328125 47.265625 
Q 18.015625 53.03125 27.640625 53.03125 
Q 38.328125 53.03125 45.109375 46.015625 
Q 51.90625 39.015625 51.90625 26.65625 
Q 51.90625 16.65625 48.90625 10.90625 
Q 45.90625 5.171875 40.15625 2 
Q 34.421875 -1.171875 27.640625 -1.171875 
Q 16.75 -1.171875 10.03125 5.8125 
Q 3.328125 12.796875 3.328125 25.921875 
z
M 12.359375 25.921875 
Q 12.359375 15.96875 16.703125 11.015625 
Q 21.046875 6.0625 27.640625 6.0625 
Q 34.1875 6.0625 38.53125 11.03125 
Q 42.875 16.015625 42.875 26.21875 
Q 42.875 35.84375 38.5 40.796875 
Q 34.125 45.75 27.640625 45.75 
Q 21.046875 45.75 16.703125 40.8125 
Q 12.359375 35.890625 12.359375 25.921875 
z
" id="ArialMT-111"/>
        <path d="M 21 0 
L 1.265625 51.859375 
L 10.546875 51.859375 
L 21.6875 20.796875 
Q 23.484375 15.765625 25 10.359375 
Q 26.171875 14.453125 28.265625 20.21875 
L 39.796875 51.859375 
L 48.828125 51.859375 
L 29.203125 0 
z
" id="ArialMT-118"/>
        <path d="M 42.09375 16.703125 
L 51.171875 15.578125 
Q 49.03125 7.625 43.21875 3.21875 
Q 37.40625 -1.171875 28.375 -1.171875 
Q 17 -1.171875 10.328125 5.828125 
Q 3.65625 12.84375 3.65625 25.484375 
Q 3.65625 38.578125 10.390625 45.796875 
Q 17.140625 53.03125 27.875 53.03125 
Q 38.28125 53.03125 44.875 45.953125 
Q 51.46875 38.875 51.46875 26.03125 
Q 51.46875 25.25 51.421875 23.6875 
L 12.75 23.6875 
Q 13.234375 15.140625 17.578125 10.59375 
Q 21.921875 6.0625 28.421875 6.0625 
Q 33.25 6.0625 36.671875 8.59375 
Q 40.09375 11.140625 42.09375 16.703125 
z
M 13.234375 30.90625 
L 42.1875 30.90625 
Q 41.609375 37.453125 38.875 40.71875 
Q 34.671875 45.796875 27.984375 45.796875 
Q 21.921875 45.796875 17.796875 41.75 
Q 13.671875 37.703125 13.234375 30.90625 
z
" id="ArialMT-101"/>
        <path d="M 6.5 0 
L 6.5 51.859375 
L 14.40625 51.859375 
L 14.40625 44 
Q 17.4375 49.515625 20 51.265625 
Q 22.5625 53.03125 25.640625 53.03125 
Q 30.078125 53.03125 34.671875 50.203125 
L 31.640625 42.046875 
Q 28.421875 43.953125 25.203125 43.953125 
Q 22.3125 43.953125 20.015625 42.21875 
Q 17.71875 40.484375 16.75 37.40625 
Q 15.28125 32.71875 15.28125 27.15625 
L 15.28125 0 
z
" id="ArialMT-114"/>
        <path d="M 40.4375 6.390625 
Q 35.546875 2.25 31.03125 0.53125 
Q 26.515625 -1.171875 21.34375 -1.171875 
Q 12.796875 -1.171875 8.203125 3 
Q 3.609375 7.171875 3.609375 13.671875 
Q 3.609375 17.484375 5.34375 20.625 
Q 7.078125 23.78125 9.890625 25.6875 
Q 12.703125 27.59375 16.21875 28.5625 
Q 18.796875 29.25 24.03125 29.890625 
Q 34.671875 31.15625 39.703125 32.90625 
Q 39.75 34.71875 39.75 35.203125 
Q 39.75 40.578125 37.25 42.78125 
Q 33.890625 45.75 27.25 45.75 
Q 21.046875 45.75 18.09375 43.578125 
Q 15.140625 41.40625 13.71875 35.890625 
L 5.125 37.0625 
Q 6.296875 42.578125 8.984375 45.96875 
Q 11.671875 49.359375 16.75 51.1875 
Q 21.828125 53.03125 28.515625 53.03125 
Q 35.15625 53.03125 39.296875 51.46875 
Q 43.453125 49.90625 45.40625 47.53125 
Q 47.359375 45.171875 48.140625 41.546875 
Q 48.578125 39.3125 48.578125 33.453125 
L 48.578125 21.734375 
Q 48.578125 9.46875 49.140625 6.21875 
Q 49.703125 2.984375 51.375 0 
L 42.1875 0 
Q 40.828125 2.734375 40.4375 6.390625 
z
M 39.703125 26.03125 
Q 34.90625 24.078125 25.34375 22.703125 
Q 19.921875 21.921875 17.671875 20.9375 
Q 15.4375 19.96875 14.203125 18.09375 
Q 12.984375 16.21875 12.984375 13.921875 
Q 12.984375 10.40625 15.640625 8.0625 
Q 18.3125 5.71875 23.4375 5.71875 
Q 28.515625 5.71875 32.46875 7.9375 
Q 36.421875 10.15625 38.28125 14.015625 
Q 39.703125 17 39.703125 22.796875 
z
" id="ArialMT-97"/>
        <path d="M 6.390625 0 
L 6.390625 71.578125 
L 15.1875 71.578125 
L 15.1875 0 
z
" id="ArialMT-108"/>
       </defs>
       <use xlink:href="#ArialMT-111"/>
       <use x="55.615234" xlink:href="#ArialMT-118"/>
       <use x="105.615234" xlink:href="#ArialMT-101"/>
       <use x="161.230469" xlink:href="#ArialMT-114"/>
       <use x="194.53125" xlink:href="#ArialMT-97"/>
       <use x="250.146484" xlink:href="#ArialMT-108"/>
       <use x="272.363281" xlink:href="#ArialMT-108"/>
      </g>
     </g>
    </g>
    <g id="xtick_2">
     <g id="line2d_2">
      <path clip-path="url(#pdee444a858)" d="M 173.912864 274.888945 
L 173.912864 53.128945 
" style="fill:none;stroke:#cccccc;stroke-linecap:round;stroke-width:1.5;"/>
     </g>
     <g id="text_2">
      <!-- large -->
      <g style="fill:#262626;" transform="translate(155.569504 299.199336)scale(0.165 -0.165)">
       <defs>
        <path d="M 4.984375 -4.296875 
L 13.53125 -5.5625 
Q 14.0625 -9.515625 16.5 -11.328125 
Q 19.78125 -13.765625 25.4375 -13.765625 
Q 31.546875 -13.765625 34.859375 -11.328125 
Q 38.1875 -8.890625 39.359375 -4.5 
Q 40.046875 -1.8125 39.984375 6.78125 
Q 34.234375 0 25.640625 0 
Q 14.9375 0 9.078125 7.71875 
Q 3.21875 15.4375 3.21875 26.21875 
Q 3.21875 33.640625 5.90625 39.90625 
Q 8.59375 46.1875 13.6875 49.609375 
Q 18.796875 53.03125 25.6875 53.03125 
Q 34.859375 53.03125 40.828125 45.609375 
L 40.828125 51.859375 
L 48.921875 51.859375 
L 48.921875 7.03125 
Q 48.921875 -5.078125 46.453125 -10.125 
Q 44 -15.1875 38.640625 -18.109375 
Q 33.296875 -21.046875 25.484375 -21.046875 
Q 16.21875 -21.046875 10.5 -16.875 
Q 4.78125 -12.703125 4.984375 -4.296875 
z
M 12.25 26.859375 
Q 12.25 16.65625 16.296875 11.96875 
Q 20.359375 7.28125 26.46875 7.28125 
Q 32.515625 7.28125 36.609375 11.9375 
Q 40.71875 16.609375 40.71875 26.5625 
Q 40.71875 36.078125 36.5 40.90625 
Q 32.28125 45.75 26.3125 45.75 
Q 20.453125 45.75 16.34375 40.984375 
Q 12.25 36.234375 12.25 26.859375 
z
" id="ArialMT-103"/>
       </defs>
       <use xlink:href="#ArialMT-108"/>
       <use x="22.216797" xlink:href="#ArialMT-97"/>
       <use x="77.832031" xlink:href="#ArialMT-114"/>
       <use x="111.132812" xlink:href="#ArialMT-103"/>
       <use x="166.748047" xlink:href="#ArialMT-101"/>
      </g>
     </g>
    </g>
    <g id="xtick_3">
     <g id="line2d_3">
      <path clip-path="url(#pdee444a858)" d="M 247.692026 274.888945 
L 247.692026 53.128945 
" style="fill:none;stroke:#cccccc;stroke-linecap:round;stroke-width:1.5;"/>
     </g>
     <g id="text_3">
      <!-- medium -->
      <g style="fill:#262626;" transform="translate(218.351674 299.199336)scale(0.165 -0.165)">
       <defs>
        <path d="M 6.59375 0 
L 6.59375 51.859375 
L 14.453125 51.859375 
L 14.453125 44.578125 
Q 16.890625 48.390625 20.9375 50.703125 
Q 25 53.03125 30.171875 53.03125 
Q 35.9375 53.03125 39.625 50.640625 
Q 43.3125 48.25 44.828125 43.953125 
Q 50.984375 53.03125 60.84375 53.03125 
Q 68.5625 53.03125 72.703125 48.75 
Q 76.859375 44.484375 76.859375 35.59375 
L 76.859375 0 
L 68.109375 0 
L 68.109375 32.671875 
Q 68.109375 37.9375 67.25 40.25 
Q 66.40625 42.578125 64.15625 43.984375 
Q 61.921875 45.40625 58.890625 45.40625 
Q 53.421875 45.40625 49.796875 41.765625 
Q 46.1875 38.140625 46.1875 30.125 
L 46.1875 0 
L 37.40625 0 
L 37.40625 33.6875 
Q 37.40625 39.546875 35.25 42.46875 
Q 33.109375 45.40625 28.21875 45.40625 
Q 24.515625 45.40625 21.359375 43.453125 
Q 18.21875 41.5 16.796875 37.734375 
Q 15.375 33.984375 15.375 26.90625 
L 15.375 0 
z
" id="ArialMT-109"/>
        <path d="M 40.234375 0 
L 40.234375 6.546875 
Q 35.296875 -1.171875 25.734375 -1.171875 
Q 19.53125 -1.171875 14.328125 2.25 
Q 9.125 5.671875 6.265625 11.796875 
Q 3.421875 17.921875 3.421875 25.875 
Q 3.421875 33.640625 6 39.96875 
Q 8.59375 46.296875 13.765625 49.65625 
Q 18.953125 53.03125 25.34375 53.03125 
Q 30.03125 53.03125 33.6875 51.046875 
Q 37.359375 49.078125 39.65625 45.90625 
L 39.65625 71.578125 
L 48.390625 71.578125 
L 48.390625 0 
z
M 12.453125 25.875 
Q 12.453125 15.921875 16.640625 10.984375 
Q 20.84375 6.0625 26.5625 6.0625 
Q 32.328125 6.0625 36.34375 10.765625 
Q 40.375 15.484375 40.375 25.140625 
Q 40.375 35.796875 36.265625 40.765625 
Q 32.171875 45.75 26.171875 45.75 
Q 20.3125 45.75 16.375 40.96875 
Q 12.453125 36.1875 12.453125 25.875 
z
" id="ArialMT-100"/>
        <path d="M 6.640625 61.46875 
L 6.640625 71.578125 
L 15.4375 71.578125 
L 15.4375 61.46875 
z
M 6.640625 0 
L 6.640625 51.859375 
L 15.4375 51.859375 
L 15.4375 0 
z
" id="ArialMT-105"/>
        <path d="M 40.578125 0 
L 40.578125 7.625 
Q 34.515625 -1.171875 24.125 -1.171875 
Q 19.53125 -1.171875 15.546875 0.578125 
Q 11.578125 2.34375 9.640625 5 
Q 7.71875 7.671875 6.9375 11.53125 
Q 6.390625 14.109375 6.390625 19.734375 
L 6.390625 51.859375 
L 15.1875 51.859375 
L 15.1875 23.09375 
Q 15.1875 16.21875 15.71875 13.8125 
Q 16.546875 10.359375 19.234375 8.375 
Q 21.921875 6.390625 25.875 6.390625 
Q 29.828125 6.390625 33.296875 8.421875 
Q 36.765625 10.453125 38.203125 13.9375 
Q 39.65625 17.4375 39.65625 24.078125 
L 39.65625 51.859375 
L 48.4375 51.859375 
L 48.4375 0 
z
" id="ArialMT-117"/>
       </defs>
       <use xlink:href="#ArialMT-109"/>
       <use x="83.300781" xlink:href="#ArialMT-101"/>
       <use x="138.916016" xlink:href="#ArialMT-100"/>
       <use x="194.53125" xlink:href="#ArialMT-105"/>
       <use x="216.748047" xlink:href="#ArialMT-117"/>
       <use x="272.363281" xlink:href="#ArialMT-109"/>
      </g>
     </g>
    </g>
    <g id="xtick_4">
     <g id="line2d_4">
      <path clip-path="url(#pdee444a858)" d="M 321.471188 274.888945 
L 321.471188 53.128945 
" style="fill:none;stroke:#cccccc;stroke-linecap:round;stroke-width:1.5;"/>
     </g>
     <g id="text_4">
      <!-- small -->
      <g style="fill:#262626;" transform="translate(302.220328 299.199336)scale(0.165 -0.165)">
       <defs>
        <path d="M 3.078125 15.484375 
L 11.765625 16.84375 
Q 12.5 11.625 15.84375 8.84375 
Q 19.1875 6.0625 25.203125 6.0625 
Q 31.25 6.0625 34.171875 8.515625 
Q 37.109375 10.984375 37.109375 14.3125 
Q 37.109375 17.28125 34.515625 19 
Q 32.71875 20.171875 25.53125 21.96875 
Q 15.875 24.421875 12.140625 26.203125 
Q 8.40625 27.984375 6.46875 31.125 
Q 4.546875 34.28125 4.546875 38.09375 
Q 4.546875 41.546875 6.125 44.5 
Q 7.71875 47.46875 10.453125 49.421875 
Q 12.5 50.921875 16.03125 51.96875 
Q 19.578125 53.03125 23.640625 53.03125 
Q 29.734375 53.03125 34.34375 51.265625 
Q 38.96875 49.515625 41.15625 46.5 
Q 43.359375 43.5 44.1875 38.484375 
L 35.59375 37.3125 
Q 35.015625 41.3125 32.203125 43.546875 
Q 29.390625 45.796875 24.265625 45.796875 
Q 18.21875 45.796875 15.625 43.796875 
Q 13.03125 41.796875 13.03125 39.109375 
Q 13.03125 37.40625 14.109375 36.03125 
Q 15.1875 34.625 17.484375 33.6875 
Q 18.796875 33.203125 25.25 31.453125 
Q 34.578125 28.953125 38.25 27.359375 
Q 41.9375 25.78125 44.03125 22.75 
Q 46.140625 19.734375 46.140625 15.234375 
Q 46.140625 10.84375 43.578125 6.953125 
Q 41.015625 3.078125 36.171875 0.953125 
Q 31.34375 -1.171875 25.25 -1.171875 
Q 15.140625 -1.171875 9.84375 3.03125 
Q 4.546875 7.234375 3.078125 15.484375 
z
" id="ArialMT-115"/>
       </defs>
       <use xlink:href="#ArialMT-115"/>
       <use x="50" xlink:href="#ArialMT-109"/>
       <use x="133.300781" xlink:href="#ArialMT-97"/>
       <use x="188.916016" xlink:href="#ArialMT-108"/>
       <use x="211.132812" xlink:href="#ArialMT-108"/>
      </g>
     </g>
    </g>
   </g>
   <g id="matplotlib.axis_2">
    <g id="ytick_1">
     <g id="line2d_5">
      <path clip-path="url(#pdee444a858)" d="M 63.096563 274.888945 
L 358.508327 274.888945 
" style="fill:none;stroke:#cccccc;stroke-linecap:round;stroke-width:1.5;"/>
     </g>
     <g id="text_5">
      <!-- 0.0 -->
      <g style="fill:#262626;" transform="translate(27.661563 280.794141)scale(0.165 -0.165)">
       <defs>
        <path d="M 4.15625 35.296875 
Q 4.15625 48 6.765625 55.734375 
Q 9.375 63.484375 14.515625 67.671875 
Q 19.671875 71.875 27.484375 71.875 
Q 33.25 71.875 37.59375 69.546875 
Q 41.9375 67.234375 44.765625 62.859375 
Q 47.609375 58.5 49.21875 52.21875 
Q 50.828125 45.953125 50.828125 35.296875 
Q 50.828125 22.703125 48.234375 14.96875 
Q 45.65625 7.234375 40.5 3 
Q 35.359375 -1.21875 27.484375 -1.21875 
Q 17.140625 -1.21875 11.234375 6.203125 
Q 4.15625 15.140625 4.15625 35.296875 
z
M 13.1875 35.296875 
Q 13.1875 17.671875 17.3125 11.828125 
Q 21.4375 6 27.484375 6 
Q 33.546875 6 37.671875 11.859375 
Q 41.796875 17.71875 41.796875 35.296875 
Q 41.796875 52.984375 37.671875 58.78125 
Q 33.546875 64.59375 27.390625 64.59375 
Q 21.34375 64.59375 17.71875 59.46875 
Q 13.1875 52.9375 13.1875 35.296875 
z
" id="ArialMT-48"/>
        <path d="M 9.078125 0 
L 9.078125 10.015625 
L 19.09375 10.015625 
L 19.09375 0 
z
" id="ArialMT-46"/>
       </defs>
       <use xlink:href="#ArialMT-48"/>
       <use x="55.615234" xlink:href="#ArialMT-46"/>
       <use x="83.398438" xlink:href="#ArialMT-48"/>
      </g>
     </g>
    </g>
    <g id="ytick_2">
     <g id="line2d_6">
      <path clip-path="url(#pdee444a858)" d="M 63.096563 230.536945 
L 358.508327 230.536945 
" style="fill:none;stroke:#cccccc;stroke-linecap:round;stroke-width:1.5;"/>
     </g>
     <g id="text_6">
      <!-- 0.2 -->
      <g style="fill:#262626;" transform="translate(27.661563 236.442141)scale(0.165 -0.165)">
       <defs>
        <path d="M 50.34375 8.453125 
L 50.34375 0 
L 3.03125 0 
Q 2.9375 3.171875 4.046875 6.109375 
Q 5.859375 10.9375 9.828125 15.625 
Q 13.8125 20.3125 21.34375 26.46875 
Q 33.015625 36.03125 37.109375 41.625 
Q 41.21875 47.21875 41.21875 52.203125 
Q 41.21875 57.421875 37.46875 61 
Q 33.734375 64.59375 27.734375 64.59375 
Q 21.390625 64.59375 17.578125 60.78125 
Q 13.765625 56.984375 13.71875 50.25 
L 4.6875 51.171875 
Q 5.609375 61.28125 11.65625 66.578125 
Q 17.71875 71.875 27.9375 71.875 
Q 38.234375 71.875 44.234375 66.15625 
Q 50.25 60.453125 50.25 52 
Q 50.25 47.703125 48.484375 43.546875 
Q 46.734375 39.40625 42.65625 34.8125 
Q 38.578125 30.21875 29.109375 22.21875 
Q 21.1875 15.578125 18.9375 13.203125 
Q 16.703125 10.84375 15.234375 8.453125 
z
" id="ArialMT-50"/>
       </defs>
       <use xlink:href="#ArialMT-48"/>
       <use x="55.615234" xlink:href="#ArialMT-46"/>
       <use x="83.398438" xlink:href="#ArialMT-50"/>
      </g>
     </g>
    </g>
    <g id="ytick_3">
     <g id="line2d_7">
      <path clip-path="url(#pdee444a858)" d="M 63.096563 186.184945 
L 358.508327 186.184945 
" style="fill:none;stroke:#cccccc;stroke-linecap:round;stroke-width:1.5;"/>
     </g>
     <g id="text_7">
      <!-- 0.4 -->
      <g style="fill:#262626;" transform="translate(27.661563 192.090141)scale(0.165 -0.165)">
       <defs>
        <path d="M 32.328125 0 
L 32.328125 17.140625 
L 1.265625 17.140625 
L 1.265625 25.203125 
L 33.9375 71.578125 
L 41.109375 71.578125 
L 41.109375 25.203125 
L 50.78125 25.203125 
L 50.78125 17.140625 
L 41.109375 17.140625 
L 41.109375 0 
z
M 32.328125 25.203125 
L 32.328125 57.46875 
L 9.90625 25.203125 
z
" id="ArialMT-52"/>
       </defs>
       <use xlink:href="#ArialMT-48"/>
       <use x="55.615234" xlink:href="#ArialMT-46"/>
       <use x="83.398438" xlink:href="#ArialMT-52"/>
      </g>
     </g>
    </g>
    <g id="ytick_4">
     <g id="line2d_8">
      <path clip-path="url(#pdee444a858)" d="M 63.096563 141.832945 
L 358.508327 141.832945 
" style="fill:none;stroke:#cccccc;stroke-linecap:round;stroke-width:1.5;"/>
     </g>
     <g id="text_8">
      <!-- 0.6 -->
      <g style="fill:#262626;" transform="translate(27.661563 147.738141)scale(0.165 -0.165)">
       <defs>
        <path d="M 49.75 54.046875 
L 41.015625 53.375 
Q 39.84375 58.546875 37.703125 60.890625 
Q 34.125 64.65625 28.90625 64.65625 
Q 24.703125 64.65625 21.53125 62.3125 
Q 17.390625 59.28125 14.984375 53.46875 
Q 12.59375 47.65625 12.5 36.921875 
Q 15.671875 41.75 20.265625 44.09375 
Q 24.859375 46.4375 29.890625 46.4375 
Q 38.671875 46.4375 44.84375 39.96875 
Q 51.03125 33.5 51.03125 23.25 
Q 51.03125 16.5 48.125 10.71875 
Q 45.21875 4.9375 40.140625 1.859375 
Q 35.0625 -1.21875 28.609375 -1.21875 
Q 17.625 -1.21875 10.6875 6.859375 
Q 3.765625 14.9375 3.765625 33.5 
Q 3.765625 54.25 11.421875 63.671875 
Q 18.109375 71.875 29.4375 71.875 
Q 37.890625 71.875 43.28125 67.140625 
Q 48.6875 62.40625 49.75 54.046875 
z
M 13.875 23.1875 
Q 13.875 18.65625 15.796875 14.5 
Q 17.71875 10.359375 21.1875 8.171875 
Q 24.65625 6 28.46875 6 
Q 34.03125 6 38.03125 10.484375 
Q 42.046875 14.984375 42.046875 22.703125 
Q 42.046875 30.125 38.078125 34.390625 
Q 34.125 38.671875 28.125 38.671875 
Q 22.171875 38.671875 18.015625 34.390625 
Q 13.875 30.125 13.875 23.1875 
z
" id="ArialMT-54"/>
       </defs>
       <use xlink:href="#ArialMT-48"/>
       <use x="55.615234" xlink:href="#ArialMT-46"/>
       <use x="83.398438" xlink:href="#ArialMT-54"/>
      </g>
     </g>
    </g>
    <g id="ytick_5">
     <g id="line2d_9">
      <path clip-path="url(#pdee444a858)" d="M 63.096563 97.480945 
L 358.508327 97.480945 
" style="fill:none;stroke:#cccccc;stroke-linecap:round;stroke-width:1.5;"/>
     </g>
     <g id="text_9">
      <!-- 0.8 -->
      <g style="fill:#262626;" transform="translate(27.661563 103.386141)scale(0.165 -0.165)">
       <defs>
        <path d="M 17.671875 38.8125 
Q 12.203125 40.828125 9.5625 44.53125 
Q 6.9375 48.25 6.9375 53.421875 
Q 6.9375 61.234375 12.546875 66.546875 
Q 18.171875 71.875 27.484375 71.875 
Q 36.859375 71.875 42.578125 66.421875 
Q 48.296875 60.984375 48.296875 53.171875 
Q 48.296875 48.1875 45.671875 44.5 
Q 43.0625 40.828125 37.75 38.8125 
Q 44.34375 36.671875 47.78125 31.875 
Q 51.21875 27.09375 51.21875 20.453125 
Q 51.21875 11.28125 44.71875 5.03125 
Q 38.234375 -1.21875 27.640625 -1.21875 
Q 17.046875 -1.21875 10.546875 5.046875 
Q 4.046875 11.328125 4.046875 20.703125 
Q 4.046875 27.6875 7.59375 32.390625 
Q 11.140625 37.109375 17.671875 38.8125 
z
M 15.921875 53.71875 
Q 15.921875 48.640625 19.1875 45.40625 
Q 22.46875 42.1875 27.6875 42.1875 
Q 32.765625 42.1875 36.015625 45.375 
Q 39.265625 48.578125 39.265625 53.21875 
Q 39.265625 58.0625 35.90625 61.359375 
Q 32.5625 64.65625 27.59375 64.65625 
Q 22.5625 64.65625 19.234375 61.421875 
Q 15.921875 58.203125 15.921875 53.71875 
z
M 13.09375 20.65625 
Q 13.09375 16.890625 14.875 13.375 
Q 16.65625 9.859375 20.171875 7.921875 
Q 23.6875 6 27.734375 6 
Q 34.03125 6 38.125 10.046875 
Q 42.234375 14.109375 42.234375 20.359375 
Q 42.234375 26.703125 38.015625 30.859375 
Q 33.796875 35.015625 27.4375 35.015625 
Q 21.234375 35.015625 17.15625 30.90625 
Q 13.09375 26.8125 13.09375 20.65625 
z
" id="ArialMT-56"/>
       </defs>
       <use xlink:href="#ArialMT-48"/>
       <use x="55.615234" xlink:href="#ArialMT-46"/>
       <use x="83.398438" xlink:href="#ArialMT-56"/>
      </g>
     </g>
    </g>
    <g id="ytick_6">
     <g id="line2d_10">
      <path clip-path="url(#pdee444a858)" d="M 63.096563 53.128945 
L 358.508327 53.128945 
" style="fill:none;stroke:#cccccc;stroke-linecap:round;stroke-width:1.5;"/>
     </g>
     <g id="text_10">
      <!-- 1.0 -->
      <g style="fill:#262626;" transform="translate(27.661563 59.034141)scale(0.165 -0.165)">
       <defs>
        <path d="M 37.25 0 
L 28.46875 0 
L 28.46875 56 
Q 25.296875 52.984375 20.140625 49.953125 
Q 14.984375 46.921875 10.890625 45.40625 
L 10.890625 53.90625 
Q 18.265625 57.375 23.78125 62.296875 
Q 29.296875 67.234375 31.59375 71.875 
L 37.25 71.875 
z
" id="ArialMT-49"/>
       </defs>
       <use xlink:href="#ArialMT-49"/>
       <use x="55.615234" xlink:href="#ArialMT-46"/>
       <use x="83.398438" xlink:href="#ArialMT-48"/>
      </g>
     </g>
    </g>
    <g id="text_11">
     <!-- AP -->
     <g style="fill:#262626;" transform="translate(20.084063 176.015508)rotate(-90)scale(0.18 -0.18)">
      <defs>
       <path d="M -0.140625 0 
L 27.34375 71.578125 
L 37.546875 71.578125 
L 66.84375 0 
L 56.0625 0 
L 47.703125 21.6875 
L 17.78125 21.6875 
L 9.90625 0 
z
M 20.515625 29.390625 
L 44.78125 29.390625 
L 37.3125 49.21875 
Q 33.890625 58.25 32.234375 64.0625 
Q 30.859375 57.171875 28.375 50.390625 
z
" id="ArialMT-65"/>
       <path d="M 7.71875 0 
L 7.71875 71.578125 
L 34.71875 71.578125 
Q 41.84375 71.578125 45.609375 70.90625 
Q 50.875 70.015625 54.4375 67.546875 
Q 58.015625 65.09375 60.1875 60.640625 
Q 62.359375 56.203125 62.359375 50.875 
Q 62.359375 41.75 56.546875 35.421875 
Q 50.734375 29.109375 35.546875 29.109375 
L 17.1875 29.109375 
L 17.1875 0 
z
M 17.1875 37.546875 
L 35.6875 37.546875 
Q 44.875 37.546875 48.734375 40.96875 
Q 52.59375 44.390625 52.59375 50.59375 
Q 52.59375 55.078125 50.3125 58.265625 
Q 48.046875 61.46875 44.34375 62.5 
Q 41.9375 63.140625 35.5 63.140625 
L 17.1875 63.140625 
z
" id="ArialMT-80"/>
      </defs>
      <use xlink:href="#ArialMT-65"/>
      <use x="66.699219" xlink:href="#ArialMT-80"/>
     </g>
    </g>
   </g>
   <g id="patch_3">
    <path clip-path="url(#pdee444a858)" d="M 76.52437 274.888945 
L 123.743034 274.888945 
L 123.743034 57.520232 
L 76.52437 57.520232 
z
" style="fill:#ff9929;stroke:#ffffff;stroke-linejoin:miter;stroke-width:1.5;"/>
   </g>
   <g id="patch_4">
    <path clip-path="url(#pdee444a858)" d="M 150.303532 274.888945 
L 197.522196 274.888945 
L 197.522196 53.128945 
L 150.303532 53.128945 
z
" style="fill:#ff9929;stroke:#ffffff;stroke-linejoin:miter;stroke-width:1.5;"/>
   </g>
   <g id="patch_5">
    <path clip-path="url(#pdee444a858)" d="M 224.082694 274.888945 
L 271.301358 274.888945 
L 271.301358 57.520232 
L 224.082694 57.520232 
z
" style="fill:#ff9929;stroke:#ffffff;stroke-linejoin:miter;stroke-width:1.5;"/>
   </g>
   <g id="patch_6">
    <path clip-path="url(#pdee444a858)" d="M 297.861856 274.888945 
L 345.08052 274.888945 
L 345.08052 66.302807 
L 297.861856 66.302807 
z
" style="fill:#ff9929;stroke:#ffffff;stroke-linejoin:miter;stroke-width:1.5;"/>
   </g>
   <g id="patch_7">
    <path clip-path="url(#pdee444a858)" d="M 76.52437 274.888945 
L 123.743034 274.888945 
L 123.743034 79.739549 
L 76.52437 79.739549 
z
" style="fill:#2b7ac2;stroke:#ffffff;stroke-linejoin:miter;stroke-width:1.5;"/>
   </g>
   <g id="patch_8">
    <path clip-path="url(#pdee444a858)" d="M 150.303532 274.888945 
L 197.522196 274.888945 
L 197.522196 53.128945 
L 150.303532 53.128945 
z
" style="fill:#2b7ac2;stroke:#ffffff;stroke-linejoin:miter;stroke-width:1.5;"/>
   </g>
   <g id="patch_9">
    <path clip-path="url(#pdee444a858)" d="M 224.082694 274.888945 
L 271.301358 274.888945 
L 271.301358 65.915964 
L 224.082694 65.915964 
z
" style="fill:#2b7ac2;stroke:#ffffff;stroke-linejoin:miter;stroke-width:1.5;"/>
   </g>
   <g id="patch_10">
    <path clip-path="url(#pdee444a858)" d="M 297.861856 274.888945 
L 345.08052 274.888945 
L 345.08052 146.721617 
L 297.861856 146.721617 
z
" style="fill:#2b7ac2;stroke:#ffffff;stroke-linejoin:miter;stroke-width:1.5;"/>
   </g>
   <g id="patch_11">
    <path clip-path="url(#pdee444a858)" d="M 76.52437 274.888945 
L 123.743034 274.888945 
L 123.743034 90.927219 
L 76.52437 90.927219 
z
" style="fill:#00af90;stroke:#ffffff;stroke-linejoin:miter;stroke-width:1.5;"/>
   </g>
   <g id="patch_12">
    <path clip-path="url(#pdee444a858)" d="M 150.303532 274.888945 
L 197.522196 274.888945 
L 197.522196 54.226767 
L 150.303532 54.226767 
z
" style="fill:#00af90;stroke:#ffffff;stroke-linejoin:miter;stroke-width:1.5;"/>
   </g>
   <g id="patch_13">
    <path clip-path="url(#pdee444a858)" d="M 224.082694 274.888945 
L 271.301358 274.888945 
L 271.301358 76.971182 
L 224.082694 76.971182 
z
" style="fill:#00af90;stroke:#ffffff;stroke-linejoin:miter;stroke-width:1.5;"/>
   </g>
   <g id="patch_14">
    <path clip-path="url(#pdee444a858)" d="M 297.861856 274.888945 
L 345.08052 274.888945 
L 345.08052 160.608341 
L 297.861856 160.608341 
z
" style="fill:#00af90;stroke:#ffffff;stroke-linejoin:miter;stroke-width:1.5;"/>
   </g>
   <g id="patch_15">
    <path clip-path="url(#pdee444a858)" d="M 76.52437 274.888945 
L 123.743034 274.888945 
L 123.743034 146.215123 
L 76.52437 146.215123 
z
" style="fill:url(#h0ccc3cba9d);stroke:#ffffff;stroke-linejoin:miter;stroke-width:1.5;"/>
   </g>
   <g id="patch_16">
    <path clip-path="url(#pdee444a858)" d="M 150.303532 274.888945 
L 197.522196 274.888945 
L 197.522196 96.948096 
L 150.303532 96.948096 
z
" style="fill:url(#h0ccc3cba9d);stroke:#ffffff;stroke-linejoin:miter;stroke-width:1.5;"/>
   </g>
   <g id="patch_17">
    <path clip-path="url(#pdee444a858)" d="M 224.082694 274.888945 
L 271.301358 274.888945 
L 271.301358 132.949626 
L 224.082694 132.949626 
z
" style="fill:url(#h0ccc3cba9d);stroke:#ffffff;stroke-linejoin:miter;stroke-width:1.5;"/>
   </g>
   <g id="patch_18">
    <path clip-path="url(#pdee444a858)" d="M 297.861856 274.888945 
L 345.08052 274.888945 
L 345.08052 223.038284 
L 297.861856 223.038284 
z
" style="fill:url(#h0ccc3cba9d);stroke:#ffffff;stroke-linejoin:miter;stroke-width:1.5;"/>
   </g>
   <g id="patch_19">
    <path d="M 63.096563 274.888945 
L 63.096563 53.128945 
" style="fill:none;stroke:#cccccc;stroke-linecap:square;stroke-linejoin:miter;stroke-width:1.875;"/>
   </g>
   <g id="patch_20">
    <path d="M 358.508327 274.888945 
L 358.508327 53.128945 
" style="fill:none;stroke:#cccccc;stroke-linecap:square;stroke-linejoin:miter;stroke-width:1.875;"/>
   </g>
   <g id="patch_21">
    <path d="M 63.096563 274.888945 
L 358.508327 274.888945 
" style="fill:none;stroke:#cccccc;stroke-linecap:square;stroke-linejoin:miter;stroke-width:1.875;"/>
   </g>
   <g id="patch_22">
    <path d="M 63.096563 53.128945 
L 358.508327 53.128945 
" style="fill:none;stroke:#cccccc;stroke-linecap:square;stroke-linejoin:miter;stroke-width:1.875;"/>
   </g>
   <g id="text_12">
    <!-- APs by Object Size -->
    <g style="fill:#262626;" transform="translate(133.772289 47.128945)scale(0.18 -0.18)">
     <defs>
      <path id="ArialMT-32"/>
      <path d="M 14.703125 0 
L 6.546875 0 
L 6.546875 71.578125 
L 15.328125 71.578125 
L 15.328125 46.046875 
Q 20.90625 53.03125 29.546875 53.03125 
Q 34.328125 53.03125 38.59375 51.09375 
Q 42.875 49.171875 45.625 45.671875 
Q 48.390625 42.1875 49.953125 37.25 
Q 51.515625 32.328125 51.515625 26.703125 
Q 51.515625 13.375 44.921875 6.09375 
Q 38.328125 -1.171875 29.109375 -1.171875 
Q 19.921875 -1.171875 14.703125 6.5 
z
M 14.59375 26.3125 
Q 14.59375 17 17.140625 12.84375 
Q 21.296875 6.0625 28.375 6.0625 
Q 34.125 6.0625 38.328125 11.0625 
Q 42.53125 16.0625 42.53125 25.984375 
Q 42.53125 36.140625 38.5 40.96875 
Q 34.46875 45.796875 28.765625 45.796875 
Q 23 45.796875 18.796875 40.796875 
Q 14.59375 35.796875 14.59375 26.3125 
z
" id="ArialMT-98"/>
      <path d="M 6.203125 -19.96875 
L 5.21875 -11.71875 
Q 8.109375 -12.5 10.25 -12.5 
Q 13.1875 -12.5 14.9375 -11.515625 
Q 16.703125 -10.546875 17.828125 -8.796875 
Q 18.65625 -7.46875 20.515625 -2.25 
Q 20.75 -1.515625 21.296875 -0.09375 
L 1.609375 51.859375 
L 11.078125 51.859375 
L 21.875 21.828125 
Q 23.96875 16.109375 25.640625 9.8125 
Q 27.15625 15.875 29.25 21.625 
L 40.328125 51.859375 
L 49.125 51.859375 
L 29.390625 -0.875 
Q 26.21875 -9.421875 24.46875 -12.640625 
Q 22.125 -17 19.09375 -19.015625 
Q 16.0625 -21.046875 11.859375 -21.046875 
Q 9.328125 -21.046875 6.203125 -19.96875 
z
" id="ArialMT-121"/>
      <path d="M 4.828125 34.859375 
Q 4.828125 52.6875 14.390625 62.765625 
Q 23.96875 72.859375 39.109375 72.859375 
Q 49.03125 72.859375 56.984375 68.109375 
Q 64.9375 63.375 69.109375 54.90625 
Q 73.296875 46.4375 73.296875 35.6875 
Q 73.296875 24.8125 68.890625 16.21875 
Q 64.5 7.625 56.4375 3.203125 
Q 48.390625 -1.21875 39.0625 -1.21875 
Q 28.953125 -1.21875 20.984375 3.65625 
Q 13.03125 8.546875 8.921875 16.984375 
Q 4.828125 25.4375 4.828125 34.859375 
z
M 14.59375 34.71875 
Q 14.59375 21.78125 21.546875 14.328125 
Q 28.515625 6.890625 39.015625 6.890625 
Q 49.703125 6.890625 56.609375 14.40625 
Q 63.53125 21.921875 63.53125 35.75 
Q 63.53125 44.484375 60.578125 51 
Q 57.625 57.515625 51.921875 61.109375 
Q 46.234375 64.703125 39.15625 64.703125 
Q 29.109375 64.703125 21.84375 57.78125 
Q 14.59375 50.875 14.59375 34.71875 
z
" id="ArialMT-79"/>
      <path d="M 6.546875 61.375 
L 6.546875 71.578125 
L 15.328125 71.578125 
L 15.328125 61.375 
z
M -4.59375 -20.125 
L -2.9375 -12.640625 
Q -0.296875 -13.328125 1.21875 -13.328125 
Q 3.90625 -13.328125 5.21875 -11.546875 
Q 6.546875 -9.765625 6.546875 -2.640625 
L 6.546875 51.859375 
L 15.328125 51.859375 
L 15.328125 -2.828125 
Q 15.328125 -12.40625 12.84375 -16.15625 
Q 9.671875 -21.046875 2.296875 -21.046875 
Q -1.265625 -21.046875 -4.59375 -20.125 
z
" id="ArialMT-106"/>
      <path d="M 40.4375 19 
L 49.078125 17.875 
Q 47.65625 8.9375 41.8125 3.875 
Q 35.984375 -1.171875 27.484375 -1.171875 
Q 16.84375 -1.171875 10.375 5.78125 
Q 3.90625 12.75 3.90625 25.734375 
Q 3.90625 34.125 6.6875 40.421875 
Q 9.46875 46.734375 15.15625 49.875 
Q 20.84375 53.03125 27.546875 53.03125 
Q 35.984375 53.03125 41.359375 48.75 
Q 46.734375 44.484375 48.25 36.625 
L 39.703125 35.296875 
Q 38.484375 40.53125 35.375 43.15625 
Q 32.28125 45.796875 27.875 45.796875 
Q 21.234375 45.796875 17.078125 41.03125 
Q 12.9375 36.28125 12.9375 25.984375 
Q 12.9375 15.53125 16.9375 10.796875 
Q 20.953125 6.0625 27.390625 6.0625 
Q 32.5625 6.0625 36.03125 9.234375 
Q 39.5 12.40625 40.4375 19 
z
" id="ArialMT-99"/>
      <path d="M 25.78125 7.859375 
L 27.046875 0.09375 
Q 23.34375 -0.6875 20.40625 -0.6875 
Q 15.625 -0.6875 12.984375 0.828125 
Q 10.359375 2.34375 9.28125 4.8125 
Q 8.203125 7.28125 8.203125 15.1875 
L 8.203125 45.015625 
L 1.765625 45.015625 
L 1.765625 51.859375 
L 8.203125 51.859375 
L 8.203125 64.703125 
L 16.9375 69.96875 
L 16.9375 51.859375 
L 25.78125 51.859375 
L 25.78125 45.015625 
L 16.9375 45.015625 
L 16.9375 14.703125 
Q 16.9375 10.9375 17.40625 9.859375 
Q 17.875 8.796875 18.921875 8.15625 
Q 19.96875 7.515625 21.921875 7.515625 
Q 23.390625 7.515625 25.78125 7.859375 
z
" id="ArialMT-116"/>
      <path d="M 4.5 23 
L 13.421875 23.78125 
Q 14.0625 18.40625 16.375 14.96875 
Q 18.703125 11.53125 23.578125 9.40625 
Q 28.46875 7.28125 34.578125 7.28125 
Q 39.984375 7.28125 44.140625 8.890625 
Q 48.296875 10.5 50.3125 13.296875 
Q 52.34375 16.109375 52.34375 19.4375 
Q 52.34375 22.796875 50.390625 25.3125 
Q 48.4375 27.828125 43.953125 29.546875 
Q 41.0625 30.671875 31.203125 33.03125 
Q 21.34375 35.40625 17.390625 37.5 
Q 12.25 40.1875 9.734375 44.15625 
Q 7.234375 48.140625 7.234375 53.078125 
Q 7.234375 58.5 10.296875 63.203125 
Q 13.375 67.921875 19.28125 70.359375 
Q 25.203125 72.796875 32.421875 72.796875 
Q 40.375 72.796875 46.453125 70.234375 
Q 52.546875 67.671875 55.8125 62.6875 
Q 59.078125 57.71875 59.328125 51.421875 
L 50.25 50.734375 
Q 49.515625 57.515625 45.28125 60.984375 
Q 41.0625 64.453125 32.8125 64.453125 
Q 24.21875 64.453125 20.28125 61.296875 
Q 16.359375 58.15625 16.359375 53.71875 
Q 16.359375 49.859375 19.140625 47.359375 
Q 21.875 44.875 33.421875 42.265625 
Q 44.96875 39.65625 49.265625 37.703125 
Q 55.515625 34.8125 58.484375 30.390625 
Q 61.46875 25.984375 61.46875 20.21875 
Q 61.46875 14.5 58.203125 9.4375 
Q 54.9375 4.390625 48.796875 1.578125 
Q 42.671875 -1.21875 35.015625 -1.21875 
Q 25.296875 -1.21875 18.71875 1.609375 
Q 12.15625 4.4375 8.421875 10.125 
Q 4.6875 15.828125 4.5 23 
z
" id="ArialMT-83"/>
      <path d="M 1.953125 0 
L 1.953125 7.125 
L 34.96875 45.015625 
Q 29.34375 44.734375 25.046875 44.734375 
L 3.90625 44.734375 
L 3.90625 51.859375 
L 46.296875 51.859375 
L 46.296875 46.046875 
L 18.21875 13.140625 
L 12.796875 7.125 
Q 18.703125 7.5625 23.875 7.5625 
L 47.859375 7.5625 
L 47.859375 0 
z
" id="ArialMT-122"/>
     </defs>
     <use xlink:href="#ArialMT-65"/>
     <use x="66.699219" xlink:href="#ArialMT-80"/>
     <use x="133.398438" xlink:href="#ArialMT-115"/>
     <use x="183.398438" xlink:href="#ArialMT-32"/>
     <use x="211.181641" xlink:href="#ArialMT-98"/>
     <use x="266.796875" xlink:href="#ArialMT-121"/>
     <use x="316.796875" xlink:href="#ArialMT-32"/>
     <use x="344.580078" xlink:href="#ArialMT-79"/>
     <use x="422.363281" xlink:href="#ArialMT-98"/>
     <use x="477.978516" xlink:href="#ArialMT-106"/>
     <use x="500.195312" xlink:href="#ArialMT-101"/>
     <use x="555.810547" xlink:href="#ArialMT-99"/>
     <use x="605.810547" xlink:href="#ArialMT-116"/>
     <use x="633.59375" xlink:href="#ArialMT-32"/>
     <use x="661.376953" xlink:href="#ArialMT-83"/>
     <use x="728.076172" xlink:href="#ArialMT-105"/>
     <use x="750.292969" xlink:href="#ArialMT-122"/>
     <use x="800.292969" xlink:href="#ArialMT-101"/>
    </g>
   </g>
  </g>
  <g id="axes_2">
   <g id="patch_23">
    <path d="M 417.59068 274.888945 
L 713.002445 274.888945 
L 713.002445 53.128945 
L 417.59068 53.128945 
z
" style="fill:#ffffff;"/>
   </g>
   <g id="matplotlib.axis_3">
    <g id="xtick_5">
     <g id="line2d_11">
      <path clip-path="url(#pf05dad11dd)" d="M 453.398167 274.888945 
L 453.398167 53.128945 
" style="fill:none;stroke:#cccccc;stroke-linecap:round;stroke-width:1.5;"/>
     </g>
     <g id="text_13">
      <!-- 64 -->
      <g style="fill:#262626;" transform="translate(444.22262 299.199336)scale(0.165 -0.165)">
       <use xlink:href="#ArialMT-54"/>
       <use x="55.615234" xlink:href="#ArialMT-52"/>
      </g>
     </g>
    </g>
    <g id="xtick_6">
     <g id="line2d_12">
      <path clip-path="url(#pf05dad11dd)" d="M 509.347365 274.888945 
L 509.347365 53.128945 
" style="fill:none;stroke:#cccccc;stroke-linecap:round;stroke-width:1.5;"/>
     </g>
     <g id="text_14">
      <!-- 128 -->
      <g style="fill:#262626;" transform="translate(495.584044 299.199336)scale(0.165 -0.165)">
       <use xlink:href="#ArialMT-49"/>
       <use x="55.615234" xlink:href="#ArialMT-50"/>
       <use x="111.230469" xlink:href="#ArialMT-56"/>
      </g>
     </g>
    </g>
    <g id="xtick_7">
     <g id="line2d_13">
      <path clip-path="url(#pf05dad11dd)" d="M 565.296562 274.888945 
L 565.296562 53.128945 
" style="fill:none;stroke:#cccccc;stroke-linecap:round;stroke-width:1.5;"/>
     </g>
     <g id="text_15">
      <!-- 192 -->
      <g style="fill:#262626;" transform="translate(551.533242 299.199336)scale(0.165 -0.165)">
       <defs>
        <path d="M 5.46875 16.546875 
L 13.921875 17.328125 
Q 14.984375 11.375 18.015625 8.6875 
Q 21.046875 6 25.78125 6 
Q 29.828125 6 32.875 7.859375 
Q 35.9375 9.71875 37.890625 12.8125 
Q 39.84375 15.921875 41.15625 21.1875 
Q 42.484375 26.46875 42.484375 31.9375 
Q 42.484375 32.515625 42.4375 33.6875 
Q 39.796875 29.5 35.234375 26.875 
Q 30.671875 24.265625 25.34375 24.265625 
Q 16.453125 24.265625 10.296875 30.703125 
Q 4.15625 37.15625 4.15625 47.703125 
Q 4.15625 58.59375 10.578125 65.234375 
Q 17 71.875 26.65625 71.875 
Q 33.640625 71.875 39.421875 68.109375 
Q 45.21875 64.359375 48.21875 57.390625 
Q 51.21875 50.4375 51.21875 37.25 
Q 51.21875 23.53125 48.234375 15.40625 
Q 45.265625 7.28125 39.375 3.03125 
Q 33.5 -1.21875 25.59375 -1.21875 
Q 17.1875 -1.21875 11.859375 3.4375 
Q 6.546875 8.109375 5.46875 16.546875 
z
M 41.453125 48.140625 
Q 41.453125 55.71875 37.421875 60.15625 
Q 33.40625 64.59375 27.734375 64.59375 
Q 21.875 64.59375 17.53125 59.8125 
Q 13.1875 55.03125 13.1875 47.40625 
Q 13.1875 40.578125 17.3125 36.296875 
Q 21.4375 32.03125 27.484375 32.03125 
Q 33.59375 32.03125 37.515625 36.296875 
Q 41.453125 40.578125 41.453125 48.140625 
z
" id="ArialMT-57"/>
       </defs>
       <use xlink:href="#ArialMT-49"/>
       <use x="55.615234" xlink:href="#ArialMT-57"/>
       <use x="111.230469" xlink:href="#ArialMT-50"/>
      </g>
     </g>
    </g>
    <g id="xtick_8">
     <g id="line2d_14">
      <path clip-path="url(#pf05dad11dd)" d="M 621.24576 274.888945 
L 621.24576 53.128945 
" style="fill:none;stroke:#cccccc;stroke-linecap:round;stroke-width:1.5;"/>
     </g>
     <g id="text_16">
      <!-- 256 -->
      <g style="fill:#262626;" transform="translate(607.48244 299.199336)scale(0.165 -0.165)">
       <defs>
        <path d="M 4.15625 18.75 
L 13.375 19.53125 
Q 14.40625 12.796875 18.140625 9.390625 
Q 21.875 6 27.15625 6 
Q 33.5 6 37.890625 10.78125 
Q 42.28125 15.578125 42.28125 23.484375 
Q 42.28125 31 38.0625 35.34375 
Q 33.84375 39.703125 27 39.703125 
Q 22.75 39.703125 19.328125 37.765625 
Q 15.921875 35.84375 13.96875 32.765625 
L 5.71875 33.84375 
L 12.640625 70.609375 
L 48.25 70.609375 
L 48.25 62.203125 
L 19.671875 62.203125 
L 15.828125 42.96875 
Q 22.265625 47.46875 29.34375 47.46875 
Q 38.71875 47.46875 45.15625 40.96875 
Q 51.609375 34.46875 51.609375 24.265625 
Q 51.609375 14.546875 45.953125 7.46875 
Q 39.0625 -1.21875 27.15625 -1.21875 
Q 17.390625 -1.21875 11.203125 4.25 
Q 5.03125 9.71875 4.15625 18.75 
z
" id="ArialMT-53"/>
       </defs>
       <use xlink:href="#ArialMT-50"/>
       <use x="55.615234" xlink:href="#ArialMT-53"/>
       <use x="111.230469" xlink:href="#ArialMT-54"/>
      </g>
     </g>
    </g>
    <g id="xtick_9">
     <g id="line2d_15">
      <path clip-path="url(#pf05dad11dd)" d="M 677.194958 274.888945 
L 677.194958 53.128945 
" style="fill:none;stroke:#cccccc;stroke-linecap:round;stroke-width:1.5;"/>
     </g>
     <g id="text_17">
      <!-- 320 -->
      <g style="fill:#262626;" transform="translate(663.431638 299.199336)scale(0.165 -0.165)">
       <defs>
        <path d="M 4.203125 18.890625 
L 12.984375 20.0625 
Q 14.5 12.59375 18.140625 9.296875 
Q 21.78125 6 27 6 
Q 33.203125 6 37.46875 10.296875 
Q 41.75 14.59375 41.75 20.953125 
Q 41.75 27 37.796875 30.921875 
Q 33.84375 34.859375 27.734375 34.859375 
Q 25.25 34.859375 21.53125 33.890625 
L 22.515625 41.609375 
Q 23.390625 41.5 23.921875 41.5 
Q 29.546875 41.5 34.03125 44.421875 
Q 38.53125 47.359375 38.53125 53.46875 
Q 38.53125 58.296875 35.25 61.46875 
Q 31.984375 64.65625 26.8125 64.65625 
Q 21.6875 64.65625 18.265625 61.421875 
Q 14.84375 58.203125 13.875 51.765625 
L 5.078125 53.328125 
Q 6.6875 62.15625 12.390625 67.015625 
Q 18.109375 71.875 26.609375 71.875 
Q 32.46875 71.875 37.390625 69.359375 
Q 42.328125 66.84375 44.9375 62.5 
Q 47.5625 58.15625 47.5625 53.265625 
Q 47.5625 48.640625 45.0625 44.828125 
Q 42.578125 41.015625 37.703125 38.765625 
Q 44.046875 37.3125 47.5625 32.6875 
Q 51.078125 28.078125 51.078125 21.140625 
Q 51.078125 11.765625 44.234375 5.25 
Q 37.40625 -1.265625 26.953125 -1.265625 
Q 17.53125 -1.265625 11.296875 4.34375 
Q 5.078125 9.96875 4.203125 18.890625 
z
" id="ArialMT-51"/>
       </defs>
       <use xlink:href="#ArialMT-51"/>
       <use x="55.615234" xlink:href="#ArialMT-50"/>
       <use x="111.230469" xlink:href="#ArialMT-48"/>
      </g>
     </g>
    </g>
   </g>
   <g id="matplotlib.axis_4">
    <g id="ytick_7">
     <g id="line2d_16">
      <path clip-path="url(#pf05dad11dd)" d="M 417.59068 274.888945 
L 713.002445 274.888945 
" style="fill:none;stroke:#cccccc;stroke-linecap:round;stroke-width:1.5;"/>
     </g>
    </g>
    <g id="ytick_8">
     <g id="line2d_17">
      <path clip-path="url(#pf05dad11dd)" d="M 417.59068 230.536945 
L 713.002445 230.536945 
" style="fill:none;stroke:#cccccc;stroke-linecap:round;stroke-width:1.5;"/>
     </g>
    </g>
    <g id="ytick_9">
     <g id="line2d_18">
      <path clip-path="url(#pf05dad11dd)" d="M 417.59068 186.184945 
L 713.002445 186.184945 
" style="fill:none;stroke:#cccccc;stroke-linecap:round;stroke-width:1.5;"/>
     </g>
    </g>
    <g id="ytick_10">
     <g id="line2d_19">
      <path clip-path="url(#pf05dad11dd)" d="M 417.59068 141.832945 
L 713.002445 141.832945 
" style="fill:none;stroke:#cccccc;stroke-linecap:round;stroke-width:1.5;"/>
     </g>
    </g>
    <g id="ytick_11">
     <g id="line2d_20">
      <path clip-path="url(#pf05dad11dd)" d="M 417.59068 97.480945 
L 713.002445 97.480945 
" style="fill:none;stroke:#cccccc;stroke-linecap:round;stroke-width:1.5;"/>
     </g>
    </g>
    <g id="ytick_12">
     <g id="line2d_21">
      <path clip-path="url(#pf05dad11dd)" d="M 417.59068 53.128945 
L 713.002445 53.128945 
" style="fill:none;stroke:#cccccc;stroke-linecap:round;stroke-width:1.5;"/>
     </g>
    </g>
   </g>
   <g id="patch_24">
    <path clip-path="url(#pf05dad11dd)" d="M 431.018488 274.888945 
L 475.777846 274.888945 
L 475.777846 97.041817 
L 431.018488 97.041817 
z
" style="fill:#ff9929;stroke:#ffffff;stroke-linejoin:miter;stroke-width:1.5;"/>
   </g>
   <g id="patch_25">
    <path clip-path="url(#pf05dad11dd)" d="M 486.967685 274.888945 
L 531.727044 274.888945 
L 531.727044 72.889737 
L 486.967685 72.889737 
z
" style="fill:#ff9929;stroke:#ffffff;stroke-linejoin:miter;stroke-width:1.5;"/>
   </g>
   <g id="patch_26">
    <path clip-path="url(#pf05dad11dd)" d="M 542.916883 274.888945 
L 587.676242 274.888945 
L 587.676242 66.302807 
L 542.916883 66.302807 
z
" style="fill:#ff9929;stroke:#ffffff;stroke-linejoin:miter;stroke-width:1.5;"/>
   </g>
   <g id="patch_27">
    <path clip-path="url(#pf05dad11dd)" d="M 598.866081 274.888945 
L 643.62544 274.888945 
L 643.62544 64.107163 
L 598.866081 64.107163 
z
" style="fill:#ff9929;stroke:#ffffff;stroke-linejoin:miter;stroke-width:1.5;"/>
   </g>
   <g id="patch_28">
    <path clip-path="url(#pf05dad11dd)" d="M 654.815279 274.888945 
L 699.574637 274.888945 
L 699.574637 64.107163 
L 654.815279 64.107163 
z
" style="fill:#ff9929;stroke:#ffffff;stroke-linejoin:miter;stroke-width:1.5;"/>
   </g>
   <g id="patch_29">
    <path clip-path="url(#pf05dad11dd)" d="M 431.018488 274.888945 
L 475.777846 274.888945 
L 475.777846 97.041817 
L 431.018488 97.041817 
z
" style="fill:#2b7ac2;stroke:#ffffff;stroke-linejoin:miter;stroke-width:1.5;"/>
   </g>
   <g id="patch_30">
    <path clip-path="url(#pf05dad11dd)" d="M 486.967685 274.888945 
L 531.727044 274.888945 
L 531.727044 87.086712 
L 486.967685 87.086712 
z
" style="fill:#2b7ac2;stroke:#ffffff;stroke-linejoin:miter;stroke-width:1.5;"/>
   </g>
   <g id="patch_31">
    <path clip-path="url(#pf05dad11dd)" d="M 542.916883 274.888945 
L 587.676242 274.888945 
L 587.676242 71.119638 
L 542.916883 71.119638 
z
" style="fill:#2b7ac2;stroke:#ffffff;stroke-linejoin:miter;stroke-width:1.5;"/>
   </g>
   <g id="patch_32">
    <path clip-path="url(#pf05dad11dd)" d="M 598.866081 274.888945 
L 643.62544 274.888945 
L 643.62544 78.793609 
L 598.866081 78.793609 
z
" style="fill:#2b7ac2;stroke:#ffffff;stroke-linejoin:miter;stroke-width:1.5;"/>
   </g>
   <g id="patch_33">
    <path clip-path="url(#pf05dad11dd)" d="M 654.815279 274.888945 
L 699.574637 274.888945 
L 699.574637 103.622511 
L 654.815279 103.622511 
z
" style="fill:#2b7ac2;stroke:#ffffff;stroke-linejoin:miter;stroke-width:1.5;"/>
   </g>
   <g id="patch_34">
    <path clip-path="url(#pf05dad11dd)" d="M 431.018488 274.888945 
L 475.777846 274.888945 
L 475.777846 97.041817 
L 431.018488 97.041817 
z
" style="fill:#00af90;stroke:#ffffff;stroke-linejoin:miter;stroke-width:1.5;"/>
   </g>
   <g id="patch_35">
    <path clip-path="url(#pf05dad11dd)" d="M 486.967685 274.888945 
L 531.727044 274.888945 
L 531.727044 87.203723 
L 486.967685 87.203723 
z
" style="fill:#00af90;stroke:#ffffff;stroke-linejoin:miter;stroke-width:1.5;"/>
   </g>
   <g id="patch_36">
    <path clip-path="url(#pf05dad11dd)" d="M 542.916883 274.888945 
L 587.676242 274.888945 
L 587.676242 73.940823 
L 542.916883 73.940823 
z
" style="fill:#00af90;stroke:#ffffff;stroke-linejoin:miter;stroke-width:1.5;"/>
   </g>
   <g id="patch_37">
    <path clip-path="url(#pf05dad11dd)" d="M 598.866081 274.888945 
L 643.62544 274.888945 
L 643.62544 86.519834 
L 598.866081 86.519834 
z
" style="fill:#00af90;stroke:#ffffff;stroke-linejoin:miter;stroke-width:1.5;"/>
   </g>
   <g id="patch_38">
    <path clip-path="url(#pf05dad11dd)" d="M 654.815279 274.888945 
L 699.574637 274.888945 
L 699.574637 123.812259 
L 654.815279 123.812259 
z
" style="fill:#00af90;stroke:#ffffff;stroke-linejoin:miter;stroke-width:1.5;"/>
   </g>
   <g id="patch_39">
    <path clip-path="url(#pf05dad11dd)" d="M 431.018488 274.888945 
L 475.777846 274.888945 
L 475.777846 97.041817 
L 431.018488 97.041817 
z
" style="fill:url(#h0ccc3cba9d);stroke:#ffffff;stroke-linejoin:miter;stroke-width:1.5;"/>
   </g>
   <g id="patch_40">
    <path clip-path="url(#pf05dad11dd)" d="M 486.967685 274.888945 
L 531.727044 274.888945 
L 531.727044 117.173135 
L 486.967685 117.173135 
z
" style="fill:url(#h0ccc3cba9d);stroke:#ffffff;stroke-linejoin:miter;stroke-width:1.5;"/>
   </g>
   <g id="patch_41">
    <path clip-path="url(#pf05dad11dd)" d="M 542.916883 274.888945 
L 587.676242 274.888945 
L 587.676242 101.492729 
L 542.916883 101.492729 
z
" style="fill:url(#h0ccc3cba9d);stroke:#ffffff;stroke-linejoin:miter;stroke-width:1.5;"/>
   </g>
   <g id="patch_42">
    <path clip-path="url(#pf05dad11dd)" d="M 598.866081 274.888945 
L 643.62544 274.888945 
L 643.62544 129.994754 
L 598.866081 129.994754 
z
" style="fill:url(#h0ccc3cba9d);stroke:#ffffff;stroke-linejoin:miter;stroke-width:1.5;"/>
   </g>
   <g id="patch_43">
    <path clip-path="url(#pf05dad11dd)" d="M 654.815279 274.888945 
L 699.574637 274.888945 
L 699.574637 198.621824 
L 654.815279 198.621824 
z
" style="fill:url(#h0ccc3cba9d);stroke:#ffffff;stroke-linejoin:miter;stroke-width:1.5;"/>
   </g>
   <g id="patch_44">
    <path d="M 417.59068 274.888945 
L 417.59068 53.128945 
" style="fill:none;stroke:#cccccc;stroke-linecap:square;stroke-linejoin:miter;stroke-width:1.875;"/>
   </g>
   <g id="patch_45">
    <path d="M 713.002445 274.888945 
L 713.002445 53.128945 
" style="fill:none;stroke:#cccccc;stroke-linecap:square;stroke-linejoin:miter;stroke-width:1.875;"/>
   </g>
   <g id="patch_46">
    <path d="M 417.59068 274.888945 
L 713.002445 274.888945 
" style="fill:none;stroke:#cccccc;stroke-linecap:square;stroke-linejoin:miter;stroke-width:1.875;"/>
   </g>
   <g id="patch_47">
    <path d="M 417.59068 53.128945 
L 713.002445 53.128945 
" style="fill:none;stroke:#cccccc;stroke-linecap:square;stroke-linejoin:miter;stroke-width:1.875;"/>
   </g>
   <g id="text_18">
    <!-- APs by Distance to Center -->
    <g style="fill:#262626;" transform="translate(459.753281 47.128945)scale(0.18 -0.18)">
     <defs>
      <path d="M 7.71875 0 
L 7.71875 71.578125 
L 32.375 71.578125 
Q 40.71875 71.578125 45.125 70.5625 
Q 51.265625 69.140625 55.609375 65.4375 
Q 61.28125 60.640625 64.078125 53.1875 
Q 66.890625 45.75 66.890625 36.1875 
Q 66.890625 28.03125 64.984375 21.734375 
Q 63.09375 15.4375 60.109375 11.296875 
Q 57.125 7.171875 53.578125 4.796875 
Q 50.046875 2.4375 45.046875 1.21875 
Q 40.046875 0 33.546875 0 
z
M 17.1875 8.453125 
L 32.46875 8.453125 
Q 39.546875 8.453125 43.578125 9.765625 
Q 47.609375 11.078125 50 13.484375 
Q 53.375 16.84375 55.25 22.53125 
Q 57.125 28.21875 57.125 36.328125 
Q 57.125 47.5625 53.4375 53.59375 
Q 49.75 59.625 44.484375 61.671875 
Q 40.671875 63.140625 32.234375 63.140625 
L 17.1875 63.140625 
z
" id="ArialMT-68"/>
      <path d="M 6.59375 0 
L 6.59375 51.859375 
L 14.5 51.859375 
L 14.5 44.484375 
Q 20.21875 53.03125 31 53.03125 
Q 35.6875 53.03125 39.625 51.34375 
Q 43.5625 49.65625 45.515625 46.921875 
Q 47.46875 44.1875 48.25 40.4375 
Q 48.734375 37.984375 48.734375 31.890625 
L 48.734375 0 
L 39.9375 0 
L 39.9375 31.546875 
Q 39.9375 36.921875 38.90625 39.578125 
Q 37.890625 42.234375 35.28125 43.8125 
Q 32.671875 45.40625 29.15625 45.40625 
Q 23.53125 45.40625 19.453125 41.84375 
Q 15.375 38.28125 15.375 28.328125 
L 15.375 0 
z
" id="ArialMT-110"/>
      <path d="M 58.796875 25.09375 
L 68.265625 22.703125 
Q 65.28125 11.03125 57.546875 4.90625 
Q 49.8125 -1.21875 38.625 -1.21875 
Q 27.046875 -1.21875 19.796875 3.484375 
Q 12.546875 8.203125 8.765625 17.140625 
Q 4.984375 26.078125 4.984375 36.328125 
Q 4.984375 47.515625 9.25 55.828125 
Q 13.53125 64.15625 21.40625 68.46875 
Q 29.296875 72.796875 38.765625 72.796875 
Q 49.515625 72.796875 56.828125 67.328125 
Q 64.15625 61.859375 67.046875 51.953125 
L 57.71875 49.75 
Q 55.21875 57.5625 50.484375 61.125 
Q 45.75 64.703125 38.578125 64.703125 
Q 30.328125 64.703125 24.78125 60.734375 
Q 19.234375 56.78125 16.984375 50.109375 
Q 14.75 43.453125 14.75 36.375 
Q 14.75 27.25 17.40625 20.4375 
Q 20.0625 13.625 25.671875 10.25 
Q 31.296875 6.890625 37.84375 6.890625 
Q 45.796875 6.890625 51.3125 11.46875 
Q 56.84375 16.0625 58.796875 25.09375 
z
" id="ArialMT-67"/>
     </defs>
     <use xlink:href="#ArialMT-65"/>
     <use x="66.699219" xlink:href="#ArialMT-80"/>
     <use x="133.398438" xlink:href="#ArialMT-115"/>
     <use x="183.398438" xlink:href="#ArialMT-32"/>
     <use x="211.181641" xlink:href="#ArialMT-98"/>
     <use x="266.796875" xlink:href="#ArialMT-121"/>
     <use x="316.796875" xlink:href="#ArialMT-32"/>
     <use x="344.580078" xlink:href="#ArialMT-68"/>
     <use x="416.796875" xlink:href="#ArialMT-105"/>
     <use x="439.013672" xlink:href="#ArialMT-115"/>
     <use x="489.013672" xlink:href="#ArialMT-116"/>
     <use x="516.796875" xlink:href="#ArialMT-97"/>
     <use x="572.412109" xlink:href="#ArialMT-110"/>
     <use x="628.027344" xlink:href="#ArialMT-99"/>
     <use x="678.027344" xlink:href="#ArialMT-101"/>
     <use x="733.642578" xlink:href="#ArialMT-32"/>
     <use x="761.425781" xlink:href="#ArialMT-116"/>
     <use x="789.208984" xlink:href="#ArialMT-111"/>
     <use x="844.824219" xlink:href="#ArialMT-32"/>
     <use x="872.607422" xlink:href="#ArialMT-67"/>
     <use x="944.824219" xlink:href="#ArialMT-101"/>
     <use x="1000.439453" xlink:href="#ArialMT-110"/>
     <use x="1056.054688" xlink:href="#ArialMT-116"/>
     <use x="1083.837891" xlink:href="#ArialMT-101"/>
     <use x="1139.453125" xlink:href="#ArialMT-114"/>
    </g>
   </g>
  </g>
  <g id="axes_3">
   <g id="patch_48">
    <path d="M 1030.67068 164.008945 
C 1030.67068 149.448317 1027.802554 135.029273 1022.230443 121.577006 
C 1016.658332 108.12474 1008.490599 95.900864 998.19468 85.604945 
C 987.898761 75.309026 975.674885 67.141294 962.222619 61.569183 
C 948.770353 55.997072 934.351308 53.128945 919.79068 53.128945 
C 905.230052 53.128945 890.811008 55.997072 877.358741 61.569183 
C 863.906475 67.141294 851.682599 75.309026 841.38668 85.604945 
C 831.090761 95.900864 822.923029 108.12474 817.350918 121.577006 
C 811.778806 135.029273 808.91068 149.448317 808.91068 164.008945 
C 808.91068 178.569574 811.778806 192.988618 817.350918 206.440884 
C 822.923029 219.893151 831.090761 232.117026 841.38668 242.412945 
C 851.682599 252.708864 863.906475 260.876597 877.358741 266.448708 
C 890.811008 272.020819 905.230052 274.888945 919.79068 274.888945 
C 934.351308 274.888945 948.770353 272.020819 962.222619 266.448708 
C 975.674885 260.876597 987.898761 252.708864 998.19468 242.412945 
C 1008.490599 232.117026 1016.658332 219.893151 1022.230443 206.440884 
C 1027.802554 192.988618 1030.67068 178.569574 1030.67068 164.008945 
M 919.79068 164.008945 
C 919.79068 164.008945 919.79068 164.008945 919.79068 164.008945 
C 919.79068 164.008945 919.79068 164.008945 919.79068 164.008945 
C 919.79068 164.008945 919.79068 164.008945 919.79068 164.008945 
C 919.79068 164.008945 919.79068 164.008945 919.79068 164.008945 
C 919.79068 164.008945 919.79068 164.008945 919.79068 164.008945 
C 919.79068 164.008945 919.79068 164.008945 919.79068 164.008945 
C 919.79068 164.008945 919.79068 164.008945 919.79068 164.008945 
C 919.79068 164.008945 919.79068 164.008945 919.79068 164.008945 
C 919.79068 164.008945 919.79068 164.008945 919.79068 164.008945 
C 919.79068 164.008945 919.79068 164.008945 919.79068 164.008945 
C 919.79068 164.008945 919.79068 164.008945 919.79068 164.008945 
C 919.79068 164.008945 919.79068 164.008945 919.79068 164.008945 
C 919.79068 164.008945 919.79068 164.008945 919.79068 164.008945 
C 919.79068 164.008945 919.79068 164.008945 919.79068 164.008945 
C 919.79068 164.008945 919.79068 164.008945 919.79068 164.008945 
C 919.79068 164.008945 919.79068 164.008945 919.79068 164.008945 
M 1030.67068 164.008945 
z
" style="fill:#ffffff;"/>
   </g>
   <g id="matplotlib.axis_5">
    <g id="xtick_10">
     <g id="line2d_22">
      <path clip-path="url(#p1252ef5a07)" d="M 919.79068 164.008945 
L 919.79068 53.128945 
" style="fill:none;stroke:#cccccc;stroke-linecap:round;stroke-width:1.5;"/>
     </g>
     <g id="text_19">
      <!-- 0 -->
      <g style="fill:#262626;" transform="translate(911.904196 37.894453)scale(0.165 -0.165)">
       <defs>
        <path d="M 6.25 59.28125 
Q 6.25 64.890625 10.21875 68.84375 
Q 14.203125 72.796875 19.78125 72.796875 
Q 25.4375 72.796875 29.390625 68.84375 
Q 33.34375 64.890625 33.34375 59.28125 
Q 33.34375 53.65625 29.359375 49.671875 
Q 25.390625 45.703125 19.78125 45.703125 
Q 14.203125 45.703125 10.21875 49.65625 
Q 6.25 53.609375 6.25 59.28125 
z
M 11.578125 59.28125 
Q 11.578125 55.859375 13.984375 53.4375 
Q 16.40625 51.03125 19.828125 51.03125 
Q 23.1875 51.03125 25.609375 53.4375 
Q 28.03125 55.859375 28.03125 59.28125 
Q 28.03125 62.703125 25.609375 65.109375 
Q 23.1875 67.53125 19.828125 67.53125 
Q 16.40625 67.53125 13.984375 65.109375 
Q 11.578125 62.703125 11.578125 59.28125 
z
" id="ArialMT-176"/>
       </defs>
       <use xlink:href="#ArialMT-48"/>
       <use x="55.615234" xlink:href="#ArialMT-176"/>
      </g>
     </g>
    </g>
    <g id="xtick_11">
     <g id="line2d_23">
      <path clip-path="url(#p1252ef5a07)" d="M 919.79068 164.008945 
L 998.19468 85.604945 
" style="fill:none;stroke:#cccccc;stroke-linecap:round;stroke-width:1.5;"/>
     </g>
     <g id="text_20">
      <!-- 45 -->
      <g style="fill:#262626;" transform="translate(999.509004 76.081871)scale(0.165 -0.165)">
       <use xlink:href="#ArialMT-52"/>
       <use x="55.615234" xlink:href="#ArialMT-53"/>
       <use x="111.230469" xlink:href="#ArialMT-176"/>
      </g>
     </g>
    </g>
    <g id="xtick_12">
     <g id="line2d_24">
      <path clip-path="url(#p1252ef5a07)" d="M 919.79068 164.008945 
L 1030.67068 164.008945 
" style="fill:none;stroke:#cccccc;stroke-linecap:round;stroke-width:1.5;"/>
     </g>
     <g id="text_21">
      <!-- 90 -->
      <g style="fill:#262626;" transform="translate(1037.696422 168.274453)scale(0.165 -0.165)">
       <use xlink:href="#ArialMT-57"/>
       <use x="55.615234" xlink:href="#ArialMT-48"/>
       <use x="111.230469" xlink:href="#ArialMT-176"/>
      </g>
     </g>
    </g>
    <g id="xtick_13">
     <g id="line2d_25">
      <path clip-path="url(#p1252ef5a07)" d="M 919.79068 164.008945 
L 998.19468 242.412945 
" style="fill:none;stroke:#cccccc;stroke-linecap:round;stroke-width:1.5;"/>
     </g>
     <g id="text_22">
      <!-- 135 -->
      <g style="fill:#262626;" transform="translate(994.921231 260.467035)scale(0.165 -0.165)">
       <use xlink:href="#ArialMT-49"/>
       <use x="55.615234" xlink:href="#ArialMT-51"/>
       <use x="111.230469" xlink:href="#ArialMT-53"/>
       <use x="166.845703" xlink:href="#ArialMT-176"/>
      </g>
     </g>
    </g>
    <g id="xtick_14">
     <g id="line2d_26">
      <path clip-path="url(#p1252ef5a07)" d="M 919.79068 164.008945 
L 919.79068 274.888945 
" style="fill:none;stroke:#cccccc;stroke-linecap:round;stroke-width:1.5;"/>
     </g>
     <g id="text_23">
      <!-- 180 -->
      <g style="fill:#262626;" transform="translate(902.728649 298.654453)scale(0.165 -0.165)">
       <use xlink:href="#ArialMT-49"/>
       <use x="55.615234" xlink:href="#ArialMT-56"/>
       <use x="111.230469" xlink:href="#ArialMT-48"/>
       <use x="166.845703" xlink:href="#ArialMT-176"/>
      </g>
     </g>
    </g>
    <g id="xtick_15">
     <g id="line2d_27">
      <path clip-path="url(#p1252ef5a07)" d="M 919.79068 164.008945 
L 841.38668 242.412945 
" style="fill:none;stroke:#cccccc;stroke-linecap:round;stroke-width:1.5;"/>
     </g>
     <g id="text_24">
      <!-- 225 -->
      <g style="fill:#262626;" transform="translate(810.536067 260.467035)scale(0.165 -0.165)">
       <use xlink:href="#ArialMT-50"/>
       <use x="55.615234" xlink:href="#ArialMT-50"/>
       <use x="111.230469" xlink:href="#ArialMT-53"/>
       <use x="166.845703" xlink:href="#ArialMT-176"/>
      </g>
     </g>
    </g>
    <g id="xtick_16">
     <g id="line2d_28">
      <path clip-path="url(#p1252ef5a07)" d="M 919.79068 164.008945 
L 808.91068 164.008945 
" style="fill:none;stroke:#cccccc;stroke-linecap:round;stroke-width:1.5;"/>
     </g>
     <g id="text_25">
      <!-- 270 -->
      <g style="fill:#262626;" transform="translate(772.348649 168.274453)scale(0.165 -0.165)">
       <defs>
        <path d="M 4.734375 62.203125 
L 4.734375 70.65625 
L 51.078125 70.65625 
L 51.078125 63.8125 
Q 44.234375 56.546875 37.515625 44.484375 
Q 30.8125 32.421875 27.15625 19.671875 
Q 24.515625 10.6875 23.78125 0 
L 14.75 0 
Q 14.890625 8.453125 18.0625 20.40625 
Q 21.234375 32.375 27.171875 43.484375 
Q 33.109375 54.59375 39.796875 62.203125 
z
" id="ArialMT-55"/>
       </defs>
       <use xlink:href="#ArialMT-50"/>
       <use x="55.615234" xlink:href="#ArialMT-55"/>
       <use x="111.230469" xlink:href="#ArialMT-48"/>
       <use x="166.845703" xlink:href="#ArialMT-176"/>
      </g>
     </g>
    </g>
    <g id="xtick_17">
     <g id="line2d_29">
      <path clip-path="url(#p1252ef5a07)" d="M 919.79068 164.008945 
L 841.38668 85.604945 
" style="fill:none;stroke:#cccccc;stroke-linecap:round;stroke-width:1.5;"/>
     </g>
     <g id="text_26">
      <!-- 315 -->
      <g style="fill:#262626;" transform="translate(810.536067 76.081871)scale(0.165 -0.165)">
       <use xlink:href="#ArialMT-51"/>
       <use x="55.615234" xlink:href="#ArialMT-49"/>
       <use x="111.230469" xlink:href="#ArialMT-53"/>
       <use x="166.845703" xlink:href="#ArialMT-176"/>
      </g>
     </g>
    </g>
   </g>
   <g id="matplotlib.axis_6">
    <g id="ytick_13">
     <g id="line2d_30">
      <path clip-path="url(#p1252ef5a07)" d="M 919.79068 141.832945 
C 922.702806 141.832945 925.586615 142.406571 928.277068 143.520993 
C 930.967521 144.635415 933.412296 146.268962 935.47148 148.328145 
C 937.530664 150.387329 939.16421 152.832104 940.278633 155.522558 
C 941.393055 158.213011 941.96668 161.09682 941.96668 164.008945 
C 941.96668 166.921071 941.393055 169.80488 940.278633 172.495333 
C 939.16421 175.185786 937.530664 177.630562 935.47148 179.689745 
C 933.412296 181.748929 930.967521 183.382476 928.277068 184.496898 
C 925.586615 185.61132 922.702806 186.184945 919.79068 186.184945 
C 916.878555 186.184945 913.994746 185.61132 911.304292 184.496898 
C 908.613839 183.382476 906.169064 181.748929 904.10988 179.689745 
C 902.050696 177.630562 900.41715 175.185786 899.302728 172.495333 
C 898.188305 169.80488 897.61468 166.921071 897.61468 164.008945 
C 897.61468 161.09682 898.188305 158.213011 899.302728 155.522558 
C 900.41715 152.832104 902.050696 150.387329 904.10988 148.328145 
C 906.169064 146.268962 908.613839 144.635415 911.304292 143.520993 
C 913.994746 142.406571 916.878555 141.832945 919.79068 141.832945 
" style="fill:none;stroke:#cccccc;stroke-linecap:round;stroke-width:1.5;"/>
     </g>
     <g id="text_27">
      <!-- 0.2 -->
      <g style="fill:#262626;" transform="translate(928.277068 140.241618)scale(0.165 -0.165)">
       <use xlink:href="#ArialMT-48"/>
       <use x="55.615234" xlink:href="#ArialMT-46"/>
       <use x="83.398438" xlink:href="#ArialMT-50"/>
      </g>
     </g>
    </g>
    <g id="ytick_14">
     <g id="line2d_31">
      <path clip-path="url(#p1252ef5a07)" d="M 919.79068 119.656945 
C 925.614931 119.656945 931.382549 120.804196 936.763456 123.03304 
C 942.144362 125.261885 947.033913 128.528978 951.15228 132.647345 
C 955.270648 136.765713 958.537741 141.655263 960.766585 147.03617 
C 962.99543 152.417076 964.14268 158.184694 964.14268 164.008945 
C 964.14268 169.833197 962.99543 175.600814 960.766585 180.981721 
C 958.537741 186.362627 955.270648 191.252178 951.15228 195.370545 
C 947.033913 199.488913 942.144362 202.756006 936.763456 204.98485 
C 931.382549 207.213695 925.614931 208.360945 919.79068 208.360945 
C 913.966429 208.360945 908.198811 207.213695 902.817905 204.98485 
C 897.436998 202.756006 892.547448 199.488913 888.42908 195.370545 
C 884.310713 191.252178 881.04362 186.362627 878.814775 180.981721 
C 876.585931 175.600814 875.43868 169.833197 875.43868 164.008945 
C 875.43868 158.184694 876.585931 152.417076 878.814775 147.03617 
C 881.04362 141.655263 884.310713 136.765713 888.42908 132.647345 
C 892.547448 128.528978 897.436998 125.261885 902.817905 123.03304 
C 908.198811 120.804196 913.966429 119.656945 919.79068 119.656945 
" style="fill:none;stroke:#cccccc;stroke-linecap:round;stroke-width:1.5;"/>
     </g>
     <g id="text_28">
      <!-- 0.4 -->
      <g style="fill:#262626;" transform="translate(936.763456 119.753665)scale(0.165 -0.165)">
       <use xlink:href="#ArialMT-48"/>
       <use x="55.615234" xlink:href="#ArialMT-46"/>
       <use x="83.398438" xlink:href="#ArialMT-52"/>
      </g>
     </g>
    </g>
    <g id="ytick_15">
     <g id="line2d_32">
      <path clip-path="url(#p1252ef5a07)" d="M 919.79068 97.480945 
C 928.527057 97.480945 937.178484 99.201821 945.249844 102.545088 
C 953.321203 105.888354 960.655529 110.788994 966.83308 116.966545 
C 973.010631 123.144097 977.911271 130.478422 981.254538 138.549782 
C 984.597804 146.621142 986.31868 155.272568 986.31868 164.008945 
C 986.31868 172.745322 984.597804 181.396749 981.254538 189.468109 
C 977.911271 197.539469 973.010631 204.873794 966.83308 211.051345 
C 960.655529 217.228897 953.321203 222.129536 945.249844 225.472803 
C 937.178484 228.81607 928.527057 230.536945 919.79068 230.536945 
C 911.054303 230.536945 902.402877 228.81607 894.331517 225.472803 
C 886.260157 222.129536 878.925832 217.228897 872.74828 211.051345 
C 866.570729 204.873794 861.670089 197.539469 858.326823 189.468109 
C 854.983556 181.396749 853.26268 172.745322 853.26268 164.008945 
C 853.26268 155.272568 854.983556 146.621142 858.326823 138.549782 
C 861.670089 130.478422 866.570729 123.144097 872.74828 116.966545 
C 878.925832 110.788994 886.260157 105.888354 894.331517 102.545088 
C 902.402877 99.201821 911.054303 97.480945 919.79068 97.480945 
" style="fill:none;stroke:#cccccc;stroke-linecap:round;stroke-width:1.5;"/>
     </g>
     <g id="text_29">
      <!-- 0.6 -->
      <g style="fill:#262626;" transform="translate(945.249844 99.265713)scale(0.165 -0.165)">
       <use xlink:href="#ArialMT-48"/>
       <use x="55.615234" xlink:href="#ArialMT-46"/>
       <use x="83.398438" xlink:href="#ArialMT-54"/>
      </g>
     </g>
    </g>
    <g id="ytick_16">
     <g id="line2d_33">
      <path clip-path="url(#p1252ef5a07)" d="M 919.79068 75.304945 
C 931.439183 75.304945 942.974418 77.599446 953.736231 82.057135 
C 964.498044 86.514824 974.277145 93.04901 982.51388 101.285745 
C 990.750615 109.522481 997.284801 119.301581 1001.74249 130.063394 
C 1006.200179 140.825207 1008.49468 152.360443 1008.49468 164.008945 
C 1008.49468 175.657448 1006.200179 187.192683 1001.74249 197.954496 
C 997.284801 208.71631 990.750615 218.49541 982.51388 226.732145 
C 974.277145 234.96888 964.498044 241.503066 953.736231 245.960755 
C 942.974418 250.418444 931.439183 252.712945 919.79068 252.712945 
C 908.142178 252.712945 896.606942 250.418444 885.845129 245.960755 
C 875.083316 241.503066 865.304215 234.96888 857.06748 226.732145 
C 848.830745 218.49541 842.296559 208.71631 837.83887 197.954496 
C 833.381181 187.192683 831.08668 175.657448 831.08668 164.008945 
C 831.08668 152.360443 833.381181 140.825207 837.83887 130.063394 
C 842.296559 119.301581 848.830745 109.522481 857.06748 101.285745 
C 865.304215 93.04901 875.083316 86.514824 885.845129 82.057135 
C 896.606942 77.599446 908.142178 75.304945 919.79068 75.304945 
" style="fill:none;stroke:#cccccc;stroke-linecap:round;stroke-width:1.5;"/>
     </g>
     <g id="text_30">
      <!-- 0.8 -->
      <g style="fill:#262626;" transform="translate(953.736231 78.77776)scale(0.165 -0.165)">
       <use xlink:href="#ArialMT-48"/>
       <use x="55.615234" xlink:href="#ArialMT-46"/>
       <use x="83.398438" xlink:href="#ArialMT-56"/>
      </g>
     </g>
    </g>
    <g id="ytick_17">
     <g id="line2d_34">
      <path clip-path="url(#p1252ef5a07)" d="M 919.79068 53.128945 
C 934.351308 53.128945 948.770353 55.997072 962.222619 61.569183 
C 975.674885 67.141294 987.898761 75.309026 998.19468 85.604945 
C 1008.490599 95.900864 1016.658332 108.12474 1022.230443 121.577006 
C 1027.802554 135.029273 1030.67068 149.448317 1030.67068 164.008945 
C 1030.67068 178.569574 1027.802554 192.988618 1022.230443 206.440884 
C 1016.658332 219.893151 1008.490599 232.117026 998.19468 242.412945 
C 987.898761 252.708864 975.674885 260.876597 962.222619 266.448708 
C 948.770353 272.020819 934.351308 274.888945 919.79068 274.888945 
C 905.230052 274.888945 890.811008 272.020819 877.358741 266.448708 
C 863.906475 260.876597 851.682599 252.708864 841.38668 242.412945 
C 831.090761 232.117026 822.923029 219.893151 817.350918 206.440884 
C 811.778806 192.988618 808.91068 178.569574 808.91068 164.008945 
C 808.91068 149.448317 811.778806 135.029273 817.350918 121.577006 
C 822.923029 108.12474 831.090761 95.900864 841.38668 85.604945 
C 851.682599 75.309026 863.906475 67.141294 877.358741 61.569183 
C 890.811008 55.997072 905.230052 53.128945 919.79068 53.128945 
" style="fill:none;stroke:#cccccc;stroke-linecap:round;stroke-width:1.5;"/>
     </g>
     <g id="text_31">
      <!-- 1.0 -->
      <g style="fill:#262626;" transform="translate(962.222619 58.289808)scale(0.165 -0.165)">
       <use xlink:href="#ArialMT-49"/>
       <use x="55.615234" xlink:href="#ArialMT-46"/>
       <use x="83.398438" xlink:href="#ArialMT-48"/>
      </g>
     </g>
    </g>
   </g>
   <g id="line2d_35">
    <path clip-path="url(#p1252ef5a07)" d="M 919.79068 58.618054 
L 929.454509 53.550877 
L 935.42273 75.355186 
L 942.805792 78.115378 
L 957.713874 59.815828 
L 935.565304 130.180155 
L 975.23068 67.984049 
L 951.9046 118.145514 
L 991.06297 79.069937 
L 978.787749 105.011876 
L 1004.729688 92.736655 
L 1010.618259 100.41079 
L 1015.815577 108.568945 
L 1020.282088 117.149032 
L 1015.730878 129.089569 
L 1013.107148 139.004873 
L 1010.606726 147.995626 
L 1014.937729 155.684657 
L 1021.888106 164.008945 
L 1022.593239 173.003004 
L 1024.66159 182.500516 
L 1013.107148 189.013018 
L 988.908887 189.165915 
L 997.397906 200.197789 
L 1006.308161 213.959836 
L 995.330449 216.902461 
L 992.955964 225.401908 
L 982.669136 226.887401 
L 982.594975 238.85619 
L 978.981042 248.541543 
L 961.507908 236.265303 
L 962.010998 254.550708 
L 953.208148 255.822683 
L 948.488536 271.110801 
L 935.232095 251.581561 
L 927.062472 247.125907 
L 919.79068 248.541223 
L 912.423207 248.219552 
L 903.586726 255.906135 
L 894.218333 259.446242 
L 885.622258 257.885913 
L 884.529756 239.626242 
L 919.79068 164.008945 
L 898.3814 194.584566 
L 848.51839 248.947953 
L 919.79068 164.008945 
L 834.851672 235.281235 
L 873.927249 196.122865 
L 856.090996 200.785975 
L 919.79068 164.008945 
L 919.79068 164.008945 
L 812.688825 192.706801 
L 919.79068 164.008945 
L 809.332612 173.672774 
L 919.79068 164.008945 
L 809.332612 154.345117 
L 837.623782 149.520704 
L 843.440842 143.551068 
L 815.597562 126.085752 
L 869.047494 140.347009 
L 849.435805 123.389539 
L 866.732986 126.857548 
L 871.013824 123.080303 
L 869.33266 113.550926 
L 848.51839 79.069937 
L 877.601805 103.756987 
L 874.779987 86.048138 
L 876.178484 70.482289 
L 891.254416 85.606203 
L 891.092824 56.90709 
L 903.586726 72.111756 
L 910.126851 53.550877 
L 919.79068 58.618054 
" style="fill:none;stroke:#ff9929;stroke-linecap:round;stroke-width:2.25;"/>
   </g>
   <g id="line2d_36">
    <path clip-path="url(#p1252ef5a07)" d="M 919.79068 74.23226 
L 928.460485 64.912626 
L 935.00061 77.749147 
L 942.805792 78.115378 
L 955.031069 67.186774 
L 920.421665 162.655794 
L 973.400977 71.153187 
L 951.9046 118.145514 
L 991.06297 79.069937 
L 963.539447 120.260179 
L 997.581356 98.734818 
L 1002.683409 105.966832 
L 1015.815577 108.568945 
L 1020.282088 117.149032 
L 995.46591 136.465414 
L 1013.107148 139.004873 
L 1009.165201 148.249806 
L 1006.019108 156.464935 
L 1021.212523 164.008945 
L 1021.012863 172.864739 
L 1012.790015 180.407237 
L 1006.924983 187.356511 
L 988.908887 189.165915 
L 997.397906 200.197789 
L 1006.308161 213.959836 
L 995.030688 216.692566 
L 992.955964 225.401908 
L 982.669136 226.887401 
L 982.594975 238.85619 
L 978.981042 248.541543 
L 961.507908 236.265303 
L 962.010998 254.550708 
L 953.208148 255.822683 
L 948.488536 271.110801 
L 935.232095 251.581561 
L 927.062472 247.125907 
L 919.79068 248.541223 
L 912.423207 248.219552 
L 903.586726 255.906135 
L 894.218333 259.446242 
L 885.622258 257.885913 
L 884.529756 239.626242 
L 919.79068 164.008945 
L 898.3814 194.584566 
L 848.51839 248.947953 
M 834.851672 235.281235 
L 873.927249 196.122865 
L 856.090996 200.785975 
L 919.79068 164.008945 
M 812.688825 192.706801 
M 809.332612 173.672774 
M 809.332612 154.345117 
L 837.623782 149.520704 
L 843.440842 143.551068 
L 815.597562 126.085752 
L 886.525703 148.497232 
L 855.961967 127.157421 
L 873.146553 131.348376 
L 875.218726 126.608635 
L 878.780984 122.999249 
L 848.51839 79.069937 
L 880.330439 107.65388 
L 879.330169 93.929285 
L 878.109439 74.623236 
L 891.254416 85.606203 
L 891.092824 56.90709 
L 909.525842 105.794153 
L 912.853886 84.721024 
L 919.79068 74.23226 
" style="fill:none;stroke:#2b7ac2;stroke-linecap:round;stroke-width:2.25;"/>
   </g>
   <g id="line2d_37">
    <path clip-path="url(#p1252ef5a07)" d="M 919.79068 76.809987 
L 928.032371 69.805983 
L 934.634773 79.823912 
L 942.805792 78.115378 
L 951.243701 77.592482 
L 920.421665 162.655794 
L 964.579195 86.432962 
L 951.9046 118.145514 
L 991.06297 79.069937 
L 961.460133 122.339493 
L 984.07895 110.064682 
L 997.129014 109.856061 
L 1015.815577 108.568945 
L 1020.282088 117.149032 
L 994.897228 136.672397 
L 1011.198402 139.51632 
L 1009.165201 148.249806 
L 997.610666 157.200579 
L 1013.105532 164.008945 
L 1003.105329 171.298033 
L 993.032275 176.923415 
L 1006.288142 187.18587 
L 986.226688 188.189675 
L 997.397906 200.197789 
L 1005.353674 213.408763 
L 993.021142 215.285467 
L 988.574014 221.725016 
L 982.669136 226.887401 
L 982.594975 238.85619 
L 978.981042 248.541543 
L 961.507908 236.265303 
L 962.010998 254.550708 
L 953.208148 255.822683 
L 948.488536 271.110801 
L 935.232095 251.581561 
L 927.062472 247.125907 
L 919.79068 248.541223 
L 912.423207 248.219552 
L 903.586726 255.906135 
L 894.218333 259.446242 
L 889.835946 246.3089 
L 892.494394 222.546019 
L 919.79068 164.008945 
L 898.3814 194.584566 
L 848.51839 248.947953 
M 834.851672 235.281235 
L 873.927249 196.122865 
L 856.090996 200.785975 
L 919.79068 164.008945 
M 812.688825 192.706801 
M 809.332612 173.672774 
M 809.332612 154.345117 
L 873.661895 155.875196 
L 874.19286 151.791046 
L 815.597562 126.085752 
L 891.600021 150.863425 
L 881.43505 141.864312 
L 893.636534 145.695615 
L 879.363557 130.086561 
L 879.469713 123.687978 
L 848.51839 79.069937 
L 892.241974 124.665316 
L 879.34017 93.946606 
L 879.625041 77.873453 
L 891.254416 85.606203 
L 893.934196 67.511234 
L 909.609533 106.268789 
L 912.876285 84.977049 
L 919.79068 76.809987 
" style="fill:none;stroke:#00af90;stroke-linecap:round;stroke-width:2.25;"/>
   </g>
   <g id="line2d_38">
    <path clip-path="url(#p1252ef5a07)" d="M 919.79068 100.329564 
L 923.718656 119.111971 
L 931.085056 99.955357 
L 931.511339 120.266851 
L 946.371266 90.979387 
L 919.79068 164.008945 
L 938.83266 131.027268 
L 951.9046 118.145514 
L 991.06297 79.069937 
L 959.380819 124.418807 
L 973.445222 118.987439 
L 997.129014 109.856061 
L 992.047038 122.291718 
L 1020.282088 117.149032 
L 992.54095 137.530012 
L 991.980431 144.66576 
L 969.863065 155.179833 
L 972.723983 159.377881 
L 991.588225 164.008945 
L 975.6884 168.899362 
L 951.404476 169.58331 
L 995.142871 184.199504 
L 972.403047 183.158281 
L 986.453297 195.094234 
L 952.921757 183.137181 
L 969.669875 198.934733 
L 980.291791 214.775405 
L 973.966659 218.184924 
L 975.402608 230.28466 
L 978.981042 248.541543 
L 956.079789 226.863526 
L 962.010998 254.550708 
L 949.077899 244.474917 
L 948.488536 271.110801 
L 935.232095 251.581561 
L 927.062472 247.125907 
L 919.79068 248.541223 
L 912.423207 248.219552 
L 903.586726 255.906135 
L 898.544676 243.300113 
L 901.580038 214.042274 
L 904.943975 195.847807 
L 919.79068 164.008945 
L 909.08604 179.296756 
L 907.794354 178.30561 
M 919.79068 164.008945 
L 873.927249 196.122865 
L 856.090996 200.785975 
L 919.79068 164.008945 
M 812.688825 192.706801 
M 809.332612 173.672774 
M 809.332612 154.345117 
L 891.680952 159.052442 
L 874.19286 151.791046 
L 815.597562 126.085752 
L 902.876285 156.121633 
L 908.698695 157.604985 
L 904.50287 153.304305 
L 894.280945 142.603736 
L 899.199731 143.417996 
L 853.008993 84.42163 
L 895.772706 129.707724 
L 904.210056 137.022512 
L 905.790701 133.985894 
L 903.770321 119.993371 
L 908.851399 123.18299 
L 911.772234 118.534078 
L 915.728014 117.572464 
L 919.79068 100.329564 
" style="fill:none;stroke:#00af90;stroke-dasharray:8.325,3.6;stroke-dashoffset:0;stroke-width:2.25;"/>
   </g>
   <g id="patch_49">
    <path d="M 919.79068 53.128945 
C 905.230052 53.128945 890.811008 55.997072 877.358741 61.569183 
C 863.906475 67.141294 851.682599 75.309026 841.38668 85.604945 
C 831.090761 95.900864 822.923029 108.12474 817.350918 121.577006 
C 811.778806 135.029273 808.91068 149.448317 808.91068 164.008945 
C 808.91068 178.569574 811.778806 192.988618 817.350918 206.440884 
C 822.923029 219.893151 831.090761 232.117026 841.38668 242.412945 
C 851.682599 252.708864 863.906475 260.876597 877.358741 266.448708 
C 890.811008 272.020819 905.230052 274.888945 919.79068 274.888945 
C 934.351308 274.888945 948.770353 272.020819 962.222619 266.448708 
C 975.674885 260.876597 987.898761 252.708864 998.19468 242.412945 
C 1008.490599 232.117026 1016.658332 219.893151 1022.230443 206.440884 
C 1027.802554 192.988618 1030.67068 178.569574 1030.67068 164.008945 
C 1030.67068 149.448317 1027.802554 135.029273 1022.230443 121.577006 
C 1016.658332 108.12474 1008.490599 95.900864 998.19468 85.604945 
C 987.898761 75.309026 975.674885 67.141294 962.222619 61.569183 
C 948.770353 55.997072 934.351308 53.128945 919.79068 53.128945 
" style="fill:none;stroke:#cccccc;stroke-linecap:square;stroke-linejoin:miter;stroke-width:1.875;"/>
   </g>
   <g id="text_32">
    <!-- APs by Angle -->
    <g style="fill:#262626;" transform="translate(866.256149 20.084063)scale(0.18 -0.18)">
     <use xlink:href="#ArialMT-65"/>
     <use x="66.699219" xlink:href="#ArialMT-80"/>
     <use x="133.398438" xlink:href="#ArialMT-115"/>
     <use x="183.398438" xlink:href="#ArialMT-32"/>
     <use x="211.181641" xlink:href="#ArialMT-98"/>
     <use x="266.796875" xlink:href="#ArialMT-121"/>
     <use x="316.796875" xlink:href="#ArialMT-32"/>
     <use x="339.080078" xlink:href="#ArialMT-65"/>
     <use x="405.779297" xlink:href="#ArialMT-110"/>
     <use x="461.394531" xlink:href="#ArialMT-103"/>
     <use x="517.009766" xlink:href="#ArialMT-108"/>
     <use x="539.226562" xlink:href="#ArialMT-101"/>
    </g>
   </g>
   <g id="legend_1">
    <g id="text_33">
     <!-- setting -->
     <g style="fill:#262626;" transform="translate(1243.737641 121.58332)scale(0.18 -0.18)">
      <use xlink:href="#ArialMT-115"/>
      <use x="50" xlink:href="#ArialMT-101"/>
      <use x="105.615234" xlink:href="#ArialMT-116"/>
      <use x="133.398438" xlink:href="#ArialMT-116"/>
      <use x="161.181641" xlink:href="#ArialMT-105"/>
      <use x="183.398438" xlink:href="#ArialMT-110"/>
      <use x="239.013672" xlink:href="#ArialMT-103"/>
     </g>
    </g>
    <g id="line2d_39">
     <path d="M 1089.87268 139.657148 
L 1122.87268 139.657148 
" style="fill:none;stroke:#00af90;stroke-dasharray:8.325,3.6;stroke-dashoffset:0;stroke-width:2.25;"/>
    </g>
    <g id="line2d_40"/>
    <g id="text_34">
     <!-- IoU=0.75 -->
     <g style="fill:#262626;" transform="translate(1136.07268 145.432148)scale(0.165 -0.165)">
      <defs>
       <path d="M 9.328125 0 
L 9.328125 71.578125 
L 18.796875 71.578125 
L 18.796875 0 
z
" id="ArialMT-73"/>
       <path d="M 54.6875 71.578125 
L 64.15625 71.578125 
L 64.15625 30.21875 
Q 64.15625 19.4375 61.71875 13.078125 
Q 59.28125 6.734375 52.90625 2.75 
Q 46.53125 -1.21875 36.1875 -1.21875 
Q 26.125 -1.21875 19.71875 2.25 
Q 13.328125 5.71875 10.59375 12.28125 
Q 7.859375 18.84375 7.859375 30.21875 
L 7.859375 71.578125 
L 17.328125 71.578125 
L 17.328125 30.28125 
Q 17.328125 20.953125 19.0625 16.53125 
Q 20.796875 12.109375 25.015625 9.71875 
Q 29.25 7.328125 35.359375 7.328125 
Q 45.796875 7.328125 50.234375 12.0625 
Q 54.6875 16.796875 54.6875 30.28125 
z
" id="ArialMT-85"/>
       <path d="M 52.828125 42.09375 
L 5.5625 42.09375 
L 5.5625 50.296875 
L 52.828125 50.296875 
z
M 52.828125 20.359375 
L 5.5625 20.359375 
L 5.5625 28.5625 
L 52.828125 28.5625 
z
" id="ArialMT-61"/>
      </defs>
      <use xlink:href="#ArialMT-73"/>
      <use x="27.783203" xlink:href="#ArialMT-111"/>
      <use x="83.398438" xlink:href="#ArialMT-85"/>
      <use x="155.615234" xlink:href="#ArialMT-61"/>
      <use x="214.013672" xlink:href="#ArialMT-48"/>
      <use x="269.628906" xlink:href="#ArialMT-46"/>
      <use x="297.412109" xlink:href="#ArialMT-55"/>
      <use x="353.027344" xlink:href="#ArialMT-53"/>
     </g>
    </g>
    <g id="line2d_41">
     <path d="M 1089.87268 162.996914 
L 1122.87268 162.996914 
" style="fill:none;stroke:#00af90;stroke-linecap:round;stroke-width:2.25;"/>
    </g>
    <g id="line2d_42"/>
    <g id="text_35">
     <!-- IoU=0.50 -->
     <g style="fill:#262626;" transform="translate(1136.07268 168.771914)scale(0.165 -0.165)">
      <use xlink:href="#ArialMT-73"/>
      <use x="27.783203" xlink:href="#ArialMT-111"/>
      <use x="83.398438" xlink:href="#ArialMT-85"/>
      <use x="155.615234" xlink:href="#ArialMT-61"/>
      <use x="214.013672" xlink:href="#ArialMT-48"/>
      <use x="269.628906" xlink:href="#ArialMT-46"/>
      <use x="297.412109" xlink:href="#ArialMT-53"/>
      <use x="353.027344" xlink:href="#ArialMT-48"/>
     </g>
    </g>
    <g id="line2d_43">
     <path d="M 1089.87268 186.33668 
L 1122.87268 186.33668 
" style="fill:none;stroke:#2b7ac2;stroke-linecap:round;stroke-width:2.25;"/>
    </g>
    <g id="line2d_44"/>
    <g id="text_36">
     <!-- ignoring localization error -->
     <g style="fill:#262626;" transform="translate(1136.07268 192.11168)scale(0.165 -0.165)">
      <use xlink:href="#ArialMT-105"/>
      <use x="22.216797" xlink:href="#ArialMT-103"/>
      <use x="77.832031" xlink:href="#ArialMT-110"/>
      <use x="133.447266" xlink:href="#ArialMT-111"/>
      <use x="189.0625" xlink:href="#ArialMT-114"/>
      <use x="222.363281" xlink:href="#ArialMT-105"/>
      <use x="244.580078" xlink:href="#ArialMT-110"/>
      <use x="300.195312" xlink:href="#ArialMT-103"/>
      <use x="355.810547" xlink:href="#ArialMT-32"/>
      <use x="383.59375" xlink:href="#ArialMT-108"/>
      <use x="405.810547" xlink:href="#ArialMT-111"/>
      <use x="461.425781" xlink:href="#ArialMT-99"/>
      <use x="511.425781" xlink:href="#ArialMT-97"/>
      <use x="567.041016" xlink:href="#ArialMT-108"/>
      <use x="589.257812" xlink:href="#ArialMT-105"/>
      <use x="611.474609" xlink:href="#ArialMT-122"/>
      <use x="661.474609" xlink:href="#ArialMT-97"/>
      <use x="717.089844" xlink:href="#ArialMT-116"/>
      <use x="744.873047" xlink:href="#ArialMT-105"/>
      <use x="767.089844" xlink:href="#ArialMT-111"/>
      <use x="822.705078" xlink:href="#ArialMT-110"/>
      <use x="878.320312" xlink:href="#ArialMT-32"/>
      <use x="906.103516" xlink:href="#ArialMT-101"/>
      <use x="961.71875" xlink:href="#ArialMT-114"/>
      <use x="995.019531" xlink:href="#ArialMT-114"/>
      <use x="1028.320312" xlink:href="#ArialMT-111"/>
      <use x="1083.935547" xlink:href="#ArialMT-114"/>
     </g>
    </g>
    <g id="line2d_45">
     <path d="M 1089.87268 210.070898 
L 1122.87268 210.070898 
" style="fill:none;stroke:#ff9929;stroke-linecap:round;stroke-width:2.25;"/>
    </g>
    <g id="line2d_46"/>
    <g id="text_37">
     <!-- ignoring localization and classification error -->
     <g style="fill:#262626;" transform="translate(1136.07268 215.845898)scale(0.165 -0.165)">
      <defs>
       <path d="M 8.6875 0 
L 8.6875 45.015625 
L 0.921875 45.015625 
L 0.921875 51.859375 
L 8.6875 51.859375 
L 8.6875 57.375 
Q 8.6875 62.59375 9.625 65.140625 
Q 10.890625 68.5625 14.078125 70.671875 
Q 17.28125 72.796875 23.046875 72.796875 
Q 26.765625 72.796875 31.25 71.921875 
L 29.9375 64.265625 
Q 27.203125 64.75 24.75 64.75 
Q 20.75 64.75 19.09375 63.03125 
Q 17.4375 61.328125 17.4375 56.640625 
L 17.4375 51.859375 
L 27.546875 51.859375 
L 27.546875 45.015625 
L 17.4375 45.015625 
L 17.4375 0 
z
" id="ArialMT-102"/>
      </defs>
      <use xlink:href="#ArialMT-105"/>
      <use x="22.216797" xlink:href="#ArialMT-103"/>
      <use x="77.832031" xlink:href="#ArialMT-110"/>
      <use x="133.447266" xlink:href="#ArialMT-111"/>
      <use x="189.0625" xlink:href="#ArialMT-114"/>
      <use x="222.363281" xlink:href="#ArialMT-105"/>
      <use x="244.580078" xlink:href="#ArialMT-110"/>
      <use x="300.195312" xlink:href="#ArialMT-103"/>
      <use x="355.810547" xlink:href="#ArialMT-32"/>
      <use x="383.59375" xlink:href="#ArialMT-108"/>
      <use x="405.810547" xlink:href="#ArialMT-111"/>
      <use x="461.425781" xlink:href="#ArialMT-99"/>
      <use x="511.425781" xlink:href="#ArialMT-97"/>
      <use x="567.041016" xlink:href="#ArialMT-108"/>
      <use x="589.257812" xlink:href="#ArialMT-105"/>
      <use x="611.474609" xlink:href="#ArialMT-122"/>
      <use x="661.474609" xlink:href="#ArialMT-97"/>
      <use x="717.089844" xlink:href="#ArialMT-116"/>
      <use x="744.873047" xlink:href="#ArialMT-105"/>
      <use x="767.089844" xlink:href="#ArialMT-111"/>
      <use x="822.705078" xlink:href="#ArialMT-110"/>
      <use x="878.320312" xlink:href="#ArialMT-32"/>
      <use x="906.103516" xlink:href="#ArialMT-97"/>
      <use x="961.71875" xlink:href="#ArialMT-110"/>
      <use x="1017.333984" xlink:href="#ArialMT-100"/>
      <use x="1072.949219" xlink:href="#ArialMT-32"/>
      <use x="1100.732422" xlink:href="#ArialMT-99"/>
      <use x="1150.732422" xlink:href="#ArialMT-108"/>
      <use x="1172.949219" xlink:href="#ArialMT-97"/>
      <use x="1228.564453" xlink:href="#ArialMT-115"/>
      <use x="1278.564453" xlink:href="#ArialMT-115"/>
      <use x="1328.564453" xlink:href="#ArialMT-105"/>
      <use x="1350.78125" xlink:href="#ArialMT-102"/>
      <use x="1378.564453" xlink:href="#ArialMT-105"/>
      <use x="1400.78125" xlink:href="#ArialMT-99"/>
      <use x="1450.78125" xlink:href="#ArialMT-97"/>
      <use x="1506.396484" xlink:href="#ArialMT-116"/>
      <use x="1534.179688" xlink:href="#ArialMT-105"/>
      <use x="1556.396484" xlink:href="#ArialMT-111"/>
      <use x="1612.011719" xlink:href="#ArialMT-110"/>
      <use x="1667.626953" xlink:href="#ArialMT-32"/>
      <use x="1695.410156" xlink:href="#ArialMT-101"/>
      <use x="1751.025391" xlink:href="#ArialMT-114"/>
      <use x="1784.326172" xlink:href="#ArialMT-114"/>
      <use x="1817.626953" xlink:href="#ArialMT-111"/>
      <use x="1873.242188" xlink:href="#ArialMT-114"/>
     </g>
    </g>
   </g>
  </g>
 </g>
 <defs>
  <clipPath id="pdee444a858">
   <rect height="221.76" width="295.411765" x="63.096563" y="53.128945"/>
  </clipPath>
  <clipPath id="pf05dad11dd">
   <rect height="221.76" width="295.411765" x="417.59068" y="53.128945"/>
  </clipPath>
  <clipPath id="p1252ef5a07">
   <path d="M 1030.67068 164.008945 
C 1030.67068 149.448317 1027.802554 135.029273 1022.230443 121.577006 
C 1016.658332 108.12474 1008.490599 95.900864 998.19468 85.604945 
C 987.898761 75.309026 975.674885 67.141294 962.222619 61.569183 
C 948.770353 55.997072 934.351308 53.128945 919.79068 53.128945 
C 905.230052 53.128945 890.811008 55.997072 877.358741 61.569183 
C 863.906475 67.141294 851.682599 75.309026 841.38668 85.604945 
C 831.090761 95.900864 822.923029 108.12474 817.350918 121.577006 
C 811.778806 135.029273 808.91068 149.448317 808.91068 164.008945 
C 808.91068 178.569574 811.778806 192.988618 817.350918 206.440884 
C 822.923029 219.893151 831.090761 232.117026 841.38668 242.412945 
C 851.682599 252.708864 863.906475 260.876597 877.358741 266.448708 
C 890.811008 272.020819 905.230052 274.888945 919.79068 274.888945 
C 934.351308 274.888945 948.770353 272.020819 962.222619 266.448708 
C 975.674885 260.876597 987.898761 252.708864 998.19468 242.412945 
C 1008.490599 232.117026 1016.658332 219.893151 1022.230443 206.440884 
C 1027.802554 192.988618 1030.67068 178.569574 1030.67068 164.008945 
M 919.79068 164.008945 
C 919.79068 164.008945 919.79068 164.008945 919.79068 164.008945 
C 919.79068 164.008945 919.79068 164.008945 919.79068 164.008945 
C 919.79068 164.008945 919.79068 164.008945 919.79068 164.008945 
C 919.79068 164.008945 919.79068 164.008945 919.79068 164.008945 
C 919.79068 164.008945 919.79068 164.008945 919.79068 164.008945 
C 919.79068 164.008945 919.79068 164.008945 919.79068 164.008945 
C 919.79068 164.008945 919.79068 164.008945 919.79068 164.008945 
C 919.79068 164.008945 919.79068 164.008945 919.79068 164.008945 
C 919.79068 164.008945 919.79068 164.008945 919.79068 164.008945 
C 919.79068 164.008945 919.79068 164.008945 919.79068 164.008945 
C 919.79068 164.008945 919.79068 164.008945 919.79068 164.008945 
C 919.79068 164.008945 919.79068 164.008945 919.79068 164.008945 
C 919.79068 164.008945 919.79068 164.008945 919.79068 164.008945 
C 919.79068 164.008945 919.79068 164.008945 919.79068 164.008945 
C 919.79068 164.008945 919.79068 164.008945 919.79068 164.008945 
C 919.79068 164.008945 919.79068 164.008945 919.79068 164.008945 
M 1030.67068 164.008945 
z
"/>
  </clipPath>
 </defs>
 <defs>
  <pattern height="72" id="h0ccc3cba9d" patternUnits="userSpaceOnUse" width="72" x="0" y="0">
   <rect fill="#00af90" height="73" width="73" x="0" y="0"/>
   <path d="M -36 36 
L 36 -36 
M -32 40 
L 40 -32 
M -28 44 
L 44 -28 
M -24 48 
L 48 -24 
M -20 52 
L 52 -20 
M -16 56 
L 56 -16 
M -12 60 
L 60 -12 
M -8 64 
L 64 -8 
M -4 68 
L 68 -4 
M 0 72 
L 72 0 
M 4 76 
L 76 4 
M 8 80 
L 80 8 
M 12 84 
L 84 12 
M 16 88 
L 88 16 
M 20 92 
L 92 20 
M 24 96 
L 96 24 
M 28 100 
L 100 28 
M 32 104 
L 104 32 
M 36 108 
L 108 36 
" style="fill:#ffffff;stroke:#ffffff;stroke-linecap:butt;stroke-linejoin:miter;stroke-width:1.0;"/>
  </pattern>
 </defs>
</svg>
